G04 #@! TF.GenerationSoftware,KiCad,Pcbnew,5.1.5-52549c5~84~ubuntu18.04.1*
G04 #@! TF.CreationDate,2019-12-23T01:54:20+01:00*
G04 #@! TF.ProjectId,eq5drive,65713564-7269-4766-952e-6b696361645f,rev?*
G04 #@! TF.SameCoordinates,Original*
G04 #@! TF.FileFunction,Soldermask,Bot*
G04 #@! TF.FilePolarity,Negative*
%FSLAX46Y46*%
G04 Gerber Fmt 4.6, Leading zero omitted, Abs format (unit mm)*
G04 Created by KiCad (PCBNEW 5.1.5-52549c5~84~ubuntu18.04.1) date 2019-12-23 01:54:20*
%MOMM*%
%LPD*%
G04 APERTURE LIST*
%ADD10C,0.100000*%
G04 APERTURE END LIST*
D10*
G36*
X136196564Y-98049389D02*
G01*
X136387833Y-98128615D01*
X136387835Y-98128616D01*
X136559973Y-98243635D01*
X136706365Y-98390027D01*
X136821385Y-98562167D01*
X136900611Y-98753436D01*
X136941000Y-98956484D01*
X136941000Y-99163516D01*
X136900611Y-99366564D01*
X136821385Y-99557833D01*
X136821384Y-99557835D01*
X136706365Y-99729973D01*
X136559973Y-99876365D01*
X136387835Y-99991384D01*
X136387834Y-99991385D01*
X136387833Y-99991385D01*
X136196564Y-100070611D01*
X135993516Y-100111000D01*
X135786484Y-100111000D01*
X135583436Y-100070611D01*
X135392167Y-99991385D01*
X135392166Y-99991385D01*
X135392165Y-99991384D01*
X135220027Y-99876365D01*
X135073635Y-99729973D01*
X134958616Y-99557835D01*
X134958615Y-99557833D01*
X134879389Y-99366564D01*
X134839000Y-99163516D01*
X134839000Y-98956484D01*
X134879389Y-98753436D01*
X134958615Y-98562167D01*
X135073635Y-98390027D01*
X135220027Y-98243635D01*
X135392165Y-98128616D01*
X135392167Y-98128615D01*
X135583436Y-98049389D01*
X135786484Y-98009000D01*
X135993516Y-98009000D01*
X136196564Y-98049389D01*
G37*
G36*
X121941000Y-100111000D02*
G01*
X119839000Y-100111000D01*
X119839000Y-98009000D01*
X121941000Y-98009000D01*
X121941000Y-100111000D01*
G37*
G36*
X115636564Y-98049389D02*
G01*
X115827833Y-98128615D01*
X115827835Y-98128616D01*
X115999973Y-98243635D01*
X116146365Y-98390027D01*
X116261385Y-98562167D01*
X116340611Y-98753436D01*
X116381000Y-98956484D01*
X116381000Y-99163516D01*
X116340611Y-99366564D01*
X116261385Y-99557833D01*
X116261384Y-99557835D01*
X116146365Y-99729973D01*
X115999973Y-99876365D01*
X115827835Y-99991384D01*
X115827834Y-99991385D01*
X115827833Y-99991385D01*
X115636564Y-100070611D01*
X115433516Y-100111000D01*
X115226484Y-100111000D01*
X115023436Y-100070611D01*
X114832167Y-99991385D01*
X114832166Y-99991385D01*
X114832165Y-99991384D01*
X114660027Y-99876365D01*
X114513635Y-99729973D01*
X114398616Y-99557835D01*
X114398615Y-99557833D01*
X114319389Y-99366564D01*
X114279000Y-99163516D01*
X114279000Y-98956484D01*
X114319389Y-98753436D01*
X114398615Y-98562167D01*
X114513635Y-98390027D01*
X114660027Y-98243635D01*
X114832165Y-98128616D01*
X114832167Y-98128615D01*
X115023436Y-98049389D01*
X115226484Y-98009000D01*
X115433516Y-98009000D01*
X115636564Y-98049389D01*
G37*
G36*
X101381000Y-100111000D02*
G01*
X99279000Y-100111000D01*
X99279000Y-98009000D01*
X101381000Y-98009000D01*
X101381000Y-100111000D01*
G37*
G36*
X100578228Y-90621703D02*
G01*
X100733100Y-90685853D01*
X100872481Y-90778985D01*
X100991015Y-90897519D01*
X101084147Y-91036900D01*
X101148297Y-91191772D01*
X101181000Y-91356184D01*
X101181000Y-91523816D01*
X101148297Y-91688228D01*
X101084147Y-91843100D01*
X100991015Y-91982481D01*
X100872481Y-92101015D01*
X100733100Y-92194147D01*
X100578228Y-92258297D01*
X100413816Y-92291000D01*
X100246184Y-92291000D01*
X100081772Y-92258297D01*
X99926900Y-92194147D01*
X99787519Y-92101015D01*
X99668985Y-91982481D01*
X99575853Y-91843100D01*
X99511703Y-91688228D01*
X99479000Y-91523816D01*
X99479000Y-91356184D01*
X99511703Y-91191772D01*
X99575853Y-91036900D01*
X99668985Y-90897519D01*
X99787519Y-90778985D01*
X99926900Y-90685853D01*
X100081772Y-90621703D01*
X100246184Y-90589000D01*
X100413816Y-90589000D01*
X100578228Y-90621703D01*
G37*
G36*
X113278228Y-90621703D02*
G01*
X113433100Y-90685853D01*
X113572481Y-90778985D01*
X113691015Y-90897519D01*
X113784147Y-91036900D01*
X113848297Y-91191772D01*
X113881000Y-91356184D01*
X113881000Y-91523816D01*
X113848297Y-91688228D01*
X113784147Y-91843100D01*
X113691015Y-91982481D01*
X113572481Y-92101015D01*
X113433100Y-92194147D01*
X113278228Y-92258297D01*
X113113816Y-92291000D01*
X112946184Y-92291000D01*
X112781772Y-92258297D01*
X112626900Y-92194147D01*
X112487519Y-92101015D01*
X112368985Y-91982481D01*
X112275853Y-91843100D01*
X112211703Y-91688228D01*
X112179000Y-91523816D01*
X112179000Y-91356184D01*
X112211703Y-91191772D01*
X112275853Y-91036900D01*
X112368985Y-90897519D01*
X112487519Y-90778985D01*
X112626900Y-90685853D01*
X112781772Y-90621703D01*
X112946184Y-90589000D01*
X113113816Y-90589000D01*
X113278228Y-90621703D01*
G37*
G36*
X134868228Y-90621703D02*
G01*
X135023100Y-90685853D01*
X135162481Y-90778985D01*
X135281015Y-90897519D01*
X135374147Y-91036900D01*
X135438297Y-91191772D01*
X135471000Y-91356184D01*
X135471000Y-91523816D01*
X135438297Y-91688228D01*
X135374147Y-91843100D01*
X135281015Y-91982481D01*
X135162481Y-92101015D01*
X135023100Y-92194147D01*
X134868228Y-92258297D01*
X134703816Y-92291000D01*
X134536184Y-92291000D01*
X134371772Y-92258297D01*
X134216900Y-92194147D01*
X134077519Y-92101015D01*
X133958985Y-91982481D01*
X133865853Y-91843100D01*
X133801703Y-91688228D01*
X133769000Y-91523816D01*
X133769000Y-91356184D01*
X133801703Y-91191772D01*
X133865853Y-91036900D01*
X133958985Y-90897519D01*
X134077519Y-90778985D01*
X134216900Y-90685853D01*
X134371772Y-90621703D01*
X134536184Y-90589000D01*
X134703816Y-90589000D01*
X134868228Y-90621703D01*
G37*
G36*
X122168228Y-90621703D02*
G01*
X122323100Y-90685853D01*
X122462481Y-90778985D01*
X122581015Y-90897519D01*
X122674147Y-91036900D01*
X122738297Y-91191772D01*
X122771000Y-91356184D01*
X122771000Y-91523816D01*
X122738297Y-91688228D01*
X122674147Y-91843100D01*
X122581015Y-91982481D01*
X122462481Y-92101015D01*
X122323100Y-92194147D01*
X122168228Y-92258297D01*
X122003816Y-92291000D01*
X121836184Y-92291000D01*
X121671772Y-92258297D01*
X121516900Y-92194147D01*
X121377519Y-92101015D01*
X121258985Y-91982481D01*
X121165853Y-91843100D01*
X121101703Y-91688228D01*
X121069000Y-91523816D01*
X121069000Y-91356184D01*
X121101703Y-91191772D01*
X121165853Y-91036900D01*
X121258985Y-90897519D01*
X121377519Y-90778985D01*
X121516900Y-90685853D01*
X121671772Y-90621703D01*
X121836184Y-90589000D01*
X122003816Y-90589000D01*
X122168228Y-90621703D01*
G37*
G36*
X113278228Y-88081703D02*
G01*
X113433100Y-88145853D01*
X113572481Y-88238985D01*
X113691015Y-88357519D01*
X113784147Y-88496900D01*
X113848297Y-88651772D01*
X113881000Y-88816184D01*
X113881000Y-88983816D01*
X113848297Y-89148228D01*
X113784147Y-89303100D01*
X113691015Y-89442481D01*
X113572481Y-89561015D01*
X113433100Y-89654147D01*
X113278228Y-89718297D01*
X113113816Y-89751000D01*
X112946184Y-89751000D01*
X112781772Y-89718297D01*
X112626900Y-89654147D01*
X112487519Y-89561015D01*
X112368985Y-89442481D01*
X112275853Y-89303100D01*
X112211703Y-89148228D01*
X112179000Y-88983816D01*
X112179000Y-88816184D01*
X112211703Y-88651772D01*
X112275853Y-88496900D01*
X112368985Y-88357519D01*
X112487519Y-88238985D01*
X112626900Y-88145853D01*
X112781772Y-88081703D01*
X112946184Y-88049000D01*
X113113816Y-88049000D01*
X113278228Y-88081703D01*
G37*
G36*
X134868228Y-88081703D02*
G01*
X135023100Y-88145853D01*
X135162481Y-88238985D01*
X135281015Y-88357519D01*
X135374147Y-88496900D01*
X135438297Y-88651772D01*
X135471000Y-88816184D01*
X135471000Y-88983816D01*
X135438297Y-89148228D01*
X135374147Y-89303100D01*
X135281015Y-89442481D01*
X135162481Y-89561015D01*
X135023100Y-89654147D01*
X134868228Y-89718297D01*
X134703816Y-89751000D01*
X134536184Y-89751000D01*
X134371772Y-89718297D01*
X134216900Y-89654147D01*
X134077519Y-89561015D01*
X133958985Y-89442481D01*
X133865853Y-89303100D01*
X133801703Y-89148228D01*
X133769000Y-88983816D01*
X133769000Y-88816184D01*
X133801703Y-88651772D01*
X133865853Y-88496900D01*
X133958985Y-88357519D01*
X134077519Y-88238985D01*
X134216900Y-88145853D01*
X134371772Y-88081703D01*
X134536184Y-88049000D01*
X134703816Y-88049000D01*
X134868228Y-88081703D01*
G37*
G36*
X122168228Y-88081703D02*
G01*
X122323100Y-88145853D01*
X122462481Y-88238985D01*
X122581015Y-88357519D01*
X122674147Y-88496900D01*
X122738297Y-88651772D01*
X122771000Y-88816184D01*
X122771000Y-88983816D01*
X122738297Y-89148228D01*
X122674147Y-89303100D01*
X122581015Y-89442481D01*
X122462481Y-89561015D01*
X122323100Y-89654147D01*
X122168228Y-89718297D01*
X122003816Y-89751000D01*
X121836184Y-89751000D01*
X121671772Y-89718297D01*
X121516900Y-89654147D01*
X121377519Y-89561015D01*
X121258985Y-89442481D01*
X121165853Y-89303100D01*
X121101703Y-89148228D01*
X121069000Y-88983816D01*
X121069000Y-88816184D01*
X121101703Y-88651772D01*
X121165853Y-88496900D01*
X121258985Y-88357519D01*
X121377519Y-88238985D01*
X121516900Y-88145853D01*
X121671772Y-88081703D01*
X121836184Y-88049000D01*
X122003816Y-88049000D01*
X122168228Y-88081703D01*
G37*
G36*
X100578228Y-88081703D02*
G01*
X100733100Y-88145853D01*
X100872481Y-88238985D01*
X100991015Y-88357519D01*
X101084147Y-88496900D01*
X101148297Y-88651772D01*
X101181000Y-88816184D01*
X101181000Y-88983816D01*
X101148297Y-89148228D01*
X101084147Y-89303100D01*
X100991015Y-89442481D01*
X100872481Y-89561015D01*
X100733100Y-89654147D01*
X100578228Y-89718297D01*
X100413816Y-89751000D01*
X100246184Y-89751000D01*
X100081772Y-89718297D01*
X99926900Y-89654147D01*
X99787519Y-89561015D01*
X99668985Y-89442481D01*
X99575853Y-89303100D01*
X99511703Y-89148228D01*
X99479000Y-88983816D01*
X99479000Y-88816184D01*
X99511703Y-88651772D01*
X99575853Y-88496900D01*
X99668985Y-88357519D01*
X99787519Y-88238985D01*
X99926900Y-88145853D01*
X100081772Y-88081703D01*
X100246184Y-88049000D01*
X100413816Y-88049000D01*
X100578228Y-88081703D01*
G37*
G36*
X122168228Y-85541703D02*
G01*
X122323100Y-85605853D01*
X122462481Y-85698985D01*
X122581015Y-85817519D01*
X122674147Y-85956900D01*
X122738297Y-86111772D01*
X122771000Y-86276184D01*
X122771000Y-86443816D01*
X122738297Y-86608228D01*
X122674147Y-86763100D01*
X122581015Y-86902481D01*
X122462481Y-87021015D01*
X122323100Y-87114147D01*
X122168228Y-87178297D01*
X122003816Y-87211000D01*
X121836184Y-87211000D01*
X121671772Y-87178297D01*
X121516900Y-87114147D01*
X121377519Y-87021015D01*
X121258985Y-86902481D01*
X121165853Y-86763100D01*
X121101703Y-86608228D01*
X121069000Y-86443816D01*
X121069000Y-86276184D01*
X121101703Y-86111772D01*
X121165853Y-85956900D01*
X121258985Y-85817519D01*
X121377519Y-85698985D01*
X121516900Y-85605853D01*
X121671772Y-85541703D01*
X121836184Y-85509000D01*
X122003816Y-85509000D01*
X122168228Y-85541703D01*
G37*
G36*
X100578228Y-85541703D02*
G01*
X100733100Y-85605853D01*
X100872481Y-85698985D01*
X100991015Y-85817519D01*
X101084147Y-85956900D01*
X101148297Y-86111772D01*
X101181000Y-86276184D01*
X101181000Y-86443816D01*
X101148297Y-86608228D01*
X101084147Y-86763100D01*
X100991015Y-86902481D01*
X100872481Y-87021015D01*
X100733100Y-87114147D01*
X100578228Y-87178297D01*
X100413816Y-87211000D01*
X100246184Y-87211000D01*
X100081772Y-87178297D01*
X99926900Y-87114147D01*
X99787519Y-87021015D01*
X99668985Y-86902481D01*
X99575853Y-86763100D01*
X99511703Y-86608228D01*
X99479000Y-86443816D01*
X99479000Y-86276184D01*
X99511703Y-86111772D01*
X99575853Y-85956900D01*
X99668985Y-85817519D01*
X99787519Y-85698985D01*
X99926900Y-85605853D01*
X100081772Y-85541703D01*
X100246184Y-85509000D01*
X100413816Y-85509000D01*
X100578228Y-85541703D01*
G37*
G36*
X134868228Y-85541703D02*
G01*
X135023100Y-85605853D01*
X135162481Y-85698985D01*
X135281015Y-85817519D01*
X135374147Y-85956900D01*
X135438297Y-86111772D01*
X135471000Y-86276184D01*
X135471000Y-86443816D01*
X135438297Y-86608228D01*
X135374147Y-86763100D01*
X135281015Y-86902481D01*
X135162481Y-87021015D01*
X135023100Y-87114147D01*
X134868228Y-87178297D01*
X134703816Y-87211000D01*
X134536184Y-87211000D01*
X134371772Y-87178297D01*
X134216900Y-87114147D01*
X134077519Y-87021015D01*
X133958985Y-86902481D01*
X133865853Y-86763100D01*
X133801703Y-86608228D01*
X133769000Y-86443816D01*
X133769000Y-86276184D01*
X133801703Y-86111772D01*
X133865853Y-85956900D01*
X133958985Y-85817519D01*
X134077519Y-85698985D01*
X134216900Y-85605853D01*
X134371772Y-85541703D01*
X134536184Y-85509000D01*
X134703816Y-85509000D01*
X134868228Y-85541703D01*
G37*
G36*
X113278228Y-85541703D02*
G01*
X113433100Y-85605853D01*
X113572481Y-85698985D01*
X113691015Y-85817519D01*
X113784147Y-85956900D01*
X113848297Y-86111772D01*
X113881000Y-86276184D01*
X113881000Y-86443816D01*
X113848297Y-86608228D01*
X113784147Y-86763100D01*
X113691015Y-86902481D01*
X113572481Y-87021015D01*
X113433100Y-87114147D01*
X113278228Y-87178297D01*
X113113816Y-87211000D01*
X112946184Y-87211000D01*
X112781772Y-87178297D01*
X112626900Y-87114147D01*
X112487519Y-87021015D01*
X112368985Y-86902481D01*
X112275853Y-86763100D01*
X112211703Y-86608228D01*
X112179000Y-86443816D01*
X112179000Y-86276184D01*
X112211703Y-86111772D01*
X112275853Y-85956900D01*
X112368985Y-85817519D01*
X112487519Y-85698985D01*
X112626900Y-85605853D01*
X112781772Y-85541703D01*
X112946184Y-85509000D01*
X113113816Y-85509000D01*
X113278228Y-85541703D01*
G37*
G36*
X100578228Y-83001703D02*
G01*
X100733100Y-83065853D01*
X100872481Y-83158985D01*
X100991015Y-83277519D01*
X101084147Y-83416900D01*
X101148297Y-83571772D01*
X101181000Y-83736184D01*
X101181000Y-83903816D01*
X101148297Y-84068228D01*
X101084147Y-84223100D01*
X100991015Y-84362481D01*
X100872481Y-84481015D01*
X100733100Y-84574147D01*
X100578228Y-84638297D01*
X100413816Y-84671000D01*
X100246184Y-84671000D01*
X100081772Y-84638297D01*
X99926900Y-84574147D01*
X99787519Y-84481015D01*
X99668985Y-84362481D01*
X99575853Y-84223100D01*
X99511703Y-84068228D01*
X99479000Y-83903816D01*
X99479000Y-83736184D01*
X99511703Y-83571772D01*
X99575853Y-83416900D01*
X99668985Y-83277519D01*
X99787519Y-83158985D01*
X99926900Y-83065853D01*
X100081772Y-83001703D01*
X100246184Y-82969000D01*
X100413816Y-82969000D01*
X100578228Y-83001703D01*
G37*
G36*
X113278228Y-83001703D02*
G01*
X113433100Y-83065853D01*
X113572481Y-83158985D01*
X113691015Y-83277519D01*
X113784147Y-83416900D01*
X113848297Y-83571772D01*
X113881000Y-83736184D01*
X113881000Y-83903816D01*
X113848297Y-84068228D01*
X113784147Y-84223100D01*
X113691015Y-84362481D01*
X113572481Y-84481015D01*
X113433100Y-84574147D01*
X113278228Y-84638297D01*
X113113816Y-84671000D01*
X112946184Y-84671000D01*
X112781772Y-84638297D01*
X112626900Y-84574147D01*
X112487519Y-84481015D01*
X112368985Y-84362481D01*
X112275853Y-84223100D01*
X112211703Y-84068228D01*
X112179000Y-83903816D01*
X112179000Y-83736184D01*
X112211703Y-83571772D01*
X112275853Y-83416900D01*
X112368985Y-83277519D01*
X112487519Y-83158985D01*
X112626900Y-83065853D01*
X112781772Y-83001703D01*
X112946184Y-82969000D01*
X113113816Y-82969000D01*
X113278228Y-83001703D01*
G37*
G36*
X122168228Y-83001703D02*
G01*
X122323100Y-83065853D01*
X122462481Y-83158985D01*
X122581015Y-83277519D01*
X122674147Y-83416900D01*
X122738297Y-83571772D01*
X122771000Y-83736184D01*
X122771000Y-83903816D01*
X122738297Y-84068228D01*
X122674147Y-84223100D01*
X122581015Y-84362481D01*
X122462481Y-84481015D01*
X122323100Y-84574147D01*
X122168228Y-84638297D01*
X122003816Y-84671000D01*
X121836184Y-84671000D01*
X121671772Y-84638297D01*
X121516900Y-84574147D01*
X121377519Y-84481015D01*
X121258985Y-84362481D01*
X121165853Y-84223100D01*
X121101703Y-84068228D01*
X121069000Y-83903816D01*
X121069000Y-83736184D01*
X121101703Y-83571772D01*
X121165853Y-83416900D01*
X121258985Y-83277519D01*
X121377519Y-83158985D01*
X121516900Y-83065853D01*
X121671772Y-83001703D01*
X121836184Y-82969000D01*
X122003816Y-82969000D01*
X122168228Y-83001703D01*
G37*
G36*
X134868228Y-83001703D02*
G01*
X135023100Y-83065853D01*
X135162481Y-83158985D01*
X135281015Y-83277519D01*
X135374147Y-83416900D01*
X135438297Y-83571772D01*
X135471000Y-83736184D01*
X135471000Y-83903816D01*
X135438297Y-84068228D01*
X135374147Y-84223100D01*
X135281015Y-84362481D01*
X135162481Y-84481015D01*
X135023100Y-84574147D01*
X134868228Y-84638297D01*
X134703816Y-84671000D01*
X134536184Y-84671000D01*
X134371772Y-84638297D01*
X134216900Y-84574147D01*
X134077519Y-84481015D01*
X133958985Y-84362481D01*
X133865853Y-84223100D01*
X133801703Y-84068228D01*
X133769000Y-83903816D01*
X133769000Y-83736184D01*
X133801703Y-83571772D01*
X133865853Y-83416900D01*
X133958985Y-83277519D01*
X134077519Y-83158985D01*
X134216900Y-83065853D01*
X134371772Y-83001703D01*
X134536184Y-82969000D01*
X134703816Y-82969000D01*
X134868228Y-83001703D01*
G37*
G36*
X100578228Y-80461703D02*
G01*
X100733100Y-80525853D01*
X100872481Y-80618985D01*
X100991015Y-80737519D01*
X101084147Y-80876900D01*
X101148297Y-81031772D01*
X101181000Y-81196184D01*
X101181000Y-81363816D01*
X101148297Y-81528228D01*
X101084147Y-81683100D01*
X100991015Y-81822481D01*
X100872481Y-81941015D01*
X100733100Y-82034147D01*
X100578228Y-82098297D01*
X100413816Y-82131000D01*
X100246184Y-82131000D01*
X100081772Y-82098297D01*
X99926900Y-82034147D01*
X99787519Y-81941015D01*
X99668985Y-81822481D01*
X99575853Y-81683100D01*
X99511703Y-81528228D01*
X99479000Y-81363816D01*
X99479000Y-81196184D01*
X99511703Y-81031772D01*
X99575853Y-80876900D01*
X99668985Y-80737519D01*
X99787519Y-80618985D01*
X99926900Y-80525853D01*
X100081772Y-80461703D01*
X100246184Y-80429000D01*
X100413816Y-80429000D01*
X100578228Y-80461703D01*
G37*
G36*
X122168228Y-80461703D02*
G01*
X122323100Y-80525853D01*
X122462481Y-80618985D01*
X122581015Y-80737519D01*
X122674147Y-80876900D01*
X122738297Y-81031772D01*
X122771000Y-81196184D01*
X122771000Y-81363816D01*
X122738297Y-81528228D01*
X122674147Y-81683100D01*
X122581015Y-81822481D01*
X122462481Y-81941015D01*
X122323100Y-82034147D01*
X122168228Y-82098297D01*
X122003816Y-82131000D01*
X121836184Y-82131000D01*
X121671772Y-82098297D01*
X121516900Y-82034147D01*
X121377519Y-81941015D01*
X121258985Y-81822481D01*
X121165853Y-81683100D01*
X121101703Y-81528228D01*
X121069000Y-81363816D01*
X121069000Y-81196184D01*
X121101703Y-81031772D01*
X121165853Y-80876900D01*
X121258985Y-80737519D01*
X121377519Y-80618985D01*
X121516900Y-80525853D01*
X121671772Y-80461703D01*
X121836184Y-80429000D01*
X122003816Y-80429000D01*
X122168228Y-80461703D01*
G37*
G36*
X113278228Y-80461703D02*
G01*
X113433100Y-80525853D01*
X113572481Y-80618985D01*
X113691015Y-80737519D01*
X113784147Y-80876900D01*
X113848297Y-81031772D01*
X113881000Y-81196184D01*
X113881000Y-81363816D01*
X113848297Y-81528228D01*
X113784147Y-81683100D01*
X113691015Y-81822481D01*
X113572481Y-81941015D01*
X113433100Y-82034147D01*
X113278228Y-82098297D01*
X113113816Y-82131000D01*
X112946184Y-82131000D01*
X112781772Y-82098297D01*
X112626900Y-82034147D01*
X112487519Y-81941015D01*
X112368985Y-81822481D01*
X112275853Y-81683100D01*
X112211703Y-81528228D01*
X112179000Y-81363816D01*
X112179000Y-81196184D01*
X112211703Y-81031772D01*
X112275853Y-80876900D01*
X112368985Y-80737519D01*
X112487519Y-80618985D01*
X112626900Y-80525853D01*
X112781772Y-80461703D01*
X112946184Y-80429000D01*
X113113816Y-80429000D01*
X113278228Y-80461703D01*
G37*
G36*
X134868228Y-80461703D02*
G01*
X135023100Y-80525853D01*
X135162481Y-80618985D01*
X135281015Y-80737519D01*
X135374147Y-80876900D01*
X135438297Y-81031772D01*
X135471000Y-81196184D01*
X135471000Y-81363816D01*
X135438297Y-81528228D01*
X135374147Y-81683100D01*
X135281015Y-81822481D01*
X135162481Y-81941015D01*
X135023100Y-82034147D01*
X134868228Y-82098297D01*
X134703816Y-82131000D01*
X134536184Y-82131000D01*
X134371772Y-82098297D01*
X134216900Y-82034147D01*
X134077519Y-81941015D01*
X133958985Y-81822481D01*
X133865853Y-81683100D01*
X133801703Y-81528228D01*
X133769000Y-81363816D01*
X133769000Y-81196184D01*
X133801703Y-81031772D01*
X133865853Y-80876900D01*
X133958985Y-80737519D01*
X134077519Y-80618985D01*
X134216900Y-80525853D01*
X134371772Y-80461703D01*
X134536184Y-80429000D01*
X134703816Y-80429000D01*
X134868228Y-80461703D01*
G37*
G36*
X122168228Y-77921703D02*
G01*
X122323100Y-77985853D01*
X122462481Y-78078985D01*
X122581015Y-78197519D01*
X122674147Y-78336900D01*
X122738297Y-78491772D01*
X122771000Y-78656184D01*
X122771000Y-78823816D01*
X122738297Y-78988228D01*
X122674147Y-79143100D01*
X122581015Y-79282481D01*
X122462481Y-79401015D01*
X122323100Y-79494147D01*
X122168228Y-79558297D01*
X122003816Y-79591000D01*
X121836184Y-79591000D01*
X121671772Y-79558297D01*
X121516900Y-79494147D01*
X121377519Y-79401015D01*
X121258985Y-79282481D01*
X121165853Y-79143100D01*
X121101703Y-78988228D01*
X121069000Y-78823816D01*
X121069000Y-78656184D01*
X121101703Y-78491772D01*
X121165853Y-78336900D01*
X121258985Y-78197519D01*
X121377519Y-78078985D01*
X121516900Y-77985853D01*
X121671772Y-77921703D01*
X121836184Y-77889000D01*
X122003816Y-77889000D01*
X122168228Y-77921703D01*
G37*
G36*
X134868228Y-77921703D02*
G01*
X135023100Y-77985853D01*
X135162481Y-78078985D01*
X135281015Y-78197519D01*
X135374147Y-78336900D01*
X135438297Y-78491772D01*
X135471000Y-78656184D01*
X135471000Y-78823816D01*
X135438297Y-78988228D01*
X135374147Y-79143100D01*
X135281015Y-79282481D01*
X135162481Y-79401015D01*
X135023100Y-79494147D01*
X134868228Y-79558297D01*
X134703816Y-79591000D01*
X134536184Y-79591000D01*
X134371772Y-79558297D01*
X134216900Y-79494147D01*
X134077519Y-79401015D01*
X133958985Y-79282481D01*
X133865853Y-79143100D01*
X133801703Y-78988228D01*
X133769000Y-78823816D01*
X133769000Y-78656184D01*
X133801703Y-78491772D01*
X133865853Y-78336900D01*
X133958985Y-78197519D01*
X134077519Y-78078985D01*
X134216900Y-77985853D01*
X134371772Y-77921703D01*
X134536184Y-77889000D01*
X134703816Y-77889000D01*
X134868228Y-77921703D01*
G37*
G36*
X113278228Y-77921703D02*
G01*
X113433100Y-77985853D01*
X113572481Y-78078985D01*
X113691015Y-78197519D01*
X113784147Y-78336900D01*
X113848297Y-78491772D01*
X113881000Y-78656184D01*
X113881000Y-78823816D01*
X113848297Y-78988228D01*
X113784147Y-79143100D01*
X113691015Y-79282481D01*
X113572481Y-79401015D01*
X113433100Y-79494147D01*
X113278228Y-79558297D01*
X113113816Y-79591000D01*
X112946184Y-79591000D01*
X112781772Y-79558297D01*
X112626900Y-79494147D01*
X112487519Y-79401015D01*
X112368985Y-79282481D01*
X112275853Y-79143100D01*
X112211703Y-78988228D01*
X112179000Y-78823816D01*
X112179000Y-78656184D01*
X112211703Y-78491772D01*
X112275853Y-78336900D01*
X112368985Y-78197519D01*
X112487519Y-78078985D01*
X112626900Y-77985853D01*
X112781772Y-77921703D01*
X112946184Y-77889000D01*
X113113816Y-77889000D01*
X113278228Y-77921703D01*
G37*
G36*
X100578228Y-77921703D02*
G01*
X100733100Y-77985853D01*
X100872481Y-78078985D01*
X100991015Y-78197519D01*
X101084147Y-78336900D01*
X101148297Y-78491772D01*
X101181000Y-78656184D01*
X101181000Y-78823816D01*
X101148297Y-78988228D01*
X101084147Y-79143100D01*
X100991015Y-79282481D01*
X100872481Y-79401015D01*
X100733100Y-79494147D01*
X100578228Y-79558297D01*
X100413816Y-79591000D01*
X100246184Y-79591000D01*
X100081772Y-79558297D01*
X99926900Y-79494147D01*
X99787519Y-79401015D01*
X99668985Y-79282481D01*
X99575853Y-79143100D01*
X99511703Y-78988228D01*
X99479000Y-78823816D01*
X99479000Y-78656184D01*
X99511703Y-78491772D01*
X99575853Y-78336900D01*
X99668985Y-78197519D01*
X99787519Y-78078985D01*
X99926900Y-77985853D01*
X100081772Y-77921703D01*
X100246184Y-77889000D01*
X100413816Y-77889000D01*
X100578228Y-77921703D01*
G37*
G36*
X113278228Y-75381703D02*
G01*
X113433100Y-75445853D01*
X113572481Y-75538985D01*
X113691015Y-75657519D01*
X113784147Y-75796900D01*
X113848297Y-75951772D01*
X113881000Y-76116184D01*
X113881000Y-76283816D01*
X113848297Y-76448228D01*
X113784147Y-76603100D01*
X113691015Y-76742481D01*
X113572481Y-76861015D01*
X113433100Y-76954147D01*
X113278228Y-77018297D01*
X113113816Y-77051000D01*
X112946184Y-77051000D01*
X112781772Y-77018297D01*
X112626900Y-76954147D01*
X112487519Y-76861015D01*
X112368985Y-76742481D01*
X112275853Y-76603100D01*
X112211703Y-76448228D01*
X112179000Y-76283816D01*
X112179000Y-76116184D01*
X112211703Y-75951772D01*
X112275853Y-75796900D01*
X112368985Y-75657519D01*
X112487519Y-75538985D01*
X112626900Y-75445853D01*
X112781772Y-75381703D01*
X112946184Y-75349000D01*
X113113816Y-75349000D01*
X113278228Y-75381703D01*
G37*
G36*
X100578228Y-75381703D02*
G01*
X100733100Y-75445853D01*
X100872481Y-75538985D01*
X100991015Y-75657519D01*
X101084147Y-75796900D01*
X101148297Y-75951772D01*
X101181000Y-76116184D01*
X101181000Y-76283816D01*
X101148297Y-76448228D01*
X101084147Y-76603100D01*
X100991015Y-76742481D01*
X100872481Y-76861015D01*
X100733100Y-76954147D01*
X100578228Y-77018297D01*
X100413816Y-77051000D01*
X100246184Y-77051000D01*
X100081772Y-77018297D01*
X99926900Y-76954147D01*
X99787519Y-76861015D01*
X99668985Y-76742481D01*
X99575853Y-76603100D01*
X99511703Y-76448228D01*
X99479000Y-76283816D01*
X99479000Y-76116184D01*
X99511703Y-75951772D01*
X99575853Y-75796900D01*
X99668985Y-75657519D01*
X99787519Y-75538985D01*
X99926900Y-75445853D01*
X100081772Y-75381703D01*
X100246184Y-75349000D01*
X100413816Y-75349000D01*
X100578228Y-75381703D01*
G37*
G36*
X122168228Y-75381703D02*
G01*
X122323100Y-75445853D01*
X122462481Y-75538985D01*
X122581015Y-75657519D01*
X122674147Y-75796900D01*
X122738297Y-75951772D01*
X122771000Y-76116184D01*
X122771000Y-76283816D01*
X122738297Y-76448228D01*
X122674147Y-76603100D01*
X122581015Y-76742481D01*
X122462481Y-76861015D01*
X122323100Y-76954147D01*
X122168228Y-77018297D01*
X122003816Y-77051000D01*
X121836184Y-77051000D01*
X121671772Y-77018297D01*
X121516900Y-76954147D01*
X121377519Y-76861015D01*
X121258985Y-76742481D01*
X121165853Y-76603100D01*
X121101703Y-76448228D01*
X121069000Y-76283816D01*
X121069000Y-76116184D01*
X121101703Y-75951772D01*
X121165853Y-75796900D01*
X121258985Y-75657519D01*
X121377519Y-75538985D01*
X121516900Y-75445853D01*
X121671772Y-75381703D01*
X121836184Y-75349000D01*
X122003816Y-75349000D01*
X122168228Y-75381703D01*
G37*
G36*
X96768228Y-75381703D02*
G01*
X96923100Y-75445853D01*
X97062481Y-75538985D01*
X97181015Y-75657519D01*
X97274147Y-75796900D01*
X97338297Y-75951772D01*
X97371000Y-76116184D01*
X97371000Y-76283816D01*
X97338297Y-76448228D01*
X97274147Y-76603100D01*
X97181015Y-76742481D01*
X97062481Y-76861015D01*
X96923100Y-76954147D01*
X96768228Y-77018297D01*
X96603816Y-77051000D01*
X96436184Y-77051000D01*
X96271772Y-77018297D01*
X96116900Y-76954147D01*
X95977519Y-76861015D01*
X95858985Y-76742481D01*
X95765853Y-76603100D01*
X95701703Y-76448228D01*
X95669000Y-76283816D01*
X95669000Y-76116184D01*
X95701703Y-75951772D01*
X95765853Y-75796900D01*
X95858985Y-75657519D01*
X95977519Y-75538985D01*
X96116900Y-75445853D01*
X96271772Y-75381703D01*
X96436184Y-75349000D01*
X96603816Y-75349000D01*
X96768228Y-75381703D01*
G37*
G36*
X134868228Y-75381703D02*
G01*
X135023100Y-75445853D01*
X135162481Y-75538985D01*
X135281015Y-75657519D01*
X135374147Y-75796900D01*
X135438297Y-75951772D01*
X135471000Y-76116184D01*
X135471000Y-76283816D01*
X135438297Y-76448228D01*
X135374147Y-76603100D01*
X135281015Y-76742481D01*
X135162481Y-76861015D01*
X135023100Y-76954147D01*
X134868228Y-77018297D01*
X134703816Y-77051000D01*
X134536184Y-77051000D01*
X134371772Y-77018297D01*
X134216900Y-76954147D01*
X134077519Y-76861015D01*
X133958985Y-76742481D01*
X133865853Y-76603100D01*
X133801703Y-76448228D01*
X133769000Y-76283816D01*
X133769000Y-76116184D01*
X133801703Y-75951772D01*
X133865853Y-75796900D01*
X133958985Y-75657519D01*
X134077519Y-75538985D01*
X134216900Y-75445853D01*
X134371772Y-75381703D01*
X134536184Y-75349000D01*
X134703816Y-75349000D01*
X134868228Y-75381703D01*
G37*
G36*
X118358228Y-75341703D02*
G01*
X118513100Y-75405853D01*
X118652481Y-75498985D01*
X118771015Y-75617519D01*
X118864147Y-75756900D01*
X118928297Y-75911772D01*
X118961000Y-76076184D01*
X118961000Y-76243816D01*
X118928297Y-76408228D01*
X118864147Y-76563100D01*
X118771015Y-76702481D01*
X118652481Y-76821015D01*
X118513100Y-76914147D01*
X118358228Y-76978297D01*
X118193816Y-77011000D01*
X118026184Y-77011000D01*
X117861772Y-76978297D01*
X117706900Y-76914147D01*
X117567519Y-76821015D01*
X117448985Y-76702481D01*
X117355853Y-76563100D01*
X117291703Y-76408228D01*
X117259000Y-76243816D01*
X117259000Y-76076184D01*
X117291703Y-75911772D01*
X117355853Y-75756900D01*
X117448985Y-75617519D01*
X117567519Y-75498985D01*
X117706900Y-75405853D01*
X117861772Y-75341703D01*
X118026184Y-75309000D01*
X118193816Y-75309000D01*
X118358228Y-75341703D01*
G37*
G36*
X96768228Y-72881703D02*
G01*
X96923100Y-72945853D01*
X97062481Y-73038985D01*
X97181015Y-73157519D01*
X97274147Y-73296900D01*
X97338297Y-73451772D01*
X97371000Y-73616184D01*
X97371000Y-73783816D01*
X97338297Y-73948228D01*
X97274147Y-74103100D01*
X97181015Y-74242481D01*
X97062481Y-74361015D01*
X96923100Y-74454147D01*
X96768228Y-74518297D01*
X96603816Y-74551000D01*
X96436184Y-74551000D01*
X96271772Y-74518297D01*
X96116900Y-74454147D01*
X95977519Y-74361015D01*
X95858985Y-74242481D01*
X95765853Y-74103100D01*
X95701703Y-73948228D01*
X95669000Y-73783816D01*
X95669000Y-73616184D01*
X95701703Y-73451772D01*
X95765853Y-73296900D01*
X95858985Y-73157519D01*
X95977519Y-73038985D01*
X96116900Y-72945853D01*
X96271772Y-72881703D01*
X96436184Y-72849000D01*
X96603816Y-72849000D01*
X96768228Y-72881703D01*
G37*
G36*
X101181000Y-74511000D02*
G01*
X99479000Y-74511000D01*
X99479000Y-72809000D01*
X101181000Y-72809000D01*
X101181000Y-74511000D01*
G37*
G36*
X122771000Y-74511000D02*
G01*
X121069000Y-74511000D01*
X121069000Y-72809000D01*
X122771000Y-72809000D01*
X122771000Y-74511000D01*
G37*
G36*
X134868228Y-72841703D02*
G01*
X135023100Y-72905853D01*
X135162481Y-72998985D01*
X135281015Y-73117519D01*
X135374147Y-73256900D01*
X135438297Y-73411772D01*
X135471000Y-73576184D01*
X135471000Y-73743816D01*
X135438297Y-73908228D01*
X135374147Y-74063100D01*
X135281015Y-74202481D01*
X135162481Y-74321015D01*
X135023100Y-74414147D01*
X134868228Y-74478297D01*
X134703816Y-74511000D01*
X134536184Y-74511000D01*
X134371772Y-74478297D01*
X134216900Y-74414147D01*
X134077519Y-74321015D01*
X133958985Y-74202481D01*
X133865853Y-74063100D01*
X133801703Y-73908228D01*
X133769000Y-73743816D01*
X133769000Y-73576184D01*
X133801703Y-73411772D01*
X133865853Y-73256900D01*
X133958985Y-73117519D01*
X134077519Y-72998985D01*
X134216900Y-72905853D01*
X134371772Y-72841703D01*
X134536184Y-72809000D01*
X134703816Y-72809000D01*
X134868228Y-72841703D01*
G37*
G36*
X118358228Y-72841703D02*
G01*
X118513100Y-72905853D01*
X118652481Y-72998985D01*
X118771015Y-73117519D01*
X118864147Y-73256900D01*
X118928297Y-73411772D01*
X118961000Y-73576184D01*
X118961000Y-73743816D01*
X118928297Y-73908228D01*
X118864147Y-74063100D01*
X118771015Y-74202481D01*
X118652481Y-74321015D01*
X118513100Y-74414147D01*
X118358228Y-74478297D01*
X118193816Y-74511000D01*
X118026184Y-74511000D01*
X117861772Y-74478297D01*
X117706900Y-74414147D01*
X117567519Y-74321015D01*
X117448985Y-74202481D01*
X117355853Y-74063100D01*
X117291703Y-73908228D01*
X117259000Y-73743816D01*
X117259000Y-73576184D01*
X117291703Y-73411772D01*
X117355853Y-73256900D01*
X117448985Y-73117519D01*
X117567519Y-72998985D01*
X117706900Y-72905853D01*
X117861772Y-72841703D01*
X118026184Y-72809000D01*
X118193816Y-72809000D01*
X118358228Y-72841703D01*
G37*
G36*
X113278228Y-72841703D02*
G01*
X113433100Y-72905853D01*
X113572481Y-72998985D01*
X113691015Y-73117519D01*
X113784147Y-73256900D01*
X113848297Y-73411772D01*
X113881000Y-73576184D01*
X113881000Y-73743816D01*
X113848297Y-73908228D01*
X113784147Y-74063100D01*
X113691015Y-74202481D01*
X113572481Y-74321015D01*
X113433100Y-74414147D01*
X113278228Y-74478297D01*
X113113816Y-74511000D01*
X112946184Y-74511000D01*
X112781772Y-74478297D01*
X112626900Y-74414147D01*
X112487519Y-74321015D01*
X112368985Y-74202481D01*
X112275853Y-74063100D01*
X112211703Y-73908228D01*
X112179000Y-73743816D01*
X112179000Y-73576184D01*
X112211703Y-73411772D01*
X112275853Y-73256900D01*
X112368985Y-73117519D01*
X112487519Y-72998985D01*
X112626900Y-72905853D01*
X112781772Y-72841703D01*
X112946184Y-72809000D01*
X113113816Y-72809000D01*
X113278228Y-72841703D01*
G37*
G36*
X136791000Y-68211000D02*
G01*
X134989000Y-68211000D01*
X134989000Y-66409000D01*
X136791000Y-66409000D01*
X136791000Y-68211000D01*
G37*
G36*
X112661000Y-68211000D02*
G01*
X110859000Y-68211000D01*
X110859000Y-66409000D01*
X112661000Y-66409000D01*
X112661000Y-68211000D01*
G37*
G36*
X133463512Y-66413927D02*
G01*
X133612812Y-66443624D01*
X133776784Y-66511544D01*
X133924354Y-66610147D01*
X134049853Y-66735646D01*
X134148456Y-66883216D01*
X134216376Y-67047188D01*
X134251000Y-67221259D01*
X134251000Y-67398741D01*
X134216376Y-67572812D01*
X134148456Y-67736784D01*
X134049853Y-67884354D01*
X133924354Y-68009853D01*
X133776784Y-68108456D01*
X133612812Y-68176376D01*
X133463512Y-68206073D01*
X133438742Y-68211000D01*
X133261258Y-68211000D01*
X133236488Y-68206073D01*
X133087188Y-68176376D01*
X132923216Y-68108456D01*
X132775646Y-68009853D01*
X132650147Y-67884354D01*
X132551544Y-67736784D01*
X132483624Y-67572812D01*
X132449000Y-67398741D01*
X132449000Y-67221259D01*
X132483624Y-67047188D01*
X132551544Y-66883216D01*
X132650147Y-66735646D01*
X132775646Y-66610147D01*
X132923216Y-66511544D01*
X133087188Y-66443624D01*
X133236488Y-66413927D01*
X133261258Y-66409000D01*
X133438742Y-66409000D01*
X133463512Y-66413927D01*
G37*
G36*
X130923512Y-66413927D02*
G01*
X131072812Y-66443624D01*
X131236784Y-66511544D01*
X131384354Y-66610147D01*
X131509853Y-66735646D01*
X131608456Y-66883216D01*
X131676376Y-67047188D01*
X131711000Y-67221259D01*
X131711000Y-67398741D01*
X131676376Y-67572812D01*
X131608456Y-67736784D01*
X131509853Y-67884354D01*
X131384354Y-68009853D01*
X131236784Y-68108456D01*
X131072812Y-68176376D01*
X130923512Y-68206073D01*
X130898742Y-68211000D01*
X130721258Y-68211000D01*
X130696488Y-68206073D01*
X130547188Y-68176376D01*
X130383216Y-68108456D01*
X130235646Y-68009853D01*
X130110147Y-67884354D01*
X130011544Y-67736784D01*
X129943624Y-67572812D01*
X129909000Y-67398741D01*
X129909000Y-67221259D01*
X129943624Y-67047188D01*
X130011544Y-66883216D01*
X130110147Y-66735646D01*
X130235646Y-66610147D01*
X130383216Y-66511544D01*
X130547188Y-66443624D01*
X130696488Y-66413927D01*
X130721258Y-66409000D01*
X130898742Y-66409000D01*
X130923512Y-66413927D01*
G37*
G36*
X128383512Y-66413927D02*
G01*
X128532812Y-66443624D01*
X128696784Y-66511544D01*
X128844354Y-66610147D01*
X128969853Y-66735646D01*
X129068456Y-66883216D01*
X129136376Y-67047188D01*
X129171000Y-67221259D01*
X129171000Y-67398741D01*
X129136376Y-67572812D01*
X129068456Y-67736784D01*
X128969853Y-67884354D01*
X128844354Y-68009853D01*
X128696784Y-68108456D01*
X128532812Y-68176376D01*
X128383512Y-68206073D01*
X128358742Y-68211000D01*
X128181258Y-68211000D01*
X128156488Y-68206073D01*
X128007188Y-68176376D01*
X127843216Y-68108456D01*
X127695646Y-68009853D01*
X127570147Y-67884354D01*
X127471544Y-67736784D01*
X127403624Y-67572812D01*
X127369000Y-67398741D01*
X127369000Y-67221259D01*
X127403624Y-67047188D01*
X127471544Y-66883216D01*
X127570147Y-66735646D01*
X127695646Y-66610147D01*
X127843216Y-66511544D01*
X128007188Y-66443624D01*
X128156488Y-66413927D01*
X128181258Y-66409000D01*
X128358742Y-66409000D01*
X128383512Y-66413927D01*
G37*
G36*
X122033512Y-66413927D02*
G01*
X122182812Y-66443624D01*
X122346784Y-66511544D01*
X122494354Y-66610147D01*
X122619853Y-66735646D01*
X122718456Y-66883216D01*
X122786376Y-67047188D01*
X122821000Y-67221259D01*
X122821000Y-67398741D01*
X122786376Y-67572812D01*
X122718456Y-67736784D01*
X122619853Y-67884354D01*
X122494354Y-68009853D01*
X122346784Y-68108456D01*
X122182812Y-68176376D01*
X122033512Y-68206073D01*
X122008742Y-68211000D01*
X121831258Y-68211000D01*
X121806488Y-68206073D01*
X121657188Y-68176376D01*
X121493216Y-68108456D01*
X121345646Y-68009853D01*
X121220147Y-67884354D01*
X121121544Y-67736784D01*
X121053624Y-67572812D01*
X121019000Y-67398741D01*
X121019000Y-67221259D01*
X121053624Y-67047188D01*
X121121544Y-66883216D01*
X121220147Y-66735646D01*
X121345646Y-66610147D01*
X121493216Y-66511544D01*
X121657188Y-66443624D01*
X121806488Y-66413927D01*
X121831258Y-66409000D01*
X122008742Y-66409000D01*
X122033512Y-66413927D01*
G37*
G36*
X119493512Y-66413927D02*
G01*
X119642812Y-66443624D01*
X119806784Y-66511544D01*
X119954354Y-66610147D01*
X120079853Y-66735646D01*
X120178456Y-66883216D01*
X120246376Y-67047188D01*
X120281000Y-67221259D01*
X120281000Y-67398741D01*
X120246376Y-67572812D01*
X120178456Y-67736784D01*
X120079853Y-67884354D01*
X119954354Y-68009853D01*
X119806784Y-68108456D01*
X119642812Y-68176376D01*
X119493512Y-68206073D01*
X119468742Y-68211000D01*
X119291258Y-68211000D01*
X119266488Y-68206073D01*
X119117188Y-68176376D01*
X118953216Y-68108456D01*
X118805646Y-68009853D01*
X118680147Y-67884354D01*
X118581544Y-67736784D01*
X118513624Y-67572812D01*
X118479000Y-67398741D01*
X118479000Y-67221259D01*
X118513624Y-67047188D01*
X118581544Y-66883216D01*
X118680147Y-66735646D01*
X118805646Y-66610147D01*
X118953216Y-66511544D01*
X119117188Y-66443624D01*
X119266488Y-66413927D01*
X119291258Y-66409000D01*
X119468742Y-66409000D01*
X119493512Y-66413927D01*
G37*
G36*
X116953512Y-66413927D02*
G01*
X117102812Y-66443624D01*
X117266784Y-66511544D01*
X117414354Y-66610147D01*
X117539853Y-66735646D01*
X117638456Y-66883216D01*
X117706376Y-67047188D01*
X117741000Y-67221259D01*
X117741000Y-67398741D01*
X117706376Y-67572812D01*
X117638456Y-67736784D01*
X117539853Y-67884354D01*
X117414354Y-68009853D01*
X117266784Y-68108456D01*
X117102812Y-68176376D01*
X116953512Y-68206073D01*
X116928742Y-68211000D01*
X116751258Y-68211000D01*
X116726488Y-68206073D01*
X116577188Y-68176376D01*
X116413216Y-68108456D01*
X116265646Y-68009853D01*
X116140147Y-67884354D01*
X116041544Y-67736784D01*
X115973624Y-67572812D01*
X115939000Y-67398741D01*
X115939000Y-67221259D01*
X115973624Y-67047188D01*
X116041544Y-66883216D01*
X116140147Y-66735646D01*
X116265646Y-66610147D01*
X116413216Y-66511544D01*
X116577188Y-66443624D01*
X116726488Y-66413927D01*
X116751258Y-66409000D01*
X116928742Y-66409000D01*
X116953512Y-66413927D01*
G37*
G36*
X114413512Y-66413927D02*
G01*
X114562812Y-66443624D01*
X114726784Y-66511544D01*
X114874354Y-66610147D01*
X114999853Y-66735646D01*
X115098456Y-66883216D01*
X115166376Y-67047188D01*
X115201000Y-67221259D01*
X115201000Y-67398741D01*
X115166376Y-67572812D01*
X115098456Y-67736784D01*
X114999853Y-67884354D01*
X114874354Y-68009853D01*
X114726784Y-68108456D01*
X114562812Y-68176376D01*
X114413512Y-68206073D01*
X114388742Y-68211000D01*
X114211258Y-68211000D01*
X114186488Y-68206073D01*
X114037188Y-68176376D01*
X113873216Y-68108456D01*
X113725646Y-68009853D01*
X113600147Y-67884354D01*
X113501544Y-67736784D01*
X113433624Y-67572812D01*
X113399000Y-67398741D01*
X113399000Y-67221259D01*
X113433624Y-67047188D01*
X113501544Y-66883216D01*
X113600147Y-66735646D01*
X113725646Y-66610147D01*
X113873216Y-66511544D01*
X114037188Y-66443624D01*
X114186488Y-66413927D01*
X114211258Y-66409000D01*
X114388742Y-66409000D01*
X114413512Y-66413927D01*
G37*
G36*
X96633512Y-66413927D02*
G01*
X96782812Y-66443624D01*
X96946784Y-66511544D01*
X97094354Y-66610147D01*
X97219853Y-66735646D01*
X97318456Y-66883216D01*
X97386376Y-67047188D01*
X97421000Y-67221259D01*
X97421000Y-67398741D01*
X97386376Y-67572812D01*
X97318456Y-67736784D01*
X97219853Y-67884354D01*
X97094354Y-68009853D01*
X96946784Y-68108456D01*
X96782812Y-68176376D01*
X96633512Y-68206073D01*
X96608742Y-68211000D01*
X96431258Y-68211000D01*
X96406488Y-68206073D01*
X96257188Y-68176376D01*
X96093216Y-68108456D01*
X95945646Y-68009853D01*
X95820147Y-67884354D01*
X95721544Y-67736784D01*
X95653624Y-67572812D01*
X95619000Y-67398741D01*
X95619000Y-67221259D01*
X95653624Y-67047188D01*
X95721544Y-66883216D01*
X95820147Y-66735646D01*
X95945646Y-66610147D01*
X96093216Y-66511544D01*
X96257188Y-66443624D01*
X96406488Y-66413927D01*
X96431258Y-66409000D01*
X96608742Y-66409000D01*
X96633512Y-66413927D01*
G37*
G36*
X99173512Y-66413927D02*
G01*
X99322812Y-66443624D01*
X99486784Y-66511544D01*
X99634354Y-66610147D01*
X99759853Y-66735646D01*
X99858456Y-66883216D01*
X99926376Y-67047188D01*
X99961000Y-67221259D01*
X99961000Y-67398741D01*
X99926376Y-67572812D01*
X99858456Y-67736784D01*
X99759853Y-67884354D01*
X99634354Y-68009853D01*
X99486784Y-68108456D01*
X99322812Y-68176376D01*
X99173512Y-68206073D01*
X99148742Y-68211000D01*
X98971258Y-68211000D01*
X98946488Y-68206073D01*
X98797188Y-68176376D01*
X98633216Y-68108456D01*
X98485646Y-68009853D01*
X98360147Y-67884354D01*
X98261544Y-67736784D01*
X98193624Y-67572812D01*
X98159000Y-67398741D01*
X98159000Y-67221259D01*
X98193624Y-67047188D01*
X98261544Y-66883216D01*
X98360147Y-66735646D01*
X98485646Y-66610147D01*
X98633216Y-66511544D01*
X98797188Y-66443624D01*
X98946488Y-66413927D01*
X98971258Y-66409000D01*
X99148742Y-66409000D01*
X99173512Y-66413927D01*
G37*
G36*
X101713512Y-66413927D02*
G01*
X101862812Y-66443624D01*
X102026784Y-66511544D01*
X102174354Y-66610147D01*
X102299853Y-66735646D01*
X102398456Y-66883216D01*
X102466376Y-67047188D01*
X102501000Y-67221259D01*
X102501000Y-67398741D01*
X102466376Y-67572812D01*
X102398456Y-67736784D01*
X102299853Y-67884354D01*
X102174354Y-68009853D01*
X102026784Y-68108456D01*
X101862812Y-68176376D01*
X101713512Y-68206073D01*
X101688742Y-68211000D01*
X101511258Y-68211000D01*
X101486488Y-68206073D01*
X101337188Y-68176376D01*
X101173216Y-68108456D01*
X101025646Y-68009853D01*
X100900147Y-67884354D01*
X100801544Y-67736784D01*
X100733624Y-67572812D01*
X100699000Y-67398741D01*
X100699000Y-67221259D01*
X100733624Y-67047188D01*
X100801544Y-66883216D01*
X100900147Y-66735646D01*
X101025646Y-66610147D01*
X101173216Y-66511544D01*
X101337188Y-66443624D01*
X101486488Y-66413927D01*
X101511258Y-66409000D01*
X101688742Y-66409000D01*
X101713512Y-66413927D01*
G37*
G36*
X105041000Y-68211000D02*
G01*
X103239000Y-68211000D01*
X103239000Y-66409000D01*
X105041000Y-66409000D01*
X105041000Y-68211000D01*
G37*
M02*
