G04 #@! TF.GenerationSoftware,KiCad,Pcbnew,5.1.5-52549c5~84~ubuntu16.04.1*
G04 #@! TF.CreationDate,2020-01-01T01:32:41+01:00*
G04 #@! TF.ProjectId,schema-3.0,73636865-6d61-42d3-932e-302e6b696361,rev?*
G04 #@! TF.SameCoordinates,Original*
G04 #@! TF.FileFunction,Legend,Bot*
G04 #@! TF.FilePolarity,Positive*
%FSLAX46Y46*%
G04 Gerber Fmt 4.6, Leading zero omitted, Abs format (unit mm)*
G04 Created by KiCad (PCBNEW 5.1.5-52549c5~84~ubuntu16.04.1) date 2020-01-01 01:32:41*
%MOMM*%
%LPD*%
G04 APERTURE LIST*
%ADD10C,0.120000*%
%ADD11C,0.150000*%
%ADD12C,0.500000*%
%ADD13C,0.050000*%
G04 APERTURE END LIST*
D10*
X154940000Y-83820000D02*
X154940000Y-109220000D01*
X143510000Y-83820000D02*
X154940000Y-83820000D01*
X143510000Y-109220000D02*
X143510000Y-83820000D01*
X154940000Y-109220000D02*
X143510000Y-109220000D01*
D11*
X149595833Y-96310000D02*
X149562500Y-96343333D01*
X149595833Y-96376666D01*
X149629166Y-96343333D01*
X149595833Y-96310000D01*
X149595833Y-96376666D01*
X149595833Y-95943333D02*
X149562500Y-95976666D01*
X149595833Y-96010000D01*
X149629166Y-95976666D01*
X149595833Y-95943333D01*
X149595833Y-96010000D01*
X148795833Y-95676666D02*
X148329166Y-95676666D01*
X148629166Y-96376666D01*
X149595833Y-97510000D02*
X149562500Y-97543333D01*
X149595833Y-97576666D01*
X149629166Y-97543333D01*
X149595833Y-97510000D01*
X149595833Y-97576666D01*
X149595833Y-97143333D02*
X149562500Y-97176666D01*
X149595833Y-97210000D01*
X149629166Y-97176666D01*
X149595833Y-97143333D01*
X149595833Y-97210000D01*
X148629166Y-97176666D02*
X148695833Y-97143333D01*
X148729166Y-97110000D01*
X148762500Y-97043333D01*
X148762500Y-97010000D01*
X148729166Y-96943333D01*
X148695833Y-96910000D01*
X148629166Y-96876666D01*
X148495833Y-96876666D01*
X148429166Y-96910000D01*
X148395833Y-96943333D01*
X148362500Y-97010000D01*
X148362500Y-97043333D01*
X148395833Y-97110000D01*
X148429166Y-97143333D01*
X148495833Y-97176666D01*
X148629166Y-97176666D01*
X148695833Y-97210000D01*
X148729166Y-97243333D01*
X148762500Y-97310000D01*
X148762500Y-97443333D01*
X148729166Y-97510000D01*
X148695833Y-97543333D01*
X148629166Y-97576666D01*
X148495833Y-97576666D01*
X148429166Y-97543333D01*
X148395833Y-97510000D01*
X148362500Y-97443333D01*
X148362500Y-97310000D01*
X148395833Y-97243333D01*
X148429166Y-97210000D01*
X148495833Y-97176666D01*
X149595833Y-98710000D02*
X149562500Y-98743333D01*
X149595833Y-98776666D01*
X149629166Y-98743333D01*
X149595833Y-98710000D01*
X149595833Y-98776666D01*
X149595833Y-98343333D02*
X149562500Y-98376666D01*
X149595833Y-98410000D01*
X149629166Y-98376666D01*
X149595833Y-98343333D01*
X149595833Y-98410000D01*
X148695833Y-98776666D02*
X148562500Y-98776666D01*
X148495833Y-98743333D01*
X148462500Y-98710000D01*
X148395833Y-98610000D01*
X148362500Y-98476666D01*
X148362500Y-98210000D01*
X148395833Y-98143333D01*
X148429166Y-98110000D01*
X148495833Y-98076666D01*
X148629166Y-98076666D01*
X148695833Y-98110000D01*
X148729166Y-98143333D01*
X148762500Y-98210000D01*
X148762500Y-98376666D01*
X148729166Y-98443333D01*
X148695833Y-98476666D01*
X148629166Y-98510000D01*
X148495833Y-98510000D01*
X148429166Y-98476666D01*
X148395833Y-98443333D01*
X148362500Y-98376666D01*
X149595833Y-99910000D02*
X149562500Y-99943333D01*
X149595833Y-99976666D01*
X149629166Y-99943333D01*
X149595833Y-99910000D01*
X149595833Y-99976666D01*
X149595833Y-99543333D02*
X149562500Y-99576666D01*
X149595833Y-99610000D01*
X149629166Y-99576666D01*
X149595833Y-99543333D01*
X149595833Y-99610000D01*
X148362500Y-99976666D02*
X148762500Y-99976666D01*
X148562500Y-99976666D02*
X148562500Y-99276666D01*
X148629166Y-99376666D01*
X148695833Y-99443333D01*
X148762500Y-99476666D01*
X147929166Y-99276666D02*
X147862500Y-99276666D01*
X147795833Y-99310000D01*
X147762500Y-99343333D01*
X147729166Y-99410000D01*
X147695833Y-99543333D01*
X147695833Y-99710000D01*
X147729166Y-99843333D01*
X147762500Y-99910000D01*
X147795833Y-99943333D01*
X147862500Y-99976666D01*
X147929166Y-99976666D01*
X147995833Y-99943333D01*
X148029166Y-99910000D01*
X148062500Y-99843333D01*
X148095833Y-99710000D01*
X148095833Y-99543333D01*
X148062500Y-99410000D01*
X148029166Y-99343333D01*
X147995833Y-99310000D01*
X147929166Y-99276666D01*
X149595833Y-101110000D02*
X149562500Y-101143333D01*
X149595833Y-101176666D01*
X149629166Y-101143333D01*
X149595833Y-101110000D01*
X149595833Y-101176666D01*
X149595833Y-100743333D02*
X149562500Y-100776666D01*
X149595833Y-100810000D01*
X149629166Y-100776666D01*
X149595833Y-100743333D01*
X149595833Y-100810000D01*
X148362500Y-101176666D02*
X148762500Y-101176666D01*
X148562500Y-101176666D02*
X148562500Y-100476666D01*
X148629166Y-100576666D01*
X148695833Y-100643333D01*
X148762500Y-100676666D01*
X147695833Y-101176666D02*
X148095833Y-101176666D01*
X147895833Y-101176666D02*
X147895833Y-100476666D01*
X147962500Y-100576666D01*
X148029166Y-100643333D01*
X148095833Y-100676666D01*
X149595833Y-102310000D02*
X149562500Y-102343333D01*
X149595833Y-102376666D01*
X149629166Y-102343333D01*
X149595833Y-102310000D01*
X149595833Y-102376666D01*
X149595833Y-101943333D02*
X149562500Y-101976666D01*
X149595833Y-102010000D01*
X149629166Y-101976666D01*
X149595833Y-101943333D01*
X149595833Y-102010000D01*
X148362500Y-102376666D02*
X148762500Y-102376666D01*
X148562500Y-102376666D02*
X148562500Y-101676666D01*
X148629166Y-101776666D01*
X148695833Y-101843333D01*
X148762500Y-101876666D01*
X148095833Y-101743333D02*
X148062500Y-101710000D01*
X147995833Y-101676666D01*
X147829166Y-101676666D01*
X147762500Y-101710000D01*
X147729166Y-101743333D01*
X147695833Y-101810000D01*
X147695833Y-101876666D01*
X147729166Y-101976666D01*
X148129166Y-102376666D01*
X147695833Y-102376666D01*
X149595833Y-103510000D02*
X149562500Y-103543333D01*
X149595833Y-103576666D01*
X149629166Y-103543333D01*
X149595833Y-103510000D01*
X149595833Y-103576666D01*
X149595833Y-103143333D02*
X149562500Y-103176666D01*
X149595833Y-103210000D01*
X149629166Y-103176666D01*
X149595833Y-103143333D01*
X149595833Y-103210000D01*
X148362500Y-103576666D02*
X148762500Y-103576666D01*
X148562500Y-103576666D02*
X148562500Y-102876666D01*
X148629166Y-102976666D01*
X148695833Y-103043333D01*
X148762500Y-103076666D01*
X148129166Y-102876666D02*
X147695833Y-102876666D01*
X147929166Y-103143333D01*
X147829166Y-103143333D01*
X147762500Y-103176666D01*
X147729166Y-103210000D01*
X147695833Y-103276666D01*
X147695833Y-103443333D01*
X147729166Y-103510000D01*
X147762500Y-103543333D01*
X147829166Y-103576666D01*
X148029166Y-103576666D01*
X148095833Y-103543333D01*
X148129166Y-103510000D01*
X149595833Y-86150000D02*
X149562500Y-86183333D01*
X149595833Y-86216666D01*
X149629166Y-86183333D01*
X149595833Y-86150000D01*
X149595833Y-86216666D01*
X149595833Y-85783333D02*
X149562500Y-85816666D01*
X149595833Y-85850000D01*
X149629166Y-85816666D01*
X149595833Y-85783333D01*
X149595833Y-85850000D01*
X148762500Y-86016666D02*
X148429166Y-86016666D01*
X148829166Y-86216666D02*
X148595833Y-85516666D01*
X148362500Y-86216666D01*
X148095833Y-86216666D02*
X147962500Y-86216666D01*
X147895833Y-86183333D01*
X147862500Y-86150000D01*
X147795833Y-86050000D01*
X147762500Y-85916666D01*
X147762500Y-85650000D01*
X147795833Y-85583333D01*
X147829166Y-85550000D01*
X147895833Y-85516666D01*
X148029166Y-85516666D01*
X148095833Y-85550000D01*
X148129166Y-85583333D01*
X148162500Y-85650000D01*
X148162500Y-85816666D01*
X148129166Y-85883333D01*
X148095833Y-85916666D01*
X148029166Y-85950000D01*
X147895833Y-85950000D01*
X147829166Y-85916666D01*
X147795833Y-85883333D01*
X147762500Y-85816666D01*
X149595833Y-87350000D02*
X149562500Y-87383333D01*
X149595833Y-87416666D01*
X149629166Y-87383333D01*
X149595833Y-87350000D01*
X149595833Y-87416666D01*
X149595833Y-86983333D02*
X149562500Y-87016666D01*
X149595833Y-87050000D01*
X149629166Y-87016666D01*
X149595833Y-86983333D01*
X149595833Y-87050000D01*
X148762500Y-87216666D02*
X148429166Y-87216666D01*
X148829166Y-87416666D02*
X148595833Y-86716666D01*
X148362500Y-87416666D01*
X147762500Y-87416666D02*
X148162500Y-87416666D01*
X147962500Y-87416666D02*
X147962500Y-86716666D01*
X148029166Y-86816666D01*
X148095833Y-86883333D01*
X148162500Y-86916666D01*
X147329166Y-86716666D02*
X147262500Y-86716666D01*
X147195833Y-86750000D01*
X147162500Y-86783333D01*
X147129166Y-86850000D01*
X147095833Y-86983333D01*
X147095833Y-87150000D01*
X147129166Y-87283333D01*
X147162500Y-87350000D01*
X147195833Y-87383333D01*
X147262500Y-87416666D01*
X147329166Y-87416666D01*
X147395833Y-87383333D01*
X147429166Y-87350000D01*
X147462500Y-87283333D01*
X147495833Y-87150000D01*
X147495833Y-86983333D01*
X147462500Y-86850000D01*
X147429166Y-86783333D01*
X147395833Y-86750000D01*
X147329166Y-86716666D01*
X149595833Y-88550000D02*
X149562500Y-88583333D01*
X149595833Y-88616666D01*
X149629166Y-88583333D01*
X149595833Y-88550000D01*
X149595833Y-88616666D01*
X149595833Y-88183333D02*
X149562500Y-88216666D01*
X149595833Y-88250000D01*
X149629166Y-88216666D01*
X149595833Y-88183333D01*
X149595833Y-88250000D01*
X148762500Y-88416666D02*
X148429166Y-88416666D01*
X148829166Y-88616666D02*
X148595833Y-87916666D01*
X148362500Y-88616666D01*
X147762500Y-88616666D02*
X148162500Y-88616666D01*
X147962500Y-88616666D02*
X147962500Y-87916666D01*
X148029166Y-88016666D01*
X148095833Y-88083333D01*
X148162500Y-88116666D01*
X147095833Y-88616666D02*
X147495833Y-88616666D01*
X147295833Y-88616666D02*
X147295833Y-87916666D01*
X147362500Y-88016666D01*
X147429166Y-88083333D01*
X147495833Y-88116666D01*
X149595833Y-89750000D02*
X149562500Y-89783333D01*
X149595833Y-89816666D01*
X149629166Y-89783333D01*
X149595833Y-89750000D01*
X149595833Y-89816666D01*
X149595833Y-89383333D02*
X149562500Y-89416666D01*
X149595833Y-89450000D01*
X149629166Y-89416666D01*
X149595833Y-89383333D01*
X149595833Y-89450000D01*
X148762500Y-89616666D02*
X148429166Y-89616666D01*
X148829166Y-89816666D02*
X148595833Y-89116666D01*
X148362500Y-89816666D01*
X147762500Y-89816666D02*
X148162500Y-89816666D01*
X147962500Y-89816666D02*
X147962500Y-89116666D01*
X148029166Y-89216666D01*
X148095833Y-89283333D01*
X148162500Y-89316666D01*
X147495833Y-89183333D02*
X147462500Y-89150000D01*
X147395833Y-89116666D01*
X147229166Y-89116666D01*
X147162500Y-89150000D01*
X147129166Y-89183333D01*
X147095833Y-89250000D01*
X147095833Y-89316666D01*
X147129166Y-89416666D01*
X147529166Y-89816666D01*
X147095833Y-89816666D01*
X149595833Y-90950000D02*
X149562500Y-90983333D01*
X149595833Y-91016666D01*
X149629166Y-90983333D01*
X149595833Y-90950000D01*
X149595833Y-91016666D01*
X149595833Y-90583333D02*
X149562500Y-90616666D01*
X149595833Y-90650000D01*
X149629166Y-90616666D01*
X149595833Y-90583333D01*
X149595833Y-90650000D01*
X148762500Y-90816666D02*
X148429166Y-90816666D01*
X148829166Y-91016666D02*
X148595833Y-90316666D01*
X148362500Y-91016666D01*
X147762500Y-91016666D02*
X148162500Y-91016666D01*
X147962500Y-91016666D02*
X147962500Y-90316666D01*
X148029166Y-90416666D01*
X148095833Y-90483333D01*
X148162500Y-90516666D01*
X147529166Y-90316666D02*
X147095833Y-90316666D01*
X147329166Y-90583333D01*
X147229166Y-90583333D01*
X147162500Y-90616666D01*
X147129166Y-90650000D01*
X147095833Y-90716666D01*
X147095833Y-90883333D01*
X147129166Y-90950000D01*
X147162500Y-90983333D01*
X147229166Y-91016666D01*
X147429166Y-91016666D01*
X147495833Y-90983333D01*
X147529166Y-90950000D01*
X149595833Y-92150000D02*
X149562500Y-92183333D01*
X149595833Y-92216666D01*
X149629166Y-92183333D01*
X149595833Y-92150000D01*
X149595833Y-92216666D01*
X149595833Y-91783333D02*
X149562500Y-91816666D01*
X149595833Y-91850000D01*
X149629166Y-91816666D01*
X149595833Y-91783333D01*
X149595833Y-91850000D01*
X148762500Y-92016666D02*
X148429166Y-92016666D01*
X148829166Y-92216666D02*
X148595833Y-91516666D01*
X148362500Y-92216666D01*
X147762500Y-92216666D02*
X148162500Y-92216666D01*
X147962500Y-92216666D02*
X147962500Y-91516666D01*
X148029166Y-91616666D01*
X148095833Y-91683333D01*
X148162500Y-91716666D01*
X147162500Y-91750000D02*
X147162500Y-92216666D01*
X147329166Y-91483333D02*
X147495833Y-91983333D01*
X147062500Y-91983333D01*
X149595833Y-93350000D02*
X149562500Y-93383333D01*
X149595833Y-93416666D01*
X149629166Y-93383333D01*
X149595833Y-93350000D01*
X149595833Y-93416666D01*
X149595833Y-92983333D02*
X149562500Y-93016666D01*
X149595833Y-93050000D01*
X149629166Y-93016666D01*
X149595833Y-92983333D01*
X149595833Y-93050000D01*
X148762500Y-93216666D02*
X148429166Y-93216666D01*
X148829166Y-93416666D02*
X148595833Y-92716666D01*
X148362500Y-93416666D01*
X147762500Y-93416666D02*
X148162500Y-93416666D01*
X147962500Y-93416666D02*
X147962500Y-92716666D01*
X148029166Y-92816666D01*
X148095833Y-92883333D01*
X148162500Y-92916666D01*
X147129166Y-92716666D02*
X147462500Y-92716666D01*
X147495833Y-93050000D01*
X147462500Y-93016666D01*
X147395833Y-92983333D01*
X147229166Y-92983333D01*
X147162500Y-93016666D01*
X147129166Y-93050000D01*
X147095833Y-93116666D01*
X147095833Y-93283333D01*
X147129166Y-93350000D01*
X147162500Y-93383333D01*
X147229166Y-93416666D01*
X147395833Y-93416666D01*
X147462500Y-93383333D01*
X147495833Y-93350000D01*
X171133333Y-109859166D02*
X171133333Y-110259166D01*
X171133333Y-110059166D02*
X171833333Y-110059166D01*
X171733333Y-110125833D01*
X171666666Y-110192500D01*
X171633333Y-110259166D01*
X171133333Y-78109166D02*
X171133333Y-78509166D01*
X171133333Y-78309166D02*
X171833333Y-78309166D01*
X171733333Y-78375833D01*
X171666666Y-78442500D01*
X171633333Y-78509166D01*
X171133333Y-93349166D02*
X171133333Y-93749166D01*
X171133333Y-93549166D02*
X171833333Y-93549166D01*
X171733333Y-93615833D01*
X171666666Y-93682500D01*
X171633333Y-93749166D01*
X165905833Y-98216666D02*
X165905833Y-98716666D01*
X165939166Y-98816666D01*
X166005833Y-98883333D01*
X166105833Y-98916666D01*
X166172500Y-98916666D01*
X165472500Y-98916666D02*
X165539166Y-98883333D01*
X165572500Y-98850000D01*
X165605833Y-98783333D01*
X165605833Y-98583333D01*
X165572500Y-98516666D01*
X165539166Y-98483333D01*
X165472500Y-98450000D01*
X165372500Y-98450000D01*
X165305833Y-98483333D01*
X165272500Y-98516666D01*
X165239166Y-98583333D01*
X165239166Y-98783333D01*
X165272500Y-98850000D01*
X165305833Y-98883333D01*
X165372500Y-98916666D01*
X165472500Y-98916666D01*
X165005833Y-98450000D02*
X164839166Y-98916666D01*
X164672500Y-98450000D02*
X164839166Y-98916666D01*
X164905833Y-99083333D01*
X164939166Y-99116666D01*
X165005833Y-99150000D01*
X164439166Y-98883333D02*
X164372500Y-98916666D01*
X164239166Y-98916666D01*
X164172500Y-98883333D01*
X164139166Y-98816666D01*
X164139166Y-98783333D01*
X164172500Y-98716666D01*
X164239166Y-98683333D01*
X164339166Y-98683333D01*
X164405833Y-98650000D01*
X164439166Y-98583333D01*
X164439166Y-98550000D01*
X164405833Y-98483333D01*
X164339166Y-98450000D01*
X164239166Y-98450000D01*
X164172500Y-98483333D01*
X163939166Y-98450000D02*
X163672500Y-98450000D01*
X163839166Y-98216666D02*
X163839166Y-98816666D01*
X163805833Y-98883333D01*
X163739166Y-98916666D01*
X163672500Y-98916666D01*
X163439166Y-98916666D02*
X163439166Y-98450000D01*
X163439166Y-98216666D02*
X163472500Y-98250000D01*
X163439166Y-98283333D01*
X163405833Y-98250000D01*
X163439166Y-98216666D01*
X163439166Y-98283333D01*
X162805833Y-98883333D02*
X162872500Y-98916666D01*
X163005833Y-98916666D01*
X163072500Y-98883333D01*
X163105833Y-98850000D01*
X163139166Y-98783333D01*
X163139166Y-98583333D01*
X163105833Y-98516666D01*
X163072500Y-98483333D01*
X163005833Y-98450000D01*
X162872500Y-98450000D01*
X162805833Y-98483333D01*
X162505833Y-98916666D02*
X162505833Y-98216666D01*
X162439166Y-98650000D02*
X162239166Y-98916666D01*
X162239166Y-98450000D02*
X162505833Y-98716666D01*
X164672500Y-100116666D02*
X165072500Y-100116666D01*
X164872500Y-100116666D02*
X164872500Y-99416666D01*
X164939166Y-99516666D01*
X165005833Y-99583333D01*
X165072500Y-99616666D01*
X163839166Y-100050000D02*
X163805833Y-100083333D01*
X163839166Y-100116666D01*
X163872500Y-100083333D01*
X163839166Y-100050000D01*
X163839166Y-100116666D01*
X163839166Y-99683333D02*
X163805833Y-99716666D01*
X163839166Y-99750000D01*
X163872500Y-99716666D01*
X163839166Y-99683333D01*
X163839166Y-99750000D01*
X162605833Y-99450000D02*
X162672500Y-99416666D01*
X162772500Y-99416666D01*
X162872500Y-99450000D01*
X162939166Y-99516666D01*
X162972500Y-99583333D01*
X163005833Y-99716666D01*
X163005833Y-99816666D01*
X162972500Y-99950000D01*
X162939166Y-100016666D01*
X162872500Y-100083333D01*
X162772500Y-100116666D01*
X162705833Y-100116666D01*
X162605833Y-100083333D01*
X162572500Y-100050000D01*
X162572500Y-99816666D01*
X162705833Y-99816666D01*
X162272500Y-100116666D02*
X162272500Y-99416666D01*
X161872500Y-100116666D01*
X161872500Y-99416666D01*
X161539166Y-100116666D02*
X161539166Y-99416666D01*
X161372500Y-99416666D01*
X161272500Y-99450000D01*
X161205833Y-99516666D01*
X161172500Y-99583333D01*
X161139166Y-99716666D01*
X161139166Y-99816666D01*
X161172500Y-99950000D01*
X161205833Y-100016666D01*
X161272500Y-100083333D01*
X161372500Y-100116666D01*
X161539166Y-100116666D01*
X165072500Y-100683333D02*
X165039166Y-100650000D01*
X164972500Y-100616666D01*
X164805833Y-100616666D01*
X164739166Y-100650000D01*
X164705833Y-100683333D01*
X164672500Y-100750000D01*
X164672500Y-100816666D01*
X164705833Y-100916666D01*
X165105833Y-101316666D01*
X164672500Y-101316666D01*
X163839166Y-101250000D02*
X163805833Y-101283333D01*
X163839166Y-101316666D01*
X163872500Y-101283333D01*
X163839166Y-101250000D01*
X163839166Y-101316666D01*
X163839166Y-100883333D02*
X163805833Y-100916666D01*
X163839166Y-100950000D01*
X163872500Y-100916666D01*
X163839166Y-100883333D01*
X163839166Y-100950000D01*
X162972500Y-101050000D02*
X162439166Y-101050000D01*
X162705833Y-101316666D02*
X162705833Y-100783333D01*
X161772500Y-100616666D02*
X162105833Y-100616666D01*
X162139166Y-100950000D01*
X162105833Y-100916666D01*
X162039166Y-100883333D01*
X161872500Y-100883333D01*
X161805833Y-100916666D01*
X161772500Y-100950000D01*
X161739166Y-101016666D01*
X161739166Y-101183333D01*
X161772500Y-101250000D01*
X161805833Y-101283333D01*
X161872500Y-101316666D01*
X162039166Y-101316666D01*
X162105833Y-101283333D01*
X162139166Y-101250000D01*
X161539166Y-100616666D02*
X161305833Y-101316666D01*
X161072500Y-100616666D01*
X165105833Y-101816666D02*
X164672500Y-101816666D01*
X164905833Y-102083333D01*
X164805833Y-102083333D01*
X164739166Y-102116666D01*
X164705833Y-102150000D01*
X164672500Y-102216666D01*
X164672500Y-102383333D01*
X164705833Y-102450000D01*
X164739166Y-102483333D01*
X164805833Y-102516666D01*
X165005833Y-102516666D01*
X165072500Y-102483333D01*
X165105833Y-102450000D01*
X163839166Y-102450000D02*
X163805833Y-102483333D01*
X163839166Y-102516666D01*
X163872500Y-102483333D01*
X163839166Y-102450000D01*
X163839166Y-102516666D01*
X163839166Y-102083333D02*
X163805833Y-102116666D01*
X163839166Y-102150000D01*
X163872500Y-102116666D01*
X163839166Y-102083333D01*
X163839166Y-102150000D01*
X162739166Y-102150000D02*
X162639166Y-102183333D01*
X162605833Y-102216666D01*
X162572500Y-102283333D01*
X162572500Y-102383333D01*
X162605833Y-102450000D01*
X162639166Y-102483333D01*
X162705833Y-102516666D01*
X162972500Y-102516666D01*
X162972500Y-101816666D01*
X162739166Y-101816666D01*
X162672500Y-101850000D01*
X162639166Y-101883333D01*
X162605833Y-101950000D01*
X162605833Y-102016666D01*
X162639166Y-102083333D01*
X162672500Y-102116666D01*
X162739166Y-102150000D01*
X162972500Y-102150000D01*
X161972500Y-102050000D02*
X161972500Y-102516666D01*
X162272500Y-102050000D02*
X162272500Y-102416666D01*
X162239166Y-102483333D01*
X162172500Y-102516666D01*
X162072500Y-102516666D01*
X162005833Y-102483333D01*
X161972500Y-102450000D01*
X161739166Y-102050000D02*
X161472500Y-102050000D01*
X161639166Y-101816666D02*
X161639166Y-102416666D01*
X161605833Y-102483333D01*
X161539166Y-102516666D01*
X161472500Y-102516666D01*
X161339166Y-102050000D02*
X161072500Y-102050000D01*
X161239166Y-101816666D02*
X161239166Y-102416666D01*
X161205833Y-102483333D01*
X161139166Y-102516666D01*
X161072500Y-102516666D01*
X160739166Y-102516666D02*
X160805833Y-102483333D01*
X160839166Y-102450000D01*
X160872500Y-102383333D01*
X160872500Y-102183333D01*
X160839166Y-102116666D01*
X160805833Y-102083333D01*
X160739166Y-102050000D01*
X160639166Y-102050000D01*
X160572500Y-102083333D01*
X160539166Y-102116666D01*
X160505833Y-102183333D01*
X160505833Y-102383333D01*
X160539166Y-102450000D01*
X160572500Y-102483333D01*
X160639166Y-102516666D01*
X160739166Y-102516666D01*
X160205833Y-102050000D02*
X160205833Y-102516666D01*
X160205833Y-102116666D02*
X160172500Y-102083333D01*
X160105833Y-102050000D01*
X160005833Y-102050000D01*
X159939166Y-102083333D01*
X159905833Y-102150000D01*
X159905833Y-102516666D01*
X164739166Y-103250000D02*
X164739166Y-103716666D01*
X164905833Y-102983333D02*
X165072500Y-103483333D01*
X164639166Y-103483333D01*
X163839166Y-103650000D02*
X163805833Y-103683333D01*
X163839166Y-103716666D01*
X163872500Y-103683333D01*
X163839166Y-103650000D01*
X163839166Y-103716666D01*
X163839166Y-103283333D02*
X163805833Y-103316666D01*
X163839166Y-103350000D01*
X163872500Y-103316666D01*
X163839166Y-103283333D01*
X163839166Y-103350000D01*
X163039166Y-103016666D02*
X162572500Y-103716666D01*
X162572500Y-103016666D02*
X163039166Y-103716666D01*
X164705833Y-104216666D02*
X165039166Y-104216666D01*
X165072500Y-104550000D01*
X165039166Y-104516666D01*
X164972500Y-104483333D01*
X164805833Y-104483333D01*
X164739166Y-104516666D01*
X164705833Y-104550000D01*
X164672500Y-104616666D01*
X164672500Y-104783333D01*
X164705833Y-104850000D01*
X164739166Y-104883333D01*
X164805833Y-104916666D01*
X164972500Y-104916666D01*
X165039166Y-104883333D01*
X165072500Y-104850000D01*
X163839166Y-104850000D02*
X163805833Y-104883333D01*
X163839166Y-104916666D01*
X163872500Y-104883333D01*
X163839166Y-104850000D01*
X163839166Y-104916666D01*
X163839166Y-104483333D02*
X163805833Y-104516666D01*
X163839166Y-104550000D01*
X163872500Y-104516666D01*
X163839166Y-104483333D01*
X163839166Y-104550000D01*
X162839166Y-104583333D02*
X162839166Y-104916666D01*
X163072500Y-104216666D02*
X162839166Y-104583333D01*
X162605833Y-104216666D01*
X153405833Y-95176666D02*
X153405833Y-94476666D01*
X153239166Y-94476666D01*
X153139166Y-94510000D01*
X153072500Y-94576666D01*
X153039166Y-94643333D01*
X153005833Y-94776666D01*
X153005833Y-94876666D01*
X153039166Y-95010000D01*
X153072500Y-95076666D01*
X153139166Y-95143333D01*
X153239166Y-95176666D01*
X153405833Y-95176666D01*
X152439166Y-95143333D02*
X152505833Y-95176666D01*
X152639166Y-95176666D01*
X152705833Y-95143333D01*
X152739166Y-95076666D01*
X152739166Y-94810000D01*
X152705833Y-94743333D01*
X152639166Y-94710000D01*
X152505833Y-94710000D01*
X152439166Y-94743333D01*
X152405833Y-94810000D01*
X152405833Y-94876666D01*
X152739166Y-94943333D01*
X152505833Y-94443333D02*
X152605833Y-94543333D01*
X151805833Y-95143333D02*
X151872500Y-95176666D01*
X152005833Y-95176666D01*
X152072500Y-95143333D01*
X152105833Y-95110000D01*
X152139166Y-95043333D01*
X152139166Y-94843333D01*
X152105833Y-94776666D01*
X152072500Y-94743333D01*
X152005833Y-94710000D01*
X151872500Y-94710000D01*
X151805833Y-94743333D01*
X151405833Y-95176666D02*
X151472500Y-95143333D01*
X151505833Y-95076666D01*
X151505833Y-94476666D01*
X151139166Y-95176666D02*
X151139166Y-94710000D01*
X151139166Y-94476666D02*
X151172500Y-94510000D01*
X151139166Y-94543333D01*
X151105833Y-94510000D01*
X151139166Y-94476666D01*
X151139166Y-94543333D01*
X150805833Y-94710000D02*
X150805833Y-95176666D01*
X150805833Y-94776666D02*
X150772500Y-94743333D01*
X150705833Y-94710000D01*
X150605833Y-94710000D01*
X150539166Y-94743333D01*
X150505833Y-94810000D01*
X150505833Y-95176666D01*
X149872500Y-95176666D02*
X149872500Y-94810000D01*
X149905833Y-94743333D01*
X149972500Y-94710000D01*
X150105833Y-94710000D01*
X150172500Y-94743333D01*
X149872500Y-95143333D02*
X149939166Y-95176666D01*
X150105833Y-95176666D01*
X150172500Y-95143333D01*
X150205833Y-95076666D01*
X150205833Y-95010000D01*
X150172500Y-94943333D01*
X150105833Y-94910000D01*
X149939166Y-94910000D01*
X149872500Y-94876666D01*
X149539166Y-95176666D02*
X149539166Y-94710000D01*
X149539166Y-94476666D02*
X149572500Y-94510000D01*
X149539166Y-94543333D01*
X149505833Y-94510000D01*
X149539166Y-94476666D01*
X149539166Y-94543333D01*
X149239166Y-95143333D02*
X149172500Y-95176666D01*
X149039166Y-95176666D01*
X148972500Y-95143333D01*
X148939166Y-95076666D01*
X148939166Y-95043333D01*
X148972500Y-94976666D01*
X149039166Y-94943333D01*
X149139166Y-94943333D01*
X149205833Y-94910000D01*
X149239166Y-94843333D01*
X149239166Y-94810000D01*
X149205833Y-94743333D01*
X149139166Y-94710000D01*
X149039166Y-94710000D01*
X148972500Y-94743333D01*
X148539166Y-95176666D02*
X148605833Y-95143333D01*
X148639166Y-95110000D01*
X148672500Y-95043333D01*
X148672500Y-94843333D01*
X148639166Y-94776666D01*
X148605833Y-94743333D01*
X148539166Y-94710000D01*
X148439166Y-94710000D01*
X148372500Y-94743333D01*
X148339166Y-94776666D01*
X148305833Y-94843333D01*
X148305833Y-95043333D01*
X148339166Y-95110000D01*
X148372500Y-95143333D01*
X148439166Y-95176666D01*
X148539166Y-95176666D01*
X148005833Y-94710000D02*
X148005833Y-95176666D01*
X148005833Y-94776666D02*
X147972500Y-94743333D01*
X147905833Y-94710000D01*
X147805833Y-94710000D01*
X147739166Y-94743333D01*
X147705833Y-94810000D01*
X147705833Y-95176666D01*
X152339166Y-96010000D02*
X152105833Y-96010000D01*
X152005833Y-96376666D02*
X152339166Y-96376666D01*
X152339166Y-95676666D01*
X152005833Y-95676666D01*
X151705833Y-95910000D02*
X151705833Y-96376666D01*
X151705833Y-95976666D02*
X151672500Y-95943333D01*
X151605833Y-95910000D01*
X151505833Y-95910000D01*
X151439166Y-95943333D01*
X151405833Y-96010000D01*
X151405833Y-96376666D01*
X152339166Y-97576666D02*
X152339166Y-96876666D01*
X152105833Y-97376666D01*
X151872500Y-96876666D01*
X151872500Y-97576666D01*
X151572500Y-97543333D02*
X151472500Y-97576666D01*
X151305833Y-97576666D01*
X151239166Y-97543333D01*
X151205833Y-97510000D01*
X151172500Y-97443333D01*
X151172500Y-97376666D01*
X151205833Y-97310000D01*
X151239166Y-97276666D01*
X151305833Y-97243333D01*
X151439166Y-97210000D01*
X151505833Y-97176666D01*
X151539166Y-97143333D01*
X151572500Y-97076666D01*
X151572500Y-97010000D01*
X151539166Y-96943333D01*
X151505833Y-96910000D01*
X151439166Y-96876666D01*
X151272500Y-96876666D01*
X151172500Y-96910000D01*
X150505833Y-97576666D02*
X150905833Y-97576666D01*
X150705833Y-97576666D02*
X150705833Y-96876666D01*
X150772500Y-96976666D01*
X150839166Y-97043333D01*
X150905833Y-97076666D01*
X152339166Y-98776666D02*
X152339166Y-98076666D01*
X152105833Y-98576666D01*
X151872500Y-98076666D01*
X151872500Y-98776666D01*
X151572500Y-98743333D02*
X151472500Y-98776666D01*
X151305833Y-98776666D01*
X151239166Y-98743333D01*
X151205833Y-98710000D01*
X151172500Y-98643333D01*
X151172500Y-98576666D01*
X151205833Y-98510000D01*
X151239166Y-98476666D01*
X151305833Y-98443333D01*
X151439166Y-98410000D01*
X151505833Y-98376666D01*
X151539166Y-98343333D01*
X151572500Y-98276666D01*
X151572500Y-98210000D01*
X151539166Y-98143333D01*
X151505833Y-98110000D01*
X151439166Y-98076666D01*
X151272500Y-98076666D01*
X151172500Y-98110000D01*
X150905833Y-98143333D02*
X150872500Y-98110000D01*
X150805833Y-98076666D01*
X150639166Y-98076666D01*
X150572500Y-98110000D01*
X150539166Y-98143333D01*
X150505833Y-98210000D01*
X150505833Y-98276666D01*
X150539166Y-98376666D01*
X150939166Y-98776666D01*
X150505833Y-98776666D01*
X152339166Y-99976666D02*
X152339166Y-99276666D01*
X152105833Y-99776666D01*
X151872500Y-99276666D01*
X151872500Y-99976666D01*
X151572500Y-99943333D02*
X151472500Y-99976666D01*
X151305833Y-99976666D01*
X151239166Y-99943333D01*
X151205833Y-99910000D01*
X151172500Y-99843333D01*
X151172500Y-99776666D01*
X151205833Y-99710000D01*
X151239166Y-99676666D01*
X151305833Y-99643333D01*
X151439166Y-99610000D01*
X151505833Y-99576666D01*
X151539166Y-99543333D01*
X151572500Y-99476666D01*
X151572500Y-99410000D01*
X151539166Y-99343333D01*
X151505833Y-99310000D01*
X151439166Y-99276666D01*
X151272500Y-99276666D01*
X151172500Y-99310000D01*
X150939166Y-99276666D02*
X150505833Y-99276666D01*
X150739166Y-99543333D01*
X150639166Y-99543333D01*
X150572500Y-99576666D01*
X150539166Y-99610000D01*
X150505833Y-99676666D01*
X150505833Y-99843333D01*
X150539166Y-99910000D01*
X150572500Y-99943333D01*
X150639166Y-99976666D01*
X150839166Y-99976666D01*
X150905833Y-99943333D01*
X150939166Y-99910000D01*
X151939166Y-101176666D02*
X152172500Y-100843333D01*
X152339166Y-101176666D02*
X152339166Y-100476666D01*
X152072500Y-100476666D01*
X152005833Y-100510000D01*
X151972500Y-100543333D01*
X151939166Y-100610000D01*
X151939166Y-100710000D01*
X151972500Y-100776666D01*
X152005833Y-100810000D01*
X152072500Y-100843333D01*
X152339166Y-100843333D01*
X151672500Y-101143333D02*
X151572500Y-101176666D01*
X151405833Y-101176666D01*
X151339166Y-101143333D01*
X151305833Y-101110000D01*
X151272500Y-101043333D01*
X151272500Y-100976666D01*
X151305833Y-100910000D01*
X151339166Y-100876666D01*
X151405833Y-100843333D01*
X151539166Y-100810000D01*
X151605833Y-100776666D01*
X151639166Y-100743333D01*
X151672500Y-100676666D01*
X151672500Y-100610000D01*
X151639166Y-100543333D01*
X151605833Y-100510000D01*
X151539166Y-100476666D01*
X151372500Y-100476666D01*
X151272500Y-100510000D01*
X151072500Y-100476666D02*
X150672500Y-100476666D01*
X150872500Y-101176666D02*
X150872500Y-100476666D01*
X152372500Y-102343333D02*
X152272500Y-102376666D01*
X152105833Y-102376666D01*
X152039166Y-102343333D01*
X152005833Y-102310000D01*
X151972500Y-102243333D01*
X151972500Y-102176666D01*
X152005833Y-102110000D01*
X152039166Y-102076666D01*
X152105833Y-102043333D01*
X152239166Y-102010000D01*
X152305833Y-101976666D01*
X152339166Y-101943333D01*
X152372500Y-101876666D01*
X152372500Y-101810000D01*
X152339166Y-101743333D01*
X152305833Y-101710000D01*
X152239166Y-101676666D01*
X152072500Y-101676666D01*
X151972500Y-101710000D01*
X151772500Y-101676666D02*
X151372500Y-101676666D01*
X151572500Y-102376666D02*
X151572500Y-101676666D01*
X151139166Y-102010000D02*
X150905833Y-102010000D01*
X150805833Y-102376666D02*
X151139166Y-102376666D01*
X151139166Y-101676666D01*
X150805833Y-101676666D01*
X150505833Y-102376666D02*
X150505833Y-101676666D01*
X150239166Y-101676666D01*
X150172500Y-101710000D01*
X150139166Y-101743333D01*
X150105833Y-101810000D01*
X150105833Y-101910000D01*
X150139166Y-101976666D01*
X150172500Y-102010000D01*
X150239166Y-102043333D01*
X150505833Y-102043333D01*
X152339166Y-103576666D02*
X152339166Y-102876666D01*
X152172500Y-102876666D01*
X152072500Y-102910000D01*
X152005833Y-102976666D01*
X151972500Y-103043333D01*
X151939166Y-103176666D01*
X151939166Y-103276666D01*
X151972500Y-103410000D01*
X152005833Y-103476666D01*
X152072500Y-103543333D01*
X152172500Y-103576666D01*
X152339166Y-103576666D01*
X151639166Y-103576666D02*
X151639166Y-102876666D01*
X150905833Y-103576666D02*
X151139166Y-103243333D01*
X151305833Y-103576666D02*
X151305833Y-102876666D01*
X151039166Y-102876666D01*
X150972500Y-102910000D01*
X150939166Y-102943333D01*
X150905833Y-103010000D01*
X150905833Y-103110000D01*
X150939166Y-103176666D01*
X150972500Y-103210000D01*
X151039166Y-103243333D01*
X151305833Y-103243333D01*
X153439166Y-84816666D02*
X153105833Y-84816666D01*
X153505833Y-85016666D02*
X153272500Y-84316666D01*
X153039166Y-85016666D01*
X152839166Y-84983333D02*
X152772500Y-85016666D01*
X152639166Y-85016666D01*
X152572500Y-84983333D01*
X152539166Y-84916666D01*
X152539166Y-84883333D01*
X152572500Y-84816666D01*
X152639166Y-84783333D01*
X152739166Y-84783333D01*
X152805833Y-84750000D01*
X152839166Y-84683333D01*
X152839166Y-84650000D01*
X152805833Y-84583333D01*
X152739166Y-84550000D01*
X152639166Y-84550000D01*
X152572500Y-84583333D01*
X151939166Y-84983333D02*
X152005833Y-85016666D01*
X152139166Y-85016666D01*
X152205833Y-84983333D01*
X152239166Y-84950000D01*
X152272500Y-84883333D01*
X152272500Y-84683333D01*
X152239166Y-84616666D01*
X152205833Y-84583333D01*
X152139166Y-84550000D01*
X152005833Y-84550000D01*
X151939166Y-84583333D01*
X151372500Y-84983333D02*
X151439166Y-85016666D01*
X151572500Y-85016666D01*
X151639166Y-84983333D01*
X151672500Y-84916666D01*
X151672500Y-84650000D01*
X151639166Y-84583333D01*
X151572500Y-84550000D01*
X151439166Y-84550000D01*
X151372500Y-84583333D01*
X151339166Y-84650000D01*
X151339166Y-84716666D01*
X151672500Y-84783333D01*
X151039166Y-84550000D02*
X151039166Y-85016666D01*
X151039166Y-84616666D02*
X151005833Y-84583333D01*
X150939166Y-84550000D01*
X150839166Y-84550000D01*
X150772500Y-84583333D01*
X150739166Y-84650000D01*
X150739166Y-85016666D01*
X150439166Y-84983333D02*
X150372500Y-85016666D01*
X150239166Y-85016666D01*
X150172500Y-84983333D01*
X150139166Y-84916666D01*
X150139166Y-84883333D01*
X150172500Y-84816666D01*
X150239166Y-84783333D01*
X150339166Y-84783333D01*
X150405833Y-84750000D01*
X150439166Y-84683333D01*
X150439166Y-84650000D01*
X150405833Y-84583333D01*
X150339166Y-84550000D01*
X150239166Y-84550000D01*
X150172500Y-84583333D01*
X149839166Y-85016666D02*
X149839166Y-84550000D01*
X149839166Y-84316666D02*
X149872500Y-84350000D01*
X149839166Y-84383333D01*
X149805833Y-84350000D01*
X149839166Y-84316666D01*
X149839166Y-84383333D01*
X149405833Y-85016666D02*
X149472500Y-84983333D01*
X149505833Y-84950000D01*
X149539166Y-84883333D01*
X149539166Y-84683333D01*
X149505833Y-84616666D01*
X149472500Y-84583333D01*
X149405833Y-84550000D01*
X149305833Y-84550000D01*
X149239166Y-84583333D01*
X149205833Y-84616666D01*
X149172500Y-84683333D01*
X149172500Y-84883333D01*
X149205833Y-84950000D01*
X149239166Y-84983333D01*
X149305833Y-85016666D01*
X149405833Y-85016666D01*
X148872500Y-84550000D02*
X148872500Y-85016666D01*
X148872500Y-84616666D02*
X148839166Y-84583333D01*
X148772500Y-84550000D01*
X148672500Y-84550000D01*
X148605833Y-84583333D01*
X148572500Y-84650000D01*
X148572500Y-85016666D01*
X147705833Y-85016666D02*
X147705833Y-84316666D01*
X147539166Y-84316666D01*
X147439166Y-84350000D01*
X147372500Y-84416666D01*
X147339166Y-84483333D01*
X147305833Y-84616666D01*
X147305833Y-84716666D01*
X147339166Y-84850000D01*
X147372500Y-84916666D01*
X147439166Y-84983333D01*
X147539166Y-85016666D01*
X147705833Y-85016666D01*
X147005833Y-85016666D02*
X147005833Y-84550000D01*
X147005833Y-84683333D02*
X146972500Y-84616666D01*
X146939166Y-84583333D01*
X146872500Y-84550000D01*
X146805833Y-84550000D01*
X146472500Y-85016666D02*
X146539166Y-84983333D01*
X146572500Y-84950000D01*
X146605833Y-84883333D01*
X146605833Y-84683333D01*
X146572500Y-84616666D01*
X146539166Y-84583333D01*
X146472500Y-84550000D01*
X146372500Y-84550000D01*
X146305833Y-84583333D01*
X146272500Y-84616666D01*
X146239166Y-84683333D01*
X146239166Y-84883333D01*
X146272500Y-84950000D01*
X146305833Y-84983333D01*
X146372500Y-85016666D01*
X146472500Y-85016666D01*
X145939166Y-85016666D02*
X145939166Y-84550000D01*
X145939166Y-84316666D02*
X145972500Y-84350000D01*
X145939166Y-84383333D01*
X145905833Y-84350000D01*
X145939166Y-84316666D01*
X145939166Y-84383333D01*
X145705833Y-84550000D02*
X145439166Y-84550000D01*
X145605833Y-84316666D02*
X145605833Y-84916666D01*
X145572500Y-84983333D01*
X145505833Y-85016666D01*
X145439166Y-85016666D01*
X144939166Y-84983333D02*
X145005833Y-85016666D01*
X145139166Y-85016666D01*
X145205833Y-84983333D01*
X145239166Y-84916666D01*
X145239166Y-84650000D01*
X145205833Y-84583333D01*
X145139166Y-84550000D01*
X145005833Y-84550000D01*
X144939166Y-84583333D01*
X144905833Y-84650000D01*
X144905833Y-84716666D01*
X145239166Y-84783333D01*
X152339166Y-85850000D02*
X152105833Y-85850000D01*
X152005833Y-86216666D02*
X152339166Y-86216666D01*
X152339166Y-85516666D01*
X152005833Y-85516666D01*
X151705833Y-85750000D02*
X151705833Y-86216666D01*
X151705833Y-85816666D02*
X151672500Y-85783333D01*
X151605833Y-85750000D01*
X151505833Y-85750000D01*
X151439166Y-85783333D01*
X151405833Y-85850000D01*
X151405833Y-86216666D01*
X152339166Y-87416666D02*
X152339166Y-86716666D01*
X152105833Y-87216666D01*
X151872500Y-86716666D01*
X151872500Y-87416666D01*
X151572500Y-87383333D02*
X151472500Y-87416666D01*
X151305833Y-87416666D01*
X151239166Y-87383333D01*
X151205833Y-87350000D01*
X151172500Y-87283333D01*
X151172500Y-87216666D01*
X151205833Y-87150000D01*
X151239166Y-87116666D01*
X151305833Y-87083333D01*
X151439166Y-87050000D01*
X151505833Y-87016666D01*
X151539166Y-86983333D01*
X151572500Y-86916666D01*
X151572500Y-86850000D01*
X151539166Y-86783333D01*
X151505833Y-86750000D01*
X151439166Y-86716666D01*
X151272500Y-86716666D01*
X151172500Y-86750000D01*
X150505833Y-87416666D02*
X150905833Y-87416666D01*
X150705833Y-87416666D02*
X150705833Y-86716666D01*
X150772500Y-86816666D01*
X150839166Y-86883333D01*
X150905833Y-86916666D01*
X152339166Y-88616666D02*
X152339166Y-87916666D01*
X152105833Y-88416666D01*
X151872500Y-87916666D01*
X151872500Y-88616666D01*
X151572500Y-88583333D02*
X151472500Y-88616666D01*
X151305833Y-88616666D01*
X151239166Y-88583333D01*
X151205833Y-88550000D01*
X151172500Y-88483333D01*
X151172500Y-88416666D01*
X151205833Y-88350000D01*
X151239166Y-88316666D01*
X151305833Y-88283333D01*
X151439166Y-88250000D01*
X151505833Y-88216666D01*
X151539166Y-88183333D01*
X151572500Y-88116666D01*
X151572500Y-88050000D01*
X151539166Y-87983333D01*
X151505833Y-87950000D01*
X151439166Y-87916666D01*
X151272500Y-87916666D01*
X151172500Y-87950000D01*
X150905833Y-87983333D02*
X150872500Y-87950000D01*
X150805833Y-87916666D01*
X150639166Y-87916666D01*
X150572500Y-87950000D01*
X150539166Y-87983333D01*
X150505833Y-88050000D01*
X150505833Y-88116666D01*
X150539166Y-88216666D01*
X150939166Y-88616666D01*
X150505833Y-88616666D01*
X152339166Y-89816666D02*
X152339166Y-89116666D01*
X152105833Y-89616666D01*
X151872500Y-89116666D01*
X151872500Y-89816666D01*
X151572500Y-89783333D02*
X151472500Y-89816666D01*
X151305833Y-89816666D01*
X151239166Y-89783333D01*
X151205833Y-89750000D01*
X151172500Y-89683333D01*
X151172500Y-89616666D01*
X151205833Y-89550000D01*
X151239166Y-89516666D01*
X151305833Y-89483333D01*
X151439166Y-89450000D01*
X151505833Y-89416666D01*
X151539166Y-89383333D01*
X151572500Y-89316666D01*
X151572500Y-89250000D01*
X151539166Y-89183333D01*
X151505833Y-89150000D01*
X151439166Y-89116666D01*
X151272500Y-89116666D01*
X151172500Y-89150000D01*
X150939166Y-89116666D02*
X150505833Y-89116666D01*
X150739166Y-89383333D01*
X150639166Y-89383333D01*
X150572500Y-89416666D01*
X150539166Y-89450000D01*
X150505833Y-89516666D01*
X150505833Y-89683333D01*
X150539166Y-89750000D01*
X150572500Y-89783333D01*
X150639166Y-89816666D01*
X150839166Y-89816666D01*
X150905833Y-89783333D01*
X150939166Y-89750000D01*
X151939166Y-91016666D02*
X152172500Y-90683333D01*
X152339166Y-91016666D02*
X152339166Y-90316666D01*
X152072500Y-90316666D01*
X152005833Y-90350000D01*
X151972500Y-90383333D01*
X151939166Y-90450000D01*
X151939166Y-90550000D01*
X151972500Y-90616666D01*
X152005833Y-90650000D01*
X152072500Y-90683333D01*
X152339166Y-90683333D01*
X151672500Y-90983333D02*
X151572500Y-91016666D01*
X151405833Y-91016666D01*
X151339166Y-90983333D01*
X151305833Y-90950000D01*
X151272500Y-90883333D01*
X151272500Y-90816666D01*
X151305833Y-90750000D01*
X151339166Y-90716666D01*
X151405833Y-90683333D01*
X151539166Y-90650000D01*
X151605833Y-90616666D01*
X151639166Y-90583333D01*
X151672500Y-90516666D01*
X151672500Y-90450000D01*
X151639166Y-90383333D01*
X151605833Y-90350000D01*
X151539166Y-90316666D01*
X151372500Y-90316666D01*
X151272500Y-90350000D01*
X151072500Y-90316666D02*
X150672500Y-90316666D01*
X150872500Y-91016666D02*
X150872500Y-90316666D01*
X152372500Y-92183333D02*
X152272500Y-92216666D01*
X152105833Y-92216666D01*
X152039166Y-92183333D01*
X152005833Y-92150000D01*
X151972500Y-92083333D01*
X151972500Y-92016666D01*
X152005833Y-91950000D01*
X152039166Y-91916666D01*
X152105833Y-91883333D01*
X152239166Y-91850000D01*
X152305833Y-91816666D01*
X152339166Y-91783333D01*
X152372500Y-91716666D01*
X152372500Y-91650000D01*
X152339166Y-91583333D01*
X152305833Y-91550000D01*
X152239166Y-91516666D01*
X152072500Y-91516666D01*
X151972500Y-91550000D01*
X151772500Y-91516666D02*
X151372500Y-91516666D01*
X151572500Y-92216666D02*
X151572500Y-91516666D01*
X151139166Y-91850000D02*
X150905833Y-91850000D01*
X150805833Y-92216666D02*
X151139166Y-92216666D01*
X151139166Y-91516666D01*
X150805833Y-91516666D01*
X150505833Y-92216666D02*
X150505833Y-91516666D01*
X150239166Y-91516666D01*
X150172500Y-91550000D01*
X150139166Y-91583333D01*
X150105833Y-91650000D01*
X150105833Y-91750000D01*
X150139166Y-91816666D01*
X150172500Y-91850000D01*
X150239166Y-91883333D01*
X150505833Y-91883333D01*
X152339166Y-93416666D02*
X152339166Y-92716666D01*
X152172500Y-92716666D01*
X152072500Y-92750000D01*
X152005833Y-92816666D01*
X151972500Y-92883333D01*
X151939166Y-93016666D01*
X151939166Y-93116666D01*
X151972500Y-93250000D01*
X152005833Y-93316666D01*
X152072500Y-93383333D01*
X152172500Y-93416666D01*
X152339166Y-93416666D01*
X151639166Y-93416666D02*
X151639166Y-92716666D01*
X150905833Y-93416666D02*
X151139166Y-93083333D01*
X151305833Y-93416666D02*
X151305833Y-92716666D01*
X151039166Y-92716666D01*
X150972500Y-92750000D01*
X150939166Y-92783333D01*
X150905833Y-92850000D01*
X150905833Y-92950000D01*
X150939166Y-93016666D01*
X150972500Y-93050000D01*
X151039166Y-93083333D01*
X151305833Y-93083333D01*
X153205833Y-104496666D02*
X153205833Y-104996666D01*
X153239166Y-105096666D01*
X153305833Y-105163333D01*
X153405833Y-105196666D01*
X153472500Y-105196666D01*
X152772500Y-105196666D02*
X152839166Y-105163333D01*
X152872500Y-105130000D01*
X152905833Y-105063333D01*
X152905833Y-104863333D01*
X152872500Y-104796666D01*
X152839166Y-104763333D01*
X152772500Y-104730000D01*
X152672500Y-104730000D01*
X152605833Y-104763333D01*
X152572500Y-104796666D01*
X152539166Y-104863333D01*
X152539166Y-105063333D01*
X152572500Y-105130000D01*
X152605833Y-105163333D01*
X152672500Y-105196666D01*
X152772500Y-105196666D01*
X152305833Y-104730000D02*
X152139166Y-105196666D01*
X151972500Y-104730000D02*
X152139166Y-105196666D01*
X152205833Y-105363333D01*
X152239166Y-105396666D01*
X152305833Y-105430000D01*
X151739166Y-105163333D02*
X151672500Y-105196666D01*
X151539166Y-105196666D01*
X151472500Y-105163333D01*
X151439166Y-105096666D01*
X151439166Y-105063333D01*
X151472500Y-104996666D01*
X151539166Y-104963333D01*
X151639166Y-104963333D01*
X151705833Y-104930000D01*
X151739166Y-104863333D01*
X151739166Y-104830000D01*
X151705833Y-104763333D01*
X151639166Y-104730000D01*
X151539166Y-104730000D01*
X151472500Y-104763333D01*
X151239166Y-104730000D02*
X150972500Y-104730000D01*
X151139166Y-104496666D02*
X151139166Y-105096666D01*
X151105833Y-105163333D01*
X151039166Y-105196666D01*
X150972500Y-105196666D01*
X150739166Y-105196666D02*
X150739166Y-104730000D01*
X150739166Y-104496666D02*
X150772500Y-104530000D01*
X150739166Y-104563333D01*
X150705833Y-104530000D01*
X150739166Y-104496666D01*
X150739166Y-104563333D01*
X150105833Y-105163333D02*
X150172500Y-105196666D01*
X150305833Y-105196666D01*
X150372500Y-105163333D01*
X150405833Y-105130000D01*
X150439166Y-105063333D01*
X150439166Y-104863333D01*
X150405833Y-104796666D01*
X150372500Y-104763333D01*
X150305833Y-104730000D01*
X150172500Y-104730000D01*
X150105833Y-104763333D01*
X149805833Y-105196666D02*
X149805833Y-104496666D01*
X149739166Y-104930000D02*
X149539166Y-105196666D01*
X149539166Y-104730000D02*
X149805833Y-104996666D01*
X152405833Y-105696666D02*
X151939166Y-106396666D01*
X151939166Y-105696666D02*
X152405833Y-106396666D01*
X149539166Y-106330000D02*
X149505833Y-106363333D01*
X149539166Y-106396666D01*
X149572500Y-106363333D01*
X149539166Y-106330000D01*
X149539166Y-106396666D01*
X149539166Y-105963333D02*
X149505833Y-105996666D01*
X149539166Y-106030000D01*
X149572500Y-105996666D01*
X149539166Y-105963333D01*
X149539166Y-106030000D01*
X148705833Y-106196666D02*
X148372500Y-106196666D01*
X148772500Y-106396666D02*
X148539166Y-105696666D01*
X148305833Y-106396666D01*
X147939166Y-105696666D02*
X147872500Y-105696666D01*
X147805833Y-105730000D01*
X147772500Y-105763333D01*
X147739166Y-105830000D01*
X147705833Y-105963333D01*
X147705833Y-106130000D01*
X147739166Y-106263333D01*
X147772500Y-106330000D01*
X147805833Y-106363333D01*
X147872500Y-106396666D01*
X147939166Y-106396666D01*
X148005833Y-106363333D01*
X148039166Y-106330000D01*
X148072500Y-106263333D01*
X148105833Y-106130000D01*
X148105833Y-105963333D01*
X148072500Y-105830000D01*
X148039166Y-105763333D01*
X148005833Y-105730000D01*
X147939166Y-105696666D01*
X152205833Y-107263333D02*
X152205833Y-107596666D01*
X152439166Y-106896666D02*
X152205833Y-107263333D01*
X151972500Y-106896666D01*
X149605833Y-107530000D02*
X149572500Y-107563333D01*
X149605833Y-107596666D01*
X149639166Y-107563333D01*
X149605833Y-107530000D01*
X149605833Y-107596666D01*
X149605833Y-107163333D02*
X149572500Y-107196666D01*
X149605833Y-107230000D01*
X149639166Y-107196666D01*
X149605833Y-107163333D01*
X149605833Y-107230000D01*
X148772500Y-107396666D02*
X148439166Y-107396666D01*
X148839166Y-107596666D02*
X148605833Y-106896666D01*
X148372500Y-107596666D01*
X147772500Y-107596666D02*
X148172500Y-107596666D01*
X147972500Y-107596666D02*
X147972500Y-106896666D01*
X148039166Y-106996666D01*
X148105833Y-107063333D01*
X148172500Y-107096666D01*
X152105833Y-108430000D02*
X152005833Y-108463333D01*
X151972500Y-108496666D01*
X151939166Y-108563333D01*
X151939166Y-108663333D01*
X151972500Y-108730000D01*
X152005833Y-108763333D01*
X152072500Y-108796666D01*
X152339166Y-108796666D01*
X152339166Y-108096666D01*
X152105833Y-108096666D01*
X152039166Y-108130000D01*
X152005833Y-108163333D01*
X151972500Y-108230000D01*
X151972500Y-108296666D01*
X152005833Y-108363333D01*
X152039166Y-108396666D01*
X152105833Y-108430000D01*
X152339166Y-108430000D01*
X151339166Y-108330000D02*
X151339166Y-108796666D01*
X151639166Y-108330000D02*
X151639166Y-108696666D01*
X151605833Y-108763333D01*
X151539166Y-108796666D01*
X151439166Y-108796666D01*
X151372500Y-108763333D01*
X151339166Y-108730000D01*
X151105833Y-108330000D02*
X150839166Y-108330000D01*
X151005833Y-108096666D02*
X151005833Y-108696666D01*
X150972500Y-108763333D01*
X150905833Y-108796666D01*
X150839166Y-108796666D01*
X149539166Y-108730000D02*
X149505833Y-108763333D01*
X149539166Y-108796666D01*
X149572500Y-108763333D01*
X149539166Y-108730000D01*
X149539166Y-108796666D01*
X149539166Y-108363333D02*
X149505833Y-108396666D01*
X149539166Y-108430000D01*
X149572500Y-108396666D01*
X149539166Y-108363333D01*
X149539166Y-108430000D01*
X148705833Y-108163333D02*
X148672500Y-108130000D01*
X148605833Y-108096666D01*
X148439166Y-108096666D01*
X148372500Y-108130000D01*
X148339166Y-108163333D01*
X148305833Y-108230000D01*
X148305833Y-108296666D01*
X148339166Y-108396666D01*
X148739166Y-108796666D01*
X148305833Y-108796666D01*
D10*
X167640000Y-110490000D02*
X170180000Y-110490000D01*
X170180000Y-110490000D02*
X170180000Y-97790000D01*
X167640000Y-97790000D02*
X167640000Y-110490000D01*
X170180000Y-97790000D02*
X167640000Y-97790000D01*
X167640000Y-80010000D02*
X170180000Y-80010000D01*
X167640000Y-69850000D02*
X167640000Y-80010000D01*
X170180000Y-69850000D02*
X167640000Y-69850000D01*
X170180000Y-80010000D02*
X170180000Y-69850000D01*
X167640000Y-83820000D02*
X167640000Y-93980000D01*
X170180000Y-83820000D02*
X167640000Y-83820000D01*
X170180000Y-93980000D02*
X170180000Y-83820000D01*
X167640000Y-93980000D02*
X170180000Y-93980000D01*
D11*
X98155238Y-95940000D02*
X99107619Y-96273333D01*
X98155238Y-96511428D02*
X100155238Y-96511428D01*
X100155238Y-96130476D01*
X100060000Y-96035238D01*
X99964761Y-95987619D01*
X99774285Y-95940000D01*
X99488571Y-95940000D01*
X99298095Y-95987619D01*
X99202857Y-96035238D01*
X99107619Y-96130476D01*
X99107619Y-96511428D01*
X99488571Y-95082857D02*
X98155238Y-95082857D01*
X99488571Y-95511428D02*
X98440952Y-95511428D01*
X98250476Y-95463809D01*
X98155238Y-95368571D01*
X98155238Y-95225714D01*
X98250476Y-95130476D01*
X98345714Y-95082857D01*
X99488571Y-94606666D02*
X98155238Y-94606666D01*
X99298095Y-94606666D02*
X99393333Y-94559047D01*
X99488571Y-94463809D01*
X99488571Y-94320952D01*
X99393333Y-94225714D01*
X99202857Y-94178095D01*
X98155238Y-94178095D01*
X98250476Y-93749523D02*
X98155238Y-93654285D01*
X98155238Y-93463809D01*
X98250476Y-93368571D01*
X98440952Y-93320952D01*
X98536190Y-93320952D01*
X98726666Y-93368571D01*
X98821904Y-93463809D01*
X98821904Y-93606666D01*
X98917142Y-93701904D01*
X99107619Y-93749523D01*
X99202857Y-93749523D01*
X99393333Y-93701904D01*
X99488571Y-93606666D01*
X99488571Y-93463809D01*
X99393333Y-93368571D01*
X99488571Y-92987619D02*
X98155238Y-92749523D01*
X99488571Y-92511428D02*
X98155238Y-92749523D01*
X97679047Y-92844761D01*
X97583809Y-92892380D01*
X97488571Y-92987619D01*
X98250476Y-92178095D02*
X98155238Y-92082857D01*
X98155238Y-91892380D01*
X98250476Y-91797142D01*
X98440952Y-91749523D01*
X98536190Y-91749523D01*
X98726666Y-91797142D01*
X98821904Y-91892380D01*
X98821904Y-92035238D01*
X98917142Y-92130476D01*
X99107619Y-92178095D01*
X99202857Y-92178095D01*
X99393333Y-92130476D01*
X99488571Y-92035238D01*
X99488571Y-91892380D01*
X99393333Y-91797142D01*
X98250476Y-90130476D02*
X98155238Y-90225714D01*
X98155238Y-90416190D01*
X98250476Y-90511428D01*
X98345714Y-90559047D01*
X98536190Y-90606666D01*
X99107619Y-90606666D01*
X99298095Y-90559047D01*
X99393333Y-90511428D01*
X99488571Y-90416190D01*
X99488571Y-90225714D01*
X99393333Y-90130476D01*
X99964761Y-89749523D02*
X100060000Y-89701904D01*
X100155238Y-89606666D01*
X100155238Y-89368571D01*
X100060000Y-89273333D01*
X99964761Y-89225714D01*
X99774285Y-89178095D01*
X99583809Y-89178095D01*
X99298095Y-89225714D01*
X98155238Y-89797142D01*
X98155238Y-89178095D01*
X100155238Y-88559047D02*
X100155238Y-88463809D01*
X100060000Y-88368571D01*
X99964761Y-88320952D01*
X99774285Y-88273333D01*
X99393333Y-88225714D01*
X98917142Y-88225714D01*
X98536190Y-88273333D01*
X98345714Y-88320952D01*
X98250476Y-88368571D01*
X98155238Y-88463809D01*
X98155238Y-88559047D01*
X98250476Y-88654285D01*
X98345714Y-88701904D01*
X98536190Y-88749523D01*
X98917142Y-88797142D01*
X99393333Y-88797142D01*
X99774285Y-88749523D01*
X99964761Y-88701904D01*
X100060000Y-88654285D01*
X100155238Y-88559047D01*
X98155238Y-87273333D02*
X98155238Y-87844761D01*
X98155238Y-87559047D02*
X100155238Y-87559047D01*
X99869523Y-87654285D01*
X99679047Y-87749523D01*
X99583809Y-87844761D01*
X98155238Y-86797142D02*
X98155238Y-86606666D01*
X98250476Y-86511428D01*
X98345714Y-86463809D01*
X98631428Y-86368571D01*
X99012380Y-86320952D01*
X99774285Y-86320952D01*
X99964761Y-86368571D01*
X100060000Y-86416190D01*
X100155238Y-86511428D01*
X100155238Y-86701904D01*
X100060000Y-86797142D01*
X99964761Y-86844761D01*
X99774285Y-86892380D01*
X99298095Y-86892380D01*
X99107619Y-86844761D01*
X99012380Y-86797142D01*
X98917142Y-86701904D01*
X98917142Y-86511428D01*
X99012380Y-86416190D01*
X99107619Y-86368571D01*
X99298095Y-86320952D01*
D12*
X103155714Y-101408571D02*
X103155714Y-100741904D01*
X101060476Y-100456190D02*
X101060476Y-101408571D01*
X105060476Y-101408571D01*
X105060476Y-100456190D01*
X100679523Y-98265714D02*
X100870000Y-98456190D01*
X101250952Y-98646666D01*
X101822380Y-98932380D01*
X102012857Y-99122857D01*
X102012857Y-99313333D01*
X101060476Y-99218095D02*
X101250952Y-99408571D01*
X101631904Y-99599047D01*
X102393809Y-99694285D01*
X103727142Y-99694285D01*
X104489047Y-99599047D01*
X104870000Y-99408571D01*
X105060476Y-99218095D01*
X105060476Y-98837142D01*
X104870000Y-98646666D01*
X104489047Y-98456190D01*
X103727142Y-98360952D01*
X102393809Y-98360952D01*
X101631904Y-98456190D01*
X101250952Y-98646666D01*
X101060476Y-98837142D01*
X101060476Y-99218095D01*
X105060476Y-96551428D02*
X105060476Y-97503809D01*
X103155714Y-97599047D01*
X103346190Y-97503809D01*
X103536666Y-97313333D01*
X103536666Y-96837142D01*
X103346190Y-96646666D01*
X103155714Y-96551428D01*
X102774761Y-96456190D01*
X101822380Y-96456190D01*
X101441428Y-96551428D01*
X101250952Y-96646666D01*
X101060476Y-96837142D01*
X101060476Y-97313333D01*
X101250952Y-97503809D01*
X101441428Y-97599047D01*
X101060476Y-94075238D02*
X105060476Y-94075238D01*
X105060476Y-93599047D01*
X104870000Y-93313333D01*
X104489047Y-93122857D01*
X104108095Y-93027619D01*
X103346190Y-92932380D01*
X102774761Y-92932380D01*
X102012857Y-93027619D01*
X101631904Y-93122857D01*
X101250952Y-93313333D01*
X101060476Y-93599047D01*
X101060476Y-94075238D01*
X101060476Y-90932380D02*
X102965238Y-91599047D01*
X101060476Y-92075238D02*
X105060476Y-92075238D01*
X105060476Y-91313333D01*
X104870000Y-91122857D01*
X104679523Y-91027619D01*
X104298571Y-90932380D01*
X103727142Y-90932380D01*
X103346190Y-91027619D01*
X103155714Y-91122857D01*
X102965238Y-91313333D01*
X102965238Y-92075238D01*
X101060476Y-90075238D02*
X105060476Y-90075238D01*
X105060476Y-89408571D02*
X101060476Y-88741904D01*
X105060476Y-88075238D01*
X103155714Y-87408571D02*
X103155714Y-86741904D01*
X101060476Y-86456190D02*
X101060476Y-87408571D01*
X105060476Y-87408571D01*
X105060476Y-86456190D01*
D11*
X166105833Y-84276666D02*
X166105833Y-83576666D01*
X165939166Y-83576666D01*
X165839166Y-83610000D01*
X165772500Y-83676666D01*
X165739166Y-83743333D01*
X165705833Y-83876666D01*
X165705833Y-83976666D01*
X165739166Y-84110000D01*
X165772500Y-84176666D01*
X165839166Y-84243333D01*
X165939166Y-84276666D01*
X166105833Y-84276666D01*
X165139166Y-84243333D02*
X165205833Y-84276666D01*
X165339166Y-84276666D01*
X165405833Y-84243333D01*
X165439166Y-84176666D01*
X165439166Y-83910000D01*
X165405833Y-83843333D01*
X165339166Y-83810000D01*
X165205833Y-83810000D01*
X165139166Y-83843333D01*
X165105833Y-83910000D01*
X165105833Y-83976666D01*
X165439166Y-84043333D01*
X165205833Y-83543333D02*
X165305833Y-83643333D01*
X164505833Y-84243333D02*
X164572500Y-84276666D01*
X164705833Y-84276666D01*
X164772500Y-84243333D01*
X164805833Y-84210000D01*
X164839166Y-84143333D01*
X164839166Y-83943333D01*
X164805833Y-83876666D01*
X164772500Y-83843333D01*
X164705833Y-83810000D01*
X164572500Y-83810000D01*
X164505833Y-83843333D01*
X164105833Y-84276666D02*
X164172500Y-84243333D01*
X164205833Y-84176666D01*
X164205833Y-83576666D01*
X163839166Y-84276666D02*
X163839166Y-83810000D01*
X163839166Y-83576666D02*
X163872500Y-83610000D01*
X163839166Y-83643333D01*
X163805833Y-83610000D01*
X163839166Y-83576666D01*
X163839166Y-83643333D01*
X163505833Y-83810000D02*
X163505833Y-84276666D01*
X163505833Y-83876666D02*
X163472500Y-83843333D01*
X163405833Y-83810000D01*
X163305833Y-83810000D01*
X163239166Y-83843333D01*
X163205833Y-83910000D01*
X163205833Y-84276666D01*
X162572500Y-84276666D02*
X162572500Y-83910000D01*
X162605833Y-83843333D01*
X162672500Y-83810000D01*
X162805833Y-83810000D01*
X162872500Y-83843333D01*
X162572500Y-84243333D02*
X162639166Y-84276666D01*
X162805833Y-84276666D01*
X162872500Y-84243333D01*
X162905833Y-84176666D01*
X162905833Y-84110000D01*
X162872500Y-84043333D01*
X162805833Y-84010000D01*
X162639166Y-84010000D01*
X162572500Y-83976666D01*
X162239166Y-84276666D02*
X162239166Y-83810000D01*
X162239166Y-83576666D02*
X162272500Y-83610000D01*
X162239166Y-83643333D01*
X162205833Y-83610000D01*
X162239166Y-83576666D01*
X162239166Y-83643333D01*
X161939166Y-84243333D02*
X161872500Y-84276666D01*
X161739166Y-84276666D01*
X161672500Y-84243333D01*
X161639166Y-84176666D01*
X161639166Y-84143333D01*
X161672500Y-84076666D01*
X161739166Y-84043333D01*
X161839166Y-84043333D01*
X161905833Y-84010000D01*
X161939166Y-83943333D01*
X161939166Y-83910000D01*
X161905833Y-83843333D01*
X161839166Y-83810000D01*
X161739166Y-83810000D01*
X161672500Y-83843333D01*
X161239166Y-84276666D02*
X161305833Y-84243333D01*
X161339166Y-84210000D01*
X161372500Y-84143333D01*
X161372500Y-83943333D01*
X161339166Y-83876666D01*
X161305833Y-83843333D01*
X161239166Y-83810000D01*
X161139166Y-83810000D01*
X161072500Y-83843333D01*
X161039166Y-83876666D01*
X161005833Y-83943333D01*
X161005833Y-84143333D01*
X161039166Y-84210000D01*
X161072500Y-84243333D01*
X161139166Y-84276666D01*
X161239166Y-84276666D01*
X160705833Y-83810000D02*
X160705833Y-84276666D01*
X160705833Y-83876666D02*
X160672500Y-83843333D01*
X160605833Y-83810000D01*
X160505833Y-83810000D01*
X160439166Y-83843333D01*
X160405833Y-83910000D01*
X160405833Y-84276666D01*
X164672500Y-85476666D02*
X165072500Y-85476666D01*
X164872500Y-85476666D02*
X164872500Y-84776666D01*
X164939166Y-84876666D01*
X165005833Y-84943333D01*
X165072500Y-84976666D01*
X163839166Y-85410000D02*
X163805833Y-85443333D01*
X163839166Y-85476666D01*
X163872500Y-85443333D01*
X163839166Y-85410000D01*
X163839166Y-85476666D01*
X163839166Y-85043333D02*
X163805833Y-85076666D01*
X163839166Y-85110000D01*
X163872500Y-85076666D01*
X163839166Y-85043333D01*
X163839166Y-85110000D01*
X162605833Y-85476666D02*
X163005833Y-85476666D01*
X162805833Y-85476666D02*
X162805833Y-84776666D01*
X162872500Y-84876666D01*
X162939166Y-84943333D01*
X163005833Y-84976666D01*
X162339166Y-85276666D02*
X162005833Y-85276666D01*
X162405833Y-85476666D02*
X162172500Y-84776666D01*
X161939166Y-85476666D01*
X165072500Y-86043333D02*
X165039166Y-86010000D01*
X164972500Y-85976666D01*
X164805833Y-85976666D01*
X164739166Y-86010000D01*
X164705833Y-86043333D01*
X164672500Y-86110000D01*
X164672500Y-86176666D01*
X164705833Y-86276666D01*
X165105833Y-86676666D01*
X164672500Y-86676666D01*
X163839166Y-86610000D02*
X163805833Y-86643333D01*
X163839166Y-86676666D01*
X163872500Y-86643333D01*
X163839166Y-86610000D01*
X163839166Y-86676666D01*
X163839166Y-86243333D02*
X163805833Y-86276666D01*
X163839166Y-86310000D01*
X163872500Y-86276666D01*
X163839166Y-86243333D01*
X163839166Y-86310000D01*
X163005833Y-86043333D02*
X162972500Y-86010000D01*
X162905833Y-85976666D01*
X162739166Y-85976666D01*
X162672500Y-86010000D01*
X162639166Y-86043333D01*
X162605833Y-86110000D01*
X162605833Y-86176666D01*
X162639166Y-86276666D01*
X163039166Y-86676666D01*
X162605833Y-86676666D01*
X162072500Y-86310000D02*
X161972500Y-86343333D01*
X161939166Y-86376666D01*
X161905833Y-86443333D01*
X161905833Y-86543333D01*
X161939166Y-86610000D01*
X161972500Y-86643333D01*
X162039166Y-86676666D01*
X162305833Y-86676666D01*
X162305833Y-85976666D01*
X162072500Y-85976666D01*
X162005833Y-86010000D01*
X161972500Y-86043333D01*
X161939166Y-86110000D01*
X161939166Y-86176666D01*
X161972500Y-86243333D01*
X162005833Y-86276666D01*
X162072500Y-86310000D01*
X162305833Y-86310000D01*
X165105833Y-87176666D02*
X164672500Y-87176666D01*
X164905833Y-87443333D01*
X164805833Y-87443333D01*
X164739166Y-87476666D01*
X164705833Y-87510000D01*
X164672500Y-87576666D01*
X164672500Y-87743333D01*
X164705833Y-87810000D01*
X164739166Y-87843333D01*
X164805833Y-87876666D01*
X165005833Y-87876666D01*
X165072500Y-87843333D01*
X165105833Y-87810000D01*
X163839166Y-87810000D02*
X163805833Y-87843333D01*
X163839166Y-87876666D01*
X163872500Y-87843333D01*
X163839166Y-87810000D01*
X163839166Y-87876666D01*
X163839166Y-87443333D02*
X163805833Y-87476666D01*
X163839166Y-87510000D01*
X163872500Y-87476666D01*
X163839166Y-87443333D01*
X163839166Y-87510000D01*
X163005833Y-87243333D02*
X162972500Y-87210000D01*
X162905833Y-87176666D01*
X162739166Y-87176666D01*
X162672500Y-87210000D01*
X162639166Y-87243333D01*
X162605833Y-87310000D01*
X162605833Y-87376666D01*
X162639166Y-87476666D01*
X163039166Y-87876666D01*
X162605833Y-87876666D01*
X162339166Y-87676666D02*
X162005833Y-87676666D01*
X162405833Y-87876666D02*
X162172500Y-87176666D01*
X161939166Y-87876666D01*
X164739166Y-88610000D02*
X164739166Y-89076666D01*
X164905833Y-88343333D02*
X165072500Y-88843333D01*
X164639166Y-88843333D01*
X163839166Y-89010000D02*
X163805833Y-89043333D01*
X163839166Y-89076666D01*
X163872500Y-89043333D01*
X163839166Y-89010000D01*
X163839166Y-89076666D01*
X163839166Y-88643333D02*
X163805833Y-88676666D01*
X163839166Y-88710000D01*
X163872500Y-88676666D01*
X163839166Y-88643333D01*
X163839166Y-88710000D01*
X162605833Y-89076666D02*
X163005833Y-89076666D01*
X162805833Y-89076666D02*
X162805833Y-88376666D01*
X162872500Y-88476666D01*
X162939166Y-88543333D01*
X163005833Y-88576666D01*
X162072500Y-88710000D02*
X161972500Y-88743333D01*
X161939166Y-88776666D01*
X161905833Y-88843333D01*
X161905833Y-88943333D01*
X161939166Y-89010000D01*
X161972500Y-89043333D01*
X162039166Y-89076666D01*
X162305833Y-89076666D01*
X162305833Y-88376666D01*
X162072500Y-88376666D01*
X162005833Y-88410000D01*
X161972500Y-88443333D01*
X161939166Y-88510000D01*
X161939166Y-88576666D01*
X161972500Y-88643333D01*
X162005833Y-88676666D01*
X162072500Y-88710000D01*
X162305833Y-88710000D01*
X166139166Y-70106666D02*
X165805833Y-70106666D01*
X166205833Y-70306666D02*
X165972500Y-69606666D01*
X165739166Y-70306666D01*
X165539166Y-70273333D02*
X165472500Y-70306666D01*
X165339166Y-70306666D01*
X165272500Y-70273333D01*
X165239166Y-70206666D01*
X165239166Y-70173333D01*
X165272500Y-70106666D01*
X165339166Y-70073333D01*
X165439166Y-70073333D01*
X165505833Y-70040000D01*
X165539166Y-69973333D01*
X165539166Y-69940000D01*
X165505833Y-69873333D01*
X165439166Y-69840000D01*
X165339166Y-69840000D01*
X165272500Y-69873333D01*
X164639166Y-70273333D02*
X164705833Y-70306666D01*
X164839166Y-70306666D01*
X164905833Y-70273333D01*
X164939166Y-70240000D01*
X164972500Y-70173333D01*
X164972500Y-69973333D01*
X164939166Y-69906666D01*
X164905833Y-69873333D01*
X164839166Y-69840000D01*
X164705833Y-69840000D01*
X164639166Y-69873333D01*
X164072500Y-70273333D02*
X164139166Y-70306666D01*
X164272500Y-70306666D01*
X164339166Y-70273333D01*
X164372500Y-70206666D01*
X164372500Y-69940000D01*
X164339166Y-69873333D01*
X164272500Y-69840000D01*
X164139166Y-69840000D01*
X164072500Y-69873333D01*
X164039166Y-69940000D01*
X164039166Y-70006666D01*
X164372500Y-70073333D01*
X163739166Y-69840000D02*
X163739166Y-70306666D01*
X163739166Y-69906666D02*
X163705833Y-69873333D01*
X163639166Y-69840000D01*
X163539166Y-69840000D01*
X163472500Y-69873333D01*
X163439166Y-69940000D01*
X163439166Y-70306666D01*
X163139166Y-70273333D02*
X163072500Y-70306666D01*
X162939166Y-70306666D01*
X162872500Y-70273333D01*
X162839166Y-70206666D01*
X162839166Y-70173333D01*
X162872500Y-70106666D01*
X162939166Y-70073333D01*
X163039166Y-70073333D01*
X163105833Y-70040000D01*
X163139166Y-69973333D01*
X163139166Y-69940000D01*
X163105833Y-69873333D01*
X163039166Y-69840000D01*
X162939166Y-69840000D01*
X162872500Y-69873333D01*
X162539166Y-70306666D02*
X162539166Y-69840000D01*
X162539166Y-69606666D02*
X162572500Y-69640000D01*
X162539166Y-69673333D01*
X162505833Y-69640000D01*
X162539166Y-69606666D01*
X162539166Y-69673333D01*
X162105833Y-70306666D02*
X162172500Y-70273333D01*
X162205833Y-70240000D01*
X162239166Y-70173333D01*
X162239166Y-69973333D01*
X162205833Y-69906666D01*
X162172500Y-69873333D01*
X162105833Y-69840000D01*
X162005833Y-69840000D01*
X161939166Y-69873333D01*
X161905833Y-69906666D01*
X161872500Y-69973333D01*
X161872500Y-70173333D01*
X161905833Y-70240000D01*
X161939166Y-70273333D01*
X162005833Y-70306666D01*
X162105833Y-70306666D01*
X161572500Y-69840000D02*
X161572500Y-70306666D01*
X161572500Y-69906666D02*
X161539166Y-69873333D01*
X161472500Y-69840000D01*
X161372500Y-69840000D01*
X161305833Y-69873333D01*
X161272500Y-69940000D01*
X161272500Y-70306666D01*
X160405833Y-70306666D02*
X160405833Y-69606666D01*
X160239166Y-69606666D01*
X160139166Y-69640000D01*
X160072500Y-69706666D01*
X160039166Y-69773333D01*
X160005833Y-69906666D01*
X160005833Y-70006666D01*
X160039166Y-70140000D01*
X160072500Y-70206666D01*
X160139166Y-70273333D01*
X160239166Y-70306666D01*
X160405833Y-70306666D01*
X159705833Y-70306666D02*
X159705833Y-69840000D01*
X159705833Y-69973333D02*
X159672500Y-69906666D01*
X159639166Y-69873333D01*
X159572500Y-69840000D01*
X159505833Y-69840000D01*
X159172500Y-70306666D02*
X159239166Y-70273333D01*
X159272500Y-70240000D01*
X159305833Y-70173333D01*
X159305833Y-69973333D01*
X159272500Y-69906666D01*
X159239166Y-69873333D01*
X159172500Y-69840000D01*
X159072500Y-69840000D01*
X159005833Y-69873333D01*
X158972500Y-69906666D01*
X158939166Y-69973333D01*
X158939166Y-70173333D01*
X158972500Y-70240000D01*
X159005833Y-70273333D01*
X159072500Y-70306666D01*
X159172500Y-70306666D01*
X158639166Y-70306666D02*
X158639166Y-69840000D01*
X158639166Y-69606666D02*
X158672500Y-69640000D01*
X158639166Y-69673333D01*
X158605833Y-69640000D01*
X158639166Y-69606666D01*
X158639166Y-69673333D01*
X158405833Y-69840000D02*
X158139166Y-69840000D01*
X158305833Y-69606666D02*
X158305833Y-70206666D01*
X158272500Y-70273333D01*
X158205833Y-70306666D01*
X158139166Y-70306666D01*
X157639166Y-70273333D02*
X157705833Y-70306666D01*
X157839166Y-70306666D01*
X157905833Y-70273333D01*
X157939166Y-70206666D01*
X157939166Y-69940000D01*
X157905833Y-69873333D01*
X157839166Y-69840000D01*
X157705833Y-69840000D01*
X157639166Y-69873333D01*
X157605833Y-69940000D01*
X157605833Y-70006666D01*
X157939166Y-70073333D01*
X164672500Y-71506666D02*
X165072500Y-71506666D01*
X164872500Y-71506666D02*
X164872500Y-70806666D01*
X164939166Y-70906666D01*
X165005833Y-70973333D01*
X165072500Y-71006666D01*
X163839166Y-71440000D02*
X163805833Y-71473333D01*
X163839166Y-71506666D01*
X163872500Y-71473333D01*
X163839166Y-71440000D01*
X163839166Y-71506666D01*
X163839166Y-71073333D02*
X163805833Y-71106666D01*
X163839166Y-71140000D01*
X163872500Y-71106666D01*
X163839166Y-71073333D01*
X163839166Y-71140000D01*
X162605833Y-71506666D02*
X163005833Y-71506666D01*
X162805833Y-71506666D02*
X162805833Y-70806666D01*
X162872500Y-70906666D01*
X162939166Y-70973333D01*
X163005833Y-71006666D01*
X162339166Y-71306666D02*
X162005833Y-71306666D01*
X162405833Y-71506666D02*
X162172500Y-70806666D01*
X161939166Y-71506666D01*
X165072500Y-72073333D02*
X165039166Y-72040000D01*
X164972500Y-72006666D01*
X164805833Y-72006666D01*
X164739166Y-72040000D01*
X164705833Y-72073333D01*
X164672500Y-72140000D01*
X164672500Y-72206666D01*
X164705833Y-72306666D01*
X165105833Y-72706666D01*
X164672500Y-72706666D01*
X163839166Y-72640000D02*
X163805833Y-72673333D01*
X163839166Y-72706666D01*
X163872500Y-72673333D01*
X163839166Y-72640000D01*
X163839166Y-72706666D01*
X163839166Y-72273333D02*
X163805833Y-72306666D01*
X163839166Y-72340000D01*
X163872500Y-72306666D01*
X163839166Y-72273333D01*
X163839166Y-72340000D01*
X163005833Y-72073333D02*
X162972500Y-72040000D01*
X162905833Y-72006666D01*
X162739166Y-72006666D01*
X162672500Y-72040000D01*
X162639166Y-72073333D01*
X162605833Y-72140000D01*
X162605833Y-72206666D01*
X162639166Y-72306666D01*
X163039166Y-72706666D01*
X162605833Y-72706666D01*
X162072500Y-72340000D02*
X161972500Y-72373333D01*
X161939166Y-72406666D01*
X161905833Y-72473333D01*
X161905833Y-72573333D01*
X161939166Y-72640000D01*
X161972500Y-72673333D01*
X162039166Y-72706666D01*
X162305833Y-72706666D01*
X162305833Y-72006666D01*
X162072500Y-72006666D01*
X162005833Y-72040000D01*
X161972500Y-72073333D01*
X161939166Y-72140000D01*
X161939166Y-72206666D01*
X161972500Y-72273333D01*
X162005833Y-72306666D01*
X162072500Y-72340000D01*
X162305833Y-72340000D01*
X165105833Y-73206666D02*
X164672500Y-73206666D01*
X164905833Y-73473333D01*
X164805833Y-73473333D01*
X164739166Y-73506666D01*
X164705833Y-73540000D01*
X164672500Y-73606666D01*
X164672500Y-73773333D01*
X164705833Y-73840000D01*
X164739166Y-73873333D01*
X164805833Y-73906666D01*
X165005833Y-73906666D01*
X165072500Y-73873333D01*
X165105833Y-73840000D01*
X163839166Y-73840000D02*
X163805833Y-73873333D01*
X163839166Y-73906666D01*
X163872500Y-73873333D01*
X163839166Y-73840000D01*
X163839166Y-73906666D01*
X163839166Y-73473333D02*
X163805833Y-73506666D01*
X163839166Y-73540000D01*
X163872500Y-73506666D01*
X163839166Y-73473333D01*
X163839166Y-73540000D01*
X163005833Y-73273333D02*
X162972500Y-73240000D01*
X162905833Y-73206666D01*
X162739166Y-73206666D01*
X162672500Y-73240000D01*
X162639166Y-73273333D01*
X162605833Y-73340000D01*
X162605833Y-73406666D01*
X162639166Y-73506666D01*
X163039166Y-73906666D01*
X162605833Y-73906666D01*
X162339166Y-73706666D02*
X162005833Y-73706666D01*
X162405833Y-73906666D02*
X162172500Y-73206666D01*
X161939166Y-73906666D01*
X164739166Y-74640000D02*
X164739166Y-75106666D01*
X164905833Y-74373333D02*
X165072500Y-74873333D01*
X164639166Y-74873333D01*
X163839166Y-75040000D02*
X163805833Y-75073333D01*
X163839166Y-75106666D01*
X163872500Y-75073333D01*
X163839166Y-75040000D01*
X163839166Y-75106666D01*
X163839166Y-74673333D02*
X163805833Y-74706666D01*
X163839166Y-74740000D01*
X163872500Y-74706666D01*
X163839166Y-74673333D01*
X163839166Y-74740000D01*
X162605833Y-75106666D02*
X163005833Y-75106666D01*
X162805833Y-75106666D02*
X162805833Y-74406666D01*
X162872500Y-74506666D01*
X162939166Y-74573333D01*
X163005833Y-74606666D01*
X162072500Y-74740000D02*
X161972500Y-74773333D01*
X161939166Y-74806666D01*
X161905833Y-74873333D01*
X161905833Y-74973333D01*
X161939166Y-75040000D01*
X161972500Y-75073333D01*
X162039166Y-75106666D01*
X162305833Y-75106666D01*
X162305833Y-74406666D01*
X162072500Y-74406666D01*
X162005833Y-74440000D01*
X161972500Y-74473333D01*
X161939166Y-74540000D01*
X161939166Y-74606666D01*
X161972500Y-74673333D01*
X162005833Y-74706666D01*
X162072500Y-74740000D01*
X162305833Y-74740000D01*
D13*
G36*
X104703916Y-81721962D02*
G01*
X104638689Y-81634376D01*
X104567789Y-81592784D01*
X104525812Y-81584262D01*
X104475122Y-81592943D01*
X104403466Y-81622636D01*
X104301226Y-81675726D01*
X104101506Y-81784075D01*
X103974194Y-81641933D01*
X103905272Y-81559683D01*
X103872410Y-81505263D01*
X103871442Y-81471270D01*
X103875076Y-81465820D01*
X103897163Y-81410940D01*
X103898240Y-81383465D01*
X103895962Y-81336719D01*
X103905657Y-81320956D01*
X103933024Y-81339181D01*
X103983762Y-81394396D01*
X104035511Y-81455792D01*
X104116270Y-81549568D01*
X104175575Y-81607035D01*
X104223894Y-81634782D01*
X104243178Y-81636644D01*
X104243178Y-81575713D01*
X104161145Y-81482134D01*
X104088825Y-81399922D01*
X104014050Y-81315336D01*
X104000064Y-81299576D01*
X103859669Y-81135680D01*
X103759274Y-81004903D01*
X103697958Y-80905940D01*
X103675093Y-80840470D01*
X103659721Y-80771430D01*
X103638998Y-80727146D01*
X103534188Y-80594127D01*
X103435402Y-80466588D01*
X103347867Y-80351492D01*
X103276806Y-80255803D01*
X103227447Y-80186483D01*
X103205013Y-80150496D01*
X103204210Y-80147737D01*
X103222297Y-80115733D01*
X103251000Y-80086661D01*
X103295564Y-80051951D01*
X103333157Y-80038187D01*
X103372290Y-80049817D01*
X103421474Y-80091291D01*
X103489221Y-80167058D01*
X103554038Y-80245057D01*
X103655399Y-80364070D01*
X103768230Y-80489983D01*
X103875058Y-80603541D01*
X103924452Y-80653292D01*
X104015549Y-80748315D01*
X104122976Y-80869272D01*
X104231664Y-80998815D01*
X104305797Y-81092284D01*
X104390203Y-81203192D01*
X104445751Y-81280608D01*
X104476760Y-81332976D01*
X104487552Y-81368739D01*
X104482446Y-81396341D01*
X104471378Y-81415864D01*
X104422445Y-81467020D01*
X104351409Y-81517544D01*
X104338153Y-81524977D01*
X104243178Y-81575713D01*
X104243178Y-81636644D01*
X104271698Y-81639398D01*
X104314529Y-81631390D01*
X104369705Y-81603810D01*
X104438782Y-81551579D01*
X104508127Y-81487572D01*
X104564108Y-81424664D01*
X104593094Y-81375731D01*
X104594526Y-81366941D01*
X104578026Y-81332042D01*
X104532946Y-81265113D01*
X104465917Y-81174371D01*
X104383569Y-81068029D01*
X104292534Y-80954303D01*
X104199442Y-80841408D01*
X104110924Y-80737560D01*
X104033610Y-80650973D01*
X103974133Y-80589863D01*
X103951255Y-80569960D01*
X103899015Y-80521779D01*
X103824359Y-80441977D01*
X103737160Y-80341558D01*
X103647292Y-80231525D01*
X103645368Y-80229090D01*
X103542775Y-80103340D01*
X103462796Y-80018272D01*
X103398185Y-79970208D01*
X103341697Y-79955470D01*
X103286085Y-79970381D01*
X103224106Y-80011263D01*
X103221016Y-80013682D01*
X103166753Y-80059139D01*
X103134585Y-80099411D01*
X103126566Y-80142852D01*
X103144750Y-80197814D01*
X103191191Y-80272653D01*
X103267943Y-80375720D01*
X103329466Y-80454671D01*
X103436858Y-80593095D01*
X103513823Y-80696725D01*
X103563931Y-80772045D01*
X103590751Y-80825535D01*
X103597853Y-80863680D01*
X103588806Y-80892960D01*
X103578624Y-80907175D01*
X103547956Y-80934141D01*
X103516259Y-80922513D01*
X103495478Y-80904724D01*
X103442441Y-80876519D01*
X103405247Y-80876660D01*
X103374936Y-80869102D01*
X103325849Y-80827208D01*
X103254596Y-80747532D01*
X103157788Y-80626629D01*
X103152045Y-80619218D01*
X103053181Y-80492880D01*
X102947790Y-80360482D01*
X102849599Y-80239159D01*
X102782997Y-80158661D01*
X102678572Y-80033441D01*
X102558998Y-79888317D01*
X102433125Y-79734192D01*
X102309802Y-79581970D01*
X102197877Y-79442557D01*
X102106201Y-79326855D01*
X102065328Y-79274306D01*
X102017464Y-79213398D01*
X101940180Y-79116673D01*
X101837972Y-78989653D01*
X101715339Y-78837862D01*
X101576779Y-78666822D01*
X101426790Y-78482056D01*
X101269869Y-78289085D01*
X101110514Y-78093433D01*
X100953224Y-77900622D01*
X100802496Y-77716176D01*
X100662827Y-77545615D01*
X100538717Y-77394464D01*
X100434662Y-77268245D01*
X100355161Y-77172479D01*
X100306446Y-77114707D01*
X100237443Y-77036056D01*
X100180728Y-76982439D01*
X100126607Y-76953614D01*
X100065387Y-76949338D01*
X99987376Y-76969369D01*
X99882880Y-77013464D01*
X99742206Y-77081380D01*
X99705118Y-77099653D01*
X99556249Y-77177486D01*
X99438851Y-77251342D01*
X99333806Y-77334555D01*
X99235006Y-77427491D01*
X99126514Y-77541998D01*
X99025028Y-77661733D01*
X98937141Y-77777607D01*
X98869447Y-77880533D01*
X98828538Y-77961420D01*
X98819368Y-78000441D01*
X98835667Y-78030447D01*
X98882491Y-78097969D01*
X98912947Y-78139393D01*
X98912947Y-78033082D01*
X98899579Y-78019713D01*
X98912947Y-78006345D01*
X98926316Y-78019713D01*
X98912947Y-78033082D01*
X98912947Y-78139393D01*
X98956734Y-78198951D01*
X99055291Y-78329335D01*
X99175054Y-78485066D01*
X99312918Y-78662085D01*
X99465777Y-78856337D01*
X99630523Y-79063765D01*
X99702700Y-79154069D01*
X99910831Y-79414695D01*
X100086713Y-79636557D01*
X100232181Y-79822095D01*
X100349070Y-79973747D01*
X100439216Y-80093955D01*
X100504454Y-80185155D01*
X100546619Y-80249788D01*
X100567548Y-80290293D01*
X100570232Y-80306972D01*
X100572712Y-80363937D01*
X100599477Y-80425495D01*
X100613151Y-80449780D01*
X100613151Y-80143445D01*
X100591416Y-80123001D01*
X100543604Y-80068574D01*
X100476615Y-79988277D01*
X100397348Y-79890222D01*
X100391406Y-79882760D01*
X100325734Y-79800540D01*
X100231943Y-79683556D01*
X100115526Y-79538634D01*
X99981973Y-79372602D01*
X99836774Y-79192287D01*
X99685421Y-79004516D01*
X99559593Y-78848555D01*
X99399472Y-78648786D01*
X99261246Y-78473482D01*
X99147106Y-78325561D01*
X99059243Y-78207935D01*
X98999851Y-78123522D01*
X98971119Y-78075236D01*
X98970134Y-78064542D01*
X98996570Y-78034551D01*
X99006526Y-77979876D01*
X98997205Y-77921694D01*
X98976691Y-77893908D01*
X98979473Y-77870457D01*
X99010827Y-77815180D01*
X99065036Y-77737287D01*
X99111400Y-77676901D01*
X99187624Y-77582724D01*
X99239168Y-77525324D01*
X99273446Y-77498705D01*
X99297877Y-77496876D01*
X99316935Y-77510828D01*
X99367352Y-77547616D01*
X99409112Y-77537306D01*
X99435256Y-77510580D01*
X99455334Y-77467703D01*
X99438530Y-77438391D01*
X99411080Y-77399550D01*
X99407579Y-77386323D01*
X99429531Y-77358450D01*
X99487884Y-77313441D01*
X99571381Y-77258415D01*
X99668767Y-77200492D01*
X99768784Y-77146789D01*
X99839122Y-77113401D01*
X99921231Y-77078586D01*
X99964886Y-77065332D01*
X99979998Y-77072384D01*
X99977162Y-77095908D01*
X99982207Y-77148817D01*
X100025394Y-77171147D01*
X100076239Y-77164058D01*
X100121990Y-77130618D01*
X100121660Y-77083967D01*
X100082684Y-77044162D01*
X100051961Y-77022555D01*
X100069780Y-77020391D01*
X100089002Y-77023077D01*
X100105219Y-77029078D01*
X100127686Y-77044844D01*
X100158861Y-77073280D01*
X100201203Y-77117289D01*
X100257172Y-77179776D01*
X100329227Y-77263646D01*
X100419827Y-77371802D01*
X100531432Y-77507148D01*
X100666501Y-77672590D01*
X100827492Y-77871031D01*
X101016866Y-78105375D01*
X101237081Y-78378527D01*
X101243259Y-78386196D01*
X101378055Y-78554960D01*
X101500606Y-78711154D01*
X101607181Y-78849807D01*
X101694049Y-78965947D01*
X101757478Y-79054602D01*
X101793738Y-79110800D01*
X101800698Y-79129014D01*
X101775935Y-79154209D01*
X101717259Y-79207694D01*
X101630893Y-79284157D01*
X101523058Y-79378281D01*
X101399975Y-79484753D01*
X101267865Y-79598259D01*
X101132950Y-79713484D01*
X101001451Y-79825113D01*
X100879589Y-79927833D01*
X100773586Y-80016329D01*
X100689662Y-80085286D01*
X100634039Y-80129391D01*
X100613151Y-80143445D01*
X100613151Y-80449780D01*
X100628392Y-80476848D01*
X100625061Y-80511443D01*
X100597233Y-80546495D01*
X100572575Y-80578393D01*
X100569914Y-80607968D01*
X100593454Y-80649603D01*
X100647183Y-80717415D01*
X100699783Y-80785492D01*
X100734480Y-80837875D01*
X100742942Y-80858318D01*
X100722831Y-80888101D01*
X100675291Y-80932559D01*
X100665228Y-80940679D01*
X100588995Y-81000802D01*
X100167870Y-80432850D01*
X100054669Y-80279138D01*
X99952104Y-80137877D01*
X99864521Y-80015212D01*
X99796266Y-79917290D01*
X99751682Y-79850255D01*
X99735254Y-79820955D01*
X99739936Y-79773782D01*
X99752829Y-79759048D01*
X99780237Y-79714833D01*
X99770549Y-79650255D01*
X99726722Y-79580381D01*
X99715401Y-79568368D01*
X99668552Y-79525976D01*
X99631634Y-79517027D01*
X99579215Y-79537986D01*
X99561664Y-79546989D01*
X99430315Y-79626822D01*
X99351670Y-79703859D01*
X99325113Y-79779367D01*
X99350030Y-79854617D01*
X99390177Y-79900872D01*
X99446167Y-79940682D01*
X99464898Y-79940907D01*
X99464898Y-79856674D01*
X99438293Y-79844470D01*
X99409339Y-79787307D01*
X99433725Y-79727180D01*
X99501114Y-79670713D01*
X99594091Y-79621764D01*
X99657168Y-79615484D01*
X99692398Y-79651657D01*
X99687410Y-79702101D01*
X99648112Y-79758489D01*
X99588557Y-79810157D01*
X99522801Y-79846440D01*
X99464898Y-79856674D01*
X99464898Y-79940907D01*
X99499523Y-79941324D01*
X99517834Y-79935223D01*
X99539588Y-79929783D01*
X99562473Y-79933817D01*
X99590798Y-79952043D01*
X99628870Y-79989180D01*
X99681000Y-80049949D01*
X99751497Y-80139069D01*
X99844669Y-80261260D01*
X99964825Y-80421242D01*
X99979619Y-80441007D01*
X100117097Y-80624537D01*
X100225676Y-80769532D01*
X100308203Y-80880484D01*
X100367526Y-80961888D01*
X100406495Y-81018236D01*
X100427958Y-81054023D01*
X100434762Y-81073740D01*
X100429757Y-81081883D01*
X100415790Y-81082944D01*
X100395711Y-81081416D01*
X100385369Y-81081082D01*
X100331022Y-81066408D01*
X100278413Y-81016016D01*
X100244538Y-80967450D01*
X100200765Y-80903697D01*
X100133654Y-80811135D01*
X100052278Y-80701735D01*
X99965708Y-80587469D01*
X99883016Y-80480310D01*
X99813276Y-80392229D01*
X99765559Y-80335198D01*
X99764694Y-80334237D01*
X99733845Y-80311848D01*
X99699005Y-80325586D01*
X99673025Y-80347559D01*
X99637452Y-80376516D01*
X99610041Y-80379076D01*
X99575735Y-80350059D01*
X99531824Y-80298981D01*
X99474830Y-80240390D01*
X99425076Y-80204743D01*
X99407579Y-80199615D01*
X99350290Y-80216688D01*
X99305847Y-80254483D01*
X99293104Y-80296522D01*
X99293829Y-80299029D01*
X99285745Y-80314436D01*
X99244845Y-80324621D01*
X99164630Y-80330355D01*
X99038599Y-80332411D01*
X99012622Y-80332450D01*
X98720157Y-80332450D01*
X98696236Y-80249439D01*
X98690822Y-80234852D01*
X98681171Y-80219820D01*
X98664351Y-80202944D01*
X98637429Y-80182822D01*
X98597471Y-80158055D01*
X98541544Y-80127242D01*
X98466716Y-80088983D01*
X98370053Y-80041878D01*
X98248622Y-79984525D01*
X98099490Y-79915526D01*
X97919724Y-79833479D01*
X97706392Y-79736984D01*
X97456559Y-79624641D01*
X97167294Y-79495050D01*
X96835662Y-79346810D01*
X96458731Y-79178520D01*
X96372947Y-79140234D01*
X95982314Y-78965996D01*
X95637410Y-78812414D01*
X95335199Y-78678210D01*
X95072642Y-78562105D01*
X94846702Y-78462820D01*
X94654341Y-78379075D01*
X94492523Y-78309593D01*
X94358209Y-78253093D01*
X94248362Y-78208296D01*
X94159944Y-78173925D01*
X94089918Y-78148699D01*
X94035246Y-78131339D01*
X93992890Y-78120567D01*
X93959814Y-78115104D01*
X93934951Y-78113667D01*
X93803874Y-78122414D01*
X93712076Y-78148223D01*
X93664721Y-78189235D01*
X93659282Y-78212894D01*
X93672553Y-78264078D01*
X93714690Y-78320179D01*
X93789570Y-78383942D01*
X93901067Y-78458113D01*
X94053057Y-78545435D01*
X94249416Y-78648655D01*
X94336574Y-78692670D01*
X94452968Y-78750619D01*
X94605827Y-78826231D01*
X94790449Y-78917210D01*
X95002129Y-79021261D01*
X95236163Y-79136089D01*
X95487849Y-79259399D01*
X95752481Y-79388897D01*
X96025356Y-79522287D01*
X96301771Y-79657275D01*
X96577021Y-79791565D01*
X96846403Y-79922863D01*
X97105213Y-80048873D01*
X97348747Y-80167301D01*
X97572302Y-80275852D01*
X97771173Y-80372230D01*
X97940657Y-80454141D01*
X98076050Y-80519290D01*
X98172648Y-80565382D01*
X98224474Y-80589551D01*
X98305739Y-80629729D01*
X98348202Y-80663955D01*
X98360599Y-80695959D01*
X98360599Y-80551083D01*
X97005826Y-79889158D01*
X96719510Y-79749219D01*
X96419084Y-79602293D01*
X96113315Y-79452675D01*
X95810972Y-79304660D01*
X95520826Y-79162540D01*
X95251644Y-79030611D01*
X95012196Y-78913166D01*
X94811250Y-78814500D01*
X94795474Y-78806747D01*
X94522265Y-78671663D01*
X94295652Y-78557702D01*
X94113641Y-78463655D01*
X93974240Y-78388310D01*
X93875459Y-78330460D01*
X93815303Y-78288893D01*
X93791782Y-78262400D01*
X93802902Y-78249772D01*
X93846673Y-78249799D01*
X93887401Y-78255325D01*
X93961308Y-78275298D01*
X94059517Y-78312020D01*
X94100316Y-78330244D01*
X94100316Y-78246976D01*
X94086947Y-78233608D01*
X94100316Y-78220240D01*
X94113684Y-78233608D01*
X94100316Y-78246976D01*
X94100316Y-78330244D01*
X94148085Y-78351583D01*
X94167158Y-78360741D01*
X94167158Y-78273713D01*
X94145150Y-78263931D01*
X94149333Y-78255889D01*
X94181064Y-78252689D01*
X94184982Y-78255889D01*
X94181312Y-78271784D01*
X94167158Y-78273713D01*
X94167158Y-78360741D01*
X94234000Y-78392837D01*
X94234000Y-78300450D01*
X94220632Y-78287082D01*
X94234000Y-78273713D01*
X94247368Y-78287082D01*
X94234000Y-78300450D01*
X94234000Y-78392837D01*
X94255605Y-78403212D01*
X94385857Y-78464700D01*
X94512884Y-78523804D01*
X94528105Y-78530811D01*
X94625044Y-78575946D01*
X94756845Y-78638126D01*
X94910259Y-78711060D01*
X95072035Y-78788453D01*
X95183158Y-78841912D01*
X95345620Y-78919706D01*
X95511673Y-78998232D01*
X95667232Y-79070896D01*
X95798213Y-79131103D01*
X95864947Y-79161077D01*
X95980804Y-79213222D01*
X96088929Y-79263508D01*
X96172640Y-79304109D01*
X96199158Y-79317811D01*
X96257624Y-79347585D01*
X96352654Y-79394096D01*
X96472306Y-79451574D01*
X96604639Y-79514248D01*
X96640316Y-79530995D01*
X96778630Y-79595970D01*
X96911990Y-79658937D01*
X97026838Y-79713475D01*
X97109615Y-79753160D01*
X97121579Y-79758969D01*
X97198096Y-79795842D01*
X97308437Y-79848483D01*
X97438013Y-79909951D01*
X97572234Y-79973310D01*
X97576105Y-79975132D01*
X97737124Y-80051011D01*
X97919887Y-80137277D01*
X98098781Y-80221834D01*
X98213388Y-80276088D01*
X98465105Y-80395360D01*
X98465105Y-80297079D01*
X98435268Y-80283155D01*
X98361700Y-80248370D01*
X98248936Y-80194881D01*
X98101513Y-80124845D01*
X97923966Y-80040417D01*
X97720830Y-79943753D01*
X97496641Y-79837011D01*
X97255934Y-79722347D01*
X97121579Y-79658321D01*
X96842245Y-79525315D01*
X96551328Y-79387021D01*
X96257392Y-79247497D01*
X95969001Y-79110800D01*
X95694722Y-78980986D01*
X95443118Y-78862112D01*
X95222754Y-78758235D01*
X95044428Y-78674458D01*
X94857607Y-78586524D01*
X94687762Y-78505842D01*
X94540579Y-78435171D01*
X94421740Y-78377270D01*
X94336931Y-78334897D01*
X94291836Y-78310812D01*
X94286007Y-78306373D01*
X94311227Y-78315528D01*
X94381357Y-78344767D01*
X94492477Y-78392375D01*
X94640667Y-78456638D01*
X94822009Y-78535840D01*
X95032583Y-78628265D01*
X95268471Y-78732200D01*
X95525753Y-78845927D01*
X95800510Y-78967733D01*
X96015579Y-79063308D01*
X96418267Y-79242439D01*
X96774906Y-79401136D01*
X97088289Y-79540728D01*
X97361212Y-79662544D01*
X97596467Y-79767916D01*
X97796850Y-79858172D01*
X97965156Y-79934643D01*
X98104177Y-79998658D01*
X98216709Y-80051547D01*
X98305545Y-80094641D01*
X98373481Y-80129268D01*
X98423311Y-80156760D01*
X98457828Y-80178445D01*
X98479827Y-80195653D01*
X98492103Y-80209715D01*
X98497450Y-80221960D01*
X98498662Y-80233718D01*
X98498526Y-80244973D01*
X98488117Y-80293119D01*
X98465105Y-80297079D01*
X98465105Y-80395360D01*
X98529830Y-80426029D01*
X98445214Y-80488556D01*
X98360599Y-80551083D01*
X98360599Y-80695959D01*
X98363608Y-80703728D01*
X98364842Y-80726997D01*
X98364842Y-80801376D01*
X97011124Y-81048398D01*
X96746939Y-81097000D01*
X96497091Y-81143722D01*
X96266836Y-81187529D01*
X96061432Y-81227386D01*
X95886137Y-81262257D01*
X95746208Y-81291105D01*
X95646903Y-81312896D01*
X95593478Y-81326593D01*
X95587387Y-81328870D01*
X95529864Y-81375691D01*
X95508865Y-81433849D01*
X95527652Y-81486942D01*
X95552169Y-81506032D01*
X95565782Y-81512092D01*
X95584326Y-81516797D01*
X95611754Y-81519943D01*
X95645557Y-81521106D01*
X95645557Y-81439197D01*
X95604923Y-81437865D01*
X95603287Y-81437295D01*
X95592162Y-81422990D01*
X95607549Y-81407475D01*
X95654049Y-81389484D01*
X95736260Y-81367755D01*
X95858784Y-81341024D01*
X96026219Y-81308025D01*
X96176188Y-81279856D01*
X96354308Y-81247064D01*
X96531442Y-81214853D01*
X96694375Y-81185596D01*
X96829889Y-81161668D01*
X96917671Y-81146622D01*
X97025930Y-81127881D01*
X97117159Y-81110804D01*
X97175869Y-81098332D01*
X97185039Y-81095862D01*
X97223339Y-81087463D01*
X97303991Y-81071999D01*
X97417325Y-81051162D01*
X97553673Y-81026645D01*
X97703365Y-81000139D01*
X97856731Y-80973336D01*
X98004102Y-80947927D01*
X98135810Y-80925606D01*
X98242184Y-80908062D01*
X98313554Y-80896989D01*
X98339191Y-80893924D01*
X98351833Y-80918395D01*
X98360994Y-80982795D01*
X98364822Y-81073604D01*
X98364842Y-81081082D01*
X98363637Y-81179073D01*
X98357539Y-81235259D01*
X98342821Y-81261295D01*
X98315756Y-81268835D01*
X98304684Y-81269233D01*
X98255504Y-81271512D01*
X98165649Y-81276991D01*
X98047766Y-81284859D01*
X97914503Y-81294300D01*
X97910316Y-81294605D01*
X97524762Y-81322431D01*
X97165903Y-81347737D01*
X96836645Y-81370342D01*
X96539896Y-81390067D01*
X96278565Y-81406733D01*
X96055557Y-81420158D01*
X95873782Y-81430164D01*
X95736146Y-81436570D01*
X95645557Y-81439197D01*
X95645557Y-81521106D01*
X95652016Y-81521329D01*
X95709063Y-81520752D01*
X95786849Y-81518010D01*
X95889323Y-81512900D01*
X96020438Y-81505220D01*
X96184144Y-81494768D01*
X96384394Y-81481342D01*
X96625139Y-81464738D01*
X96910330Y-81444756D01*
X97243919Y-81421191D01*
X97335227Y-81414725D01*
X97555185Y-81399239D01*
X97759511Y-81385037D01*
X97941753Y-81372553D01*
X98095454Y-81362223D01*
X98214161Y-81354481D01*
X98291419Y-81349761D01*
X98319582Y-81348450D01*
X98354677Y-81361485D01*
X98361134Y-81409091D01*
X98359934Y-81421181D01*
X98359517Y-81432787D01*
X98359609Y-81442818D01*
X98357704Y-81452921D01*
X98351296Y-81464741D01*
X98337880Y-81479927D01*
X98314950Y-81500122D01*
X98280003Y-81526976D01*
X98230531Y-81562132D01*
X98164030Y-81607239D01*
X98077995Y-81663943D01*
X97969920Y-81733889D01*
X97837300Y-81818725D01*
X97677630Y-81920096D01*
X97488403Y-82039650D01*
X97267116Y-82179032D01*
X97011263Y-82339889D01*
X96718337Y-82523868D01*
X96385835Y-82732614D01*
X96011250Y-82967775D01*
X95905053Y-83034454D01*
X95517053Y-83278196D01*
X95171919Y-83495301D01*
X94867133Y-83687414D01*
X94600177Y-83856176D01*
X94368533Y-84003232D01*
X94169683Y-84130224D01*
X94001110Y-84238796D01*
X93860295Y-84330592D01*
X93744720Y-84407253D01*
X93651868Y-84470425D01*
X93579221Y-84521749D01*
X93524260Y-84562869D01*
X93484468Y-84595429D01*
X93457327Y-84621072D01*
X93440319Y-84641441D01*
X93438406Y-84644265D01*
X93400905Y-84724311D01*
X93393188Y-84795394D01*
X93409614Y-84833152D01*
X93439843Y-84848211D01*
X93488549Y-84846834D01*
X93522638Y-84837535D01*
X93522638Y-84744029D01*
X93509394Y-84742835D01*
X93507496Y-84736877D01*
X93522057Y-84722598D01*
X93558191Y-84696435D01*
X93621011Y-84654829D01*
X93715631Y-84594219D01*
X93847164Y-84511046D01*
X93953263Y-84444215D01*
X94035257Y-84393044D01*
X94158397Y-84316819D01*
X94318168Y-84218309D01*
X94510053Y-84100286D01*
X94729537Y-83965520D01*
X94972103Y-83816784D01*
X95233234Y-83656848D01*
X95508415Y-83488483D01*
X95651053Y-83401301D01*
X95651053Y-83300240D01*
X95637684Y-83286871D01*
X95651053Y-83273503D01*
X95664421Y-83286871D01*
X95651053Y-83300240D01*
X95651053Y-83401301D01*
X95731263Y-83352275D01*
X95731263Y-83246766D01*
X95717895Y-83233398D01*
X95731263Y-83220029D01*
X95744632Y-83233398D01*
X95731263Y-83246766D01*
X95731263Y-83352275D01*
X95773109Y-83326698D01*
X95773109Y-83213474D01*
X95771368Y-83209817D01*
X95790191Y-83185417D01*
X95798105Y-83179924D01*
X95823101Y-83173111D01*
X95824842Y-83176768D01*
X95806020Y-83201168D01*
X95798105Y-83206661D01*
X95773109Y-83213474D01*
X95773109Y-83326698D01*
X95793130Y-83314460D01*
X95864947Y-83270608D01*
X95864947Y-83166555D01*
X95851579Y-83153187D01*
X95864947Y-83139819D01*
X95878316Y-83153187D01*
X95864947Y-83166555D01*
X95864947Y-83270608D01*
X95945158Y-83221630D01*
X95945158Y-83113082D01*
X95931789Y-83099713D01*
X95945158Y-83086345D01*
X95958526Y-83099713D01*
X95945158Y-83113082D01*
X95945158Y-83221630D01*
X95987004Y-83196079D01*
X95987004Y-83079790D01*
X95985263Y-83076132D01*
X96004085Y-83051733D01*
X96012000Y-83046240D01*
X96036996Y-83039427D01*
X96038737Y-83043084D01*
X96019915Y-83067483D01*
X96012000Y-83072976D01*
X95987004Y-83079790D01*
X95987004Y-83196079D01*
X96065474Y-83148163D01*
X96078842Y-83140008D01*
X96078842Y-83032871D01*
X96065474Y-83019503D01*
X96078842Y-83006134D01*
X96092210Y-83019503D01*
X96078842Y-83032871D01*
X96078842Y-83140008D01*
X96120688Y-83114478D01*
X96120688Y-82999579D01*
X96118947Y-82995922D01*
X96137770Y-82971522D01*
X96145684Y-82966029D01*
X96170680Y-82959216D01*
X96172421Y-82962873D01*
X96153599Y-82987273D01*
X96145684Y-82992766D01*
X96120688Y-82999579D01*
X96120688Y-83114478D01*
X96211293Y-83059200D01*
X96211293Y-82943135D01*
X96199158Y-82941174D01*
X96219653Y-82919700D01*
X96252632Y-82899187D01*
X96293970Y-82881976D01*
X96306105Y-82883937D01*
X96285610Y-82905411D01*
X96252632Y-82925924D01*
X96211293Y-82943135D01*
X96211293Y-83059200D01*
X96334583Y-82983981D01*
X96334583Y-82865895D01*
X96332842Y-82862238D01*
X96351664Y-82837838D01*
X96359579Y-82832345D01*
X96384575Y-82825532D01*
X96386316Y-82829189D01*
X96367494Y-82853589D01*
X96359579Y-82859082D01*
X96334583Y-82865895D01*
X96334583Y-82983981D01*
X96425188Y-82928703D01*
X96425188Y-82809451D01*
X96413053Y-82807489D01*
X96433548Y-82786016D01*
X96466526Y-82765503D01*
X96507865Y-82748292D01*
X96520000Y-82750253D01*
X96499504Y-82771726D01*
X96466526Y-82792240D01*
X96425188Y-82809451D01*
X96425188Y-82928703D01*
X96481165Y-82894551D01*
X96561844Y-82845376D01*
X96561844Y-82727878D01*
X96558368Y-82721609D01*
X96560105Y-82719649D01*
X96588735Y-82698689D01*
X96656991Y-82653195D01*
X96759094Y-82586883D01*
X96889269Y-82503467D01*
X97041736Y-82406662D01*
X97210719Y-82300183D01*
X97282000Y-82255491D01*
X97557478Y-82083176D01*
X97791041Y-81937475D01*
X97985965Y-81816417D01*
X98145525Y-81718031D01*
X98273000Y-81640345D01*
X98371665Y-81581388D01*
X98444795Y-81539190D01*
X98495669Y-81511778D01*
X98527561Y-81497181D01*
X98543749Y-81493429D01*
X98546637Y-81494596D01*
X98550158Y-81518118D01*
X98549772Y-81518468D01*
X98526020Y-81533387D01*
X98462107Y-81572746D01*
X98363549Y-81633178D01*
X98235860Y-81711318D01*
X98084556Y-81803800D01*
X97915153Y-81907259D01*
X97733167Y-82018330D01*
X97544112Y-82133646D01*
X97353504Y-82249843D01*
X97166858Y-82363554D01*
X96989691Y-82471415D01*
X96827517Y-82570060D01*
X96685853Y-82656124D01*
X96600210Y-82708070D01*
X96561844Y-82727878D01*
X96561844Y-82845376D01*
X96853116Y-82667839D01*
X97183159Y-82466946D01*
X97473122Y-82290793D01*
X97724836Y-82138300D01*
X97940132Y-82008386D01*
X98120839Y-81899972D01*
X98268787Y-81811979D01*
X98385807Y-81743325D01*
X98473729Y-81692930D01*
X98534382Y-81659716D01*
X98569597Y-81642602D01*
X98581205Y-81640508D01*
X98571035Y-81652353D01*
X98540917Y-81677059D01*
X98492682Y-81713545D01*
X98477057Y-81725079D01*
X98413615Y-81775334D01*
X98372933Y-81814474D01*
X98364842Y-81828015D01*
X98379353Y-81859626D01*
X98416501Y-81918305D01*
X98446510Y-81961167D01*
X98528179Y-82073907D01*
X98573592Y-82047113D01*
X98573592Y-81942985D01*
X98542619Y-81936240D01*
X98519314Y-81917908D01*
X98482380Y-81877002D01*
X98471789Y-81854814D01*
X98491848Y-81829855D01*
X98544026Y-81785095D01*
X98605474Y-81738687D01*
X98672316Y-81679185D01*
X98672316Y-81535608D01*
X98658947Y-81522240D01*
X98672316Y-81508871D01*
X98685684Y-81522240D01*
X98672316Y-81535608D01*
X98672316Y-81679185D01*
X98698363Y-81655997D01*
X98739353Y-81575975D01*
X98729492Y-81493803D01*
X98676534Y-81412312D01*
X98632366Y-81365665D01*
X98600266Y-81355882D01*
X98558780Y-81378166D01*
X98550270Y-81384084D01*
X98497624Y-81416402D01*
X98465840Y-81428661D01*
X98458682Y-81403448D01*
X98452590Y-81333903D01*
X98448025Y-81229163D01*
X98445452Y-81098365D01*
X98445053Y-81018425D01*
X98445053Y-80608189D01*
X98576849Y-80497057D01*
X98591581Y-80485388D01*
X98591581Y-80299404D01*
X98560715Y-80272425D01*
X98552000Y-80247388D01*
X98567276Y-80236610D01*
X98592751Y-80252776D01*
X98620780Y-80285470D01*
X98621267Y-80298832D01*
X98591581Y-80299404D01*
X98591581Y-80485388D01*
X98641503Y-80445842D01*
X98700162Y-80411507D01*
X98764525Y-80392016D01*
X98846290Y-80385337D01*
X98957154Y-80389437D01*
X99108816Y-80402282D01*
X99117420Y-80403093D01*
X99295156Y-80419882D01*
X99314217Y-80737113D01*
X99320545Y-80905697D01*
X99321882Y-81097901D01*
X99318240Y-81284104D01*
X99314000Y-81375187D01*
X99294723Y-81696029D01*
X99125466Y-81696029D01*
X99035002Y-81692101D01*
X98967467Y-81681865D01*
X98939684Y-81669292D01*
X98901541Y-81641785D01*
X98860618Y-81658085D01*
X98831348Y-81711370D01*
X98828954Y-81721628D01*
X98796180Y-81790899D01*
X98721603Y-81859200D01*
X98689989Y-81880809D01*
X98617600Y-81925620D01*
X98573592Y-81942985D01*
X98573592Y-82047113D01*
X98615924Y-82022136D01*
X98695496Y-81973951D01*
X98768448Y-81927914D01*
X98771659Y-81925816D01*
X98821167Y-81898101D01*
X98845465Y-81902802D01*
X98854607Y-81920250D01*
X98845836Y-81939929D01*
X98806531Y-81972363D01*
X98733294Y-82019590D01*
X98622729Y-82083648D01*
X98471439Y-82166576D01*
X98276026Y-82270412D01*
X98236204Y-82291323D01*
X98112458Y-82356207D01*
X97946373Y-82443290D01*
X97742970Y-82549941D01*
X97507267Y-82673527D01*
X97244285Y-82811417D01*
X96959044Y-82960979D01*
X96656563Y-83119579D01*
X96341862Y-83284587D01*
X96019960Y-83453371D01*
X95695879Y-83623297D01*
X95580640Y-83683721D01*
X95274850Y-83843842D01*
X94982284Y-83996620D01*
X94706448Y-84140248D01*
X94450851Y-84272921D01*
X94218998Y-84392830D01*
X94014399Y-84498168D01*
X93840560Y-84587128D01*
X93700989Y-84657904D01*
X93599193Y-84708688D01*
X93538680Y-84737672D01*
X93522638Y-84744029D01*
X93522638Y-84837535D01*
X93560716Y-84827146D01*
X93661333Y-84787272D01*
X93795384Y-84725339D01*
X93967857Y-84639474D01*
X94084535Y-84579484D01*
X94188312Y-84525524D01*
X94335389Y-84448799D01*
X94521735Y-84351423D01*
X94743316Y-84235511D01*
X94996101Y-84103176D01*
X95276056Y-83956533D01*
X95579150Y-83797697D01*
X95901350Y-83628782D01*
X96238622Y-83451902D01*
X96586936Y-83269172D01*
X96942258Y-83082705D01*
X97300556Y-82894617D01*
X97657797Y-82707022D01*
X98009950Y-82522034D01*
X98352980Y-82341767D01*
X98625956Y-82198258D01*
X98776332Y-82117534D01*
X98884938Y-82053986D01*
X98958346Y-82001933D01*
X99003127Y-81955693D01*
X99025852Y-81909584D01*
X99033094Y-81857925D01*
X99033263Y-81846115D01*
X99036819Y-81809187D01*
X99055678Y-81788116D01*
X99102126Y-81777368D01*
X99188451Y-81771407D01*
X99200368Y-81770831D01*
X99367474Y-81762871D01*
X99394210Y-81442029D01*
X99599506Y-81425656D01*
X99599506Y-81332337D01*
X99491826Y-81329597D01*
X99414263Y-81324521D01*
X99398097Y-81306581D01*
X99387617Y-81252026D01*
X99382122Y-81154901D01*
X99380842Y-81040986D01*
X99380842Y-80760258D01*
X99393876Y-80760967D01*
X99393876Y-80561505D01*
X99382640Y-80539324D01*
X99380842Y-80491689D01*
X99382808Y-80435611D01*
X99387618Y-80414205D01*
X99388408Y-80414889D01*
X99409016Y-80442980D01*
X99428843Y-80469271D01*
X99447144Y-80511243D01*
X99421277Y-80546071D01*
X99393876Y-80561505D01*
X99393876Y-80760967D01*
X99593983Y-80771866D01*
X99760423Y-80782443D01*
X99881955Y-80794706D01*
X99967147Y-80810780D01*
X99974319Y-80813529D01*
X99974319Y-80736210D01*
X99764475Y-80719341D01*
X99630909Y-80707237D01*
X99544511Y-80695827D01*
X99499005Y-80684060D01*
X99487789Y-80672994D01*
X99507281Y-80653598D01*
X99550365Y-80618070D01*
X99550365Y-80465945D01*
X99527423Y-80455352D01*
X99484552Y-80413349D01*
X99461053Y-80385924D01*
X99410055Y-80317728D01*
X99395791Y-80286702D01*
X99415842Y-80295264D01*
X99467791Y-80345832D01*
X99483676Y-80363300D01*
X99528806Y-80419403D01*
X99550690Y-80458038D01*
X99550365Y-80465945D01*
X99550365Y-80618070D01*
X99558080Y-80611707D01*
X99620534Y-80563048D01*
X99692883Y-80512265D01*
X99749188Y-80480766D01*
X99774843Y-80475144D01*
X99801258Y-80502784D01*
X99846782Y-80560110D01*
X99885363Y-80612341D01*
X99974319Y-80736210D01*
X99974319Y-80813529D01*
X100024563Y-80832793D01*
X100062769Y-80862869D01*
X100085011Y-80893747D01*
X100125592Y-81003800D01*
X100126408Y-81116562D01*
X100088776Y-81215232D01*
X100056873Y-81253184D01*
X99995571Y-81298448D01*
X99932189Y-81309750D01*
X99883083Y-81304323D01*
X99818816Y-81299677D01*
X99783961Y-81308116D01*
X99781895Y-81312725D01*
X99757357Y-81323489D01*
X99692289Y-81330163D01*
X99599506Y-81332337D01*
X99599506Y-81425656D01*
X99634842Y-81422837D01*
X99750398Y-81414593D01*
X99825133Y-81413258D01*
X99871434Y-81420408D01*
X99901685Y-81437620D01*
X99922429Y-81459425D01*
X99946333Y-81492185D01*
X99947732Y-81519980D01*
X99920861Y-81555522D01*
X99859952Y-81611522D01*
X99849090Y-81621093D01*
X99781142Y-81685589D01*
X99750289Y-81730018D01*
X99749878Y-81765064D01*
X99753910Y-81773909D01*
X99757669Y-81797508D01*
X99742516Y-81829117D01*
X99703260Y-81874336D01*
X99634711Y-81938764D01*
X99531679Y-82028000D01*
X99470853Y-82079275D01*
X99360127Y-82169856D01*
X99261180Y-82246570D01*
X99182283Y-82303322D01*
X99131703Y-82334019D01*
X99120130Y-82337713D01*
X99068061Y-82354680D01*
X99028223Y-82382379D01*
X98993536Y-82407978D01*
X98962745Y-82404734D01*
X98917799Y-82368386D01*
X98900858Y-82352307D01*
X98844428Y-82308119D01*
X98789342Y-82292908D01*
X98725551Y-82308952D01*
X98643005Y-82358533D01*
X98545316Y-82432958D01*
X98449933Y-82518695D01*
X98400511Y-82591852D01*
X98394533Y-82662421D01*
X98429483Y-82740391D01*
X98457786Y-82780415D01*
X98497156Y-82837966D01*
X98502972Y-82868656D01*
X98484523Y-82882363D01*
X98452936Y-82919446D01*
X98447487Y-82982792D01*
X98468542Y-83051807D01*
X98481149Y-83072015D01*
X98521748Y-83105288D01*
X98584657Y-83109704D01*
X98612159Y-83105977D01*
X98687305Y-83102866D01*
X98742085Y-83130352D01*
X98767882Y-83155302D01*
X98825659Y-83200584D01*
X98880678Y-83220016D01*
X98881757Y-83220029D01*
X98885404Y-83218829D01*
X98885404Y-83139819D01*
X98852499Y-83119711D01*
X98797249Y-83066327D01*
X98728151Y-82990070D01*
X98653701Y-82901346D01*
X98582396Y-82810561D01*
X98522734Y-82728120D01*
X98483211Y-82664428D01*
X98471789Y-82633306D01*
X98491991Y-82592675D01*
X98545145Y-82534262D01*
X98614628Y-82474649D01*
X98691060Y-82418749D01*
X98752872Y-82379093D01*
X98786042Y-82364450D01*
X98813886Y-82383568D01*
X98866481Y-82434303D01*
X98934913Y-82506729D01*
X99010266Y-82590919D01*
X99083624Y-82676945D01*
X99105122Y-82703774D01*
X99105122Y-82589465D01*
X99068203Y-82574058D01*
X99047166Y-82544384D01*
X99065168Y-82507795D01*
X99077591Y-82493469D01*
X99115108Y-82459688D01*
X99144632Y-82466444D01*
X99165160Y-82485568D01*
X99191869Y-82521337D01*
X99176652Y-82549695D01*
X99155773Y-82566158D01*
X99105122Y-82589465D01*
X99105122Y-82703774D01*
X99146072Y-82754880D01*
X99184206Y-82807793D01*
X99208360Y-82862916D01*
X99207023Y-82899234D01*
X99171884Y-82937662D01*
X99109934Y-82990943D01*
X99035529Y-83048336D01*
X98963027Y-83099103D01*
X98906784Y-83132503D01*
X98885404Y-83139819D01*
X98885404Y-83218829D01*
X98933431Y-83203017D01*
X99009265Y-83158859D01*
X99095264Y-83097869D01*
X99177430Y-83030365D01*
X99241766Y-82966661D01*
X99263276Y-82938848D01*
X99288378Y-82893001D01*
X99288439Y-82853384D01*
X99261564Y-82797523D01*
X99249611Y-82777024D01*
X99192897Y-82680901D01*
X99224290Y-82643108D01*
X99224290Y-82443771D01*
X99228487Y-82428838D01*
X99262688Y-82392244D01*
X99330093Y-82330828D01*
X99433896Y-82241428D01*
X99528846Y-82161412D01*
X99636888Y-82072394D01*
X99730198Y-81998415D01*
X99801392Y-81945104D01*
X99843083Y-81918089D01*
X99850586Y-81916229D01*
X99835809Y-81936447D01*
X99788260Y-81983309D01*
X99716429Y-82049446D01*
X99628804Y-82127489D01*
X99533876Y-82210070D01*
X99440134Y-82289820D01*
X99356069Y-82359370D01*
X99290169Y-82411352D01*
X99250925Y-82438396D01*
X99246902Y-82440205D01*
X99224290Y-82443771D01*
X99224290Y-82643108D01*
X99281052Y-82574774D01*
X99335051Y-82517046D01*
X99419286Y-82435528D01*
X99522781Y-82340507D01*
X99634561Y-82242267D01*
X99649077Y-82229841D01*
X99760642Y-82135016D01*
X99838867Y-82070827D01*
X99891086Y-82033192D01*
X99916734Y-82021598D01*
X99916734Y-81870533D01*
X99891793Y-81833883D01*
X99914348Y-81782048D01*
X99983644Y-81714067D01*
X100056923Y-81665598D01*
X100106574Y-81659479D01*
X100128691Y-81695830D01*
X100129474Y-81709615D01*
X100109759Y-81748612D01*
X100061709Y-81796560D01*
X100001969Y-81840869D01*
X99947182Y-81868950D01*
X99916734Y-81870533D01*
X99916734Y-82021598D01*
X99924630Y-82018028D01*
X99946829Y-82021254D01*
X99965017Y-82038786D01*
X99973178Y-82049375D01*
X100013245Y-82102223D01*
X100013245Y-81964790D01*
X100012933Y-81964499D01*
X100012676Y-81931946D01*
X100057531Y-81877553D01*
X100097636Y-81841245D01*
X100159380Y-81785379D01*
X100200018Y-81742825D01*
X100209551Y-81727367D01*
X100194258Y-81696524D01*
X100156787Y-81643794D01*
X100148441Y-81633196D01*
X100087463Y-81556995D01*
X99972254Y-81653249D01*
X99893514Y-81715714D01*
X99849900Y-81744016D01*
X99843631Y-81739041D01*
X99876928Y-81701675D01*
X99942316Y-81641297D01*
X100062632Y-81535372D01*
X100017086Y-81455279D01*
X99990597Y-81399103D01*
X99996455Y-81376595D01*
X100005741Y-81375187D01*
X100054666Y-81352607D01*
X100112590Y-81293478D01*
X100168203Y-81210717D01*
X100193050Y-81161292D01*
X100234590Y-81067713D01*
X100218961Y-81169046D01*
X100216247Y-81254306D01*
X100243537Y-81314323D01*
X100250757Y-81322783D01*
X100319053Y-81367521D01*
X100363360Y-81370398D01*
X100363360Y-81287699D01*
X100330243Y-81268441D01*
X100298793Y-81220762D01*
X100315849Y-81181088D01*
X100352349Y-81166000D01*
X100396060Y-81178380D01*
X100418136Y-81219719D01*
X100407961Y-81266650D01*
X100401525Y-81274251D01*
X100363360Y-81287699D01*
X100363360Y-81370398D01*
X100393464Y-81372353D01*
X100458378Y-81342218D01*
X100498182Y-81282055D01*
X100503789Y-81242728D01*
X100512698Y-81193355D01*
X100545160Y-81143395D01*
X100609777Y-81081629D01*
X100657526Y-81042257D01*
X100811263Y-80918890D01*
X100924194Y-81045247D01*
X100981485Y-81111024D01*
X101020007Y-81158498D01*
X101031142Y-81176562D01*
X100793937Y-81372600D01*
X100594561Y-81536259D01*
X100430097Y-81669797D01*
X100297631Y-81775469D01*
X100194248Y-81855531D01*
X100117033Y-81912238D01*
X100063071Y-81947847D01*
X100029446Y-81964612D01*
X100013245Y-81964790D01*
X100013245Y-82102223D01*
X100017409Y-82107716D01*
X100146968Y-82002437D01*
X100209517Y-81951307D01*
X100303927Y-81873748D01*
X100420875Y-81777439D01*
X100551037Y-81670058D01*
X100673519Y-81568849D01*
X101070511Y-81240539D01*
X101171889Y-81354653D01*
X101230184Y-81418064D01*
X101266612Y-81446558D01*
X101278867Y-81446236D01*
X101278867Y-81341972D01*
X101276265Y-81341624D01*
X101249099Y-81317426D01*
X101196213Y-81260032D01*
X101124426Y-81177719D01*
X101040555Y-81078764D01*
X100951419Y-80971444D01*
X100863834Y-80864034D01*
X100784620Y-80764812D01*
X100720593Y-80682055D01*
X100678573Y-80624038D01*
X100665204Y-80599819D01*
X100682567Y-80574284D01*
X100704316Y-80551450D01*
X100704316Y-80439398D01*
X100690947Y-80426029D01*
X100704316Y-80412661D01*
X100717684Y-80426029D01*
X100704316Y-80439398D01*
X100704316Y-80551450D01*
X100725072Y-80529658D01*
X100731164Y-80523824D01*
X100748073Y-80507787D01*
X100748073Y-80298871D01*
X100708192Y-80282099D01*
X100703359Y-80278183D01*
X100689573Y-80268453D01*
X100679020Y-80260271D01*
X100675474Y-80249927D01*
X100682712Y-80233714D01*
X100704506Y-80207924D01*
X100744633Y-80168849D01*
X100806866Y-80112780D01*
X100894981Y-80036010D01*
X101012751Y-79934831D01*
X101163953Y-79805534D01*
X101322552Y-79669921D01*
X101501395Y-79518016D01*
X101643839Y-79399705D01*
X101753035Y-79312587D01*
X101832131Y-79254265D01*
X101884278Y-79222339D01*
X101912624Y-79214411D01*
X101917447Y-79216803D01*
X101944284Y-79253115D01*
X101947579Y-79264266D01*
X101927974Y-79285220D01*
X101872199Y-79336844D01*
X101784811Y-79415159D01*
X101670366Y-79516183D01*
X101533422Y-79635937D01*
X101378537Y-79770440D01*
X101210269Y-79915712D01*
X101033173Y-80067773D01*
X100851808Y-80222643D01*
X100791712Y-80273761D01*
X100748073Y-80298871D01*
X100748073Y-80507787D01*
X100797193Y-80461197D01*
X100861076Y-80537192D01*
X100900984Y-80584774D01*
X100967129Y-80663753D01*
X101051450Y-80764500D01*
X101145885Y-80877387D01*
X101182075Y-80920661D01*
X101439192Y-81228134D01*
X101365859Y-81288151D01*
X101313100Y-81326302D01*
X101278867Y-81341972D01*
X101278867Y-81446236D01*
X101294088Y-81445836D01*
X101324881Y-81422182D01*
X101360448Y-81395138D01*
X101390040Y-81397363D01*
X101431582Y-81433310D01*
X101451211Y-81453586D01*
X101452947Y-81455046D01*
X101452947Y-81348450D01*
X101439579Y-81335082D01*
X101452947Y-81321713D01*
X101466316Y-81335082D01*
X101452947Y-81348450D01*
X101452947Y-81455046D01*
X101506153Y-81499816D01*
X101522450Y-81506853D01*
X101522450Y-81214766D01*
X101500156Y-81195263D01*
X101450548Y-81141806D01*
X101379994Y-81061976D01*
X101294860Y-80963351D01*
X101201514Y-80853512D01*
X101106324Y-80740037D01*
X101015658Y-80630506D01*
X100935882Y-80532499D01*
X100873364Y-80453595D01*
X100834472Y-80401374D01*
X100824632Y-80384121D01*
X100844099Y-80362931D01*
X100898982Y-80311754D01*
X100983998Y-80235292D01*
X101093867Y-80138247D01*
X101223308Y-80025322D01*
X101366089Y-79902035D01*
X101543071Y-79749831D01*
X101683739Y-79628926D01*
X101792541Y-79536011D01*
X101873928Y-79467777D01*
X101932349Y-79420916D01*
X101972255Y-79392117D01*
X101998094Y-79378073D01*
X102014317Y-79375475D01*
X102025373Y-79381013D01*
X102035712Y-79391379D01*
X102043311Y-79398447D01*
X102073070Y-79429826D01*
X102130047Y-79495675D01*
X102208097Y-79588676D01*
X102301072Y-79701511D01*
X102397030Y-79819669D01*
X102708492Y-80205820D01*
X102602088Y-80298778D01*
X102390329Y-80483266D01*
X102193617Y-80653646D01*
X102015435Y-80806961D01*
X101859268Y-80940257D01*
X101728600Y-81050576D01*
X101626916Y-81134963D01*
X101557699Y-81190461D01*
X101524434Y-81214116D01*
X101522450Y-81214766D01*
X101522450Y-81506853D01*
X101551435Y-81519370D01*
X101560421Y-81518338D01*
X101568810Y-81515433D01*
X101578063Y-81515667D01*
X101590924Y-81522248D01*
X101610136Y-81538386D01*
X101624669Y-81553226D01*
X101624669Y-81371898D01*
X101607888Y-81370639D01*
X101576236Y-81330139D01*
X101592106Y-81291386D01*
X101623882Y-81264817D01*
X101656989Y-81238068D01*
X101724676Y-81181243D01*
X101821125Y-81099301D01*
X101940521Y-80997203D01*
X102077045Y-80879908D01*
X102224882Y-80752377D01*
X102227634Y-80749999D01*
X102393951Y-80606802D01*
X102524854Y-80495723D01*
X102624904Y-80413367D01*
X102698663Y-80356338D01*
X102750694Y-80321241D01*
X102785559Y-80304680D01*
X102807821Y-80303260D01*
X102818862Y-80309959D01*
X102825425Y-80324720D01*
X102818214Y-80347152D01*
X102793425Y-80381023D01*
X102747254Y-80430102D01*
X102675898Y-80498156D01*
X102575552Y-80588953D01*
X102442412Y-80706262D01*
X102272674Y-80853851D01*
X102249735Y-80873715D01*
X102066783Y-81031163D01*
X101919934Y-81155288D01*
X101805744Y-81248757D01*
X101720766Y-81314236D01*
X101661556Y-81354394D01*
X101624669Y-81371898D01*
X101624669Y-81553226D01*
X101638443Y-81567291D01*
X101678586Y-81612172D01*
X101733311Y-81676238D01*
X101805358Y-81762700D01*
X101897473Y-81874766D01*
X102012398Y-82015647D01*
X102152875Y-82188551D01*
X102321649Y-82396688D01*
X102513483Y-82633420D01*
X102662506Y-82816751D01*
X102803931Y-82989635D01*
X102933566Y-83147029D01*
X103047218Y-83283888D01*
X103140695Y-83395168D01*
X103209804Y-83475824D01*
X103250351Y-83520811D01*
X103254408Y-83524841D01*
X103335850Y-83602391D01*
X103405626Y-83575744D01*
X103405626Y-83487398D01*
X103393219Y-83465406D01*
X103391368Y-83444175D01*
X103376181Y-83413482D01*
X103325202Y-83413602D01*
X103303165Y-83413588D01*
X103276828Y-83402634D01*
X103242223Y-83376531D01*
X103195385Y-83331072D01*
X103132348Y-83262049D01*
X103049146Y-83165253D01*
X102941815Y-83036477D01*
X102806387Y-82871512D01*
X102754887Y-82808456D01*
X102526244Y-82527576D01*
X102323099Y-82276585D01*
X102146669Y-82057026D01*
X101998172Y-81870438D01*
X101878823Y-81718364D01*
X101789840Y-81602343D01*
X101732439Y-81523917D01*
X101707838Y-81484627D01*
X101706947Y-81481306D01*
X101726390Y-81458742D01*
X101781238Y-81406129D01*
X101866271Y-81328190D01*
X101976268Y-81229646D01*
X102106007Y-81115217D01*
X102250269Y-80989627D01*
X102258126Y-80982831D01*
X102405553Y-80855568D01*
X102541493Y-80738628D01*
X102660176Y-80636940D01*
X102755837Y-80555433D01*
X102822706Y-80499037D01*
X102855018Y-80472681D01*
X102855183Y-80472559D01*
X102879386Y-80461959D01*
X102907369Y-80470510D01*
X102946342Y-80504314D01*
X103003511Y-80569473D01*
X103076282Y-80659717D01*
X103180031Y-80788106D01*
X103258005Y-80878108D01*
X103315599Y-80934786D01*
X103358207Y-80963201D01*
X103391224Y-80968418D01*
X103402099Y-80965478D01*
X103440352Y-80978704D01*
X103506751Y-81037032D01*
X103601402Y-81140556D01*
X103631059Y-81175371D01*
X103714489Y-81276282D01*
X103767003Y-81345976D01*
X103775846Y-81361678D01*
X103775846Y-81197833D01*
X103734095Y-81167819D01*
X103712210Y-81147924D01*
X103651082Y-81081328D01*
X103633094Y-81040651D01*
X103656796Y-81027608D01*
X103689873Y-81047644D01*
X103733811Y-81094860D01*
X103773097Y-81149921D01*
X103792215Y-81193492D01*
X103792421Y-81196637D01*
X103775846Y-81197833D01*
X103775846Y-81361678D01*
X103793469Y-81392973D01*
X103798754Y-81425791D01*
X103788753Y-81451336D01*
X103776806Y-81482938D01*
X103784636Y-81520589D01*
X103817262Y-81575405D01*
X103879703Y-81658501D01*
X103885801Y-81666276D01*
X103945065Y-81744471D01*
X103986939Y-81805092D01*
X104004163Y-81837461D01*
X104003801Y-81839860D01*
X103976535Y-81857072D01*
X103916437Y-81892288D01*
X103848249Y-81931223D01*
X103703551Y-82013015D01*
X103661091Y-81928127D01*
X103620308Y-81868585D01*
X103577046Y-81835819D01*
X103572610Y-81834663D01*
X103520976Y-81844603D01*
X103450617Y-81880637D01*
X103377402Y-81931417D01*
X103317199Y-81985597D01*
X103285879Y-82031827D01*
X103284421Y-82040749D01*
X103265689Y-82094090D01*
X103230721Y-82137391D01*
X103195501Y-82175395D01*
X103195254Y-82209728D01*
X103221052Y-82255167D01*
X103253943Y-82303643D01*
X103311974Y-82385996D01*
X103388567Y-82493058D01*
X103477138Y-82615657D01*
X103571109Y-82744623D01*
X103624365Y-82817194D01*
X103646197Y-82811908D01*
X103646197Y-82653814D01*
X103610602Y-82627545D01*
X103557289Y-82567721D01*
X103495267Y-82487100D01*
X103433547Y-82398439D01*
X103381140Y-82314496D01*
X103347056Y-82248031D01*
X103338925Y-82218734D01*
X103344911Y-82184509D01*
X103368728Y-82197430D01*
X103415804Y-82213810D01*
X103445799Y-82202972D01*
X103445799Y-82084095D01*
X103416121Y-82082487D01*
X103396456Y-82048595D01*
X103428344Y-82004093D01*
X103478441Y-81968781D01*
X103543647Y-81941753D01*
X103578184Y-81952360D01*
X103577522Y-81982583D01*
X103544606Y-82023150D01*
X103495382Y-82061255D01*
X103445799Y-82084095D01*
X103445799Y-82202972D01*
X103448938Y-82201837D01*
X103481208Y-82190675D01*
X103495241Y-82211263D01*
X103498316Y-82274370D01*
X103498316Y-82274892D01*
X103516596Y-82367545D01*
X103563911Y-82444584D01*
X103628968Y-82491036D01*
X103666671Y-82498134D01*
X103670450Y-82498834D01*
X103670450Y-82415050D01*
X103643815Y-82411440D01*
X103608755Y-82379429D01*
X103582714Y-82337414D01*
X103578526Y-82318109D01*
X103589634Y-82302908D01*
X103623895Y-82334402D01*
X103629698Y-82341436D01*
X103662536Y-82388661D01*
X103670628Y-82414852D01*
X103670450Y-82415050D01*
X103670450Y-82498834D01*
X103701998Y-82504679D01*
X103690346Y-82532245D01*
X103685756Y-82537899D01*
X103665458Y-82591376D01*
X103669020Y-82620052D01*
X103668813Y-82652461D01*
X103646197Y-82653814D01*
X103646197Y-82811908D01*
X103647146Y-82811678D01*
X103664530Y-82797141D01*
X103714754Y-82772185D01*
X103761434Y-82765503D01*
X103805739Y-82751811D01*
X103813210Y-82747973D01*
X103813210Y-82645841D01*
X103791848Y-82644833D01*
X103768483Y-82621083D01*
X103781431Y-82591068D01*
X103810470Y-82564280D01*
X103810470Y-82362870D01*
X103729801Y-82337664D01*
X103707632Y-82320201D01*
X103665017Y-82251532D01*
X103668042Y-82176629D01*
X103715789Y-82113661D01*
X103718160Y-82111966D01*
X103780617Y-82075855D01*
X103812316Y-82078952D01*
X103819158Y-82108399D01*
X103835348Y-82152228D01*
X103875432Y-82212766D01*
X103887093Y-82227189D01*
X103929116Y-82279944D01*
X103938347Y-82308241D01*
X103917001Y-82328043D01*
X103902219Y-82336188D01*
X103810470Y-82362870D01*
X103810470Y-82564280D01*
X103825842Y-82550099D01*
X103896727Y-82505769D01*
X103947851Y-82505217D01*
X103963583Y-82520619D01*
X103954430Y-82549473D01*
X103914568Y-82588459D01*
X103861620Y-82624831D01*
X103813210Y-82645841D01*
X103813210Y-82747973D01*
X103873487Y-82717000D01*
X103950030Y-82670467D01*
X104020722Y-82621610D01*
X104070917Y-82579826D01*
X104086526Y-82556926D01*
X104072603Y-82530431D01*
X104038441Y-82479038D01*
X104031961Y-82469865D01*
X103977396Y-82393236D01*
X104049863Y-82347726D01*
X104049863Y-82230766D01*
X103980639Y-82210095D01*
X103929372Y-82158359D01*
X103901776Y-82090970D01*
X103903566Y-82023340D01*
X103940456Y-81970883D01*
X103951084Y-81964338D01*
X104005699Y-81939982D01*
X104028765Y-81949045D01*
X104033053Y-81986230D01*
X104050400Y-82038884D01*
X104092572Y-82099920D01*
X104096660Y-82104433D01*
X104135794Y-82166211D01*
X104126195Y-82209752D01*
X104069754Y-82229956D01*
X104049863Y-82230766D01*
X104049863Y-82347726D01*
X104078751Y-82329584D01*
X104181158Y-82265792D01*
X104220343Y-82244772D01*
X104220343Y-82132339D01*
X104181761Y-82107221D01*
X104138461Y-82062690D01*
X104102666Y-82011451D01*
X104086597Y-81966208D01*
X104086526Y-81963744D01*
X104090975Y-81935312D01*
X104109777Y-81940076D01*
X104151115Y-81981837D01*
X104169114Y-82002125D01*
X104216218Y-82063675D01*
X104240981Y-82111894D01*
X104241984Y-82125340D01*
X104220343Y-82132339D01*
X104220343Y-82244772D01*
X104249902Y-82228915D01*
X104297191Y-82218384D01*
X104318683Y-82226998D01*
X104318683Y-82072935D01*
X104293695Y-82054497D01*
X104249697Y-82009345D01*
X104200344Y-81953104D01*
X104159287Y-81901399D01*
X104140178Y-81869857D01*
X104140000Y-81868428D01*
X104161189Y-81852452D01*
X104215632Y-81819336D01*
X104263683Y-81791894D01*
X104342479Y-81748434D01*
X104385436Y-81728647D01*
X104403426Y-81730184D01*
X104407322Y-81750692D01*
X104407368Y-81760820D01*
X104423558Y-81804720D01*
X104463606Y-81865176D01*
X104474847Y-81879067D01*
X104505403Y-81915381D01*
X104505403Y-81713854D01*
X104489508Y-81710184D01*
X104487579Y-81696029D01*
X104497362Y-81674022D01*
X104505403Y-81678205D01*
X104508603Y-81709935D01*
X104505403Y-81713854D01*
X104505403Y-81915381D01*
X104542325Y-81959261D01*
X104441426Y-82015969D01*
X104374617Y-82050951D01*
X104327380Y-82071057D01*
X104318683Y-82072935D01*
X104318683Y-82226998D01*
X104335232Y-82233631D01*
X104376234Y-82274087D01*
X104410673Y-82314121D01*
X104471834Y-82394010D01*
X104497216Y-82453228D01*
X104495776Y-82494320D01*
X104495714Y-82552154D01*
X104512812Y-82577415D01*
X104511081Y-82604348D01*
X104470277Y-82663889D01*
X104389809Y-82756802D01*
X104305276Y-82846565D01*
X104206737Y-82948043D01*
X104137822Y-83015636D01*
X104091451Y-83054342D01*
X104060542Y-83069163D01*
X104038014Y-83065099D01*
X104018605Y-83048980D01*
X103980248Y-83017615D01*
X103950588Y-83026074D01*
X103928970Y-83046942D01*
X103900522Y-83083652D01*
X103912921Y-83108354D01*
X103931321Y-83121315D01*
X103949918Y-83140670D01*
X103941520Y-83164642D01*
X103899770Y-83201108D01*
X103824374Y-83253859D01*
X103734351Y-83311851D01*
X103635855Y-83370966D01*
X103541278Y-83424293D01*
X103463011Y-83464922D01*
X103413444Y-83485941D01*
X103405626Y-83487398D01*
X103405626Y-83575744D01*
X103451101Y-83558376D01*
X103557514Y-83508237D01*
X103690869Y-83431312D01*
X103838130Y-83336336D01*
X103986264Y-83232039D01*
X104122237Y-83127155D01*
X104217904Y-83044632D01*
X104321590Y-82944108D01*
X104422085Y-82838733D01*
X104512176Y-82736973D01*
X104584650Y-82647294D01*
X104632295Y-82578163D01*
X104648000Y-82539793D01*
X104632984Y-82502141D01*
X104593322Y-82435574D01*
X104537092Y-82353468D01*
X104527684Y-82340580D01*
X104470019Y-82259778D01*
X104427436Y-82195402D01*
X104407844Y-82159518D01*
X104407368Y-82157089D01*
X104428385Y-82134059D01*
X104483684Y-82092328D01*
X104561643Y-82040614D01*
X104567789Y-82036757D01*
X104585614Y-82025165D01*
X104585614Y-81794064D01*
X104569719Y-81790394D01*
X104567789Y-81776240D01*
X104577572Y-81754232D01*
X104585614Y-81758415D01*
X104588814Y-81790145D01*
X104585614Y-81794064D01*
X104585614Y-82025165D01*
X104652095Y-81981927D01*
X104700141Y-81941294D01*
X104721957Y-81902281D01*
X104727571Y-81852309D01*
X104727616Y-81836307D01*
X104703916Y-81721962D01*
G37*
X104703916Y-81721962D02*
X104638689Y-81634376D01*
X104567789Y-81592784D01*
X104525812Y-81584262D01*
X104475122Y-81592943D01*
X104403466Y-81622636D01*
X104301226Y-81675726D01*
X104101506Y-81784075D01*
X103974194Y-81641933D01*
X103905272Y-81559683D01*
X103872410Y-81505263D01*
X103871442Y-81471270D01*
X103875076Y-81465820D01*
X103897163Y-81410940D01*
X103898240Y-81383465D01*
X103895962Y-81336719D01*
X103905657Y-81320956D01*
X103933024Y-81339181D01*
X103983762Y-81394396D01*
X104035511Y-81455792D01*
X104116270Y-81549568D01*
X104175575Y-81607035D01*
X104223894Y-81634782D01*
X104243178Y-81636644D01*
X104243178Y-81575713D01*
X104161145Y-81482134D01*
X104088825Y-81399922D01*
X104014050Y-81315336D01*
X104000064Y-81299576D01*
X103859669Y-81135680D01*
X103759274Y-81004903D01*
X103697958Y-80905940D01*
X103675093Y-80840470D01*
X103659721Y-80771430D01*
X103638998Y-80727146D01*
X103534188Y-80594127D01*
X103435402Y-80466588D01*
X103347867Y-80351492D01*
X103276806Y-80255803D01*
X103227447Y-80186483D01*
X103205013Y-80150496D01*
X103204210Y-80147737D01*
X103222297Y-80115733D01*
X103251000Y-80086661D01*
X103295564Y-80051951D01*
X103333157Y-80038187D01*
X103372290Y-80049817D01*
X103421474Y-80091291D01*
X103489221Y-80167058D01*
X103554038Y-80245057D01*
X103655399Y-80364070D01*
X103768230Y-80489983D01*
X103875058Y-80603541D01*
X103924452Y-80653292D01*
X104015549Y-80748315D01*
X104122976Y-80869272D01*
X104231664Y-80998815D01*
X104305797Y-81092284D01*
X104390203Y-81203192D01*
X104445751Y-81280608D01*
X104476760Y-81332976D01*
X104487552Y-81368739D01*
X104482446Y-81396341D01*
X104471378Y-81415864D01*
X104422445Y-81467020D01*
X104351409Y-81517544D01*
X104338153Y-81524977D01*
X104243178Y-81575713D01*
X104243178Y-81636644D01*
X104271698Y-81639398D01*
X104314529Y-81631390D01*
X104369705Y-81603810D01*
X104438782Y-81551579D01*
X104508127Y-81487572D01*
X104564108Y-81424664D01*
X104593094Y-81375731D01*
X104594526Y-81366941D01*
X104578026Y-81332042D01*
X104532946Y-81265113D01*
X104465917Y-81174371D01*
X104383569Y-81068029D01*
X104292534Y-80954303D01*
X104199442Y-80841408D01*
X104110924Y-80737560D01*
X104033610Y-80650973D01*
X103974133Y-80589863D01*
X103951255Y-80569960D01*
X103899015Y-80521779D01*
X103824359Y-80441977D01*
X103737160Y-80341558D01*
X103647292Y-80231525D01*
X103645368Y-80229090D01*
X103542775Y-80103340D01*
X103462796Y-80018272D01*
X103398185Y-79970208D01*
X103341697Y-79955470D01*
X103286085Y-79970381D01*
X103224106Y-80011263D01*
X103221016Y-80013682D01*
X103166753Y-80059139D01*
X103134585Y-80099411D01*
X103126566Y-80142852D01*
X103144750Y-80197814D01*
X103191191Y-80272653D01*
X103267943Y-80375720D01*
X103329466Y-80454671D01*
X103436858Y-80593095D01*
X103513823Y-80696725D01*
X103563931Y-80772045D01*
X103590751Y-80825535D01*
X103597853Y-80863680D01*
X103588806Y-80892960D01*
X103578624Y-80907175D01*
X103547956Y-80934141D01*
X103516259Y-80922513D01*
X103495478Y-80904724D01*
X103442441Y-80876519D01*
X103405247Y-80876660D01*
X103374936Y-80869102D01*
X103325849Y-80827208D01*
X103254596Y-80747532D01*
X103157788Y-80626629D01*
X103152045Y-80619218D01*
X103053181Y-80492880D01*
X102947790Y-80360482D01*
X102849599Y-80239159D01*
X102782997Y-80158661D01*
X102678572Y-80033441D01*
X102558998Y-79888317D01*
X102433125Y-79734192D01*
X102309802Y-79581970D01*
X102197877Y-79442557D01*
X102106201Y-79326855D01*
X102065328Y-79274306D01*
X102017464Y-79213398D01*
X101940180Y-79116673D01*
X101837972Y-78989653D01*
X101715339Y-78837862D01*
X101576779Y-78666822D01*
X101426790Y-78482056D01*
X101269869Y-78289085D01*
X101110514Y-78093433D01*
X100953224Y-77900622D01*
X100802496Y-77716176D01*
X100662827Y-77545615D01*
X100538717Y-77394464D01*
X100434662Y-77268245D01*
X100355161Y-77172479D01*
X100306446Y-77114707D01*
X100237443Y-77036056D01*
X100180728Y-76982439D01*
X100126607Y-76953614D01*
X100065387Y-76949338D01*
X99987376Y-76969369D01*
X99882880Y-77013464D01*
X99742206Y-77081380D01*
X99705118Y-77099653D01*
X99556249Y-77177486D01*
X99438851Y-77251342D01*
X99333806Y-77334555D01*
X99235006Y-77427491D01*
X99126514Y-77541998D01*
X99025028Y-77661733D01*
X98937141Y-77777607D01*
X98869447Y-77880533D01*
X98828538Y-77961420D01*
X98819368Y-78000441D01*
X98835667Y-78030447D01*
X98882491Y-78097969D01*
X98912947Y-78139393D01*
X98912947Y-78033082D01*
X98899579Y-78019713D01*
X98912947Y-78006345D01*
X98926316Y-78019713D01*
X98912947Y-78033082D01*
X98912947Y-78139393D01*
X98956734Y-78198951D01*
X99055291Y-78329335D01*
X99175054Y-78485066D01*
X99312918Y-78662085D01*
X99465777Y-78856337D01*
X99630523Y-79063765D01*
X99702700Y-79154069D01*
X99910831Y-79414695D01*
X100086713Y-79636557D01*
X100232181Y-79822095D01*
X100349070Y-79973747D01*
X100439216Y-80093955D01*
X100504454Y-80185155D01*
X100546619Y-80249788D01*
X100567548Y-80290293D01*
X100570232Y-80306972D01*
X100572712Y-80363937D01*
X100599477Y-80425495D01*
X100613151Y-80449780D01*
X100613151Y-80143445D01*
X100591416Y-80123001D01*
X100543604Y-80068574D01*
X100476615Y-79988277D01*
X100397348Y-79890222D01*
X100391406Y-79882760D01*
X100325734Y-79800540D01*
X100231943Y-79683556D01*
X100115526Y-79538634D01*
X99981973Y-79372602D01*
X99836774Y-79192287D01*
X99685421Y-79004516D01*
X99559593Y-78848555D01*
X99399472Y-78648786D01*
X99261246Y-78473482D01*
X99147106Y-78325561D01*
X99059243Y-78207935D01*
X98999851Y-78123522D01*
X98971119Y-78075236D01*
X98970134Y-78064542D01*
X98996570Y-78034551D01*
X99006526Y-77979876D01*
X98997205Y-77921694D01*
X98976691Y-77893908D01*
X98979473Y-77870457D01*
X99010827Y-77815180D01*
X99065036Y-77737287D01*
X99111400Y-77676901D01*
X99187624Y-77582724D01*
X99239168Y-77525324D01*
X99273446Y-77498705D01*
X99297877Y-77496876D01*
X99316935Y-77510828D01*
X99367352Y-77547616D01*
X99409112Y-77537306D01*
X99435256Y-77510580D01*
X99455334Y-77467703D01*
X99438530Y-77438391D01*
X99411080Y-77399550D01*
X99407579Y-77386323D01*
X99429531Y-77358450D01*
X99487884Y-77313441D01*
X99571381Y-77258415D01*
X99668767Y-77200492D01*
X99768784Y-77146789D01*
X99839122Y-77113401D01*
X99921231Y-77078586D01*
X99964886Y-77065332D01*
X99979998Y-77072384D01*
X99977162Y-77095908D01*
X99982207Y-77148817D01*
X100025394Y-77171147D01*
X100076239Y-77164058D01*
X100121990Y-77130618D01*
X100121660Y-77083967D01*
X100082684Y-77044162D01*
X100051961Y-77022555D01*
X100069780Y-77020391D01*
X100089002Y-77023077D01*
X100105219Y-77029078D01*
X100127686Y-77044844D01*
X100158861Y-77073280D01*
X100201203Y-77117289D01*
X100257172Y-77179776D01*
X100329227Y-77263646D01*
X100419827Y-77371802D01*
X100531432Y-77507148D01*
X100666501Y-77672590D01*
X100827492Y-77871031D01*
X101016866Y-78105375D01*
X101237081Y-78378527D01*
X101243259Y-78386196D01*
X101378055Y-78554960D01*
X101500606Y-78711154D01*
X101607181Y-78849807D01*
X101694049Y-78965947D01*
X101757478Y-79054602D01*
X101793738Y-79110800D01*
X101800698Y-79129014D01*
X101775935Y-79154209D01*
X101717259Y-79207694D01*
X101630893Y-79284157D01*
X101523058Y-79378281D01*
X101399975Y-79484753D01*
X101267865Y-79598259D01*
X101132950Y-79713484D01*
X101001451Y-79825113D01*
X100879589Y-79927833D01*
X100773586Y-80016329D01*
X100689662Y-80085286D01*
X100634039Y-80129391D01*
X100613151Y-80143445D01*
X100613151Y-80449780D01*
X100628392Y-80476848D01*
X100625061Y-80511443D01*
X100597233Y-80546495D01*
X100572575Y-80578393D01*
X100569914Y-80607968D01*
X100593454Y-80649603D01*
X100647183Y-80717415D01*
X100699783Y-80785492D01*
X100734480Y-80837875D01*
X100742942Y-80858318D01*
X100722831Y-80888101D01*
X100675291Y-80932559D01*
X100665228Y-80940679D01*
X100588995Y-81000802D01*
X100167870Y-80432850D01*
X100054669Y-80279138D01*
X99952104Y-80137877D01*
X99864521Y-80015212D01*
X99796266Y-79917290D01*
X99751682Y-79850255D01*
X99735254Y-79820955D01*
X99739936Y-79773782D01*
X99752829Y-79759048D01*
X99780237Y-79714833D01*
X99770549Y-79650255D01*
X99726722Y-79580381D01*
X99715401Y-79568368D01*
X99668552Y-79525976D01*
X99631634Y-79517027D01*
X99579215Y-79537986D01*
X99561664Y-79546989D01*
X99430315Y-79626822D01*
X99351670Y-79703859D01*
X99325113Y-79779367D01*
X99350030Y-79854617D01*
X99390177Y-79900872D01*
X99446167Y-79940682D01*
X99464898Y-79940907D01*
X99464898Y-79856674D01*
X99438293Y-79844470D01*
X99409339Y-79787307D01*
X99433725Y-79727180D01*
X99501114Y-79670713D01*
X99594091Y-79621764D01*
X99657168Y-79615484D01*
X99692398Y-79651657D01*
X99687410Y-79702101D01*
X99648112Y-79758489D01*
X99588557Y-79810157D01*
X99522801Y-79846440D01*
X99464898Y-79856674D01*
X99464898Y-79940907D01*
X99499523Y-79941324D01*
X99517834Y-79935223D01*
X99539588Y-79929783D01*
X99562473Y-79933817D01*
X99590798Y-79952043D01*
X99628870Y-79989180D01*
X99681000Y-80049949D01*
X99751497Y-80139069D01*
X99844669Y-80261260D01*
X99964825Y-80421242D01*
X99979619Y-80441007D01*
X100117097Y-80624537D01*
X100225676Y-80769532D01*
X100308203Y-80880484D01*
X100367526Y-80961888D01*
X100406495Y-81018236D01*
X100427958Y-81054023D01*
X100434762Y-81073740D01*
X100429757Y-81081883D01*
X100415790Y-81082944D01*
X100395711Y-81081416D01*
X100385369Y-81081082D01*
X100331022Y-81066408D01*
X100278413Y-81016016D01*
X100244538Y-80967450D01*
X100200765Y-80903697D01*
X100133654Y-80811135D01*
X100052278Y-80701735D01*
X99965708Y-80587469D01*
X99883016Y-80480310D01*
X99813276Y-80392229D01*
X99765559Y-80335198D01*
X99764694Y-80334237D01*
X99733845Y-80311848D01*
X99699005Y-80325586D01*
X99673025Y-80347559D01*
X99637452Y-80376516D01*
X99610041Y-80379076D01*
X99575735Y-80350059D01*
X99531824Y-80298981D01*
X99474830Y-80240390D01*
X99425076Y-80204743D01*
X99407579Y-80199615D01*
X99350290Y-80216688D01*
X99305847Y-80254483D01*
X99293104Y-80296522D01*
X99293829Y-80299029D01*
X99285745Y-80314436D01*
X99244845Y-80324621D01*
X99164630Y-80330355D01*
X99038599Y-80332411D01*
X99012622Y-80332450D01*
X98720157Y-80332450D01*
X98696236Y-80249439D01*
X98690822Y-80234852D01*
X98681171Y-80219820D01*
X98664351Y-80202944D01*
X98637429Y-80182822D01*
X98597471Y-80158055D01*
X98541544Y-80127242D01*
X98466716Y-80088983D01*
X98370053Y-80041878D01*
X98248622Y-79984525D01*
X98099490Y-79915526D01*
X97919724Y-79833479D01*
X97706392Y-79736984D01*
X97456559Y-79624641D01*
X97167294Y-79495050D01*
X96835662Y-79346810D01*
X96458731Y-79178520D01*
X96372947Y-79140234D01*
X95982314Y-78965996D01*
X95637410Y-78812414D01*
X95335199Y-78678210D01*
X95072642Y-78562105D01*
X94846702Y-78462820D01*
X94654341Y-78379075D01*
X94492523Y-78309593D01*
X94358209Y-78253093D01*
X94248362Y-78208296D01*
X94159944Y-78173925D01*
X94089918Y-78148699D01*
X94035246Y-78131339D01*
X93992890Y-78120567D01*
X93959814Y-78115104D01*
X93934951Y-78113667D01*
X93803874Y-78122414D01*
X93712076Y-78148223D01*
X93664721Y-78189235D01*
X93659282Y-78212894D01*
X93672553Y-78264078D01*
X93714690Y-78320179D01*
X93789570Y-78383942D01*
X93901067Y-78458113D01*
X94053057Y-78545435D01*
X94249416Y-78648655D01*
X94336574Y-78692670D01*
X94452968Y-78750619D01*
X94605827Y-78826231D01*
X94790449Y-78917210D01*
X95002129Y-79021261D01*
X95236163Y-79136089D01*
X95487849Y-79259399D01*
X95752481Y-79388897D01*
X96025356Y-79522287D01*
X96301771Y-79657275D01*
X96577021Y-79791565D01*
X96846403Y-79922863D01*
X97105213Y-80048873D01*
X97348747Y-80167301D01*
X97572302Y-80275852D01*
X97771173Y-80372230D01*
X97940657Y-80454141D01*
X98076050Y-80519290D01*
X98172648Y-80565382D01*
X98224474Y-80589551D01*
X98305739Y-80629729D01*
X98348202Y-80663955D01*
X98360599Y-80695959D01*
X98360599Y-80551083D01*
X97005826Y-79889158D01*
X96719510Y-79749219D01*
X96419084Y-79602293D01*
X96113315Y-79452675D01*
X95810972Y-79304660D01*
X95520826Y-79162540D01*
X95251644Y-79030611D01*
X95012196Y-78913166D01*
X94811250Y-78814500D01*
X94795474Y-78806747D01*
X94522265Y-78671663D01*
X94295652Y-78557702D01*
X94113641Y-78463655D01*
X93974240Y-78388310D01*
X93875459Y-78330460D01*
X93815303Y-78288893D01*
X93791782Y-78262400D01*
X93802902Y-78249772D01*
X93846673Y-78249799D01*
X93887401Y-78255325D01*
X93961308Y-78275298D01*
X94059517Y-78312020D01*
X94100316Y-78330244D01*
X94100316Y-78246976D01*
X94086947Y-78233608D01*
X94100316Y-78220240D01*
X94113684Y-78233608D01*
X94100316Y-78246976D01*
X94100316Y-78330244D01*
X94148085Y-78351583D01*
X94167158Y-78360741D01*
X94167158Y-78273713D01*
X94145150Y-78263931D01*
X94149333Y-78255889D01*
X94181064Y-78252689D01*
X94184982Y-78255889D01*
X94181312Y-78271784D01*
X94167158Y-78273713D01*
X94167158Y-78360741D01*
X94234000Y-78392837D01*
X94234000Y-78300450D01*
X94220632Y-78287082D01*
X94234000Y-78273713D01*
X94247368Y-78287082D01*
X94234000Y-78300450D01*
X94234000Y-78392837D01*
X94255605Y-78403212D01*
X94385857Y-78464700D01*
X94512884Y-78523804D01*
X94528105Y-78530811D01*
X94625044Y-78575946D01*
X94756845Y-78638126D01*
X94910259Y-78711060D01*
X95072035Y-78788453D01*
X95183158Y-78841912D01*
X95345620Y-78919706D01*
X95511673Y-78998232D01*
X95667232Y-79070896D01*
X95798213Y-79131103D01*
X95864947Y-79161077D01*
X95980804Y-79213222D01*
X96088929Y-79263508D01*
X96172640Y-79304109D01*
X96199158Y-79317811D01*
X96257624Y-79347585D01*
X96352654Y-79394096D01*
X96472306Y-79451574D01*
X96604639Y-79514248D01*
X96640316Y-79530995D01*
X96778630Y-79595970D01*
X96911990Y-79658937D01*
X97026838Y-79713475D01*
X97109615Y-79753160D01*
X97121579Y-79758969D01*
X97198096Y-79795842D01*
X97308437Y-79848483D01*
X97438013Y-79909951D01*
X97572234Y-79973310D01*
X97576105Y-79975132D01*
X97737124Y-80051011D01*
X97919887Y-80137277D01*
X98098781Y-80221834D01*
X98213388Y-80276088D01*
X98465105Y-80395360D01*
X98465105Y-80297079D01*
X98435268Y-80283155D01*
X98361700Y-80248370D01*
X98248936Y-80194881D01*
X98101513Y-80124845D01*
X97923966Y-80040417D01*
X97720830Y-79943753D01*
X97496641Y-79837011D01*
X97255934Y-79722347D01*
X97121579Y-79658321D01*
X96842245Y-79525315D01*
X96551328Y-79387021D01*
X96257392Y-79247497D01*
X95969001Y-79110800D01*
X95694722Y-78980986D01*
X95443118Y-78862112D01*
X95222754Y-78758235D01*
X95044428Y-78674458D01*
X94857607Y-78586524D01*
X94687762Y-78505842D01*
X94540579Y-78435171D01*
X94421740Y-78377270D01*
X94336931Y-78334897D01*
X94291836Y-78310812D01*
X94286007Y-78306373D01*
X94311227Y-78315528D01*
X94381357Y-78344767D01*
X94492477Y-78392375D01*
X94640667Y-78456638D01*
X94822009Y-78535840D01*
X95032583Y-78628265D01*
X95268471Y-78732200D01*
X95525753Y-78845927D01*
X95800510Y-78967733D01*
X96015579Y-79063308D01*
X96418267Y-79242439D01*
X96774906Y-79401136D01*
X97088289Y-79540728D01*
X97361212Y-79662544D01*
X97596467Y-79767916D01*
X97796850Y-79858172D01*
X97965156Y-79934643D01*
X98104177Y-79998658D01*
X98216709Y-80051547D01*
X98305545Y-80094641D01*
X98373481Y-80129268D01*
X98423311Y-80156760D01*
X98457828Y-80178445D01*
X98479827Y-80195653D01*
X98492103Y-80209715D01*
X98497450Y-80221960D01*
X98498662Y-80233718D01*
X98498526Y-80244973D01*
X98488117Y-80293119D01*
X98465105Y-80297079D01*
X98465105Y-80395360D01*
X98529830Y-80426029D01*
X98445214Y-80488556D01*
X98360599Y-80551083D01*
X98360599Y-80695959D01*
X98363608Y-80703728D01*
X98364842Y-80726997D01*
X98364842Y-80801376D01*
X97011124Y-81048398D01*
X96746939Y-81097000D01*
X96497091Y-81143722D01*
X96266836Y-81187529D01*
X96061432Y-81227386D01*
X95886137Y-81262257D01*
X95746208Y-81291105D01*
X95646903Y-81312896D01*
X95593478Y-81326593D01*
X95587387Y-81328870D01*
X95529864Y-81375691D01*
X95508865Y-81433849D01*
X95527652Y-81486942D01*
X95552169Y-81506032D01*
X95565782Y-81512092D01*
X95584326Y-81516797D01*
X95611754Y-81519943D01*
X95645557Y-81521106D01*
X95645557Y-81439197D01*
X95604923Y-81437865D01*
X95603287Y-81437295D01*
X95592162Y-81422990D01*
X95607549Y-81407475D01*
X95654049Y-81389484D01*
X95736260Y-81367755D01*
X95858784Y-81341024D01*
X96026219Y-81308025D01*
X96176188Y-81279856D01*
X96354308Y-81247064D01*
X96531442Y-81214853D01*
X96694375Y-81185596D01*
X96829889Y-81161668D01*
X96917671Y-81146622D01*
X97025930Y-81127881D01*
X97117159Y-81110804D01*
X97175869Y-81098332D01*
X97185039Y-81095862D01*
X97223339Y-81087463D01*
X97303991Y-81071999D01*
X97417325Y-81051162D01*
X97553673Y-81026645D01*
X97703365Y-81000139D01*
X97856731Y-80973336D01*
X98004102Y-80947927D01*
X98135810Y-80925606D01*
X98242184Y-80908062D01*
X98313554Y-80896989D01*
X98339191Y-80893924D01*
X98351833Y-80918395D01*
X98360994Y-80982795D01*
X98364822Y-81073604D01*
X98364842Y-81081082D01*
X98363637Y-81179073D01*
X98357539Y-81235259D01*
X98342821Y-81261295D01*
X98315756Y-81268835D01*
X98304684Y-81269233D01*
X98255504Y-81271512D01*
X98165649Y-81276991D01*
X98047766Y-81284859D01*
X97914503Y-81294300D01*
X97910316Y-81294605D01*
X97524762Y-81322431D01*
X97165903Y-81347737D01*
X96836645Y-81370342D01*
X96539896Y-81390067D01*
X96278565Y-81406733D01*
X96055557Y-81420158D01*
X95873782Y-81430164D01*
X95736146Y-81436570D01*
X95645557Y-81439197D01*
X95645557Y-81521106D01*
X95652016Y-81521329D01*
X95709063Y-81520752D01*
X95786849Y-81518010D01*
X95889323Y-81512900D01*
X96020438Y-81505220D01*
X96184144Y-81494768D01*
X96384394Y-81481342D01*
X96625139Y-81464738D01*
X96910330Y-81444756D01*
X97243919Y-81421191D01*
X97335227Y-81414725D01*
X97555185Y-81399239D01*
X97759511Y-81385037D01*
X97941753Y-81372553D01*
X98095454Y-81362223D01*
X98214161Y-81354481D01*
X98291419Y-81349761D01*
X98319582Y-81348450D01*
X98354677Y-81361485D01*
X98361134Y-81409091D01*
X98359934Y-81421181D01*
X98359517Y-81432787D01*
X98359609Y-81442818D01*
X98357704Y-81452921D01*
X98351296Y-81464741D01*
X98337880Y-81479927D01*
X98314950Y-81500122D01*
X98280003Y-81526976D01*
X98230531Y-81562132D01*
X98164030Y-81607239D01*
X98077995Y-81663943D01*
X97969920Y-81733889D01*
X97837300Y-81818725D01*
X97677630Y-81920096D01*
X97488403Y-82039650D01*
X97267116Y-82179032D01*
X97011263Y-82339889D01*
X96718337Y-82523868D01*
X96385835Y-82732614D01*
X96011250Y-82967775D01*
X95905053Y-83034454D01*
X95517053Y-83278196D01*
X95171919Y-83495301D01*
X94867133Y-83687414D01*
X94600177Y-83856176D01*
X94368533Y-84003232D01*
X94169683Y-84130224D01*
X94001110Y-84238796D01*
X93860295Y-84330592D01*
X93744720Y-84407253D01*
X93651868Y-84470425D01*
X93579221Y-84521749D01*
X93524260Y-84562869D01*
X93484468Y-84595429D01*
X93457327Y-84621072D01*
X93440319Y-84641441D01*
X93438406Y-84644265D01*
X93400905Y-84724311D01*
X93393188Y-84795394D01*
X93409614Y-84833152D01*
X93439843Y-84848211D01*
X93488549Y-84846834D01*
X93522638Y-84837535D01*
X93522638Y-84744029D01*
X93509394Y-84742835D01*
X93507496Y-84736877D01*
X93522057Y-84722598D01*
X93558191Y-84696435D01*
X93621011Y-84654829D01*
X93715631Y-84594219D01*
X93847164Y-84511046D01*
X93953263Y-84444215D01*
X94035257Y-84393044D01*
X94158397Y-84316819D01*
X94318168Y-84218309D01*
X94510053Y-84100286D01*
X94729537Y-83965520D01*
X94972103Y-83816784D01*
X95233234Y-83656848D01*
X95508415Y-83488483D01*
X95651053Y-83401301D01*
X95651053Y-83300240D01*
X95637684Y-83286871D01*
X95651053Y-83273503D01*
X95664421Y-83286871D01*
X95651053Y-83300240D01*
X95651053Y-83401301D01*
X95731263Y-83352275D01*
X95731263Y-83246766D01*
X95717895Y-83233398D01*
X95731263Y-83220029D01*
X95744632Y-83233398D01*
X95731263Y-83246766D01*
X95731263Y-83352275D01*
X95773109Y-83326698D01*
X95773109Y-83213474D01*
X95771368Y-83209817D01*
X95790191Y-83185417D01*
X95798105Y-83179924D01*
X95823101Y-83173111D01*
X95824842Y-83176768D01*
X95806020Y-83201168D01*
X95798105Y-83206661D01*
X95773109Y-83213474D01*
X95773109Y-83326698D01*
X95793130Y-83314460D01*
X95864947Y-83270608D01*
X95864947Y-83166555D01*
X95851579Y-83153187D01*
X95864947Y-83139819D01*
X95878316Y-83153187D01*
X95864947Y-83166555D01*
X95864947Y-83270608D01*
X95945158Y-83221630D01*
X95945158Y-83113082D01*
X95931789Y-83099713D01*
X95945158Y-83086345D01*
X95958526Y-83099713D01*
X95945158Y-83113082D01*
X95945158Y-83221630D01*
X95987004Y-83196079D01*
X95987004Y-83079790D01*
X95985263Y-83076132D01*
X96004085Y-83051733D01*
X96012000Y-83046240D01*
X96036996Y-83039427D01*
X96038737Y-83043084D01*
X96019915Y-83067483D01*
X96012000Y-83072976D01*
X95987004Y-83079790D01*
X95987004Y-83196079D01*
X96065474Y-83148163D01*
X96078842Y-83140008D01*
X96078842Y-83032871D01*
X96065474Y-83019503D01*
X96078842Y-83006134D01*
X96092210Y-83019503D01*
X96078842Y-83032871D01*
X96078842Y-83140008D01*
X96120688Y-83114478D01*
X96120688Y-82999579D01*
X96118947Y-82995922D01*
X96137770Y-82971522D01*
X96145684Y-82966029D01*
X96170680Y-82959216D01*
X96172421Y-82962873D01*
X96153599Y-82987273D01*
X96145684Y-82992766D01*
X96120688Y-82999579D01*
X96120688Y-83114478D01*
X96211293Y-83059200D01*
X96211293Y-82943135D01*
X96199158Y-82941174D01*
X96219653Y-82919700D01*
X96252632Y-82899187D01*
X96293970Y-82881976D01*
X96306105Y-82883937D01*
X96285610Y-82905411D01*
X96252632Y-82925924D01*
X96211293Y-82943135D01*
X96211293Y-83059200D01*
X96334583Y-82983981D01*
X96334583Y-82865895D01*
X96332842Y-82862238D01*
X96351664Y-82837838D01*
X96359579Y-82832345D01*
X96384575Y-82825532D01*
X96386316Y-82829189D01*
X96367494Y-82853589D01*
X96359579Y-82859082D01*
X96334583Y-82865895D01*
X96334583Y-82983981D01*
X96425188Y-82928703D01*
X96425188Y-82809451D01*
X96413053Y-82807489D01*
X96433548Y-82786016D01*
X96466526Y-82765503D01*
X96507865Y-82748292D01*
X96520000Y-82750253D01*
X96499504Y-82771726D01*
X96466526Y-82792240D01*
X96425188Y-82809451D01*
X96425188Y-82928703D01*
X96481165Y-82894551D01*
X96561844Y-82845376D01*
X96561844Y-82727878D01*
X96558368Y-82721609D01*
X96560105Y-82719649D01*
X96588735Y-82698689D01*
X96656991Y-82653195D01*
X96759094Y-82586883D01*
X96889269Y-82503467D01*
X97041736Y-82406662D01*
X97210719Y-82300183D01*
X97282000Y-82255491D01*
X97557478Y-82083176D01*
X97791041Y-81937475D01*
X97985965Y-81816417D01*
X98145525Y-81718031D01*
X98273000Y-81640345D01*
X98371665Y-81581388D01*
X98444795Y-81539190D01*
X98495669Y-81511778D01*
X98527561Y-81497181D01*
X98543749Y-81493429D01*
X98546637Y-81494596D01*
X98550158Y-81518118D01*
X98549772Y-81518468D01*
X98526020Y-81533387D01*
X98462107Y-81572746D01*
X98363549Y-81633178D01*
X98235860Y-81711318D01*
X98084556Y-81803800D01*
X97915153Y-81907259D01*
X97733167Y-82018330D01*
X97544112Y-82133646D01*
X97353504Y-82249843D01*
X97166858Y-82363554D01*
X96989691Y-82471415D01*
X96827517Y-82570060D01*
X96685853Y-82656124D01*
X96600210Y-82708070D01*
X96561844Y-82727878D01*
X96561844Y-82845376D01*
X96853116Y-82667839D01*
X97183159Y-82466946D01*
X97473122Y-82290793D01*
X97724836Y-82138300D01*
X97940132Y-82008386D01*
X98120839Y-81899972D01*
X98268787Y-81811979D01*
X98385807Y-81743325D01*
X98473729Y-81692930D01*
X98534382Y-81659716D01*
X98569597Y-81642602D01*
X98581205Y-81640508D01*
X98571035Y-81652353D01*
X98540917Y-81677059D01*
X98492682Y-81713545D01*
X98477057Y-81725079D01*
X98413615Y-81775334D01*
X98372933Y-81814474D01*
X98364842Y-81828015D01*
X98379353Y-81859626D01*
X98416501Y-81918305D01*
X98446510Y-81961167D01*
X98528179Y-82073907D01*
X98573592Y-82047113D01*
X98573592Y-81942985D01*
X98542619Y-81936240D01*
X98519314Y-81917908D01*
X98482380Y-81877002D01*
X98471789Y-81854814D01*
X98491848Y-81829855D01*
X98544026Y-81785095D01*
X98605474Y-81738687D01*
X98672316Y-81679185D01*
X98672316Y-81535608D01*
X98658947Y-81522240D01*
X98672316Y-81508871D01*
X98685684Y-81522240D01*
X98672316Y-81535608D01*
X98672316Y-81679185D01*
X98698363Y-81655997D01*
X98739353Y-81575975D01*
X98729492Y-81493803D01*
X98676534Y-81412312D01*
X98632366Y-81365665D01*
X98600266Y-81355882D01*
X98558780Y-81378166D01*
X98550270Y-81384084D01*
X98497624Y-81416402D01*
X98465840Y-81428661D01*
X98458682Y-81403448D01*
X98452590Y-81333903D01*
X98448025Y-81229163D01*
X98445452Y-81098365D01*
X98445053Y-81018425D01*
X98445053Y-80608189D01*
X98576849Y-80497057D01*
X98591581Y-80485388D01*
X98591581Y-80299404D01*
X98560715Y-80272425D01*
X98552000Y-80247388D01*
X98567276Y-80236610D01*
X98592751Y-80252776D01*
X98620780Y-80285470D01*
X98621267Y-80298832D01*
X98591581Y-80299404D01*
X98591581Y-80485388D01*
X98641503Y-80445842D01*
X98700162Y-80411507D01*
X98764525Y-80392016D01*
X98846290Y-80385337D01*
X98957154Y-80389437D01*
X99108816Y-80402282D01*
X99117420Y-80403093D01*
X99295156Y-80419882D01*
X99314217Y-80737113D01*
X99320545Y-80905697D01*
X99321882Y-81097901D01*
X99318240Y-81284104D01*
X99314000Y-81375187D01*
X99294723Y-81696029D01*
X99125466Y-81696029D01*
X99035002Y-81692101D01*
X98967467Y-81681865D01*
X98939684Y-81669292D01*
X98901541Y-81641785D01*
X98860618Y-81658085D01*
X98831348Y-81711370D01*
X98828954Y-81721628D01*
X98796180Y-81790899D01*
X98721603Y-81859200D01*
X98689989Y-81880809D01*
X98617600Y-81925620D01*
X98573592Y-81942985D01*
X98573592Y-82047113D01*
X98615924Y-82022136D01*
X98695496Y-81973951D01*
X98768448Y-81927914D01*
X98771659Y-81925816D01*
X98821167Y-81898101D01*
X98845465Y-81902802D01*
X98854607Y-81920250D01*
X98845836Y-81939929D01*
X98806531Y-81972363D01*
X98733294Y-82019590D01*
X98622729Y-82083648D01*
X98471439Y-82166576D01*
X98276026Y-82270412D01*
X98236204Y-82291323D01*
X98112458Y-82356207D01*
X97946373Y-82443290D01*
X97742970Y-82549941D01*
X97507267Y-82673527D01*
X97244285Y-82811417D01*
X96959044Y-82960979D01*
X96656563Y-83119579D01*
X96341862Y-83284587D01*
X96019960Y-83453371D01*
X95695879Y-83623297D01*
X95580640Y-83683721D01*
X95274850Y-83843842D01*
X94982284Y-83996620D01*
X94706448Y-84140248D01*
X94450851Y-84272921D01*
X94218998Y-84392830D01*
X94014399Y-84498168D01*
X93840560Y-84587128D01*
X93700989Y-84657904D01*
X93599193Y-84708688D01*
X93538680Y-84737672D01*
X93522638Y-84744029D01*
X93522638Y-84837535D01*
X93560716Y-84827146D01*
X93661333Y-84787272D01*
X93795384Y-84725339D01*
X93967857Y-84639474D01*
X94084535Y-84579484D01*
X94188312Y-84525524D01*
X94335389Y-84448799D01*
X94521735Y-84351423D01*
X94743316Y-84235511D01*
X94996101Y-84103176D01*
X95276056Y-83956533D01*
X95579150Y-83797697D01*
X95901350Y-83628782D01*
X96238622Y-83451902D01*
X96586936Y-83269172D01*
X96942258Y-83082705D01*
X97300556Y-82894617D01*
X97657797Y-82707022D01*
X98009950Y-82522034D01*
X98352980Y-82341767D01*
X98625956Y-82198258D01*
X98776332Y-82117534D01*
X98884938Y-82053986D01*
X98958346Y-82001933D01*
X99003127Y-81955693D01*
X99025852Y-81909584D01*
X99033094Y-81857925D01*
X99033263Y-81846115D01*
X99036819Y-81809187D01*
X99055678Y-81788116D01*
X99102126Y-81777368D01*
X99188451Y-81771407D01*
X99200368Y-81770831D01*
X99367474Y-81762871D01*
X99394210Y-81442029D01*
X99599506Y-81425656D01*
X99599506Y-81332337D01*
X99491826Y-81329597D01*
X99414263Y-81324521D01*
X99398097Y-81306581D01*
X99387617Y-81252026D01*
X99382122Y-81154901D01*
X99380842Y-81040986D01*
X99380842Y-80760258D01*
X99393876Y-80760967D01*
X99393876Y-80561505D01*
X99382640Y-80539324D01*
X99380842Y-80491689D01*
X99382808Y-80435611D01*
X99387618Y-80414205D01*
X99388408Y-80414889D01*
X99409016Y-80442980D01*
X99428843Y-80469271D01*
X99447144Y-80511243D01*
X99421277Y-80546071D01*
X99393876Y-80561505D01*
X99393876Y-80760967D01*
X99593983Y-80771866D01*
X99760423Y-80782443D01*
X99881955Y-80794706D01*
X99967147Y-80810780D01*
X99974319Y-80813529D01*
X99974319Y-80736210D01*
X99764475Y-80719341D01*
X99630909Y-80707237D01*
X99544511Y-80695827D01*
X99499005Y-80684060D01*
X99487789Y-80672994D01*
X99507281Y-80653598D01*
X99550365Y-80618070D01*
X99550365Y-80465945D01*
X99527423Y-80455352D01*
X99484552Y-80413349D01*
X99461053Y-80385924D01*
X99410055Y-80317728D01*
X99395791Y-80286702D01*
X99415842Y-80295264D01*
X99467791Y-80345832D01*
X99483676Y-80363300D01*
X99528806Y-80419403D01*
X99550690Y-80458038D01*
X99550365Y-80465945D01*
X99550365Y-80618070D01*
X99558080Y-80611707D01*
X99620534Y-80563048D01*
X99692883Y-80512265D01*
X99749188Y-80480766D01*
X99774843Y-80475144D01*
X99801258Y-80502784D01*
X99846782Y-80560110D01*
X99885363Y-80612341D01*
X99974319Y-80736210D01*
X99974319Y-80813529D01*
X100024563Y-80832793D01*
X100062769Y-80862869D01*
X100085011Y-80893747D01*
X100125592Y-81003800D01*
X100126408Y-81116562D01*
X100088776Y-81215232D01*
X100056873Y-81253184D01*
X99995571Y-81298448D01*
X99932189Y-81309750D01*
X99883083Y-81304323D01*
X99818816Y-81299677D01*
X99783961Y-81308116D01*
X99781895Y-81312725D01*
X99757357Y-81323489D01*
X99692289Y-81330163D01*
X99599506Y-81332337D01*
X99599506Y-81425656D01*
X99634842Y-81422837D01*
X99750398Y-81414593D01*
X99825133Y-81413258D01*
X99871434Y-81420408D01*
X99901685Y-81437620D01*
X99922429Y-81459425D01*
X99946333Y-81492185D01*
X99947732Y-81519980D01*
X99920861Y-81555522D01*
X99859952Y-81611522D01*
X99849090Y-81621093D01*
X99781142Y-81685589D01*
X99750289Y-81730018D01*
X99749878Y-81765064D01*
X99753910Y-81773909D01*
X99757669Y-81797508D01*
X99742516Y-81829117D01*
X99703260Y-81874336D01*
X99634711Y-81938764D01*
X99531679Y-82028000D01*
X99470853Y-82079275D01*
X99360127Y-82169856D01*
X99261180Y-82246570D01*
X99182283Y-82303322D01*
X99131703Y-82334019D01*
X99120130Y-82337713D01*
X99068061Y-82354680D01*
X99028223Y-82382379D01*
X98993536Y-82407978D01*
X98962745Y-82404734D01*
X98917799Y-82368386D01*
X98900858Y-82352307D01*
X98844428Y-82308119D01*
X98789342Y-82292908D01*
X98725551Y-82308952D01*
X98643005Y-82358533D01*
X98545316Y-82432958D01*
X98449933Y-82518695D01*
X98400511Y-82591852D01*
X98394533Y-82662421D01*
X98429483Y-82740391D01*
X98457786Y-82780415D01*
X98497156Y-82837966D01*
X98502972Y-82868656D01*
X98484523Y-82882363D01*
X98452936Y-82919446D01*
X98447487Y-82982792D01*
X98468542Y-83051807D01*
X98481149Y-83072015D01*
X98521748Y-83105288D01*
X98584657Y-83109704D01*
X98612159Y-83105977D01*
X98687305Y-83102866D01*
X98742085Y-83130352D01*
X98767882Y-83155302D01*
X98825659Y-83200584D01*
X98880678Y-83220016D01*
X98881757Y-83220029D01*
X98885404Y-83218829D01*
X98885404Y-83139819D01*
X98852499Y-83119711D01*
X98797249Y-83066327D01*
X98728151Y-82990070D01*
X98653701Y-82901346D01*
X98582396Y-82810561D01*
X98522734Y-82728120D01*
X98483211Y-82664428D01*
X98471789Y-82633306D01*
X98491991Y-82592675D01*
X98545145Y-82534262D01*
X98614628Y-82474649D01*
X98691060Y-82418749D01*
X98752872Y-82379093D01*
X98786042Y-82364450D01*
X98813886Y-82383568D01*
X98866481Y-82434303D01*
X98934913Y-82506729D01*
X99010266Y-82590919D01*
X99083624Y-82676945D01*
X99105122Y-82703774D01*
X99105122Y-82589465D01*
X99068203Y-82574058D01*
X99047166Y-82544384D01*
X99065168Y-82507795D01*
X99077591Y-82493469D01*
X99115108Y-82459688D01*
X99144632Y-82466444D01*
X99165160Y-82485568D01*
X99191869Y-82521337D01*
X99176652Y-82549695D01*
X99155773Y-82566158D01*
X99105122Y-82589465D01*
X99105122Y-82703774D01*
X99146072Y-82754880D01*
X99184206Y-82807793D01*
X99208360Y-82862916D01*
X99207023Y-82899234D01*
X99171884Y-82937662D01*
X99109934Y-82990943D01*
X99035529Y-83048336D01*
X98963027Y-83099103D01*
X98906784Y-83132503D01*
X98885404Y-83139819D01*
X98885404Y-83218829D01*
X98933431Y-83203017D01*
X99009265Y-83158859D01*
X99095264Y-83097869D01*
X99177430Y-83030365D01*
X99241766Y-82966661D01*
X99263276Y-82938848D01*
X99288378Y-82893001D01*
X99288439Y-82853384D01*
X99261564Y-82797523D01*
X99249611Y-82777024D01*
X99192897Y-82680901D01*
X99224290Y-82643108D01*
X99224290Y-82443771D01*
X99228487Y-82428838D01*
X99262688Y-82392244D01*
X99330093Y-82330828D01*
X99433896Y-82241428D01*
X99528846Y-82161412D01*
X99636888Y-82072394D01*
X99730198Y-81998415D01*
X99801392Y-81945104D01*
X99843083Y-81918089D01*
X99850586Y-81916229D01*
X99835809Y-81936447D01*
X99788260Y-81983309D01*
X99716429Y-82049446D01*
X99628804Y-82127489D01*
X99533876Y-82210070D01*
X99440134Y-82289820D01*
X99356069Y-82359370D01*
X99290169Y-82411352D01*
X99250925Y-82438396D01*
X99246902Y-82440205D01*
X99224290Y-82443771D01*
X99224290Y-82643108D01*
X99281052Y-82574774D01*
X99335051Y-82517046D01*
X99419286Y-82435528D01*
X99522781Y-82340507D01*
X99634561Y-82242267D01*
X99649077Y-82229841D01*
X99760642Y-82135016D01*
X99838867Y-82070827D01*
X99891086Y-82033192D01*
X99916734Y-82021598D01*
X99916734Y-81870533D01*
X99891793Y-81833883D01*
X99914348Y-81782048D01*
X99983644Y-81714067D01*
X100056923Y-81665598D01*
X100106574Y-81659479D01*
X100128691Y-81695830D01*
X100129474Y-81709615D01*
X100109759Y-81748612D01*
X100061709Y-81796560D01*
X100001969Y-81840869D01*
X99947182Y-81868950D01*
X99916734Y-81870533D01*
X99916734Y-82021598D01*
X99924630Y-82018028D01*
X99946829Y-82021254D01*
X99965017Y-82038786D01*
X99973178Y-82049375D01*
X100013245Y-82102223D01*
X100013245Y-81964790D01*
X100012933Y-81964499D01*
X100012676Y-81931946D01*
X100057531Y-81877553D01*
X100097636Y-81841245D01*
X100159380Y-81785379D01*
X100200018Y-81742825D01*
X100209551Y-81727367D01*
X100194258Y-81696524D01*
X100156787Y-81643794D01*
X100148441Y-81633196D01*
X100087463Y-81556995D01*
X99972254Y-81653249D01*
X99893514Y-81715714D01*
X99849900Y-81744016D01*
X99843631Y-81739041D01*
X99876928Y-81701675D01*
X99942316Y-81641297D01*
X100062632Y-81535372D01*
X100017086Y-81455279D01*
X99990597Y-81399103D01*
X99996455Y-81376595D01*
X100005741Y-81375187D01*
X100054666Y-81352607D01*
X100112590Y-81293478D01*
X100168203Y-81210717D01*
X100193050Y-81161292D01*
X100234590Y-81067713D01*
X100218961Y-81169046D01*
X100216247Y-81254306D01*
X100243537Y-81314323D01*
X100250757Y-81322783D01*
X100319053Y-81367521D01*
X100363360Y-81370398D01*
X100363360Y-81287699D01*
X100330243Y-81268441D01*
X100298793Y-81220762D01*
X100315849Y-81181088D01*
X100352349Y-81166000D01*
X100396060Y-81178380D01*
X100418136Y-81219719D01*
X100407961Y-81266650D01*
X100401525Y-81274251D01*
X100363360Y-81287699D01*
X100363360Y-81370398D01*
X100393464Y-81372353D01*
X100458378Y-81342218D01*
X100498182Y-81282055D01*
X100503789Y-81242728D01*
X100512698Y-81193355D01*
X100545160Y-81143395D01*
X100609777Y-81081629D01*
X100657526Y-81042257D01*
X100811263Y-80918890D01*
X100924194Y-81045247D01*
X100981485Y-81111024D01*
X101020007Y-81158498D01*
X101031142Y-81176562D01*
X100793937Y-81372600D01*
X100594561Y-81536259D01*
X100430097Y-81669797D01*
X100297631Y-81775469D01*
X100194248Y-81855531D01*
X100117033Y-81912238D01*
X100063071Y-81947847D01*
X100029446Y-81964612D01*
X100013245Y-81964790D01*
X100013245Y-82102223D01*
X100017409Y-82107716D01*
X100146968Y-82002437D01*
X100209517Y-81951307D01*
X100303927Y-81873748D01*
X100420875Y-81777439D01*
X100551037Y-81670058D01*
X100673519Y-81568849D01*
X101070511Y-81240539D01*
X101171889Y-81354653D01*
X101230184Y-81418064D01*
X101266612Y-81446558D01*
X101278867Y-81446236D01*
X101278867Y-81341972D01*
X101276265Y-81341624D01*
X101249099Y-81317426D01*
X101196213Y-81260032D01*
X101124426Y-81177719D01*
X101040555Y-81078764D01*
X100951419Y-80971444D01*
X100863834Y-80864034D01*
X100784620Y-80764812D01*
X100720593Y-80682055D01*
X100678573Y-80624038D01*
X100665204Y-80599819D01*
X100682567Y-80574284D01*
X100704316Y-80551450D01*
X100704316Y-80439398D01*
X100690947Y-80426029D01*
X100704316Y-80412661D01*
X100717684Y-80426029D01*
X100704316Y-80439398D01*
X100704316Y-80551450D01*
X100725072Y-80529658D01*
X100731164Y-80523824D01*
X100748073Y-80507787D01*
X100748073Y-80298871D01*
X100708192Y-80282099D01*
X100703359Y-80278183D01*
X100689573Y-80268453D01*
X100679020Y-80260271D01*
X100675474Y-80249927D01*
X100682712Y-80233714D01*
X100704506Y-80207924D01*
X100744633Y-80168849D01*
X100806866Y-80112780D01*
X100894981Y-80036010D01*
X101012751Y-79934831D01*
X101163953Y-79805534D01*
X101322552Y-79669921D01*
X101501395Y-79518016D01*
X101643839Y-79399705D01*
X101753035Y-79312587D01*
X101832131Y-79254265D01*
X101884278Y-79222339D01*
X101912624Y-79214411D01*
X101917447Y-79216803D01*
X101944284Y-79253115D01*
X101947579Y-79264266D01*
X101927974Y-79285220D01*
X101872199Y-79336844D01*
X101784811Y-79415159D01*
X101670366Y-79516183D01*
X101533422Y-79635937D01*
X101378537Y-79770440D01*
X101210269Y-79915712D01*
X101033173Y-80067773D01*
X100851808Y-80222643D01*
X100791712Y-80273761D01*
X100748073Y-80298871D01*
X100748073Y-80507787D01*
X100797193Y-80461197D01*
X100861076Y-80537192D01*
X100900984Y-80584774D01*
X100967129Y-80663753D01*
X101051450Y-80764500D01*
X101145885Y-80877387D01*
X101182075Y-80920661D01*
X101439192Y-81228134D01*
X101365859Y-81288151D01*
X101313100Y-81326302D01*
X101278867Y-81341972D01*
X101278867Y-81446236D01*
X101294088Y-81445836D01*
X101324881Y-81422182D01*
X101360448Y-81395138D01*
X101390040Y-81397363D01*
X101431582Y-81433310D01*
X101451211Y-81453586D01*
X101452947Y-81455046D01*
X101452947Y-81348450D01*
X101439579Y-81335082D01*
X101452947Y-81321713D01*
X101466316Y-81335082D01*
X101452947Y-81348450D01*
X101452947Y-81455046D01*
X101506153Y-81499816D01*
X101522450Y-81506853D01*
X101522450Y-81214766D01*
X101500156Y-81195263D01*
X101450548Y-81141806D01*
X101379994Y-81061976D01*
X101294860Y-80963351D01*
X101201514Y-80853512D01*
X101106324Y-80740037D01*
X101015658Y-80630506D01*
X100935882Y-80532499D01*
X100873364Y-80453595D01*
X100834472Y-80401374D01*
X100824632Y-80384121D01*
X100844099Y-80362931D01*
X100898982Y-80311754D01*
X100983998Y-80235292D01*
X101093867Y-80138247D01*
X101223308Y-80025322D01*
X101366089Y-79902035D01*
X101543071Y-79749831D01*
X101683739Y-79628926D01*
X101792541Y-79536011D01*
X101873928Y-79467777D01*
X101932349Y-79420916D01*
X101972255Y-79392117D01*
X101998094Y-79378073D01*
X102014317Y-79375475D01*
X102025373Y-79381013D01*
X102035712Y-79391379D01*
X102043311Y-79398447D01*
X102073070Y-79429826D01*
X102130047Y-79495675D01*
X102208097Y-79588676D01*
X102301072Y-79701511D01*
X102397030Y-79819669D01*
X102708492Y-80205820D01*
X102602088Y-80298778D01*
X102390329Y-80483266D01*
X102193617Y-80653646D01*
X102015435Y-80806961D01*
X101859268Y-80940257D01*
X101728600Y-81050576D01*
X101626916Y-81134963D01*
X101557699Y-81190461D01*
X101524434Y-81214116D01*
X101522450Y-81214766D01*
X101522450Y-81506853D01*
X101551435Y-81519370D01*
X101560421Y-81518338D01*
X101568810Y-81515433D01*
X101578063Y-81515667D01*
X101590924Y-81522248D01*
X101610136Y-81538386D01*
X101624669Y-81553226D01*
X101624669Y-81371898D01*
X101607888Y-81370639D01*
X101576236Y-81330139D01*
X101592106Y-81291386D01*
X101623882Y-81264817D01*
X101656989Y-81238068D01*
X101724676Y-81181243D01*
X101821125Y-81099301D01*
X101940521Y-80997203D01*
X102077045Y-80879908D01*
X102224882Y-80752377D01*
X102227634Y-80749999D01*
X102393951Y-80606802D01*
X102524854Y-80495723D01*
X102624904Y-80413367D01*
X102698663Y-80356338D01*
X102750694Y-80321241D01*
X102785559Y-80304680D01*
X102807821Y-80303260D01*
X102818862Y-80309959D01*
X102825425Y-80324720D01*
X102818214Y-80347152D01*
X102793425Y-80381023D01*
X102747254Y-80430102D01*
X102675898Y-80498156D01*
X102575552Y-80588953D01*
X102442412Y-80706262D01*
X102272674Y-80853851D01*
X102249735Y-80873715D01*
X102066783Y-81031163D01*
X101919934Y-81155288D01*
X101805744Y-81248757D01*
X101720766Y-81314236D01*
X101661556Y-81354394D01*
X101624669Y-81371898D01*
X101624669Y-81553226D01*
X101638443Y-81567291D01*
X101678586Y-81612172D01*
X101733311Y-81676238D01*
X101805358Y-81762700D01*
X101897473Y-81874766D01*
X102012398Y-82015647D01*
X102152875Y-82188551D01*
X102321649Y-82396688D01*
X102513483Y-82633420D01*
X102662506Y-82816751D01*
X102803931Y-82989635D01*
X102933566Y-83147029D01*
X103047218Y-83283888D01*
X103140695Y-83395168D01*
X103209804Y-83475824D01*
X103250351Y-83520811D01*
X103254408Y-83524841D01*
X103335850Y-83602391D01*
X103405626Y-83575744D01*
X103405626Y-83487398D01*
X103393219Y-83465406D01*
X103391368Y-83444175D01*
X103376181Y-83413482D01*
X103325202Y-83413602D01*
X103303165Y-83413588D01*
X103276828Y-83402634D01*
X103242223Y-83376531D01*
X103195385Y-83331072D01*
X103132348Y-83262049D01*
X103049146Y-83165253D01*
X102941815Y-83036477D01*
X102806387Y-82871512D01*
X102754887Y-82808456D01*
X102526244Y-82527576D01*
X102323099Y-82276585D01*
X102146669Y-82057026D01*
X101998172Y-81870438D01*
X101878823Y-81718364D01*
X101789840Y-81602343D01*
X101732439Y-81523917D01*
X101707838Y-81484627D01*
X101706947Y-81481306D01*
X101726390Y-81458742D01*
X101781238Y-81406129D01*
X101866271Y-81328190D01*
X101976268Y-81229646D01*
X102106007Y-81115217D01*
X102250269Y-80989627D01*
X102258126Y-80982831D01*
X102405553Y-80855568D01*
X102541493Y-80738628D01*
X102660176Y-80636940D01*
X102755837Y-80555433D01*
X102822706Y-80499037D01*
X102855018Y-80472681D01*
X102855183Y-80472559D01*
X102879386Y-80461959D01*
X102907369Y-80470510D01*
X102946342Y-80504314D01*
X103003511Y-80569473D01*
X103076282Y-80659717D01*
X103180031Y-80788106D01*
X103258005Y-80878108D01*
X103315599Y-80934786D01*
X103358207Y-80963201D01*
X103391224Y-80968418D01*
X103402099Y-80965478D01*
X103440352Y-80978704D01*
X103506751Y-81037032D01*
X103601402Y-81140556D01*
X103631059Y-81175371D01*
X103714489Y-81276282D01*
X103767003Y-81345976D01*
X103775846Y-81361678D01*
X103775846Y-81197833D01*
X103734095Y-81167819D01*
X103712210Y-81147924D01*
X103651082Y-81081328D01*
X103633094Y-81040651D01*
X103656796Y-81027608D01*
X103689873Y-81047644D01*
X103733811Y-81094860D01*
X103773097Y-81149921D01*
X103792215Y-81193492D01*
X103792421Y-81196637D01*
X103775846Y-81197833D01*
X103775846Y-81361678D01*
X103793469Y-81392973D01*
X103798754Y-81425791D01*
X103788753Y-81451336D01*
X103776806Y-81482938D01*
X103784636Y-81520589D01*
X103817262Y-81575405D01*
X103879703Y-81658501D01*
X103885801Y-81666276D01*
X103945065Y-81744471D01*
X103986939Y-81805092D01*
X104004163Y-81837461D01*
X104003801Y-81839860D01*
X103976535Y-81857072D01*
X103916437Y-81892288D01*
X103848249Y-81931223D01*
X103703551Y-82013015D01*
X103661091Y-81928127D01*
X103620308Y-81868585D01*
X103577046Y-81835819D01*
X103572610Y-81834663D01*
X103520976Y-81844603D01*
X103450617Y-81880637D01*
X103377402Y-81931417D01*
X103317199Y-81985597D01*
X103285879Y-82031827D01*
X103284421Y-82040749D01*
X103265689Y-82094090D01*
X103230721Y-82137391D01*
X103195501Y-82175395D01*
X103195254Y-82209728D01*
X103221052Y-82255167D01*
X103253943Y-82303643D01*
X103311974Y-82385996D01*
X103388567Y-82493058D01*
X103477138Y-82615657D01*
X103571109Y-82744623D01*
X103624365Y-82817194D01*
X103646197Y-82811908D01*
X103646197Y-82653814D01*
X103610602Y-82627545D01*
X103557289Y-82567721D01*
X103495267Y-82487100D01*
X103433547Y-82398439D01*
X103381140Y-82314496D01*
X103347056Y-82248031D01*
X103338925Y-82218734D01*
X103344911Y-82184509D01*
X103368728Y-82197430D01*
X103415804Y-82213810D01*
X103445799Y-82202972D01*
X103445799Y-82084095D01*
X103416121Y-82082487D01*
X103396456Y-82048595D01*
X103428344Y-82004093D01*
X103478441Y-81968781D01*
X103543647Y-81941753D01*
X103578184Y-81952360D01*
X103577522Y-81982583D01*
X103544606Y-82023150D01*
X103495382Y-82061255D01*
X103445799Y-82084095D01*
X103445799Y-82202972D01*
X103448938Y-82201837D01*
X103481208Y-82190675D01*
X103495241Y-82211263D01*
X103498316Y-82274370D01*
X103498316Y-82274892D01*
X103516596Y-82367545D01*
X103563911Y-82444584D01*
X103628968Y-82491036D01*
X103666671Y-82498134D01*
X103670450Y-82498834D01*
X103670450Y-82415050D01*
X103643815Y-82411440D01*
X103608755Y-82379429D01*
X103582714Y-82337414D01*
X103578526Y-82318109D01*
X103589634Y-82302908D01*
X103623895Y-82334402D01*
X103629698Y-82341436D01*
X103662536Y-82388661D01*
X103670628Y-82414852D01*
X103670450Y-82415050D01*
X103670450Y-82498834D01*
X103701998Y-82504679D01*
X103690346Y-82532245D01*
X103685756Y-82537899D01*
X103665458Y-82591376D01*
X103669020Y-82620052D01*
X103668813Y-82652461D01*
X103646197Y-82653814D01*
X103646197Y-82811908D01*
X103647146Y-82811678D01*
X103664530Y-82797141D01*
X103714754Y-82772185D01*
X103761434Y-82765503D01*
X103805739Y-82751811D01*
X103813210Y-82747973D01*
X103813210Y-82645841D01*
X103791848Y-82644833D01*
X103768483Y-82621083D01*
X103781431Y-82591068D01*
X103810470Y-82564280D01*
X103810470Y-82362870D01*
X103729801Y-82337664D01*
X103707632Y-82320201D01*
X103665017Y-82251532D01*
X103668042Y-82176629D01*
X103715789Y-82113661D01*
X103718160Y-82111966D01*
X103780617Y-82075855D01*
X103812316Y-82078952D01*
X103819158Y-82108399D01*
X103835348Y-82152228D01*
X103875432Y-82212766D01*
X103887093Y-82227189D01*
X103929116Y-82279944D01*
X103938347Y-82308241D01*
X103917001Y-82328043D01*
X103902219Y-82336188D01*
X103810470Y-82362870D01*
X103810470Y-82564280D01*
X103825842Y-82550099D01*
X103896727Y-82505769D01*
X103947851Y-82505217D01*
X103963583Y-82520619D01*
X103954430Y-82549473D01*
X103914568Y-82588459D01*
X103861620Y-82624831D01*
X103813210Y-82645841D01*
X103813210Y-82747973D01*
X103873487Y-82717000D01*
X103950030Y-82670467D01*
X104020722Y-82621610D01*
X104070917Y-82579826D01*
X104086526Y-82556926D01*
X104072603Y-82530431D01*
X104038441Y-82479038D01*
X104031961Y-82469865D01*
X103977396Y-82393236D01*
X104049863Y-82347726D01*
X104049863Y-82230766D01*
X103980639Y-82210095D01*
X103929372Y-82158359D01*
X103901776Y-82090970D01*
X103903566Y-82023340D01*
X103940456Y-81970883D01*
X103951084Y-81964338D01*
X104005699Y-81939982D01*
X104028765Y-81949045D01*
X104033053Y-81986230D01*
X104050400Y-82038884D01*
X104092572Y-82099920D01*
X104096660Y-82104433D01*
X104135794Y-82166211D01*
X104126195Y-82209752D01*
X104069754Y-82229956D01*
X104049863Y-82230766D01*
X104049863Y-82347726D01*
X104078751Y-82329584D01*
X104181158Y-82265792D01*
X104220343Y-82244772D01*
X104220343Y-82132339D01*
X104181761Y-82107221D01*
X104138461Y-82062690D01*
X104102666Y-82011451D01*
X104086597Y-81966208D01*
X104086526Y-81963744D01*
X104090975Y-81935312D01*
X104109777Y-81940076D01*
X104151115Y-81981837D01*
X104169114Y-82002125D01*
X104216218Y-82063675D01*
X104240981Y-82111894D01*
X104241984Y-82125340D01*
X104220343Y-82132339D01*
X104220343Y-82244772D01*
X104249902Y-82228915D01*
X104297191Y-82218384D01*
X104318683Y-82226998D01*
X104318683Y-82072935D01*
X104293695Y-82054497D01*
X104249697Y-82009345D01*
X104200344Y-81953104D01*
X104159287Y-81901399D01*
X104140178Y-81869857D01*
X104140000Y-81868428D01*
X104161189Y-81852452D01*
X104215632Y-81819336D01*
X104263683Y-81791894D01*
X104342479Y-81748434D01*
X104385436Y-81728647D01*
X104403426Y-81730184D01*
X104407322Y-81750692D01*
X104407368Y-81760820D01*
X104423558Y-81804720D01*
X104463606Y-81865176D01*
X104474847Y-81879067D01*
X104505403Y-81915381D01*
X104505403Y-81713854D01*
X104489508Y-81710184D01*
X104487579Y-81696029D01*
X104497362Y-81674022D01*
X104505403Y-81678205D01*
X104508603Y-81709935D01*
X104505403Y-81713854D01*
X104505403Y-81915381D01*
X104542325Y-81959261D01*
X104441426Y-82015969D01*
X104374617Y-82050951D01*
X104327380Y-82071057D01*
X104318683Y-82072935D01*
X104318683Y-82226998D01*
X104335232Y-82233631D01*
X104376234Y-82274087D01*
X104410673Y-82314121D01*
X104471834Y-82394010D01*
X104497216Y-82453228D01*
X104495776Y-82494320D01*
X104495714Y-82552154D01*
X104512812Y-82577415D01*
X104511081Y-82604348D01*
X104470277Y-82663889D01*
X104389809Y-82756802D01*
X104305276Y-82846565D01*
X104206737Y-82948043D01*
X104137822Y-83015636D01*
X104091451Y-83054342D01*
X104060542Y-83069163D01*
X104038014Y-83065099D01*
X104018605Y-83048980D01*
X103980248Y-83017615D01*
X103950588Y-83026074D01*
X103928970Y-83046942D01*
X103900522Y-83083652D01*
X103912921Y-83108354D01*
X103931321Y-83121315D01*
X103949918Y-83140670D01*
X103941520Y-83164642D01*
X103899770Y-83201108D01*
X103824374Y-83253859D01*
X103734351Y-83311851D01*
X103635855Y-83370966D01*
X103541278Y-83424293D01*
X103463011Y-83464922D01*
X103413444Y-83485941D01*
X103405626Y-83487398D01*
X103405626Y-83575744D01*
X103451101Y-83558376D01*
X103557514Y-83508237D01*
X103690869Y-83431312D01*
X103838130Y-83336336D01*
X103986264Y-83232039D01*
X104122237Y-83127155D01*
X104217904Y-83044632D01*
X104321590Y-82944108D01*
X104422085Y-82838733D01*
X104512176Y-82736973D01*
X104584650Y-82647294D01*
X104632295Y-82578163D01*
X104648000Y-82539793D01*
X104632984Y-82502141D01*
X104593322Y-82435574D01*
X104537092Y-82353468D01*
X104527684Y-82340580D01*
X104470019Y-82259778D01*
X104427436Y-82195402D01*
X104407844Y-82159518D01*
X104407368Y-82157089D01*
X104428385Y-82134059D01*
X104483684Y-82092328D01*
X104561643Y-82040614D01*
X104567789Y-82036757D01*
X104585614Y-82025165D01*
X104585614Y-81794064D01*
X104569719Y-81790394D01*
X104567789Y-81776240D01*
X104577572Y-81754232D01*
X104585614Y-81758415D01*
X104588814Y-81790145D01*
X104585614Y-81794064D01*
X104585614Y-82025165D01*
X104652095Y-81981927D01*
X104700141Y-81941294D01*
X104721957Y-81902281D01*
X104727571Y-81852309D01*
X104727616Y-81836307D01*
X104703916Y-81721962D01*
M02*
