G04 #@! TF.GenerationSoftware,KiCad,Pcbnew,5.1.5-52549c5~84~ubuntu18.04.1*
G04 #@! TF.CreationDate,2019-12-31T14:26:09+01:00*
G04 #@! TF.ProjectId,schema-2.0,73636865-6d61-42d3-922e-302e6b696361,rev?*
G04 #@! TF.SameCoordinates,Original*
G04 #@! TF.FileFunction,Copper,L2,Bot*
G04 #@! TF.FilePolarity,Positive*
%FSLAX46Y46*%
G04 Gerber Fmt 4.6, Leading zero omitted, Abs format (unit mm)*
G04 Created by KiCad (PCBNEW 5.1.5-52549c5~84~ubuntu18.04.1) date 2019-12-31 14:26:09*
%MOMM*%
%LPD*%
G04 APERTURE LIST*
%ADD10O,1.950000X1.700000*%
%ADD11C,0.100000*%
%ADD12C,1.600000*%
%ADD13R,1.600000X1.600000*%
%ADD14C,4.400000*%
%ADD15O,1.600000X1.600000*%
%ADD16O,1.574800X2.286000*%
%ADD17C,1.524000*%
%ADD18C,0.250000*%
%ADD19C,1.000000*%
%ADD20C,0.254000*%
G04 APERTURE END LIST*
D10*
X128270000Y-85090000D03*
X128270000Y-87590000D03*
X128270000Y-90090000D03*
X128270000Y-92590000D03*
G04 #@! TA.AperFunction,ComponentPad*
D11*
G36*
X129019504Y-94241204D02*
G01*
X129043773Y-94244804D01*
X129067571Y-94250765D01*
X129090671Y-94259030D01*
X129112849Y-94269520D01*
X129133893Y-94282133D01*
X129153598Y-94296747D01*
X129171777Y-94313223D01*
X129188253Y-94331402D01*
X129202867Y-94351107D01*
X129215480Y-94372151D01*
X129225970Y-94394329D01*
X129234235Y-94417429D01*
X129240196Y-94441227D01*
X129243796Y-94465496D01*
X129245000Y-94490000D01*
X129245000Y-95690000D01*
X129243796Y-95714504D01*
X129240196Y-95738773D01*
X129234235Y-95762571D01*
X129225970Y-95785671D01*
X129215480Y-95807849D01*
X129202867Y-95828893D01*
X129188253Y-95848598D01*
X129171777Y-95866777D01*
X129153598Y-95883253D01*
X129133893Y-95897867D01*
X129112849Y-95910480D01*
X129090671Y-95920970D01*
X129067571Y-95929235D01*
X129043773Y-95935196D01*
X129019504Y-95938796D01*
X128995000Y-95940000D01*
X127545000Y-95940000D01*
X127520496Y-95938796D01*
X127496227Y-95935196D01*
X127472429Y-95929235D01*
X127449329Y-95920970D01*
X127427151Y-95910480D01*
X127406107Y-95897867D01*
X127386402Y-95883253D01*
X127368223Y-95866777D01*
X127351747Y-95848598D01*
X127337133Y-95828893D01*
X127324520Y-95807849D01*
X127314030Y-95785671D01*
X127305765Y-95762571D01*
X127299804Y-95738773D01*
X127296204Y-95714504D01*
X127295000Y-95690000D01*
X127295000Y-94490000D01*
X127296204Y-94465496D01*
X127299804Y-94441227D01*
X127305765Y-94417429D01*
X127314030Y-94394329D01*
X127324520Y-94372151D01*
X127337133Y-94351107D01*
X127351747Y-94331402D01*
X127368223Y-94313223D01*
X127386402Y-94296747D01*
X127406107Y-94282133D01*
X127427151Y-94269520D01*
X127449329Y-94259030D01*
X127472429Y-94250765D01*
X127496227Y-94244804D01*
X127520496Y-94241204D01*
X127545000Y-94240000D01*
X128995000Y-94240000D01*
X129019504Y-94241204D01*
G37*
G04 #@! TD.AperFunction*
D10*
X137160000Y-78620000D03*
X137160000Y-76120000D03*
X137160000Y-73620000D03*
G04 #@! TA.AperFunction,ComponentPad*
D11*
G36*
X137909504Y-70271204D02*
G01*
X137933773Y-70274804D01*
X137957571Y-70280765D01*
X137980671Y-70289030D01*
X138002849Y-70299520D01*
X138023893Y-70312133D01*
X138043598Y-70326747D01*
X138061777Y-70343223D01*
X138078253Y-70361402D01*
X138092867Y-70381107D01*
X138105480Y-70402151D01*
X138115970Y-70424329D01*
X138124235Y-70447429D01*
X138130196Y-70471227D01*
X138133796Y-70495496D01*
X138135000Y-70520000D01*
X138135000Y-71720000D01*
X138133796Y-71744504D01*
X138130196Y-71768773D01*
X138124235Y-71792571D01*
X138115970Y-71815671D01*
X138105480Y-71837849D01*
X138092867Y-71858893D01*
X138078253Y-71878598D01*
X138061777Y-71896777D01*
X138043598Y-71913253D01*
X138023893Y-71927867D01*
X138002849Y-71940480D01*
X137980671Y-71950970D01*
X137957571Y-71959235D01*
X137933773Y-71965196D01*
X137909504Y-71968796D01*
X137885000Y-71970000D01*
X136435000Y-71970000D01*
X136410496Y-71968796D01*
X136386227Y-71965196D01*
X136362429Y-71959235D01*
X136339329Y-71950970D01*
X136317151Y-71940480D01*
X136296107Y-71927867D01*
X136276402Y-71913253D01*
X136258223Y-71896777D01*
X136241747Y-71878598D01*
X136227133Y-71858893D01*
X136214520Y-71837849D01*
X136204030Y-71815671D01*
X136195765Y-71792571D01*
X136189804Y-71768773D01*
X136186204Y-71744504D01*
X136185000Y-71720000D01*
X136185000Y-70520000D01*
X136186204Y-70495496D01*
X136189804Y-70471227D01*
X136195765Y-70447429D01*
X136204030Y-70424329D01*
X136214520Y-70402151D01*
X136227133Y-70381107D01*
X136241747Y-70361402D01*
X136258223Y-70343223D01*
X136276402Y-70326747D01*
X136296107Y-70312133D01*
X136317151Y-70299520D01*
X136339329Y-70289030D01*
X136362429Y-70280765D01*
X136386227Y-70274804D01*
X136410496Y-70271204D01*
X136435000Y-70270000D01*
X137885000Y-70270000D01*
X137909504Y-70271204D01*
G37*
G04 #@! TD.AperFunction*
D10*
X137160000Y-109100000D03*
X137160000Y-106600000D03*
X137160000Y-104100000D03*
G04 #@! TA.AperFunction,ComponentPad*
D11*
G36*
X137909504Y-100751204D02*
G01*
X137933773Y-100754804D01*
X137957571Y-100760765D01*
X137980671Y-100769030D01*
X138002849Y-100779520D01*
X138023893Y-100792133D01*
X138043598Y-100806747D01*
X138061777Y-100823223D01*
X138078253Y-100841402D01*
X138092867Y-100861107D01*
X138105480Y-100882151D01*
X138115970Y-100904329D01*
X138124235Y-100927429D01*
X138130196Y-100951227D01*
X138133796Y-100975496D01*
X138135000Y-101000000D01*
X138135000Y-102200000D01*
X138133796Y-102224504D01*
X138130196Y-102248773D01*
X138124235Y-102272571D01*
X138115970Y-102295671D01*
X138105480Y-102317849D01*
X138092867Y-102338893D01*
X138078253Y-102358598D01*
X138061777Y-102376777D01*
X138043598Y-102393253D01*
X138023893Y-102407867D01*
X138002849Y-102420480D01*
X137980671Y-102430970D01*
X137957571Y-102439235D01*
X137933773Y-102445196D01*
X137909504Y-102448796D01*
X137885000Y-102450000D01*
X136435000Y-102450000D01*
X136410496Y-102448796D01*
X136386227Y-102445196D01*
X136362429Y-102439235D01*
X136339329Y-102430970D01*
X136317151Y-102420480D01*
X136296107Y-102407867D01*
X136276402Y-102393253D01*
X136258223Y-102376777D01*
X136241747Y-102358598D01*
X136227133Y-102338893D01*
X136214520Y-102317849D01*
X136204030Y-102295671D01*
X136195765Y-102272571D01*
X136189804Y-102248773D01*
X136186204Y-102224504D01*
X136185000Y-102200000D01*
X136185000Y-101000000D01*
X136186204Y-100975496D01*
X136189804Y-100951227D01*
X136195765Y-100927429D01*
X136204030Y-100904329D01*
X136214520Y-100882151D01*
X136227133Y-100861107D01*
X136241747Y-100841402D01*
X136258223Y-100823223D01*
X136276402Y-100806747D01*
X136296107Y-100792133D01*
X136317151Y-100779520D01*
X136339329Y-100769030D01*
X136362429Y-100760765D01*
X136386227Y-100754804D01*
X136410496Y-100751204D01*
X136435000Y-100750000D01*
X137885000Y-100750000D01*
X137909504Y-100751204D01*
G37*
G04 #@! TD.AperFunction*
D12*
X139780000Y-87630000D03*
X144780000Y-87630000D03*
X144780000Y-93980000D03*
X139780000Y-93980000D03*
X148510000Y-109220000D03*
D13*
X143510000Y-109220000D03*
D12*
X142320000Y-74930000D03*
D13*
X147320000Y-74930000D03*
D14*
X176530000Y-114300000D03*
X170180000Y-66040000D03*
X93980000Y-114300000D03*
X95250000Y-66040000D03*
D13*
X152400000Y-87630000D03*
D15*
X170180000Y-74930000D03*
X154940000Y-87630000D03*
X167640000Y-74930000D03*
X157480000Y-87630000D03*
X165100000Y-74930000D03*
X160020000Y-87630000D03*
X162560000Y-74930000D03*
X162560000Y-87630000D03*
X160020000Y-74930000D03*
X165100000Y-87630000D03*
X157480000Y-74930000D03*
X167640000Y-87630000D03*
X154940000Y-74930000D03*
X170180000Y-87630000D03*
X152400000Y-74930000D03*
D13*
X170180000Y-93980000D03*
D15*
X152400000Y-106680000D03*
X167640000Y-93980000D03*
X154940000Y-106680000D03*
X165100000Y-93980000D03*
X157480000Y-106680000D03*
X162560000Y-93980000D03*
X160020000Y-106680000D03*
X160020000Y-93980000D03*
X162560000Y-106680000D03*
X157480000Y-93980000D03*
X165100000Y-106680000D03*
X154940000Y-93980000D03*
X167640000Y-106680000D03*
X152400000Y-93980000D03*
X170180000Y-106680000D03*
D16*
X161290000Y-66040000D03*
X158750000Y-66040000D03*
X156210000Y-66040000D03*
X153670000Y-66040000D03*
X151130000Y-66040000D03*
X148590000Y-66040000D03*
X108966000Y-66040000D03*
X111506000Y-66040000D03*
X114046000Y-66040000D03*
X116586000Y-66040000D03*
X119126000Y-66040000D03*
X121666000Y-66040000D03*
X125730000Y-66040000D03*
X128270000Y-66040000D03*
X130810000Y-66040000D03*
X133350000Y-66040000D03*
X135890000Y-66040000D03*
X138430000Y-66040000D03*
X140970000Y-66040000D03*
X171450000Y-114300000D03*
X168910000Y-114300000D03*
X166370000Y-114300000D03*
X163830000Y-114300000D03*
X161290000Y-114300000D03*
X158750000Y-114300000D03*
X156210000Y-114300000D03*
X153670000Y-114300000D03*
X148590000Y-114300000D03*
X146050000Y-114300000D03*
X143510000Y-114300000D03*
X140970000Y-114300000D03*
X138430000Y-114300000D03*
X135890000Y-114300000D03*
X133350000Y-114300000D03*
X98806000Y-66052700D03*
X101346000Y-66052700D03*
X103886000Y-66052700D03*
X106426000Y-66052700D03*
X143510000Y-66052700D03*
X163830000Y-66052700D03*
X166370000Y-66052700D03*
D17*
X176530000Y-66052700D03*
X173990000Y-66052700D03*
X176530000Y-101612700D03*
X173990000Y-101612700D03*
X176530000Y-99072700D03*
X173990000Y-99072700D03*
X176530000Y-96532700D03*
X173990000Y-96532700D03*
X176530000Y-93992700D03*
X173990000Y-93992700D03*
X176530000Y-91452700D03*
X173990000Y-91452700D03*
X176530000Y-88912700D03*
X173990000Y-88912700D03*
X176530000Y-86372700D03*
X173990000Y-86372700D03*
X176530000Y-83832700D03*
X173990000Y-83832700D03*
X176530000Y-81292700D03*
X173990000Y-81292700D03*
X176530000Y-78752700D03*
X173990000Y-78752700D03*
X176530000Y-76212700D03*
X173990000Y-76212700D03*
X176530000Y-73672700D03*
X173990000Y-73672700D03*
X176530000Y-71132700D03*
X173990000Y-71132700D03*
X176530000Y-68592700D03*
X173990000Y-68592700D03*
X176530000Y-106692700D03*
X173990000Y-106692700D03*
X176530000Y-104152700D03*
X173990000Y-104152700D03*
X176530000Y-109232700D03*
X173990000Y-109232700D03*
D16*
X130810000Y-114312700D03*
X125730000Y-114312700D03*
X123190000Y-114312700D03*
X120650000Y-114312700D03*
X118110000Y-114312700D03*
X115570000Y-114312700D03*
X113030000Y-114312700D03*
X110490000Y-114312700D03*
X107950000Y-114312700D03*
D18*
X154940000Y-74930000D02*
X153814700Y-74930000D01*
X111506000Y-66040000D02*
X112618700Y-66040000D01*
X112618700Y-66040000D02*
X112618700Y-65483700D01*
X112618700Y-65483700D02*
X113537600Y-64564800D01*
X113537600Y-64564800D02*
X144012100Y-64564800D01*
X144012100Y-64564800D02*
X153814700Y-74367400D01*
X153814700Y-74367400D02*
X153814700Y-74930000D01*
X162560000Y-74930000D02*
X161434700Y-74930000D01*
X116586000Y-66040000D02*
X115473300Y-66040000D01*
X115473300Y-66040000D02*
X115473300Y-66596300D01*
X115473300Y-66596300D02*
X114549400Y-67520200D01*
X114549400Y-67520200D02*
X111024200Y-67520200D01*
X111024200Y-67520200D02*
X110334500Y-66830500D01*
X110334500Y-66830500D02*
X110334500Y-65282100D01*
X110334500Y-65282100D02*
X111516600Y-64100000D01*
X111516600Y-64100000D02*
X144227100Y-64100000D01*
X144227100Y-64100000D02*
X153931800Y-73804700D01*
X153931800Y-73804700D02*
X160590800Y-73804700D01*
X160590800Y-73804700D02*
X161434700Y-74648600D01*
X161434700Y-74648600D02*
X161434700Y-74930000D01*
X170180000Y-106680000D02*
X170180000Y-107805300D01*
X171450000Y-114300000D02*
X171450000Y-109075300D01*
X171450000Y-109075300D02*
X170180000Y-107805300D01*
X167640000Y-106680000D02*
X167640000Y-107805300D01*
X168910000Y-114300000D02*
X168910000Y-109075300D01*
X168910000Y-109075300D02*
X167640000Y-107805300D01*
X162560000Y-106680000D02*
X162560000Y-107805300D01*
X166370000Y-114300000D02*
X166370000Y-111615300D01*
X166370000Y-111615300D02*
X162560000Y-107805300D01*
X160020000Y-106680000D02*
X160020000Y-107805300D01*
X163830000Y-114300000D02*
X163830000Y-111615300D01*
X163830000Y-111615300D02*
X160020000Y-107805300D01*
X157480000Y-106680000D02*
X157480000Y-107805300D01*
X161290000Y-114300000D02*
X161290000Y-111615300D01*
X161290000Y-111615300D02*
X157480000Y-107805300D01*
X154940000Y-106680000D02*
X154940000Y-107805300D01*
X158750000Y-114300000D02*
X158750000Y-111615300D01*
X158750000Y-111615300D02*
X154940000Y-107805300D01*
X152400000Y-106680000D02*
X152400000Y-107805300D01*
X156210000Y-114300000D02*
X156210000Y-111615300D01*
X156210000Y-111615300D02*
X152400000Y-107805300D01*
X137160000Y-78620000D02*
X137160000Y-79795300D01*
X157480000Y-87630000D02*
X156354700Y-87630000D01*
X156354700Y-87630000D02*
X156354700Y-87348600D01*
X156354700Y-87348600D02*
X155510800Y-86504700D01*
X155510800Y-86504700D02*
X143869400Y-86504700D01*
X143869400Y-86504700D02*
X137160000Y-79795300D01*
X137160000Y-76120000D02*
X137160000Y-77295300D01*
X160020000Y-87630000D02*
X158894700Y-87630000D01*
X158894700Y-87630000D02*
X158894700Y-87348700D01*
X158894700Y-87348700D02*
X152777500Y-81231500D01*
X152777500Y-81231500D02*
X142271500Y-81231500D01*
X142271500Y-81231500D02*
X138335300Y-77295300D01*
X138335300Y-77295300D02*
X137160000Y-77295300D01*
X137160000Y-73620000D02*
X137160000Y-74795300D01*
X162560000Y-87630000D02*
X161434700Y-87630000D01*
X161434700Y-87630000D02*
X161434700Y-87348700D01*
X161434700Y-87348700D02*
X151449100Y-77363100D01*
X151449100Y-77363100D02*
X140903100Y-77363100D01*
X140903100Y-77363100D02*
X138335300Y-74795300D01*
X138335300Y-74795300D02*
X137160000Y-74795300D01*
X165100000Y-87630000D02*
X163974700Y-87630000D01*
X163974700Y-87630000D02*
X163974700Y-87348700D01*
X163974700Y-87348700D02*
X153157200Y-76531200D01*
X153157200Y-76531200D02*
X146842000Y-76531200D01*
X146842000Y-76531200D02*
X141430800Y-71120000D01*
X141430800Y-71120000D02*
X137160000Y-71120000D01*
D19*
X167640000Y-93980000D02*
X165134700Y-91474700D01*
X165134700Y-91474700D02*
X157284400Y-91474700D01*
X157284400Y-91474700D02*
X154940000Y-89130300D01*
X144780000Y-89130300D02*
X144780000Y-87630000D01*
X139780000Y-93980000D02*
X144629700Y-89130300D01*
X144629700Y-89130300D02*
X144780000Y-89130300D01*
X144780000Y-89130300D02*
X154940000Y-89130300D01*
X154940000Y-87630000D02*
X154940000Y-89130300D01*
X128270000Y-92590000D02*
X126594700Y-92590000D01*
X118110000Y-114312700D02*
X118110000Y-101074700D01*
X118110000Y-101074700D02*
X126594700Y-92590000D01*
X143055500Y-104824800D02*
X143510000Y-105279400D01*
X143510000Y-105279400D02*
X143510000Y-109220000D01*
X125730000Y-114312700D02*
X125730000Y-110291200D01*
X125730000Y-110291200D02*
X135977800Y-100043400D01*
X135977800Y-100043400D02*
X138274000Y-100043400D01*
X138274000Y-100043400D02*
X143055500Y-104824800D01*
X152400000Y-95480300D02*
X143055500Y-104824800D01*
X152400000Y-93980000D02*
X152400000Y-95480300D01*
D18*
X138430000Y-66040000D02*
X137317300Y-66040000D01*
X137317300Y-66040000D02*
X137317300Y-67152700D01*
X137317300Y-67152700D02*
X128270000Y-76200000D01*
X128270000Y-76200000D02*
X128270000Y-85090000D01*
D20*
G36*
X179680001Y-74897581D02*
G01*
X179676808Y-74930000D01*
X179680001Y-74962419D01*
X179689551Y-75059383D01*
X179695497Y-75078985D01*
X179727290Y-75183792D01*
X179788575Y-75298450D01*
X179850386Y-75373766D01*
X179850389Y-75373769D01*
X179871053Y-75398948D01*
X179896232Y-75419612D01*
X182220000Y-77743381D01*
X182220001Y-81247581D01*
X182220000Y-114026619D01*
X179896232Y-116350388D01*
X179871053Y-116371052D01*
X179850389Y-116396231D01*
X179850386Y-116396234D01*
X179788575Y-116471550D01*
X179727290Y-116586208D01*
X179689551Y-116710618D01*
X179676808Y-116840000D01*
X179680001Y-116872419D01*
X179680001Y-117450000D01*
X92100000Y-117450000D01*
X92100000Y-116429295D01*
X92172793Y-116502088D01*
X92637124Y-116812344D01*
X93153061Y-117026052D01*
X93700777Y-117135000D01*
X94259223Y-117135000D01*
X94806939Y-117026052D01*
X95322876Y-116812344D01*
X95787207Y-116502088D01*
X96182088Y-116107207D01*
X96492344Y-115642876D01*
X96706052Y-115126939D01*
X96815000Y-114579223D01*
X96815000Y-114020777D01*
X96788435Y-113887226D01*
X106527600Y-113887226D01*
X106527600Y-114738175D01*
X106548181Y-114947139D01*
X106629516Y-115215263D01*
X106761595Y-115462367D01*
X106939346Y-115678955D01*
X107155934Y-115856705D01*
X107403038Y-115988784D01*
X107671162Y-116070119D01*
X107950000Y-116097582D01*
X108228839Y-116070119D01*
X108496963Y-115988784D01*
X108744067Y-115856705D01*
X108960655Y-115678955D01*
X109138405Y-115462367D01*
X109220000Y-115309713D01*
X109301595Y-115462367D01*
X109479346Y-115678955D01*
X109695934Y-115856705D01*
X109943038Y-115988784D01*
X110211162Y-116070119D01*
X110490000Y-116097582D01*
X110768839Y-116070119D01*
X111036963Y-115988784D01*
X111284067Y-115856705D01*
X111500655Y-115678955D01*
X111678405Y-115462367D01*
X111760000Y-115309713D01*
X111841595Y-115462367D01*
X112019346Y-115678955D01*
X112235934Y-115856705D01*
X112483038Y-115988784D01*
X112751162Y-116070119D01*
X113030000Y-116097582D01*
X113308839Y-116070119D01*
X113576963Y-115988784D01*
X113824067Y-115856705D01*
X114040655Y-115678955D01*
X114218405Y-115462367D01*
X114300000Y-115309713D01*
X114381595Y-115462367D01*
X114559346Y-115678955D01*
X114775934Y-115856705D01*
X115023038Y-115988784D01*
X115291162Y-116070119D01*
X115570000Y-116097582D01*
X115848839Y-116070119D01*
X116116963Y-115988784D01*
X116364067Y-115856705D01*
X116580655Y-115678955D01*
X116758405Y-115462367D01*
X116840000Y-115309713D01*
X116921595Y-115462367D01*
X117099346Y-115678955D01*
X117315934Y-115856705D01*
X117563038Y-115988784D01*
X117831162Y-116070119D01*
X118110000Y-116097582D01*
X118388839Y-116070119D01*
X118656963Y-115988784D01*
X118904067Y-115856705D01*
X119120655Y-115678955D01*
X119298405Y-115462367D01*
X119377893Y-115313655D01*
X119384474Y-115329962D01*
X119537875Y-115564140D01*
X119734014Y-115763892D01*
X119965354Y-115921541D01*
X120223004Y-116031028D01*
X120302940Y-116047710D01*
X120523000Y-115925552D01*
X120523000Y-114439700D01*
X120777000Y-114439700D01*
X120777000Y-115925552D01*
X120997060Y-116047710D01*
X121076996Y-116031028D01*
X121334646Y-115921541D01*
X121565986Y-115763892D01*
X121762125Y-115564140D01*
X121915526Y-115329962D01*
X121920000Y-115318876D01*
X121924474Y-115329962D01*
X122077875Y-115564140D01*
X122274014Y-115763892D01*
X122505354Y-115921541D01*
X122763004Y-116031028D01*
X122842940Y-116047710D01*
X123063000Y-115925552D01*
X123063000Y-114439700D01*
X120777000Y-114439700D01*
X120523000Y-114439700D01*
X120503000Y-114439700D01*
X120503000Y-114185700D01*
X120523000Y-114185700D01*
X120523000Y-112699848D01*
X120777000Y-112699848D01*
X120777000Y-114185700D01*
X123063000Y-114185700D01*
X123063000Y-112699848D01*
X123317000Y-112699848D01*
X123317000Y-114185700D01*
X123337000Y-114185700D01*
X123337000Y-114439700D01*
X123317000Y-114439700D01*
X123317000Y-115925552D01*
X123537060Y-116047710D01*
X123616996Y-116031028D01*
X123874646Y-115921541D01*
X124105986Y-115763892D01*
X124302125Y-115564140D01*
X124455526Y-115329962D01*
X124462107Y-115313655D01*
X124541595Y-115462367D01*
X124719346Y-115678955D01*
X124935934Y-115856705D01*
X125183038Y-115988784D01*
X125451162Y-116070119D01*
X125730000Y-116097582D01*
X126008839Y-116070119D01*
X126276963Y-115988784D01*
X126524067Y-115856705D01*
X126740655Y-115678955D01*
X126918405Y-115462367D01*
X127050484Y-115215263D01*
X127131819Y-114947138D01*
X127152400Y-114738174D01*
X127152400Y-113887226D01*
X129387600Y-113887226D01*
X129387600Y-114738175D01*
X129408181Y-114947139D01*
X129489516Y-115215263D01*
X129621595Y-115462367D01*
X129799346Y-115678955D01*
X130015934Y-115856705D01*
X130263038Y-115988784D01*
X130531162Y-116070119D01*
X130810000Y-116097582D01*
X131088839Y-116070119D01*
X131356963Y-115988784D01*
X131604067Y-115856705D01*
X131820655Y-115678955D01*
X131998405Y-115462367D01*
X132083394Y-115303363D01*
X132161595Y-115449667D01*
X132339346Y-115666255D01*
X132555934Y-115844005D01*
X132803038Y-115976084D01*
X133071162Y-116057419D01*
X133350000Y-116084882D01*
X133628839Y-116057419D01*
X133896963Y-115976084D01*
X134144067Y-115844005D01*
X134360655Y-115666255D01*
X134538405Y-115449667D01*
X134620000Y-115297013D01*
X134701595Y-115449667D01*
X134879346Y-115666255D01*
X135095934Y-115844005D01*
X135343038Y-115976084D01*
X135611162Y-116057419D01*
X135890000Y-116084882D01*
X136168839Y-116057419D01*
X136436963Y-115976084D01*
X136684067Y-115844005D01*
X136900655Y-115666255D01*
X137078405Y-115449667D01*
X137160000Y-115297013D01*
X137241595Y-115449667D01*
X137419346Y-115666255D01*
X137635934Y-115844005D01*
X137883038Y-115976084D01*
X138151162Y-116057419D01*
X138430000Y-116084882D01*
X138708839Y-116057419D01*
X138976963Y-115976084D01*
X139224067Y-115844005D01*
X139440655Y-115666255D01*
X139618405Y-115449667D01*
X139700000Y-115297013D01*
X139781595Y-115449667D01*
X139959346Y-115666255D01*
X140175934Y-115844005D01*
X140423038Y-115976084D01*
X140691162Y-116057419D01*
X140970000Y-116084882D01*
X141248839Y-116057419D01*
X141516963Y-115976084D01*
X141764067Y-115844005D01*
X141980655Y-115666255D01*
X142158405Y-115449667D01*
X142240000Y-115297013D01*
X142321595Y-115449667D01*
X142499346Y-115666255D01*
X142715934Y-115844005D01*
X142963038Y-115976084D01*
X143231162Y-116057419D01*
X143510000Y-116084882D01*
X143788839Y-116057419D01*
X144056963Y-115976084D01*
X144304067Y-115844005D01*
X144520655Y-115666255D01*
X144698405Y-115449667D01*
X144780000Y-115297013D01*
X144861595Y-115449667D01*
X145039346Y-115666255D01*
X145255934Y-115844005D01*
X145503038Y-115976084D01*
X145771162Y-116057419D01*
X146050000Y-116084882D01*
X146328839Y-116057419D01*
X146596963Y-115976084D01*
X146844067Y-115844005D01*
X147060655Y-115666255D01*
X147238405Y-115449667D01*
X147320000Y-115297013D01*
X147401595Y-115449667D01*
X147579346Y-115666255D01*
X147795934Y-115844005D01*
X148043038Y-115976084D01*
X148311162Y-116057419D01*
X148590000Y-116084882D01*
X148868839Y-116057419D01*
X149136963Y-115976084D01*
X149384067Y-115844005D01*
X149600655Y-115666255D01*
X149778405Y-115449667D01*
X149910484Y-115202563D01*
X149991819Y-114934438D01*
X150012400Y-114725474D01*
X150012400Y-113874525D01*
X149991819Y-113665561D01*
X149910484Y-113397437D01*
X149778405Y-113150333D01*
X149600654Y-112933745D01*
X149384066Y-112755995D01*
X149136962Y-112623916D01*
X148868838Y-112542581D01*
X148590000Y-112515118D01*
X148311161Y-112542581D01*
X148043037Y-112623916D01*
X147795933Y-112755995D01*
X147579345Y-112933746D01*
X147401595Y-113150334D01*
X147320000Y-113302988D01*
X147238405Y-113150333D01*
X147060654Y-112933745D01*
X146844066Y-112755995D01*
X146596962Y-112623916D01*
X146328838Y-112542581D01*
X146050000Y-112515118D01*
X145771161Y-112542581D01*
X145503037Y-112623916D01*
X145255933Y-112755995D01*
X145039345Y-112933746D01*
X144861595Y-113150334D01*
X144780000Y-113302988D01*
X144698405Y-113150333D01*
X144520654Y-112933745D01*
X144304066Y-112755995D01*
X144056962Y-112623916D01*
X143788838Y-112542581D01*
X143510000Y-112515118D01*
X143231161Y-112542581D01*
X142963037Y-112623916D01*
X142715933Y-112755995D01*
X142499345Y-112933746D01*
X142321595Y-113150334D01*
X142240000Y-113302988D01*
X142158405Y-113150333D01*
X141980654Y-112933745D01*
X141764066Y-112755995D01*
X141516962Y-112623916D01*
X141248838Y-112542581D01*
X140970000Y-112515118D01*
X140691161Y-112542581D01*
X140423037Y-112623916D01*
X140175933Y-112755995D01*
X139959345Y-112933746D01*
X139781595Y-113150334D01*
X139700000Y-113302988D01*
X139618405Y-113150333D01*
X139440654Y-112933745D01*
X139224066Y-112755995D01*
X138976962Y-112623916D01*
X138708838Y-112542581D01*
X138430000Y-112515118D01*
X138151161Y-112542581D01*
X137883037Y-112623916D01*
X137635933Y-112755995D01*
X137419345Y-112933746D01*
X137241595Y-113150334D01*
X137160000Y-113302988D01*
X137078405Y-113150333D01*
X136900654Y-112933745D01*
X136684066Y-112755995D01*
X136436962Y-112623916D01*
X136168838Y-112542581D01*
X135890000Y-112515118D01*
X135611161Y-112542581D01*
X135343037Y-112623916D01*
X135095933Y-112755995D01*
X134879345Y-112933746D01*
X134701595Y-113150334D01*
X134620000Y-113302988D01*
X134538405Y-113150333D01*
X134360654Y-112933745D01*
X134144066Y-112755995D01*
X133896962Y-112623916D01*
X133628838Y-112542581D01*
X133350000Y-112515118D01*
X133071161Y-112542581D01*
X132803037Y-112623916D01*
X132555933Y-112755995D01*
X132339345Y-112933746D01*
X132161595Y-113150334D01*
X132076606Y-113309338D01*
X131998405Y-113163033D01*
X131820654Y-112946445D01*
X131604066Y-112768695D01*
X131356962Y-112636616D01*
X131088838Y-112555281D01*
X130810000Y-112527818D01*
X130531161Y-112555281D01*
X130263037Y-112636616D01*
X130015933Y-112768695D01*
X129799345Y-112946446D01*
X129621595Y-113163034D01*
X129489516Y-113410138D01*
X129408181Y-113678262D01*
X129387600Y-113887226D01*
X127152400Y-113887226D01*
X127152400Y-113887225D01*
X127131819Y-113678261D01*
X127050484Y-113410137D01*
X126918405Y-113163033D01*
X126865000Y-113097959D01*
X126865000Y-110761331D01*
X135546928Y-102079404D01*
X135546928Y-102200000D01*
X135563992Y-102373254D01*
X135614528Y-102539850D01*
X135696595Y-102693386D01*
X135807038Y-102827962D01*
X135941614Y-102938405D01*
X136043337Y-102992777D01*
X135979866Y-103044866D01*
X135794294Y-103270986D01*
X135656401Y-103528966D01*
X135571487Y-103808889D01*
X135542815Y-104100000D01*
X135571487Y-104391111D01*
X135656401Y-104671034D01*
X135794294Y-104929014D01*
X135979866Y-105155134D01*
X136205986Y-105340706D01*
X136223374Y-105350000D01*
X136205986Y-105359294D01*
X135979866Y-105544866D01*
X135794294Y-105770986D01*
X135656401Y-106028966D01*
X135571487Y-106308889D01*
X135542815Y-106600000D01*
X135571487Y-106891111D01*
X135656401Y-107171034D01*
X135794294Y-107429014D01*
X135979866Y-107655134D01*
X136205986Y-107840706D01*
X136223374Y-107850000D01*
X136205986Y-107859294D01*
X135979866Y-108044866D01*
X135794294Y-108270986D01*
X135656401Y-108528966D01*
X135571487Y-108808889D01*
X135542815Y-109100000D01*
X135571487Y-109391111D01*
X135656401Y-109671034D01*
X135794294Y-109929014D01*
X135979866Y-110155134D01*
X136205986Y-110340706D01*
X136463966Y-110478599D01*
X136743889Y-110563513D01*
X136962050Y-110585000D01*
X137357950Y-110585000D01*
X137576111Y-110563513D01*
X137856034Y-110478599D01*
X138114014Y-110340706D01*
X138340134Y-110155134D01*
X138525706Y-109929014D01*
X138663599Y-109671034D01*
X138748513Y-109391111D01*
X138777185Y-109100000D01*
X138748513Y-108808889D01*
X138663599Y-108528966D01*
X138525706Y-108270986D01*
X138340134Y-108044866D01*
X138114014Y-107859294D01*
X138096626Y-107850000D01*
X138114014Y-107840706D01*
X138340134Y-107655134D01*
X138525706Y-107429014D01*
X138663599Y-107171034D01*
X138748513Y-106891111D01*
X138777185Y-106600000D01*
X138748513Y-106308889D01*
X138663599Y-106028966D01*
X138525706Y-105770986D01*
X138340134Y-105544866D01*
X138114014Y-105359294D01*
X138096626Y-105350000D01*
X138114014Y-105340706D01*
X138340134Y-105155134D01*
X138525706Y-104929014D01*
X138663599Y-104671034D01*
X138748513Y-104391111D01*
X138777185Y-104100000D01*
X138748513Y-103808889D01*
X138663599Y-103528966D01*
X138525706Y-103270986D01*
X138340134Y-103044866D01*
X138276663Y-102992777D01*
X138378386Y-102938405D01*
X138512962Y-102827962D01*
X138623405Y-102693386D01*
X138705472Y-102539850D01*
X138756008Y-102373254D01*
X138773072Y-102200000D01*
X138773072Y-102147576D01*
X142213526Y-105587960D01*
X142249052Y-105631248D01*
X142292307Y-105666746D01*
X142375000Y-105749458D01*
X142375001Y-107879043D01*
X142355506Y-107889463D01*
X142258815Y-107968815D01*
X142179463Y-108065506D01*
X142120498Y-108175820D01*
X142084188Y-108295518D01*
X142071928Y-108420000D01*
X142071928Y-110020000D01*
X142084188Y-110144482D01*
X142120498Y-110264180D01*
X142179463Y-110374494D01*
X142258815Y-110471185D01*
X142355506Y-110550537D01*
X142465820Y-110609502D01*
X142585518Y-110645812D01*
X142710000Y-110658072D01*
X144310000Y-110658072D01*
X144434482Y-110645812D01*
X144554180Y-110609502D01*
X144664494Y-110550537D01*
X144761185Y-110471185D01*
X144840537Y-110374494D01*
X144899502Y-110264180D01*
X144915117Y-110212702D01*
X147696903Y-110212702D01*
X147768486Y-110456671D01*
X148023996Y-110577571D01*
X148298184Y-110646300D01*
X148580512Y-110660217D01*
X148860130Y-110618787D01*
X149126292Y-110523603D01*
X149251514Y-110456671D01*
X149323097Y-110212702D01*
X148510000Y-109399605D01*
X147696903Y-110212702D01*
X144915117Y-110212702D01*
X144935812Y-110144482D01*
X144948072Y-110020000D01*
X144948072Y-109290512D01*
X147069783Y-109290512D01*
X147111213Y-109570130D01*
X147206397Y-109836292D01*
X147273329Y-109961514D01*
X147517298Y-110033097D01*
X148330395Y-109220000D01*
X148689605Y-109220000D01*
X149502702Y-110033097D01*
X149746671Y-109961514D01*
X149867571Y-109706004D01*
X149936300Y-109431816D01*
X149950217Y-109149488D01*
X149908787Y-108869870D01*
X149813603Y-108603708D01*
X149746671Y-108478486D01*
X149502702Y-108406903D01*
X148689605Y-109220000D01*
X148330395Y-109220000D01*
X147517298Y-108406903D01*
X147273329Y-108478486D01*
X147152429Y-108733996D01*
X147083700Y-109008184D01*
X147069783Y-109290512D01*
X144948072Y-109290512D01*
X144948072Y-108420000D01*
X144935812Y-108295518D01*
X144915118Y-108227298D01*
X147696903Y-108227298D01*
X148510000Y-109040395D01*
X149323097Y-108227298D01*
X149251514Y-107983329D01*
X148996004Y-107862429D01*
X148721816Y-107793700D01*
X148439488Y-107779783D01*
X148159870Y-107821213D01*
X147893708Y-107916397D01*
X147768486Y-107983329D01*
X147696903Y-108227298D01*
X144915118Y-108227298D01*
X144899502Y-108175820D01*
X144840537Y-108065506D01*
X144761185Y-107968815D01*
X144664494Y-107889463D01*
X144645000Y-107879043D01*
X144645000Y-106538665D01*
X150965000Y-106538665D01*
X150965000Y-106821335D01*
X151020147Y-107098574D01*
X151128320Y-107359727D01*
X151285363Y-107594759D01*
X151485241Y-107794637D01*
X151645843Y-107901948D01*
X151648676Y-107930705D01*
X151650998Y-107954285D01*
X151694454Y-108097546D01*
X151765026Y-108229576D01*
X151799011Y-108270986D01*
X151860000Y-108345301D01*
X151888998Y-108369099D01*
X155450001Y-111930103D01*
X155450001Y-112737786D01*
X155415933Y-112755995D01*
X155199345Y-112933746D01*
X155021595Y-113150334D01*
X154940000Y-113302988D01*
X154858405Y-113150333D01*
X154680654Y-112933745D01*
X154464066Y-112755995D01*
X154216962Y-112623916D01*
X153948838Y-112542581D01*
X153670000Y-112515118D01*
X153391161Y-112542581D01*
X153123037Y-112623916D01*
X152875933Y-112755995D01*
X152659345Y-112933746D01*
X152481595Y-113150334D01*
X152349516Y-113397438D01*
X152268181Y-113665562D01*
X152247600Y-113874526D01*
X152247600Y-114725475D01*
X152268181Y-114934439D01*
X152349516Y-115202563D01*
X152481595Y-115449667D01*
X152659346Y-115666255D01*
X152875934Y-115844005D01*
X153123038Y-115976084D01*
X153391162Y-116057419D01*
X153670000Y-116084882D01*
X153948839Y-116057419D01*
X154216963Y-115976084D01*
X154464067Y-115844005D01*
X154680655Y-115666255D01*
X154858405Y-115449667D01*
X154940000Y-115297013D01*
X155021595Y-115449667D01*
X155199346Y-115666255D01*
X155415934Y-115844005D01*
X155663038Y-115976084D01*
X155931162Y-116057419D01*
X156210000Y-116084882D01*
X156488839Y-116057419D01*
X156756963Y-115976084D01*
X157004067Y-115844005D01*
X157220655Y-115666255D01*
X157398405Y-115449667D01*
X157480000Y-115297013D01*
X157561595Y-115449667D01*
X157739346Y-115666255D01*
X157955934Y-115844005D01*
X158203038Y-115976084D01*
X158471162Y-116057419D01*
X158750000Y-116084882D01*
X159028839Y-116057419D01*
X159296963Y-115976084D01*
X159544067Y-115844005D01*
X159760655Y-115666255D01*
X159938405Y-115449667D01*
X160020000Y-115297013D01*
X160101595Y-115449667D01*
X160279346Y-115666255D01*
X160495934Y-115844005D01*
X160743038Y-115976084D01*
X161011162Y-116057419D01*
X161290000Y-116084882D01*
X161568839Y-116057419D01*
X161836963Y-115976084D01*
X162084067Y-115844005D01*
X162300655Y-115666255D01*
X162478405Y-115449667D01*
X162560000Y-115297013D01*
X162641595Y-115449667D01*
X162819346Y-115666255D01*
X163035934Y-115844005D01*
X163283038Y-115976084D01*
X163551162Y-116057419D01*
X163830000Y-116084882D01*
X164108839Y-116057419D01*
X164376963Y-115976084D01*
X164624067Y-115844005D01*
X164840655Y-115666255D01*
X165018405Y-115449667D01*
X165100000Y-115297013D01*
X165181595Y-115449667D01*
X165359346Y-115666255D01*
X165575934Y-115844005D01*
X165823038Y-115976084D01*
X166091162Y-116057419D01*
X166370000Y-116084882D01*
X166648839Y-116057419D01*
X166916963Y-115976084D01*
X167164067Y-115844005D01*
X167380655Y-115666255D01*
X167558405Y-115449667D01*
X167640000Y-115297013D01*
X167721595Y-115449667D01*
X167899346Y-115666255D01*
X168115934Y-115844005D01*
X168363038Y-115976084D01*
X168631162Y-116057419D01*
X168910000Y-116084882D01*
X169188839Y-116057419D01*
X169456963Y-115976084D01*
X169704067Y-115844005D01*
X169920655Y-115666255D01*
X170098405Y-115449667D01*
X170180000Y-115297013D01*
X170261595Y-115449667D01*
X170439346Y-115666255D01*
X170655934Y-115844005D01*
X170903038Y-115976084D01*
X171171162Y-116057419D01*
X171450000Y-116084882D01*
X171728839Y-116057419D01*
X171996963Y-115976084D01*
X172244067Y-115844005D01*
X172460655Y-115666255D01*
X172638405Y-115449667D01*
X172770484Y-115202563D01*
X172851819Y-114934438D01*
X172872400Y-114725474D01*
X172872400Y-114020777D01*
X173695000Y-114020777D01*
X173695000Y-114579223D01*
X173803948Y-115126939D01*
X174017656Y-115642876D01*
X174327912Y-116107207D01*
X174722793Y-116502088D01*
X175187124Y-116812344D01*
X175703061Y-117026052D01*
X176250777Y-117135000D01*
X176809223Y-117135000D01*
X177356939Y-117026052D01*
X177872876Y-116812344D01*
X178337207Y-116502088D01*
X178732088Y-116107207D01*
X179042344Y-115642876D01*
X179256052Y-115126939D01*
X179365000Y-114579223D01*
X179365000Y-114020777D01*
X179256052Y-113473061D01*
X179042344Y-112957124D01*
X178732088Y-112492793D01*
X178337207Y-112097912D01*
X177872876Y-111787656D01*
X177356939Y-111573948D01*
X176809223Y-111465000D01*
X176250777Y-111465000D01*
X175703061Y-111573948D01*
X175187124Y-111787656D01*
X174722793Y-112097912D01*
X174327912Y-112492793D01*
X174017656Y-112957124D01*
X173803948Y-113473061D01*
X173695000Y-114020777D01*
X172872400Y-114020777D01*
X172872400Y-113874525D01*
X172851819Y-113665561D01*
X172770484Y-113397437D01*
X172638405Y-113150333D01*
X172460654Y-112933745D01*
X172244066Y-112755995D01*
X172210000Y-112737786D01*
X172210000Y-109112622D01*
X172213676Y-109075299D01*
X172210000Y-109037976D01*
X172210000Y-109037967D01*
X172199003Y-108926314D01*
X172155546Y-108783053D01*
X172084974Y-108651024D01*
X171990001Y-108535299D01*
X171961003Y-108511501D01*
X171169449Y-107719947D01*
X171294637Y-107594759D01*
X171451680Y-107359727D01*
X171559853Y-107098574D01*
X171615000Y-106821335D01*
X171615000Y-106538665D01*
X171559853Y-106261426D01*
X171451680Y-106000273D01*
X171294637Y-105765241D01*
X171094759Y-105565363D01*
X170859727Y-105408320D01*
X170598574Y-105300147D01*
X170321335Y-105245000D01*
X170038665Y-105245000D01*
X169761426Y-105300147D01*
X169500273Y-105408320D01*
X169265241Y-105565363D01*
X169065363Y-105765241D01*
X168910000Y-105997759D01*
X168754637Y-105765241D01*
X168554759Y-105565363D01*
X168319727Y-105408320D01*
X168058574Y-105300147D01*
X167781335Y-105245000D01*
X167498665Y-105245000D01*
X167221426Y-105300147D01*
X166960273Y-105408320D01*
X166725241Y-105565363D01*
X166525363Y-105765241D01*
X166370000Y-105997759D01*
X166214637Y-105765241D01*
X166014759Y-105565363D01*
X165779727Y-105408320D01*
X165518574Y-105300147D01*
X165241335Y-105245000D01*
X164958665Y-105245000D01*
X164681426Y-105300147D01*
X164420273Y-105408320D01*
X164185241Y-105565363D01*
X163985363Y-105765241D01*
X163830000Y-105997759D01*
X163674637Y-105765241D01*
X163474759Y-105565363D01*
X163239727Y-105408320D01*
X162978574Y-105300147D01*
X162701335Y-105245000D01*
X162418665Y-105245000D01*
X162141426Y-105300147D01*
X161880273Y-105408320D01*
X161645241Y-105565363D01*
X161445363Y-105765241D01*
X161290000Y-105997759D01*
X161134637Y-105765241D01*
X160934759Y-105565363D01*
X160699727Y-105408320D01*
X160438574Y-105300147D01*
X160161335Y-105245000D01*
X159878665Y-105245000D01*
X159601426Y-105300147D01*
X159340273Y-105408320D01*
X159105241Y-105565363D01*
X158905363Y-105765241D01*
X158750000Y-105997759D01*
X158594637Y-105765241D01*
X158394759Y-105565363D01*
X158159727Y-105408320D01*
X157898574Y-105300147D01*
X157621335Y-105245000D01*
X157338665Y-105245000D01*
X157061426Y-105300147D01*
X156800273Y-105408320D01*
X156565241Y-105565363D01*
X156365363Y-105765241D01*
X156210000Y-105997759D01*
X156054637Y-105765241D01*
X155854759Y-105565363D01*
X155619727Y-105408320D01*
X155358574Y-105300147D01*
X155081335Y-105245000D01*
X154798665Y-105245000D01*
X154521426Y-105300147D01*
X154260273Y-105408320D01*
X154025241Y-105565363D01*
X153825363Y-105765241D01*
X153670000Y-105997759D01*
X153514637Y-105765241D01*
X153314759Y-105565363D01*
X153079727Y-105408320D01*
X152818574Y-105300147D01*
X152541335Y-105245000D01*
X152258665Y-105245000D01*
X151981426Y-105300147D01*
X151720273Y-105408320D01*
X151485241Y-105565363D01*
X151285363Y-105765241D01*
X151128320Y-106000273D01*
X151020147Y-106261426D01*
X150965000Y-106538665D01*
X144645000Y-106538665D01*
X144645000Y-105335213D01*
X144650491Y-105279525D01*
X144645000Y-105223712D01*
X144645000Y-105223648D01*
X144639334Y-105166120D01*
X144628601Y-105057024D01*
X144628583Y-105056966D01*
X144628577Y-105056901D01*
X144595541Y-104947997D01*
X144582021Y-104903410D01*
X153163146Y-96322287D01*
X153206449Y-96286749D01*
X153290626Y-96184180D01*
X153348284Y-96113923D01*
X153453676Y-95916747D01*
X153518577Y-95702799D01*
X153540491Y-95480300D01*
X153535000Y-95424548D01*
X153535000Y-94864284D01*
X153671680Y-94659727D01*
X153676067Y-94649135D01*
X153787615Y-94835131D01*
X153976586Y-95043519D01*
X154202580Y-95211037D01*
X154456913Y-95331246D01*
X154590961Y-95371904D01*
X154813000Y-95249915D01*
X154813000Y-94107000D01*
X154793000Y-94107000D01*
X154793000Y-93853000D01*
X154813000Y-93853000D01*
X154813000Y-92710085D01*
X154590961Y-92588096D01*
X154456913Y-92628754D01*
X154202580Y-92748963D01*
X153976586Y-92916481D01*
X153787615Y-93124869D01*
X153676067Y-93310865D01*
X153671680Y-93300273D01*
X153514637Y-93065241D01*
X153314759Y-92865363D01*
X153079727Y-92708320D01*
X152818574Y-92600147D01*
X152541335Y-92545000D01*
X152258665Y-92545000D01*
X151981426Y-92600147D01*
X151720273Y-92708320D01*
X151485241Y-92865363D01*
X151285363Y-93065241D01*
X151128320Y-93300273D01*
X151020147Y-93561426D01*
X150965000Y-93838665D01*
X150965000Y-94121335D01*
X151020147Y-94398574D01*
X151128320Y-94659727D01*
X151265000Y-94864284D01*
X151265000Y-95010167D01*
X143055492Y-103219677D01*
X139115993Y-99280261D01*
X139080449Y-99236951D01*
X138907623Y-99095116D01*
X138710447Y-98989724D01*
X138710437Y-98989721D01*
X138710435Y-98989720D01*
X138671945Y-98978044D01*
X138496499Y-98924823D01*
X138496491Y-98924822D01*
X138496487Y-98924821D01*
X138402918Y-98915606D01*
X138329752Y-98908400D01*
X138329746Y-98908400D01*
X138273989Y-98902909D01*
X138218245Y-98908400D01*
X136033552Y-98908400D01*
X135977800Y-98902909D01*
X135922048Y-98908400D01*
X135755301Y-98924823D01*
X135541353Y-98989724D01*
X135344177Y-99095116D01*
X135171351Y-99236951D01*
X135135809Y-99280259D01*
X124966860Y-109449209D01*
X124923552Y-109484751D01*
X124781717Y-109657577D01*
X124753551Y-109710273D01*
X124676324Y-109854754D01*
X124611423Y-110068702D01*
X124589509Y-110291200D01*
X124595001Y-110346961D01*
X124595000Y-113097960D01*
X124541595Y-113163034D01*
X124462107Y-113311746D01*
X124455526Y-113295438D01*
X124302125Y-113061260D01*
X124105986Y-112861508D01*
X123874646Y-112703859D01*
X123616996Y-112594372D01*
X123537060Y-112577690D01*
X123317000Y-112699848D01*
X123063000Y-112699848D01*
X122842940Y-112577690D01*
X122763004Y-112594372D01*
X122505354Y-112703859D01*
X122274014Y-112861508D01*
X122077875Y-113061260D01*
X121924474Y-113295438D01*
X121920000Y-113306524D01*
X121915526Y-113295438D01*
X121762125Y-113061260D01*
X121565986Y-112861508D01*
X121334646Y-112703859D01*
X121076996Y-112594372D01*
X120997060Y-112577690D01*
X120777000Y-112699848D01*
X120523000Y-112699848D01*
X120302940Y-112577690D01*
X120223004Y-112594372D01*
X119965354Y-112703859D01*
X119734014Y-112861508D01*
X119537875Y-113061260D01*
X119384474Y-113295438D01*
X119377893Y-113311745D01*
X119298405Y-113163033D01*
X119245000Y-113097959D01*
X119245000Y-101544831D01*
X124849831Y-95940000D01*
X126656928Y-95940000D01*
X126669188Y-96064482D01*
X126705498Y-96184180D01*
X126764463Y-96294494D01*
X126843815Y-96391185D01*
X126940506Y-96470537D01*
X127050820Y-96529502D01*
X127170518Y-96565812D01*
X127295000Y-96578072D01*
X127984250Y-96575000D01*
X128143000Y-96416250D01*
X128143000Y-95217000D01*
X128397000Y-95217000D01*
X128397000Y-96416250D01*
X128555750Y-96575000D01*
X129245000Y-96578072D01*
X129369482Y-96565812D01*
X129489180Y-96529502D01*
X129599494Y-96470537D01*
X129696185Y-96391185D01*
X129775537Y-96294494D01*
X129834502Y-96184180D01*
X129870812Y-96064482D01*
X129883072Y-95940000D01*
X129880000Y-95375750D01*
X129721250Y-95217000D01*
X128397000Y-95217000D01*
X128143000Y-95217000D01*
X126818750Y-95217000D01*
X126660000Y-95375750D01*
X126656928Y-95940000D01*
X124849831Y-95940000D01*
X126668628Y-94121204D01*
X126656928Y-94240000D01*
X126660000Y-94804250D01*
X126818750Y-94963000D01*
X128143000Y-94963000D01*
X128143000Y-94943000D01*
X128397000Y-94943000D01*
X128397000Y-94963000D01*
X129721250Y-94963000D01*
X129880000Y-94804250D01*
X129883072Y-94240000D01*
X129870812Y-94115518D01*
X129834502Y-93995820D01*
X129775537Y-93885506D01*
X129696185Y-93788815D01*
X129599494Y-93709463D01*
X129489180Y-93650498D01*
X129454392Y-93639945D01*
X129635706Y-93419014D01*
X129773599Y-93161034D01*
X129858513Y-92881111D01*
X129887185Y-92590000D01*
X129858513Y-92298889D01*
X129773599Y-92018966D01*
X129635706Y-91760986D01*
X129450134Y-91534866D01*
X129224014Y-91349294D01*
X129206626Y-91340000D01*
X129224014Y-91330706D01*
X129450134Y-91145134D01*
X129635706Y-90919014D01*
X129773599Y-90661034D01*
X129858513Y-90381111D01*
X129887185Y-90090000D01*
X129858513Y-89798889D01*
X129773599Y-89518966D01*
X129635706Y-89260986D01*
X129450134Y-89034866D01*
X129224014Y-88849294D01*
X129206626Y-88840000D01*
X129224014Y-88830706D01*
X129450134Y-88645134D01*
X129468543Y-88622702D01*
X138966903Y-88622702D01*
X139038486Y-88866671D01*
X139293996Y-88987571D01*
X139568184Y-89056300D01*
X139850512Y-89070217D01*
X140130130Y-89028787D01*
X140396292Y-88933603D01*
X140521514Y-88866671D01*
X140593097Y-88622702D01*
X139780000Y-87809605D01*
X138966903Y-88622702D01*
X129468543Y-88622702D01*
X129635706Y-88419014D01*
X129773599Y-88161034D01*
X129858513Y-87881111D01*
X129876300Y-87700512D01*
X138339783Y-87700512D01*
X138381213Y-87980130D01*
X138476397Y-88246292D01*
X138543329Y-88371514D01*
X138787298Y-88443097D01*
X139600395Y-87630000D01*
X139959605Y-87630000D01*
X140772702Y-88443097D01*
X141016671Y-88371514D01*
X141137571Y-88116004D01*
X141206300Y-87841816D01*
X141220217Y-87559488D01*
X141178787Y-87279870D01*
X141083603Y-87013708D01*
X141016671Y-86888486D01*
X140772702Y-86816903D01*
X139959605Y-87630000D01*
X139600395Y-87630000D01*
X138787298Y-86816903D01*
X138543329Y-86888486D01*
X138422429Y-87143996D01*
X138353700Y-87418184D01*
X138339783Y-87700512D01*
X129876300Y-87700512D01*
X129887185Y-87590000D01*
X129858513Y-87298889D01*
X129773599Y-87018966D01*
X129635706Y-86760986D01*
X129534198Y-86637298D01*
X138966903Y-86637298D01*
X139780000Y-87450395D01*
X140593097Y-86637298D01*
X140521514Y-86393329D01*
X140266004Y-86272429D01*
X139991816Y-86203700D01*
X139709488Y-86189783D01*
X139429870Y-86231213D01*
X139163708Y-86326397D01*
X139038486Y-86393329D01*
X138966903Y-86637298D01*
X129534198Y-86637298D01*
X129450134Y-86534866D01*
X129224014Y-86349294D01*
X129206626Y-86340000D01*
X129224014Y-86330706D01*
X129450134Y-86145134D01*
X129635706Y-85919014D01*
X129773599Y-85661034D01*
X129858513Y-85381111D01*
X129887185Y-85090000D01*
X129858513Y-84798889D01*
X129773599Y-84518966D01*
X129635706Y-84260986D01*
X129450134Y-84034866D01*
X129224014Y-83849294D01*
X129030000Y-83745591D01*
X129030000Y-76514801D01*
X137828303Y-67716499D01*
X137850198Y-67698531D01*
X137883038Y-67716084D01*
X138151162Y-67797419D01*
X138430000Y-67824882D01*
X138708839Y-67797419D01*
X138976963Y-67716084D01*
X139224067Y-67584005D01*
X139440655Y-67406255D01*
X139618405Y-67189667D01*
X139700000Y-67037013D01*
X139781595Y-67189667D01*
X139959346Y-67406255D01*
X140175934Y-67584005D01*
X140423038Y-67716084D01*
X140691162Y-67797419D01*
X140970000Y-67824882D01*
X141248839Y-67797419D01*
X141516963Y-67716084D01*
X141764067Y-67584005D01*
X141980655Y-67406255D01*
X142158405Y-67189667D01*
X142236606Y-67043363D01*
X142321595Y-67202367D01*
X142499346Y-67418955D01*
X142715934Y-67596705D01*
X142963038Y-67728784D01*
X143231162Y-67810119D01*
X143510000Y-67837582D01*
X143788839Y-67810119D01*
X144056963Y-67728784D01*
X144304067Y-67596705D01*
X144520655Y-67418955D01*
X144698405Y-67202367D01*
X144830484Y-66955263D01*
X144911819Y-66687138D01*
X144925072Y-66552573D01*
X151939862Y-73567364D01*
X151720273Y-73658320D01*
X151485241Y-73815363D01*
X151285363Y-74015241D01*
X151128320Y-74250273D01*
X151020147Y-74511426D01*
X150965000Y-74788665D01*
X150965000Y-75071335D01*
X151020147Y-75348574D01*
X151128320Y-75609727D01*
X151236213Y-75771200D01*
X148754014Y-75771200D01*
X148758072Y-75730000D01*
X148758072Y-74130000D01*
X148745812Y-74005518D01*
X148709502Y-73885820D01*
X148650537Y-73775506D01*
X148571185Y-73678815D01*
X148474494Y-73599463D01*
X148364180Y-73540498D01*
X148244482Y-73504188D01*
X148120000Y-73491928D01*
X146520000Y-73491928D01*
X146395518Y-73504188D01*
X146275820Y-73540498D01*
X146165506Y-73599463D01*
X146068815Y-73678815D01*
X145989463Y-73775506D01*
X145930498Y-73885820D01*
X145894188Y-74005518D01*
X145881928Y-74130000D01*
X145881928Y-74496326D01*
X141994604Y-70609003D01*
X141970801Y-70579999D01*
X141855076Y-70485026D01*
X141723047Y-70414454D01*
X141579786Y-70370997D01*
X141468133Y-70360000D01*
X141468122Y-70360000D01*
X141430800Y-70356324D01*
X141393478Y-70360000D01*
X138757313Y-70360000D01*
X138756008Y-70346746D01*
X138705472Y-70180150D01*
X138623405Y-70026614D01*
X138512962Y-69892038D01*
X138378386Y-69781595D01*
X138224850Y-69699528D01*
X138058254Y-69648992D01*
X137885000Y-69631928D01*
X136435000Y-69631928D01*
X136261746Y-69648992D01*
X136095150Y-69699528D01*
X135941614Y-69781595D01*
X135807038Y-69892038D01*
X135696595Y-70026614D01*
X135614528Y-70180150D01*
X135563992Y-70346746D01*
X135546928Y-70520000D01*
X135546928Y-71720000D01*
X135563992Y-71893254D01*
X135614528Y-72059850D01*
X135696595Y-72213386D01*
X135807038Y-72347962D01*
X135941614Y-72458405D01*
X136043337Y-72512777D01*
X135979866Y-72564866D01*
X135794294Y-72790986D01*
X135656401Y-73048966D01*
X135571487Y-73328889D01*
X135542815Y-73620000D01*
X135571487Y-73911111D01*
X135656401Y-74191034D01*
X135794294Y-74449014D01*
X135979866Y-74675134D01*
X136205986Y-74860706D01*
X136223374Y-74870000D01*
X136205986Y-74879294D01*
X135979866Y-75064866D01*
X135794294Y-75290986D01*
X135656401Y-75548966D01*
X135571487Y-75828889D01*
X135542815Y-76120000D01*
X135571487Y-76411111D01*
X135656401Y-76691034D01*
X135794294Y-76949014D01*
X135979866Y-77175134D01*
X136205986Y-77360706D01*
X136223374Y-77370000D01*
X136205986Y-77379294D01*
X135979866Y-77564866D01*
X135794294Y-77790986D01*
X135656401Y-78048966D01*
X135571487Y-78328889D01*
X135542815Y-78620000D01*
X135571487Y-78911111D01*
X135656401Y-79191034D01*
X135794294Y-79449014D01*
X135979866Y-79675134D01*
X136205986Y-79860706D01*
X136420412Y-79975319D01*
X136454454Y-80087546D01*
X136525026Y-80219576D01*
X136596201Y-80306302D01*
X136620000Y-80335301D01*
X136648998Y-80359099D01*
X143305605Y-87015708D01*
X143329399Y-87044701D01*
X143358392Y-87068495D01*
X143358396Y-87068499D01*
X143429085Y-87126511D01*
X143433738Y-87130330D01*
X143400147Y-87211426D01*
X143345000Y-87488665D01*
X143345000Y-87771335D01*
X143400147Y-88048574D01*
X143508320Y-88309727D01*
X143643231Y-88511636D01*
X139602718Y-92552150D01*
X139361426Y-92600147D01*
X139100273Y-92708320D01*
X138865241Y-92865363D01*
X138665363Y-93065241D01*
X138508320Y-93300273D01*
X138400147Y-93561426D01*
X138345000Y-93838665D01*
X138345000Y-94121335D01*
X138400147Y-94398574D01*
X138508320Y-94659727D01*
X138665363Y-94894759D01*
X138865241Y-95094637D01*
X139100273Y-95251680D01*
X139361426Y-95359853D01*
X139638665Y-95415000D01*
X139921335Y-95415000D01*
X140198574Y-95359853D01*
X140459727Y-95251680D01*
X140694759Y-95094637D01*
X140816694Y-94972702D01*
X143966903Y-94972702D01*
X144038486Y-95216671D01*
X144293996Y-95337571D01*
X144568184Y-95406300D01*
X144850512Y-95420217D01*
X145130130Y-95378787D01*
X145396292Y-95283603D01*
X145521514Y-95216671D01*
X145593097Y-94972702D01*
X144780000Y-94159605D01*
X143966903Y-94972702D01*
X140816694Y-94972702D01*
X140894637Y-94894759D01*
X141051680Y-94659727D01*
X141159853Y-94398574D01*
X141207850Y-94157282D01*
X141314620Y-94050512D01*
X143339783Y-94050512D01*
X143381213Y-94330130D01*
X143476397Y-94596292D01*
X143543329Y-94721514D01*
X143787298Y-94793097D01*
X144600395Y-93980000D01*
X144959605Y-93980000D01*
X145772702Y-94793097D01*
X146016671Y-94721514D01*
X146137571Y-94466004D01*
X146206300Y-94191816D01*
X146220217Y-93909488D01*
X146178787Y-93629870D01*
X146083603Y-93363708D01*
X146016671Y-93238486D01*
X145772702Y-93166903D01*
X144959605Y-93980000D01*
X144600395Y-93980000D01*
X143787298Y-93166903D01*
X143543329Y-93238486D01*
X143422429Y-93493996D01*
X143353700Y-93768184D01*
X143339783Y-94050512D01*
X141314620Y-94050512D01*
X142377834Y-92987298D01*
X143966903Y-92987298D01*
X144780000Y-93800395D01*
X145593097Y-92987298D01*
X145521514Y-92743329D01*
X145266004Y-92622429D01*
X144991816Y-92553700D01*
X144709488Y-92539783D01*
X144429870Y-92581213D01*
X144163708Y-92676397D01*
X144038486Y-92743329D01*
X143966903Y-92987298D01*
X142377834Y-92987298D01*
X145099833Y-90265300D01*
X154469869Y-90265300D01*
X156442409Y-92237841D01*
X156477951Y-92281149D01*
X156650777Y-92422984D01*
X156847953Y-92528376D01*
X157061901Y-92593277D01*
X157084683Y-92595521D01*
X157061426Y-92600147D01*
X156800273Y-92708320D01*
X156565241Y-92865363D01*
X156365363Y-93065241D01*
X156208320Y-93300273D01*
X156203933Y-93310865D01*
X156092385Y-93124869D01*
X155903414Y-92916481D01*
X155677420Y-92748963D01*
X155423087Y-92628754D01*
X155289039Y-92588096D01*
X155067000Y-92710085D01*
X155067000Y-93853000D01*
X155087000Y-93853000D01*
X155087000Y-94107000D01*
X155067000Y-94107000D01*
X155067000Y-95249915D01*
X155289039Y-95371904D01*
X155423087Y-95331246D01*
X155677420Y-95211037D01*
X155903414Y-95043519D01*
X156092385Y-94835131D01*
X156203933Y-94649135D01*
X156208320Y-94659727D01*
X156365363Y-94894759D01*
X156565241Y-95094637D01*
X156800273Y-95251680D01*
X157061426Y-95359853D01*
X157338665Y-95415000D01*
X157621335Y-95415000D01*
X157898574Y-95359853D01*
X158159727Y-95251680D01*
X158394759Y-95094637D01*
X158594637Y-94894759D01*
X158750000Y-94662241D01*
X158905363Y-94894759D01*
X159105241Y-95094637D01*
X159340273Y-95251680D01*
X159601426Y-95359853D01*
X159878665Y-95415000D01*
X160161335Y-95415000D01*
X160438574Y-95359853D01*
X160699727Y-95251680D01*
X160934759Y-95094637D01*
X161134637Y-94894759D01*
X161290000Y-94662241D01*
X161445363Y-94894759D01*
X161645241Y-95094637D01*
X161880273Y-95251680D01*
X162141426Y-95359853D01*
X162418665Y-95415000D01*
X162701335Y-95415000D01*
X162978574Y-95359853D01*
X163239727Y-95251680D01*
X163474759Y-95094637D01*
X163674637Y-94894759D01*
X163830000Y-94662241D01*
X163985363Y-94894759D01*
X164185241Y-95094637D01*
X164420273Y-95251680D01*
X164681426Y-95359853D01*
X164958665Y-95415000D01*
X165241335Y-95415000D01*
X165518574Y-95359853D01*
X165779727Y-95251680D01*
X166014759Y-95094637D01*
X166214637Y-94894759D01*
X166370000Y-94662241D01*
X166525363Y-94894759D01*
X166725241Y-95094637D01*
X166960273Y-95251680D01*
X167221426Y-95359853D01*
X167498665Y-95415000D01*
X167781335Y-95415000D01*
X168058574Y-95359853D01*
X168319727Y-95251680D01*
X168554759Y-95094637D01*
X168753357Y-94896039D01*
X168754188Y-94904482D01*
X168790498Y-95024180D01*
X168849463Y-95134494D01*
X168928815Y-95231185D01*
X169025506Y-95310537D01*
X169135820Y-95369502D01*
X169255518Y-95405812D01*
X169380000Y-95418072D01*
X169894250Y-95415000D01*
X170053000Y-95256250D01*
X170053000Y-94107000D01*
X170307000Y-94107000D01*
X170307000Y-95256250D01*
X170465750Y-95415000D01*
X170980000Y-95418072D01*
X171104482Y-95405812D01*
X171224180Y-95369502D01*
X171334494Y-95310537D01*
X171431185Y-95231185D01*
X171510537Y-95134494D01*
X171569502Y-95024180D01*
X171605812Y-94904482D01*
X171618072Y-94780000D01*
X171615000Y-94265750D01*
X171456250Y-94107000D01*
X170307000Y-94107000D01*
X170053000Y-94107000D01*
X170033000Y-94107000D01*
X170033000Y-93853000D01*
X170053000Y-93853000D01*
X170053000Y-92703750D01*
X170307000Y-92703750D01*
X170307000Y-93853000D01*
X171456250Y-93853000D01*
X171615000Y-93694250D01*
X171618072Y-93180000D01*
X171605812Y-93055518D01*
X171569502Y-92935820D01*
X171510537Y-92825506D01*
X171431185Y-92728815D01*
X171334494Y-92649463D01*
X171224180Y-92590498D01*
X171104482Y-92554188D01*
X170980000Y-92541928D01*
X170465750Y-92545000D01*
X170307000Y-92703750D01*
X170053000Y-92703750D01*
X169894250Y-92545000D01*
X169380000Y-92541928D01*
X169255518Y-92554188D01*
X169135820Y-92590498D01*
X169025506Y-92649463D01*
X168928815Y-92728815D01*
X168849463Y-92825506D01*
X168790498Y-92935820D01*
X168754188Y-93055518D01*
X168753357Y-93063961D01*
X168554759Y-92865363D01*
X168319727Y-92708320D01*
X168058574Y-92600147D01*
X167817282Y-92552150D01*
X165976696Y-90711565D01*
X165941149Y-90668251D01*
X165768323Y-90526416D01*
X165571147Y-90421024D01*
X165357199Y-90356123D01*
X165190452Y-90339700D01*
X165190451Y-90339700D01*
X165134700Y-90334209D01*
X165078949Y-90339700D01*
X157754532Y-90339700D01*
X156075000Y-88660169D01*
X156075000Y-88514284D01*
X156172187Y-88368833D01*
X156205714Y-88379003D01*
X156258053Y-88384158D01*
X156365363Y-88544759D01*
X156565241Y-88744637D01*
X156800273Y-88901680D01*
X157061426Y-89009853D01*
X157338665Y-89065000D01*
X157621335Y-89065000D01*
X157898574Y-89009853D01*
X158159727Y-88901680D01*
X158394759Y-88744637D01*
X158594637Y-88544759D01*
X158712187Y-88368833D01*
X158745714Y-88379003D01*
X158798053Y-88384158D01*
X158905363Y-88544759D01*
X159105241Y-88744637D01*
X159340273Y-88901680D01*
X159601426Y-89009853D01*
X159878665Y-89065000D01*
X160161335Y-89065000D01*
X160438574Y-89009853D01*
X160699727Y-88901680D01*
X160934759Y-88744637D01*
X161134637Y-88544759D01*
X161252187Y-88368833D01*
X161285714Y-88379003D01*
X161338053Y-88384158D01*
X161445363Y-88544759D01*
X161645241Y-88744637D01*
X161880273Y-88901680D01*
X162141426Y-89009853D01*
X162418665Y-89065000D01*
X162701335Y-89065000D01*
X162978574Y-89009853D01*
X163239727Y-88901680D01*
X163474759Y-88744637D01*
X163674637Y-88544759D01*
X163792187Y-88368833D01*
X163825714Y-88379003D01*
X163878053Y-88384158D01*
X163985363Y-88544759D01*
X164185241Y-88744637D01*
X164420273Y-88901680D01*
X164681426Y-89009853D01*
X164958665Y-89065000D01*
X165241335Y-89065000D01*
X165518574Y-89009853D01*
X165779727Y-88901680D01*
X166014759Y-88744637D01*
X166214637Y-88544759D01*
X166371680Y-88309727D01*
X166376067Y-88299135D01*
X166487615Y-88485131D01*
X166676586Y-88693519D01*
X166902580Y-88861037D01*
X167156913Y-88981246D01*
X167290961Y-89021904D01*
X167513000Y-88899915D01*
X167513000Y-87757000D01*
X167493000Y-87757000D01*
X167493000Y-87503000D01*
X167513000Y-87503000D01*
X167513000Y-86360085D01*
X167767000Y-86360085D01*
X167767000Y-87503000D01*
X167787000Y-87503000D01*
X167787000Y-87757000D01*
X167767000Y-87757000D01*
X167767000Y-88899915D01*
X167989039Y-89021904D01*
X168123087Y-88981246D01*
X168377420Y-88861037D01*
X168603414Y-88693519D01*
X168792385Y-88485131D01*
X168903933Y-88299135D01*
X168908320Y-88309727D01*
X169065363Y-88544759D01*
X169265241Y-88744637D01*
X169500273Y-88901680D01*
X169761426Y-89009853D01*
X170038665Y-89065000D01*
X170321335Y-89065000D01*
X170598574Y-89009853D01*
X170859727Y-88901680D01*
X171094759Y-88744637D01*
X171294637Y-88544759D01*
X171451680Y-88309727D01*
X171559853Y-88048574D01*
X171615000Y-87771335D01*
X171615000Y-87488665D01*
X171559853Y-87211426D01*
X171451680Y-86950273D01*
X171294637Y-86715241D01*
X171094759Y-86515363D01*
X170859727Y-86358320D01*
X170598574Y-86250147D01*
X170321335Y-86195000D01*
X170038665Y-86195000D01*
X169761426Y-86250147D01*
X169500273Y-86358320D01*
X169265241Y-86515363D01*
X169065363Y-86715241D01*
X168908320Y-86950273D01*
X168903933Y-86960865D01*
X168792385Y-86774869D01*
X168603414Y-86566481D01*
X168377420Y-86398963D01*
X168123087Y-86278754D01*
X167989039Y-86238096D01*
X167767000Y-86360085D01*
X167513000Y-86360085D01*
X167290961Y-86238096D01*
X167156913Y-86278754D01*
X166902580Y-86398963D01*
X166676586Y-86566481D01*
X166487615Y-86774869D01*
X166376067Y-86960865D01*
X166371680Y-86950273D01*
X166214637Y-86715241D01*
X166014759Y-86515363D01*
X165779727Y-86358320D01*
X165518574Y-86250147D01*
X165241335Y-86195000D01*
X164958665Y-86195000D01*
X164681426Y-86250147D01*
X164420273Y-86358320D01*
X164203779Y-86502977D01*
X153721004Y-76020203D01*
X153697201Y-75991199D01*
X153581476Y-75896226D01*
X153504380Y-75855016D01*
X153514637Y-75844759D01*
X153632187Y-75668833D01*
X153665714Y-75679003D01*
X153718053Y-75684158D01*
X153825363Y-75844759D01*
X154025241Y-76044637D01*
X154260273Y-76201680D01*
X154521426Y-76309853D01*
X154798665Y-76365000D01*
X155081335Y-76365000D01*
X155358574Y-76309853D01*
X155619727Y-76201680D01*
X155854759Y-76044637D01*
X156054637Y-75844759D01*
X156210000Y-75612241D01*
X156365363Y-75844759D01*
X156565241Y-76044637D01*
X156800273Y-76201680D01*
X157061426Y-76309853D01*
X157338665Y-76365000D01*
X157621335Y-76365000D01*
X157898574Y-76309853D01*
X158159727Y-76201680D01*
X158394759Y-76044637D01*
X158594637Y-75844759D01*
X158750000Y-75612241D01*
X158905363Y-75844759D01*
X159105241Y-76044637D01*
X159340273Y-76201680D01*
X159601426Y-76309853D01*
X159878665Y-76365000D01*
X160161335Y-76365000D01*
X160438574Y-76309853D01*
X160699727Y-76201680D01*
X160934759Y-76044637D01*
X161134637Y-75844759D01*
X161252187Y-75668833D01*
X161285714Y-75679003D01*
X161338053Y-75684158D01*
X161445363Y-75844759D01*
X161645241Y-76044637D01*
X161880273Y-76201680D01*
X162141426Y-76309853D01*
X162418665Y-76365000D01*
X162701335Y-76365000D01*
X162978574Y-76309853D01*
X163239727Y-76201680D01*
X163474759Y-76044637D01*
X163674637Y-75844759D01*
X163830000Y-75612241D01*
X163985363Y-75844759D01*
X164185241Y-76044637D01*
X164420273Y-76201680D01*
X164681426Y-76309853D01*
X164958665Y-76365000D01*
X165241335Y-76365000D01*
X165518574Y-76309853D01*
X165779727Y-76201680D01*
X166014759Y-76044637D01*
X166214637Y-75844759D01*
X166370000Y-75612241D01*
X166525363Y-75844759D01*
X166725241Y-76044637D01*
X166960273Y-76201680D01*
X167221426Y-76309853D01*
X167498665Y-76365000D01*
X167781335Y-76365000D01*
X168058574Y-76309853D01*
X168319727Y-76201680D01*
X168554759Y-76044637D01*
X168754637Y-75844759D01*
X168910000Y-75612241D01*
X169065363Y-75844759D01*
X169265241Y-76044637D01*
X169500273Y-76201680D01*
X169761426Y-76309853D01*
X170038665Y-76365000D01*
X170321335Y-76365000D01*
X170598574Y-76309853D01*
X170859727Y-76201680D01*
X171094759Y-76044637D01*
X171294637Y-75844759D01*
X171451680Y-75609727D01*
X171559853Y-75348574D01*
X171615000Y-75071335D01*
X171615000Y-74788665D01*
X171559853Y-74511426D01*
X171451680Y-74250273D01*
X171294637Y-74015241D01*
X171094759Y-73815363D01*
X170859727Y-73658320D01*
X170598574Y-73550147D01*
X170321335Y-73495000D01*
X170038665Y-73495000D01*
X169761426Y-73550147D01*
X169500273Y-73658320D01*
X169265241Y-73815363D01*
X169065363Y-74015241D01*
X168910000Y-74247759D01*
X168754637Y-74015241D01*
X168554759Y-73815363D01*
X168319727Y-73658320D01*
X168058574Y-73550147D01*
X167781335Y-73495000D01*
X167498665Y-73495000D01*
X167221426Y-73550147D01*
X166960273Y-73658320D01*
X166725241Y-73815363D01*
X166525363Y-74015241D01*
X166370000Y-74247759D01*
X166214637Y-74015241D01*
X166014759Y-73815363D01*
X165779727Y-73658320D01*
X165518574Y-73550147D01*
X165241335Y-73495000D01*
X164958665Y-73495000D01*
X164681426Y-73550147D01*
X164420273Y-73658320D01*
X164185241Y-73815363D01*
X163985363Y-74015241D01*
X163830000Y-74247759D01*
X163674637Y-74015241D01*
X163474759Y-73815363D01*
X163239727Y-73658320D01*
X162978574Y-73550147D01*
X162701335Y-73495000D01*
X162418665Y-73495000D01*
X162141426Y-73550147D01*
X161880273Y-73658320D01*
X161663838Y-73802937D01*
X161154603Y-73293702D01*
X161130801Y-73264699D01*
X161015076Y-73169726D01*
X160883047Y-73099154D01*
X160739786Y-73055697D01*
X160628133Y-73044700D01*
X160628122Y-73044700D01*
X160590800Y-73041024D01*
X160553478Y-73044700D01*
X154246602Y-73044700D01*
X148968951Y-67767050D01*
X149136963Y-67716084D01*
X149384067Y-67584005D01*
X149600655Y-67406255D01*
X149778405Y-67189667D01*
X149860000Y-67037013D01*
X149941595Y-67189667D01*
X150119346Y-67406255D01*
X150335934Y-67584005D01*
X150583038Y-67716084D01*
X150851162Y-67797419D01*
X151130000Y-67824882D01*
X151408839Y-67797419D01*
X151676963Y-67716084D01*
X151924067Y-67584005D01*
X152140655Y-67406255D01*
X152318405Y-67189667D01*
X152400000Y-67037013D01*
X152481595Y-67189667D01*
X152659346Y-67406255D01*
X152875934Y-67584005D01*
X153123038Y-67716084D01*
X153391162Y-67797419D01*
X153670000Y-67824882D01*
X153948839Y-67797419D01*
X154216963Y-67716084D01*
X154464067Y-67584005D01*
X154680655Y-67406255D01*
X154858405Y-67189667D01*
X154940000Y-67037013D01*
X155021595Y-67189667D01*
X155199346Y-67406255D01*
X155415934Y-67584005D01*
X155663038Y-67716084D01*
X155931162Y-67797419D01*
X156210000Y-67824882D01*
X156488839Y-67797419D01*
X156756963Y-67716084D01*
X157004067Y-67584005D01*
X157220655Y-67406255D01*
X157398405Y-67189667D01*
X157480000Y-67037013D01*
X157561595Y-67189667D01*
X157739346Y-67406255D01*
X157955934Y-67584005D01*
X158203038Y-67716084D01*
X158471162Y-67797419D01*
X158750000Y-67824882D01*
X159028839Y-67797419D01*
X159296963Y-67716084D01*
X159544067Y-67584005D01*
X159760655Y-67406255D01*
X159938405Y-67189667D01*
X160020000Y-67037013D01*
X160101595Y-67189667D01*
X160279346Y-67406255D01*
X160495934Y-67584005D01*
X160743038Y-67716084D01*
X161011162Y-67797419D01*
X161290000Y-67824882D01*
X161568839Y-67797419D01*
X161836963Y-67716084D01*
X162084067Y-67584005D01*
X162300655Y-67406255D01*
X162478405Y-67189667D01*
X162556606Y-67043363D01*
X162641595Y-67202367D01*
X162819346Y-67418955D01*
X163035934Y-67596705D01*
X163283038Y-67728784D01*
X163551162Y-67810119D01*
X163830000Y-67837582D01*
X164108839Y-67810119D01*
X164376963Y-67728784D01*
X164624067Y-67596705D01*
X164840655Y-67418955D01*
X165018405Y-67202367D01*
X165100000Y-67049713D01*
X165181595Y-67202367D01*
X165359346Y-67418955D01*
X165575934Y-67596705D01*
X165823038Y-67728784D01*
X166091162Y-67810119D01*
X166370000Y-67837582D01*
X166648839Y-67810119D01*
X166916963Y-67728784D01*
X167164067Y-67596705D01*
X167380655Y-67418955D01*
X167558405Y-67202367D01*
X167577832Y-67166021D01*
X167667656Y-67382876D01*
X167977912Y-67847207D01*
X168372793Y-68242088D01*
X168837124Y-68552344D01*
X169353061Y-68766052D01*
X169900777Y-68875000D01*
X170459223Y-68875000D01*
X171006939Y-68766052D01*
X171522876Y-68552344D01*
X171987207Y-68242088D01*
X172382088Y-67847207D01*
X172692344Y-67382876D01*
X172886095Y-66915121D01*
X172904880Y-66943235D01*
X173099465Y-67137820D01*
X173328273Y-67290705D01*
X173405515Y-67322700D01*
X173328273Y-67354695D01*
X173099465Y-67507580D01*
X172904880Y-67702165D01*
X172751995Y-67930973D01*
X172646686Y-68185210D01*
X172593000Y-68455108D01*
X172593000Y-68730292D01*
X172646686Y-69000190D01*
X172751995Y-69254427D01*
X172904880Y-69483235D01*
X173099465Y-69677820D01*
X173328273Y-69830705D01*
X173405515Y-69862700D01*
X173328273Y-69894695D01*
X173099465Y-70047580D01*
X172904880Y-70242165D01*
X172751995Y-70470973D01*
X172646686Y-70725210D01*
X172593000Y-70995108D01*
X172593000Y-71270292D01*
X172646686Y-71540190D01*
X172751995Y-71794427D01*
X172904880Y-72023235D01*
X173099465Y-72217820D01*
X173328273Y-72370705D01*
X173405515Y-72402700D01*
X173328273Y-72434695D01*
X173099465Y-72587580D01*
X172904880Y-72782165D01*
X172751995Y-73010973D01*
X172646686Y-73265210D01*
X172593000Y-73535108D01*
X172593000Y-73810292D01*
X172646686Y-74080190D01*
X172751995Y-74334427D01*
X172904880Y-74563235D01*
X173099465Y-74757820D01*
X173328273Y-74910705D01*
X173405515Y-74942700D01*
X173328273Y-74974695D01*
X173099465Y-75127580D01*
X172904880Y-75322165D01*
X172751995Y-75550973D01*
X172646686Y-75805210D01*
X172593000Y-76075108D01*
X172593000Y-76350292D01*
X172646686Y-76620190D01*
X172751995Y-76874427D01*
X172904880Y-77103235D01*
X173099465Y-77297820D01*
X173328273Y-77450705D01*
X173405515Y-77482700D01*
X173328273Y-77514695D01*
X173099465Y-77667580D01*
X172904880Y-77862165D01*
X172751995Y-78090973D01*
X172646686Y-78345210D01*
X172593000Y-78615108D01*
X172593000Y-78890292D01*
X172646686Y-79160190D01*
X172751995Y-79414427D01*
X172904880Y-79643235D01*
X173099465Y-79837820D01*
X173328273Y-79990705D01*
X173405515Y-80022700D01*
X173328273Y-80054695D01*
X173099465Y-80207580D01*
X172904880Y-80402165D01*
X172751995Y-80630973D01*
X172646686Y-80885210D01*
X172593000Y-81155108D01*
X172593000Y-81430292D01*
X172646686Y-81700190D01*
X172751995Y-81954427D01*
X172904880Y-82183235D01*
X173099465Y-82377820D01*
X173328273Y-82530705D01*
X173405515Y-82562700D01*
X173328273Y-82594695D01*
X173099465Y-82747580D01*
X172904880Y-82942165D01*
X172751995Y-83170973D01*
X172646686Y-83425210D01*
X172593000Y-83695108D01*
X172593000Y-83970292D01*
X172646686Y-84240190D01*
X172751995Y-84494427D01*
X172904880Y-84723235D01*
X173099465Y-84917820D01*
X173328273Y-85070705D01*
X173405515Y-85102700D01*
X173328273Y-85134695D01*
X173099465Y-85287580D01*
X172904880Y-85482165D01*
X172751995Y-85710973D01*
X172646686Y-85965210D01*
X172593000Y-86235108D01*
X172593000Y-86510292D01*
X172646686Y-86780190D01*
X172751995Y-87034427D01*
X172904880Y-87263235D01*
X173099465Y-87457820D01*
X173328273Y-87610705D01*
X173405515Y-87642700D01*
X173328273Y-87674695D01*
X173099465Y-87827580D01*
X172904880Y-88022165D01*
X172751995Y-88250973D01*
X172646686Y-88505210D01*
X172593000Y-88775108D01*
X172593000Y-89050292D01*
X172646686Y-89320190D01*
X172751995Y-89574427D01*
X172904880Y-89803235D01*
X173099465Y-89997820D01*
X173328273Y-90150705D01*
X173405515Y-90182700D01*
X173328273Y-90214695D01*
X173099465Y-90367580D01*
X172904880Y-90562165D01*
X172751995Y-90790973D01*
X172646686Y-91045210D01*
X172593000Y-91315108D01*
X172593000Y-91590292D01*
X172646686Y-91860190D01*
X172751995Y-92114427D01*
X172904880Y-92343235D01*
X173099465Y-92537820D01*
X173328273Y-92690705D01*
X173405515Y-92722700D01*
X173328273Y-92754695D01*
X173099465Y-92907580D01*
X172904880Y-93102165D01*
X172751995Y-93330973D01*
X172646686Y-93585210D01*
X172593000Y-93855108D01*
X172593000Y-94130292D01*
X172646686Y-94400190D01*
X172751995Y-94654427D01*
X172904880Y-94883235D01*
X173099465Y-95077820D01*
X173328273Y-95230705D01*
X173405515Y-95262700D01*
X173328273Y-95294695D01*
X173099465Y-95447580D01*
X172904880Y-95642165D01*
X172751995Y-95870973D01*
X172646686Y-96125210D01*
X172593000Y-96395108D01*
X172593000Y-96670292D01*
X172646686Y-96940190D01*
X172751995Y-97194427D01*
X172904880Y-97423235D01*
X173099465Y-97617820D01*
X173328273Y-97770705D01*
X173405515Y-97802700D01*
X173328273Y-97834695D01*
X173099465Y-97987580D01*
X172904880Y-98182165D01*
X172751995Y-98410973D01*
X172646686Y-98665210D01*
X172593000Y-98935108D01*
X172593000Y-99210292D01*
X172646686Y-99480190D01*
X172751995Y-99734427D01*
X172904880Y-99963235D01*
X173099465Y-100157820D01*
X173328273Y-100310705D01*
X173405515Y-100342700D01*
X173328273Y-100374695D01*
X173099465Y-100527580D01*
X172904880Y-100722165D01*
X172751995Y-100950973D01*
X172646686Y-101205210D01*
X172593000Y-101475108D01*
X172593000Y-101750292D01*
X172646686Y-102020190D01*
X172751995Y-102274427D01*
X172904880Y-102503235D01*
X173099465Y-102697820D01*
X173328273Y-102850705D01*
X173405515Y-102882700D01*
X173328273Y-102914695D01*
X173099465Y-103067580D01*
X172904880Y-103262165D01*
X172751995Y-103490973D01*
X172646686Y-103745210D01*
X172593000Y-104015108D01*
X172593000Y-104290292D01*
X172646686Y-104560190D01*
X172751995Y-104814427D01*
X172904880Y-105043235D01*
X173099465Y-105237820D01*
X173328273Y-105390705D01*
X173405515Y-105422700D01*
X173328273Y-105454695D01*
X173099465Y-105607580D01*
X172904880Y-105802165D01*
X172751995Y-106030973D01*
X172646686Y-106285210D01*
X172593000Y-106555108D01*
X172593000Y-106830292D01*
X172646686Y-107100190D01*
X172751995Y-107354427D01*
X172904880Y-107583235D01*
X173099465Y-107777820D01*
X173328273Y-107930705D01*
X173405515Y-107962700D01*
X173328273Y-107994695D01*
X173099465Y-108147580D01*
X172904880Y-108342165D01*
X172751995Y-108570973D01*
X172646686Y-108825210D01*
X172593000Y-109095108D01*
X172593000Y-109370292D01*
X172646686Y-109640190D01*
X172751995Y-109894427D01*
X172904880Y-110123235D01*
X173099465Y-110317820D01*
X173328273Y-110470705D01*
X173582510Y-110576014D01*
X173852408Y-110629700D01*
X174127592Y-110629700D01*
X174397490Y-110576014D01*
X174651727Y-110470705D01*
X174880535Y-110317820D01*
X175075120Y-110123235D01*
X175228005Y-109894427D01*
X175260000Y-109817185D01*
X175291995Y-109894427D01*
X175444880Y-110123235D01*
X175639465Y-110317820D01*
X175868273Y-110470705D01*
X176122510Y-110576014D01*
X176392408Y-110629700D01*
X176667592Y-110629700D01*
X176937490Y-110576014D01*
X177191727Y-110470705D01*
X177420535Y-110317820D01*
X177615120Y-110123235D01*
X177768005Y-109894427D01*
X177873314Y-109640190D01*
X177927000Y-109370292D01*
X177927000Y-109095108D01*
X177873314Y-108825210D01*
X177768005Y-108570973D01*
X177615120Y-108342165D01*
X177420535Y-108147580D01*
X177191727Y-107994695D01*
X177114485Y-107962700D01*
X177191727Y-107930705D01*
X177420535Y-107777820D01*
X177615120Y-107583235D01*
X177768005Y-107354427D01*
X177873314Y-107100190D01*
X177927000Y-106830292D01*
X177927000Y-106555108D01*
X177873314Y-106285210D01*
X177768005Y-106030973D01*
X177615120Y-105802165D01*
X177420535Y-105607580D01*
X177191727Y-105454695D01*
X177114485Y-105422700D01*
X177191727Y-105390705D01*
X177420535Y-105237820D01*
X177615120Y-105043235D01*
X177768005Y-104814427D01*
X177873314Y-104560190D01*
X177927000Y-104290292D01*
X177927000Y-104015108D01*
X177873314Y-103745210D01*
X177768005Y-103490973D01*
X177615120Y-103262165D01*
X177420535Y-103067580D01*
X177191727Y-102914695D01*
X177114485Y-102882700D01*
X177191727Y-102850705D01*
X177420535Y-102697820D01*
X177615120Y-102503235D01*
X177768005Y-102274427D01*
X177873314Y-102020190D01*
X177927000Y-101750292D01*
X177927000Y-101475108D01*
X177873314Y-101205210D01*
X177768005Y-100950973D01*
X177615120Y-100722165D01*
X177420535Y-100527580D01*
X177191727Y-100374695D01*
X177114485Y-100342700D01*
X177191727Y-100310705D01*
X177420535Y-100157820D01*
X177615120Y-99963235D01*
X177768005Y-99734427D01*
X177873314Y-99480190D01*
X177927000Y-99210292D01*
X177927000Y-98935108D01*
X177873314Y-98665210D01*
X177768005Y-98410973D01*
X177615120Y-98182165D01*
X177420535Y-97987580D01*
X177191727Y-97834695D01*
X177114485Y-97802700D01*
X177191727Y-97770705D01*
X177420535Y-97617820D01*
X177615120Y-97423235D01*
X177768005Y-97194427D01*
X177873314Y-96940190D01*
X177927000Y-96670292D01*
X177927000Y-96395108D01*
X177873314Y-96125210D01*
X177768005Y-95870973D01*
X177615120Y-95642165D01*
X177420535Y-95447580D01*
X177191727Y-95294695D01*
X177114485Y-95262700D01*
X177191727Y-95230705D01*
X177420535Y-95077820D01*
X177615120Y-94883235D01*
X177768005Y-94654427D01*
X177873314Y-94400190D01*
X177927000Y-94130292D01*
X177927000Y-93855108D01*
X177873314Y-93585210D01*
X177768005Y-93330973D01*
X177615120Y-93102165D01*
X177420535Y-92907580D01*
X177191727Y-92754695D01*
X177114485Y-92722700D01*
X177191727Y-92690705D01*
X177420535Y-92537820D01*
X177615120Y-92343235D01*
X177768005Y-92114427D01*
X177873314Y-91860190D01*
X177927000Y-91590292D01*
X177927000Y-91315108D01*
X177873314Y-91045210D01*
X177768005Y-90790973D01*
X177615120Y-90562165D01*
X177420535Y-90367580D01*
X177191727Y-90214695D01*
X177114485Y-90182700D01*
X177191727Y-90150705D01*
X177420535Y-89997820D01*
X177615120Y-89803235D01*
X177768005Y-89574427D01*
X177873314Y-89320190D01*
X177927000Y-89050292D01*
X177927000Y-88775108D01*
X177873314Y-88505210D01*
X177768005Y-88250973D01*
X177615120Y-88022165D01*
X177420535Y-87827580D01*
X177191727Y-87674695D01*
X177114485Y-87642700D01*
X177191727Y-87610705D01*
X177420535Y-87457820D01*
X177615120Y-87263235D01*
X177768005Y-87034427D01*
X177873314Y-86780190D01*
X177927000Y-86510292D01*
X177927000Y-86235108D01*
X177873314Y-85965210D01*
X177768005Y-85710973D01*
X177615120Y-85482165D01*
X177420535Y-85287580D01*
X177191727Y-85134695D01*
X177114485Y-85102700D01*
X177191727Y-85070705D01*
X177420535Y-84917820D01*
X177615120Y-84723235D01*
X177768005Y-84494427D01*
X177873314Y-84240190D01*
X177927000Y-83970292D01*
X177927000Y-83695108D01*
X177873314Y-83425210D01*
X177768005Y-83170973D01*
X177615120Y-82942165D01*
X177420535Y-82747580D01*
X177191727Y-82594695D01*
X177114485Y-82562700D01*
X177191727Y-82530705D01*
X177420535Y-82377820D01*
X177615120Y-82183235D01*
X177768005Y-81954427D01*
X177873314Y-81700190D01*
X177927000Y-81430292D01*
X177927000Y-81155108D01*
X177873314Y-80885210D01*
X177768005Y-80630973D01*
X177615120Y-80402165D01*
X177420535Y-80207580D01*
X177191727Y-80054695D01*
X177114485Y-80022700D01*
X177191727Y-79990705D01*
X177420535Y-79837820D01*
X177615120Y-79643235D01*
X177768005Y-79414427D01*
X177873314Y-79160190D01*
X177927000Y-78890292D01*
X177927000Y-78615108D01*
X177873314Y-78345210D01*
X177768005Y-78090973D01*
X177615120Y-77862165D01*
X177420535Y-77667580D01*
X177191727Y-77514695D01*
X177114485Y-77482700D01*
X177191727Y-77450705D01*
X177420535Y-77297820D01*
X177615120Y-77103235D01*
X177768005Y-76874427D01*
X177873314Y-76620190D01*
X177927000Y-76350292D01*
X177927000Y-76075108D01*
X177873314Y-75805210D01*
X177768005Y-75550973D01*
X177615120Y-75322165D01*
X177420535Y-75127580D01*
X177191727Y-74974695D01*
X177114485Y-74942700D01*
X177191727Y-74910705D01*
X177420535Y-74757820D01*
X177615120Y-74563235D01*
X177768005Y-74334427D01*
X177873314Y-74080190D01*
X177927000Y-73810292D01*
X177927000Y-73535108D01*
X177873314Y-73265210D01*
X177768005Y-73010973D01*
X177615120Y-72782165D01*
X177420535Y-72587580D01*
X177191727Y-72434695D01*
X177114485Y-72402700D01*
X177191727Y-72370705D01*
X177420535Y-72217820D01*
X177615120Y-72023235D01*
X177768005Y-71794427D01*
X177873314Y-71540190D01*
X177927000Y-71270292D01*
X177927000Y-70995108D01*
X177873314Y-70725210D01*
X177768005Y-70470973D01*
X177615120Y-70242165D01*
X177420535Y-70047580D01*
X177191727Y-69894695D01*
X177114485Y-69862700D01*
X177191727Y-69830705D01*
X177420535Y-69677820D01*
X177615120Y-69483235D01*
X177768005Y-69254427D01*
X177873314Y-69000190D01*
X177927000Y-68730292D01*
X177927000Y-68455108D01*
X177873314Y-68185210D01*
X177768005Y-67930973D01*
X177615120Y-67702165D01*
X177420535Y-67507580D01*
X177191727Y-67354695D01*
X177114485Y-67322700D01*
X177191727Y-67290705D01*
X177420535Y-67137820D01*
X177615120Y-66943235D01*
X177768005Y-66714427D01*
X177873314Y-66460190D01*
X177927000Y-66190292D01*
X177927000Y-65915108D01*
X177873314Y-65645210D01*
X177768005Y-65390973D01*
X177615120Y-65162165D01*
X177420535Y-64967580D01*
X177191727Y-64814695D01*
X176937490Y-64709386D01*
X176667592Y-64655700D01*
X176392408Y-64655700D01*
X176122510Y-64709386D01*
X175868273Y-64814695D01*
X175639465Y-64967580D01*
X175444880Y-65162165D01*
X175291995Y-65390973D01*
X175260000Y-65468215D01*
X175228005Y-65390973D01*
X175075120Y-65162165D01*
X174880535Y-64967580D01*
X174651727Y-64814695D01*
X174397490Y-64709386D01*
X174127592Y-64655700D01*
X173852408Y-64655700D01*
X173582510Y-64709386D01*
X173328273Y-64814695D01*
X173099465Y-64967580D01*
X172904880Y-65162165D01*
X172892589Y-65180559D01*
X172692344Y-64697124D01*
X172382088Y-64232793D01*
X171987207Y-63837912D01*
X171522876Y-63527656D01*
X171006939Y-63313948D01*
X170459223Y-63205000D01*
X169900777Y-63205000D01*
X169353061Y-63313948D01*
X168837124Y-63527656D01*
X168372793Y-63837912D01*
X167977912Y-64232793D01*
X167667656Y-64697124D01*
X167571904Y-64928289D01*
X167558405Y-64903033D01*
X167380654Y-64686445D01*
X167164066Y-64508695D01*
X166916962Y-64376616D01*
X166648838Y-64295281D01*
X166370000Y-64267818D01*
X166091161Y-64295281D01*
X165823037Y-64376616D01*
X165575933Y-64508695D01*
X165359345Y-64686446D01*
X165181595Y-64903034D01*
X165100000Y-65055688D01*
X165018405Y-64903033D01*
X164840654Y-64686445D01*
X164624066Y-64508695D01*
X164376962Y-64376616D01*
X164108838Y-64295281D01*
X163830000Y-64267818D01*
X163551161Y-64295281D01*
X163283037Y-64376616D01*
X163035933Y-64508695D01*
X162819345Y-64686446D01*
X162641595Y-64903034D01*
X162563394Y-65049338D01*
X162478405Y-64890333D01*
X162300654Y-64673745D01*
X162084066Y-64495995D01*
X161836962Y-64363916D01*
X161568838Y-64282581D01*
X161290000Y-64255118D01*
X161011161Y-64282581D01*
X160743037Y-64363916D01*
X160495933Y-64495995D01*
X160279345Y-64673746D01*
X160101595Y-64890334D01*
X160020000Y-65042988D01*
X159938405Y-64890333D01*
X159760654Y-64673745D01*
X159544066Y-64495995D01*
X159296962Y-64363916D01*
X159028838Y-64282581D01*
X158750000Y-64255118D01*
X158471161Y-64282581D01*
X158203037Y-64363916D01*
X157955933Y-64495995D01*
X157739345Y-64673746D01*
X157561595Y-64890334D01*
X157480000Y-65042988D01*
X157398405Y-64890333D01*
X157220654Y-64673745D01*
X157004066Y-64495995D01*
X156756962Y-64363916D01*
X156488838Y-64282581D01*
X156210000Y-64255118D01*
X155931161Y-64282581D01*
X155663037Y-64363916D01*
X155415933Y-64495995D01*
X155199345Y-64673746D01*
X155021595Y-64890334D01*
X154940000Y-65042988D01*
X154858405Y-64890333D01*
X154680654Y-64673745D01*
X154464066Y-64495995D01*
X154216962Y-64363916D01*
X153948838Y-64282581D01*
X153670000Y-64255118D01*
X153391161Y-64282581D01*
X153123037Y-64363916D01*
X152875933Y-64495995D01*
X152659345Y-64673746D01*
X152481595Y-64890334D01*
X152400000Y-65042988D01*
X152318405Y-64890333D01*
X152140654Y-64673745D01*
X151924066Y-64495995D01*
X151676962Y-64363916D01*
X151408838Y-64282581D01*
X151130000Y-64255118D01*
X150851161Y-64282581D01*
X150583037Y-64363916D01*
X150335933Y-64495995D01*
X150119345Y-64673746D01*
X149941595Y-64890334D01*
X149860000Y-65042988D01*
X149778405Y-64890333D01*
X149600654Y-64673745D01*
X149384066Y-64495995D01*
X149136962Y-64363916D01*
X148868838Y-64282581D01*
X148590000Y-64255118D01*
X148311161Y-64282581D01*
X148043037Y-64363916D01*
X147795933Y-64495995D01*
X147579345Y-64673746D01*
X147401595Y-64890334D01*
X147269516Y-65137438D01*
X147188181Y-65405562D01*
X147167600Y-65614526D01*
X147167600Y-65965699D01*
X144790904Y-63589003D01*
X144767101Y-63559999D01*
X144651376Y-63465026D01*
X144519347Y-63394454D01*
X144376086Y-63350997D01*
X144264433Y-63340000D01*
X144264422Y-63340000D01*
X144227100Y-63336324D01*
X144189778Y-63340000D01*
X111553923Y-63340000D01*
X111516600Y-63336324D01*
X111479277Y-63340000D01*
X111479267Y-63340000D01*
X111367614Y-63350997D01*
X111224353Y-63394454D01*
X111092324Y-63465026D01*
X110976599Y-63559999D01*
X110952801Y-63588997D01*
X109917006Y-64624793D01*
X109760066Y-64495995D01*
X109512962Y-64363916D01*
X109244838Y-64282581D01*
X108966000Y-64255118D01*
X108687161Y-64282581D01*
X108419037Y-64363916D01*
X108171933Y-64495995D01*
X107955345Y-64673746D01*
X107777595Y-64890334D01*
X107695187Y-65044510D01*
X107691526Y-65035438D01*
X107538125Y-64801260D01*
X107341986Y-64601508D01*
X107110646Y-64443859D01*
X106852996Y-64334372D01*
X106773060Y-64317690D01*
X106553000Y-64439848D01*
X106553000Y-65925700D01*
X106573000Y-65925700D01*
X106573000Y-66179700D01*
X106553000Y-66179700D01*
X106553000Y-67665552D01*
X106773060Y-67787710D01*
X106852996Y-67771028D01*
X107110646Y-67661541D01*
X107341986Y-67503892D01*
X107538125Y-67304140D01*
X107691526Y-67069962D01*
X107701027Y-67046418D01*
X107777595Y-67189667D01*
X107955346Y-67406255D01*
X108171934Y-67584005D01*
X108419038Y-67716084D01*
X108687162Y-67797419D01*
X108966000Y-67824882D01*
X109244839Y-67797419D01*
X109512963Y-67716084D01*
X109760067Y-67584005D01*
X109899101Y-67469902D01*
X110460401Y-68031202D01*
X110484199Y-68060201D01*
X110513197Y-68083999D01*
X110599923Y-68155174D01*
X110731953Y-68225746D01*
X110875214Y-68269203D01*
X110986867Y-68280200D01*
X110986876Y-68280200D01*
X111024199Y-68283876D01*
X111061522Y-68280200D01*
X114512078Y-68280200D01*
X114549400Y-68283876D01*
X114586722Y-68280200D01*
X114586733Y-68280200D01*
X114698386Y-68269203D01*
X114841647Y-68225746D01*
X114973676Y-68155174D01*
X115089401Y-68060201D01*
X115113203Y-68031198D01*
X115664763Y-67479638D01*
X115791934Y-67584005D01*
X116039038Y-67716084D01*
X116307162Y-67797419D01*
X116586000Y-67824882D01*
X116864839Y-67797419D01*
X117132963Y-67716084D01*
X117380067Y-67584005D01*
X117596655Y-67406255D01*
X117774405Y-67189667D01*
X117856000Y-67037013D01*
X117937595Y-67189667D01*
X118115346Y-67406255D01*
X118331934Y-67584005D01*
X118579038Y-67716084D01*
X118847162Y-67797419D01*
X119126000Y-67824882D01*
X119404839Y-67797419D01*
X119672963Y-67716084D01*
X119920067Y-67584005D01*
X120136655Y-67406255D01*
X120314405Y-67189667D01*
X120396000Y-67037013D01*
X120477595Y-67189667D01*
X120655346Y-67406255D01*
X120871934Y-67584005D01*
X121119038Y-67716084D01*
X121387162Y-67797419D01*
X121666000Y-67824882D01*
X121944839Y-67797419D01*
X122212963Y-67716084D01*
X122460067Y-67584005D01*
X122676655Y-67406255D01*
X122854405Y-67189667D01*
X122986484Y-66942563D01*
X123067819Y-66674438D01*
X123088400Y-66465474D01*
X123088400Y-65614525D01*
X123067819Y-65405561D01*
X123043320Y-65324800D01*
X124352680Y-65324800D01*
X124328181Y-65405562D01*
X124307600Y-65614526D01*
X124307600Y-66465475D01*
X124328181Y-66674439D01*
X124409516Y-66942563D01*
X124541595Y-67189667D01*
X124719346Y-67406255D01*
X124935934Y-67584005D01*
X125183038Y-67716084D01*
X125451162Y-67797419D01*
X125730000Y-67824882D01*
X126008839Y-67797419D01*
X126276963Y-67716084D01*
X126524067Y-67584005D01*
X126740655Y-67406255D01*
X126918405Y-67189667D01*
X127000000Y-67037013D01*
X127081595Y-67189667D01*
X127259346Y-67406255D01*
X127475934Y-67584005D01*
X127723038Y-67716084D01*
X127991162Y-67797419D01*
X128270000Y-67824882D01*
X128548839Y-67797419D01*
X128816963Y-67716084D01*
X129064067Y-67584005D01*
X129280655Y-67406255D01*
X129458405Y-67189667D01*
X129540000Y-67037013D01*
X129621595Y-67189667D01*
X129799346Y-67406255D01*
X130015934Y-67584005D01*
X130263038Y-67716084D01*
X130531162Y-67797419D01*
X130810000Y-67824882D01*
X131088839Y-67797419D01*
X131356963Y-67716084D01*
X131604067Y-67584005D01*
X131820655Y-67406255D01*
X131998405Y-67189667D01*
X132080000Y-67037013D01*
X132161595Y-67189667D01*
X132339346Y-67406255D01*
X132555934Y-67584005D01*
X132803038Y-67716084D01*
X133071162Y-67797419D01*
X133350000Y-67824882D01*
X133628839Y-67797419D01*
X133896963Y-67716084D01*
X134144067Y-67584005D01*
X134360655Y-67406255D01*
X134538405Y-67189667D01*
X134620000Y-67037013D01*
X134701595Y-67189667D01*
X134879346Y-67406255D01*
X135095934Y-67584005D01*
X135343038Y-67716084D01*
X135600894Y-67794304D01*
X127759003Y-75636196D01*
X127729999Y-75659999D01*
X127700681Y-75695724D01*
X127635026Y-75775724D01*
X127606609Y-75828889D01*
X127564454Y-75907754D01*
X127520997Y-76051015D01*
X127510000Y-76162668D01*
X127510000Y-76162678D01*
X127506324Y-76200000D01*
X127510000Y-76237322D01*
X127510001Y-83745591D01*
X127315986Y-83849294D01*
X127089866Y-84034866D01*
X126904294Y-84260986D01*
X126766401Y-84518966D01*
X126681487Y-84798889D01*
X126652815Y-85090000D01*
X126681487Y-85381111D01*
X126766401Y-85661034D01*
X126904294Y-85919014D01*
X127089866Y-86145134D01*
X127315986Y-86330706D01*
X127333374Y-86340000D01*
X127315986Y-86349294D01*
X127089866Y-86534866D01*
X126904294Y-86760986D01*
X126766401Y-87018966D01*
X126681487Y-87298889D01*
X126652815Y-87590000D01*
X126681487Y-87881111D01*
X126766401Y-88161034D01*
X126904294Y-88419014D01*
X127089866Y-88645134D01*
X127315986Y-88830706D01*
X127333374Y-88840000D01*
X127315986Y-88849294D01*
X127089866Y-89034866D01*
X126904294Y-89260986D01*
X126766401Y-89518966D01*
X126681487Y-89798889D01*
X126652815Y-90090000D01*
X126681487Y-90381111D01*
X126766401Y-90661034D01*
X126904294Y-90919014D01*
X127089866Y-91145134D01*
X127315986Y-91330706D01*
X127333374Y-91340000D01*
X127315986Y-91349294D01*
X127187183Y-91455000D01*
X126650452Y-91455000D01*
X126594700Y-91449509D01*
X126538948Y-91455000D01*
X126372201Y-91471423D01*
X126158253Y-91536324D01*
X125961077Y-91641716D01*
X125788251Y-91783551D01*
X125752709Y-91826859D01*
X117346860Y-100232709D01*
X117303552Y-100268251D01*
X117161717Y-100441077D01*
X117146418Y-100469700D01*
X117056324Y-100638254D01*
X116991423Y-100852202D01*
X116969509Y-101074700D01*
X116975001Y-101130461D01*
X116975000Y-113097960D01*
X116921595Y-113163034D01*
X116840000Y-113315688D01*
X116758405Y-113163033D01*
X116580654Y-112946445D01*
X116364066Y-112768695D01*
X116116962Y-112636616D01*
X115848838Y-112555281D01*
X115570000Y-112527818D01*
X115291161Y-112555281D01*
X115023037Y-112636616D01*
X114775933Y-112768695D01*
X114559345Y-112946446D01*
X114381595Y-113163034D01*
X114300000Y-113315688D01*
X114218405Y-113163033D01*
X114040654Y-112946445D01*
X113824066Y-112768695D01*
X113576962Y-112636616D01*
X113308838Y-112555281D01*
X113030000Y-112527818D01*
X112751161Y-112555281D01*
X112483037Y-112636616D01*
X112235933Y-112768695D01*
X112019345Y-112946446D01*
X111841595Y-113163034D01*
X111760000Y-113315688D01*
X111678405Y-113163033D01*
X111500654Y-112946445D01*
X111284066Y-112768695D01*
X111036962Y-112636616D01*
X110768838Y-112555281D01*
X110490000Y-112527818D01*
X110211161Y-112555281D01*
X109943037Y-112636616D01*
X109695933Y-112768695D01*
X109479345Y-112946446D01*
X109301595Y-113163034D01*
X109220000Y-113315688D01*
X109138405Y-113163033D01*
X108960654Y-112946445D01*
X108744066Y-112768695D01*
X108496962Y-112636616D01*
X108228838Y-112555281D01*
X107950000Y-112527818D01*
X107671161Y-112555281D01*
X107403037Y-112636616D01*
X107155933Y-112768695D01*
X106939345Y-112946446D01*
X106761595Y-113163034D01*
X106629516Y-113410138D01*
X106548181Y-113678262D01*
X106527600Y-113887226D01*
X96788435Y-113887226D01*
X96706052Y-113473061D01*
X96492344Y-112957124D01*
X96182088Y-112492793D01*
X95787207Y-112097912D01*
X95322876Y-111787656D01*
X94806939Y-111573948D01*
X94259223Y-111465000D01*
X93700777Y-111465000D01*
X93153061Y-111573948D01*
X92637124Y-111787656D01*
X92172793Y-112097912D01*
X92100000Y-112170705D01*
X92100000Y-65760777D01*
X92415000Y-65760777D01*
X92415000Y-66319223D01*
X92523948Y-66866939D01*
X92737656Y-67382876D01*
X93047912Y-67847207D01*
X93442793Y-68242088D01*
X93907124Y-68552344D01*
X94423061Y-68766052D01*
X94970777Y-68875000D01*
X95529223Y-68875000D01*
X96076939Y-68766052D01*
X96592876Y-68552344D01*
X97057207Y-68242088D01*
X97452088Y-67847207D01*
X97762344Y-67382876D01*
X97763482Y-67380129D01*
X97795346Y-67418955D01*
X98011934Y-67596705D01*
X98259038Y-67728784D01*
X98527162Y-67810119D01*
X98806000Y-67837582D01*
X99084839Y-67810119D01*
X99352963Y-67728784D01*
X99600067Y-67596705D01*
X99816655Y-67418955D01*
X99994405Y-67202367D01*
X100076000Y-67049713D01*
X100157595Y-67202367D01*
X100335346Y-67418955D01*
X100551934Y-67596705D01*
X100799038Y-67728784D01*
X101067162Y-67810119D01*
X101346000Y-67837582D01*
X101624839Y-67810119D01*
X101892963Y-67728784D01*
X102140067Y-67596705D01*
X102356655Y-67418955D01*
X102534405Y-67202367D01*
X102616000Y-67049713D01*
X102697595Y-67202367D01*
X102875346Y-67418955D01*
X103091934Y-67596705D01*
X103339038Y-67728784D01*
X103607162Y-67810119D01*
X103886000Y-67837582D01*
X104164839Y-67810119D01*
X104432963Y-67728784D01*
X104680067Y-67596705D01*
X104896655Y-67418955D01*
X105074405Y-67202367D01*
X105153893Y-67053655D01*
X105160474Y-67069962D01*
X105313875Y-67304140D01*
X105510014Y-67503892D01*
X105741354Y-67661541D01*
X105999004Y-67771028D01*
X106078940Y-67787710D01*
X106299000Y-67665552D01*
X106299000Y-66179700D01*
X106279000Y-66179700D01*
X106279000Y-65925700D01*
X106299000Y-65925700D01*
X106299000Y-64439848D01*
X106078940Y-64317690D01*
X105999004Y-64334372D01*
X105741354Y-64443859D01*
X105510014Y-64601508D01*
X105313875Y-64801260D01*
X105160474Y-65035438D01*
X105153893Y-65051745D01*
X105074405Y-64903033D01*
X104896654Y-64686445D01*
X104680066Y-64508695D01*
X104432962Y-64376616D01*
X104164838Y-64295281D01*
X103886000Y-64267818D01*
X103607161Y-64295281D01*
X103339037Y-64376616D01*
X103091933Y-64508695D01*
X102875345Y-64686446D01*
X102697595Y-64903034D01*
X102616000Y-65055688D01*
X102534405Y-64903033D01*
X102356654Y-64686445D01*
X102140066Y-64508695D01*
X101892962Y-64376616D01*
X101624838Y-64295281D01*
X101346000Y-64267818D01*
X101067161Y-64295281D01*
X100799037Y-64376616D01*
X100551933Y-64508695D01*
X100335345Y-64686446D01*
X100157595Y-64903034D01*
X100076000Y-65055688D01*
X99994405Y-64903033D01*
X99816654Y-64686445D01*
X99600066Y-64508695D01*
X99352962Y-64376616D01*
X99084838Y-64295281D01*
X98806000Y-64267818D01*
X98527161Y-64295281D01*
X98259037Y-64376616D01*
X98011933Y-64508695D01*
X97795345Y-64686446D01*
X97770474Y-64716751D01*
X97762344Y-64697124D01*
X97452088Y-64232793D01*
X97057207Y-63837912D01*
X96592876Y-63527656D01*
X96076939Y-63313948D01*
X95529223Y-63205000D01*
X94970777Y-63205000D01*
X94423061Y-63313948D01*
X93907124Y-63527656D01*
X93442793Y-63837912D01*
X93047912Y-64232793D01*
X92737656Y-64697124D01*
X92523948Y-65213061D01*
X92415000Y-65760777D01*
X92100000Y-65760777D01*
X92100000Y-62890000D01*
X179680000Y-62890000D01*
X179680001Y-74897581D01*
G37*
X179680001Y-74897581D02*
X179676808Y-74930000D01*
X179680001Y-74962419D01*
X179689551Y-75059383D01*
X179695497Y-75078985D01*
X179727290Y-75183792D01*
X179788575Y-75298450D01*
X179850386Y-75373766D01*
X179850389Y-75373769D01*
X179871053Y-75398948D01*
X179896232Y-75419612D01*
X182220000Y-77743381D01*
X182220001Y-81247581D01*
X182220000Y-114026619D01*
X179896232Y-116350388D01*
X179871053Y-116371052D01*
X179850389Y-116396231D01*
X179850386Y-116396234D01*
X179788575Y-116471550D01*
X179727290Y-116586208D01*
X179689551Y-116710618D01*
X179676808Y-116840000D01*
X179680001Y-116872419D01*
X179680001Y-117450000D01*
X92100000Y-117450000D01*
X92100000Y-116429295D01*
X92172793Y-116502088D01*
X92637124Y-116812344D01*
X93153061Y-117026052D01*
X93700777Y-117135000D01*
X94259223Y-117135000D01*
X94806939Y-117026052D01*
X95322876Y-116812344D01*
X95787207Y-116502088D01*
X96182088Y-116107207D01*
X96492344Y-115642876D01*
X96706052Y-115126939D01*
X96815000Y-114579223D01*
X96815000Y-114020777D01*
X96788435Y-113887226D01*
X106527600Y-113887226D01*
X106527600Y-114738175D01*
X106548181Y-114947139D01*
X106629516Y-115215263D01*
X106761595Y-115462367D01*
X106939346Y-115678955D01*
X107155934Y-115856705D01*
X107403038Y-115988784D01*
X107671162Y-116070119D01*
X107950000Y-116097582D01*
X108228839Y-116070119D01*
X108496963Y-115988784D01*
X108744067Y-115856705D01*
X108960655Y-115678955D01*
X109138405Y-115462367D01*
X109220000Y-115309713D01*
X109301595Y-115462367D01*
X109479346Y-115678955D01*
X109695934Y-115856705D01*
X109943038Y-115988784D01*
X110211162Y-116070119D01*
X110490000Y-116097582D01*
X110768839Y-116070119D01*
X111036963Y-115988784D01*
X111284067Y-115856705D01*
X111500655Y-115678955D01*
X111678405Y-115462367D01*
X111760000Y-115309713D01*
X111841595Y-115462367D01*
X112019346Y-115678955D01*
X112235934Y-115856705D01*
X112483038Y-115988784D01*
X112751162Y-116070119D01*
X113030000Y-116097582D01*
X113308839Y-116070119D01*
X113576963Y-115988784D01*
X113824067Y-115856705D01*
X114040655Y-115678955D01*
X114218405Y-115462367D01*
X114300000Y-115309713D01*
X114381595Y-115462367D01*
X114559346Y-115678955D01*
X114775934Y-115856705D01*
X115023038Y-115988784D01*
X115291162Y-116070119D01*
X115570000Y-116097582D01*
X115848839Y-116070119D01*
X116116963Y-115988784D01*
X116364067Y-115856705D01*
X116580655Y-115678955D01*
X116758405Y-115462367D01*
X116840000Y-115309713D01*
X116921595Y-115462367D01*
X117099346Y-115678955D01*
X117315934Y-115856705D01*
X117563038Y-115988784D01*
X117831162Y-116070119D01*
X118110000Y-116097582D01*
X118388839Y-116070119D01*
X118656963Y-115988784D01*
X118904067Y-115856705D01*
X119120655Y-115678955D01*
X119298405Y-115462367D01*
X119377893Y-115313655D01*
X119384474Y-115329962D01*
X119537875Y-115564140D01*
X119734014Y-115763892D01*
X119965354Y-115921541D01*
X120223004Y-116031028D01*
X120302940Y-116047710D01*
X120523000Y-115925552D01*
X120523000Y-114439700D01*
X120777000Y-114439700D01*
X120777000Y-115925552D01*
X120997060Y-116047710D01*
X121076996Y-116031028D01*
X121334646Y-115921541D01*
X121565986Y-115763892D01*
X121762125Y-115564140D01*
X121915526Y-115329962D01*
X121920000Y-115318876D01*
X121924474Y-115329962D01*
X122077875Y-115564140D01*
X122274014Y-115763892D01*
X122505354Y-115921541D01*
X122763004Y-116031028D01*
X122842940Y-116047710D01*
X123063000Y-115925552D01*
X123063000Y-114439700D01*
X120777000Y-114439700D01*
X120523000Y-114439700D01*
X120503000Y-114439700D01*
X120503000Y-114185700D01*
X120523000Y-114185700D01*
X120523000Y-112699848D01*
X120777000Y-112699848D01*
X120777000Y-114185700D01*
X123063000Y-114185700D01*
X123063000Y-112699848D01*
X123317000Y-112699848D01*
X123317000Y-114185700D01*
X123337000Y-114185700D01*
X123337000Y-114439700D01*
X123317000Y-114439700D01*
X123317000Y-115925552D01*
X123537060Y-116047710D01*
X123616996Y-116031028D01*
X123874646Y-115921541D01*
X124105986Y-115763892D01*
X124302125Y-115564140D01*
X124455526Y-115329962D01*
X124462107Y-115313655D01*
X124541595Y-115462367D01*
X124719346Y-115678955D01*
X124935934Y-115856705D01*
X125183038Y-115988784D01*
X125451162Y-116070119D01*
X125730000Y-116097582D01*
X126008839Y-116070119D01*
X126276963Y-115988784D01*
X126524067Y-115856705D01*
X126740655Y-115678955D01*
X126918405Y-115462367D01*
X127050484Y-115215263D01*
X127131819Y-114947138D01*
X127152400Y-114738174D01*
X127152400Y-113887226D01*
X129387600Y-113887226D01*
X129387600Y-114738175D01*
X129408181Y-114947139D01*
X129489516Y-115215263D01*
X129621595Y-115462367D01*
X129799346Y-115678955D01*
X130015934Y-115856705D01*
X130263038Y-115988784D01*
X130531162Y-116070119D01*
X130810000Y-116097582D01*
X131088839Y-116070119D01*
X131356963Y-115988784D01*
X131604067Y-115856705D01*
X131820655Y-115678955D01*
X131998405Y-115462367D01*
X132083394Y-115303363D01*
X132161595Y-115449667D01*
X132339346Y-115666255D01*
X132555934Y-115844005D01*
X132803038Y-115976084D01*
X133071162Y-116057419D01*
X133350000Y-116084882D01*
X133628839Y-116057419D01*
X133896963Y-115976084D01*
X134144067Y-115844005D01*
X134360655Y-115666255D01*
X134538405Y-115449667D01*
X134620000Y-115297013D01*
X134701595Y-115449667D01*
X134879346Y-115666255D01*
X135095934Y-115844005D01*
X135343038Y-115976084D01*
X135611162Y-116057419D01*
X135890000Y-116084882D01*
X136168839Y-116057419D01*
X136436963Y-115976084D01*
X136684067Y-115844005D01*
X136900655Y-115666255D01*
X137078405Y-115449667D01*
X137160000Y-115297013D01*
X137241595Y-115449667D01*
X137419346Y-115666255D01*
X137635934Y-115844005D01*
X137883038Y-115976084D01*
X138151162Y-116057419D01*
X138430000Y-116084882D01*
X138708839Y-116057419D01*
X138976963Y-115976084D01*
X139224067Y-115844005D01*
X139440655Y-115666255D01*
X139618405Y-115449667D01*
X139700000Y-115297013D01*
X139781595Y-115449667D01*
X139959346Y-115666255D01*
X140175934Y-115844005D01*
X140423038Y-115976084D01*
X140691162Y-116057419D01*
X140970000Y-116084882D01*
X141248839Y-116057419D01*
X141516963Y-115976084D01*
X141764067Y-115844005D01*
X141980655Y-115666255D01*
X142158405Y-115449667D01*
X142240000Y-115297013D01*
X142321595Y-115449667D01*
X142499346Y-115666255D01*
X142715934Y-115844005D01*
X142963038Y-115976084D01*
X143231162Y-116057419D01*
X143510000Y-116084882D01*
X143788839Y-116057419D01*
X144056963Y-115976084D01*
X144304067Y-115844005D01*
X144520655Y-115666255D01*
X144698405Y-115449667D01*
X144780000Y-115297013D01*
X144861595Y-115449667D01*
X145039346Y-115666255D01*
X145255934Y-115844005D01*
X145503038Y-115976084D01*
X145771162Y-116057419D01*
X146050000Y-116084882D01*
X146328839Y-116057419D01*
X146596963Y-115976084D01*
X146844067Y-115844005D01*
X147060655Y-115666255D01*
X147238405Y-115449667D01*
X147320000Y-115297013D01*
X147401595Y-115449667D01*
X147579346Y-115666255D01*
X147795934Y-115844005D01*
X148043038Y-115976084D01*
X148311162Y-116057419D01*
X148590000Y-116084882D01*
X148868839Y-116057419D01*
X149136963Y-115976084D01*
X149384067Y-115844005D01*
X149600655Y-115666255D01*
X149778405Y-115449667D01*
X149910484Y-115202563D01*
X149991819Y-114934438D01*
X150012400Y-114725474D01*
X150012400Y-113874525D01*
X149991819Y-113665561D01*
X149910484Y-113397437D01*
X149778405Y-113150333D01*
X149600654Y-112933745D01*
X149384066Y-112755995D01*
X149136962Y-112623916D01*
X148868838Y-112542581D01*
X148590000Y-112515118D01*
X148311161Y-112542581D01*
X148043037Y-112623916D01*
X147795933Y-112755995D01*
X147579345Y-112933746D01*
X147401595Y-113150334D01*
X147320000Y-113302988D01*
X147238405Y-113150333D01*
X147060654Y-112933745D01*
X146844066Y-112755995D01*
X146596962Y-112623916D01*
X146328838Y-112542581D01*
X146050000Y-112515118D01*
X145771161Y-112542581D01*
X145503037Y-112623916D01*
X145255933Y-112755995D01*
X145039345Y-112933746D01*
X144861595Y-113150334D01*
X144780000Y-113302988D01*
X144698405Y-113150333D01*
X144520654Y-112933745D01*
X144304066Y-112755995D01*
X144056962Y-112623916D01*
X143788838Y-112542581D01*
X143510000Y-112515118D01*
X143231161Y-112542581D01*
X142963037Y-112623916D01*
X142715933Y-112755995D01*
X142499345Y-112933746D01*
X142321595Y-113150334D01*
X142240000Y-113302988D01*
X142158405Y-113150333D01*
X141980654Y-112933745D01*
X141764066Y-112755995D01*
X141516962Y-112623916D01*
X141248838Y-112542581D01*
X140970000Y-112515118D01*
X140691161Y-112542581D01*
X140423037Y-112623916D01*
X140175933Y-112755995D01*
X139959345Y-112933746D01*
X139781595Y-113150334D01*
X139700000Y-113302988D01*
X139618405Y-113150333D01*
X139440654Y-112933745D01*
X139224066Y-112755995D01*
X138976962Y-112623916D01*
X138708838Y-112542581D01*
X138430000Y-112515118D01*
X138151161Y-112542581D01*
X137883037Y-112623916D01*
X137635933Y-112755995D01*
X137419345Y-112933746D01*
X137241595Y-113150334D01*
X137160000Y-113302988D01*
X137078405Y-113150333D01*
X136900654Y-112933745D01*
X136684066Y-112755995D01*
X136436962Y-112623916D01*
X136168838Y-112542581D01*
X135890000Y-112515118D01*
X135611161Y-112542581D01*
X135343037Y-112623916D01*
X135095933Y-112755995D01*
X134879345Y-112933746D01*
X134701595Y-113150334D01*
X134620000Y-113302988D01*
X134538405Y-113150333D01*
X134360654Y-112933745D01*
X134144066Y-112755995D01*
X133896962Y-112623916D01*
X133628838Y-112542581D01*
X133350000Y-112515118D01*
X133071161Y-112542581D01*
X132803037Y-112623916D01*
X132555933Y-112755995D01*
X132339345Y-112933746D01*
X132161595Y-113150334D01*
X132076606Y-113309338D01*
X131998405Y-113163033D01*
X131820654Y-112946445D01*
X131604066Y-112768695D01*
X131356962Y-112636616D01*
X131088838Y-112555281D01*
X130810000Y-112527818D01*
X130531161Y-112555281D01*
X130263037Y-112636616D01*
X130015933Y-112768695D01*
X129799345Y-112946446D01*
X129621595Y-113163034D01*
X129489516Y-113410138D01*
X129408181Y-113678262D01*
X129387600Y-113887226D01*
X127152400Y-113887226D01*
X127152400Y-113887225D01*
X127131819Y-113678261D01*
X127050484Y-113410137D01*
X126918405Y-113163033D01*
X126865000Y-113097959D01*
X126865000Y-110761331D01*
X135546928Y-102079404D01*
X135546928Y-102200000D01*
X135563992Y-102373254D01*
X135614528Y-102539850D01*
X135696595Y-102693386D01*
X135807038Y-102827962D01*
X135941614Y-102938405D01*
X136043337Y-102992777D01*
X135979866Y-103044866D01*
X135794294Y-103270986D01*
X135656401Y-103528966D01*
X135571487Y-103808889D01*
X135542815Y-104100000D01*
X135571487Y-104391111D01*
X135656401Y-104671034D01*
X135794294Y-104929014D01*
X135979866Y-105155134D01*
X136205986Y-105340706D01*
X136223374Y-105350000D01*
X136205986Y-105359294D01*
X135979866Y-105544866D01*
X135794294Y-105770986D01*
X135656401Y-106028966D01*
X135571487Y-106308889D01*
X135542815Y-106600000D01*
X135571487Y-106891111D01*
X135656401Y-107171034D01*
X135794294Y-107429014D01*
X135979866Y-107655134D01*
X136205986Y-107840706D01*
X136223374Y-107850000D01*
X136205986Y-107859294D01*
X135979866Y-108044866D01*
X135794294Y-108270986D01*
X135656401Y-108528966D01*
X135571487Y-108808889D01*
X135542815Y-109100000D01*
X135571487Y-109391111D01*
X135656401Y-109671034D01*
X135794294Y-109929014D01*
X135979866Y-110155134D01*
X136205986Y-110340706D01*
X136463966Y-110478599D01*
X136743889Y-110563513D01*
X136962050Y-110585000D01*
X137357950Y-110585000D01*
X137576111Y-110563513D01*
X137856034Y-110478599D01*
X138114014Y-110340706D01*
X138340134Y-110155134D01*
X138525706Y-109929014D01*
X138663599Y-109671034D01*
X138748513Y-109391111D01*
X138777185Y-109100000D01*
X138748513Y-108808889D01*
X138663599Y-108528966D01*
X138525706Y-108270986D01*
X138340134Y-108044866D01*
X138114014Y-107859294D01*
X138096626Y-107850000D01*
X138114014Y-107840706D01*
X138340134Y-107655134D01*
X138525706Y-107429014D01*
X138663599Y-107171034D01*
X138748513Y-106891111D01*
X138777185Y-106600000D01*
X138748513Y-106308889D01*
X138663599Y-106028966D01*
X138525706Y-105770986D01*
X138340134Y-105544866D01*
X138114014Y-105359294D01*
X138096626Y-105350000D01*
X138114014Y-105340706D01*
X138340134Y-105155134D01*
X138525706Y-104929014D01*
X138663599Y-104671034D01*
X138748513Y-104391111D01*
X138777185Y-104100000D01*
X138748513Y-103808889D01*
X138663599Y-103528966D01*
X138525706Y-103270986D01*
X138340134Y-103044866D01*
X138276663Y-102992777D01*
X138378386Y-102938405D01*
X138512962Y-102827962D01*
X138623405Y-102693386D01*
X138705472Y-102539850D01*
X138756008Y-102373254D01*
X138773072Y-102200000D01*
X138773072Y-102147576D01*
X142213526Y-105587960D01*
X142249052Y-105631248D01*
X142292307Y-105666746D01*
X142375000Y-105749458D01*
X142375001Y-107879043D01*
X142355506Y-107889463D01*
X142258815Y-107968815D01*
X142179463Y-108065506D01*
X142120498Y-108175820D01*
X142084188Y-108295518D01*
X142071928Y-108420000D01*
X142071928Y-110020000D01*
X142084188Y-110144482D01*
X142120498Y-110264180D01*
X142179463Y-110374494D01*
X142258815Y-110471185D01*
X142355506Y-110550537D01*
X142465820Y-110609502D01*
X142585518Y-110645812D01*
X142710000Y-110658072D01*
X144310000Y-110658072D01*
X144434482Y-110645812D01*
X144554180Y-110609502D01*
X144664494Y-110550537D01*
X144761185Y-110471185D01*
X144840537Y-110374494D01*
X144899502Y-110264180D01*
X144915117Y-110212702D01*
X147696903Y-110212702D01*
X147768486Y-110456671D01*
X148023996Y-110577571D01*
X148298184Y-110646300D01*
X148580512Y-110660217D01*
X148860130Y-110618787D01*
X149126292Y-110523603D01*
X149251514Y-110456671D01*
X149323097Y-110212702D01*
X148510000Y-109399605D01*
X147696903Y-110212702D01*
X144915117Y-110212702D01*
X144935812Y-110144482D01*
X144948072Y-110020000D01*
X144948072Y-109290512D01*
X147069783Y-109290512D01*
X147111213Y-109570130D01*
X147206397Y-109836292D01*
X147273329Y-109961514D01*
X147517298Y-110033097D01*
X148330395Y-109220000D01*
X148689605Y-109220000D01*
X149502702Y-110033097D01*
X149746671Y-109961514D01*
X149867571Y-109706004D01*
X149936300Y-109431816D01*
X149950217Y-109149488D01*
X149908787Y-108869870D01*
X149813603Y-108603708D01*
X149746671Y-108478486D01*
X149502702Y-108406903D01*
X148689605Y-109220000D01*
X148330395Y-109220000D01*
X147517298Y-108406903D01*
X147273329Y-108478486D01*
X147152429Y-108733996D01*
X147083700Y-109008184D01*
X147069783Y-109290512D01*
X144948072Y-109290512D01*
X144948072Y-108420000D01*
X144935812Y-108295518D01*
X144915118Y-108227298D01*
X147696903Y-108227298D01*
X148510000Y-109040395D01*
X149323097Y-108227298D01*
X149251514Y-107983329D01*
X148996004Y-107862429D01*
X148721816Y-107793700D01*
X148439488Y-107779783D01*
X148159870Y-107821213D01*
X147893708Y-107916397D01*
X147768486Y-107983329D01*
X147696903Y-108227298D01*
X144915118Y-108227298D01*
X144899502Y-108175820D01*
X144840537Y-108065506D01*
X144761185Y-107968815D01*
X144664494Y-107889463D01*
X144645000Y-107879043D01*
X144645000Y-106538665D01*
X150965000Y-106538665D01*
X150965000Y-106821335D01*
X151020147Y-107098574D01*
X151128320Y-107359727D01*
X151285363Y-107594759D01*
X151485241Y-107794637D01*
X151645843Y-107901948D01*
X151648676Y-107930705D01*
X151650998Y-107954285D01*
X151694454Y-108097546D01*
X151765026Y-108229576D01*
X151799011Y-108270986D01*
X151860000Y-108345301D01*
X151888998Y-108369099D01*
X155450001Y-111930103D01*
X155450001Y-112737786D01*
X155415933Y-112755995D01*
X155199345Y-112933746D01*
X155021595Y-113150334D01*
X154940000Y-113302988D01*
X154858405Y-113150333D01*
X154680654Y-112933745D01*
X154464066Y-112755995D01*
X154216962Y-112623916D01*
X153948838Y-112542581D01*
X153670000Y-112515118D01*
X153391161Y-112542581D01*
X153123037Y-112623916D01*
X152875933Y-112755995D01*
X152659345Y-112933746D01*
X152481595Y-113150334D01*
X152349516Y-113397438D01*
X152268181Y-113665562D01*
X152247600Y-113874526D01*
X152247600Y-114725475D01*
X152268181Y-114934439D01*
X152349516Y-115202563D01*
X152481595Y-115449667D01*
X152659346Y-115666255D01*
X152875934Y-115844005D01*
X153123038Y-115976084D01*
X153391162Y-116057419D01*
X153670000Y-116084882D01*
X153948839Y-116057419D01*
X154216963Y-115976084D01*
X154464067Y-115844005D01*
X154680655Y-115666255D01*
X154858405Y-115449667D01*
X154940000Y-115297013D01*
X155021595Y-115449667D01*
X155199346Y-115666255D01*
X155415934Y-115844005D01*
X155663038Y-115976084D01*
X155931162Y-116057419D01*
X156210000Y-116084882D01*
X156488839Y-116057419D01*
X156756963Y-115976084D01*
X157004067Y-115844005D01*
X157220655Y-115666255D01*
X157398405Y-115449667D01*
X157480000Y-115297013D01*
X157561595Y-115449667D01*
X157739346Y-115666255D01*
X157955934Y-115844005D01*
X158203038Y-115976084D01*
X158471162Y-116057419D01*
X158750000Y-116084882D01*
X159028839Y-116057419D01*
X159296963Y-115976084D01*
X159544067Y-115844005D01*
X159760655Y-115666255D01*
X159938405Y-115449667D01*
X160020000Y-115297013D01*
X160101595Y-115449667D01*
X160279346Y-115666255D01*
X160495934Y-115844005D01*
X160743038Y-115976084D01*
X161011162Y-116057419D01*
X161290000Y-116084882D01*
X161568839Y-116057419D01*
X161836963Y-115976084D01*
X162084067Y-115844005D01*
X162300655Y-115666255D01*
X162478405Y-115449667D01*
X162560000Y-115297013D01*
X162641595Y-115449667D01*
X162819346Y-115666255D01*
X163035934Y-115844005D01*
X163283038Y-115976084D01*
X163551162Y-116057419D01*
X163830000Y-116084882D01*
X164108839Y-116057419D01*
X164376963Y-115976084D01*
X164624067Y-115844005D01*
X164840655Y-115666255D01*
X165018405Y-115449667D01*
X165100000Y-115297013D01*
X165181595Y-115449667D01*
X165359346Y-115666255D01*
X165575934Y-115844005D01*
X165823038Y-115976084D01*
X166091162Y-116057419D01*
X166370000Y-116084882D01*
X166648839Y-116057419D01*
X166916963Y-115976084D01*
X167164067Y-115844005D01*
X167380655Y-115666255D01*
X167558405Y-115449667D01*
X167640000Y-115297013D01*
X167721595Y-115449667D01*
X167899346Y-115666255D01*
X168115934Y-115844005D01*
X168363038Y-115976084D01*
X168631162Y-116057419D01*
X168910000Y-116084882D01*
X169188839Y-116057419D01*
X169456963Y-115976084D01*
X169704067Y-115844005D01*
X169920655Y-115666255D01*
X170098405Y-115449667D01*
X170180000Y-115297013D01*
X170261595Y-115449667D01*
X170439346Y-115666255D01*
X170655934Y-115844005D01*
X170903038Y-115976084D01*
X171171162Y-116057419D01*
X171450000Y-116084882D01*
X171728839Y-116057419D01*
X171996963Y-115976084D01*
X172244067Y-115844005D01*
X172460655Y-115666255D01*
X172638405Y-115449667D01*
X172770484Y-115202563D01*
X172851819Y-114934438D01*
X172872400Y-114725474D01*
X172872400Y-114020777D01*
X173695000Y-114020777D01*
X173695000Y-114579223D01*
X173803948Y-115126939D01*
X174017656Y-115642876D01*
X174327912Y-116107207D01*
X174722793Y-116502088D01*
X175187124Y-116812344D01*
X175703061Y-117026052D01*
X176250777Y-117135000D01*
X176809223Y-117135000D01*
X177356939Y-117026052D01*
X177872876Y-116812344D01*
X178337207Y-116502088D01*
X178732088Y-116107207D01*
X179042344Y-115642876D01*
X179256052Y-115126939D01*
X179365000Y-114579223D01*
X179365000Y-114020777D01*
X179256052Y-113473061D01*
X179042344Y-112957124D01*
X178732088Y-112492793D01*
X178337207Y-112097912D01*
X177872876Y-111787656D01*
X177356939Y-111573948D01*
X176809223Y-111465000D01*
X176250777Y-111465000D01*
X175703061Y-111573948D01*
X175187124Y-111787656D01*
X174722793Y-112097912D01*
X174327912Y-112492793D01*
X174017656Y-112957124D01*
X173803948Y-113473061D01*
X173695000Y-114020777D01*
X172872400Y-114020777D01*
X172872400Y-113874525D01*
X172851819Y-113665561D01*
X172770484Y-113397437D01*
X172638405Y-113150333D01*
X172460654Y-112933745D01*
X172244066Y-112755995D01*
X172210000Y-112737786D01*
X172210000Y-109112622D01*
X172213676Y-109075299D01*
X172210000Y-109037976D01*
X172210000Y-109037967D01*
X172199003Y-108926314D01*
X172155546Y-108783053D01*
X172084974Y-108651024D01*
X171990001Y-108535299D01*
X171961003Y-108511501D01*
X171169449Y-107719947D01*
X171294637Y-107594759D01*
X171451680Y-107359727D01*
X171559853Y-107098574D01*
X171615000Y-106821335D01*
X171615000Y-106538665D01*
X171559853Y-106261426D01*
X171451680Y-106000273D01*
X171294637Y-105765241D01*
X171094759Y-105565363D01*
X170859727Y-105408320D01*
X170598574Y-105300147D01*
X170321335Y-105245000D01*
X170038665Y-105245000D01*
X169761426Y-105300147D01*
X169500273Y-105408320D01*
X169265241Y-105565363D01*
X169065363Y-105765241D01*
X168910000Y-105997759D01*
X168754637Y-105765241D01*
X168554759Y-105565363D01*
X168319727Y-105408320D01*
X168058574Y-105300147D01*
X167781335Y-105245000D01*
X167498665Y-105245000D01*
X167221426Y-105300147D01*
X166960273Y-105408320D01*
X166725241Y-105565363D01*
X166525363Y-105765241D01*
X166370000Y-105997759D01*
X166214637Y-105765241D01*
X166014759Y-105565363D01*
X165779727Y-105408320D01*
X165518574Y-105300147D01*
X165241335Y-105245000D01*
X164958665Y-105245000D01*
X164681426Y-105300147D01*
X164420273Y-105408320D01*
X164185241Y-105565363D01*
X163985363Y-105765241D01*
X163830000Y-105997759D01*
X163674637Y-105765241D01*
X163474759Y-105565363D01*
X163239727Y-105408320D01*
X162978574Y-105300147D01*
X162701335Y-105245000D01*
X162418665Y-105245000D01*
X162141426Y-105300147D01*
X161880273Y-105408320D01*
X161645241Y-105565363D01*
X161445363Y-105765241D01*
X161290000Y-105997759D01*
X161134637Y-105765241D01*
X160934759Y-105565363D01*
X160699727Y-105408320D01*
X160438574Y-105300147D01*
X160161335Y-105245000D01*
X159878665Y-105245000D01*
X159601426Y-105300147D01*
X159340273Y-105408320D01*
X159105241Y-105565363D01*
X158905363Y-105765241D01*
X158750000Y-105997759D01*
X158594637Y-105765241D01*
X158394759Y-105565363D01*
X158159727Y-105408320D01*
X157898574Y-105300147D01*
X157621335Y-105245000D01*
X157338665Y-105245000D01*
X157061426Y-105300147D01*
X156800273Y-105408320D01*
X156565241Y-105565363D01*
X156365363Y-105765241D01*
X156210000Y-105997759D01*
X156054637Y-105765241D01*
X155854759Y-105565363D01*
X155619727Y-105408320D01*
X155358574Y-105300147D01*
X155081335Y-105245000D01*
X154798665Y-105245000D01*
X154521426Y-105300147D01*
X154260273Y-105408320D01*
X154025241Y-105565363D01*
X153825363Y-105765241D01*
X153670000Y-105997759D01*
X153514637Y-105765241D01*
X153314759Y-105565363D01*
X153079727Y-105408320D01*
X152818574Y-105300147D01*
X152541335Y-105245000D01*
X152258665Y-105245000D01*
X151981426Y-105300147D01*
X151720273Y-105408320D01*
X151485241Y-105565363D01*
X151285363Y-105765241D01*
X151128320Y-106000273D01*
X151020147Y-106261426D01*
X150965000Y-106538665D01*
X144645000Y-106538665D01*
X144645000Y-105335213D01*
X144650491Y-105279525D01*
X144645000Y-105223712D01*
X144645000Y-105223648D01*
X144639334Y-105166120D01*
X144628601Y-105057024D01*
X144628583Y-105056966D01*
X144628577Y-105056901D01*
X144595541Y-104947997D01*
X144582021Y-104903410D01*
X153163146Y-96322287D01*
X153206449Y-96286749D01*
X153290626Y-96184180D01*
X153348284Y-96113923D01*
X153453676Y-95916747D01*
X153518577Y-95702799D01*
X153540491Y-95480300D01*
X153535000Y-95424548D01*
X153535000Y-94864284D01*
X153671680Y-94659727D01*
X153676067Y-94649135D01*
X153787615Y-94835131D01*
X153976586Y-95043519D01*
X154202580Y-95211037D01*
X154456913Y-95331246D01*
X154590961Y-95371904D01*
X154813000Y-95249915D01*
X154813000Y-94107000D01*
X154793000Y-94107000D01*
X154793000Y-93853000D01*
X154813000Y-93853000D01*
X154813000Y-92710085D01*
X154590961Y-92588096D01*
X154456913Y-92628754D01*
X154202580Y-92748963D01*
X153976586Y-92916481D01*
X153787615Y-93124869D01*
X153676067Y-93310865D01*
X153671680Y-93300273D01*
X153514637Y-93065241D01*
X153314759Y-92865363D01*
X153079727Y-92708320D01*
X152818574Y-92600147D01*
X152541335Y-92545000D01*
X152258665Y-92545000D01*
X151981426Y-92600147D01*
X151720273Y-92708320D01*
X151485241Y-92865363D01*
X151285363Y-93065241D01*
X151128320Y-93300273D01*
X151020147Y-93561426D01*
X150965000Y-93838665D01*
X150965000Y-94121335D01*
X151020147Y-94398574D01*
X151128320Y-94659727D01*
X151265000Y-94864284D01*
X151265000Y-95010167D01*
X143055492Y-103219677D01*
X139115993Y-99280261D01*
X139080449Y-99236951D01*
X138907623Y-99095116D01*
X138710447Y-98989724D01*
X138710437Y-98989721D01*
X138710435Y-98989720D01*
X138671945Y-98978044D01*
X138496499Y-98924823D01*
X138496491Y-98924822D01*
X138496487Y-98924821D01*
X138402918Y-98915606D01*
X138329752Y-98908400D01*
X138329746Y-98908400D01*
X138273989Y-98902909D01*
X138218245Y-98908400D01*
X136033552Y-98908400D01*
X135977800Y-98902909D01*
X135922048Y-98908400D01*
X135755301Y-98924823D01*
X135541353Y-98989724D01*
X135344177Y-99095116D01*
X135171351Y-99236951D01*
X135135809Y-99280259D01*
X124966860Y-109449209D01*
X124923552Y-109484751D01*
X124781717Y-109657577D01*
X124753551Y-109710273D01*
X124676324Y-109854754D01*
X124611423Y-110068702D01*
X124589509Y-110291200D01*
X124595001Y-110346961D01*
X124595000Y-113097960D01*
X124541595Y-113163034D01*
X124462107Y-113311746D01*
X124455526Y-113295438D01*
X124302125Y-113061260D01*
X124105986Y-112861508D01*
X123874646Y-112703859D01*
X123616996Y-112594372D01*
X123537060Y-112577690D01*
X123317000Y-112699848D01*
X123063000Y-112699848D01*
X122842940Y-112577690D01*
X122763004Y-112594372D01*
X122505354Y-112703859D01*
X122274014Y-112861508D01*
X122077875Y-113061260D01*
X121924474Y-113295438D01*
X121920000Y-113306524D01*
X121915526Y-113295438D01*
X121762125Y-113061260D01*
X121565986Y-112861508D01*
X121334646Y-112703859D01*
X121076996Y-112594372D01*
X120997060Y-112577690D01*
X120777000Y-112699848D01*
X120523000Y-112699848D01*
X120302940Y-112577690D01*
X120223004Y-112594372D01*
X119965354Y-112703859D01*
X119734014Y-112861508D01*
X119537875Y-113061260D01*
X119384474Y-113295438D01*
X119377893Y-113311745D01*
X119298405Y-113163033D01*
X119245000Y-113097959D01*
X119245000Y-101544831D01*
X124849831Y-95940000D01*
X126656928Y-95940000D01*
X126669188Y-96064482D01*
X126705498Y-96184180D01*
X126764463Y-96294494D01*
X126843815Y-96391185D01*
X126940506Y-96470537D01*
X127050820Y-96529502D01*
X127170518Y-96565812D01*
X127295000Y-96578072D01*
X127984250Y-96575000D01*
X128143000Y-96416250D01*
X128143000Y-95217000D01*
X128397000Y-95217000D01*
X128397000Y-96416250D01*
X128555750Y-96575000D01*
X129245000Y-96578072D01*
X129369482Y-96565812D01*
X129489180Y-96529502D01*
X129599494Y-96470537D01*
X129696185Y-96391185D01*
X129775537Y-96294494D01*
X129834502Y-96184180D01*
X129870812Y-96064482D01*
X129883072Y-95940000D01*
X129880000Y-95375750D01*
X129721250Y-95217000D01*
X128397000Y-95217000D01*
X128143000Y-95217000D01*
X126818750Y-95217000D01*
X126660000Y-95375750D01*
X126656928Y-95940000D01*
X124849831Y-95940000D01*
X126668628Y-94121204D01*
X126656928Y-94240000D01*
X126660000Y-94804250D01*
X126818750Y-94963000D01*
X128143000Y-94963000D01*
X128143000Y-94943000D01*
X128397000Y-94943000D01*
X128397000Y-94963000D01*
X129721250Y-94963000D01*
X129880000Y-94804250D01*
X129883072Y-94240000D01*
X129870812Y-94115518D01*
X129834502Y-93995820D01*
X129775537Y-93885506D01*
X129696185Y-93788815D01*
X129599494Y-93709463D01*
X129489180Y-93650498D01*
X129454392Y-93639945D01*
X129635706Y-93419014D01*
X129773599Y-93161034D01*
X129858513Y-92881111D01*
X129887185Y-92590000D01*
X129858513Y-92298889D01*
X129773599Y-92018966D01*
X129635706Y-91760986D01*
X129450134Y-91534866D01*
X129224014Y-91349294D01*
X129206626Y-91340000D01*
X129224014Y-91330706D01*
X129450134Y-91145134D01*
X129635706Y-90919014D01*
X129773599Y-90661034D01*
X129858513Y-90381111D01*
X129887185Y-90090000D01*
X129858513Y-89798889D01*
X129773599Y-89518966D01*
X129635706Y-89260986D01*
X129450134Y-89034866D01*
X129224014Y-88849294D01*
X129206626Y-88840000D01*
X129224014Y-88830706D01*
X129450134Y-88645134D01*
X129468543Y-88622702D01*
X138966903Y-88622702D01*
X139038486Y-88866671D01*
X139293996Y-88987571D01*
X139568184Y-89056300D01*
X139850512Y-89070217D01*
X140130130Y-89028787D01*
X140396292Y-88933603D01*
X140521514Y-88866671D01*
X140593097Y-88622702D01*
X139780000Y-87809605D01*
X138966903Y-88622702D01*
X129468543Y-88622702D01*
X129635706Y-88419014D01*
X129773599Y-88161034D01*
X129858513Y-87881111D01*
X129876300Y-87700512D01*
X138339783Y-87700512D01*
X138381213Y-87980130D01*
X138476397Y-88246292D01*
X138543329Y-88371514D01*
X138787298Y-88443097D01*
X139600395Y-87630000D01*
X139959605Y-87630000D01*
X140772702Y-88443097D01*
X141016671Y-88371514D01*
X141137571Y-88116004D01*
X141206300Y-87841816D01*
X141220217Y-87559488D01*
X141178787Y-87279870D01*
X141083603Y-87013708D01*
X141016671Y-86888486D01*
X140772702Y-86816903D01*
X139959605Y-87630000D01*
X139600395Y-87630000D01*
X138787298Y-86816903D01*
X138543329Y-86888486D01*
X138422429Y-87143996D01*
X138353700Y-87418184D01*
X138339783Y-87700512D01*
X129876300Y-87700512D01*
X129887185Y-87590000D01*
X129858513Y-87298889D01*
X129773599Y-87018966D01*
X129635706Y-86760986D01*
X129534198Y-86637298D01*
X138966903Y-86637298D01*
X139780000Y-87450395D01*
X140593097Y-86637298D01*
X140521514Y-86393329D01*
X140266004Y-86272429D01*
X139991816Y-86203700D01*
X139709488Y-86189783D01*
X139429870Y-86231213D01*
X139163708Y-86326397D01*
X139038486Y-86393329D01*
X138966903Y-86637298D01*
X129534198Y-86637298D01*
X129450134Y-86534866D01*
X129224014Y-86349294D01*
X129206626Y-86340000D01*
X129224014Y-86330706D01*
X129450134Y-86145134D01*
X129635706Y-85919014D01*
X129773599Y-85661034D01*
X129858513Y-85381111D01*
X129887185Y-85090000D01*
X129858513Y-84798889D01*
X129773599Y-84518966D01*
X129635706Y-84260986D01*
X129450134Y-84034866D01*
X129224014Y-83849294D01*
X129030000Y-83745591D01*
X129030000Y-76514801D01*
X137828303Y-67716499D01*
X137850198Y-67698531D01*
X137883038Y-67716084D01*
X138151162Y-67797419D01*
X138430000Y-67824882D01*
X138708839Y-67797419D01*
X138976963Y-67716084D01*
X139224067Y-67584005D01*
X139440655Y-67406255D01*
X139618405Y-67189667D01*
X139700000Y-67037013D01*
X139781595Y-67189667D01*
X139959346Y-67406255D01*
X140175934Y-67584005D01*
X140423038Y-67716084D01*
X140691162Y-67797419D01*
X140970000Y-67824882D01*
X141248839Y-67797419D01*
X141516963Y-67716084D01*
X141764067Y-67584005D01*
X141980655Y-67406255D01*
X142158405Y-67189667D01*
X142236606Y-67043363D01*
X142321595Y-67202367D01*
X142499346Y-67418955D01*
X142715934Y-67596705D01*
X142963038Y-67728784D01*
X143231162Y-67810119D01*
X143510000Y-67837582D01*
X143788839Y-67810119D01*
X144056963Y-67728784D01*
X144304067Y-67596705D01*
X144520655Y-67418955D01*
X144698405Y-67202367D01*
X144830484Y-66955263D01*
X144911819Y-66687138D01*
X144925072Y-66552573D01*
X151939862Y-73567364D01*
X151720273Y-73658320D01*
X151485241Y-73815363D01*
X151285363Y-74015241D01*
X151128320Y-74250273D01*
X151020147Y-74511426D01*
X150965000Y-74788665D01*
X150965000Y-75071335D01*
X151020147Y-75348574D01*
X151128320Y-75609727D01*
X151236213Y-75771200D01*
X148754014Y-75771200D01*
X148758072Y-75730000D01*
X148758072Y-74130000D01*
X148745812Y-74005518D01*
X148709502Y-73885820D01*
X148650537Y-73775506D01*
X148571185Y-73678815D01*
X148474494Y-73599463D01*
X148364180Y-73540498D01*
X148244482Y-73504188D01*
X148120000Y-73491928D01*
X146520000Y-73491928D01*
X146395518Y-73504188D01*
X146275820Y-73540498D01*
X146165506Y-73599463D01*
X146068815Y-73678815D01*
X145989463Y-73775506D01*
X145930498Y-73885820D01*
X145894188Y-74005518D01*
X145881928Y-74130000D01*
X145881928Y-74496326D01*
X141994604Y-70609003D01*
X141970801Y-70579999D01*
X141855076Y-70485026D01*
X141723047Y-70414454D01*
X141579786Y-70370997D01*
X141468133Y-70360000D01*
X141468122Y-70360000D01*
X141430800Y-70356324D01*
X141393478Y-70360000D01*
X138757313Y-70360000D01*
X138756008Y-70346746D01*
X138705472Y-70180150D01*
X138623405Y-70026614D01*
X138512962Y-69892038D01*
X138378386Y-69781595D01*
X138224850Y-69699528D01*
X138058254Y-69648992D01*
X137885000Y-69631928D01*
X136435000Y-69631928D01*
X136261746Y-69648992D01*
X136095150Y-69699528D01*
X135941614Y-69781595D01*
X135807038Y-69892038D01*
X135696595Y-70026614D01*
X135614528Y-70180150D01*
X135563992Y-70346746D01*
X135546928Y-70520000D01*
X135546928Y-71720000D01*
X135563992Y-71893254D01*
X135614528Y-72059850D01*
X135696595Y-72213386D01*
X135807038Y-72347962D01*
X135941614Y-72458405D01*
X136043337Y-72512777D01*
X135979866Y-72564866D01*
X135794294Y-72790986D01*
X135656401Y-73048966D01*
X135571487Y-73328889D01*
X135542815Y-73620000D01*
X135571487Y-73911111D01*
X135656401Y-74191034D01*
X135794294Y-74449014D01*
X135979866Y-74675134D01*
X136205986Y-74860706D01*
X136223374Y-74870000D01*
X136205986Y-74879294D01*
X135979866Y-75064866D01*
X135794294Y-75290986D01*
X135656401Y-75548966D01*
X135571487Y-75828889D01*
X135542815Y-76120000D01*
X135571487Y-76411111D01*
X135656401Y-76691034D01*
X135794294Y-76949014D01*
X135979866Y-77175134D01*
X136205986Y-77360706D01*
X136223374Y-77370000D01*
X136205986Y-77379294D01*
X135979866Y-77564866D01*
X135794294Y-77790986D01*
X135656401Y-78048966D01*
X135571487Y-78328889D01*
X135542815Y-78620000D01*
X135571487Y-78911111D01*
X135656401Y-79191034D01*
X135794294Y-79449014D01*
X135979866Y-79675134D01*
X136205986Y-79860706D01*
X136420412Y-79975319D01*
X136454454Y-80087546D01*
X136525026Y-80219576D01*
X136596201Y-80306302D01*
X136620000Y-80335301D01*
X136648998Y-80359099D01*
X143305605Y-87015708D01*
X143329399Y-87044701D01*
X143358392Y-87068495D01*
X143358396Y-87068499D01*
X143429085Y-87126511D01*
X143433738Y-87130330D01*
X143400147Y-87211426D01*
X143345000Y-87488665D01*
X143345000Y-87771335D01*
X143400147Y-88048574D01*
X143508320Y-88309727D01*
X143643231Y-88511636D01*
X139602718Y-92552150D01*
X139361426Y-92600147D01*
X139100273Y-92708320D01*
X138865241Y-92865363D01*
X138665363Y-93065241D01*
X138508320Y-93300273D01*
X138400147Y-93561426D01*
X138345000Y-93838665D01*
X138345000Y-94121335D01*
X138400147Y-94398574D01*
X138508320Y-94659727D01*
X138665363Y-94894759D01*
X138865241Y-95094637D01*
X139100273Y-95251680D01*
X139361426Y-95359853D01*
X139638665Y-95415000D01*
X139921335Y-95415000D01*
X140198574Y-95359853D01*
X140459727Y-95251680D01*
X140694759Y-95094637D01*
X140816694Y-94972702D01*
X143966903Y-94972702D01*
X144038486Y-95216671D01*
X144293996Y-95337571D01*
X144568184Y-95406300D01*
X144850512Y-95420217D01*
X145130130Y-95378787D01*
X145396292Y-95283603D01*
X145521514Y-95216671D01*
X145593097Y-94972702D01*
X144780000Y-94159605D01*
X143966903Y-94972702D01*
X140816694Y-94972702D01*
X140894637Y-94894759D01*
X141051680Y-94659727D01*
X141159853Y-94398574D01*
X141207850Y-94157282D01*
X141314620Y-94050512D01*
X143339783Y-94050512D01*
X143381213Y-94330130D01*
X143476397Y-94596292D01*
X143543329Y-94721514D01*
X143787298Y-94793097D01*
X144600395Y-93980000D01*
X144959605Y-93980000D01*
X145772702Y-94793097D01*
X146016671Y-94721514D01*
X146137571Y-94466004D01*
X146206300Y-94191816D01*
X146220217Y-93909488D01*
X146178787Y-93629870D01*
X146083603Y-93363708D01*
X146016671Y-93238486D01*
X145772702Y-93166903D01*
X144959605Y-93980000D01*
X144600395Y-93980000D01*
X143787298Y-93166903D01*
X143543329Y-93238486D01*
X143422429Y-93493996D01*
X143353700Y-93768184D01*
X143339783Y-94050512D01*
X141314620Y-94050512D01*
X142377834Y-92987298D01*
X143966903Y-92987298D01*
X144780000Y-93800395D01*
X145593097Y-92987298D01*
X145521514Y-92743329D01*
X145266004Y-92622429D01*
X144991816Y-92553700D01*
X144709488Y-92539783D01*
X144429870Y-92581213D01*
X144163708Y-92676397D01*
X144038486Y-92743329D01*
X143966903Y-92987298D01*
X142377834Y-92987298D01*
X145099833Y-90265300D01*
X154469869Y-90265300D01*
X156442409Y-92237841D01*
X156477951Y-92281149D01*
X156650777Y-92422984D01*
X156847953Y-92528376D01*
X157061901Y-92593277D01*
X157084683Y-92595521D01*
X157061426Y-92600147D01*
X156800273Y-92708320D01*
X156565241Y-92865363D01*
X156365363Y-93065241D01*
X156208320Y-93300273D01*
X156203933Y-93310865D01*
X156092385Y-93124869D01*
X155903414Y-92916481D01*
X155677420Y-92748963D01*
X155423087Y-92628754D01*
X155289039Y-92588096D01*
X155067000Y-92710085D01*
X155067000Y-93853000D01*
X155087000Y-93853000D01*
X155087000Y-94107000D01*
X155067000Y-94107000D01*
X155067000Y-95249915D01*
X155289039Y-95371904D01*
X155423087Y-95331246D01*
X155677420Y-95211037D01*
X155903414Y-95043519D01*
X156092385Y-94835131D01*
X156203933Y-94649135D01*
X156208320Y-94659727D01*
X156365363Y-94894759D01*
X156565241Y-95094637D01*
X156800273Y-95251680D01*
X157061426Y-95359853D01*
X157338665Y-95415000D01*
X157621335Y-95415000D01*
X157898574Y-95359853D01*
X158159727Y-95251680D01*
X158394759Y-95094637D01*
X158594637Y-94894759D01*
X158750000Y-94662241D01*
X158905363Y-94894759D01*
X159105241Y-95094637D01*
X159340273Y-95251680D01*
X159601426Y-95359853D01*
X159878665Y-95415000D01*
X160161335Y-95415000D01*
X160438574Y-95359853D01*
X160699727Y-95251680D01*
X160934759Y-95094637D01*
X161134637Y-94894759D01*
X161290000Y-94662241D01*
X161445363Y-94894759D01*
X161645241Y-95094637D01*
X161880273Y-95251680D01*
X162141426Y-95359853D01*
X162418665Y-95415000D01*
X162701335Y-95415000D01*
X162978574Y-95359853D01*
X163239727Y-95251680D01*
X163474759Y-95094637D01*
X163674637Y-94894759D01*
X163830000Y-94662241D01*
X163985363Y-94894759D01*
X164185241Y-95094637D01*
X164420273Y-95251680D01*
X164681426Y-95359853D01*
X164958665Y-95415000D01*
X165241335Y-95415000D01*
X165518574Y-95359853D01*
X165779727Y-95251680D01*
X166014759Y-95094637D01*
X166214637Y-94894759D01*
X166370000Y-94662241D01*
X166525363Y-94894759D01*
X166725241Y-95094637D01*
X166960273Y-95251680D01*
X167221426Y-95359853D01*
X167498665Y-95415000D01*
X167781335Y-95415000D01*
X168058574Y-95359853D01*
X168319727Y-95251680D01*
X168554759Y-95094637D01*
X168753357Y-94896039D01*
X168754188Y-94904482D01*
X168790498Y-95024180D01*
X168849463Y-95134494D01*
X168928815Y-95231185D01*
X169025506Y-95310537D01*
X169135820Y-95369502D01*
X169255518Y-95405812D01*
X169380000Y-95418072D01*
X169894250Y-95415000D01*
X170053000Y-95256250D01*
X170053000Y-94107000D01*
X170307000Y-94107000D01*
X170307000Y-95256250D01*
X170465750Y-95415000D01*
X170980000Y-95418072D01*
X171104482Y-95405812D01*
X171224180Y-95369502D01*
X171334494Y-95310537D01*
X171431185Y-95231185D01*
X171510537Y-95134494D01*
X171569502Y-95024180D01*
X171605812Y-94904482D01*
X171618072Y-94780000D01*
X171615000Y-94265750D01*
X171456250Y-94107000D01*
X170307000Y-94107000D01*
X170053000Y-94107000D01*
X170033000Y-94107000D01*
X170033000Y-93853000D01*
X170053000Y-93853000D01*
X170053000Y-92703750D01*
X170307000Y-92703750D01*
X170307000Y-93853000D01*
X171456250Y-93853000D01*
X171615000Y-93694250D01*
X171618072Y-93180000D01*
X171605812Y-93055518D01*
X171569502Y-92935820D01*
X171510537Y-92825506D01*
X171431185Y-92728815D01*
X171334494Y-92649463D01*
X171224180Y-92590498D01*
X171104482Y-92554188D01*
X170980000Y-92541928D01*
X170465750Y-92545000D01*
X170307000Y-92703750D01*
X170053000Y-92703750D01*
X169894250Y-92545000D01*
X169380000Y-92541928D01*
X169255518Y-92554188D01*
X169135820Y-92590498D01*
X169025506Y-92649463D01*
X168928815Y-92728815D01*
X168849463Y-92825506D01*
X168790498Y-92935820D01*
X168754188Y-93055518D01*
X168753357Y-93063961D01*
X168554759Y-92865363D01*
X168319727Y-92708320D01*
X168058574Y-92600147D01*
X167817282Y-92552150D01*
X165976696Y-90711565D01*
X165941149Y-90668251D01*
X165768323Y-90526416D01*
X165571147Y-90421024D01*
X165357199Y-90356123D01*
X165190452Y-90339700D01*
X165190451Y-90339700D01*
X165134700Y-90334209D01*
X165078949Y-90339700D01*
X157754532Y-90339700D01*
X156075000Y-88660169D01*
X156075000Y-88514284D01*
X156172187Y-88368833D01*
X156205714Y-88379003D01*
X156258053Y-88384158D01*
X156365363Y-88544759D01*
X156565241Y-88744637D01*
X156800273Y-88901680D01*
X157061426Y-89009853D01*
X157338665Y-89065000D01*
X157621335Y-89065000D01*
X157898574Y-89009853D01*
X158159727Y-88901680D01*
X158394759Y-88744637D01*
X158594637Y-88544759D01*
X158712187Y-88368833D01*
X158745714Y-88379003D01*
X158798053Y-88384158D01*
X158905363Y-88544759D01*
X159105241Y-88744637D01*
X159340273Y-88901680D01*
X159601426Y-89009853D01*
X159878665Y-89065000D01*
X160161335Y-89065000D01*
X160438574Y-89009853D01*
X160699727Y-88901680D01*
X160934759Y-88744637D01*
X161134637Y-88544759D01*
X161252187Y-88368833D01*
X161285714Y-88379003D01*
X161338053Y-88384158D01*
X161445363Y-88544759D01*
X161645241Y-88744637D01*
X161880273Y-88901680D01*
X162141426Y-89009853D01*
X162418665Y-89065000D01*
X162701335Y-89065000D01*
X162978574Y-89009853D01*
X163239727Y-88901680D01*
X163474759Y-88744637D01*
X163674637Y-88544759D01*
X163792187Y-88368833D01*
X163825714Y-88379003D01*
X163878053Y-88384158D01*
X163985363Y-88544759D01*
X164185241Y-88744637D01*
X164420273Y-88901680D01*
X164681426Y-89009853D01*
X164958665Y-89065000D01*
X165241335Y-89065000D01*
X165518574Y-89009853D01*
X165779727Y-88901680D01*
X166014759Y-88744637D01*
X166214637Y-88544759D01*
X166371680Y-88309727D01*
X166376067Y-88299135D01*
X166487615Y-88485131D01*
X166676586Y-88693519D01*
X166902580Y-88861037D01*
X167156913Y-88981246D01*
X167290961Y-89021904D01*
X167513000Y-88899915D01*
X167513000Y-87757000D01*
X167493000Y-87757000D01*
X167493000Y-87503000D01*
X167513000Y-87503000D01*
X167513000Y-86360085D01*
X167767000Y-86360085D01*
X167767000Y-87503000D01*
X167787000Y-87503000D01*
X167787000Y-87757000D01*
X167767000Y-87757000D01*
X167767000Y-88899915D01*
X167989039Y-89021904D01*
X168123087Y-88981246D01*
X168377420Y-88861037D01*
X168603414Y-88693519D01*
X168792385Y-88485131D01*
X168903933Y-88299135D01*
X168908320Y-88309727D01*
X169065363Y-88544759D01*
X169265241Y-88744637D01*
X169500273Y-88901680D01*
X169761426Y-89009853D01*
X170038665Y-89065000D01*
X170321335Y-89065000D01*
X170598574Y-89009853D01*
X170859727Y-88901680D01*
X171094759Y-88744637D01*
X171294637Y-88544759D01*
X171451680Y-88309727D01*
X171559853Y-88048574D01*
X171615000Y-87771335D01*
X171615000Y-87488665D01*
X171559853Y-87211426D01*
X171451680Y-86950273D01*
X171294637Y-86715241D01*
X171094759Y-86515363D01*
X170859727Y-86358320D01*
X170598574Y-86250147D01*
X170321335Y-86195000D01*
X170038665Y-86195000D01*
X169761426Y-86250147D01*
X169500273Y-86358320D01*
X169265241Y-86515363D01*
X169065363Y-86715241D01*
X168908320Y-86950273D01*
X168903933Y-86960865D01*
X168792385Y-86774869D01*
X168603414Y-86566481D01*
X168377420Y-86398963D01*
X168123087Y-86278754D01*
X167989039Y-86238096D01*
X167767000Y-86360085D01*
X167513000Y-86360085D01*
X167290961Y-86238096D01*
X167156913Y-86278754D01*
X166902580Y-86398963D01*
X166676586Y-86566481D01*
X166487615Y-86774869D01*
X166376067Y-86960865D01*
X166371680Y-86950273D01*
X166214637Y-86715241D01*
X166014759Y-86515363D01*
X165779727Y-86358320D01*
X165518574Y-86250147D01*
X165241335Y-86195000D01*
X164958665Y-86195000D01*
X164681426Y-86250147D01*
X164420273Y-86358320D01*
X164203779Y-86502977D01*
X153721004Y-76020203D01*
X153697201Y-75991199D01*
X153581476Y-75896226D01*
X153504380Y-75855016D01*
X153514637Y-75844759D01*
X153632187Y-75668833D01*
X153665714Y-75679003D01*
X153718053Y-75684158D01*
X153825363Y-75844759D01*
X154025241Y-76044637D01*
X154260273Y-76201680D01*
X154521426Y-76309853D01*
X154798665Y-76365000D01*
X155081335Y-76365000D01*
X155358574Y-76309853D01*
X155619727Y-76201680D01*
X155854759Y-76044637D01*
X156054637Y-75844759D01*
X156210000Y-75612241D01*
X156365363Y-75844759D01*
X156565241Y-76044637D01*
X156800273Y-76201680D01*
X157061426Y-76309853D01*
X157338665Y-76365000D01*
X157621335Y-76365000D01*
X157898574Y-76309853D01*
X158159727Y-76201680D01*
X158394759Y-76044637D01*
X158594637Y-75844759D01*
X158750000Y-75612241D01*
X158905363Y-75844759D01*
X159105241Y-76044637D01*
X159340273Y-76201680D01*
X159601426Y-76309853D01*
X159878665Y-76365000D01*
X160161335Y-76365000D01*
X160438574Y-76309853D01*
X160699727Y-76201680D01*
X160934759Y-76044637D01*
X161134637Y-75844759D01*
X161252187Y-75668833D01*
X161285714Y-75679003D01*
X161338053Y-75684158D01*
X161445363Y-75844759D01*
X161645241Y-76044637D01*
X161880273Y-76201680D01*
X162141426Y-76309853D01*
X162418665Y-76365000D01*
X162701335Y-76365000D01*
X162978574Y-76309853D01*
X163239727Y-76201680D01*
X163474759Y-76044637D01*
X163674637Y-75844759D01*
X163830000Y-75612241D01*
X163985363Y-75844759D01*
X164185241Y-76044637D01*
X164420273Y-76201680D01*
X164681426Y-76309853D01*
X164958665Y-76365000D01*
X165241335Y-76365000D01*
X165518574Y-76309853D01*
X165779727Y-76201680D01*
X166014759Y-76044637D01*
X166214637Y-75844759D01*
X166370000Y-75612241D01*
X166525363Y-75844759D01*
X166725241Y-76044637D01*
X166960273Y-76201680D01*
X167221426Y-76309853D01*
X167498665Y-76365000D01*
X167781335Y-76365000D01*
X168058574Y-76309853D01*
X168319727Y-76201680D01*
X168554759Y-76044637D01*
X168754637Y-75844759D01*
X168910000Y-75612241D01*
X169065363Y-75844759D01*
X169265241Y-76044637D01*
X169500273Y-76201680D01*
X169761426Y-76309853D01*
X170038665Y-76365000D01*
X170321335Y-76365000D01*
X170598574Y-76309853D01*
X170859727Y-76201680D01*
X171094759Y-76044637D01*
X171294637Y-75844759D01*
X171451680Y-75609727D01*
X171559853Y-75348574D01*
X171615000Y-75071335D01*
X171615000Y-74788665D01*
X171559853Y-74511426D01*
X171451680Y-74250273D01*
X171294637Y-74015241D01*
X171094759Y-73815363D01*
X170859727Y-73658320D01*
X170598574Y-73550147D01*
X170321335Y-73495000D01*
X170038665Y-73495000D01*
X169761426Y-73550147D01*
X169500273Y-73658320D01*
X169265241Y-73815363D01*
X169065363Y-74015241D01*
X168910000Y-74247759D01*
X168754637Y-74015241D01*
X168554759Y-73815363D01*
X168319727Y-73658320D01*
X168058574Y-73550147D01*
X167781335Y-73495000D01*
X167498665Y-73495000D01*
X167221426Y-73550147D01*
X166960273Y-73658320D01*
X166725241Y-73815363D01*
X166525363Y-74015241D01*
X166370000Y-74247759D01*
X166214637Y-74015241D01*
X166014759Y-73815363D01*
X165779727Y-73658320D01*
X165518574Y-73550147D01*
X165241335Y-73495000D01*
X164958665Y-73495000D01*
X164681426Y-73550147D01*
X164420273Y-73658320D01*
X164185241Y-73815363D01*
X163985363Y-74015241D01*
X163830000Y-74247759D01*
X163674637Y-74015241D01*
X163474759Y-73815363D01*
X163239727Y-73658320D01*
X162978574Y-73550147D01*
X162701335Y-73495000D01*
X162418665Y-73495000D01*
X162141426Y-73550147D01*
X161880273Y-73658320D01*
X161663838Y-73802937D01*
X161154603Y-73293702D01*
X161130801Y-73264699D01*
X161015076Y-73169726D01*
X160883047Y-73099154D01*
X160739786Y-73055697D01*
X160628133Y-73044700D01*
X160628122Y-73044700D01*
X160590800Y-73041024D01*
X160553478Y-73044700D01*
X154246602Y-73044700D01*
X148968951Y-67767050D01*
X149136963Y-67716084D01*
X149384067Y-67584005D01*
X149600655Y-67406255D01*
X149778405Y-67189667D01*
X149860000Y-67037013D01*
X149941595Y-67189667D01*
X150119346Y-67406255D01*
X150335934Y-67584005D01*
X150583038Y-67716084D01*
X150851162Y-67797419D01*
X151130000Y-67824882D01*
X151408839Y-67797419D01*
X151676963Y-67716084D01*
X151924067Y-67584005D01*
X152140655Y-67406255D01*
X152318405Y-67189667D01*
X152400000Y-67037013D01*
X152481595Y-67189667D01*
X152659346Y-67406255D01*
X152875934Y-67584005D01*
X153123038Y-67716084D01*
X153391162Y-67797419D01*
X153670000Y-67824882D01*
X153948839Y-67797419D01*
X154216963Y-67716084D01*
X154464067Y-67584005D01*
X154680655Y-67406255D01*
X154858405Y-67189667D01*
X154940000Y-67037013D01*
X155021595Y-67189667D01*
X155199346Y-67406255D01*
X155415934Y-67584005D01*
X155663038Y-67716084D01*
X155931162Y-67797419D01*
X156210000Y-67824882D01*
X156488839Y-67797419D01*
X156756963Y-67716084D01*
X157004067Y-67584005D01*
X157220655Y-67406255D01*
X157398405Y-67189667D01*
X157480000Y-67037013D01*
X157561595Y-67189667D01*
X157739346Y-67406255D01*
X157955934Y-67584005D01*
X158203038Y-67716084D01*
X158471162Y-67797419D01*
X158750000Y-67824882D01*
X159028839Y-67797419D01*
X159296963Y-67716084D01*
X159544067Y-67584005D01*
X159760655Y-67406255D01*
X159938405Y-67189667D01*
X160020000Y-67037013D01*
X160101595Y-67189667D01*
X160279346Y-67406255D01*
X160495934Y-67584005D01*
X160743038Y-67716084D01*
X161011162Y-67797419D01*
X161290000Y-67824882D01*
X161568839Y-67797419D01*
X161836963Y-67716084D01*
X162084067Y-67584005D01*
X162300655Y-67406255D01*
X162478405Y-67189667D01*
X162556606Y-67043363D01*
X162641595Y-67202367D01*
X162819346Y-67418955D01*
X163035934Y-67596705D01*
X163283038Y-67728784D01*
X163551162Y-67810119D01*
X163830000Y-67837582D01*
X164108839Y-67810119D01*
X164376963Y-67728784D01*
X164624067Y-67596705D01*
X164840655Y-67418955D01*
X165018405Y-67202367D01*
X165100000Y-67049713D01*
X165181595Y-67202367D01*
X165359346Y-67418955D01*
X165575934Y-67596705D01*
X165823038Y-67728784D01*
X166091162Y-67810119D01*
X166370000Y-67837582D01*
X166648839Y-67810119D01*
X166916963Y-67728784D01*
X167164067Y-67596705D01*
X167380655Y-67418955D01*
X167558405Y-67202367D01*
X167577832Y-67166021D01*
X167667656Y-67382876D01*
X167977912Y-67847207D01*
X168372793Y-68242088D01*
X168837124Y-68552344D01*
X169353061Y-68766052D01*
X169900777Y-68875000D01*
X170459223Y-68875000D01*
X171006939Y-68766052D01*
X171522876Y-68552344D01*
X171987207Y-68242088D01*
X172382088Y-67847207D01*
X172692344Y-67382876D01*
X172886095Y-66915121D01*
X172904880Y-66943235D01*
X173099465Y-67137820D01*
X173328273Y-67290705D01*
X173405515Y-67322700D01*
X173328273Y-67354695D01*
X173099465Y-67507580D01*
X172904880Y-67702165D01*
X172751995Y-67930973D01*
X172646686Y-68185210D01*
X172593000Y-68455108D01*
X172593000Y-68730292D01*
X172646686Y-69000190D01*
X172751995Y-69254427D01*
X172904880Y-69483235D01*
X173099465Y-69677820D01*
X173328273Y-69830705D01*
X173405515Y-69862700D01*
X173328273Y-69894695D01*
X173099465Y-70047580D01*
X172904880Y-70242165D01*
X172751995Y-70470973D01*
X172646686Y-70725210D01*
X172593000Y-70995108D01*
X172593000Y-71270292D01*
X172646686Y-71540190D01*
X172751995Y-71794427D01*
X172904880Y-72023235D01*
X173099465Y-72217820D01*
X173328273Y-72370705D01*
X173405515Y-72402700D01*
X173328273Y-72434695D01*
X173099465Y-72587580D01*
X172904880Y-72782165D01*
X172751995Y-73010973D01*
X172646686Y-73265210D01*
X172593000Y-73535108D01*
X172593000Y-73810292D01*
X172646686Y-74080190D01*
X172751995Y-74334427D01*
X172904880Y-74563235D01*
X173099465Y-74757820D01*
X173328273Y-74910705D01*
X173405515Y-74942700D01*
X173328273Y-74974695D01*
X173099465Y-75127580D01*
X172904880Y-75322165D01*
X172751995Y-75550973D01*
X172646686Y-75805210D01*
X172593000Y-76075108D01*
X172593000Y-76350292D01*
X172646686Y-76620190D01*
X172751995Y-76874427D01*
X172904880Y-77103235D01*
X173099465Y-77297820D01*
X173328273Y-77450705D01*
X173405515Y-77482700D01*
X173328273Y-77514695D01*
X173099465Y-77667580D01*
X172904880Y-77862165D01*
X172751995Y-78090973D01*
X172646686Y-78345210D01*
X172593000Y-78615108D01*
X172593000Y-78890292D01*
X172646686Y-79160190D01*
X172751995Y-79414427D01*
X172904880Y-79643235D01*
X173099465Y-79837820D01*
X173328273Y-79990705D01*
X173405515Y-80022700D01*
X173328273Y-80054695D01*
X173099465Y-80207580D01*
X172904880Y-80402165D01*
X172751995Y-80630973D01*
X172646686Y-80885210D01*
X172593000Y-81155108D01*
X172593000Y-81430292D01*
X172646686Y-81700190D01*
X172751995Y-81954427D01*
X172904880Y-82183235D01*
X173099465Y-82377820D01*
X173328273Y-82530705D01*
X173405515Y-82562700D01*
X173328273Y-82594695D01*
X173099465Y-82747580D01*
X172904880Y-82942165D01*
X172751995Y-83170973D01*
X172646686Y-83425210D01*
X172593000Y-83695108D01*
X172593000Y-83970292D01*
X172646686Y-84240190D01*
X172751995Y-84494427D01*
X172904880Y-84723235D01*
X173099465Y-84917820D01*
X173328273Y-85070705D01*
X173405515Y-85102700D01*
X173328273Y-85134695D01*
X173099465Y-85287580D01*
X172904880Y-85482165D01*
X172751995Y-85710973D01*
X172646686Y-85965210D01*
X172593000Y-86235108D01*
X172593000Y-86510292D01*
X172646686Y-86780190D01*
X172751995Y-87034427D01*
X172904880Y-87263235D01*
X173099465Y-87457820D01*
X173328273Y-87610705D01*
X173405515Y-87642700D01*
X173328273Y-87674695D01*
X173099465Y-87827580D01*
X172904880Y-88022165D01*
X172751995Y-88250973D01*
X172646686Y-88505210D01*
X172593000Y-88775108D01*
X172593000Y-89050292D01*
X172646686Y-89320190D01*
X172751995Y-89574427D01*
X172904880Y-89803235D01*
X173099465Y-89997820D01*
X173328273Y-90150705D01*
X173405515Y-90182700D01*
X173328273Y-90214695D01*
X173099465Y-90367580D01*
X172904880Y-90562165D01*
X172751995Y-90790973D01*
X172646686Y-91045210D01*
X172593000Y-91315108D01*
X172593000Y-91590292D01*
X172646686Y-91860190D01*
X172751995Y-92114427D01*
X172904880Y-92343235D01*
X173099465Y-92537820D01*
X173328273Y-92690705D01*
X173405515Y-92722700D01*
X173328273Y-92754695D01*
X173099465Y-92907580D01*
X172904880Y-93102165D01*
X172751995Y-93330973D01*
X172646686Y-93585210D01*
X172593000Y-93855108D01*
X172593000Y-94130292D01*
X172646686Y-94400190D01*
X172751995Y-94654427D01*
X172904880Y-94883235D01*
X173099465Y-95077820D01*
X173328273Y-95230705D01*
X173405515Y-95262700D01*
X173328273Y-95294695D01*
X173099465Y-95447580D01*
X172904880Y-95642165D01*
X172751995Y-95870973D01*
X172646686Y-96125210D01*
X172593000Y-96395108D01*
X172593000Y-96670292D01*
X172646686Y-96940190D01*
X172751995Y-97194427D01*
X172904880Y-97423235D01*
X173099465Y-97617820D01*
X173328273Y-97770705D01*
X173405515Y-97802700D01*
X173328273Y-97834695D01*
X173099465Y-97987580D01*
X172904880Y-98182165D01*
X172751995Y-98410973D01*
X172646686Y-98665210D01*
X172593000Y-98935108D01*
X172593000Y-99210292D01*
X172646686Y-99480190D01*
X172751995Y-99734427D01*
X172904880Y-99963235D01*
X173099465Y-100157820D01*
X173328273Y-100310705D01*
X173405515Y-100342700D01*
X173328273Y-100374695D01*
X173099465Y-100527580D01*
X172904880Y-100722165D01*
X172751995Y-100950973D01*
X172646686Y-101205210D01*
X172593000Y-101475108D01*
X172593000Y-101750292D01*
X172646686Y-102020190D01*
X172751995Y-102274427D01*
X172904880Y-102503235D01*
X173099465Y-102697820D01*
X173328273Y-102850705D01*
X173405515Y-102882700D01*
X173328273Y-102914695D01*
X173099465Y-103067580D01*
X172904880Y-103262165D01*
X172751995Y-103490973D01*
X172646686Y-103745210D01*
X172593000Y-104015108D01*
X172593000Y-104290292D01*
X172646686Y-104560190D01*
X172751995Y-104814427D01*
X172904880Y-105043235D01*
X173099465Y-105237820D01*
X173328273Y-105390705D01*
X173405515Y-105422700D01*
X173328273Y-105454695D01*
X173099465Y-105607580D01*
X172904880Y-105802165D01*
X172751995Y-106030973D01*
X172646686Y-106285210D01*
X172593000Y-106555108D01*
X172593000Y-106830292D01*
X172646686Y-107100190D01*
X172751995Y-107354427D01*
X172904880Y-107583235D01*
X173099465Y-107777820D01*
X173328273Y-107930705D01*
X173405515Y-107962700D01*
X173328273Y-107994695D01*
X173099465Y-108147580D01*
X172904880Y-108342165D01*
X172751995Y-108570973D01*
X172646686Y-108825210D01*
X172593000Y-109095108D01*
X172593000Y-109370292D01*
X172646686Y-109640190D01*
X172751995Y-109894427D01*
X172904880Y-110123235D01*
X173099465Y-110317820D01*
X173328273Y-110470705D01*
X173582510Y-110576014D01*
X173852408Y-110629700D01*
X174127592Y-110629700D01*
X174397490Y-110576014D01*
X174651727Y-110470705D01*
X174880535Y-110317820D01*
X175075120Y-110123235D01*
X175228005Y-109894427D01*
X175260000Y-109817185D01*
X175291995Y-109894427D01*
X175444880Y-110123235D01*
X175639465Y-110317820D01*
X175868273Y-110470705D01*
X176122510Y-110576014D01*
X176392408Y-110629700D01*
X176667592Y-110629700D01*
X176937490Y-110576014D01*
X177191727Y-110470705D01*
X177420535Y-110317820D01*
X177615120Y-110123235D01*
X177768005Y-109894427D01*
X177873314Y-109640190D01*
X177927000Y-109370292D01*
X177927000Y-109095108D01*
X177873314Y-108825210D01*
X177768005Y-108570973D01*
X177615120Y-108342165D01*
X177420535Y-108147580D01*
X177191727Y-107994695D01*
X177114485Y-107962700D01*
X177191727Y-107930705D01*
X177420535Y-107777820D01*
X177615120Y-107583235D01*
X177768005Y-107354427D01*
X177873314Y-107100190D01*
X177927000Y-106830292D01*
X177927000Y-106555108D01*
X177873314Y-106285210D01*
X177768005Y-106030973D01*
X177615120Y-105802165D01*
X177420535Y-105607580D01*
X177191727Y-105454695D01*
X177114485Y-105422700D01*
X177191727Y-105390705D01*
X177420535Y-105237820D01*
X177615120Y-105043235D01*
X177768005Y-104814427D01*
X177873314Y-104560190D01*
X177927000Y-104290292D01*
X177927000Y-104015108D01*
X177873314Y-103745210D01*
X177768005Y-103490973D01*
X177615120Y-103262165D01*
X177420535Y-103067580D01*
X177191727Y-102914695D01*
X177114485Y-102882700D01*
X177191727Y-102850705D01*
X177420535Y-102697820D01*
X177615120Y-102503235D01*
X177768005Y-102274427D01*
X177873314Y-102020190D01*
X177927000Y-101750292D01*
X177927000Y-101475108D01*
X177873314Y-101205210D01*
X177768005Y-100950973D01*
X177615120Y-100722165D01*
X177420535Y-100527580D01*
X177191727Y-100374695D01*
X177114485Y-100342700D01*
X177191727Y-100310705D01*
X177420535Y-100157820D01*
X177615120Y-99963235D01*
X177768005Y-99734427D01*
X177873314Y-99480190D01*
X177927000Y-99210292D01*
X177927000Y-98935108D01*
X177873314Y-98665210D01*
X177768005Y-98410973D01*
X177615120Y-98182165D01*
X177420535Y-97987580D01*
X177191727Y-97834695D01*
X177114485Y-97802700D01*
X177191727Y-97770705D01*
X177420535Y-97617820D01*
X177615120Y-97423235D01*
X177768005Y-97194427D01*
X177873314Y-96940190D01*
X177927000Y-96670292D01*
X177927000Y-96395108D01*
X177873314Y-96125210D01*
X177768005Y-95870973D01*
X177615120Y-95642165D01*
X177420535Y-95447580D01*
X177191727Y-95294695D01*
X177114485Y-95262700D01*
X177191727Y-95230705D01*
X177420535Y-95077820D01*
X177615120Y-94883235D01*
X177768005Y-94654427D01*
X177873314Y-94400190D01*
X177927000Y-94130292D01*
X177927000Y-93855108D01*
X177873314Y-93585210D01*
X177768005Y-93330973D01*
X177615120Y-93102165D01*
X177420535Y-92907580D01*
X177191727Y-92754695D01*
X177114485Y-92722700D01*
X177191727Y-92690705D01*
X177420535Y-92537820D01*
X177615120Y-92343235D01*
X177768005Y-92114427D01*
X177873314Y-91860190D01*
X177927000Y-91590292D01*
X177927000Y-91315108D01*
X177873314Y-91045210D01*
X177768005Y-90790973D01*
X177615120Y-90562165D01*
X177420535Y-90367580D01*
X177191727Y-90214695D01*
X177114485Y-90182700D01*
X177191727Y-90150705D01*
X177420535Y-89997820D01*
X177615120Y-89803235D01*
X177768005Y-89574427D01*
X177873314Y-89320190D01*
X177927000Y-89050292D01*
X177927000Y-88775108D01*
X177873314Y-88505210D01*
X177768005Y-88250973D01*
X177615120Y-88022165D01*
X177420535Y-87827580D01*
X177191727Y-87674695D01*
X177114485Y-87642700D01*
X177191727Y-87610705D01*
X177420535Y-87457820D01*
X177615120Y-87263235D01*
X177768005Y-87034427D01*
X177873314Y-86780190D01*
X177927000Y-86510292D01*
X177927000Y-86235108D01*
X177873314Y-85965210D01*
X177768005Y-85710973D01*
X177615120Y-85482165D01*
X177420535Y-85287580D01*
X177191727Y-85134695D01*
X177114485Y-85102700D01*
X177191727Y-85070705D01*
X177420535Y-84917820D01*
X177615120Y-84723235D01*
X177768005Y-84494427D01*
X177873314Y-84240190D01*
X177927000Y-83970292D01*
X177927000Y-83695108D01*
X177873314Y-83425210D01*
X177768005Y-83170973D01*
X177615120Y-82942165D01*
X177420535Y-82747580D01*
X177191727Y-82594695D01*
X177114485Y-82562700D01*
X177191727Y-82530705D01*
X177420535Y-82377820D01*
X177615120Y-82183235D01*
X177768005Y-81954427D01*
X177873314Y-81700190D01*
X177927000Y-81430292D01*
X177927000Y-81155108D01*
X177873314Y-80885210D01*
X177768005Y-80630973D01*
X177615120Y-80402165D01*
X177420535Y-80207580D01*
X177191727Y-80054695D01*
X177114485Y-80022700D01*
X177191727Y-79990705D01*
X177420535Y-79837820D01*
X177615120Y-79643235D01*
X177768005Y-79414427D01*
X177873314Y-79160190D01*
X177927000Y-78890292D01*
X177927000Y-78615108D01*
X177873314Y-78345210D01*
X177768005Y-78090973D01*
X177615120Y-77862165D01*
X177420535Y-77667580D01*
X177191727Y-77514695D01*
X177114485Y-77482700D01*
X177191727Y-77450705D01*
X177420535Y-77297820D01*
X177615120Y-77103235D01*
X177768005Y-76874427D01*
X177873314Y-76620190D01*
X177927000Y-76350292D01*
X177927000Y-76075108D01*
X177873314Y-75805210D01*
X177768005Y-75550973D01*
X177615120Y-75322165D01*
X177420535Y-75127580D01*
X177191727Y-74974695D01*
X177114485Y-74942700D01*
X177191727Y-74910705D01*
X177420535Y-74757820D01*
X177615120Y-74563235D01*
X177768005Y-74334427D01*
X177873314Y-74080190D01*
X177927000Y-73810292D01*
X177927000Y-73535108D01*
X177873314Y-73265210D01*
X177768005Y-73010973D01*
X177615120Y-72782165D01*
X177420535Y-72587580D01*
X177191727Y-72434695D01*
X177114485Y-72402700D01*
X177191727Y-72370705D01*
X177420535Y-72217820D01*
X177615120Y-72023235D01*
X177768005Y-71794427D01*
X177873314Y-71540190D01*
X177927000Y-71270292D01*
X177927000Y-70995108D01*
X177873314Y-70725210D01*
X177768005Y-70470973D01*
X177615120Y-70242165D01*
X177420535Y-70047580D01*
X177191727Y-69894695D01*
X177114485Y-69862700D01*
X177191727Y-69830705D01*
X177420535Y-69677820D01*
X177615120Y-69483235D01*
X177768005Y-69254427D01*
X177873314Y-69000190D01*
X177927000Y-68730292D01*
X177927000Y-68455108D01*
X177873314Y-68185210D01*
X177768005Y-67930973D01*
X177615120Y-67702165D01*
X177420535Y-67507580D01*
X177191727Y-67354695D01*
X177114485Y-67322700D01*
X177191727Y-67290705D01*
X177420535Y-67137820D01*
X177615120Y-66943235D01*
X177768005Y-66714427D01*
X177873314Y-66460190D01*
X177927000Y-66190292D01*
X177927000Y-65915108D01*
X177873314Y-65645210D01*
X177768005Y-65390973D01*
X177615120Y-65162165D01*
X177420535Y-64967580D01*
X177191727Y-64814695D01*
X176937490Y-64709386D01*
X176667592Y-64655700D01*
X176392408Y-64655700D01*
X176122510Y-64709386D01*
X175868273Y-64814695D01*
X175639465Y-64967580D01*
X175444880Y-65162165D01*
X175291995Y-65390973D01*
X175260000Y-65468215D01*
X175228005Y-65390973D01*
X175075120Y-65162165D01*
X174880535Y-64967580D01*
X174651727Y-64814695D01*
X174397490Y-64709386D01*
X174127592Y-64655700D01*
X173852408Y-64655700D01*
X173582510Y-64709386D01*
X173328273Y-64814695D01*
X173099465Y-64967580D01*
X172904880Y-65162165D01*
X172892589Y-65180559D01*
X172692344Y-64697124D01*
X172382088Y-64232793D01*
X171987207Y-63837912D01*
X171522876Y-63527656D01*
X171006939Y-63313948D01*
X170459223Y-63205000D01*
X169900777Y-63205000D01*
X169353061Y-63313948D01*
X168837124Y-63527656D01*
X168372793Y-63837912D01*
X167977912Y-64232793D01*
X167667656Y-64697124D01*
X167571904Y-64928289D01*
X167558405Y-64903033D01*
X167380654Y-64686445D01*
X167164066Y-64508695D01*
X166916962Y-64376616D01*
X166648838Y-64295281D01*
X166370000Y-64267818D01*
X166091161Y-64295281D01*
X165823037Y-64376616D01*
X165575933Y-64508695D01*
X165359345Y-64686446D01*
X165181595Y-64903034D01*
X165100000Y-65055688D01*
X165018405Y-64903033D01*
X164840654Y-64686445D01*
X164624066Y-64508695D01*
X164376962Y-64376616D01*
X164108838Y-64295281D01*
X163830000Y-64267818D01*
X163551161Y-64295281D01*
X163283037Y-64376616D01*
X163035933Y-64508695D01*
X162819345Y-64686446D01*
X162641595Y-64903034D01*
X162563394Y-65049338D01*
X162478405Y-64890333D01*
X162300654Y-64673745D01*
X162084066Y-64495995D01*
X161836962Y-64363916D01*
X161568838Y-64282581D01*
X161290000Y-64255118D01*
X161011161Y-64282581D01*
X160743037Y-64363916D01*
X160495933Y-64495995D01*
X160279345Y-64673746D01*
X160101595Y-64890334D01*
X160020000Y-65042988D01*
X159938405Y-64890333D01*
X159760654Y-64673745D01*
X159544066Y-64495995D01*
X159296962Y-64363916D01*
X159028838Y-64282581D01*
X158750000Y-64255118D01*
X158471161Y-64282581D01*
X158203037Y-64363916D01*
X157955933Y-64495995D01*
X157739345Y-64673746D01*
X157561595Y-64890334D01*
X157480000Y-65042988D01*
X157398405Y-64890333D01*
X157220654Y-64673745D01*
X157004066Y-64495995D01*
X156756962Y-64363916D01*
X156488838Y-64282581D01*
X156210000Y-64255118D01*
X155931161Y-64282581D01*
X155663037Y-64363916D01*
X155415933Y-64495995D01*
X155199345Y-64673746D01*
X155021595Y-64890334D01*
X154940000Y-65042988D01*
X154858405Y-64890333D01*
X154680654Y-64673745D01*
X154464066Y-64495995D01*
X154216962Y-64363916D01*
X153948838Y-64282581D01*
X153670000Y-64255118D01*
X153391161Y-64282581D01*
X153123037Y-64363916D01*
X152875933Y-64495995D01*
X152659345Y-64673746D01*
X152481595Y-64890334D01*
X152400000Y-65042988D01*
X152318405Y-64890333D01*
X152140654Y-64673745D01*
X151924066Y-64495995D01*
X151676962Y-64363916D01*
X151408838Y-64282581D01*
X151130000Y-64255118D01*
X150851161Y-64282581D01*
X150583037Y-64363916D01*
X150335933Y-64495995D01*
X150119345Y-64673746D01*
X149941595Y-64890334D01*
X149860000Y-65042988D01*
X149778405Y-64890333D01*
X149600654Y-64673745D01*
X149384066Y-64495995D01*
X149136962Y-64363916D01*
X148868838Y-64282581D01*
X148590000Y-64255118D01*
X148311161Y-64282581D01*
X148043037Y-64363916D01*
X147795933Y-64495995D01*
X147579345Y-64673746D01*
X147401595Y-64890334D01*
X147269516Y-65137438D01*
X147188181Y-65405562D01*
X147167600Y-65614526D01*
X147167600Y-65965699D01*
X144790904Y-63589003D01*
X144767101Y-63559999D01*
X144651376Y-63465026D01*
X144519347Y-63394454D01*
X144376086Y-63350997D01*
X144264433Y-63340000D01*
X144264422Y-63340000D01*
X144227100Y-63336324D01*
X144189778Y-63340000D01*
X111553923Y-63340000D01*
X111516600Y-63336324D01*
X111479277Y-63340000D01*
X111479267Y-63340000D01*
X111367614Y-63350997D01*
X111224353Y-63394454D01*
X111092324Y-63465026D01*
X110976599Y-63559999D01*
X110952801Y-63588997D01*
X109917006Y-64624793D01*
X109760066Y-64495995D01*
X109512962Y-64363916D01*
X109244838Y-64282581D01*
X108966000Y-64255118D01*
X108687161Y-64282581D01*
X108419037Y-64363916D01*
X108171933Y-64495995D01*
X107955345Y-64673746D01*
X107777595Y-64890334D01*
X107695187Y-65044510D01*
X107691526Y-65035438D01*
X107538125Y-64801260D01*
X107341986Y-64601508D01*
X107110646Y-64443859D01*
X106852996Y-64334372D01*
X106773060Y-64317690D01*
X106553000Y-64439848D01*
X106553000Y-65925700D01*
X106573000Y-65925700D01*
X106573000Y-66179700D01*
X106553000Y-66179700D01*
X106553000Y-67665552D01*
X106773060Y-67787710D01*
X106852996Y-67771028D01*
X107110646Y-67661541D01*
X107341986Y-67503892D01*
X107538125Y-67304140D01*
X107691526Y-67069962D01*
X107701027Y-67046418D01*
X107777595Y-67189667D01*
X107955346Y-67406255D01*
X108171934Y-67584005D01*
X108419038Y-67716084D01*
X108687162Y-67797419D01*
X108966000Y-67824882D01*
X109244839Y-67797419D01*
X109512963Y-67716084D01*
X109760067Y-67584005D01*
X109899101Y-67469902D01*
X110460401Y-68031202D01*
X110484199Y-68060201D01*
X110513197Y-68083999D01*
X110599923Y-68155174D01*
X110731953Y-68225746D01*
X110875214Y-68269203D01*
X110986867Y-68280200D01*
X110986876Y-68280200D01*
X111024199Y-68283876D01*
X111061522Y-68280200D01*
X114512078Y-68280200D01*
X114549400Y-68283876D01*
X114586722Y-68280200D01*
X114586733Y-68280200D01*
X114698386Y-68269203D01*
X114841647Y-68225746D01*
X114973676Y-68155174D01*
X115089401Y-68060201D01*
X115113203Y-68031198D01*
X115664763Y-67479638D01*
X115791934Y-67584005D01*
X116039038Y-67716084D01*
X116307162Y-67797419D01*
X116586000Y-67824882D01*
X116864839Y-67797419D01*
X117132963Y-67716084D01*
X117380067Y-67584005D01*
X117596655Y-67406255D01*
X117774405Y-67189667D01*
X117856000Y-67037013D01*
X117937595Y-67189667D01*
X118115346Y-67406255D01*
X118331934Y-67584005D01*
X118579038Y-67716084D01*
X118847162Y-67797419D01*
X119126000Y-67824882D01*
X119404839Y-67797419D01*
X119672963Y-67716084D01*
X119920067Y-67584005D01*
X120136655Y-67406255D01*
X120314405Y-67189667D01*
X120396000Y-67037013D01*
X120477595Y-67189667D01*
X120655346Y-67406255D01*
X120871934Y-67584005D01*
X121119038Y-67716084D01*
X121387162Y-67797419D01*
X121666000Y-67824882D01*
X121944839Y-67797419D01*
X122212963Y-67716084D01*
X122460067Y-67584005D01*
X122676655Y-67406255D01*
X122854405Y-67189667D01*
X122986484Y-66942563D01*
X123067819Y-66674438D01*
X123088400Y-66465474D01*
X123088400Y-65614525D01*
X123067819Y-65405561D01*
X123043320Y-65324800D01*
X124352680Y-65324800D01*
X124328181Y-65405562D01*
X124307600Y-65614526D01*
X124307600Y-66465475D01*
X124328181Y-66674439D01*
X124409516Y-66942563D01*
X124541595Y-67189667D01*
X124719346Y-67406255D01*
X124935934Y-67584005D01*
X125183038Y-67716084D01*
X125451162Y-67797419D01*
X125730000Y-67824882D01*
X126008839Y-67797419D01*
X126276963Y-67716084D01*
X126524067Y-67584005D01*
X126740655Y-67406255D01*
X126918405Y-67189667D01*
X127000000Y-67037013D01*
X127081595Y-67189667D01*
X127259346Y-67406255D01*
X127475934Y-67584005D01*
X127723038Y-67716084D01*
X127991162Y-67797419D01*
X128270000Y-67824882D01*
X128548839Y-67797419D01*
X128816963Y-67716084D01*
X129064067Y-67584005D01*
X129280655Y-67406255D01*
X129458405Y-67189667D01*
X129540000Y-67037013D01*
X129621595Y-67189667D01*
X129799346Y-67406255D01*
X130015934Y-67584005D01*
X130263038Y-67716084D01*
X130531162Y-67797419D01*
X130810000Y-67824882D01*
X131088839Y-67797419D01*
X131356963Y-67716084D01*
X131604067Y-67584005D01*
X131820655Y-67406255D01*
X131998405Y-67189667D01*
X132080000Y-67037013D01*
X132161595Y-67189667D01*
X132339346Y-67406255D01*
X132555934Y-67584005D01*
X132803038Y-67716084D01*
X133071162Y-67797419D01*
X133350000Y-67824882D01*
X133628839Y-67797419D01*
X133896963Y-67716084D01*
X134144067Y-67584005D01*
X134360655Y-67406255D01*
X134538405Y-67189667D01*
X134620000Y-67037013D01*
X134701595Y-67189667D01*
X134879346Y-67406255D01*
X135095934Y-67584005D01*
X135343038Y-67716084D01*
X135600894Y-67794304D01*
X127759003Y-75636196D01*
X127729999Y-75659999D01*
X127700681Y-75695724D01*
X127635026Y-75775724D01*
X127606609Y-75828889D01*
X127564454Y-75907754D01*
X127520997Y-76051015D01*
X127510000Y-76162668D01*
X127510000Y-76162678D01*
X127506324Y-76200000D01*
X127510000Y-76237322D01*
X127510001Y-83745591D01*
X127315986Y-83849294D01*
X127089866Y-84034866D01*
X126904294Y-84260986D01*
X126766401Y-84518966D01*
X126681487Y-84798889D01*
X126652815Y-85090000D01*
X126681487Y-85381111D01*
X126766401Y-85661034D01*
X126904294Y-85919014D01*
X127089866Y-86145134D01*
X127315986Y-86330706D01*
X127333374Y-86340000D01*
X127315986Y-86349294D01*
X127089866Y-86534866D01*
X126904294Y-86760986D01*
X126766401Y-87018966D01*
X126681487Y-87298889D01*
X126652815Y-87590000D01*
X126681487Y-87881111D01*
X126766401Y-88161034D01*
X126904294Y-88419014D01*
X127089866Y-88645134D01*
X127315986Y-88830706D01*
X127333374Y-88840000D01*
X127315986Y-88849294D01*
X127089866Y-89034866D01*
X126904294Y-89260986D01*
X126766401Y-89518966D01*
X126681487Y-89798889D01*
X126652815Y-90090000D01*
X126681487Y-90381111D01*
X126766401Y-90661034D01*
X126904294Y-90919014D01*
X127089866Y-91145134D01*
X127315986Y-91330706D01*
X127333374Y-91340000D01*
X127315986Y-91349294D01*
X127187183Y-91455000D01*
X126650452Y-91455000D01*
X126594700Y-91449509D01*
X126538948Y-91455000D01*
X126372201Y-91471423D01*
X126158253Y-91536324D01*
X125961077Y-91641716D01*
X125788251Y-91783551D01*
X125752709Y-91826859D01*
X117346860Y-100232709D01*
X117303552Y-100268251D01*
X117161717Y-100441077D01*
X117146418Y-100469700D01*
X117056324Y-100638254D01*
X116991423Y-100852202D01*
X116969509Y-101074700D01*
X116975001Y-101130461D01*
X116975000Y-113097960D01*
X116921595Y-113163034D01*
X116840000Y-113315688D01*
X116758405Y-113163033D01*
X116580654Y-112946445D01*
X116364066Y-112768695D01*
X116116962Y-112636616D01*
X115848838Y-112555281D01*
X115570000Y-112527818D01*
X115291161Y-112555281D01*
X115023037Y-112636616D01*
X114775933Y-112768695D01*
X114559345Y-112946446D01*
X114381595Y-113163034D01*
X114300000Y-113315688D01*
X114218405Y-113163033D01*
X114040654Y-112946445D01*
X113824066Y-112768695D01*
X113576962Y-112636616D01*
X113308838Y-112555281D01*
X113030000Y-112527818D01*
X112751161Y-112555281D01*
X112483037Y-112636616D01*
X112235933Y-112768695D01*
X112019345Y-112946446D01*
X111841595Y-113163034D01*
X111760000Y-113315688D01*
X111678405Y-113163033D01*
X111500654Y-112946445D01*
X111284066Y-112768695D01*
X111036962Y-112636616D01*
X110768838Y-112555281D01*
X110490000Y-112527818D01*
X110211161Y-112555281D01*
X109943037Y-112636616D01*
X109695933Y-112768695D01*
X109479345Y-112946446D01*
X109301595Y-113163034D01*
X109220000Y-113315688D01*
X109138405Y-113163033D01*
X108960654Y-112946445D01*
X108744066Y-112768695D01*
X108496962Y-112636616D01*
X108228838Y-112555281D01*
X107950000Y-112527818D01*
X107671161Y-112555281D01*
X107403037Y-112636616D01*
X107155933Y-112768695D01*
X106939345Y-112946446D01*
X106761595Y-113163034D01*
X106629516Y-113410138D01*
X106548181Y-113678262D01*
X106527600Y-113887226D01*
X96788435Y-113887226D01*
X96706052Y-113473061D01*
X96492344Y-112957124D01*
X96182088Y-112492793D01*
X95787207Y-112097912D01*
X95322876Y-111787656D01*
X94806939Y-111573948D01*
X94259223Y-111465000D01*
X93700777Y-111465000D01*
X93153061Y-111573948D01*
X92637124Y-111787656D01*
X92172793Y-112097912D01*
X92100000Y-112170705D01*
X92100000Y-65760777D01*
X92415000Y-65760777D01*
X92415000Y-66319223D01*
X92523948Y-66866939D01*
X92737656Y-67382876D01*
X93047912Y-67847207D01*
X93442793Y-68242088D01*
X93907124Y-68552344D01*
X94423061Y-68766052D01*
X94970777Y-68875000D01*
X95529223Y-68875000D01*
X96076939Y-68766052D01*
X96592876Y-68552344D01*
X97057207Y-68242088D01*
X97452088Y-67847207D01*
X97762344Y-67382876D01*
X97763482Y-67380129D01*
X97795346Y-67418955D01*
X98011934Y-67596705D01*
X98259038Y-67728784D01*
X98527162Y-67810119D01*
X98806000Y-67837582D01*
X99084839Y-67810119D01*
X99352963Y-67728784D01*
X99600067Y-67596705D01*
X99816655Y-67418955D01*
X99994405Y-67202367D01*
X100076000Y-67049713D01*
X100157595Y-67202367D01*
X100335346Y-67418955D01*
X100551934Y-67596705D01*
X100799038Y-67728784D01*
X101067162Y-67810119D01*
X101346000Y-67837582D01*
X101624839Y-67810119D01*
X101892963Y-67728784D01*
X102140067Y-67596705D01*
X102356655Y-67418955D01*
X102534405Y-67202367D01*
X102616000Y-67049713D01*
X102697595Y-67202367D01*
X102875346Y-67418955D01*
X103091934Y-67596705D01*
X103339038Y-67728784D01*
X103607162Y-67810119D01*
X103886000Y-67837582D01*
X104164839Y-67810119D01*
X104432963Y-67728784D01*
X104680067Y-67596705D01*
X104896655Y-67418955D01*
X105074405Y-67202367D01*
X105153893Y-67053655D01*
X105160474Y-67069962D01*
X105313875Y-67304140D01*
X105510014Y-67503892D01*
X105741354Y-67661541D01*
X105999004Y-67771028D01*
X106078940Y-67787710D01*
X106299000Y-67665552D01*
X106299000Y-66179700D01*
X106279000Y-66179700D01*
X106279000Y-65925700D01*
X106299000Y-65925700D01*
X106299000Y-64439848D01*
X106078940Y-64317690D01*
X105999004Y-64334372D01*
X105741354Y-64443859D01*
X105510014Y-64601508D01*
X105313875Y-64801260D01*
X105160474Y-65035438D01*
X105153893Y-65051745D01*
X105074405Y-64903033D01*
X104896654Y-64686445D01*
X104680066Y-64508695D01*
X104432962Y-64376616D01*
X104164838Y-64295281D01*
X103886000Y-64267818D01*
X103607161Y-64295281D01*
X103339037Y-64376616D01*
X103091933Y-64508695D01*
X102875345Y-64686446D01*
X102697595Y-64903034D01*
X102616000Y-65055688D01*
X102534405Y-64903033D01*
X102356654Y-64686445D01*
X102140066Y-64508695D01*
X101892962Y-64376616D01*
X101624838Y-64295281D01*
X101346000Y-64267818D01*
X101067161Y-64295281D01*
X100799037Y-64376616D01*
X100551933Y-64508695D01*
X100335345Y-64686446D01*
X100157595Y-64903034D01*
X100076000Y-65055688D01*
X99994405Y-64903033D01*
X99816654Y-64686445D01*
X99600066Y-64508695D01*
X99352962Y-64376616D01*
X99084838Y-64295281D01*
X98806000Y-64267818D01*
X98527161Y-64295281D01*
X98259037Y-64376616D01*
X98011933Y-64508695D01*
X97795345Y-64686446D01*
X97770474Y-64716751D01*
X97762344Y-64697124D01*
X97452088Y-64232793D01*
X97057207Y-63837912D01*
X96592876Y-63527656D01*
X96076939Y-63313948D01*
X95529223Y-63205000D01*
X94970777Y-63205000D01*
X94423061Y-63313948D01*
X93907124Y-63527656D01*
X93442793Y-63837912D01*
X93047912Y-64232793D01*
X92737656Y-64697124D01*
X92523948Y-65213061D01*
X92415000Y-65760777D01*
X92100000Y-65760777D01*
X92100000Y-62890000D01*
X179680000Y-62890000D01*
X179680001Y-74897581D01*
G36*
X150965000Y-87344250D02*
G01*
X151123750Y-87503000D01*
X152273000Y-87503000D01*
X152273000Y-87483000D01*
X152527000Y-87483000D01*
X152527000Y-87503000D01*
X152547000Y-87503000D01*
X152547000Y-87757000D01*
X152527000Y-87757000D01*
X152527000Y-87777000D01*
X152273000Y-87777000D01*
X152273000Y-87757000D01*
X151123750Y-87757000D01*
X150965000Y-87915750D01*
X150964525Y-87995300D01*
X146170450Y-87995300D01*
X146215000Y-87771335D01*
X146215000Y-87488665D01*
X146170450Y-87264700D01*
X150964525Y-87264700D01*
X150965000Y-87344250D01*
G37*
X150965000Y-87344250D02*
X151123750Y-87503000D01*
X152273000Y-87503000D01*
X152273000Y-87483000D01*
X152527000Y-87483000D01*
X152527000Y-87503000D01*
X152547000Y-87503000D01*
X152547000Y-87757000D01*
X152527000Y-87757000D01*
X152527000Y-87777000D01*
X152273000Y-87777000D01*
X152273000Y-87757000D01*
X151123750Y-87757000D01*
X150965000Y-87915750D01*
X150964525Y-87995300D01*
X146170450Y-87995300D01*
X146215000Y-87771335D01*
X146215000Y-87488665D01*
X146170450Y-87264700D01*
X150964525Y-87264700D01*
X150965000Y-87344250D01*
G36*
X142810604Y-73574605D02*
G01*
X142806004Y-73572429D01*
X142531816Y-73503700D01*
X142249488Y-73489783D01*
X141969870Y-73531213D01*
X141703708Y-73626397D01*
X141578486Y-73693329D01*
X141506903Y-73937298D01*
X142320000Y-74750395D01*
X142334143Y-74736253D01*
X142513748Y-74915858D01*
X142499605Y-74930000D01*
X143312702Y-75743097D01*
X143556671Y-75671514D01*
X143677571Y-75416004D01*
X143746300Y-75141816D01*
X143760217Y-74859488D01*
X143718787Y-74579870D01*
X143664742Y-74428744D01*
X145839097Y-76603100D01*
X141217902Y-76603100D01*
X140537504Y-75922702D01*
X141506903Y-75922702D01*
X141578486Y-76166671D01*
X141833996Y-76287571D01*
X142108184Y-76356300D01*
X142390512Y-76370217D01*
X142670130Y-76328787D01*
X142936292Y-76233603D01*
X143061514Y-76166671D01*
X143133097Y-75922702D01*
X142320000Y-75109605D01*
X141506903Y-75922702D01*
X140537504Y-75922702D01*
X139615314Y-75000512D01*
X140879783Y-75000512D01*
X140921213Y-75280130D01*
X141016397Y-75546292D01*
X141083329Y-75671514D01*
X141327298Y-75743097D01*
X142140395Y-74930000D01*
X141327298Y-74116903D01*
X141083329Y-74188486D01*
X140962429Y-74443996D01*
X140893700Y-74718184D01*
X140879783Y-75000512D01*
X139615314Y-75000512D01*
X138899104Y-74284303D01*
X138875301Y-74255299D01*
X138759576Y-74160326D01*
X138685005Y-74120467D01*
X138748513Y-73911111D01*
X138777185Y-73620000D01*
X138748513Y-73328889D01*
X138663599Y-73048966D01*
X138525706Y-72790986D01*
X138340134Y-72564866D01*
X138276663Y-72512777D01*
X138378386Y-72458405D01*
X138512962Y-72347962D01*
X138623405Y-72213386D01*
X138705472Y-72059850D01*
X138756008Y-71893254D01*
X138757313Y-71880000D01*
X141115999Y-71880000D01*
X142810604Y-73574605D01*
G37*
X142810604Y-73574605D02*
X142806004Y-73572429D01*
X142531816Y-73503700D01*
X142249488Y-73489783D01*
X141969870Y-73531213D01*
X141703708Y-73626397D01*
X141578486Y-73693329D01*
X141506903Y-73937298D01*
X142320000Y-74750395D01*
X142334143Y-74736253D01*
X142513748Y-74915858D01*
X142499605Y-74930000D01*
X143312702Y-75743097D01*
X143556671Y-75671514D01*
X143677571Y-75416004D01*
X143746300Y-75141816D01*
X143760217Y-74859488D01*
X143718787Y-74579870D01*
X143664742Y-74428744D01*
X145839097Y-76603100D01*
X141217902Y-76603100D01*
X140537504Y-75922702D01*
X141506903Y-75922702D01*
X141578486Y-76166671D01*
X141833996Y-76287571D01*
X142108184Y-76356300D01*
X142390512Y-76370217D01*
X142670130Y-76328787D01*
X142936292Y-76233603D01*
X143061514Y-76166671D01*
X143133097Y-75922702D01*
X142320000Y-75109605D01*
X141506903Y-75922702D01*
X140537504Y-75922702D01*
X139615314Y-75000512D01*
X140879783Y-75000512D01*
X140921213Y-75280130D01*
X141016397Y-75546292D01*
X141083329Y-75671514D01*
X141327298Y-75743097D01*
X142140395Y-74930000D01*
X141327298Y-74116903D01*
X141083329Y-74188486D01*
X140962429Y-74443996D01*
X140893700Y-74718184D01*
X140879783Y-75000512D01*
X139615314Y-75000512D01*
X138899104Y-74284303D01*
X138875301Y-74255299D01*
X138759576Y-74160326D01*
X138685005Y-74120467D01*
X138748513Y-73911111D01*
X138777185Y-73620000D01*
X138748513Y-73328889D01*
X138663599Y-73048966D01*
X138525706Y-72790986D01*
X138340134Y-72564866D01*
X138276663Y-72512777D01*
X138378386Y-72458405D01*
X138512962Y-72347962D01*
X138623405Y-72213386D01*
X138705472Y-72059850D01*
X138756008Y-71893254D01*
X138757313Y-71880000D01*
X141115999Y-71880000D01*
X142810604Y-73574605D01*
M02*
