G04 #@! TF.GenerationSoftware,KiCad,Pcbnew,5.1.5-52549c5~84~ubuntu16.04.1*
G04 #@! TF.CreationDate,2019-12-28T00:04:07+01:00*
G04 #@! TF.ProjectId,schema,73636865-6d61-42e6-9b69-6361645f7063,rev?*
G04 #@! TF.SameCoordinates,Original*
G04 #@! TF.FileFunction,Legend,Top*
G04 #@! TF.FilePolarity,Positive*
%FSLAX46Y46*%
G04 Gerber Fmt 4.6, Leading zero omitted, Abs format (unit mm)*
G04 Created by KiCad (PCBNEW 5.1.5-52549c5~84~ubuntu16.04.1) date 2019-12-28 00:04:07*
%MOMM*%
%LPD*%
G04 APERTURE LIST*
%ADD10C,0.300000*%
%ADD11C,0.250000*%
%ADD12C,0.150000*%
%ADD13C,0.500000*%
%ADD14C,0.120000*%
%ADD15C,0.010000*%
G04 APERTURE END LIST*
D10*
X154945542Y-101118087D02*
X155659828Y-101118087D01*
X154802685Y-101975229D02*
X155302685Y-98975229D01*
X155802685Y-101975229D01*
X156945542Y-99975229D02*
X156945542Y-101975229D01*
X156588399Y-98832372D02*
X156231256Y-100975229D01*
X157159828Y-100975229D01*
X157802685Y-101975229D02*
X158088399Y-101975229D01*
X158231256Y-101832372D01*
X158302685Y-101689515D01*
X158445542Y-101260944D01*
X158516970Y-100689515D01*
X158516970Y-99546658D01*
X158445542Y-99260944D01*
X158374113Y-99118087D01*
X158231256Y-98975229D01*
X157945542Y-98975229D01*
X157802685Y-99118087D01*
X157731256Y-99260944D01*
X157659828Y-99546658D01*
X157659828Y-100260944D01*
X157731256Y-100546658D01*
X157802685Y-100689515D01*
X157945542Y-100832372D01*
X158231256Y-100832372D01*
X158374113Y-100689515D01*
X158445542Y-100546658D01*
X158516970Y-100260944D01*
X159374113Y-100260944D02*
X159231256Y-100118087D01*
X159159828Y-99975229D01*
X159088399Y-99689515D01*
X159088399Y-99546658D01*
X159159828Y-99260944D01*
X159231256Y-99118087D01*
X159374113Y-98975229D01*
X159659828Y-98975229D01*
X159802685Y-99118087D01*
X159874113Y-99260944D01*
X159945542Y-99546658D01*
X159945542Y-99689515D01*
X159874113Y-99975229D01*
X159802685Y-100118087D01*
X159659828Y-100260944D01*
X159374113Y-100260944D01*
X159231256Y-100403801D01*
X159159828Y-100546658D01*
X159088399Y-100832372D01*
X159088399Y-101403801D01*
X159159828Y-101689515D01*
X159231256Y-101832372D01*
X159374113Y-101975229D01*
X159659828Y-101975229D01*
X159802685Y-101832372D01*
X159874113Y-101689515D01*
X159945542Y-101403801D01*
X159945542Y-100832372D01*
X159874113Y-100546658D01*
X159802685Y-100403801D01*
X159659828Y-100260944D01*
X160802685Y-100260944D02*
X160659828Y-100118087D01*
X160588399Y-99975229D01*
X160516970Y-99689515D01*
X160516970Y-99546658D01*
X160588399Y-99260944D01*
X160659828Y-99118087D01*
X160802685Y-98975229D01*
X161088399Y-98975229D01*
X161231256Y-99118087D01*
X161302685Y-99260944D01*
X161374113Y-99546658D01*
X161374113Y-99689515D01*
X161302685Y-99975229D01*
X161231256Y-100118087D01*
X161088399Y-100260944D01*
X160802685Y-100260944D01*
X160659828Y-100403801D01*
X160588399Y-100546658D01*
X160516970Y-100832372D01*
X160516970Y-101403801D01*
X160588399Y-101689515D01*
X160659828Y-101832372D01*
X160802685Y-101975229D01*
X161088399Y-101975229D01*
X161231256Y-101832372D01*
X161302685Y-101689515D01*
X161374113Y-101403801D01*
X161374113Y-100832372D01*
X161302685Y-100546658D01*
X161231256Y-100403801D01*
X161088399Y-100260944D01*
X119975714Y-80510000D02*
X120690000Y-80510000D01*
X119832857Y-81367142D02*
X120332857Y-78367142D01*
X120832857Y-81367142D01*
X121975714Y-79367142D02*
X121975714Y-81367142D01*
X121618571Y-78224285D02*
X121261428Y-80367142D01*
X122190000Y-80367142D01*
X122832857Y-81367142D02*
X123118571Y-81367142D01*
X123261428Y-81224285D01*
X123332857Y-81081428D01*
X123475714Y-80652857D01*
X123547142Y-80081428D01*
X123547142Y-78938571D01*
X123475714Y-78652857D01*
X123404285Y-78510000D01*
X123261428Y-78367142D01*
X122975714Y-78367142D01*
X122832857Y-78510000D01*
X122761428Y-78652857D01*
X122690000Y-78938571D01*
X122690000Y-79652857D01*
X122761428Y-79938571D01*
X122832857Y-80081428D01*
X122975714Y-80224285D01*
X123261428Y-80224285D01*
X123404285Y-80081428D01*
X123475714Y-79938571D01*
X123547142Y-79652857D01*
X124404285Y-79652857D02*
X124261428Y-79510000D01*
X124190000Y-79367142D01*
X124118571Y-79081428D01*
X124118571Y-78938571D01*
X124190000Y-78652857D01*
X124261428Y-78510000D01*
X124404285Y-78367142D01*
X124690000Y-78367142D01*
X124832857Y-78510000D01*
X124904285Y-78652857D01*
X124975714Y-78938571D01*
X124975714Y-79081428D01*
X124904285Y-79367142D01*
X124832857Y-79510000D01*
X124690000Y-79652857D01*
X124404285Y-79652857D01*
X124261428Y-79795714D01*
X124190000Y-79938571D01*
X124118571Y-80224285D01*
X124118571Y-80795714D01*
X124190000Y-81081428D01*
X124261428Y-81224285D01*
X124404285Y-81367142D01*
X124690000Y-81367142D01*
X124832857Y-81224285D01*
X124904285Y-81081428D01*
X124975714Y-80795714D01*
X124975714Y-80224285D01*
X124904285Y-79938571D01*
X124832857Y-79795714D01*
X124690000Y-79652857D01*
X125832857Y-79652857D02*
X125690000Y-79510000D01*
X125618571Y-79367142D01*
X125547142Y-79081428D01*
X125547142Y-78938571D01*
X125618571Y-78652857D01*
X125690000Y-78510000D01*
X125832857Y-78367142D01*
X126118571Y-78367142D01*
X126261428Y-78510000D01*
X126332857Y-78652857D01*
X126404285Y-78938571D01*
X126404285Y-79081428D01*
X126332857Y-79367142D01*
X126261428Y-79510000D01*
X126118571Y-79652857D01*
X125832857Y-79652857D01*
X125690000Y-79795714D01*
X125618571Y-79938571D01*
X125547142Y-80224285D01*
X125547142Y-80795714D01*
X125618571Y-81081428D01*
X125690000Y-81224285D01*
X125832857Y-81367142D01*
X126118571Y-81367142D01*
X126261428Y-81224285D01*
X126332857Y-81081428D01*
X126404285Y-80795714D01*
X126404285Y-80224285D01*
X126332857Y-79938571D01*
X126261428Y-79795714D01*
X126118571Y-79652857D01*
D11*
X121800952Y-68043928D02*
X121753333Y-68139166D01*
X121705714Y-68186785D01*
X121610476Y-68234404D01*
X121562857Y-68234404D01*
X121467619Y-68186785D01*
X121420000Y-68139166D01*
X121372380Y-68043928D01*
X121372380Y-67853452D01*
X121420000Y-67758214D01*
X121467619Y-67710595D01*
X121562857Y-67662976D01*
X121610476Y-67662976D01*
X121705714Y-67710595D01*
X121753333Y-67758214D01*
X121800952Y-67853452D01*
X121800952Y-68043928D01*
X121848571Y-68139166D01*
X121896190Y-68186785D01*
X121991428Y-68234404D01*
X122181904Y-68234404D01*
X122277142Y-68186785D01*
X122324761Y-68139166D01*
X122372380Y-68043928D01*
X122372380Y-67853452D01*
X122324761Y-67758214D01*
X122277142Y-67710595D01*
X122181904Y-67662976D01*
X121991428Y-67662976D01*
X121896190Y-67710595D01*
X121848571Y-67758214D01*
X121800952Y-67853452D01*
X119832380Y-68139166D02*
X119832380Y-67948690D01*
X119784761Y-67853452D01*
X119737142Y-67805833D01*
X119594285Y-67710595D01*
X119403809Y-67662976D01*
X119022857Y-67662976D01*
X118927619Y-67710595D01*
X118880000Y-67758214D01*
X118832380Y-67853452D01*
X118832380Y-68043928D01*
X118880000Y-68139166D01*
X118927619Y-68186785D01*
X119022857Y-68234404D01*
X119260952Y-68234404D01*
X119356190Y-68186785D01*
X119403809Y-68139166D01*
X119451428Y-68043928D01*
X119451428Y-67853452D01*
X119403809Y-67758214D01*
X119356190Y-67710595D01*
X119260952Y-67662976D01*
X117292380Y-68615357D02*
X117292380Y-69186785D01*
X117292380Y-68901071D02*
X116292380Y-68901071D01*
X116435238Y-68996309D01*
X116530476Y-69091547D01*
X116578095Y-69186785D01*
X116292380Y-67996309D02*
X116292380Y-67901071D01*
X116340000Y-67805833D01*
X116387619Y-67758214D01*
X116482857Y-67710595D01*
X116673333Y-67662976D01*
X116911428Y-67662976D01*
X117101904Y-67710595D01*
X117197142Y-67758214D01*
X117244761Y-67805833D01*
X117292380Y-67901071D01*
X117292380Y-67996309D01*
X117244761Y-68091547D01*
X117197142Y-68139166D01*
X117101904Y-68186785D01*
X116911428Y-68234404D01*
X116673333Y-68234404D01*
X116482857Y-68186785D01*
X116387619Y-68139166D01*
X116340000Y-68091547D01*
X116292380Y-67996309D01*
X114752380Y-68615357D02*
X114752380Y-69186785D01*
X114752380Y-68901071D02*
X113752380Y-68901071D01*
X113895238Y-68996309D01*
X113990476Y-69091547D01*
X114038095Y-69186785D01*
X114752380Y-67662976D02*
X114752380Y-68234404D01*
X114752380Y-67948690D02*
X113752380Y-67948690D01*
X113895238Y-68043928D01*
X113990476Y-68139166D01*
X114038095Y-68234404D01*
X112212380Y-68615357D02*
X112212380Y-69186785D01*
X112212380Y-68901071D02*
X111212380Y-68901071D01*
X111355238Y-68996309D01*
X111450476Y-69091547D01*
X111498095Y-69186785D01*
X111307619Y-68234404D02*
X111260000Y-68186785D01*
X111212380Y-68091547D01*
X111212380Y-67853452D01*
X111260000Y-67758214D01*
X111307619Y-67710595D01*
X111402857Y-67662976D01*
X111498095Y-67662976D01*
X111640952Y-67710595D01*
X112212380Y-68282023D01*
X112212380Y-67662976D01*
X109672380Y-68615357D02*
X109672380Y-69186785D01*
X109672380Y-68901071D02*
X108672380Y-68901071D01*
X108815238Y-68996309D01*
X108910476Y-69091547D01*
X108958095Y-69186785D01*
X108672380Y-68282023D02*
X108672380Y-67662976D01*
X109053333Y-67996309D01*
X109053333Y-67853452D01*
X109100952Y-67758214D01*
X109148571Y-67710595D01*
X109243809Y-67662976D01*
X109481904Y-67662976D01*
X109577142Y-67710595D01*
X109624761Y-67758214D01*
X109672380Y-67853452D01*
X109672380Y-68139166D01*
X109624761Y-68234404D01*
X109577142Y-68282023D01*
X106180000Y-69758214D02*
X106132380Y-69853452D01*
X106132380Y-69996309D01*
X106180000Y-70139166D01*
X106275238Y-70234404D01*
X106370476Y-70282023D01*
X106560952Y-70329642D01*
X106703809Y-70329642D01*
X106894285Y-70282023D01*
X106989523Y-70234404D01*
X107084761Y-70139166D01*
X107132380Y-69996309D01*
X107132380Y-69901071D01*
X107084761Y-69758214D01*
X107037142Y-69710595D01*
X106703809Y-69710595D01*
X106703809Y-69901071D01*
X107132380Y-69282023D02*
X106132380Y-69282023D01*
X107132380Y-68710595D01*
X106132380Y-68710595D01*
X107132380Y-68234404D02*
X106132380Y-68234404D01*
X106132380Y-67996309D01*
X106180000Y-67853452D01*
X106275238Y-67758214D01*
X106370476Y-67710595D01*
X106560952Y-67662976D01*
X106703809Y-67662976D01*
X106894285Y-67710595D01*
X106989523Y-67758214D01*
X107084761Y-67853452D01*
X107132380Y-67996309D01*
X107132380Y-68234404D01*
X104306666Y-70186785D02*
X104306666Y-69710595D01*
X104592380Y-70282023D02*
X103592380Y-69948690D01*
X104592380Y-69615357D01*
X104592380Y-69282023D02*
X103925714Y-69282023D01*
X104116190Y-69282023D02*
X104020952Y-69234404D01*
X103973333Y-69186785D01*
X103925714Y-69091547D01*
X103925714Y-68996309D01*
X104544761Y-68282023D02*
X104592380Y-68377261D01*
X104592380Y-68567738D01*
X104544761Y-68662976D01*
X104449523Y-68710595D01*
X104068571Y-68710595D01*
X103973333Y-68662976D01*
X103925714Y-68567738D01*
X103925714Y-68377261D01*
X103973333Y-68282023D01*
X104068571Y-68234404D01*
X104163809Y-68234404D01*
X104259047Y-68710595D01*
X103925714Y-67948690D02*
X103925714Y-67567738D01*
X104592380Y-67805833D02*
X103735238Y-67805833D01*
X103640000Y-67758214D01*
X103592380Y-67662976D01*
X103592380Y-67567738D01*
X166774761Y-72710595D02*
X166822380Y-72567738D01*
X166822380Y-72329642D01*
X166774761Y-72234404D01*
X166727142Y-72186785D01*
X166631904Y-72139166D01*
X166536666Y-72139166D01*
X166441428Y-72186785D01*
X166393809Y-72234404D01*
X166346190Y-72329642D01*
X166298571Y-72520119D01*
X166250952Y-72615357D01*
X166203333Y-72662976D01*
X166108095Y-72710595D01*
X166012857Y-72710595D01*
X165917619Y-72662976D01*
X165870000Y-72615357D01*
X165822380Y-72520119D01*
X165822380Y-72282023D01*
X165870000Y-72139166D01*
X166727142Y-71139166D02*
X166774761Y-71186785D01*
X166822380Y-71329642D01*
X166822380Y-71424880D01*
X166774761Y-71567738D01*
X166679523Y-71662976D01*
X166584285Y-71710595D01*
X166393809Y-71758214D01*
X166250952Y-71758214D01*
X166060476Y-71710595D01*
X165965238Y-71662976D01*
X165870000Y-71567738D01*
X165822380Y-71424880D01*
X165822380Y-71329642D01*
X165870000Y-71186785D01*
X165917619Y-71139166D01*
X166822380Y-70234404D02*
X166822380Y-70710595D01*
X165822380Y-70710595D01*
X165917619Y-69186785D02*
X165870000Y-69139166D01*
X165822380Y-69043928D01*
X165822380Y-68805833D01*
X165870000Y-68710595D01*
X165917619Y-68662976D01*
X166012857Y-68615357D01*
X166108095Y-68615357D01*
X166250952Y-68662976D01*
X166822380Y-69234404D01*
X166822380Y-68615357D01*
X166822380Y-67662976D02*
X166822380Y-68234404D01*
X166822380Y-67948690D02*
X165822380Y-67948690D01*
X165965238Y-68043928D01*
X166060476Y-68139166D01*
X166108095Y-68234404D01*
X164234761Y-72758214D02*
X164282380Y-72615357D01*
X164282380Y-72377261D01*
X164234761Y-72282023D01*
X164187142Y-72234404D01*
X164091904Y-72186785D01*
X163996666Y-72186785D01*
X163901428Y-72234404D01*
X163853809Y-72282023D01*
X163806190Y-72377261D01*
X163758571Y-72567738D01*
X163710952Y-72662976D01*
X163663333Y-72710595D01*
X163568095Y-72758214D01*
X163472857Y-72758214D01*
X163377619Y-72710595D01*
X163330000Y-72662976D01*
X163282380Y-72567738D01*
X163282380Y-72329642D01*
X163330000Y-72186785D01*
X164282380Y-71758214D02*
X163282380Y-71758214D01*
X163282380Y-71520119D01*
X163330000Y-71377261D01*
X163425238Y-71282023D01*
X163520476Y-71234404D01*
X163710952Y-71186785D01*
X163853809Y-71186785D01*
X164044285Y-71234404D01*
X164139523Y-71282023D01*
X164234761Y-71377261D01*
X164282380Y-71520119D01*
X164282380Y-71758214D01*
X163996666Y-70805833D02*
X163996666Y-70329642D01*
X164282380Y-70901071D02*
X163282380Y-70567738D01*
X164282380Y-70234404D01*
X163377619Y-69186785D02*
X163330000Y-69139166D01*
X163282380Y-69043928D01*
X163282380Y-68805833D01*
X163330000Y-68710595D01*
X163377619Y-68662976D01*
X163472857Y-68615357D01*
X163568095Y-68615357D01*
X163710952Y-68662976D01*
X164282380Y-69234404D01*
X164282380Y-68615357D01*
X163282380Y-67996309D02*
X163282380Y-67901071D01*
X163330000Y-67805833D01*
X163377619Y-67758214D01*
X163472857Y-67710595D01*
X163663333Y-67662976D01*
X163901428Y-67662976D01*
X164091904Y-67710595D01*
X164187142Y-67758214D01*
X164234761Y-67805833D01*
X164282380Y-67901071D01*
X164282380Y-67996309D01*
X164234761Y-68091547D01*
X164187142Y-68139166D01*
X164091904Y-68186785D01*
X163901428Y-68234404D01*
X163663333Y-68234404D01*
X163472857Y-68186785D01*
X163377619Y-68139166D01*
X163330000Y-68091547D01*
X163282380Y-67996309D01*
X161742380Y-72234404D02*
X161266190Y-72567738D01*
X161742380Y-72805833D02*
X160742380Y-72805833D01*
X160742380Y-72424880D01*
X160790000Y-72329642D01*
X160837619Y-72282023D01*
X160932857Y-72234404D01*
X161075714Y-72234404D01*
X161170952Y-72282023D01*
X161218571Y-72329642D01*
X161266190Y-72424880D01*
X161266190Y-72805833D01*
X160742380Y-71901071D02*
X161742380Y-71234404D01*
X160742380Y-71234404D02*
X161742380Y-71901071D01*
X161742380Y-70329642D02*
X161742380Y-70901071D01*
X161742380Y-70615357D02*
X160742380Y-70615357D01*
X160885238Y-70710595D01*
X160980476Y-70805833D01*
X161028095Y-70901071D01*
X161742380Y-68615357D02*
X161742380Y-69186785D01*
X161742380Y-68901071D02*
X160742380Y-68901071D01*
X160885238Y-68996309D01*
X160980476Y-69091547D01*
X161028095Y-69186785D01*
X161742380Y-68139166D02*
X161742380Y-67948690D01*
X161694761Y-67853452D01*
X161647142Y-67805833D01*
X161504285Y-67710595D01*
X161313809Y-67662976D01*
X160932857Y-67662976D01*
X160837619Y-67710595D01*
X160790000Y-67758214D01*
X160742380Y-67853452D01*
X160742380Y-68043928D01*
X160790000Y-68139166D01*
X160837619Y-68186785D01*
X160932857Y-68234404D01*
X161170952Y-68234404D01*
X161266190Y-68186785D01*
X161313809Y-68139166D01*
X161361428Y-68043928D01*
X161361428Y-67853452D01*
X161313809Y-67758214D01*
X161266190Y-67710595D01*
X161170952Y-67662976D01*
X158202380Y-72710595D02*
X158202380Y-72139166D01*
X159202380Y-72424880D02*
X158202380Y-72424880D01*
X158202380Y-71901071D02*
X159202380Y-71234404D01*
X158202380Y-71234404D02*
X159202380Y-71901071D01*
X159202380Y-70329642D02*
X159202380Y-70901071D01*
X159202380Y-70615357D02*
X158202380Y-70615357D01*
X158345238Y-70710595D01*
X158440476Y-70805833D01*
X158488095Y-70901071D01*
X159202380Y-68615357D02*
X159202380Y-69186785D01*
X159202380Y-68901071D02*
X158202380Y-68901071D01*
X158345238Y-68996309D01*
X158440476Y-69091547D01*
X158488095Y-69186785D01*
X158630952Y-68043928D02*
X158583333Y-68139166D01*
X158535714Y-68186785D01*
X158440476Y-68234404D01*
X158392857Y-68234404D01*
X158297619Y-68186785D01*
X158250000Y-68139166D01*
X158202380Y-68043928D01*
X158202380Y-67853452D01*
X158250000Y-67758214D01*
X158297619Y-67710595D01*
X158392857Y-67662976D01*
X158440476Y-67662976D01*
X158535714Y-67710595D01*
X158583333Y-67758214D01*
X158630952Y-67853452D01*
X158630952Y-68043928D01*
X158678571Y-68139166D01*
X158726190Y-68186785D01*
X158821428Y-68234404D01*
X159011904Y-68234404D01*
X159107142Y-68186785D01*
X159154761Y-68139166D01*
X159202380Y-68043928D01*
X159202380Y-67853452D01*
X159154761Y-67758214D01*
X159107142Y-67710595D01*
X159011904Y-67662976D01*
X158821428Y-67662976D01*
X158726190Y-67710595D01*
X158678571Y-67758214D01*
X158630952Y-67853452D01*
X156662380Y-72234404D02*
X156186190Y-72567738D01*
X156662380Y-72805833D02*
X155662380Y-72805833D01*
X155662380Y-72424880D01*
X155710000Y-72329642D01*
X155757619Y-72282023D01*
X155852857Y-72234404D01*
X155995714Y-72234404D01*
X156090952Y-72282023D01*
X156138571Y-72329642D01*
X156186190Y-72424880D01*
X156186190Y-72805833D01*
X155662380Y-71901071D02*
X156662380Y-71234404D01*
X155662380Y-71234404D02*
X156662380Y-71901071D01*
X155757619Y-70901071D02*
X155710000Y-70853452D01*
X155662380Y-70758214D01*
X155662380Y-70520119D01*
X155710000Y-70424880D01*
X155757619Y-70377261D01*
X155852857Y-70329642D01*
X155948095Y-70329642D01*
X156090952Y-70377261D01*
X156662380Y-70948690D01*
X156662380Y-70329642D01*
X156662380Y-68615357D02*
X156662380Y-69186785D01*
X156662380Y-68901071D02*
X155662380Y-68901071D01*
X155805238Y-68996309D01*
X155900476Y-69091547D01*
X155948095Y-69186785D01*
X155662380Y-68282023D02*
X155662380Y-67615357D01*
X156662380Y-68043928D01*
X153122380Y-72710595D02*
X153122380Y-72139166D01*
X154122380Y-72424880D02*
X153122380Y-72424880D01*
X153122380Y-71901071D02*
X154122380Y-71234404D01*
X153122380Y-71234404D02*
X154122380Y-71901071D01*
X153217619Y-70901071D02*
X153170000Y-70853452D01*
X153122380Y-70758214D01*
X153122380Y-70520119D01*
X153170000Y-70424880D01*
X153217619Y-70377261D01*
X153312857Y-70329642D01*
X153408095Y-70329642D01*
X153550952Y-70377261D01*
X154122380Y-70948690D01*
X154122380Y-70329642D01*
X154122380Y-68615357D02*
X154122380Y-69186785D01*
X154122380Y-68901071D02*
X153122380Y-68901071D01*
X153265238Y-68996309D01*
X153360476Y-69091547D01*
X153408095Y-69186785D01*
X153122380Y-67758214D02*
X153122380Y-67948690D01*
X153170000Y-68043928D01*
X153217619Y-68091547D01*
X153360476Y-68186785D01*
X153550952Y-68234404D01*
X153931904Y-68234404D01*
X154027142Y-68186785D01*
X154074761Y-68139166D01*
X154122380Y-68043928D01*
X154122380Y-67853452D01*
X154074761Y-67758214D01*
X154027142Y-67710595D01*
X153931904Y-67662976D01*
X153693809Y-67662976D01*
X153598571Y-67710595D01*
X153550952Y-67758214D01*
X153503333Y-67853452D01*
X153503333Y-68043928D01*
X153550952Y-68139166D01*
X153598571Y-68186785D01*
X153693809Y-68234404D01*
X151582380Y-72234404D02*
X151106190Y-72567738D01*
X151582380Y-72805833D02*
X150582380Y-72805833D01*
X150582380Y-72424880D01*
X150630000Y-72329642D01*
X150677619Y-72282023D01*
X150772857Y-72234404D01*
X150915714Y-72234404D01*
X151010952Y-72282023D01*
X151058571Y-72329642D01*
X151106190Y-72424880D01*
X151106190Y-72805833D01*
X150582380Y-71901071D02*
X151582380Y-71234404D01*
X150582380Y-71234404D02*
X151582380Y-71901071D01*
X150582380Y-70948690D02*
X150582380Y-70329642D01*
X150963333Y-70662976D01*
X150963333Y-70520119D01*
X151010952Y-70424880D01*
X151058571Y-70377261D01*
X151153809Y-70329642D01*
X151391904Y-70329642D01*
X151487142Y-70377261D01*
X151534761Y-70424880D01*
X151582380Y-70520119D01*
X151582380Y-70805833D01*
X151534761Y-70901071D01*
X151487142Y-70948690D01*
X151582380Y-68615357D02*
X151582380Y-69186785D01*
X151582380Y-68901071D02*
X150582380Y-68901071D01*
X150725238Y-68996309D01*
X150820476Y-69091547D01*
X150868095Y-69186785D01*
X150582380Y-67710595D02*
X150582380Y-68186785D01*
X151058571Y-68234404D01*
X151010952Y-68186785D01*
X150963333Y-68091547D01*
X150963333Y-67853452D01*
X151010952Y-67758214D01*
X151058571Y-67710595D01*
X151153809Y-67662976D01*
X151391904Y-67662976D01*
X151487142Y-67710595D01*
X151534761Y-67758214D01*
X151582380Y-67853452D01*
X151582380Y-68091547D01*
X151534761Y-68186785D01*
X151487142Y-68234404D01*
X148042380Y-72710595D02*
X148042380Y-72139166D01*
X149042380Y-72424880D02*
X148042380Y-72424880D01*
X148042380Y-71901071D02*
X149042380Y-71234404D01*
X148042380Y-71234404D02*
X149042380Y-71901071D01*
X148042380Y-70948690D02*
X148042380Y-70329642D01*
X148423333Y-70662976D01*
X148423333Y-70520119D01*
X148470952Y-70424880D01*
X148518571Y-70377261D01*
X148613809Y-70329642D01*
X148851904Y-70329642D01*
X148947142Y-70377261D01*
X148994761Y-70424880D01*
X149042380Y-70520119D01*
X149042380Y-70805833D01*
X148994761Y-70901071D01*
X148947142Y-70948690D01*
X149042380Y-68615357D02*
X149042380Y-69186785D01*
X149042380Y-68901071D02*
X148042380Y-68901071D01*
X148185238Y-68996309D01*
X148280476Y-69091547D01*
X148328095Y-69186785D01*
X148375714Y-67758214D02*
X149042380Y-67758214D01*
X147994761Y-67996309D02*
X148709047Y-68234404D01*
X148709047Y-67615357D01*
X143962380Y-72996309D02*
X143486190Y-73329642D01*
X143962380Y-73567738D02*
X142962380Y-73567738D01*
X142962380Y-73186785D01*
X143010000Y-73091547D01*
X143057619Y-73043928D01*
X143152857Y-72996309D01*
X143295714Y-72996309D01*
X143390952Y-73043928D01*
X143438571Y-73091547D01*
X143486190Y-73186785D01*
X143486190Y-73567738D01*
X142962380Y-72662976D02*
X143962380Y-71996309D01*
X142962380Y-71996309D02*
X143962380Y-72662976D01*
X142962380Y-71424880D02*
X142962380Y-71329642D01*
X143010000Y-71234404D01*
X143057619Y-71186785D01*
X143152857Y-71139166D01*
X143343333Y-71091547D01*
X143581428Y-71091547D01*
X143771904Y-71139166D01*
X143867142Y-71186785D01*
X143914761Y-71234404D01*
X143962380Y-71329642D01*
X143962380Y-71424880D01*
X143914761Y-71520119D01*
X143867142Y-71567738D01*
X143771904Y-71615357D01*
X143581428Y-71662976D01*
X143343333Y-71662976D01*
X143152857Y-71615357D01*
X143057619Y-71567738D01*
X143010000Y-71520119D01*
X142962380Y-71424880D01*
X143295714Y-69901071D02*
X143581428Y-70662976D01*
X143867142Y-69901071D01*
X143581428Y-69424880D02*
X143581428Y-68662976D01*
X142962380Y-67996309D02*
X142962380Y-67901071D01*
X143010000Y-67805833D01*
X143057619Y-67758214D01*
X143152857Y-67710595D01*
X143343333Y-67662976D01*
X143581428Y-67662976D01*
X143771904Y-67710595D01*
X143867142Y-67758214D01*
X143914761Y-67805833D01*
X143962380Y-67901071D01*
X143962380Y-67996309D01*
X143914761Y-68091547D01*
X143867142Y-68139166D01*
X143771904Y-68186785D01*
X143581428Y-68234404D01*
X143343333Y-68234404D01*
X143152857Y-68186785D01*
X143057619Y-68139166D01*
X143010000Y-68091547D01*
X142962380Y-67996309D01*
X140422380Y-73472500D02*
X140422380Y-72901071D01*
X141422380Y-73186785D02*
X140422380Y-73186785D01*
X140422380Y-72662976D02*
X141422380Y-71996309D01*
X140422380Y-71996309D02*
X141422380Y-72662976D01*
X140422380Y-71424880D02*
X140422380Y-71329642D01*
X140470000Y-71234404D01*
X140517619Y-71186785D01*
X140612857Y-71139166D01*
X140803333Y-71091547D01*
X141041428Y-71091547D01*
X141231904Y-71139166D01*
X141327142Y-71186785D01*
X141374761Y-71234404D01*
X141422380Y-71329642D01*
X141422380Y-71424880D01*
X141374761Y-71520119D01*
X141327142Y-71567738D01*
X141231904Y-71615357D01*
X141041428Y-71662976D01*
X140803333Y-71662976D01*
X140612857Y-71615357D01*
X140517619Y-71567738D01*
X140470000Y-71520119D01*
X140422380Y-71424880D01*
X141041428Y-70662976D02*
X141041428Y-69901071D01*
X140755714Y-69424880D02*
X141041428Y-68662976D01*
X141327142Y-69424880D01*
X141422380Y-67662976D02*
X141422380Y-68234404D01*
X141422380Y-67948690D02*
X140422380Y-67948690D01*
X140565238Y-68043928D01*
X140660476Y-68139166D01*
X140708095Y-68234404D01*
X137977619Y-68234404D02*
X137930000Y-68186785D01*
X137882380Y-68091547D01*
X137882380Y-67853452D01*
X137930000Y-67758214D01*
X137977619Y-67710595D01*
X138072857Y-67662976D01*
X138168095Y-67662976D01*
X138310952Y-67710595D01*
X138882380Y-68282023D01*
X138882380Y-67662976D01*
X135342380Y-68282023D02*
X135342380Y-67662976D01*
X135723333Y-67996309D01*
X135723333Y-67853452D01*
X135770952Y-67758214D01*
X135818571Y-67710595D01*
X135913809Y-67662976D01*
X136151904Y-67662976D01*
X136247142Y-67710595D01*
X136294761Y-67758214D01*
X136342380Y-67853452D01*
X136342380Y-68139166D01*
X136294761Y-68234404D01*
X136247142Y-68282023D01*
X133135714Y-67758214D02*
X133802380Y-67758214D01*
X132754761Y-67996309D02*
X133469047Y-68234404D01*
X133469047Y-67615357D01*
X130262380Y-67710595D02*
X130262380Y-68186785D01*
X130738571Y-68234404D01*
X130690952Y-68186785D01*
X130643333Y-68091547D01*
X130643333Y-67853452D01*
X130690952Y-67758214D01*
X130738571Y-67710595D01*
X130833809Y-67662976D01*
X131071904Y-67662976D01*
X131167142Y-67710595D01*
X131214761Y-67758214D01*
X131262380Y-67853452D01*
X131262380Y-68091547D01*
X131214761Y-68186785D01*
X131167142Y-68234404D01*
X127722380Y-67758214D02*
X127722380Y-67948690D01*
X127770000Y-68043928D01*
X127817619Y-68091547D01*
X127960476Y-68186785D01*
X128150952Y-68234404D01*
X128531904Y-68234404D01*
X128627142Y-68186785D01*
X128674761Y-68139166D01*
X128722380Y-68043928D01*
X128722380Y-67853452D01*
X128674761Y-67758214D01*
X128627142Y-67710595D01*
X128531904Y-67662976D01*
X128293809Y-67662976D01*
X128198571Y-67710595D01*
X128150952Y-67758214D01*
X128103333Y-67853452D01*
X128103333Y-68043928D01*
X128150952Y-68139166D01*
X128198571Y-68186785D01*
X128293809Y-68234404D01*
X125182380Y-68282023D02*
X125182380Y-67615357D01*
X126182380Y-68043928D01*
X171616666Y-111407023D02*
X171616666Y-110930833D01*
X171902380Y-111502261D02*
X170902380Y-111168928D01*
X171902380Y-110835595D01*
X171902380Y-109978452D02*
X171902380Y-110549880D01*
X171902380Y-110264166D02*
X170902380Y-110264166D01*
X171045238Y-110359404D01*
X171140476Y-110454642D01*
X171188095Y-110549880D01*
X170902380Y-109073690D02*
X170902380Y-109549880D01*
X171378571Y-109597500D01*
X171330952Y-109549880D01*
X171283333Y-109454642D01*
X171283333Y-109216547D01*
X171330952Y-109121309D01*
X171378571Y-109073690D01*
X171473809Y-109026071D01*
X171711904Y-109026071D01*
X171807142Y-109073690D01*
X171854761Y-109121309D01*
X171902380Y-109216547D01*
X171902380Y-109454642D01*
X171854761Y-109549880D01*
X171807142Y-109597500D01*
X169076666Y-111407023D02*
X169076666Y-110930833D01*
X169362380Y-111502261D02*
X168362380Y-111168928D01*
X169362380Y-110835595D01*
X169362380Y-109978452D02*
X169362380Y-110549880D01*
X169362380Y-110264166D02*
X168362380Y-110264166D01*
X168505238Y-110359404D01*
X168600476Y-110454642D01*
X168648095Y-110549880D01*
X168695714Y-109121309D02*
X169362380Y-109121309D01*
X168314761Y-109359404D02*
X169029047Y-109597500D01*
X169029047Y-108978452D01*
X166536666Y-111407023D02*
X166536666Y-110930833D01*
X166822380Y-111502261D02*
X165822380Y-111168928D01*
X166822380Y-110835595D01*
X166822380Y-109978452D02*
X166822380Y-110549880D01*
X166822380Y-110264166D02*
X165822380Y-110264166D01*
X165965238Y-110359404D01*
X166060476Y-110454642D01*
X166108095Y-110549880D01*
X165822380Y-109645119D02*
X165822380Y-109026071D01*
X166203333Y-109359404D01*
X166203333Y-109216547D01*
X166250952Y-109121309D01*
X166298571Y-109073690D01*
X166393809Y-109026071D01*
X166631904Y-109026071D01*
X166727142Y-109073690D01*
X166774761Y-109121309D01*
X166822380Y-109216547D01*
X166822380Y-109502261D01*
X166774761Y-109597500D01*
X166727142Y-109645119D01*
X163996666Y-111407023D02*
X163996666Y-110930833D01*
X164282380Y-111502261D02*
X163282380Y-111168928D01*
X164282380Y-110835595D01*
X164282380Y-109978452D02*
X164282380Y-110549880D01*
X164282380Y-110264166D02*
X163282380Y-110264166D01*
X163425238Y-110359404D01*
X163520476Y-110454642D01*
X163568095Y-110549880D01*
X163377619Y-109597500D02*
X163330000Y-109549880D01*
X163282380Y-109454642D01*
X163282380Y-109216547D01*
X163330000Y-109121309D01*
X163377619Y-109073690D01*
X163472857Y-109026071D01*
X163568095Y-109026071D01*
X163710952Y-109073690D01*
X164282380Y-109645119D01*
X164282380Y-109026071D01*
X161456666Y-111407023D02*
X161456666Y-110930833D01*
X161742380Y-111502261D02*
X160742380Y-111168928D01*
X161742380Y-110835595D01*
X161742380Y-109978452D02*
X161742380Y-110549880D01*
X161742380Y-110264166D02*
X160742380Y-110264166D01*
X160885238Y-110359404D01*
X160980476Y-110454642D01*
X161028095Y-110549880D01*
X161742380Y-109026071D02*
X161742380Y-109597500D01*
X161742380Y-109311785D02*
X160742380Y-109311785D01*
X160885238Y-109407023D01*
X160980476Y-109502261D01*
X161028095Y-109597500D01*
X158916666Y-111407023D02*
X158916666Y-110930833D01*
X159202380Y-111502261D02*
X158202380Y-111168928D01*
X159202380Y-110835595D01*
X159202380Y-109978452D02*
X159202380Y-110549880D01*
X159202380Y-110264166D02*
X158202380Y-110264166D01*
X158345238Y-110359404D01*
X158440476Y-110454642D01*
X158488095Y-110549880D01*
X158202380Y-109359404D02*
X158202380Y-109264166D01*
X158250000Y-109168928D01*
X158297619Y-109121309D01*
X158392857Y-109073690D01*
X158583333Y-109026071D01*
X158821428Y-109026071D01*
X159011904Y-109073690D01*
X159107142Y-109121309D01*
X159154761Y-109168928D01*
X159202380Y-109264166D01*
X159202380Y-109359404D01*
X159154761Y-109454642D01*
X159107142Y-109502261D01*
X159011904Y-109549880D01*
X158821428Y-109597500D01*
X158583333Y-109597500D01*
X158392857Y-109549880D01*
X158297619Y-109502261D01*
X158250000Y-109454642D01*
X158202380Y-109359404D01*
X156376666Y-111407023D02*
X156376666Y-110930833D01*
X156662380Y-111502261D02*
X155662380Y-111168928D01*
X156662380Y-110835595D01*
X156662380Y-110454642D02*
X156662380Y-110264166D01*
X156614761Y-110168928D01*
X156567142Y-110121309D01*
X156424285Y-110026071D01*
X156233809Y-109978452D01*
X155852857Y-109978452D01*
X155757619Y-110026071D01*
X155710000Y-110073690D01*
X155662380Y-110168928D01*
X155662380Y-110359404D01*
X155710000Y-110454642D01*
X155757619Y-110502261D01*
X155852857Y-110549880D01*
X156090952Y-110549880D01*
X156186190Y-110502261D01*
X156233809Y-110454642D01*
X156281428Y-110359404D01*
X156281428Y-110168928D01*
X156233809Y-110073690D01*
X156186190Y-110026071D01*
X156090952Y-109978452D01*
X153836666Y-111407023D02*
X153836666Y-110930833D01*
X154122380Y-111502261D02*
X153122380Y-111168928D01*
X154122380Y-110835595D01*
X153550952Y-110359404D02*
X153503333Y-110454642D01*
X153455714Y-110502261D01*
X153360476Y-110549880D01*
X153312857Y-110549880D01*
X153217619Y-110502261D01*
X153170000Y-110454642D01*
X153122380Y-110359404D01*
X153122380Y-110168928D01*
X153170000Y-110073690D01*
X153217619Y-110026071D01*
X153312857Y-109978452D01*
X153360476Y-109978452D01*
X153455714Y-110026071D01*
X153503333Y-110073690D01*
X153550952Y-110168928D01*
X153550952Y-110359404D01*
X153598571Y-110454642D01*
X153646190Y-110502261D01*
X153741428Y-110549880D01*
X153931904Y-110549880D01*
X154027142Y-110502261D01*
X154074761Y-110454642D01*
X154122380Y-110359404D01*
X154122380Y-110168928D01*
X154074761Y-110073690D01*
X154027142Y-110026071D01*
X153931904Y-109978452D01*
X153741428Y-109978452D01*
X153646190Y-110026071D01*
X153598571Y-110073690D01*
X153550952Y-110168928D01*
X148756666Y-111407023D02*
X148756666Y-110930833D01*
X149042380Y-111502261D02*
X148042380Y-111168928D01*
X149042380Y-110835595D01*
X148042380Y-110597500D02*
X148042380Y-109930833D01*
X149042380Y-110359404D01*
X146216666Y-111407023D02*
X146216666Y-110930833D01*
X146502380Y-111502261D02*
X145502380Y-111168928D01*
X146502380Y-110835595D01*
X145502380Y-110073690D02*
X145502380Y-110264166D01*
X145550000Y-110359404D01*
X145597619Y-110407023D01*
X145740476Y-110502261D01*
X145930952Y-110549880D01*
X146311904Y-110549880D01*
X146407142Y-110502261D01*
X146454761Y-110454642D01*
X146502380Y-110359404D01*
X146502380Y-110168928D01*
X146454761Y-110073690D01*
X146407142Y-110026071D01*
X146311904Y-109978452D01*
X146073809Y-109978452D01*
X145978571Y-110026071D01*
X145930952Y-110073690D01*
X145883333Y-110168928D01*
X145883333Y-110359404D01*
X145930952Y-110454642D01*
X145978571Y-110502261D01*
X146073809Y-110549880D01*
X143676666Y-111407023D02*
X143676666Y-110930833D01*
X143962380Y-111502261D02*
X142962380Y-111168928D01*
X143962380Y-110835595D01*
X142962380Y-110026071D02*
X142962380Y-110502261D01*
X143438571Y-110549880D01*
X143390952Y-110502261D01*
X143343333Y-110407023D01*
X143343333Y-110168928D01*
X143390952Y-110073690D01*
X143438571Y-110026071D01*
X143533809Y-109978452D01*
X143771904Y-109978452D01*
X143867142Y-110026071D01*
X143914761Y-110073690D01*
X143962380Y-110168928D01*
X143962380Y-110407023D01*
X143914761Y-110502261D01*
X143867142Y-110549880D01*
X141136666Y-111407023D02*
X141136666Y-110930833D01*
X141422380Y-111502261D02*
X140422380Y-111168928D01*
X141422380Y-110835595D01*
X140755714Y-110073690D02*
X141422380Y-110073690D01*
X140374761Y-110311785D02*
X141089047Y-110549880D01*
X141089047Y-109930833D01*
X138596666Y-111407023D02*
X138596666Y-110930833D01*
X138882380Y-111502261D02*
X137882380Y-111168928D01*
X138882380Y-110835595D01*
X137882380Y-110597500D02*
X137882380Y-109978452D01*
X138263333Y-110311785D01*
X138263333Y-110168928D01*
X138310952Y-110073690D01*
X138358571Y-110026071D01*
X138453809Y-109978452D01*
X138691904Y-109978452D01*
X138787142Y-110026071D01*
X138834761Y-110073690D01*
X138882380Y-110168928D01*
X138882380Y-110454642D01*
X138834761Y-110549880D01*
X138787142Y-110597500D01*
X136056666Y-111407023D02*
X136056666Y-110930833D01*
X136342380Y-111502261D02*
X135342380Y-111168928D01*
X136342380Y-110835595D01*
X135437619Y-110549880D02*
X135390000Y-110502261D01*
X135342380Y-110407023D01*
X135342380Y-110168928D01*
X135390000Y-110073690D01*
X135437619Y-110026071D01*
X135532857Y-109978452D01*
X135628095Y-109978452D01*
X135770952Y-110026071D01*
X136342380Y-110597500D01*
X136342380Y-109978452D01*
X133516666Y-111407023D02*
X133516666Y-110930833D01*
X133802380Y-111502261D02*
X132802380Y-111168928D01*
X133802380Y-110835595D01*
X133802380Y-109978452D02*
X133802380Y-110549880D01*
X133802380Y-110264166D02*
X132802380Y-110264166D01*
X132945238Y-110359404D01*
X133040476Y-110454642D01*
X133088095Y-110549880D01*
X130976666Y-111407023D02*
X130976666Y-110930833D01*
X131262380Y-111502261D02*
X130262380Y-111168928D01*
X131262380Y-110835595D01*
X130262380Y-110311785D02*
X130262380Y-110216547D01*
X130310000Y-110121309D01*
X130357619Y-110073690D01*
X130452857Y-110026071D01*
X130643333Y-109978452D01*
X130881428Y-109978452D01*
X131071904Y-110026071D01*
X131167142Y-110073690D01*
X131214761Y-110121309D01*
X131262380Y-110216547D01*
X131262380Y-110311785D01*
X131214761Y-110407023D01*
X131167142Y-110454642D01*
X131071904Y-110502261D01*
X130881428Y-110549880D01*
X130643333Y-110549880D01*
X130452857Y-110502261D01*
X130357619Y-110454642D01*
X130310000Y-110407023D01*
X130262380Y-110311785D01*
X113482380Y-110787976D02*
X113006190Y-111121309D01*
X113482380Y-111359404D02*
X112482380Y-111359404D01*
X112482380Y-110978452D01*
X112530000Y-110883214D01*
X112577619Y-110835595D01*
X112672857Y-110787976D01*
X112815714Y-110787976D01*
X112910952Y-110835595D01*
X112958571Y-110883214D01*
X113006190Y-110978452D01*
X113006190Y-111359404D01*
X113434761Y-110407023D02*
X113482380Y-110264166D01*
X113482380Y-110026071D01*
X113434761Y-109930833D01*
X113387142Y-109883214D01*
X113291904Y-109835595D01*
X113196666Y-109835595D01*
X113101428Y-109883214D01*
X113053809Y-109930833D01*
X113006190Y-110026071D01*
X112958571Y-110216547D01*
X112910952Y-110311785D01*
X112863333Y-110359404D01*
X112768095Y-110407023D01*
X112672857Y-110407023D01*
X112577619Y-110359404D01*
X112530000Y-110311785D01*
X112482380Y-110216547D01*
X112482380Y-109978452D01*
X112530000Y-109835595D01*
X112482380Y-109549880D02*
X112482380Y-108978452D01*
X113482380Y-109264166D02*
X112482380Y-109264166D01*
X115022380Y-111454642D02*
X115022380Y-110835595D01*
X115403333Y-111168928D01*
X115403333Y-111026071D01*
X115450952Y-110930833D01*
X115498571Y-110883214D01*
X115593809Y-110835595D01*
X115831904Y-110835595D01*
X115927142Y-110883214D01*
X115974761Y-110930833D01*
X116022380Y-111026071D01*
X116022380Y-111311785D01*
X115974761Y-111407023D01*
X115927142Y-111454642D01*
X115927142Y-110407023D02*
X115974761Y-110359404D01*
X116022380Y-110407023D01*
X115974761Y-110454642D01*
X115927142Y-110407023D01*
X116022380Y-110407023D01*
X115022380Y-110026071D02*
X115022380Y-109407023D01*
X115403333Y-109740357D01*
X115403333Y-109597500D01*
X115450952Y-109502261D01*
X115498571Y-109454642D01*
X115593809Y-109407023D01*
X115831904Y-109407023D01*
X115927142Y-109454642D01*
X115974761Y-109502261D01*
X116022380Y-109597500D01*
X116022380Y-109883214D01*
X115974761Y-109978452D01*
X115927142Y-110026071D01*
X115022380Y-109121309D02*
X116022380Y-108787976D01*
X115022380Y-108454642D01*
X117562380Y-110883214D02*
X117562380Y-111359404D01*
X118038571Y-111407023D01*
X117990952Y-111359404D01*
X117943333Y-111264166D01*
X117943333Y-111026071D01*
X117990952Y-110930833D01*
X118038571Y-110883214D01*
X118133809Y-110835595D01*
X118371904Y-110835595D01*
X118467142Y-110883214D01*
X118514761Y-110930833D01*
X118562380Y-111026071D01*
X118562380Y-111264166D01*
X118514761Y-111359404D01*
X118467142Y-111407023D01*
X117562380Y-110549880D02*
X118562380Y-110216547D01*
X117562380Y-109883214D01*
X125182380Y-111502261D02*
X126182380Y-111168928D01*
X125182380Y-110835595D01*
X126182380Y-110502261D02*
X125515714Y-110502261D01*
X125182380Y-110502261D02*
X125230000Y-110549880D01*
X125277619Y-110502261D01*
X125230000Y-110454642D01*
X125182380Y-110502261D01*
X125277619Y-110502261D01*
X125515714Y-110026071D02*
X126182380Y-110026071D01*
X125610952Y-110026071D02*
X125563333Y-109978452D01*
X125515714Y-109883214D01*
X125515714Y-109740357D01*
X125563333Y-109645119D01*
X125658571Y-109597500D01*
X126182380Y-109597500D01*
X120150000Y-110835595D02*
X120102380Y-110930833D01*
X120102380Y-111073690D01*
X120150000Y-111216547D01*
X120245238Y-111311785D01*
X120340476Y-111359404D01*
X120530952Y-111407023D01*
X120673809Y-111407023D01*
X120864285Y-111359404D01*
X120959523Y-111311785D01*
X121054761Y-111216547D01*
X121102380Y-111073690D01*
X121102380Y-110978452D01*
X121054761Y-110835595D01*
X121007142Y-110787976D01*
X120673809Y-110787976D01*
X120673809Y-110978452D01*
X121102380Y-110359404D02*
X120102380Y-110359404D01*
X121102380Y-109787976D01*
X120102380Y-109787976D01*
X121102380Y-109311785D02*
X120102380Y-109311785D01*
X120102380Y-109073690D01*
X120150000Y-108930833D01*
X120245238Y-108835595D01*
X120340476Y-108787976D01*
X120530952Y-108740357D01*
X120673809Y-108740357D01*
X120864285Y-108787976D01*
X120959523Y-108835595D01*
X121054761Y-108930833D01*
X121102380Y-109073690D01*
X121102380Y-109311785D01*
X122690000Y-110835595D02*
X122642380Y-110930833D01*
X122642380Y-111073690D01*
X122690000Y-111216547D01*
X122785238Y-111311785D01*
X122880476Y-111359404D01*
X123070952Y-111407023D01*
X123213809Y-111407023D01*
X123404285Y-111359404D01*
X123499523Y-111311785D01*
X123594761Y-111216547D01*
X123642380Y-111073690D01*
X123642380Y-110978452D01*
X123594761Y-110835595D01*
X123547142Y-110787976D01*
X123213809Y-110787976D01*
X123213809Y-110978452D01*
X123642380Y-110359404D02*
X122642380Y-110359404D01*
X123642380Y-109787976D01*
X122642380Y-109787976D01*
X123642380Y-109311785D02*
X122642380Y-109311785D01*
X122642380Y-109073690D01*
X122690000Y-108930833D01*
X122785238Y-108835595D01*
X122880476Y-108787976D01*
X123070952Y-108740357D01*
X123213809Y-108740357D01*
X123404285Y-108787976D01*
X123499523Y-108835595D01*
X123594761Y-108930833D01*
X123642380Y-109073690D01*
X123642380Y-109311785D01*
D10*
X97964761Y-104008571D02*
X99393333Y-104008571D01*
X99679047Y-104080000D01*
X99869523Y-104222857D01*
X99964761Y-104437142D01*
X99964761Y-104580000D01*
X99964761Y-103080000D02*
X99869523Y-103222857D01*
X99774285Y-103294285D01*
X99583809Y-103365714D01*
X99012380Y-103365714D01*
X98821904Y-103294285D01*
X98726666Y-103222857D01*
X98631428Y-103080000D01*
X98631428Y-102865714D01*
X98726666Y-102722857D01*
X98821904Y-102651428D01*
X99012380Y-102580000D01*
X99583809Y-102580000D01*
X99774285Y-102651428D01*
X99869523Y-102722857D01*
X99964761Y-102865714D01*
X99964761Y-103080000D01*
X98631428Y-102080000D02*
X99964761Y-101722857D01*
X98631428Y-101365714D02*
X99964761Y-101722857D01*
X100440952Y-101865714D01*
X100536190Y-101937142D01*
X100631428Y-102080000D01*
X99869523Y-100865714D02*
X99964761Y-100722857D01*
X99964761Y-100437142D01*
X99869523Y-100294285D01*
X99679047Y-100222857D01*
X99583809Y-100222857D01*
X99393333Y-100294285D01*
X99298095Y-100437142D01*
X99298095Y-100651428D01*
X99202857Y-100794285D01*
X99012380Y-100865714D01*
X98917142Y-100865714D01*
X98726666Y-100794285D01*
X98631428Y-100651428D01*
X98631428Y-100437142D01*
X98726666Y-100294285D01*
X98631428Y-99794285D02*
X98631428Y-99222857D01*
X97964761Y-99580000D02*
X99679047Y-99580000D01*
X99869523Y-99508571D01*
X99964761Y-99365714D01*
X99964761Y-99222857D01*
X99964761Y-98722857D02*
X98631428Y-98722857D01*
X97964761Y-98722857D02*
X98060000Y-98794285D01*
X98155238Y-98722857D01*
X98060000Y-98651428D01*
X97964761Y-98722857D01*
X98155238Y-98722857D01*
X99869523Y-97365714D02*
X99964761Y-97508571D01*
X99964761Y-97794285D01*
X99869523Y-97937142D01*
X99774285Y-98008571D01*
X99583809Y-98080000D01*
X99012380Y-98080000D01*
X98821904Y-98008571D01*
X98726666Y-97937142D01*
X98631428Y-97794285D01*
X98631428Y-97508571D01*
X98726666Y-97365714D01*
X99964761Y-96722857D02*
X97964761Y-96722857D01*
X99202857Y-96580000D02*
X99964761Y-96151428D01*
X98631428Y-96151428D02*
X99393333Y-96722857D01*
X122162857Y-102504761D02*
X122162857Y-100504761D01*
X122520000Y-100504761D01*
X122734285Y-100600000D01*
X122877142Y-100790476D01*
X122948571Y-100980952D01*
X123020000Y-101361904D01*
X123020000Y-101647619D01*
X122948571Y-102028571D01*
X122877142Y-102219047D01*
X122734285Y-102409523D01*
X122520000Y-102504761D01*
X122162857Y-102504761D01*
X124234285Y-102409523D02*
X124091428Y-102504761D01*
X123805714Y-102504761D01*
X123662857Y-102409523D01*
X123591428Y-102219047D01*
X123591428Y-101457142D01*
X123662857Y-101266666D01*
X123805714Y-101171428D01*
X124091428Y-101171428D01*
X124234285Y-101266666D01*
X124305714Y-101457142D01*
X124305714Y-101647619D01*
X123591428Y-101838095D01*
X124091428Y-100409523D02*
X123877142Y-100695238D01*
X125591428Y-102409523D02*
X125448571Y-102504761D01*
X125162857Y-102504761D01*
X125020000Y-102409523D01*
X124948571Y-102314285D01*
X124877142Y-102123809D01*
X124877142Y-101552380D01*
X124948571Y-101361904D01*
X125020000Y-101266666D01*
X125162857Y-101171428D01*
X125448571Y-101171428D01*
X125591428Y-101266666D01*
X126448571Y-102504761D02*
X126305714Y-102409523D01*
X126234285Y-102219047D01*
X126234285Y-100504761D01*
X127020000Y-102504761D02*
X127020000Y-101171428D01*
X127020000Y-100504761D02*
X126948571Y-100600000D01*
X127020000Y-100695238D01*
X127091428Y-100600000D01*
X127020000Y-100504761D01*
X127020000Y-100695238D01*
X127734285Y-101171428D02*
X127734285Y-102504761D01*
X127734285Y-101361904D02*
X127805714Y-101266666D01*
X127948571Y-101171428D01*
X128162857Y-101171428D01*
X128305714Y-101266666D01*
X128377142Y-101457142D01*
X128377142Y-102504761D01*
X129734285Y-102504761D02*
X129734285Y-101457142D01*
X129662857Y-101266666D01*
X129520000Y-101171428D01*
X129234285Y-101171428D01*
X129091428Y-101266666D01*
X129734285Y-102409523D02*
X129591428Y-102504761D01*
X129234285Y-102504761D01*
X129091428Y-102409523D01*
X129020000Y-102219047D01*
X129020000Y-102028571D01*
X129091428Y-101838095D01*
X129234285Y-101742857D01*
X129591428Y-101742857D01*
X129734285Y-101647619D01*
X130448571Y-102504761D02*
X130448571Y-101171428D01*
X130448571Y-100504761D02*
X130377142Y-100600000D01*
X130448571Y-100695238D01*
X130520000Y-100600000D01*
X130448571Y-100504761D01*
X130448571Y-100695238D01*
X131091428Y-102409523D02*
X131234285Y-102504761D01*
X131520000Y-102504761D01*
X131662857Y-102409523D01*
X131734285Y-102219047D01*
X131734285Y-102123809D01*
X131662857Y-101933333D01*
X131520000Y-101838095D01*
X131305714Y-101838095D01*
X131162857Y-101742857D01*
X131091428Y-101552380D01*
X131091428Y-101457142D01*
X131162857Y-101266666D01*
X131305714Y-101171428D01*
X131520000Y-101171428D01*
X131662857Y-101266666D01*
X132591428Y-102504761D02*
X132448571Y-102409523D01*
X132377142Y-102314285D01*
X132305714Y-102123809D01*
X132305714Y-101552380D01*
X132377142Y-101361904D01*
X132448571Y-101266666D01*
X132591428Y-101171428D01*
X132805714Y-101171428D01*
X132948571Y-101266666D01*
X133020000Y-101361904D01*
X133091428Y-101552380D01*
X133091428Y-102123809D01*
X133020000Y-102314285D01*
X132948571Y-102409523D01*
X132805714Y-102504761D01*
X132591428Y-102504761D01*
X133734285Y-101171428D02*
X133734285Y-102504761D01*
X133734285Y-101361904D02*
X133805714Y-101266666D01*
X133948571Y-101171428D01*
X134162857Y-101171428D01*
X134305714Y-101266666D01*
X134377142Y-101457142D01*
X134377142Y-102504761D01*
X149082857Y-77803333D02*
X149797142Y-77803333D01*
X148940000Y-78374761D02*
X149440000Y-76374761D01*
X149940000Y-78374761D01*
X150368571Y-78279523D02*
X150511428Y-78374761D01*
X150797142Y-78374761D01*
X150940000Y-78279523D01*
X151011428Y-78089047D01*
X151011428Y-77993809D01*
X150940000Y-77803333D01*
X150797142Y-77708095D01*
X150582857Y-77708095D01*
X150440000Y-77612857D01*
X150368571Y-77422380D01*
X150368571Y-77327142D01*
X150440000Y-77136666D01*
X150582857Y-77041428D01*
X150797142Y-77041428D01*
X150940000Y-77136666D01*
X152297142Y-78279523D02*
X152154285Y-78374761D01*
X151868571Y-78374761D01*
X151725714Y-78279523D01*
X151654285Y-78184285D01*
X151582857Y-77993809D01*
X151582857Y-77422380D01*
X151654285Y-77231904D01*
X151725714Y-77136666D01*
X151868571Y-77041428D01*
X152154285Y-77041428D01*
X152297142Y-77136666D01*
X152940000Y-78184285D02*
X153011428Y-78279523D01*
X152940000Y-78374761D01*
X152868571Y-78279523D01*
X152940000Y-78184285D01*
X152940000Y-78374761D01*
X154797142Y-78374761D02*
X154797142Y-76374761D01*
X155154285Y-76374761D01*
X155368571Y-76470000D01*
X155511428Y-76660476D01*
X155582857Y-76850952D01*
X155654285Y-77231904D01*
X155654285Y-77517619D01*
X155582857Y-77898571D01*
X155511428Y-78089047D01*
X155368571Y-78279523D01*
X155154285Y-78374761D01*
X154797142Y-78374761D01*
X156297142Y-78374761D02*
X156297142Y-77041428D01*
X156297142Y-77422380D02*
X156368571Y-77231904D01*
X156440000Y-77136666D01*
X156582857Y-77041428D01*
X156725714Y-77041428D01*
X157440000Y-78374761D02*
X157297142Y-78279523D01*
X157225714Y-78184285D01*
X157154285Y-77993809D01*
X157154285Y-77422380D01*
X157225714Y-77231904D01*
X157297142Y-77136666D01*
X157440000Y-77041428D01*
X157654285Y-77041428D01*
X157797142Y-77136666D01*
X157868571Y-77231904D01*
X157940000Y-77422380D01*
X157940000Y-77993809D01*
X157868571Y-78184285D01*
X157797142Y-78279523D01*
X157654285Y-78374761D01*
X157440000Y-78374761D01*
X158582857Y-78374761D02*
X158582857Y-77041428D01*
X158582857Y-76374761D02*
X158511428Y-76470000D01*
X158582857Y-76565238D01*
X158654285Y-76470000D01*
X158582857Y-76374761D01*
X158582857Y-76565238D01*
X159082857Y-77041428D02*
X159654285Y-77041428D01*
X159297142Y-76374761D02*
X159297142Y-78089047D01*
X159368571Y-78279523D01*
X159511428Y-78374761D01*
X159654285Y-78374761D01*
X160725714Y-78279523D02*
X160582857Y-78374761D01*
X160297142Y-78374761D01*
X160154285Y-78279523D01*
X160082857Y-78089047D01*
X160082857Y-77327142D01*
X160154285Y-77136666D01*
X160297142Y-77041428D01*
X160582857Y-77041428D01*
X160725714Y-77136666D01*
X160797142Y-77327142D01*
X160797142Y-77517619D01*
X160082857Y-77708095D01*
D12*
X103774761Y-87050000D02*
X102822380Y-87383333D01*
X103774761Y-87621428D02*
X101774761Y-87621428D01*
X101774761Y-87240476D01*
X101870000Y-87145238D01*
X101965238Y-87097619D01*
X102155714Y-87050000D01*
X102441428Y-87050000D01*
X102631904Y-87097619D01*
X102727142Y-87145238D01*
X102822380Y-87240476D01*
X102822380Y-87621428D01*
X102441428Y-86192857D02*
X103774761Y-86192857D01*
X102441428Y-86621428D02*
X103489047Y-86621428D01*
X103679523Y-86573809D01*
X103774761Y-86478571D01*
X103774761Y-86335714D01*
X103679523Y-86240476D01*
X103584285Y-86192857D01*
X102441428Y-85716666D02*
X103774761Y-85716666D01*
X102631904Y-85716666D02*
X102536666Y-85669047D01*
X102441428Y-85573809D01*
X102441428Y-85430952D01*
X102536666Y-85335714D01*
X102727142Y-85288095D01*
X103774761Y-85288095D01*
X103679523Y-84859523D02*
X103774761Y-84764285D01*
X103774761Y-84573809D01*
X103679523Y-84478571D01*
X103489047Y-84430952D01*
X103393809Y-84430952D01*
X103203333Y-84478571D01*
X103108095Y-84573809D01*
X103108095Y-84716666D01*
X103012857Y-84811904D01*
X102822380Y-84859523D01*
X102727142Y-84859523D01*
X102536666Y-84811904D01*
X102441428Y-84716666D01*
X102441428Y-84573809D01*
X102536666Y-84478571D01*
X102441428Y-84097619D02*
X103774761Y-83859523D01*
X102441428Y-83621428D02*
X103774761Y-83859523D01*
X104250952Y-83954761D01*
X104346190Y-84002380D01*
X104441428Y-84097619D01*
X103679523Y-83288095D02*
X103774761Y-83192857D01*
X103774761Y-83002380D01*
X103679523Y-82907142D01*
X103489047Y-82859523D01*
X103393809Y-82859523D01*
X103203333Y-82907142D01*
X103108095Y-83002380D01*
X103108095Y-83145238D01*
X103012857Y-83240476D01*
X102822380Y-83288095D01*
X102727142Y-83288095D01*
X102536666Y-83240476D01*
X102441428Y-83145238D01*
X102441428Y-83002380D01*
X102536666Y-82907142D01*
X103679523Y-81240476D02*
X103774761Y-81335714D01*
X103774761Y-81526190D01*
X103679523Y-81621428D01*
X103584285Y-81669047D01*
X103393809Y-81716666D01*
X102822380Y-81716666D01*
X102631904Y-81669047D01*
X102536666Y-81621428D01*
X102441428Y-81526190D01*
X102441428Y-81335714D01*
X102536666Y-81240476D01*
X101965238Y-80859523D02*
X101870000Y-80811904D01*
X101774761Y-80716666D01*
X101774761Y-80478571D01*
X101870000Y-80383333D01*
X101965238Y-80335714D01*
X102155714Y-80288095D01*
X102346190Y-80288095D01*
X102631904Y-80335714D01*
X103774761Y-80907142D01*
X103774761Y-80288095D01*
X101774761Y-79669047D02*
X101774761Y-79573809D01*
X101870000Y-79478571D01*
X101965238Y-79430952D01*
X102155714Y-79383333D01*
X102536666Y-79335714D01*
X103012857Y-79335714D01*
X103393809Y-79383333D01*
X103584285Y-79430952D01*
X103679523Y-79478571D01*
X103774761Y-79573809D01*
X103774761Y-79669047D01*
X103679523Y-79764285D01*
X103584285Y-79811904D01*
X103393809Y-79859523D01*
X103012857Y-79907142D01*
X102536666Y-79907142D01*
X102155714Y-79859523D01*
X101965238Y-79811904D01*
X101870000Y-79764285D01*
X101774761Y-79669047D01*
X103774761Y-78383333D02*
X103774761Y-78954761D01*
X103774761Y-78669047D02*
X101774761Y-78669047D01*
X102060476Y-78764285D01*
X102250952Y-78859523D01*
X102346190Y-78954761D01*
X103774761Y-77907142D02*
X103774761Y-77716666D01*
X103679523Y-77621428D01*
X103584285Y-77573809D01*
X103298571Y-77478571D01*
X102917619Y-77430952D01*
X102155714Y-77430952D01*
X101965238Y-77478571D01*
X101870000Y-77526190D01*
X101774761Y-77621428D01*
X101774761Y-77811904D01*
X101870000Y-77907142D01*
X101965238Y-77954761D01*
X102155714Y-78002380D01*
X102631904Y-78002380D01*
X102822380Y-77954761D01*
X102917619Y-77907142D01*
X103012857Y-77811904D01*
X103012857Y-77621428D01*
X102917619Y-77526190D01*
X102822380Y-77478571D01*
X102631904Y-77430952D01*
D13*
X97504285Y-89978571D02*
X97504285Y-89311904D01*
X99599523Y-89026190D02*
X99599523Y-89978571D01*
X95599523Y-89978571D01*
X95599523Y-89026190D01*
X99980476Y-86835714D02*
X99790000Y-87026190D01*
X99409047Y-87216666D01*
X98837619Y-87502380D01*
X98647142Y-87692857D01*
X98647142Y-87883333D01*
X99599523Y-87788095D02*
X99409047Y-87978571D01*
X99028095Y-88169047D01*
X98266190Y-88264285D01*
X96932857Y-88264285D01*
X96170952Y-88169047D01*
X95790000Y-87978571D01*
X95599523Y-87788095D01*
X95599523Y-87407142D01*
X95790000Y-87216666D01*
X96170952Y-87026190D01*
X96932857Y-86930952D01*
X98266190Y-86930952D01*
X99028095Y-87026190D01*
X99409047Y-87216666D01*
X99599523Y-87407142D01*
X99599523Y-87788095D01*
X95599523Y-85121428D02*
X95599523Y-86073809D01*
X97504285Y-86169047D01*
X97313809Y-86073809D01*
X97123333Y-85883333D01*
X97123333Y-85407142D01*
X97313809Y-85216666D01*
X97504285Y-85121428D01*
X97885238Y-85026190D01*
X98837619Y-85026190D01*
X99218571Y-85121428D01*
X99409047Y-85216666D01*
X99599523Y-85407142D01*
X99599523Y-85883333D01*
X99409047Y-86073809D01*
X99218571Y-86169047D01*
X99599523Y-82645238D02*
X95599523Y-82645238D01*
X95599523Y-82169047D01*
X95790000Y-81883333D01*
X96170952Y-81692857D01*
X96551904Y-81597619D01*
X97313809Y-81502380D01*
X97885238Y-81502380D01*
X98647142Y-81597619D01*
X99028095Y-81692857D01*
X99409047Y-81883333D01*
X99599523Y-82169047D01*
X99599523Y-82645238D01*
X99599523Y-79502380D02*
X97694761Y-80169047D01*
X99599523Y-80645238D02*
X95599523Y-80645238D01*
X95599523Y-79883333D01*
X95790000Y-79692857D01*
X95980476Y-79597619D01*
X96361428Y-79502380D01*
X96932857Y-79502380D01*
X97313809Y-79597619D01*
X97504285Y-79692857D01*
X97694761Y-79883333D01*
X97694761Y-80645238D01*
X99599523Y-78645238D02*
X95599523Y-78645238D01*
X95599523Y-77978571D02*
X99599523Y-77311904D01*
X95599523Y-76645238D01*
X97504285Y-75978571D02*
X97504285Y-75311904D01*
X99599523Y-75026190D02*
X99599523Y-75978571D01*
X95599523Y-75978571D01*
X95599523Y-75026190D01*
D14*
X138190302Y-78565000D02*
X138190302Y-79365000D01*
X137790302Y-78965000D02*
X138590302Y-78965000D01*
X146281000Y-80747000D02*
X146281000Y-81813000D01*
X146241000Y-80512000D02*
X146241000Y-82048000D01*
X146201000Y-80332000D02*
X146201000Y-82228000D01*
X146161000Y-80182000D02*
X146161000Y-82378000D01*
X146121000Y-80051000D02*
X146121000Y-82509000D01*
X146081000Y-79934000D02*
X146081000Y-82626000D01*
X146041000Y-79827000D02*
X146041000Y-82733000D01*
X146001000Y-79728000D02*
X146001000Y-82832000D01*
X145961000Y-79635000D02*
X145961000Y-82925000D01*
X145921000Y-79549000D02*
X145921000Y-83011000D01*
X145881000Y-79467000D02*
X145881000Y-83093000D01*
X145841000Y-79390000D02*
X145841000Y-83170000D01*
X145801000Y-79316000D02*
X145801000Y-83244000D01*
X145761000Y-79246000D02*
X145761000Y-83314000D01*
X145721000Y-82320000D02*
X145721000Y-83382000D01*
X145721000Y-79178000D02*
X145721000Y-80240000D01*
X145681000Y-82320000D02*
X145681000Y-83446000D01*
X145681000Y-79114000D02*
X145681000Y-80240000D01*
X145641000Y-82320000D02*
X145641000Y-83508000D01*
X145641000Y-79052000D02*
X145641000Y-80240000D01*
X145601000Y-82320000D02*
X145601000Y-83567000D01*
X145601000Y-78993000D02*
X145601000Y-80240000D01*
X145561000Y-82320000D02*
X145561000Y-83625000D01*
X145561000Y-78935000D02*
X145561000Y-80240000D01*
X145521000Y-82320000D02*
X145521000Y-83680000D01*
X145521000Y-78880000D02*
X145521000Y-80240000D01*
X145481000Y-82320000D02*
X145481000Y-83734000D01*
X145481000Y-78826000D02*
X145481000Y-80240000D01*
X145441000Y-82320000D02*
X145441000Y-83785000D01*
X145441000Y-78775000D02*
X145441000Y-80240000D01*
X145401000Y-82320000D02*
X145401000Y-83836000D01*
X145401000Y-78724000D02*
X145401000Y-80240000D01*
X145361000Y-82320000D02*
X145361000Y-83884000D01*
X145361000Y-78676000D02*
X145361000Y-80240000D01*
X145321000Y-82320000D02*
X145321000Y-83931000D01*
X145321000Y-78629000D02*
X145321000Y-80240000D01*
X145281000Y-82320000D02*
X145281000Y-83977000D01*
X145281000Y-78583000D02*
X145281000Y-80240000D01*
X145241000Y-82320000D02*
X145241000Y-84021000D01*
X145241000Y-78539000D02*
X145241000Y-80240000D01*
X145201000Y-82320000D02*
X145201000Y-84064000D01*
X145201000Y-78496000D02*
X145201000Y-80240000D01*
X145161000Y-82320000D02*
X145161000Y-84106000D01*
X145161000Y-78454000D02*
X145161000Y-80240000D01*
X145121000Y-82320000D02*
X145121000Y-84147000D01*
X145121000Y-78413000D02*
X145121000Y-80240000D01*
X145081000Y-82320000D02*
X145081000Y-84187000D01*
X145081000Y-78373000D02*
X145081000Y-80240000D01*
X145041000Y-82320000D02*
X145041000Y-84225000D01*
X145041000Y-78335000D02*
X145041000Y-80240000D01*
X145001000Y-82320000D02*
X145001000Y-84263000D01*
X145001000Y-78297000D02*
X145001000Y-80240000D01*
X144961000Y-82320000D02*
X144961000Y-84299000D01*
X144961000Y-78261000D02*
X144961000Y-80240000D01*
X144921000Y-82320000D02*
X144921000Y-84335000D01*
X144921000Y-78225000D02*
X144921000Y-80240000D01*
X144881000Y-82320000D02*
X144881000Y-84370000D01*
X144881000Y-78190000D02*
X144881000Y-80240000D01*
X144841000Y-82320000D02*
X144841000Y-84404000D01*
X144841000Y-78156000D02*
X144841000Y-80240000D01*
X144801000Y-82320000D02*
X144801000Y-84436000D01*
X144801000Y-78124000D02*
X144801000Y-80240000D01*
X144761000Y-82320000D02*
X144761000Y-84469000D01*
X144761000Y-78091000D02*
X144761000Y-80240000D01*
X144721000Y-82320000D02*
X144721000Y-84500000D01*
X144721000Y-78060000D02*
X144721000Y-80240000D01*
X144681000Y-82320000D02*
X144681000Y-84530000D01*
X144681000Y-78030000D02*
X144681000Y-80240000D01*
X144641000Y-82320000D02*
X144641000Y-84560000D01*
X144641000Y-78000000D02*
X144641000Y-80240000D01*
X144601000Y-82320000D02*
X144601000Y-84589000D01*
X144601000Y-77971000D02*
X144601000Y-80240000D01*
X144561000Y-82320000D02*
X144561000Y-84618000D01*
X144561000Y-77942000D02*
X144561000Y-80240000D01*
X144521000Y-82320000D02*
X144521000Y-84645000D01*
X144521000Y-77915000D02*
X144521000Y-80240000D01*
X144481000Y-82320000D02*
X144481000Y-84672000D01*
X144481000Y-77888000D02*
X144481000Y-80240000D01*
X144441000Y-82320000D02*
X144441000Y-84698000D01*
X144441000Y-77862000D02*
X144441000Y-80240000D01*
X144401000Y-82320000D02*
X144401000Y-84724000D01*
X144401000Y-77836000D02*
X144401000Y-80240000D01*
X144361000Y-82320000D02*
X144361000Y-84749000D01*
X144361000Y-77811000D02*
X144361000Y-80240000D01*
X144321000Y-82320000D02*
X144321000Y-84773000D01*
X144321000Y-77787000D02*
X144321000Y-80240000D01*
X144281000Y-82320000D02*
X144281000Y-84797000D01*
X144281000Y-77763000D02*
X144281000Y-80240000D01*
X144241000Y-82320000D02*
X144241000Y-84820000D01*
X144241000Y-77740000D02*
X144241000Y-80240000D01*
X144201000Y-82320000D02*
X144201000Y-84842000D01*
X144201000Y-77718000D02*
X144201000Y-80240000D01*
X144161000Y-82320000D02*
X144161000Y-84864000D01*
X144161000Y-77696000D02*
X144161000Y-80240000D01*
X144121000Y-82320000D02*
X144121000Y-84886000D01*
X144121000Y-77674000D02*
X144121000Y-80240000D01*
X144081000Y-82320000D02*
X144081000Y-84907000D01*
X144081000Y-77653000D02*
X144081000Y-80240000D01*
X144041000Y-82320000D02*
X144041000Y-84927000D01*
X144041000Y-77633000D02*
X144041000Y-80240000D01*
X144001000Y-82320000D02*
X144001000Y-84946000D01*
X144001000Y-77614000D02*
X144001000Y-80240000D01*
X143961000Y-82320000D02*
X143961000Y-84966000D01*
X143961000Y-77594000D02*
X143961000Y-80240000D01*
X143921000Y-82320000D02*
X143921000Y-84984000D01*
X143921000Y-77576000D02*
X143921000Y-80240000D01*
X143881000Y-82320000D02*
X143881000Y-85002000D01*
X143881000Y-77558000D02*
X143881000Y-80240000D01*
X143841000Y-82320000D02*
X143841000Y-85020000D01*
X143841000Y-77540000D02*
X143841000Y-80240000D01*
X143801000Y-82320000D02*
X143801000Y-85037000D01*
X143801000Y-77523000D02*
X143801000Y-80240000D01*
X143761000Y-82320000D02*
X143761000Y-85054000D01*
X143761000Y-77506000D02*
X143761000Y-80240000D01*
X143721000Y-82320000D02*
X143721000Y-85070000D01*
X143721000Y-77490000D02*
X143721000Y-80240000D01*
X143681000Y-82320000D02*
X143681000Y-85085000D01*
X143681000Y-77475000D02*
X143681000Y-80240000D01*
X143641000Y-77459000D02*
X143641000Y-85101000D01*
X143601000Y-77445000D02*
X143601000Y-85115000D01*
X143561000Y-77430000D02*
X143561000Y-85130000D01*
X143521000Y-77417000D02*
X143521000Y-85143000D01*
X143481000Y-77403000D02*
X143481000Y-85157000D01*
X143441000Y-77391000D02*
X143441000Y-85169000D01*
X143401000Y-77378000D02*
X143401000Y-85182000D01*
X143361000Y-77366000D02*
X143361000Y-85194000D01*
X143321000Y-77355000D02*
X143321000Y-85205000D01*
X143281000Y-77344000D02*
X143281000Y-85216000D01*
X143241000Y-77333000D02*
X143241000Y-85227000D01*
X143201000Y-77323000D02*
X143201000Y-85237000D01*
X143161000Y-77313000D02*
X143161000Y-85247000D01*
X143121000Y-77304000D02*
X143121000Y-85256000D01*
X143081000Y-77295000D02*
X143081000Y-85265000D01*
X143041000Y-77286000D02*
X143041000Y-85274000D01*
X143001000Y-77278000D02*
X143001000Y-85282000D01*
X142961000Y-77270000D02*
X142961000Y-85290000D01*
X142921000Y-77263000D02*
X142921000Y-85297000D01*
X142880000Y-77256000D02*
X142880000Y-85304000D01*
X142840000Y-77250000D02*
X142840000Y-85310000D01*
X142800000Y-77243000D02*
X142800000Y-85317000D01*
X142760000Y-77238000D02*
X142760000Y-85322000D01*
X142720000Y-77232000D02*
X142720000Y-85328000D01*
X142680000Y-77228000D02*
X142680000Y-85332000D01*
X142640000Y-77223000D02*
X142640000Y-85337000D01*
X142600000Y-77219000D02*
X142600000Y-85341000D01*
X142560000Y-77215000D02*
X142560000Y-85345000D01*
X142520000Y-77212000D02*
X142520000Y-85348000D01*
X142480000Y-77209000D02*
X142480000Y-85351000D01*
X142440000Y-77206000D02*
X142440000Y-85354000D01*
X142400000Y-77204000D02*
X142400000Y-85356000D01*
X142360000Y-77203000D02*
X142360000Y-85357000D01*
X142320000Y-77201000D02*
X142320000Y-85359000D01*
X142280000Y-77200000D02*
X142280000Y-85360000D01*
X142240000Y-77200000D02*
X142240000Y-85360000D01*
X142200000Y-77200000D02*
X142200000Y-85360000D01*
X146320000Y-81280000D02*
G75*
G03X146320000Y-81280000I-4120000J0D01*
G01*
X144939698Y-97965000D02*
X144939698Y-97165000D01*
X145339698Y-97565000D02*
X144539698Y-97565000D01*
X136849000Y-95783000D02*
X136849000Y-94717000D01*
X136889000Y-96018000D02*
X136889000Y-94482000D01*
X136929000Y-96198000D02*
X136929000Y-94302000D01*
X136969000Y-96348000D02*
X136969000Y-94152000D01*
X137009000Y-96479000D02*
X137009000Y-94021000D01*
X137049000Y-96596000D02*
X137049000Y-93904000D01*
X137089000Y-96703000D02*
X137089000Y-93797000D01*
X137129000Y-96802000D02*
X137129000Y-93698000D01*
X137169000Y-96895000D02*
X137169000Y-93605000D01*
X137209000Y-96981000D02*
X137209000Y-93519000D01*
X137249000Y-97063000D02*
X137249000Y-93437000D01*
X137289000Y-97140000D02*
X137289000Y-93360000D01*
X137329000Y-97214000D02*
X137329000Y-93286000D01*
X137369000Y-97284000D02*
X137369000Y-93216000D01*
X137409000Y-94210000D02*
X137409000Y-93148000D01*
X137409000Y-97352000D02*
X137409000Y-96290000D01*
X137449000Y-94210000D02*
X137449000Y-93084000D01*
X137449000Y-97416000D02*
X137449000Y-96290000D01*
X137489000Y-94210000D02*
X137489000Y-93022000D01*
X137489000Y-97478000D02*
X137489000Y-96290000D01*
X137529000Y-94210000D02*
X137529000Y-92963000D01*
X137529000Y-97537000D02*
X137529000Y-96290000D01*
X137569000Y-94210000D02*
X137569000Y-92905000D01*
X137569000Y-97595000D02*
X137569000Y-96290000D01*
X137609000Y-94210000D02*
X137609000Y-92850000D01*
X137609000Y-97650000D02*
X137609000Y-96290000D01*
X137649000Y-94210000D02*
X137649000Y-92796000D01*
X137649000Y-97704000D02*
X137649000Y-96290000D01*
X137689000Y-94210000D02*
X137689000Y-92745000D01*
X137689000Y-97755000D02*
X137689000Y-96290000D01*
X137729000Y-94210000D02*
X137729000Y-92694000D01*
X137729000Y-97806000D02*
X137729000Y-96290000D01*
X137769000Y-94210000D02*
X137769000Y-92646000D01*
X137769000Y-97854000D02*
X137769000Y-96290000D01*
X137809000Y-94210000D02*
X137809000Y-92599000D01*
X137809000Y-97901000D02*
X137809000Y-96290000D01*
X137849000Y-94210000D02*
X137849000Y-92553000D01*
X137849000Y-97947000D02*
X137849000Y-96290000D01*
X137889000Y-94210000D02*
X137889000Y-92509000D01*
X137889000Y-97991000D02*
X137889000Y-96290000D01*
X137929000Y-94210000D02*
X137929000Y-92466000D01*
X137929000Y-98034000D02*
X137929000Y-96290000D01*
X137969000Y-94210000D02*
X137969000Y-92424000D01*
X137969000Y-98076000D02*
X137969000Y-96290000D01*
X138009000Y-94210000D02*
X138009000Y-92383000D01*
X138009000Y-98117000D02*
X138009000Y-96290000D01*
X138049000Y-94210000D02*
X138049000Y-92343000D01*
X138049000Y-98157000D02*
X138049000Y-96290000D01*
X138089000Y-94210000D02*
X138089000Y-92305000D01*
X138089000Y-98195000D02*
X138089000Y-96290000D01*
X138129000Y-94210000D02*
X138129000Y-92267000D01*
X138129000Y-98233000D02*
X138129000Y-96290000D01*
X138169000Y-94210000D02*
X138169000Y-92231000D01*
X138169000Y-98269000D02*
X138169000Y-96290000D01*
X138209000Y-94210000D02*
X138209000Y-92195000D01*
X138209000Y-98305000D02*
X138209000Y-96290000D01*
X138249000Y-94210000D02*
X138249000Y-92160000D01*
X138249000Y-98340000D02*
X138249000Y-96290000D01*
X138289000Y-94210000D02*
X138289000Y-92126000D01*
X138289000Y-98374000D02*
X138289000Y-96290000D01*
X138329000Y-94210000D02*
X138329000Y-92094000D01*
X138329000Y-98406000D02*
X138329000Y-96290000D01*
X138369000Y-94210000D02*
X138369000Y-92061000D01*
X138369000Y-98439000D02*
X138369000Y-96290000D01*
X138409000Y-94210000D02*
X138409000Y-92030000D01*
X138409000Y-98470000D02*
X138409000Y-96290000D01*
X138449000Y-94210000D02*
X138449000Y-92000000D01*
X138449000Y-98500000D02*
X138449000Y-96290000D01*
X138489000Y-94210000D02*
X138489000Y-91970000D01*
X138489000Y-98530000D02*
X138489000Y-96290000D01*
X138529000Y-94210000D02*
X138529000Y-91941000D01*
X138529000Y-98559000D02*
X138529000Y-96290000D01*
X138569000Y-94210000D02*
X138569000Y-91912000D01*
X138569000Y-98588000D02*
X138569000Y-96290000D01*
X138609000Y-94210000D02*
X138609000Y-91885000D01*
X138609000Y-98615000D02*
X138609000Y-96290000D01*
X138649000Y-94210000D02*
X138649000Y-91858000D01*
X138649000Y-98642000D02*
X138649000Y-96290000D01*
X138689000Y-94210000D02*
X138689000Y-91832000D01*
X138689000Y-98668000D02*
X138689000Y-96290000D01*
X138729000Y-94210000D02*
X138729000Y-91806000D01*
X138729000Y-98694000D02*
X138729000Y-96290000D01*
X138769000Y-94210000D02*
X138769000Y-91781000D01*
X138769000Y-98719000D02*
X138769000Y-96290000D01*
X138809000Y-94210000D02*
X138809000Y-91757000D01*
X138809000Y-98743000D02*
X138809000Y-96290000D01*
X138849000Y-94210000D02*
X138849000Y-91733000D01*
X138849000Y-98767000D02*
X138849000Y-96290000D01*
X138889000Y-94210000D02*
X138889000Y-91710000D01*
X138889000Y-98790000D02*
X138889000Y-96290000D01*
X138929000Y-94210000D02*
X138929000Y-91688000D01*
X138929000Y-98812000D02*
X138929000Y-96290000D01*
X138969000Y-94210000D02*
X138969000Y-91666000D01*
X138969000Y-98834000D02*
X138969000Y-96290000D01*
X139009000Y-94210000D02*
X139009000Y-91644000D01*
X139009000Y-98856000D02*
X139009000Y-96290000D01*
X139049000Y-94210000D02*
X139049000Y-91623000D01*
X139049000Y-98877000D02*
X139049000Y-96290000D01*
X139089000Y-94210000D02*
X139089000Y-91603000D01*
X139089000Y-98897000D02*
X139089000Y-96290000D01*
X139129000Y-94210000D02*
X139129000Y-91584000D01*
X139129000Y-98916000D02*
X139129000Y-96290000D01*
X139169000Y-94210000D02*
X139169000Y-91564000D01*
X139169000Y-98936000D02*
X139169000Y-96290000D01*
X139209000Y-94210000D02*
X139209000Y-91546000D01*
X139209000Y-98954000D02*
X139209000Y-96290000D01*
X139249000Y-94210000D02*
X139249000Y-91528000D01*
X139249000Y-98972000D02*
X139249000Y-96290000D01*
X139289000Y-94210000D02*
X139289000Y-91510000D01*
X139289000Y-98990000D02*
X139289000Y-96290000D01*
X139329000Y-94210000D02*
X139329000Y-91493000D01*
X139329000Y-99007000D02*
X139329000Y-96290000D01*
X139369000Y-94210000D02*
X139369000Y-91476000D01*
X139369000Y-99024000D02*
X139369000Y-96290000D01*
X139409000Y-94210000D02*
X139409000Y-91460000D01*
X139409000Y-99040000D02*
X139409000Y-96290000D01*
X139449000Y-94210000D02*
X139449000Y-91445000D01*
X139449000Y-99055000D02*
X139449000Y-96290000D01*
X139489000Y-99071000D02*
X139489000Y-91429000D01*
X139529000Y-99085000D02*
X139529000Y-91415000D01*
X139569000Y-99100000D02*
X139569000Y-91400000D01*
X139609000Y-99113000D02*
X139609000Y-91387000D01*
X139649000Y-99127000D02*
X139649000Y-91373000D01*
X139689000Y-99139000D02*
X139689000Y-91361000D01*
X139729000Y-99152000D02*
X139729000Y-91348000D01*
X139769000Y-99164000D02*
X139769000Y-91336000D01*
X139809000Y-99175000D02*
X139809000Y-91325000D01*
X139849000Y-99186000D02*
X139849000Y-91314000D01*
X139889000Y-99197000D02*
X139889000Y-91303000D01*
X139929000Y-99207000D02*
X139929000Y-91293000D01*
X139969000Y-99217000D02*
X139969000Y-91283000D01*
X140009000Y-99226000D02*
X140009000Y-91274000D01*
X140049000Y-99235000D02*
X140049000Y-91265000D01*
X140089000Y-99244000D02*
X140089000Y-91256000D01*
X140129000Y-99252000D02*
X140129000Y-91248000D01*
X140169000Y-99260000D02*
X140169000Y-91240000D01*
X140209000Y-99267000D02*
X140209000Y-91233000D01*
X140250000Y-99274000D02*
X140250000Y-91226000D01*
X140290000Y-99280000D02*
X140290000Y-91220000D01*
X140330000Y-99287000D02*
X140330000Y-91213000D01*
X140370000Y-99292000D02*
X140370000Y-91208000D01*
X140410000Y-99298000D02*
X140410000Y-91202000D01*
X140450000Y-99302000D02*
X140450000Y-91198000D01*
X140490000Y-99307000D02*
X140490000Y-91193000D01*
X140530000Y-99311000D02*
X140530000Y-91189000D01*
X140570000Y-99315000D02*
X140570000Y-91185000D01*
X140610000Y-99318000D02*
X140610000Y-91182000D01*
X140650000Y-99321000D02*
X140650000Y-91179000D01*
X140690000Y-99324000D02*
X140690000Y-91176000D01*
X140730000Y-99326000D02*
X140730000Y-91174000D01*
X140770000Y-99327000D02*
X140770000Y-91173000D01*
X140810000Y-99329000D02*
X140810000Y-91171000D01*
X140850000Y-99330000D02*
X140850000Y-91170000D01*
X140890000Y-99330000D02*
X140890000Y-91170000D01*
X140930000Y-99330000D02*
X140930000Y-91170000D01*
X145050000Y-95250000D02*
G75*
G03X145050000Y-95250000I-4120000J0D01*
G01*
X104230000Y-107960000D02*
X110180000Y-107960000D01*
X110180000Y-107960000D02*
X110180000Y-92860000D01*
X110180000Y-92860000D02*
X104230000Y-92860000D01*
X104230000Y-92860000D02*
X104230000Y-107960000D01*
X104230000Y-104660000D02*
X104980000Y-104660000D01*
X104980000Y-104660000D02*
X104980000Y-96160000D01*
X104980000Y-96160000D02*
X104230000Y-96160000D01*
X104230000Y-96160000D02*
X104230000Y-104660000D01*
X104230000Y-107960000D02*
X104980000Y-107960000D01*
X104980000Y-107960000D02*
X104980000Y-106160000D01*
X104980000Y-106160000D02*
X104230000Y-106160000D01*
X104230000Y-106160000D02*
X104230000Y-107960000D01*
X104230000Y-94660000D02*
X104980000Y-94660000D01*
X104980000Y-94660000D02*
X104980000Y-92860000D01*
X104980000Y-92860000D02*
X104230000Y-92860000D01*
X104230000Y-92860000D02*
X104230000Y-94660000D01*
X106480000Y-107960000D02*
X106480000Y-107210000D01*
X106480000Y-107210000D02*
X109430000Y-107210000D01*
X109430000Y-107210000D02*
X109430000Y-100410000D01*
X106480000Y-92860000D02*
X106480000Y-93610000D01*
X106480000Y-93610000D02*
X109430000Y-93610000D01*
X109430000Y-93610000D02*
X109430000Y-100410000D01*
X103930000Y-105760000D02*
X103930000Y-108260000D01*
X103930000Y-108260000D02*
X106430000Y-108260000D01*
X134630000Y-98970000D02*
X134630000Y-93020000D01*
X134630000Y-93020000D02*
X122030000Y-93020000D01*
X122030000Y-93020000D02*
X122030000Y-98970000D01*
X122030000Y-98970000D02*
X134630000Y-98970000D01*
X131330000Y-98970000D02*
X131330000Y-98220000D01*
X131330000Y-98220000D02*
X125330000Y-98220000D01*
X125330000Y-98220000D02*
X125330000Y-98970000D01*
X125330000Y-98970000D02*
X131330000Y-98970000D01*
X134630000Y-98970000D02*
X134630000Y-98220000D01*
X134630000Y-98220000D02*
X132830000Y-98220000D01*
X132830000Y-98220000D02*
X132830000Y-98970000D01*
X132830000Y-98970000D02*
X134630000Y-98970000D01*
X123830000Y-98970000D02*
X123830000Y-98220000D01*
X123830000Y-98220000D02*
X122030000Y-98220000D01*
X122030000Y-98220000D02*
X122030000Y-98970000D01*
X122030000Y-98970000D02*
X123830000Y-98970000D01*
X134630000Y-96720000D02*
X133880000Y-96720000D01*
X133880000Y-96720000D02*
X133880000Y-93770000D01*
X133880000Y-93770000D02*
X128330000Y-93770000D01*
X122030000Y-96720000D02*
X122780000Y-96720000D01*
X122780000Y-96720000D02*
X122780000Y-93770000D01*
X122780000Y-93770000D02*
X128330000Y-93770000D01*
X132430000Y-99270000D02*
X134930000Y-99270000D01*
X134930000Y-99270000D02*
X134930000Y-96770000D01*
X148580000Y-80100000D02*
X148580000Y-86050000D01*
X148580000Y-86050000D02*
X161180000Y-86050000D01*
X161180000Y-86050000D02*
X161180000Y-80100000D01*
X161180000Y-80100000D02*
X148580000Y-80100000D01*
X151880000Y-80100000D02*
X151880000Y-80850000D01*
X151880000Y-80850000D02*
X157880000Y-80850000D01*
X157880000Y-80850000D02*
X157880000Y-80100000D01*
X157880000Y-80100000D02*
X151880000Y-80100000D01*
X148580000Y-80100000D02*
X148580000Y-80850000D01*
X148580000Y-80850000D02*
X150380000Y-80850000D01*
X150380000Y-80850000D02*
X150380000Y-80100000D01*
X150380000Y-80100000D02*
X148580000Y-80100000D01*
X159380000Y-80100000D02*
X159380000Y-80850000D01*
X159380000Y-80850000D02*
X161180000Y-80850000D01*
X161180000Y-80850000D02*
X161180000Y-80100000D01*
X161180000Y-80100000D02*
X159380000Y-80100000D01*
X148580000Y-82350000D02*
X149330000Y-82350000D01*
X149330000Y-82350000D02*
X149330000Y-85300000D01*
X149330000Y-85300000D02*
X154880000Y-85300000D01*
X161180000Y-82350000D02*
X160430000Y-82350000D01*
X160430000Y-82350000D02*
X160430000Y-85300000D01*
X160430000Y-85300000D02*
X154880000Y-85300000D01*
X150780000Y-79800000D02*
X148280000Y-79800000D01*
X148280000Y-79800000D02*
X148280000Y-82300000D01*
X117447000Y-96111000D02*
X116273000Y-96111000D01*
X117447000Y-94389000D02*
X116273000Y-94389000D01*
X165763000Y-82959000D02*
X166937000Y-82959000D01*
X165763000Y-84681000D02*
X166937000Y-84681000D01*
X114170000Y-74930000D02*
X134750000Y-74930000D01*
X116840000Y-85090000D02*
X134750000Y-85090000D01*
X114170000Y-86360000D02*
X114170000Y-87760000D01*
X114170000Y-87760000D02*
X115570000Y-87760000D01*
X114170000Y-85090000D02*
X116840000Y-85090000D01*
X116840000Y-85090000D02*
X116840000Y-87760000D01*
X116840000Y-87760000D02*
X134750000Y-87760000D01*
X134750000Y-87760000D02*
X134750000Y-72260000D01*
X134750000Y-72260000D02*
X114170000Y-72260000D01*
X114170000Y-72260000D02*
X114170000Y-85090000D01*
X169040000Y-105410000D02*
X148460000Y-105410000D01*
X166370000Y-95250000D02*
X148460000Y-95250000D01*
X169040000Y-93980000D02*
X169040000Y-92580000D01*
X169040000Y-92580000D02*
X167640000Y-92580000D01*
X169040000Y-95250000D02*
X166370000Y-95250000D01*
X166370000Y-95250000D02*
X166370000Y-92580000D01*
X166370000Y-92580000D02*
X148460000Y-92580000D01*
X148460000Y-92580000D02*
X148460000Y-108080000D01*
X148460000Y-108080000D02*
X169040000Y-108080000D01*
X169040000Y-108080000D02*
X169040000Y-95250000D01*
D12*
X152400000Y-115570000D02*
X152400000Y-113030000D01*
X172720000Y-115570000D02*
X152400000Y-115570000D01*
X172720000Y-113030000D02*
X172720000Y-115570000D01*
X152400000Y-113030000D02*
X172720000Y-113030000D01*
X129540000Y-115570000D02*
X149860000Y-115570000D01*
X129540000Y-113030000D02*
X129540000Y-115570000D01*
X149860000Y-113030000D02*
X129540000Y-113030000D01*
X149860000Y-115570000D02*
X149860000Y-113030000D01*
X106680000Y-113030000D02*
X127000000Y-113030000D01*
X106680000Y-115570000D02*
X106680000Y-113030000D01*
X127000000Y-115570000D02*
X106680000Y-115570000D01*
X127000000Y-113030000D02*
X127000000Y-115570000D01*
X172720000Y-64770000D02*
X172720000Y-110490000D01*
X177800000Y-64770000D02*
X172720000Y-64770000D01*
X177800000Y-110490000D02*
X177800000Y-64770000D01*
X172720000Y-110490000D02*
X177800000Y-110490000D01*
X147320000Y-64770000D02*
X167640000Y-64770000D01*
X147320000Y-67310000D02*
X147320000Y-64770000D01*
X167640000Y-67310000D02*
X147320000Y-67310000D01*
X167640000Y-64770000D02*
X167640000Y-67310000D01*
X124460000Y-64770000D02*
X144780000Y-64770000D01*
X124460000Y-67310000D02*
X124460000Y-64770000D01*
X144780000Y-67310000D02*
X124460000Y-67310000D01*
X144780000Y-64770000D02*
X144780000Y-67310000D01*
D15*
X170180000Y-65405000D02*
X170180000Y-66675000D01*
X169545000Y-66040000D02*
X170815000Y-66040000D01*
X146050000Y-80645000D02*
X146050000Y-81915000D01*
X145415000Y-81280000D02*
X146685000Y-81280000D01*
X146050000Y-108585000D02*
X146050000Y-109855000D01*
X145415000Y-109220000D02*
X146685000Y-109220000D01*
X176530000Y-113665000D02*
X176530000Y-114935000D01*
X175895000Y-114300000D02*
X177165000Y-114300000D01*
X93980000Y-113665000D02*
X93980000Y-114935000D01*
X93345000Y-114300000D02*
X94615000Y-114300000D01*
X95250000Y-65405000D02*
X95250000Y-66675000D01*
X94615000Y-66040000D02*
X95885000Y-66040000D01*
D12*
X97536000Y-64770000D02*
X122936000Y-64770000D01*
X97536000Y-67310000D02*
X97536000Y-64770000D01*
X122936000Y-67310000D02*
X97536000Y-67310000D01*
X122936000Y-64770000D02*
X122936000Y-67310000D01*
D15*
X96774000Y-66040000D02*
G75*
G03X96774000Y-66040000I-1524000J0D01*
G01*
X147574000Y-81280000D02*
G75*
G03X147574000Y-81280000I-1524000J0D01*
G01*
X171704000Y-66040000D02*
G75*
G03X171704000Y-66040000I-1524000J0D01*
G01*
X178054000Y-114300000D02*
G75*
G03X178054000Y-114300000I-1524000J0D01*
G01*
X147574000Y-109220000D02*
G75*
G03X147574000Y-109220000I-1524000J0D01*
G01*
X95504000Y-114300000D02*
G75*
G03X95504000Y-114300000I-1524000J0D01*
G01*
D12*
X142033333Y-76387142D02*
X141985714Y-76434761D01*
X141842857Y-76482380D01*
X141747619Y-76482380D01*
X141604761Y-76434761D01*
X141509523Y-76339523D01*
X141461904Y-76244285D01*
X141414285Y-76053809D01*
X141414285Y-75910952D01*
X141461904Y-75720476D01*
X141509523Y-75625238D01*
X141604761Y-75530000D01*
X141747619Y-75482380D01*
X141842857Y-75482380D01*
X141985714Y-75530000D01*
X142033333Y-75577619D01*
X142890476Y-75815714D02*
X142890476Y-76482380D01*
X142652380Y-75434761D02*
X142414285Y-76149047D01*
X143033333Y-76149047D01*
X140763333Y-100857142D02*
X140715714Y-100904761D01*
X140572857Y-100952380D01*
X140477619Y-100952380D01*
X140334761Y-100904761D01*
X140239523Y-100809523D01*
X140191904Y-100714285D01*
X140144285Y-100523809D01*
X140144285Y-100380952D01*
X140191904Y-100190476D01*
X140239523Y-100095238D01*
X140334761Y-100000000D01*
X140477619Y-99952380D01*
X140572857Y-99952380D01*
X140715714Y-100000000D01*
X140763333Y-100047619D01*
X141144285Y-100047619D02*
X141191904Y-100000000D01*
X141287142Y-99952380D01*
X141525238Y-99952380D01*
X141620476Y-100000000D01*
X141668095Y-100047619D01*
X141715714Y-100142857D01*
X141715714Y-100238095D01*
X141668095Y-100380952D01*
X141096666Y-100952380D01*
X141715714Y-100952380D01*
X102632380Y-100743333D02*
X103346666Y-100743333D01*
X103489523Y-100790952D01*
X103584761Y-100886190D01*
X103632380Y-101029047D01*
X103632380Y-101124285D01*
X102632380Y-100362380D02*
X102632380Y-99743333D01*
X103013333Y-100076666D01*
X103013333Y-99933809D01*
X103060952Y-99838571D01*
X103108571Y-99790952D01*
X103203809Y-99743333D01*
X103441904Y-99743333D01*
X103537142Y-99790952D01*
X103584761Y-99838571D01*
X103632380Y-99933809D01*
X103632380Y-100219523D01*
X103584761Y-100314761D01*
X103537142Y-100362380D01*
X127996666Y-99472380D02*
X127996666Y-100186666D01*
X127949047Y-100329523D01*
X127853809Y-100424761D01*
X127710952Y-100472380D01*
X127615714Y-100472380D01*
X128425238Y-99567619D02*
X128472857Y-99520000D01*
X128568095Y-99472380D01*
X128806190Y-99472380D01*
X128901428Y-99520000D01*
X128949047Y-99567619D01*
X128996666Y-99662857D01*
X128996666Y-99758095D01*
X128949047Y-99900952D01*
X128377619Y-100472380D01*
X128996666Y-100472380D01*
X154546666Y-78502380D02*
X154546666Y-79216666D01*
X154499047Y-79359523D01*
X154403809Y-79454761D01*
X154260952Y-79502380D01*
X154165714Y-79502380D01*
X155546666Y-79502380D02*
X154975238Y-79502380D01*
X155260952Y-79502380D02*
X155260952Y-78502380D01*
X155165714Y-78645238D01*
X155070476Y-78740476D01*
X154975238Y-78788095D01*
X116693333Y-97717142D02*
X116645714Y-97764761D01*
X116502857Y-97812380D01*
X116407619Y-97812380D01*
X116264761Y-97764761D01*
X116169523Y-97669523D01*
X116121904Y-97574285D01*
X116074285Y-97383809D01*
X116074285Y-97240952D01*
X116121904Y-97050476D01*
X116169523Y-96955238D01*
X116264761Y-96860000D01*
X116407619Y-96812380D01*
X116502857Y-96812380D01*
X116645714Y-96860000D01*
X116693333Y-96907619D01*
X117026666Y-96812380D02*
X117645714Y-96812380D01*
X117312380Y-97193333D01*
X117455238Y-97193333D01*
X117550476Y-97240952D01*
X117598095Y-97288571D01*
X117645714Y-97383809D01*
X117645714Y-97621904D01*
X117598095Y-97717142D01*
X117550476Y-97764761D01*
X117455238Y-97812380D01*
X117169523Y-97812380D01*
X117074285Y-97764761D01*
X117026666Y-97717142D01*
X166183333Y-82067142D02*
X166135714Y-82114761D01*
X165992857Y-82162380D01*
X165897619Y-82162380D01*
X165754761Y-82114761D01*
X165659523Y-82019523D01*
X165611904Y-81924285D01*
X165564285Y-81733809D01*
X165564285Y-81590952D01*
X165611904Y-81400476D01*
X165659523Y-81305238D01*
X165754761Y-81210000D01*
X165897619Y-81162380D01*
X165992857Y-81162380D01*
X166135714Y-81210000D01*
X166183333Y-81257619D01*
X167135714Y-82162380D02*
X166564285Y-82162380D01*
X166850000Y-82162380D02*
X166850000Y-81162380D01*
X166754761Y-81305238D01*
X166659523Y-81400476D01*
X166564285Y-81448095D01*
X113196666Y-80724285D02*
X113196666Y-80248095D01*
X113482380Y-80819523D02*
X112482380Y-80486190D01*
X113482380Y-80152857D01*
X112577619Y-79867142D02*
X112530000Y-79819523D01*
X112482380Y-79724285D01*
X112482380Y-79486190D01*
X112530000Y-79390952D01*
X112577619Y-79343333D01*
X112672857Y-79295714D01*
X112768095Y-79295714D01*
X112910952Y-79343333D01*
X113482380Y-79914761D01*
X113482380Y-79295714D01*
X170346666Y-101044285D02*
X170346666Y-100568095D01*
X170632380Y-101139523D02*
X169632380Y-100806190D01*
X170632380Y-100472857D01*
X170632380Y-99615714D02*
X170632380Y-100187142D01*
X170632380Y-99901428D02*
X169632380Y-99901428D01*
X169775238Y-99996666D01*
X169870476Y-100091904D01*
X169918095Y-100187142D01*
M02*
