M48
; DRILL file {KiCad 5.1.5-52549c5~84~ubuntu16.04.1} date mer. 01 janv. 2020 01:32:38 CET
; FORMAT={-:-/ absolute / inch / decimal}
; #@! TF.CreationDate,2020-01-01T01:32:38+01:00
; #@! TF.GenerationSoftware,Kicad,Pcbnew,5.1.5-52549c5~84~ubuntu16.04.1
FMAT,2
INCH
T1C0.0300
T2C0.0315
T3C0.0374
T4C0.0866
%
G90
G05
T1
X3.89Y-2.6005
X3.99Y-2.6005
X4.09Y-2.6005
X4.19Y-2.6005
X4.25Y-4.5005
X4.29Y-2.6
X4.35Y-4.5005
X4.39Y-2.6
X4.45Y-4.5005
X4.49Y-2.6
X4.55Y-4.5005
X4.59Y-2.6
X4.65Y-4.5005
X4.69Y-2.6
X4.75Y-4.5005
X4.79Y-2.6
X4.85Y-4.5005
X4.95Y-2.6
X4.95Y-4.5005
X5.05Y-2.6
X5.15Y-2.6
X5.15Y-4.5005
X5.25Y-2.6
X5.25Y-4.5
X5.35Y-2.6
X5.35Y-4.5
X5.45Y-2.6
X5.45Y-4.5
X5.55Y-2.6
X5.55Y-4.5
X5.65Y-2.6005
X5.65Y-4.5
X5.75Y-4.5
X5.85Y-2.6
X5.85Y-4.5
X5.95Y-2.6
X6.05Y-2.6
X6.05Y-4.5
X6.15Y-2.6
X6.15Y-4.5
X6.25Y-2.6
X6.25Y-4.5
X6.35Y-2.6
X6.35Y-4.5
X6.45Y-2.6005
X6.45Y-4.5
X6.55Y-2.6005
X6.55Y-4.5
X6.65Y-4.5
X6.75Y-4.5
X6.85Y-2.6005
X6.85Y-2.7005
X6.85Y-2.8005
X6.85Y-2.9005
X6.85Y-3.0005
X6.85Y-3.1005
X6.85Y-3.2005
X6.85Y-3.3005
X6.85Y-3.4005
X6.85Y-3.5005
X6.85Y-3.6005
X6.85Y-3.7005
X6.85Y-3.8005
X6.85Y-3.9005
X6.85Y-4.0005
X6.85Y-4.1005
X6.85Y-4.2005
X6.85Y-4.3005
X6.95Y-2.6005
X6.95Y-2.7005
X6.95Y-2.8005
X6.95Y-2.9005
X6.95Y-3.0005
X6.95Y-3.1005
X6.95Y-3.2005
X6.95Y-3.3005
X6.95Y-3.4005
X6.95Y-3.5005
X6.95Y-3.6005
X6.95Y-3.7005
X6.95Y-3.8005
X6.95Y-3.9005
X6.95Y-4.0005
X6.95Y-4.1005
X6.95Y-4.2005
X6.95Y-4.3005
T2
X5.4531Y-3.1
X5.65Y-3.1
X5.45Y-3.6531
X5.45Y-3.85
X4.25Y-3.7
X4.25Y-4.2
X4.35Y-3.7
X4.35Y-4.2
X4.45Y-3.7
X4.45Y-4.2
X4.55Y-3.7
X4.55Y-4.2
X4.65Y-3.7
X4.65Y-4.2
X4.75Y-3.7
X4.75Y-4.2
X4.85Y-3.7
X4.85Y-4.2
X4.95Y-3.7
X4.95Y-4.2
X5.45Y-4.0531
X5.45Y-4.25
X5.4531Y-2.85
X5.65Y-2.85
X4.25Y-2.9
X4.25Y-3.4
X4.35Y-2.9
X4.35Y-3.4
X4.45Y-2.9
X4.45Y-3.4
X4.55Y-2.9
X4.55Y-3.4
X4.65Y-2.9
X4.65Y-3.4
X4.75Y-2.9
X4.75Y-3.4
X4.85Y-2.9
X4.85Y-3.4
X4.95Y-2.9
X4.95Y-3.4
T3
X6.65Y-2.8047
X6.65Y-2.9031
X6.65Y-3.0016
X6.65Y-3.1
X6.65Y-3.3547
X6.65Y-3.4531
X6.65Y-3.5516
X6.65Y-3.65
X6.65Y-3.9063
X6.65Y-4.0047
X6.65Y-4.1031
X6.65Y-4.2016
X6.65Y-4.3
T4
X3.75Y-2.6
X3.7Y-4.5
X6.95Y-4.5
X6.7Y-2.6
T0
M30
