G04 #@! TF.GenerationSoftware,KiCad,Pcbnew,5.1.5-52549c5~84~ubuntu16.04.1*
G04 #@! TF.CreationDate,2020-01-01T01:32:41+01:00*
G04 #@! TF.ProjectId,schema-3.0,73636865-6d61-42d3-932e-302e6b696361,rev?*
G04 #@! TF.SameCoordinates,Original*
G04 #@! TF.FileFunction,Copper,L2,Bot*
G04 #@! TF.FilePolarity,Positive*
%FSLAX46Y46*%
G04 Gerber Fmt 4.6, Leading zero omitted, Abs format (unit mm)*
G04 Created by KiCad (PCBNEW 5.1.5-52549c5~84~ubuntu16.04.1) date 2020-01-01 01:32:41*
%MOMM*%
%LPD*%
G04 APERTURE LIST*
%ADD10O,1.950000X1.700000*%
%ADD11C,0.100000*%
%ADD12C,1.600000*%
%ADD13R,1.600000X1.600000*%
%ADD14C,4.400000*%
%ADD15O,1.600000X1.600000*%
%ADD16O,1.574800X2.286000*%
%ADD17C,1.524000*%
%ADD18C,0.250000*%
%ADD19C,1.000000*%
%ADD20C,0.254000*%
G04 APERTURE END LIST*
D10*
X168910000Y-99220000D03*
X168910000Y-101720000D03*
X168910000Y-104220000D03*
X168910000Y-106720000D03*
G04 #@! TA.AperFunction,ComponentPad*
D11*
G36*
X169659504Y-108371204D02*
G01*
X169683773Y-108374804D01*
X169707571Y-108380765D01*
X169730671Y-108389030D01*
X169752849Y-108399520D01*
X169773893Y-108412133D01*
X169793598Y-108426747D01*
X169811777Y-108443223D01*
X169828253Y-108461402D01*
X169842867Y-108481107D01*
X169855480Y-108502151D01*
X169865970Y-108524329D01*
X169874235Y-108547429D01*
X169880196Y-108571227D01*
X169883796Y-108595496D01*
X169885000Y-108620000D01*
X169885000Y-109820000D01*
X169883796Y-109844504D01*
X169880196Y-109868773D01*
X169874235Y-109892571D01*
X169865970Y-109915671D01*
X169855480Y-109937849D01*
X169842867Y-109958893D01*
X169828253Y-109978598D01*
X169811777Y-109996777D01*
X169793598Y-110013253D01*
X169773893Y-110027867D01*
X169752849Y-110040480D01*
X169730671Y-110050970D01*
X169707571Y-110059235D01*
X169683773Y-110065196D01*
X169659504Y-110068796D01*
X169635000Y-110070000D01*
X168185000Y-110070000D01*
X168160496Y-110068796D01*
X168136227Y-110065196D01*
X168112429Y-110059235D01*
X168089329Y-110050970D01*
X168067151Y-110040480D01*
X168046107Y-110027867D01*
X168026402Y-110013253D01*
X168008223Y-109996777D01*
X167991747Y-109978598D01*
X167977133Y-109958893D01*
X167964520Y-109937849D01*
X167954030Y-109915671D01*
X167945765Y-109892571D01*
X167939804Y-109868773D01*
X167936204Y-109844504D01*
X167935000Y-109820000D01*
X167935000Y-108620000D01*
X167936204Y-108595496D01*
X167939804Y-108571227D01*
X167945765Y-108547429D01*
X167954030Y-108524329D01*
X167964520Y-108502151D01*
X167977133Y-108481107D01*
X167991747Y-108461402D01*
X168008223Y-108443223D01*
X168026402Y-108426747D01*
X168046107Y-108412133D01*
X168067151Y-108399520D01*
X168089329Y-108389030D01*
X168112429Y-108380765D01*
X168136227Y-108374804D01*
X168160496Y-108371204D01*
X168185000Y-108370000D01*
X169635000Y-108370000D01*
X169659504Y-108371204D01*
G37*
G04 #@! TD.AperFunction*
D10*
X168910000Y-71240000D03*
X168910000Y-73740000D03*
X168910000Y-76240000D03*
G04 #@! TA.AperFunction,ComponentPad*
D11*
G36*
X169659504Y-77891204D02*
G01*
X169683773Y-77894804D01*
X169707571Y-77900765D01*
X169730671Y-77909030D01*
X169752849Y-77919520D01*
X169773893Y-77932133D01*
X169793598Y-77946747D01*
X169811777Y-77963223D01*
X169828253Y-77981402D01*
X169842867Y-78001107D01*
X169855480Y-78022151D01*
X169865970Y-78044329D01*
X169874235Y-78067429D01*
X169880196Y-78091227D01*
X169883796Y-78115496D01*
X169885000Y-78140000D01*
X169885000Y-79340000D01*
X169883796Y-79364504D01*
X169880196Y-79388773D01*
X169874235Y-79412571D01*
X169865970Y-79435671D01*
X169855480Y-79457849D01*
X169842867Y-79478893D01*
X169828253Y-79498598D01*
X169811777Y-79516777D01*
X169793598Y-79533253D01*
X169773893Y-79547867D01*
X169752849Y-79560480D01*
X169730671Y-79570970D01*
X169707571Y-79579235D01*
X169683773Y-79585196D01*
X169659504Y-79588796D01*
X169635000Y-79590000D01*
X168185000Y-79590000D01*
X168160496Y-79588796D01*
X168136227Y-79585196D01*
X168112429Y-79579235D01*
X168089329Y-79570970D01*
X168067151Y-79560480D01*
X168046107Y-79547867D01*
X168026402Y-79533253D01*
X168008223Y-79516777D01*
X167991747Y-79498598D01*
X167977133Y-79478893D01*
X167964520Y-79457849D01*
X167954030Y-79435671D01*
X167945765Y-79412571D01*
X167939804Y-79388773D01*
X167936204Y-79364504D01*
X167935000Y-79340000D01*
X167935000Y-78140000D01*
X167936204Y-78115496D01*
X167939804Y-78091227D01*
X167945765Y-78067429D01*
X167954030Y-78044329D01*
X167964520Y-78022151D01*
X167977133Y-78001107D01*
X167991747Y-77981402D01*
X168008223Y-77963223D01*
X168026402Y-77946747D01*
X168046107Y-77932133D01*
X168067151Y-77919520D01*
X168089329Y-77909030D01*
X168112429Y-77900765D01*
X168136227Y-77894804D01*
X168160496Y-77891204D01*
X168185000Y-77890000D01*
X169635000Y-77890000D01*
X169659504Y-77891204D01*
G37*
G04 #@! TD.AperFunction*
D10*
X168910000Y-85210000D03*
X168910000Y-87710000D03*
X168910000Y-90210000D03*
G04 #@! TA.AperFunction,ComponentPad*
D11*
G36*
X169659504Y-91861204D02*
G01*
X169683773Y-91864804D01*
X169707571Y-91870765D01*
X169730671Y-91879030D01*
X169752849Y-91889520D01*
X169773893Y-91902133D01*
X169793598Y-91916747D01*
X169811777Y-91933223D01*
X169828253Y-91951402D01*
X169842867Y-91971107D01*
X169855480Y-91992151D01*
X169865970Y-92014329D01*
X169874235Y-92037429D01*
X169880196Y-92061227D01*
X169883796Y-92085496D01*
X169885000Y-92110000D01*
X169885000Y-93310000D01*
X169883796Y-93334504D01*
X169880196Y-93358773D01*
X169874235Y-93382571D01*
X169865970Y-93405671D01*
X169855480Y-93427849D01*
X169842867Y-93448893D01*
X169828253Y-93468598D01*
X169811777Y-93486777D01*
X169793598Y-93503253D01*
X169773893Y-93517867D01*
X169752849Y-93530480D01*
X169730671Y-93540970D01*
X169707571Y-93549235D01*
X169683773Y-93555196D01*
X169659504Y-93558796D01*
X169635000Y-93560000D01*
X168185000Y-93560000D01*
X168160496Y-93558796D01*
X168136227Y-93555196D01*
X168112429Y-93549235D01*
X168089329Y-93540970D01*
X168067151Y-93530480D01*
X168046107Y-93517867D01*
X168026402Y-93503253D01*
X168008223Y-93486777D01*
X167991747Y-93468598D01*
X167977133Y-93448893D01*
X167964520Y-93427849D01*
X167954030Y-93405671D01*
X167945765Y-93382571D01*
X167939804Y-93358773D01*
X167936204Y-93334504D01*
X167935000Y-93310000D01*
X167935000Y-92110000D01*
X167936204Y-92085496D01*
X167939804Y-92061227D01*
X167945765Y-92037429D01*
X167954030Y-92014329D01*
X167964520Y-91992151D01*
X167977133Y-91971107D01*
X167991747Y-91951402D01*
X168008223Y-91933223D01*
X168026402Y-91916747D01*
X168046107Y-91902133D01*
X168067151Y-91889520D01*
X168089329Y-91879030D01*
X168112429Y-91870765D01*
X168136227Y-91864804D01*
X168160496Y-91861204D01*
X168185000Y-91860000D01*
X169635000Y-91860000D01*
X169659504Y-91861204D01*
G37*
G04 #@! TD.AperFunction*
D12*
X138510000Y-78740000D03*
X143510000Y-78740000D03*
X138510000Y-72390000D03*
X143510000Y-72390000D03*
X138430000Y-92790000D03*
D13*
X138430000Y-97790000D03*
D12*
X138430000Y-102950000D03*
D13*
X138430000Y-107950000D03*
D14*
X176530000Y-114300000D03*
X170180000Y-66040000D03*
X93980000Y-114300000D03*
X95250000Y-66040000D03*
D13*
X107950000Y-86360000D03*
D15*
X125730000Y-73660000D03*
X110490000Y-86360000D03*
X123190000Y-73660000D03*
X113030000Y-86360000D03*
X120650000Y-73660000D03*
X115570000Y-86360000D03*
X118110000Y-73660000D03*
X118110000Y-86360000D03*
X115570000Y-73660000D03*
X120650000Y-86360000D03*
X113030000Y-73660000D03*
X123190000Y-86360000D03*
X110490000Y-73660000D03*
X125730000Y-86360000D03*
X107950000Y-73660000D03*
D13*
X125730000Y-93980000D03*
D15*
X107950000Y-106680000D03*
X123190000Y-93980000D03*
X110490000Y-106680000D03*
X120650000Y-93980000D03*
X113030000Y-106680000D03*
X118110000Y-93980000D03*
X115570000Y-106680000D03*
X115570000Y-93980000D03*
X118110000Y-106680000D03*
X113030000Y-93980000D03*
X120650000Y-106680000D03*
X110490000Y-93980000D03*
X123190000Y-106680000D03*
X107950000Y-93980000D03*
X125730000Y-106680000D03*
D16*
X161290000Y-66040000D03*
X158750000Y-66040000D03*
X156210000Y-66040000D03*
X153670000Y-66040000D03*
X151130000Y-66040000D03*
X148590000Y-66040000D03*
X108966000Y-66040000D03*
X111506000Y-66040000D03*
X114046000Y-66040000D03*
X116586000Y-66040000D03*
X119126000Y-66040000D03*
X121666000Y-66040000D03*
X125730000Y-66040000D03*
X128270000Y-66040000D03*
X130810000Y-66040000D03*
X133350000Y-66040000D03*
X135890000Y-66040000D03*
X138430000Y-66040000D03*
X140970000Y-66040000D03*
X171450000Y-114300000D03*
X168910000Y-114300000D03*
X166370000Y-114300000D03*
X163830000Y-114300000D03*
X161290000Y-114300000D03*
X158750000Y-114300000D03*
X156210000Y-114300000D03*
X153670000Y-114300000D03*
X148590000Y-114300000D03*
X146050000Y-114300000D03*
X143510000Y-114300000D03*
X140970000Y-114300000D03*
X138430000Y-114300000D03*
X135890000Y-114300000D03*
X133350000Y-114300000D03*
X98806000Y-66052700D03*
X101346000Y-66052700D03*
X103886000Y-66052700D03*
X106426000Y-66052700D03*
X143510000Y-66052700D03*
X163830000Y-66052700D03*
X166370000Y-66052700D03*
D17*
X176530000Y-66052700D03*
X173990000Y-66052700D03*
X176530000Y-101612700D03*
X173990000Y-101612700D03*
X176530000Y-99072700D03*
X173990000Y-99072700D03*
X176530000Y-96532700D03*
X173990000Y-96532700D03*
X176530000Y-93992700D03*
X173990000Y-93992700D03*
X176530000Y-91452700D03*
X173990000Y-91452700D03*
X176530000Y-88912700D03*
X173990000Y-88912700D03*
X176530000Y-86372700D03*
X173990000Y-86372700D03*
X176530000Y-83832700D03*
X173990000Y-83832700D03*
X176530000Y-81292700D03*
X173990000Y-81292700D03*
X176530000Y-78752700D03*
X173990000Y-78752700D03*
X176530000Y-76212700D03*
X173990000Y-76212700D03*
X176530000Y-73672700D03*
X173990000Y-73672700D03*
X176530000Y-71132700D03*
X173990000Y-71132700D03*
X176530000Y-68592700D03*
X173990000Y-68592700D03*
X176530000Y-106692700D03*
X173990000Y-106692700D03*
X176530000Y-104152700D03*
X173990000Y-104152700D03*
X176530000Y-109232700D03*
X173990000Y-109232700D03*
D16*
X130810000Y-114312700D03*
X125730000Y-114312700D03*
X123190000Y-114312700D03*
X120650000Y-114312700D03*
X118110000Y-114312700D03*
X115570000Y-114312700D03*
X113030000Y-114312700D03*
X110490000Y-114312700D03*
X107950000Y-114312700D03*
D18*
X107950000Y-73660000D02*
X107950000Y-72534700D01*
X108966000Y-66040000D02*
X108966000Y-71518700D01*
X108966000Y-71518700D02*
X107950000Y-72534700D01*
X110490000Y-73660000D02*
X110490000Y-72534700D01*
X111506000Y-66040000D02*
X111506000Y-71518700D01*
X111506000Y-71518700D02*
X110490000Y-72534700D01*
X115570000Y-73660000D02*
X115570000Y-72534700D01*
X114046000Y-66040000D02*
X114046000Y-71010700D01*
X114046000Y-71010700D02*
X115570000Y-72534700D01*
X118110000Y-73660000D02*
X118110000Y-72534700D01*
X116586000Y-66040000D02*
X116586000Y-71010700D01*
X116586000Y-71010700D02*
X118110000Y-72534700D01*
X120650000Y-73660000D02*
X120650000Y-72534700D01*
X119126000Y-66040000D02*
X119126000Y-71010700D01*
X119126000Y-71010700D02*
X120650000Y-72534700D01*
X123190000Y-73660000D02*
X123190000Y-72534700D01*
X121666000Y-66040000D02*
X122778700Y-66040000D01*
X122778700Y-66040000D02*
X122778700Y-72123400D01*
X122778700Y-72123400D02*
X123190000Y-72534700D01*
X125730000Y-66040000D02*
X125730000Y-73660000D01*
D19*
X143510000Y-78740000D02*
X143510000Y-72390000D01*
X144483100Y-82293000D02*
X143510000Y-81320000D01*
X143510000Y-81320000D02*
X143510000Y-78740000D01*
X144483100Y-82293000D02*
X168910000Y-106720000D01*
X127242900Y-99533200D02*
X144483100Y-82293000D01*
X118110000Y-114312700D02*
X123426100Y-108996600D01*
X123426100Y-108996600D02*
X125592000Y-108996600D01*
X125592000Y-108996600D02*
X127242900Y-107345700D01*
X127242900Y-107345700D02*
X127242900Y-99533200D01*
X127242900Y-99533200D02*
X123190000Y-95480300D01*
X123190000Y-93980000D02*
X123190000Y-95480300D01*
X123190000Y-93980000D02*
X118340400Y-89130400D01*
X118340400Y-89130400D02*
X113260400Y-89130400D01*
X113260400Y-89130400D02*
X110490000Y-86360000D01*
X125730000Y-114312700D02*
X127217700Y-114312700D01*
X136929700Y-104949400D02*
X136929700Y-100790600D01*
X136929700Y-100790600D02*
X138430000Y-99290300D01*
X138430000Y-106449700D02*
X136929700Y-104949400D01*
X127217700Y-114312700D02*
X136581000Y-104949400D01*
X136581000Y-104949400D02*
X136929700Y-104949400D01*
X138430000Y-97790000D02*
X138430000Y-99290300D01*
X138430000Y-107950000D02*
X138430000Y-106449700D01*
D18*
X168910000Y-104220000D02*
X168910000Y-105395300D01*
X130810000Y-114312700D02*
X131922700Y-114312700D01*
X131922700Y-114312700D02*
X131922700Y-113756300D01*
X131922700Y-113756300D02*
X136593400Y-109085600D01*
X136593400Y-109085600D02*
X166870000Y-109085600D01*
X166870000Y-109085600D02*
X167986100Y-107969500D01*
X167986100Y-107969500D02*
X169459900Y-107969500D01*
X169459900Y-107969500D02*
X170234600Y-107194800D01*
X170234600Y-107194800D02*
X170234600Y-106205700D01*
X170234600Y-106205700D02*
X169424200Y-105395300D01*
X169424200Y-105395300D02*
X168910000Y-105395300D01*
X168910000Y-101720000D02*
X168910000Y-102895300D01*
X133350000Y-114300000D02*
X134462700Y-114300000D01*
X134462700Y-114300000D02*
X134462700Y-113743600D01*
X134462700Y-113743600D02*
X137605000Y-110601300D01*
X137605000Y-110601300D02*
X169691300Y-110601300D01*
X169691300Y-110601300D02*
X170724600Y-109568000D01*
X170724600Y-109568000D02*
X170724600Y-104195700D01*
X170724600Y-104195700D02*
X169424200Y-102895300D01*
X169424200Y-102895300D02*
X168910000Y-102895300D01*
X138430000Y-66040000D02*
X139542700Y-66040000D01*
X139542700Y-66040000D02*
X139542700Y-66795800D01*
X139542700Y-66795800D02*
X168910000Y-96163100D01*
X168910000Y-96163100D02*
X168910000Y-99220000D01*
D20*
G36*
X179680001Y-74897581D02*
G01*
X179676808Y-74930000D01*
X179680001Y-74962419D01*
X179687628Y-75039853D01*
X179689551Y-75059382D01*
X179727290Y-75183792D01*
X179788575Y-75298450D01*
X179850386Y-75373766D01*
X179850389Y-75373769D01*
X179871053Y-75398948D01*
X179896232Y-75419612D01*
X182220000Y-77743381D01*
X182220001Y-81247581D01*
X182220000Y-114026619D01*
X179896232Y-116350388D01*
X179871053Y-116371052D01*
X179850389Y-116396231D01*
X179850386Y-116396234D01*
X179788575Y-116471550D01*
X179727290Y-116586208D01*
X179689551Y-116710618D01*
X179676808Y-116840000D01*
X179680001Y-116872419D01*
X179680001Y-117450000D01*
X92100000Y-117450000D01*
X92100000Y-116429295D01*
X92172793Y-116502088D01*
X92637124Y-116812344D01*
X93153061Y-117026052D01*
X93700777Y-117135000D01*
X94259223Y-117135000D01*
X94806939Y-117026052D01*
X95322876Y-116812344D01*
X95787207Y-116502088D01*
X96182088Y-116107207D01*
X96492344Y-115642876D01*
X96706052Y-115126939D01*
X96815000Y-114579223D01*
X96815000Y-114020777D01*
X96706052Y-113473061D01*
X96492344Y-112957124D01*
X96182088Y-112492793D01*
X95787207Y-112097912D01*
X95322876Y-111787656D01*
X94806939Y-111573948D01*
X94259223Y-111465000D01*
X93700777Y-111465000D01*
X93153061Y-111573948D01*
X92637124Y-111787656D01*
X92172793Y-112097912D01*
X92100000Y-112170705D01*
X92100000Y-93838665D01*
X106515000Y-93838665D01*
X106515000Y-94121335D01*
X106570147Y-94398574D01*
X106678320Y-94659727D01*
X106835363Y-94894759D01*
X107035241Y-95094637D01*
X107270273Y-95251680D01*
X107531426Y-95359853D01*
X107808665Y-95415000D01*
X108091335Y-95415000D01*
X108368574Y-95359853D01*
X108629727Y-95251680D01*
X108864759Y-95094637D01*
X109064637Y-94894759D01*
X109221680Y-94659727D01*
X109226067Y-94649135D01*
X109337615Y-94835131D01*
X109526586Y-95043519D01*
X109752580Y-95211037D01*
X110006913Y-95331246D01*
X110140961Y-95371904D01*
X110363000Y-95249915D01*
X110363000Y-94107000D01*
X110343000Y-94107000D01*
X110343000Y-93853000D01*
X110363000Y-93853000D01*
X110363000Y-92710085D01*
X110140961Y-92588096D01*
X110006913Y-92628754D01*
X109752580Y-92748963D01*
X109526586Y-92916481D01*
X109337615Y-93124869D01*
X109226067Y-93310865D01*
X109221680Y-93300273D01*
X109064637Y-93065241D01*
X108864759Y-92865363D01*
X108629727Y-92708320D01*
X108368574Y-92600147D01*
X108091335Y-92545000D01*
X107808665Y-92545000D01*
X107531426Y-92600147D01*
X107270273Y-92708320D01*
X107035241Y-92865363D01*
X106835363Y-93065241D01*
X106678320Y-93300273D01*
X106570147Y-93561426D01*
X106515000Y-93838665D01*
X92100000Y-93838665D01*
X92100000Y-87160000D01*
X106511928Y-87160000D01*
X106524188Y-87284482D01*
X106560498Y-87404180D01*
X106619463Y-87514494D01*
X106698815Y-87611185D01*
X106795506Y-87690537D01*
X106905820Y-87749502D01*
X107025518Y-87785812D01*
X107150000Y-87798072D01*
X107664250Y-87795000D01*
X107823000Y-87636250D01*
X107823000Y-86487000D01*
X106673750Y-86487000D01*
X106515000Y-86645750D01*
X106511928Y-87160000D01*
X92100000Y-87160000D01*
X92100000Y-85560000D01*
X106511928Y-85560000D01*
X106515000Y-86074250D01*
X106673750Y-86233000D01*
X107823000Y-86233000D01*
X107823000Y-85083750D01*
X107664250Y-84925000D01*
X107150000Y-84921928D01*
X107025518Y-84934188D01*
X106905820Y-84970498D01*
X106795506Y-85029463D01*
X106698815Y-85108815D01*
X106619463Y-85205506D01*
X106560498Y-85315820D01*
X106524188Y-85435518D01*
X106511928Y-85560000D01*
X92100000Y-85560000D01*
X92100000Y-79732702D01*
X137696903Y-79732702D01*
X137768486Y-79976671D01*
X138023996Y-80097571D01*
X138298184Y-80166300D01*
X138580512Y-80180217D01*
X138860130Y-80138787D01*
X139126292Y-80043603D01*
X139251514Y-79976671D01*
X139323097Y-79732702D01*
X138510000Y-78919605D01*
X137696903Y-79732702D01*
X92100000Y-79732702D01*
X92100000Y-78810512D01*
X137069783Y-78810512D01*
X137111213Y-79090130D01*
X137206397Y-79356292D01*
X137273329Y-79481514D01*
X137517298Y-79553097D01*
X138330395Y-78740000D01*
X138689605Y-78740000D01*
X139502702Y-79553097D01*
X139746671Y-79481514D01*
X139867571Y-79226004D01*
X139936300Y-78951816D01*
X139950217Y-78669488D01*
X139908787Y-78389870D01*
X139813603Y-78123708D01*
X139746671Y-77998486D01*
X139502702Y-77926903D01*
X138689605Y-78740000D01*
X138330395Y-78740000D01*
X137517298Y-77926903D01*
X137273329Y-77998486D01*
X137152429Y-78253996D01*
X137083700Y-78528184D01*
X137069783Y-78810512D01*
X92100000Y-78810512D01*
X92100000Y-77747298D01*
X137696903Y-77747298D01*
X138510000Y-78560395D01*
X139323097Y-77747298D01*
X139251514Y-77503329D01*
X138996004Y-77382429D01*
X138721816Y-77313700D01*
X138439488Y-77299783D01*
X138159870Y-77341213D01*
X137893708Y-77436397D01*
X137768486Y-77503329D01*
X137696903Y-77747298D01*
X92100000Y-77747298D01*
X92100000Y-73518665D01*
X106515000Y-73518665D01*
X106515000Y-73801335D01*
X106570147Y-74078574D01*
X106678320Y-74339727D01*
X106835363Y-74574759D01*
X107035241Y-74774637D01*
X107270273Y-74931680D01*
X107531426Y-75039853D01*
X107808665Y-75095000D01*
X108091335Y-75095000D01*
X108368574Y-75039853D01*
X108629727Y-74931680D01*
X108864759Y-74774637D01*
X109064637Y-74574759D01*
X109220000Y-74342241D01*
X109375363Y-74574759D01*
X109575241Y-74774637D01*
X109810273Y-74931680D01*
X110071426Y-75039853D01*
X110348665Y-75095000D01*
X110631335Y-75095000D01*
X110908574Y-75039853D01*
X111169727Y-74931680D01*
X111404759Y-74774637D01*
X111604637Y-74574759D01*
X111760000Y-74342241D01*
X111915363Y-74574759D01*
X112115241Y-74774637D01*
X112350273Y-74931680D01*
X112611426Y-75039853D01*
X112888665Y-75095000D01*
X113171335Y-75095000D01*
X113448574Y-75039853D01*
X113709727Y-74931680D01*
X113944759Y-74774637D01*
X114144637Y-74574759D01*
X114300000Y-74342241D01*
X114455363Y-74574759D01*
X114655241Y-74774637D01*
X114890273Y-74931680D01*
X115151426Y-75039853D01*
X115428665Y-75095000D01*
X115711335Y-75095000D01*
X115988574Y-75039853D01*
X116249727Y-74931680D01*
X116484759Y-74774637D01*
X116684637Y-74574759D01*
X116840000Y-74342241D01*
X116995363Y-74574759D01*
X117195241Y-74774637D01*
X117430273Y-74931680D01*
X117691426Y-75039853D01*
X117968665Y-75095000D01*
X118251335Y-75095000D01*
X118528574Y-75039853D01*
X118789727Y-74931680D01*
X119024759Y-74774637D01*
X119224637Y-74574759D01*
X119380000Y-74342241D01*
X119535363Y-74574759D01*
X119735241Y-74774637D01*
X119970273Y-74931680D01*
X120231426Y-75039853D01*
X120508665Y-75095000D01*
X120791335Y-75095000D01*
X121068574Y-75039853D01*
X121329727Y-74931680D01*
X121564759Y-74774637D01*
X121764637Y-74574759D01*
X121920000Y-74342241D01*
X122075363Y-74574759D01*
X122275241Y-74774637D01*
X122510273Y-74931680D01*
X122771426Y-75039853D01*
X123048665Y-75095000D01*
X123331335Y-75095000D01*
X123608574Y-75039853D01*
X123869727Y-74931680D01*
X124104759Y-74774637D01*
X124304637Y-74574759D01*
X124460000Y-74342241D01*
X124615363Y-74574759D01*
X124815241Y-74774637D01*
X125050273Y-74931680D01*
X125311426Y-75039853D01*
X125588665Y-75095000D01*
X125871335Y-75095000D01*
X126148574Y-75039853D01*
X126409727Y-74931680D01*
X126644759Y-74774637D01*
X126844637Y-74574759D01*
X127001680Y-74339727D01*
X127109853Y-74078574D01*
X127165000Y-73801335D01*
X127165000Y-73518665D01*
X127137955Y-73382702D01*
X137696903Y-73382702D01*
X137768486Y-73626671D01*
X138023996Y-73747571D01*
X138298184Y-73816300D01*
X138580512Y-73830217D01*
X138860130Y-73788787D01*
X139126292Y-73693603D01*
X139251514Y-73626671D01*
X139323097Y-73382702D01*
X138510000Y-72569605D01*
X137696903Y-73382702D01*
X127137955Y-73382702D01*
X127109853Y-73241426D01*
X127001680Y-72980273D01*
X126844637Y-72745241D01*
X126644759Y-72545363D01*
X126517770Y-72460512D01*
X137069783Y-72460512D01*
X137111213Y-72740130D01*
X137206397Y-73006292D01*
X137273329Y-73131514D01*
X137517298Y-73203097D01*
X138330395Y-72390000D01*
X138689605Y-72390000D01*
X139502702Y-73203097D01*
X139746671Y-73131514D01*
X139867571Y-72876004D01*
X139936300Y-72601816D01*
X139950217Y-72319488D01*
X139908787Y-72039870D01*
X139813603Y-71773708D01*
X139746671Y-71648486D01*
X139502702Y-71576903D01*
X138689605Y-72390000D01*
X138330395Y-72390000D01*
X137517298Y-71576903D01*
X137273329Y-71648486D01*
X137152429Y-71903996D01*
X137083700Y-72178184D01*
X137069783Y-72460512D01*
X126517770Y-72460512D01*
X126490000Y-72441957D01*
X126490000Y-71397298D01*
X137696903Y-71397298D01*
X138510000Y-72210395D01*
X139323097Y-71397298D01*
X139251514Y-71153329D01*
X138996004Y-71032429D01*
X138721816Y-70963700D01*
X138439488Y-70949783D01*
X138159870Y-70991213D01*
X137893708Y-71086397D01*
X137768486Y-71153329D01*
X137696903Y-71397298D01*
X126490000Y-71397298D01*
X126490000Y-67602214D01*
X126524067Y-67584005D01*
X126740655Y-67406255D01*
X126918405Y-67189667D01*
X127000000Y-67037013D01*
X127081595Y-67189667D01*
X127259346Y-67406255D01*
X127475934Y-67584005D01*
X127723038Y-67716084D01*
X127991162Y-67797419D01*
X128270000Y-67824882D01*
X128548839Y-67797419D01*
X128816963Y-67716084D01*
X129064067Y-67584005D01*
X129280655Y-67406255D01*
X129458405Y-67189667D01*
X129540000Y-67037013D01*
X129621595Y-67189667D01*
X129799346Y-67406255D01*
X130015934Y-67584005D01*
X130263038Y-67716084D01*
X130531162Y-67797419D01*
X130810000Y-67824882D01*
X131088839Y-67797419D01*
X131356963Y-67716084D01*
X131604067Y-67584005D01*
X131820655Y-67406255D01*
X131998405Y-67189667D01*
X132080000Y-67037013D01*
X132161595Y-67189667D01*
X132339346Y-67406255D01*
X132555934Y-67584005D01*
X132803038Y-67716084D01*
X133071162Y-67797419D01*
X133350000Y-67824882D01*
X133628839Y-67797419D01*
X133896963Y-67716084D01*
X134144067Y-67584005D01*
X134360655Y-67406255D01*
X134538405Y-67189667D01*
X134620000Y-67037013D01*
X134701595Y-67189667D01*
X134879346Y-67406255D01*
X135095934Y-67584005D01*
X135343038Y-67716084D01*
X135611162Y-67797419D01*
X135890000Y-67824882D01*
X136168839Y-67797419D01*
X136436963Y-67716084D01*
X136684067Y-67584005D01*
X136900655Y-67406255D01*
X137078405Y-67189667D01*
X137160000Y-67037013D01*
X137241595Y-67189667D01*
X137419346Y-67406255D01*
X137635934Y-67584005D01*
X137883038Y-67716084D01*
X138151162Y-67797419D01*
X138430000Y-67824882D01*
X138708839Y-67797419D01*
X138976963Y-67716084D01*
X139224067Y-67584005D01*
X139241663Y-67569564D01*
X142806382Y-71134283D01*
X142595241Y-71275363D01*
X142395363Y-71475241D01*
X142238320Y-71710273D01*
X142130147Y-71971426D01*
X142075000Y-72248665D01*
X142075000Y-72531335D01*
X142130147Y-72808574D01*
X142238320Y-73069727D01*
X142375001Y-73274285D01*
X142375000Y-77855716D01*
X142238320Y-78060273D01*
X142130147Y-78321426D01*
X142075000Y-78598665D01*
X142075000Y-78881335D01*
X142130147Y-79158574D01*
X142238320Y-79419727D01*
X142375001Y-79624285D01*
X142375000Y-81264278D01*
X142369509Y-81320058D01*
X142378312Y-81409383D01*
X142391423Y-81542498D01*
X142391432Y-81542529D01*
X142391435Y-81542556D01*
X142421168Y-81640552D01*
X142456324Y-81756446D01*
X142456339Y-81756475D01*
X142456347Y-81756500D01*
X142503140Y-81844034D01*
X142561716Y-81953623D01*
X142561737Y-81953649D01*
X142561749Y-81953671D01*
X142620783Y-82025597D01*
X142703551Y-82126449D01*
X142746887Y-82162014D01*
X142877927Y-82293040D01*
X127242900Y-97928069D01*
X124682626Y-95367795D01*
X124685820Y-95369502D01*
X124805518Y-95405812D01*
X124930000Y-95418072D01*
X125444250Y-95415000D01*
X125603000Y-95256250D01*
X125603000Y-94107000D01*
X125857000Y-94107000D01*
X125857000Y-95256250D01*
X126015750Y-95415000D01*
X126530000Y-95418072D01*
X126654482Y-95405812D01*
X126774180Y-95369502D01*
X126884494Y-95310537D01*
X126981185Y-95231185D01*
X127060537Y-95134494D01*
X127119502Y-95024180D01*
X127155812Y-94904482D01*
X127168072Y-94780000D01*
X127165000Y-94265750D01*
X127006250Y-94107000D01*
X125857000Y-94107000D01*
X125603000Y-94107000D01*
X125583000Y-94107000D01*
X125583000Y-93853000D01*
X125603000Y-93853000D01*
X125603000Y-92703750D01*
X125857000Y-92703750D01*
X125857000Y-93853000D01*
X127006250Y-93853000D01*
X127165000Y-93694250D01*
X127168072Y-93180000D01*
X127155812Y-93055518D01*
X127119502Y-92935820D01*
X127060537Y-92825506D01*
X126981185Y-92728815D01*
X126884494Y-92649463D01*
X126774180Y-92590498D01*
X126654482Y-92554188D01*
X126530000Y-92541928D01*
X126015750Y-92545000D01*
X125857000Y-92703750D01*
X125603000Y-92703750D01*
X125444250Y-92545000D01*
X124930000Y-92541928D01*
X124805518Y-92554188D01*
X124685820Y-92590498D01*
X124575506Y-92649463D01*
X124478815Y-92728815D01*
X124399463Y-92825506D01*
X124340498Y-92935820D01*
X124304188Y-93055518D01*
X124303357Y-93063961D01*
X124104759Y-92865363D01*
X123869727Y-92708320D01*
X123608574Y-92600147D01*
X123367282Y-92552150D01*
X119182396Y-88367265D01*
X119146849Y-88323951D01*
X118974023Y-88182116D01*
X118776847Y-88076724D01*
X118562899Y-88011823D01*
X118396152Y-87995400D01*
X118396151Y-87995400D01*
X118340400Y-87989909D01*
X118284649Y-87995400D01*
X113730532Y-87995400D01*
X113467249Y-87732117D01*
X113709727Y-87631680D01*
X113944759Y-87474637D01*
X114144637Y-87274759D01*
X114300000Y-87042241D01*
X114455363Y-87274759D01*
X114655241Y-87474637D01*
X114890273Y-87631680D01*
X115151426Y-87739853D01*
X115428665Y-87795000D01*
X115711335Y-87795000D01*
X115988574Y-87739853D01*
X116249727Y-87631680D01*
X116484759Y-87474637D01*
X116684637Y-87274759D01*
X116840000Y-87042241D01*
X116995363Y-87274759D01*
X117195241Y-87474637D01*
X117430273Y-87631680D01*
X117691426Y-87739853D01*
X117968665Y-87795000D01*
X118251335Y-87795000D01*
X118528574Y-87739853D01*
X118789727Y-87631680D01*
X119024759Y-87474637D01*
X119224637Y-87274759D01*
X119380000Y-87042241D01*
X119535363Y-87274759D01*
X119735241Y-87474637D01*
X119970273Y-87631680D01*
X120231426Y-87739853D01*
X120508665Y-87795000D01*
X120791335Y-87795000D01*
X121068574Y-87739853D01*
X121329727Y-87631680D01*
X121564759Y-87474637D01*
X121764637Y-87274759D01*
X121921680Y-87039727D01*
X121926067Y-87029135D01*
X122037615Y-87215131D01*
X122226586Y-87423519D01*
X122452580Y-87591037D01*
X122706913Y-87711246D01*
X122840961Y-87751904D01*
X123063000Y-87629915D01*
X123063000Y-86487000D01*
X123043000Y-86487000D01*
X123043000Y-86233000D01*
X123063000Y-86233000D01*
X123063000Y-85090085D01*
X123317000Y-85090085D01*
X123317000Y-86233000D01*
X123337000Y-86233000D01*
X123337000Y-86487000D01*
X123317000Y-86487000D01*
X123317000Y-87629915D01*
X123539039Y-87751904D01*
X123673087Y-87711246D01*
X123927420Y-87591037D01*
X124153414Y-87423519D01*
X124342385Y-87215131D01*
X124453933Y-87029135D01*
X124458320Y-87039727D01*
X124615363Y-87274759D01*
X124815241Y-87474637D01*
X125050273Y-87631680D01*
X125311426Y-87739853D01*
X125588665Y-87795000D01*
X125871335Y-87795000D01*
X126148574Y-87739853D01*
X126409727Y-87631680D01*
X126644759Y-87474637D01*
X126844637Y-87274759D01*
X127001680Y-87039727D01*
X127109853Y-86778574D01*
X127165000Y-86501335D01*
X127165000Y-86218665D01*
X127109853Y-85941426D01*
X127001680Y-85680273D01*
X126844637Y-85445241D01*
X126644759Y-85245363D01*
X126409727Y-85088320D01*
X126148574Y-84980147D01*
X125871335Y-84925000D01*
X125588665Y-84925000D01*
X125311426Y-84980147D01*
X125050273Y-85088320D01*
X124815241Y-85245363D01*
X124615363Y-85445241D01*
X124458320Y-85680273D01*
X124453933Y-85690865D01*
X124342385Y-85504869D01*
X124153414Y-85296481D01*
X123927420Y-85128963D01*
X123673087Y-85008754D01*
X123539039Y-84968096D01*
X123317000Y-85090085D01*
X123063000Y-85090085D01*
X122840961Y-84968096D01*
X122706913Y-85008754D01*
X122452580Y-85128963D01*
X122226586Y-85296481D01*
X122037615Y-85504869D01*
X121926067Y-85690865D01*
X121921680Y-85680273D01*
X121764637Y-85445241D01*
X121564759Y-85245363D01*
X121329727Y-85088320D01*
X121068574Y-84980147D01*
X120791335Y-84925000D01*
X120508665Y-84925000D01*
X120231426Y-84980147D01*
X119970273Y-85088320D01*
X119735241Y-85245363D01*
X119535363Y-85445241D01*
X119380000Y-85677759D01*
X119224637Y-85445241D01*
X119024759Y-85245363D01*
X118789727Y-85088320D01*
X118528574Y-84980147D01*
X118251335Y-84925000D01*
X117968665Y-84925000D01*
X117691426Y-84980147D01*
X117430273Y-85088320D01*
X117195241Y-85245363D01*
X116995363Y-85445241D01*
X116840000Y-85677759D01*
X116684637Y-85445241D01*
X116484759Y-85245363D01*
X116249727Y-85088320D01*
X115988574Y-84980147D01*
X115711335Y-84925000D01*
X115428665Y-84925000D01*
X115151426Y-84980147D01*
X114890273Y-85088320D01*
X114655241Y-85245363D01*
X114455363Y-85445241D01*
X114300000Y-85677759D01*
X114144637Y-85445241D01*
X113944759Y-85245363D01*
X113709727Y-85088320D01*
X113448574Y-84980147D01*
X113171335Y-84925000D01*
X112888665Y-84925000D01*
X112611426Y-84980147D01*
X112350273Y-85088320D01*
X112115241Y-85245363D01*
X111915363Y-85445241D01*
X111760000Y-85677759D01*
X111604637Y-85445241D01*
X111404759Y-85245363D01*
X111169727Y-85088320D01*
X110908574Y-84980147D01*
X110631335Y-84925000D01*
X110348665Y-84925000D01*
X110071426Y-84980147D01*
X109810273Y-85088320D01*
X109575241Y-85245363D01*
X109376643Y-85443961D01*
X109375812Y-85435518D01*
X109339502Y-85315820D01*
X109280537Y-85205506D01*
X109201185Y-85108815D01*
X109104494Y-85029463D01*
X108994180Y-84970498D01*
X108874482Y-84934188D01*
X108750000Y-84921928D01*
X108235750Y-84925000D01*
X108077000Y-85083750D01*
X108077000Y-86233000D01*
X108097000Y-86233000D01*
X108097000Y-86487000D01*
X108077000Y-86487000D01*
X108077000Y-87636250D01*
X108235750Y-87795000D01*
X108750000Y-87798072D01*
X108874482Y-87785812D01*
X108994180Y-87749502D01*
X109104494Y-87690537D01*
X109201185Y-87611185D01*
X109280537Y-87514494D01*
X109339502Y-87404180D01*
X109375812Y-87284482D01*
X109376643Y-87276039D01*
X109575241Y-87474637D01*
X109810273Y-87631680D01*
X110071426Y-87739853D01*
X110312718Y-87787850D01*
X112418409Y-89893541D01*
X112453951Y-89936849D01*
X112626777Y-90078684D01*
X112823953Y-90184076D01*
X113037901Y-90248977D01*
X113204648Y-90265400D01*
X113204657Y-90265400D01*
X113260399Y-90270890D01*
X113316141Y-90265400D01*
X117870269Y-90265400D01*
X120212751Y-92607882D01*
X119970273Y-92708320D01*
X119735241Y-92865363D01*
X119535363Y-93065241D01*
X119380000Y-93297759D01*
X119224637Y-93065241D01*
X119024759Y-92865363D01*
X118789727Y-92708320D01*
X118528574Y-92600147D01*
X118251335Y-92545000D01*
X117968665Y-92545000D01*
X117691426Y-92600147D01*
X117430273Y-92708320D01*
X117195241Y-92865363D01*
X116995363Y-93065241D01*
X116840000Y-93297759D01*
X116684637Y-93065241D01*
X116484759Y-92865363D01*
X116249727Y-92708320D01*
X115988574Y-92600147D01*
X115711335Y-92545000D01*
X115428665Y-92545000D01*
X115151426Y-92600147D01*
X114890273Y-92708320D01*
X114655241Y-92865363D01*
X114455363Y-93065241D01*
X114300000Y-93297759D01*
X114144637Y-93065241D01*
X113944759Y-92865363D01*
X113709727Y-92708320D01*
X113448574Y-92600147D01*
X113171335Y-92545000D01*
X112888665Y-92545000D01*
X112611426Y-92600147D01*
X112350273Y-92708320D01*
X112115241Y-92865363D01*
X111915363Y-93065241D01*
X111758320Y-93300273D01*
X111753933Y-93310865D01*
X111642385Y-93124869D01*
X111453414Y-92916481D01*
X111227420Y-92748963D01*
X110973087Y-92628754D01*
X110839039Y-92588096D01*
X110617000Y-92710085D01*
X110617000Y-93853000D01*
X110637000Y-93853000D01*
X110637000Y-94107000D01*
X110617000Y-94107000D01*
X110617000Y-95249915D01*
X110839039Y-95371904D01*
X110973087Y-95331246D01*
X111227420Y-95211037D01*
X111453414Y-95043519D01*
X111642385Y-94835131D01*
X111753933Y-94649135D01*
X111758320Y-94659727D01*
X111915363Y-94894759D01*
X112115241Y-95094637D01*
X112350273Y-95251680D01*
X112611426Y-95359853D01*
X112888665Y-95415000D01*
X113171335Y-95415000D01*
X113448574Y-95359853D01*
X113709727Y-95251680D01*
X113944759Y-95094637D01*
X114144637Y-94894759D01*
X114300000Y-94662241D01*
X114455363Y-94894759D01*
X114655241Y-95094637D01*
X114890273Y-95251680D01*
X115151426Y-95359853D01*
X115428665Y-95415000D01*
X115711335Y-95415000D01*
X115988574Y-95359853D01*
X116249727Y-95251680D01*
X116484759Y-95094637D01*
X116684637Y-94894759D01*
X116840000Y-94662241D01*
X116995363Y-94894759D01*
X117195241Y-95094637D01*
X117430273Y-95251680D01*
X117691426Y-95359853D01*
X117968665Y-95415000D01*
X118251335Y-95415000D01*
X118528574Y-95359853D01*
X118789727Y-95251680D01*
X119024759Y-95094637D01*
X119224637Y-94894759D01*
X119380000Y-94662241D01*
X119535363Y-94894759D01*
X119735241Y-95094637D01*
X119970273Y-95251680D01*
X120231426Y-95359853D01*
X120508665Y-95415000D01*
X120791335Y-95415000D01*
X121068574Y-95359853D01*
X121329727Y-95251680D01*
X121564759Y-95094637D01*
X121764637Y-94894759D01*
X121920000Y-94662241D01*
X122055000Y-94864284D01*
X122055000Y-95424549D01*
X122049509Y-95480300D01*
X122071423Y-95702798D01*
X122136324Y-95916746D01*
X122136325Y-95916747D01*
X122241717Y-96113923D01*
X122383552Y-96286749D01*
X122426860Y-96322291D01*
X126107901Y-100003333D01*
X126107900Y-105292056D01*
X125871335Y-105245000D01*
X125588665Y-105245000D01*
X125311426Y-105300147D01*
X125050273Y-105408320D01*
X124815241Y-105565363D01*
X124615363Y-105765241D01*
X124460000Y-105997759D01*
X124304637Y-105765241D01*
X124104759Y-105565363D01*
X123869727Y-105408320D01*
X123608574Y-105300147D01*
X123331335Y-105245000D01*
X123048665Y-105245000D01*
X122771426Y-105300147D01*
X122510273Y-105408320D01*
X122275241Y-105565363D01*
X122075363Y-105765241D01*
X121920000Y-105997759D01*
X121764637Y-105765241D01*
X121564759Y-105565363D01*
X121329727Y-105408320D01*
X121068574Y-105300147D01*
X120791335Y-105245000D01*
X120508665Y-105245000D01*
X120231426Y-105300147D01*
X119970273Y-105408320D01*
X119735241Y-105565363D01*
X119535363Y-105765241D01*
X119380000Y-105997759D01*
X119224637Y-105765241D01*
X119024759Y-105565363D01*
X118789727Y-105408320D01*
X118528574Y-105300147D01*
X118251335Y-105245000D01*
X117968665Y-105245000D01*
X117691426Y-105300147D01*
X117430273Y-105408320D01*
X117195241Y-105565363D01*
X116995363Y-105765241D01*
X116840000Y-105997759D01*
X116684637Y-105765241D01*
X116484759Y-105565363D01*
X116249727Y-105408320D01*
X115988574Y-105300147D01*
X115711335Y-105245000D01*
X115428665Y-105245000D01*
X115151426Y-105300147D01*
X114890273Y-105408320D01*
X114655241Y-105565363D01*
X114455363Y-105765241D01*
X114300000Y-105997759D01*
X114144637Y-105765241D01*
X113944759Y-105565363D01*
X113709727Y-105408320D01*
X113448574Y-105300147D01*
X113171335Y-105245000D01*
X112888665Y-105245000D01*
X112611426Y-105300147D01*
X112350273Y-105408320D01*
X112115241Y-105565363D01*
X111915363Y-105765241D01*
X111760000Y-105997759D01*
X111604637Y-105765241D01*
X111404759Y-105565363D01*
X111169727Y-105408320D01*
X110908574Y-105300147D01*
X110631335Y-105245000D01*
X110348665Y-105245000D01*
X110071426Y-105300147D01*
X109810273Y-105408320D01*
X109575241Y-105565363D01*
X109375363Y-105765241D01*
X109220000Y-105997759D01*
X109064637Y-105765241D01*
X108864759Y-105565363D01*
X108629727Y-105408320D01*
X108368574Y-105300147D01*
X108091335Y-105245000D01*
X107808665Y-105245000D01*
X107531426Y-105300147D01*
X107270273Y-105408320D01*
X107035241Y-105565363D01*
X106835363Y-105765241D01*
X106678320Y-106000273D01*
X106570147Y-106261426D01*
X106515000Y-106538665D01*
X106515000Y-106821335D01*
X106570147Y-107098574D01*
X106678320Y-107359727D01*
X106835363Y-107594759D01*
X107035241Y-107794637D01*
X107270273Y-107951680D01*
X107531426Y-108059853D01*
X107808665Y-108115000D01*
X108091335Y-108115000D01*
X108368574Y-108059853D01*
X108629727Y-107951680D01*
X108864759Y-107794637D01*
X109064637Y-107594759D01*
X109220000Y-107362241D01*
X109375363Y-107594759D01*
X109575241Y-107794637D01*
X109810273Y-107951680D01*
X110071426Y-108059853D01*
X110348665Y-108115000D01*
X110631335Y-108115000D01*
X110908574Y-108059853D01*
X111169727Y-107951680D01*
X111404759Y-107794637D01*
X111604637Y-107594759D01*
X111760000Y-107362241D01*
X111915363Y-107594759D01*
X112115241Y-107794637D01*
X112350273Y-107951680D01*
X112611426Y-108059853D01*
X112888665Y-108115000D01*
X113171335Y-108115000D01*
X113448574Y-108059853D01*
X113709727Y-107951680D01*
X113944759Y-107794637D01*
X114144637Y-107594759D01*
X114300000Y-107362241D01*
X114455363Y-107594759D01*
X114655241Y-107794637D01*
X114890273Y-107951680D01*
X115151426Y-108059853D01*
X115428665Y-108115000D01*
X115711335Y-108115000D01*
X115988574Y-108059853D01*
X116249727Y-107951680D01*
X116484759Y-107794637D01*
X116684637Y-107594759D01*
X116840000Y-107362241D01*
X116995363Y-107594759D01*
X117195241Y-107794637D01*
X117430273Y-107951680D01*
X117691426Y-108059853D01*
X117968665Y-108115000D01*
X118251335Y-108115000D01*
X118528574Y-108059853D01*
X118789727Y-107951680D01*
X119024759Y-107794637D01*
X119224637Y-107594759D01*
X119380000Y-107362241D01*
X119535363Y-107594759D01*
X119735241Y-107794637D01*
X119970273Y-107951680D01*
X120231426Y-108059853D01*
X120508665Y-108115000D01*
X120791335Y-108115000D01*
X121068574Y-108059853D01*
X121329727Y-107951680D01*
X121564759Y-107794637D01*
X121764637Y-107594759D01*
X121920000Y-107362241D01*
X122075363Y-107594759D01*
X122275241Y-107794637D01*
X122510273Y-107951680D01*
X122771426Y-108059853D01*
X122777055Y-108060973D01*
X122662956Y-108154611D01*
X122662954Y-108154613D01*
X122619651Y-108190151D01*
X122584113Y-108233454D01*
X118273634Y-112543934D01*
X118110000Y-112527818D01*
X117831161Y-112555281D01*
X117563037Y-112636616D01*
X117315933Y-112768695D01*
X117099345Y-112946446D01*
X116921595Y-113163034D01*
X116840000Y-113315688D01*
X116758405Y-113163033D01*
X116580654Y-112946445D01*
X116364066Y-112768695D01*
X116116962Y-112636616D01*
X115848838Y-112555281D01*
X115570000Y-112527818D01*
X115291161Y-112555281D01*
X115023037Y-112636616D01*
X114775933Y-112768695D01*
X114559345Y-112946446D01*
X114381595Y-113163034D01*
X114300000Y-113315688D01*
X114218405Y-113163033D01*
X114040654Y-112946445D01*
X113824066Y-112768695D01*
X113576962Y-112636616D01*
X113308838Y-112555281D01*
X113030000Y-112527818D01*
X112751161Y-112555281D01*
X112483037Y-112636616D01*
X112235933Y-112768695D01*
X112019345Y-112946446D01*
X111841595Y-113163034D01*
X111760000Y-113315688D01*
X111678405Y-113163033D01*
X111500654Y-112946445D01*
X111284066Y-112768695D01*
X111036962Y-112636616D01*
X110768838Y-112555281D01*
X110490000Y-112527818D01*
X110211161Y-112555281D01*
X109943037Y-112636616D01*
X109695933Y-112768695D01*
X109479345Y-112946446D01*
X109301595Y-113163034D01*
X109220000Y-113315688D01*
X109138405Y-113163033D01*
X108960654Y-112946445D01*
X108744066Y-112768695D01*
X108496962Y-112636616D01*
X108228838Y-112555281D01*
X107950000Y-112527818D01*
X107671161Y-112555281D01*
X107403037Y-112636616D01*
X107155933Y-112768695D01*
X106939345Y-112946446D01*
X106761595Y-113163034D01*
X106629516Y-113410138D01*
X106548181Y-113678262D01*
X106527600Y-113887226D01*
X106527600Y-114738175D01*
X106548181Y-114947139D01*
X106629516Y-115215263D01*
X106761595Y-115462367D01*
X106939346Y-115678955D01*
X107155934Y-115856705D01*
X107403038Y-115988784D01*
X107671162Y-116070119D01*
X107950000Y-116097582D01*
X108228839Y-116070119D01*
X108496963Y-115988784D01*
X108744067Y-115856705D01*
X108960655Y-115678955D01*
X109138405Y-115462367D01*
X109220000Y-115309713D01*
X109301595Y-115462367D01*
X109479346Y-115678955D01*
X109695934Y-115856705D01*
X109943038Y-115988784D01*
X110211162Y-116070119D01*
X110490000Y-116097582D01*
X110768839Y-116070119D01*
X111036963Y-115988784D01*
X111284067Y-115856705D01*
X111500655Y-115678955D01*
X111678405Y-115462367D01*
X111760000Y-115309713D01*
X111841595Y-115462367D01*
X112019346Y-115678955D01*
X112235934Y-115856705D01*
X112483038Y-115988784D01*
X112751162Y-116070119D01*
X113030000Y-116097582D01*
X113308839Y-116070119D01*
X113576963Y-115988784D01*
X113824067Y-115856705D01*
X114040655Y-115678955D01*
X114218405Y-115462367D01*
X114300000Y-115309713D01*
X114381595Y-115462367D01*
X114559346Y-115678955D01*
X114775934Y-115856705D01*
X115023038Y-115988784D01*
X115291162Y-116070119D01*
X115570000Y-116097582D01*
X115848839Y-116070119D01*
X116116963Y-115988784D01*
X116364067Y-115856705D01*
X116580655Y-115678955D01*
X116758405Y-115462367D01*
X116840000Y-115309713D01*
X116921595Y-115462367D01*
X117099346Y-115678955D01*
X117315934Y-115856705D01*
X117563038Y-115988784D01*
X117831162Y-116070119D01*
X118110000Y-116097582D01*
X118388839Y-116070119D01*
X118656963Y-115988784D01*
X118904067Y-115856705D01*
X119120655Y-115678955D01*
X119298405Y-115462367D01*
X119377893Y-115313655D01*
X119384474Y-115329962D01*
X119537875Y-115564140D01*
X119734014Y-115763892D01*
X119965354Y-115921541D01*
X120223004Y-116031028D01*
X120302940Y-116047710D01*
X120523000Y-115925552D01*
X120523000Y-114439700D01*
X120777000Y-114439700D01*
X120777000Y-115925552D01*
X120997060Y-116047710D01*
X121076996Y-116031028D01*
X121334646Y-115921541D01*
X121565986Y-115763892D01*
X121762125Y-115564140D01*
X121915526Y-115329962D01*
X121920000Y-115318876D01*
X121924474Y-115329962D01*
X122077875Y-115564140D01*
X122274014Y-115763892D01*
X122505354Y-115921541D01*
X122763004Y-116031028D01*
X122842940Y-116047710D01*
X123063000Y-115925552D01*
X123063000Y-114439700D01*
X120777000Y-114439700D01*
X120523000Y-114439700D01*
X120503000Y-114439700D01*
X120503000Y-114185700D01*
X120523000Y-114185700D01*
X120523000Y-114165700D01*
X120777000Y-114165700D01*
X120777000Y-114185700D01*
X123063000Y-114185700D01*
X123063000Y-112699848D01*
X122842940Y-112577690D01*
X122763004Y-112594372D01*
X122505354Y-112703859D01*
X122274014Y-112861508D01*
X122077875Y-113061260D01*
X121924474Y-113295438D01*
X121920000Y-113306524D01*
X121915526Y-113295438D01*
X121762125Y-113061260D01*
X121565986Y-112861508D01*
X121334646Y-112703859D01*
X121327156Y-112700676D01*
X123896233Y-110131600D01*
X125536249Y-110131600D01*
X125592000Y-110137091D01*
X125647751Y-110131600D01*
X125647752Y-110131600D01*
X125814499Y-110115177D01*
X126028447Y-110050276D01*
X126225623Y-109944884D01*
X126398449Y-109803049D01*
X126433996Y-109759735D01*
X128006040Y-108187691D01*
X128049349Y-108152149D01*
X128191184Y-107979323D01*
X128296576Y-107782147D01*
X128356916Y-107583235D01*
X128361477Y-107568200D01*
X128367861Y-107503376D01*
X128377900Y-107401452D01*
X128377900Y-107401445D01*
X128383390Y-107345701D01*
X128377900Y-107289957D01*
X128377900Y-100003331D01*
X134598529Y-93782702D01*
X137616903Y-93782702D01*
X137688486Y-94026671D01*
X137943996Y-94147571D01*
X138218184Y-94216300D01*
X138500512Y-94230217D01*
X138780130Y-94188787D01*
X139046292Y-94093603D01*
X139171514Y-94026671D01*
X139243097Y-93782702D01*
X138430000Y-92969605D01*
X137616903Y-93782702D01*
X134598529Y-93782702D01*
X135520719Y-92860512D01*
X136989783Y-92860512D01*
X137031213Y-93140130D01*
X137126397Y-93406292D01*
X137193329Y-93531514D01*
X137437298Y-93603097D01*
X138250395Y-92790000D01*
X138609605Y-92790000D01*
X139422702Y-93603097D01*
X139666671Y-93531514D01*
X139787571Y-93276004D01*
X139856300Y-93001816D01*
X139870217Y-92719488D01*
X139828787Y-92439870D01*
X139733603Y-92173708D01*
X139666671Y-92048486D01*
X139422702Y-91976903D01*
X138609605Y-92790000D01*
X138250395Y-92790000D01*
X137437298Y-91976903D01*
X137193329Y-92048486D01*
X137072429Y-92303996D01*
X137003700Y-92578184D01*
X136989783Y-92860512D01*
X135520719Y-92860512D01*
X136583933Y-91797298D01*
X137616903Y-91797298D01*
X138430000Y-92610395D01*
X139243097Y-91797298D01*
X139171514Y-91553329D01*
X138916004Y-91432429D01*
X138641816Y-91363700D01*
X138359488Y-91349783D01*
X138079870Y-91391213D01*
X137813708Y-91486397D01*
X137688486Y-91553329D01*
X137616903Y-91797298D01*
X136583933Y-91797298D01*
X144483099Y-83898134D01*
X167293896Y-106709025D01*
X167292815Y-106720000D01*
X167321487Y-107011111D01*
X167406401Y-107291034D01*
X167469950Y-107409925D01*
X167446099Y-107429499D01*
X167422301Y-107458497D01*
X166555199Y-108325600D01*
X139868072Y-108325600D01*
X139868072Y-107150000D01*
X139855812Y-107025518D01*
X139819502Y-106905820D01*
X139760537Y-106795506D01*
X139681185Y-106698815D01*
X139584494Y-106619463D01*
X139565000Y-106609043D01*
X139565000Y-106505452D01*
X139570491Y-106449700D01*
X139548577Y-106227201D01*
X139483676Y-106013253D01*
X139378284Y-105816077D01*
X139271989Y-105686556D01*
X139271987Y-105686554D01*
X139236449Y-105643251D01*
X139193146Y-105607713D01*
X138064700Y-104479269D01*
X138064700Y-104337827D01*
X138218184Y-104376300D01*
X138500512Y-104390217D01*
X138780130Y-104348787D01*
X139046292Y-104253603D01*
X139171514Y-104186671D01*
X139243097Y-103942702D01*
X138430000Y-103129605D01*
X138415858Y-103143748D01*
X138236253Y-102964143D01*
X138250395Y-102950000D01*
X138609605Y-102950000D01*
X139422702Y-103763097D01*
X139666671Y-103691514D01*
X139787571Y-103436004D01*
X139856300Y-103161816D01*
X139870217Y-102879488D01*
X139828787Y-102599870D01*
X139733603Y-102333708D01*
X139666671Y-102208486D01*
X139422702Y-102136903D01*
X138609605Y-102950000D01*
X138250395Y-102950000D01*
X138236253Y-102935858D01*
X138415858Y-102756253D01*
X138430000Y-102770395D01*
X139243097Y-101957298D01*
X139171514Y-101713329D01*
X138916004Y-101592429D01*
X138641816Y-101523700D01*
X138359488Y-101509783D01*
X138079870Y-101551213D01*
X138064700Y-101556638D01*
X138064700Y-101260731D01*
X139193146Y-100132287D01*
X139236449Y-100096749D01*
X139275625Y-100049014D01*
X139378284Y-99923923D01*
X139483676Y-99726747D01*
X139548577Y-99512799D01*
X139570491Y-99290300D01*
X139565000Y-99234548D01*
X139565000Y-99130957D01*
X139584494Y-99120537D01*
X139681185Y-99041185D01*
X139760537Y-98944494D01*
X139819502Y-98834180D01*
X139855812Y-98714482D01*
X139868072Y-98590000D01*
X139868072Y-96990000D01*
X139855812Y-96865518D01*
X139819502Y-96745820D01*
X139760537Y-96635506D01*
X139681185Y-96538815D01*
X139584494Y-96459463D01*
X139474180Y-96400498D01*
X139354482Y-96364188D01*
X139230000Y-96351928D01*
X137630000Y-96351928D01*
X137505518Y-96364188D01*
X137385820Y-96400498D01*
X137275506Y-96459463D01*
X137178815Y-96538815D01*
X137099463Y-96635506D01*
X137040498Y-96745820D01*
X137004188Y-96865518D01*
X136991928Y-96990000D01*
X136991928Y-98590000D01*
X137004188Y-98714482D01*
X137040498Y-98834180D01*
X137099463Y-98944494D01*
X137131561Y-98983606D01*
X136166560Y-99948609D01*
X136123252Y-99984151D01*
X135981417Y-100156977D01*
X135928228Y-100256487D01*
X135876024Y-100354154D01*
X135811123Y-100568102D01*
X135789209Y-100790600D01*
X135794701Y-100846361D01*
X135794700Y-104126415D01*
X135774551Y-104142951D01*
X135739009Y-104186259D01*
X126848011Y-113077258D01*
X126740654Y-112946445D01*
X126524066Y-112768695D01*
X126276962Y-112636616D01*
X126008838Y-112555281D01*
X125730000Y-112527818D01*
X125451161Y-112555281D01*
X125183037Y-112636616D01*
X124935933Y-112768695D01*
X124719345Y-112946446D01*
X124541595Y-113163034D01*
X124462107Y-113311746D01*
X124455526Y-113295438D01*
X124302125Y-113061260D01*
X124105986Y-112861508D01*
X123874646Y-112703859D01*
X123616996Y-112594372D01*
X123537060Y-112577690D01*
X123317000Y-112699848D01*
X123317000Y-114185700D01*
X123337000Y-114185700D01*
X123337000Y-114439700D01*
X123317000Y-114439700D01*
X123317000Y-115925552D01*
X123537060Y-116047710D01*
X123616996Y-116031028D01*
X123874646Y-115921541D01*
X124105986Y-115763892D01*
X124302125Y-115564140D01*
X124455526Y-115329962D01*
X124462107Y-115313655D01*
X124541595Y-115462367D01*
X124719346Y-115678955D01*
X124935934Y-115856705D01*
X125183038Y-115988784D01*
X125451162Y-116070119D01*
X125730000Y-116097582D01*
X126008839Y-116070119D01*
X126276963Y-115988784D01*
X126524067Y-115856705D01*
X126740655Y-115678955D01*
X126918405Y-115462367D01*
X126926245Y-115447700D01*
X127161949Y-115447700D01*
X127217700Y-115453191D01*
X127273451Y-115447700D01*
X127273452Y-115447700D01*
X127440199Y-115431277D01*
X127654147Y-115366376D01*
X127851323Y-115260984D01*
X128024149Y-115119149D01*
X128059696Y-115075835D01*
X129402818Y-113732713D01*
X129387600Y-113887226D01*
X129387600Y-114738175D01*
X129408181Y-114947139D01*
X129489516Y-115215263D01*
X129621595Y-115462367D01*
X129799346Y-115678955D01*
X130015934Y-115856705D01*
X130263038Y-115988784D01*
X130531162Y-116070119D01*
X130810000Y-116097582D01*
X131088839Y-116070119D01*
X131356963Y-115988784D01*
X131604067Y-115856705D01*
X131820655Y-115678955D01*
X131998405Y-115462367D01*
X132083394Y-115303363D01*
X132161595Y-115449667D01*
X132339346Y-115666255D01*
X132555934Y-115844005D01*
X132803038Y-115976084D01*
X133071162Y-116057419D01*
X133350000Y-116084882D01*
X133628839Y-116057419D01*
X133896963Y-115976084D01*
X134144067Y-115844005D01*
X134360655Y-115666255D01*
X134538405Y-115449667D01*
X134620000Y-115297013D01*
X134701595Y-115449667D01*
X134879346Y-115666255D01*
X135095934Y-115844005D01*
X135343038Y-115976084D01*
X135611162Y-116057419D01*
X135890000Y-116084882D01*
X136168839Y-116057419D01*
X136436963Y-115976084D01*
X136684067Y-115844005D01*
X136900655Y-115666255D01*
X137078405Y-115449667D01*
X137160000Y-115297013D01*
X137241595Y-115449667D01*
X137419346Y-115666255D01*
X137635934Y-115844005D01*
X137883038Y-115976084D01*
X138151162Y-116057419D01*
X138430000Y-116084882D01*
X138708839Y-116057419D01*
X138976963Y-115976084D01*
X139224067Y-115844005D01*
X139440655Y-115666255D01*
X139618405Y-115449667D01*
X139700000Y-115297013D01*
X139781595Y-115449667D01*
X139959346Y-115666255D01*
X140175934Y-115844005D01*
X140423038Y-115976084D01*
X140691162Y-116057419D01*
X140970000Y-116084882D01*
X141248839Y-116057419D01*
X141516963Y-115976084D01*
X141764067Y-115844005D01*
X141980655Y-115666255D01*
X142158405Y-115449667D01*
X142240000Y-115297013D01*
X142321595Y-115449667D01*
X142499346Y-115666255D01*
X142715934Y-115844005D01*
X142963038Y-115976084D01*
X143231162Y-116057419D01*
X143510000Y-116084882D01*
X143788839Y-116057419D01*
X144056963Y-115976084D01*
X144304067Y-115844005D01*
X144520655Y-115666255D01*
X144698405Y-115449667D01*
X144780000Y-115297013D01*
X144861595Y-115449667D01*
X145039346Y-115666255D01*
X145255934Y-115844005D01*
X145503038Y-115976084D01*
X145771162Y-116057419D01*
X146050000Y-116084882D01*
X146328839Y-116057419D01*
X146596963Y-115976084D01*
X146844067Y-115844005D01*
X147060655Y-115666255D01*
X147238405Y-115449667D01*
X147320000Y-115297013D01*
X147401595Y-115449667D01*
X147579346Y-115666255D01*
X147795934Y-115844005D01*
X148043038Y-115976084D01*
X148311162Y-116057419D01*
X148590000Y-116084882D01*
X148868839Y-116057419D01*
X149136963Y-115976084D01*
X149384067Y-115844005D01*
X149600655Y-115666255D01*
X149778405Y-115449667D01*
X149910484Y-115202563D01*
X149991819Y-114934438D01*
X150012400Y-114725474D01*
X150012400Y-113874526D01*
X152247600Y-113874526D01*
X152247600Y-114725475D01*
X152268181Y-114934439D01*
X152349516Y-115202563D01*
X152481595Y-115449667D01*
X152659346Y-115666255D01*
X152875934Y-115844005D01*
X153123038Y-115976084D01*
X153391162Y-116057419D01*
X153670000Y-116084882D01*
X153948839Y-116057419D01*
X154216963Y-115976084D01*
X154464067Y-115844005D01*
X154680655Y-115666255D01*
X154858405Y-115449667D01*
X154940000Y-115297013D01*
X155021595Y-115449667D01*
X155199346Y-115666255D01*
X155415934Y-115844005D01*
X155663038Y-115976084D01*
X155931162Y-116057419D01*
X156210000Y-116084882D01*
X156488839Y-116057419D01*
X156756963Y-115976084D01*
X157004067Y-115844005D01*
X157220655Y-115666255D01*
X157398405Y-115449667D01*
X157480000Y-115297013D01*
X157561595Y-115449667D01*
X157739346Y-115666255D01*
X157955934Y-115844005D01*
X158203038Y-115976084D01*
X158471162Y-116057419D01*
X158750000Y-116084882D01*
X159028839Y-116057419D01*
X159296963Y-115976084D01*
X159544067Y-115844005D01*
X159760655Y-115666255D01*
X159938405Y-115449667D01*
X160020000Y-115297013D01*
X160101595Y-115449667D01*
X160279346Y-115666255D01*
X160495934Y-115844005D01*
X160743038Y-115976084D01*
X161011162Y-116057419D01*
X161290000Y-116084882D01*
X161568839Y-116057419D01*
X161836963Y-115976084D01*
X162084067Y-115844005D01*
X162300655Y-115666255D01*
X162478405Y-115449667D01*
X162560000Y-115297013D01*
X162641595Y-115449667D01*
X162819346Y-115666255D01*
X163035934Y-115844005D01*
X163283038Y-115976084D01*
X163551162Y-116057419D01*
X163830000Y-116084882D01*
X164108839Y-116057419D01*
X164376963Y-115976084D01*
X164624067Y-115844005D01*
X164840655Y-115666255D01*
X165018405Y-115449667D01*
X165100000Y-115297013D01*
X165181595Y-115449667D01*
X165359346Y-115666255D01*
X165575934Y-115844005D01*
X165823038Y-115976084D01*
X166091162Y-116057419D01*
X166370000Y-116084882D01*
X166648839Y-116057419D01*
X166916963Y-115976084D01*
X167164067Y-115844005D01*
X167380655Y-115666255D01*
X167558405Y-115449667D01*
X167640000Y-115297013D01*
X167721595Y-115449667D01*
X167899346Y-115666255D01*
X168115934Y-115844005D01*
X168363038Y-115976084D01*
X168631162Y-116057419D01*
X168910000Y-116084882D01*
X169188839Y-116057419D01*
X169456963Y-115976084D01*
X169704067Y-115844005D01*
X169920655Y-115666255D01*
X170098405Y-115449667D01*
X170180000Y-115297013D01*
X170261595Y-115449667D01*
X170439346Y-115666255D01*
X170655934Y-115844005D01*
X170903038Y-115976084D01*
X171171162Y-116057419D01*
X171450000Y-116084882D01*
X171728839Y-116057419D01*
X171996963Y-115976084D01*
X172244067Y-115844005D01*
X172460655Y-115666255D01*
X172638405Y-115449667D01*
X172770484Y-115202563D01*
X172851819Y-114934438D01*
X172872400Y-114725474D01*
X172872400Y-114020777D01*
X173695000Y-114020777D01*
X173695000Y-114579223D01*
X173803948Y-115126939D01*
X174017656Y-115642876D01*
X174327912Y-116107207D01*
X174722793Y-116502088D01*
X175187124Y-116812344D01*
X175703061Y-117026052D01*
X176250777Y-117135000D01*
X176809223Y-117135000D01*
X177356939Y-117026052D01*
X177872876Y-116812344D01*
X178337207Y-116502088D01*
X178732088Y-116107207D01*
X179042344Y-115642876D01*
X179256052Y-115126939D01*
X179365000Y-114579223D01*
X179365000Y-114020777D01*
X179256052Y-113473061D01*
X179042344Y-112957124D01*
X178732088Y-112492793D01*
X178337207Y-112097912D01*
X177872876Y-111787656D01*
X177356939Y-111573948D01*
X176809223Y-111465000D01*
X176250777Y-111465000D01*
X175703061Y-111573948D01*
X175187124Y-111787656D01*
X174722793Y-112097912D01*
X174327912Y-112492793D01*
X174017656Y-112957124D01*
X173803948Y-113473061D01*
X173695000Y-114020777D01*
X172872400Y-114020777D01*
X172872400Y-113874525D01*
X172851819Y-113665561D01*
X172770484Y-113397437D01*
X172638405Y-113150333D01*
X172460654Y-112933745D01*
X172244066Y-112755995D01*
X171996962Y-112623916D01*
X171728838Y-112542581D01*
X171450000Y-112515118D01*
X171171161Y-112542581D01*
X170903037Y-112623916D01*
X170655933Y-112755995D01*
X170439345Y-112933746D01*
X170261595Y-113150334D01*
X170180000Y-113302988D01*
X170098405Y-113150333D01*
X169920654Y-112933745D01*
X169704066Y-112755995D01*
X169456962Y-112623916D01*
X169188838Y-112542581D01*
X168910000Y-112515118D01*
X168631161Y-112542581D01*
X168363037Y-112623916D01*
X168115933Y-112755995D01*
X167899345Y-112933746D01*
X167721595Y-113150334D01*
X167640000Y-113302988D01*
X167558405Y-113150333D01*
X167380654Y-112933745D01*
X167164066Y-112755995D01*
X166916962Y-112623916D01*
X166648838Y-112542581D01*
X166370000Y-112515118D01*
X166091161Y-112542581D01*
X165823037Y-112623916D01*
X165575933Y-112755995D01*
X165359345Y-112933746D01*
X165181595Y-113150334D01*
X165100000Y-113302988D01*
X165018405Y-113150333D01*
X164840654Y-112933745D01*
X164624066Y-112755995D01*
X164376962Y-112623916D01*
X164108838Y-112542581D01*
X163830000Y-112515118D01*
X163551161Y-112542581D01*
X163283037Y-112623916D01*
X163035933Y-112755995D01*
X162819345Y-112933746D01*
X162641595Y-113150334D01*
X162560000Y-113302988D01*
X162478405Y-113150333D01*
X162300654Y-112933745D01*
X162084066Y-112755995D01*
X161836962Y-112623916D01*
X161568838Y-112542581D01*
X161290000Y-112515118D01*
X161011161Y-112542581D01*
X160743037Y-112623916D01*
X160495933Y-112755995D01*
X160279345Y-112933746D01*
X160101595Y-113150334D01*
X160020000Y-113302988D01*
X159938405Y-113150333D01*
X159760654Y-112933745D01*
X159544066Y-112755995D01*
X159296962Y-112623916D01*
X159028838Y-112542581D01*
X158750000Y-112515118D01*
X158471161Y-112542581D01*
X158203037Y-112623916D01*
X157955933Y-112755995D01*
X157739345Y-112933746D01*
X157561595Y-113150334D01*
X157480000Y-113302988D01*
X157398405Y-113150333D01*
X157220654Y-112933745D01*
X157004066Y-112755995D01*
X156756962Y-112623916D01*
X156488838Y-112542581D01*
X156210000Y-112515118D01*
X155931161Y-112542581D01*
X155663037Y-112623916D01*
X155415933Y-112755995D01*
X155199345Y-112933746D01*
X155021595Y-113150334D01*
X154940000Y-113302988D01*
X154858405Y-113150333D01*
X154680654Y-112933745D01*
X154464066Y-112755995D01*
X154216962Y-112623916D01*
X153948838Y-112542581D01*
X153670000Y-112515118D01*
X153391161Y-112542581D01*
X153123037Y-112623916D01*
X152875933Y-112755995D01*
X152659345Y-112933746D01*
X152481595Y-113150334D01*
X152349516Y-113397438D01*
X152268181Y-113665562D01*
X152247600Y-113874526D01*
X150012400Y-113874526D01*
X150012400Y-113874525D01*
X149991819Y-113665561D01*
X149910484Y-113397437D01*
X149778405Y-113150333D01*
X149600654Y-112933745D01*
X149384066Y-112755995D01*
X149136962Y-112623916D01*
X148868838Y-112542581D01*
X148590000Y-112515118D01*
X148311161Y-112542581D01*
X148043037Y-112623916D01*
X147795933Y-112755995D01*
X147579345Y-112933746D01*
X147401595Y-113150334D01*
X147320000Y-113302988D01*
X147238405Y-113150333D01*
X147060654Y-112933745D01*
X146844066Y-112755995D01*
X146596962Y-112623916D01*
X146328838Y-112542581D01*
X146050000Y-112515118D01*
X145771161Y-112542581D01*
X145503037Y-112623916D01*
X145255933Y-112755995D01*
X145039345Y-112933746D01*
X144861595Y-113150334D01*
X144780000Y-113302988D01*
X144698405Y-113150333D01*
X144520654Y-112933745D01*
X144304066Y-112755995D01*
X144056962Y-112623916D01*
X143788838Y-112542581D01*
X143510000Y-112515118D01*
X143231161Y-112542581D01*
X142963037Y-112623916D01*
X142715933Y-112755995D01*
X142499345Y-112933746D01*
X142321595Y-113150334D01*
X142240000Y-113302988D01*
X142158405Y-113150333D01*
X141980654Y-112933745D01*
X141764066Y-112755995D01*
X141516962Y-112623916D01*
X141248838Y-112542581D01*
X140970000Y-112515118D01*
X140691161Y-112542581D01*
X140423037Y-112623916D01*
X140175933Y-112755995D01*
X139959345Y-112933746D01*
X139781595Y-113150334D01*
X139700000Y-113302988D01*
X139618405Y-113150333D01*
X139440654Y-112933745D01*
X139224066Y-112755995D01*
X138976962Y-112623916D01*
X138708838Y-112542581D01*
X138430000Y-112515118D01*
X138151161Y-112542581D01*
X137883037Y-112623916D01*
X137635933Y-112755995D01*
X137419345Y-112933746D01*
X137241595Y-113150334D01*
X137160000Y-113302988D01*
X137078405Y-113150333D01*
X136900654Y-112933745D01*
X136684066Y-112755995D01*
X136580476Y-112700625D01*
X137919802Y-111361300D01*
X169653978Y-111361300D01*
X169691300Y-111364976D01*
X169728622Y-111361300D01*
X169728633Y-111361300D01*
X169840286Y-111350303D01*
X169983547Y-111306846D01*
X170115576Y-111236274D01*
X170231301Y-111141301D01*
X170255104Y-111112298D01*
X171235604Y-110131798D01*
X171264601Y-110108001D01*
X171295788Y-110070000D01*
X171359574Y-109992277D01*
X171430146Y-109860247D01*
X171437925Y-109834602D01*
X171473603Y-109716986D01*
X171484600Y-109605333D01*
X171484600Y-109605323D01*
X171488276Y-109568000D01*
X171484600Y-109530677D01*
X171484600Y-104233022D01*
X171488276Y-104195699D01*
X171484600Y-104158376D01*
X171484600Y-104158367D01*
X171473603Y-104046714D01*
X171430146Y-103903453D01*
X171359574Y-103771424D01*
X171264601Y-103655699D01*
X171235603Y-103631901D01*
X170220267Y-102616566D01*
X170275706Y-102549014D01*
X170413599Y-102291034D01*
X170498513Y-102011111D01*
X170527185Y-101720000D01*
X170498513Y-101428889D01*
X170413599Y-101148966D01*
X170275706Y-100890986D01*
X170090134Y-100664866D01*
X169864014Y-100479294D01*
X169846626Y-100470000D01*
X169864014Y-100460706D01*
X170090134Y-100275134D01*
X170275706Y-100049014D01*
X170413599Y-99791034D01*
X170498513Y-99511111D01*
X170527185Y-99220000D01*
X170498513Y-98928889D01*
X170413599Y-98648966D01*
X170275706Y-98390986D01*
X170090134Y-98164866D01*
X169864014Y-97979294D01*
X169670000Y-97875591D01*
X169670000Y-96200423D01*
X169673676Y-96163100D01*
X169670000Y-96125777D01*
X169670000Y-96125767D01*
X169659003Y-96014114D01*
X169615546Y-95870853D01*
X169544975Y-95738825D01*
X169544974Y-95738823D01*
X169473799Y-95652097D01*
X169450001Y-95623099D01*
X169421004Y-95599302D01*
X167998775Y-94177073D01*
X168011746Y-94181008D01*
X168185000Y-94198072D01*
X169635000Y-94198072D01*
X169808254Y-94181008D01*
X169974850Y-94130472D01*
X170128386Y-94048405D01*
X170262962Y-93937962D01*
X170373405Y-93803386D01*
X170455472Y-93649850D01*
X170506008Y-93483254D01*
X170523072Y-93310000D01*
X170523072Y-92110000D01*
X170506008Y-91936746D01*
X170455472Y-91770150D01*
X170373405Y-91616614D01*
X170262962Y-91482038D01*
X170128386Y-91371595D01*
X170026663Y-91317223D01*
X170090134Y-91265134D01*
X170275706Y-91039014D01*
X170413599Y-90781034D01*
X170498513Y-90501111D01*
X170527185Y-90210000D01*
X170498513Y-89918889D01*
X170413599Y-89638966D01*
X170275706Y-89380986D01*
X170090134Y-89154866D01*
X169864014Y-88969294D01*
X169846626Y-88960000D01*
X169864014Y-88950706D01*
X170090134Y-88765134D01*
X170275706Y-88539014D01*
X170413599Y-88281034D01*
X170498513Y-88001111D01*
X170527185Y-87710000D01*
X170498513Y-87418889D01*
X170413599Y-87138966D01*
X170275706Y-86880986D01*
X170090134Y-86654866D01*
X169864014Y-86469294D01*
X169846626Y-86460000D01*
X169864014Y-86450706D01*
X170090134Y-86265134D01*
X170275706Y-86039014D01*
X170413599Y-85781034D01*
X170498513Y-85501111D01*
X170527185Y-85210000D01*
X170498513Y-84918889D01*
X170413599Y-84638966D01*
X170275706Y-84380986D01*
X170090134Y-84154866D01*
X169864014Y-83969294D01*
X169606034Y-83831401D01*
X169326111Y-83746487D01*
X169107950Y-83725000D01*
X168712050Y-83725000D01*
X168493889Y-83746487D01*
X168213966Y-83831401D01*
X167955986Y-83969294D01*
X167729866Y-84154866D01*
X167544294Y-84380986D01*
X167406401Y-84638966D01*
X167321487Y-84918889D01*
X167292815Y-85210000D01*
X167321487Y-85501111D01*
X167406401Y-85781034D01*
X167544294Y-86039014D01*
X167729866Y-86265134D01*
X167955986Y-86450706D01*
X167973374Y-86460000D01*
X167955986Y-86469294D01*
X167729866Y-86654866D01*
X167544294Y-86880986D01*
X167406401Y-87138966D01*
X167321487Y-87418889D01*
X167292815Y-87710000D01*
X167321487Y-88001111D01*
X167406401Y-88281034D01*
X167544294Y-88539014D01*
X167729866Y-88765134D01*
X167955986Y-88950706D01*
X167973374Y-88960000D01*
X167955986Y-88969294D01*
X167729866Y-89154866D01*
X167544294Y-89380986D01*
X167406401Y-89638966D01*
X167321487Y-89918889D01*
X167292815Y-90210000D01*
X167321487Y-90501111D01*
X167406401Y-90781034D01*
X167544294Y-91039014D01*
X167729866Y-91265134D01*
X167793337Y-91317223D01*
X167691614Y-91371595D01*
X167557038Y-91482038D01*
X167446595Y-91616614D01*
X167364528Y-91770150D01*
X167313992Y-91936746D01*
X167296928Y-92110000D01*
X167296928Y-93310000D01*
X167313992Y-93483254D01*
X167317927Y-93496225D01*
X145061702Y-71240000D01*
X167292815Y-71240000D01*
X167321487Y-71531111D01*
X167406401Y-71811034D01*
X167544294Y-72069014D01*
X167729866Y-72295134D01*
X167955986Y-72480706D01*
X167973374Y-72490000D01*
X167955986Y-72499294D01*
X167729866Y-72684866D01*
X167544294Y-72910986D01*
X167406401Y-73168966D01*
X167321487Y-73448889D01*
X167292815Y-73740000D01*
X167321487Y-74031111D01*
X167406401Y-74311034D01*
X167544294Y-74569014D01*
X167729866Y-74795134D01*
X167955986Y-74980706D01*
X167973374Y-74990000D01*
X167955986Y-74999294D01*
X167729866Y-75184866D01*
X167544294Y-75410986D01*
X167406401Y-75668966D01*
X167321487Y-75948889D01*
X167292815Y-76240000D01*
X167321487Y-76531111D01*
X167406401Y-76811034D01*
X167544294Y-77069014D01*
X167729866Y-77295134D01*
X167793337Y-77347223D01*
X167691614Y-77401595D01*
X167557038Y-77512038D01*
X167446595Y-77646614D01*
X167364528Y-77800150D01*
X167313992Y-77966746D01*
X167296928Y-78140000D01*
X167296928Y-79340000D01*
X167313992Y-79513254D01*
X167364528Y-79679850D01*
X167446595Y-79833386D01*
X167557038Y-79967962D01*
X167691614Y-80078405D01*
X167845150Y-80160472D01*
X168011746Y-80211008D01*
X168185000Y-80228072D01*
X169635000Y-80228072D01*
X169808254Y-80211008D01*
X169974850Y-80160472D01*
X170128386Y-80078405D01*
X170262962Y-79967962D01*
X170373405Y-79833386D01*
X170455472Y-79679850D01*
X170506008Y-79513254D01*
X170523072Y-79340000D01*
X170523072Y-78140000D01*
X170506008Y-77966746D01*
X170455472Y-77800150D01*
X170373405Y-77646614D01*
X170262962Y-77512038D01*
X170128386Y-77401595D01*
X170026663Y-77347223D01*
X170090134Y-77295134D01*
X170275706Y-77069014D01*
X170413599Y-76811034D01*
X170498513Y-76531111D01*
X170527185Y-76240000D01*
X170498513Y-75948889D01*
X170413599Y-75668966D01*
X170275706Y-75410986D01*
X170090134Y-75184866D01*
X169864014Y-74999294D01*
X169846626Y-74990000D01*
X169864014Y-74980706D01*
X170090134Y-74795134D01*
X170275706Y-74569014D01*
X170413599Y-74311034D01*
X170498513Y-74031111D01*
X170527185Y-73740000D01*
X170498513Y-73448889D01*
X170413599Y-73168966D01*
X170275706Y-72910986D01*
X170090134Y-72684866D01*
X169864014Y-72499294D01*
X169846626Y-72490000D01*
X169864014Y-72480706D01*
X170090134Y-72295134D01*
X170275706Y-72069014D01*
X170413599Y-71811034D01*
X170498513Y-71531111D01*
X170527185Y-71240000D01*
X170498513Y-70948889D01*
X170413599Y-70668966D01*
X170275706Y-70410986D01*
X170090134Y-70184866D01*
X169864014Y-69999294D01*
X169606034Y-69861401D01*
X169326111Y-69776487D01*
X169107950Y-69755000D01*
X168712050Y-69755000D01*
X168493889Y-69776487D01*
X168213966Y-69861401D01*
X167955986Y-69999294D01*
X167729866Y-70184866D01*
X167544294Y-70410986D01*
X167406401Y-70668966D01*
X167321487Y-70948889D01*
X167292815Y-71240000D01*
X145061702Y-71240000D01*
X141530532Y-67708831D01*
X141764067Y-67584005D01*
X141980655Y-67406255D01*
X142158405Y-67189667D01*
X142236606Y-67043363D01*
X142321595Y-67202367D01*
X142499346Y-67418955D01*
X142715934Y-67596705D01*
X142963038Y-67728784D01*
X143231162Y-67810119D01*
X143510000Y-67837582D01*
X143788839Y-67810119D01*
X144056963Y-67728784D01*
X144304067Y-67596705D01*
X144520655Y-67418955D01*
X144698405Y-67202367D01*
X144830484Y-66955263D01*
X144911819Y-66687138D01*
X144932400Y-66478174D01*
X144932400Y-65627225D01*
X144931150Y-65614526D01*
X147167600Y-65614526D01*
X147167600Y-66465475D01*
X147188181Y-66674439D01*
X147269516Y-66942563D01*
X147401595Y-67189667D01*
X147579346Y-67406255D01*
X147795934Y-67584005D01*
X148043038Y-67716084D01*
X148311162Y-67797419D01*
X148590000Y-67824882D01*
X148868839Y-67797419D01*
X149136963Y-67716084D01*
X149384067Y-67584005D01*
X149600655Y-67406255D01*
X149778405Y-67189667D01*
X149860000Y-67037013D01*
X149941595Y-67189667D01*
X150119346Y-67406255D01*
X150335934Y-67584005D01*
X150583038Y-67716084D01*
X150851162Y-67797419D01*
X151130000Y-67824882D01*
X151408839Y-67797419D01*
X151676963Y-67716084D01*
X151924067Y-67584005D01*
X152140655Y-67406255D01*
X152318405Y-67189667D01*
X152400000Y-67037013D01*
X152481595Y-67189667D01*
X152659346Y-67406255D01*
X152875934Y-67584005D01*
X153123038Y-67716084D01*
X153391162Y-67797419D01*
X153670000Y-67824882D01*
X153948839Y-67797419D01*
X154216963Y-67716084D01*
X154464067Y-67584005D01*
X154680655Y-67406255D01*
X154858405Y-67189667D01*
X154940000Y-67037013D01*
X155021595Y-67189667D01*
X155199346Y-67406255D01*
X155415934Y-67584005D01*
X155663038Y-67716084D01*
X155931162Y-67797419D01*
X156210000Y-67824882D01*
X156488839Y-67797419D01*
X156756963Y-67716084D01*
X157004067Y-67584005D01*
X157220655Y-67406255D01*
X157398405Y-67189667D01*
X157480000Y-67037013D01*
X157561595Y-67189667D01*
X157739346Y-67406255D01*
X157955934Y-67584005D01*
X158203038Y-67716084D01*
X158471162Y-67797419D01*
X158750000Y-67824882D01*
X159028839Y-67797419D01*
X159296963Y-67716084D01*
X159544067Y-67584005D01*
X159760655Y-67406255D01*
X159938405Y-67189667D01*
X160020000Y-67037013D01*
X160101595Y-67189667D01*
X160279346Y-67406255D01*
X160495934Y-67584005D01*
X160743038Y-67716084D01*
X161011162Y-67797419D01*
X161290000Y-67824882D01*
X161568839Y-67797419D01*
X161836963Y-67716084D01*
X162084067Y-67584005D01*
X162300655Y-67406255D01*
X162478405Y-67189667D01*
X162556606Y-67043363D01*
X162641595Y-67202367D01*
X162819346Y-67418955D01*
X163035934Y-67596705D01*
X163283038Y-67728784D01*
X163551162Y-67810119D01*
X163830000Y-67837582D01*
X164108839Y-67810119D01*
X164376963Y-67728784D01*
X164624067Y-67596705D01*
X164840655Y-67418955D01*
X165018405Y-67202367D01*
X165100000Y-67049713D01*
X165181595Y-67202367D01*
X165359346Y-67418955D01*
X165575934Y-67596705D01*
X165823038Y-67728784D01*
X166091162Y-67810119D01*
X166370000Y-67837582D01*
X166648839Y-67810119D01*
X166916963Y-67728784D01*
X167164067Y-67596705D01*
X167380655Y-67418955D01*
X167558405Y-67202367D01*
X167577832Y-67166021D01*
X167667656Y-67382876D01*
X167977912Y-67847207D01*
X168372793Y-68242088D01*
X168837124Y-68552344D01*
X169353061Y-68766052D01*
X169900777Y-68875000D01*
X170459223Y-68875000D01*
X171006939Y-68766052D01*
X171522876Y-68552344D01*
X171987207Y-68242088D01*
X172382088Y-67847207D01*
X172692344Y-67382876D01*
X172886095Y-66915121D01*
X172904880Y-66943235D01*
X173099465Y-67137820D01*
X173328273Y-67290705D01*
X173405515Y-67322700D01*
X173328273Y-67354695D01*
X173099465Y-67507580D01*
X172904880Y-67702165D01*
X172751995Y-67930973D01*
X172646686Y-68185210D01*
X172593000Y-68455108D01*
X172593000Y-68730292D01*
X172646686Y-69000190D01*
X172751995Y-69254427D01*
X172904880Y-69483235D01*
X173099465Y-69677820D01*
X173328273Y-69830705D01*
X173405515Y-69862700D01*
X173328273Y-69894695D01*
X173099465Y-70047580D01*
X172904880Y-70242165D01*
X172751995Y-70470973D01*
X172646686Y-70725210D01*
X172593000Y-70995108D01*
X172593000Y-71270292D01*
X172646686Y-71540190D01*
X172751995Y-71794427D01*
X172904880Y-72023235D01*
X173099465Y-72217820D01*
X173328273Y-72370705D01*
X173405515Y-72402700D01*
X173328273Y-72434695D01*
X173099465Y-72587580D01*
X172904880Y-72782165D01*
X172751995Y-73010973D01*
X172646686Y-73265210D01*
X172593000Y-73535108D01*
X172593000Y-73810292D01*
X172646686Y-74080190D01*
X172751995Y-74334427D01*
X172904880Y-74563235D01*
X173099465Y-74757820D01*
X173328273Y-74910705D01*
X173405515Y-74942700D01*
X173328273Y-74974695D01*
X173099465Y-75127580D01*
X172904880Y-75322165D01*
X172751995Y-75550973D01*
X172646686Y-75805210D01*
X172593000Y-76075108D01*
X172593000Y-76350292D01*
X172646686Y-76620190D01*
X172751995Y-76874427D01*
X172904880Y-77103235D01*
X173099465Y-77297820D01*
X173328273Y-77450705D01*
X173405515Y-77482700D01*
X173328273Y-77514695D01*
X173099465Y-77667580D01*
X172904880Y-77862165D01*
X172751995Y-78090973D01*
X172646686Y-78345210D01*
X172593000Y-78615108D01*
X172593000Y-78890292D01*
X172646686Y-79160190D01*
X172751995Y-79414427D01*
X172904880Y-79643235D01*
X173099465Y-79837820D01*
X173328273Y-79990705D01*
X173405515Y-80022700D01*
X173328273Y-80054695D01*
X173099465Y-80207580D01*
X172904880Y-80402165D01*
X172751995Y-80630973D01*
X172646686Y-80885210D01*
X172593000Y-81155108D01*
X172593000Y-81430292D01*
X172646686Y-81700190D01*
X172751995Y-81954427D01*
X172904880Y-82183235D01*
X173099465Y-82377820D01*
X173328273Y-82530705D01*
X173405515Y-82562700D01*
X173328273Y-82594695D01*
X173099465Y-82747580D01*
X172904880Y-82942165D01*
X172751995Y-83170973D01*
X172646686Y-83425210D01*
X172593000Y-83695108D01*
X172593000Y-83970292D01*
X172646686Y-84240190D01*
X172751995Y-84494427D01*
X172904880Y-84723235D01*
X173099465Y-84917820D01*
X173328273Y-85070705D01*
X173405515Y-85102700D01*
X173328273Y-85134695D01*
X173099465Y-85287580D01*
X172904880Y-85482165D01*
X172751995Y-85710973D01*
X172646686Y-85965210D01*
X172593000Y-86235108D01*
X172593000Y-86510292D01*
X172646686Y-86780190D01*
X172751995Y-87034427D01*
X172904880Y-87263235D01*
X173099465Y-87457820D01*
X173328273Y-87610705D01*
X173405515Y-87642700D01*
X173328273Y-87674695D01*
X173099465Y-87827580D01*
X172904880Y-88022165D01*
X172751995Y-88250973D01*
X172646686Y-88505210D01*
X172593000Y-88775108D01*
X172593000Y-89050292D01*
X172646686Y-89320190D01*
X172751995Y-89574427D01*
X172904880Y-89803235D01*
X173099465Y-89997820D01*
X173328273Y-90150705D01*
X173405515Y-90182700D01*
X173328273Y-90214695D01*
X173099465Y-90367580D01*
X172904880Y-90562165D01*
X172751995Y-90790973D01*
X172646686Y-91045210D01*
X172593000Y-91315108D01*
X172593000Y-91590292D01*
X172646686Y-91860190D01*
X172751995Y-92114427D01*
X172904880Y-92343235D01*
X173099465Y-92537820D01*
X173328273Y-92690705D01*
X173405515Y-92722700D01*
X173328273Y-92754695D01*
X173099465Y-92907580D01*
X172904880Y-93102165D01*
X172751995Y-93330973D01*
X172646686Y-93585210D01*
X172593000Y-93855108D01*
X172593000Y-94130292D01*
X172646686Y-94400190D01*
X172751995Y-94654427D01*
X172904880Y-94883235D01*
X173099465Y-95077820D01*
X173328273Y-95230705D01*
X173405515Y-95262700D01*
X173328273Y-95294695D01*
X173099465Y-95447580D01*
X172904880Y-95642165D01*
X172751995Y-95870973D01*
X172646686Y-96125210D01*
X172593000Y-96395108D01*
X172593000Y-96670292D01*
X172646686Y-96940190D01*
X172751995Y-97194427D01*
X172904880Y-97423235D01*
X173099465Y-97617820D01*
X173328273Y-97770705D01*
X173405515Y-97802700D01*
X173328273Y-97834695D01*
X173099465Y-97987580D01*
X172904880Y-98182165D01*
X172751995Y-98410973D01*
X172646686Y-98665210D01*
X172593000Y-98935108D01*
X172593000Y-99210292D01*
X172646686Y-99480190D01*
X172751995Y-99734427D01*
X172904880Y-99963235D01*
X173099465Y-100157820D01*
X173328273Y-100310705D01*
X173405515Y-100342700D01*
X173328273Y-100374695D01*
X173099465Y-100527580D01*
X172904880Y-100722165D01*
X172751995Y-100950973D01*
X172646686Y-101205210D01*
X172593000Y-101475108D01*
X172593000Y-101750292D01*
X172646686Y-102020190D01*
X172751995Y-102274427D01*
X172904880Y-102503235D01*
X173099465Y-102697820D01*
X173328273Y-102850705D01*
X173405515Y-102882700D01*
X173328273Y-102914695D01*
X173099465Y-103067580D01*
X172904880Y-103262165D01*
X172751995Y-103490973D01*
X172646686Y-103745210D01*
X172593000Y-104015108D01*
X172593000Y-104290292D01*
X172646686Y-104560190D01*
X172751995Y-104814427D01*
X172904880Y-105043235D01*
X173099465Y-105237820D01*
X173328273Y-105390705D01*
X173405515Y-105422700D01*
X173328273Y-105454695D01*
X173099465Y-105607580D01*
X172904880Y-105802165D01*
X172751995Y-106030973D01*
X172646686Y-106285210D01*
X172593000Y-106555108D01*
X172593000Y-106830292D01*
X172646686Y-107100190D01*
X172751995Y-107354427D01*
X172904880Y-107583235D01*
X173099465Y-107777820D01*
X173328273Y-107930705D01*
X173405515Y-107962700D01*
X173328273Y-107994695D01*
X173099465Y-108147580D01*
X172904880Y-108342165D01*
X172751995Y-108570973D01*
X172646686Y-108825210D01*
X172593000Y-109095108D01*
X172593000Y-109370292D01*
X172646686Y-109640190D01*
X172751995Y-109894427D01*
X172904880Y-110123235D01*
X173099465Y-110317820D01*
X173328273Y-110470705D01*
X173582510Y-110576014D01*
X173852408Y-110629700D01*
X174127592Y-110629700D01*
X174397490Y-110576014D01*
X174651727Y-110470705D01*
X174880535Y-110317820D01*
X175075120Y-110123235D01*
X175228005Y-109894427D01*
X175260000Y-109817185D01*
X175291995Y-109894427D01*
X175444880Y-110123235D01*
X175639465Y-110317820D01*
X175868273Y-110470705D01*
X176122510Y-110576014D01*
X176392408Y-110629700D01*
X176667592Y-110629700D01*
X176937490Y-110576014D01*
X177191727Y-110470705D01*
X177420535Y-110317820D01*
X177615120Y-110123235D01*
X177768005Y-109894427D01*
X177873314Y-109640190D01*
X177927000Y-109370292D01*
X177927000Y-109095108D01*
X177873314Y-108825210D01*
X177768005Y-108570973D01*
X177615120Y-108342165D01*
X177420535Y-108147580D01*
X177191727Y-107994695D01*
X177114485Y-107962700D01*
X177191727Y-107930705D01*
X177420535Y-107777820D01*
X177615120Y-107583235D01*
X177768005Y-107354427D01*
X177873314Y-107100190D01*
X177927000Y-106830292D01*
X177927000Y-106555108D01*
X177873314Y-106285210D01*
X177768005Y-106030973D01*
X177615120Y-105802165D01*
X177420535Y-105607580D01*
X177191727Y-105454695D01*
X177114485Y-105422700D01*
X177191727Y-105390705D01*
X177420535Y-105237820D01*
X177615120Y-105043235D01*
X177768005Y-104814427D01*
X177873314Y-104560190D01*
X177927000Y-104290292D01*
X177927000Y-104015108D01*
X177873314Y-103745210D01*
X177768005Y-103490973D01*
X177615120Y-103262165D01*
X177420535Y-103067580D01*
X177191727Y-102914695D01*
X177114485Y-102882700D01*
X177191727Y-102850705D01*
X177420535Y-102697820D01*
X177615120Y-102503235D01*
X177768005Y-102274427D01*
X177873314Y-102020190D01*
X177927000Y-101750292D01*
X177927000Y-101475108D01*
X177873314Y-101205210D01*
X177768005Y-100950973D01*
X177615120Y-100722165D01*
X177420535Y-100527580D01*
X177191727Y-100374695D01*
X177114485Y-100342700D01*
X177191727Y-100310705D01*
X177420535Y-100157820D01*
X177615120Y-99963235D01*
X177768005Y-99734427D01*
X177873314Y-99480190D01*
X177927000Y-99210292D01*
X177927000Y-98935108D01*
X177873314Y-98665210D01*
X177768005Y-98410973D01*
X177615120Y-98182165D01*
X177420535Y-97987580D01*
X177191727Y-97834695D01*
X177114485Y-97802700D01*
X177191727Y-97770705D01*
X177420535Y-97617820D01*
X177615120Y-97423235D01*
X177768005Y-97194427D01*
X177873314Y-96940190D01*
X177927000Y-96670292D01*
X177927000Y-96395108D01*
X177873314Y-96125210D01*
X177768005Y-95870973D01*
X177615120Y-95642165D01*
X177420535Y-95447580D01*
X177191727Y-95294695D01*
X177114485Y-95262700D01*
X177191727Y-95230705D01*
X177420535Y-95077820D01*
X177615120Y-94883235D01*
X177768005Y-94654427D01*
X177873314Y-94400190D01*
X177927000Y-94130292D01*
X177927000Y-93855108D01*
X177873314Y-93585210D01*
X177768005Y-93330973D01*
X177615120Y-93102165D01*
X177420535Y-92907580D01*
X177191727Y-92754695D01*
X177114485Y-92722700D01*
X177191727Y-92690705D01*
X177420535Y-92537820D01*
X177615120Y-92343235D01*
X177768005Y-92114427D01*
X177873314Y-91860190D01*
X177927000Y-91590292D01*
X177927000Y-91315108D01*
X177873314Y-91045210D01*
X177768005Y-90790973D01*
X177615120Y-90562165D01*
X177420535Y-90367580D01*
X177191727Y-90214695D01*
X177114485Y-90182700D01*
X177191727Y-90150705D01*
X177420535Y-89997820D01*
X177615120Y-89803235D01*
X177768005Y-89574427D01*
X177873314Y-89320190D01*
X177927000Y-89050292D01*
X177927000Y-88775108D01*
X177873314Y-88505210D01*
X177768005Y-88250973D01*
X177615120Y-88022165D01*
X177420535Y-87827580D01*
X177191727Y-87674695D01*
X177114485Y-87642700D01*
X177191727Y-87610705D01*
X177420535Y-87457820D01*
X177615120Y-87263235D01*
X177768005Y-87034427D01*
X177873314Y-86780190D01*
X177927000Y-86510292D01*
X177927000Y-86235108D01*
X177873314Y-85965210D01*
X177768005Y-85710973D01*
X177615120Y-85482165D01*
X177420535Y-85287580D01*
X177191727Y-85134695D01*
X177114485Y-85102700D01*
X177191727Y-85070705D01*
X177420535Y-84917820D01*
X177615120Y-84723235D01*
X177768005Y-84494427D01*
X177873314Y-84240190D01*
X177927000Y-83970292D01*
X177927000Y-83695108D01*
X177873314Y-83425210D01*
X177768005Y-83170973D01*
X177615120Y-82942165D01*
X177420535Y-82747580D01*
X177191727Y-82594695D01*
X177114485Y-82562700D01*
X177191727Y-82530705D01*
X177420535Y-82377820D01*
X177615120Y-82183235D01*
X177768005Y-81954427D01*
X177873314Y-81700190D01*
X177927000Y-81430292D01*
X177927000Y-81155108D01*
X177873314Y-80885210D01*
X177768005Y-80630973D01*
X177615120Y-80402165D01*
X177420535Y-80207580D01*
X177191727Y-80054695D01*
X177114485Y-80022700D01*
X177191727Y-79990705D01*
X177420535Y-79837820D01*
X177615120Y-79643235D01*
X177768005Y-79414427D01*
X177873314Y-79160190D01*
X177927000Y-78890292D01*
X177927000Y-78615108D01*
X177873314Y-78345210D01*
X177768005Y-78090973D01*
X177615120Y-77862165D01*
X177420535Y-77667580D01*
X177191727Y-77514695D01*
X177114485Y-77482700D01*
X177191727Y-77450705D01*
X177420535Y-77297820D01*
X177615120Y-77103235D01*
X177768005Y-76874427D01*
X177873314Y-76620190D01*
X177927000Y-76350292D01*
X177927000Y-76075108D01*
X177873314Y-75805210D01*
X177768005Y-75550973D01*
X177615120Y-75322165D01*
X177420535Y-75127580D01*
X177191727Y-74974695D01*
X177114485Y-74942700D01*
X177191727Y-74910705D01*
X177420535Y-74757820D01*
X177615120Y-74563235D01*
X177768005Y-74334427D01*
X177873314Y-74080190D01*
X177927000Y-73810292D01*
X177927000Y-73535108D01*
X177873314Y-73265210D01*
X177768005Y-73010973D01*
X177615120Y-72782165D01*
X177420535Y-72587580D01*
X177191727Y-72434695D01*
X177114485Y-72402700D01*
X177191727Y-72370705D01*
X177420535Y-72217820D01*
X177615120Y-72023235D01*
X177768005Y-71794427D01*
X177873314Y-71540190D01*
X177927000Y-71270292D01*
X177927000Y-70995108D01*
X177873314Y-70725210D01*
X177768005Y-70470973D01*
X177615120Y-70242165D01*
X177420535Y-70047580D01*
X177191727Y-69894695D01*
X177114485Y-69862700D01*
X177191727Y-69830705D01*
X177420535Y-69677820D01*
X177615120Y-69483235D01*
X177768005Y-69254427D01*
X177873314Y-69000190D01*
X177927000Y-68730292D01*
X177927000Y-68455108D01*
X177873314Y-68185210D01*
X177768005Y-67930973D01*
X177615120Y-67702165D01*
X177420535Y-67507580D01*
X177191727Y-67354695D01*
X177114485Y-67322700D01*
X177191727Y-67290705D01*
X177420535Y-67137820D01*
X177615120Y-66943235D01*
X177768005Y-66714427D01*
X177873314Y-66460190D01*
X177927000Y-66190292D01*
X177927000Y-65915108D01*
X177873314Y-65645210D01*
X177768005Y-65390973D01*
X177615120Y-65162165D01*
X177420535Y-64967580D01*
X177191727Y-64814695D01*
X176937490Y-64709386D01*
X176667592Y-64655700D01*
X176392408Y-64655700D01*
X176122510Y-64709386D01*
X175868273Y-64814695D01*
X175639465Y-64967580D01*
X175444880Y-65162165D01*
X175291995Y-65390973D01*
X175260000Y-65468215D01*
X175228005Y-65390973D01*
X175075120Y-65162165D01*
X174880535Y-64967580D01*
X174651727Y-64814695D01*
X174397490Y-64709386D01*
X174127592Y-64655700D01*
X173852408Y-64655700D01*
X173582510Y-64709386D01*
X173328273Y-64814695D01*
X173099465Y-64967580D01*
X172904880Y-65162165D01*
X172892589Y-65180559D01*
X172692344Y-64697124D01*
X172382088Y-64232793D01*
X171987207Y-63837912D01*
X171522876Y-63527656D01*
X171006939Y-63313948D01*
X170459223Y-63205000D01*
X169900777Y-63205000D01*
X169353061Y-63313948D01*
X168837124Y-63527656D01*
X168372793Y-63837912D01*
X167977912Y-64232793D01*
X167667656Y-64697124D01*
X167571904Y-64928289D01*
X167558405Y-64903033D01*
X167380654Y-64686445D01*
X167164066Y-64508695D01*
X166916962Y-64376616D01*
X166648838Y-64295281D01*
X166370000Y-64267818D01*
X166091161Y-64295281D01*
X165823037Y-64376616D01*
X165575933Y-64508695D01*
X165359345Y-64686446D01*
X165181595Y-64903034D01*
X165100000Y-65055688D01*
X165018405Y-64903033D01*
X164840654Y-64686445D01*
X164624066Y-64508695D01*
X164376962Y-64376616D01*
X164108838Y-64295281D01*
X163830000Y-64267818D01*
X163551161Y-64295281D01*
X163283037Y-64376616D01*
X163035933Y-64508695D01*
X162819345Y-64686446D01*
X162641595Y-64903034D01*
X162563394Y-65049338D01*
X162478405Y-64890333D01*
X162300654Y-64673745D01*
X162084066Y-64495995D01*
X161836962Y-64363916D01*
X161568838Y-64282581D01*
X161290000Y-64255118D01*
X161011161Y-64282581D01*
X160743037Y-64363916D01*
X160495933Y-64495995D01*
X160279345Y-64673746D01*
X160101595Y-64890334D01*
X160020000Y-65042988D01*
X159938405Y-64890333D01*
X159760654Y-64673745D01*
X159544066Y-64495995D01*
X159296962Y-64363916D01*
X159028838Y-64282581D01*
X158750000Y-64255118D01*
X158471161Y-64282581D01*
X158203037Y-64363916D01*
X157955933Y-64495995D01*
X157739345Y-64673746D01*
X157561595Y-64890334D01*
X157480000Y-65042988D01*
X157398405Y-64890333D01*
X157220654Y-64673745D01*
X157004066Y-64495995D01*
X156756962Y-64363916D01*
X156488838Y-64282581D01*
X156210000Y-64255118D01*
X155931161Y-64282581D01*
X155663037Y-64363916D01*
X155415933Y-64495995D01*
X155199345Y-64673746D01*
X155021595Y-64890334D01*
X154940000Y-65042988D01*
X154858405Y-64890333D01*
X154680654Y-64673745D01*
X154464066Y-64495995D01*
X154216962Y-64363916D01*
X153948838Y-64282581D01*
X153670000Y-64255118D01*
X153391161Y-64282581D01*
X153123037Y-64363916D01*
X152875933Y-64495995D01*
X152659345Y-64673746D01*
X152481595Y-64890334D01*
X152400000Y-65042988D01*
X152318405Y-64890333D01*
X152140654Y-64673745D01*
X151924066Y-64495995D01*
X151676962Y-64363916D01*
X151408838Y-64282581D01*
X151130000Y-64255118D01*
X150851161Y-64282581D01*
X150583037Y-64363916D01*
X150335933Y-64495995D01*
X150119345Y-64673746D01*
X149941595Y-64890334D01*
X149860000Y-65042988D01*
X149778405Y-64890333D01*
X149600654Y-64673745D01*
X149384066Y-64495995D01*
X149136962Y-64363916D01*
X148868838Y-64282581D01*
X148590000Y-64255118D01*
X148311161Y-64282581D01*
X148043037Y-64363916D01*
X147795933Y-64495995D01*
X147579345Y-64673746D01*
X147401595Y-64890334D01*
X147269516Y-65137438D01*
X147188181Y-65405562D01*
X147167600Y-65614526D01*
X144931150Y-65614526D01*
X144911819Y-65418261D01*
X144830484Y-65150137D01*
X144698405Y-64903033D01*
X144520654Y-64686445D01*
X144304066Y-64508695D01*
X144056962Y-64376616D01*
X143788838Y-64295281D01*
X143510000Y-64267818D01*
X143231161Y-64295281D01*
X142963037Y-64376616D01*
X142715933Y-64508695D01*
X142499345Y-64686446D01*
X142321595Y-64903034D01*
X142243394Y-65049338D01*
X142158405Y-64890333D01*
X141980654Y-64673745D01*
X141764066Y-64495995D01*
X141516962Y-64363916D01*
X141248838Y-64282581D01*
X140970000Y-64255118D01*
X140691161Y-64282581D01*
X140423037Y-64363916D01*
X140175933Y-64495995D01*
X139959345Y-64673746D01*
X139781595Y-64890334D01*
X139700000Y-65042988D01*
X139618405Y-64890333D01*
X139440654Y-64673745D01*
X139224066Y-64495995D01*
X138976962Y-64363916D01*
X138708838Y-64282581D01*
X138430000Y-64255118D01*
X138151161Y-64282581D01*
X137883037Y-64363916D01*
X137635933Y-64495995D01*
X137419345Y-64673746D01*
X137241595Y-64890334D01*
X137160000Y-65042988D01*
X137078405Y-64890333D01*
X136900654Y-64673745D01*
X136684066Y-64495995D01*
X136436962Y-64363916D01*
X136168838Y-64282581D01*
X135890000Y-64255118D01*
X135611161Y-64282581D01*
X135343037Y-64363916D01*
X135095933Y-64495995D01*
X134879345Y-64673746D01*
X134701595Y-64890334D01*
X134620000Y-65042988D01*
X134538405Y-64890333D01*
X134360654Y-64673745D01*
X134144066Y-64495995D01*
X133896962Y-64363916D01*
X133628838Y-64282581D01*
X133350000Y-64255118D01*
X133071161Y-64282581D01*
X132803037Y-64363916D01*
X132555933Y-64495995D01*
X132339345Y-64673746D01*
X132161595Y-64890334D01*
X132080000Y-65042988D01*
X131998405Y-64890333D01*
X131820654Y-64673745D01*
X131604066Y-64495995D01*
X131356962Y-64363916D01*
X131088838Y-64282581D01*
X130810000Y-64255118D01*
X130531161Y-64282581D01*
X130263037Y-64363916D01*
X130015933Y-64495995D01*
X129799345Y-64673746D01*
X129621595Y-64890334D01*
X129540000Y-65042988D01*
X129458405Y-64890333D01*
X129280654Y-64673745D01*
X129064066Y-64495995D01*
X128816962Y-64363916D01*
X128548838Y-64282581D01*
X128270000Y-64255118D01*
X127991161Y-64282581D01*
X127723037Y-64363916D01*
X127475933Y-64495995D01*
X127259345Y-64673746D01*
X127081595Y-64890334D01*
X127000000Y-65042988D01*
X126918405Y-64890333D01*
X126740654Y-64673745D01*
X126524066Y-64495995D01*
X126276962Y-64363916D01*
X126008838Y-64282581D01*
X125730000Y-64255118D01*
X125451161Y-64282581D01*
X125183037Y-64363916D01*
X124935933Y-64495995D01*
X124719345Y-64673746D01*
X124541595Y-64890334D01*
X124409516Y-65137438D01*
X124328181Y-65405562D01*
X124307600Y-65614526D01*
X124307600Y-66465475D01*
X124328181Y-66674439D01*
X124409516Y-66942563D01*
X124541595Y-67189667D01*
X124719346Y-67406255D01*
X124935934Y-67584005D01*
X124970000Y-67602214D01*
X124970001Y-72441956D01*
X124815241Y-72545363D01*
X124615363Y-72745241D01*
X124460000Y-72977759D01*
X124304637Y-72745241D01*
X124104759Y-72545363D01*
X123944158Y-72438053D01*
X123939003Y-72385714D01*
X123895546Y-72242453D01*
X123824974Y-72110424D01*
X123730001Y-71994699D01*
X123700997Y-71970896D01*
X123538700Y-71808599D01*
X123538700Y-66077333D01*
X123542377Y-66040000D01*
X123527703Y-65891014D01*
X123484246Y-65747753D01*
X123413674Y-65615724D01*
X123318701Y-65499999D01*
X123202976Y-65405026D01*
X123070947Y-65334454D01*
X123043746Y-65326203D01*
X122986484Y-65137437D01*
X122854405Y-64890333D01*
X122676654Y-64673745D01*
X122460066Y-64495995D01*
X122212962Y-64363916D01*
X121944838Y-64282581D01*
X121666000Y-64255118D01*
X121387161Y-64282581D01*
X121119037Y-64363916D01*
X120871933Y-64495995D01*
X120655345Y-64673746D01*
X120477595Y-64890334D01*
X120396000Y-65042988D01*
X120314405Y-64890333D01*
X120136654Y-64673745D01*
X119920066Y-64495995D01*
X119672962Y-64363916D01*
X119404838Y-64282581D01*
X119126000Y-64255118D01*
X118847161Y-64282581D01*
X118579037Y-64363916D01*
X118331933Y-64495995D01*
X118115345Y-64673746D01*
X117937595Y-64890334D01*
X117856000Y-65042988D01*
X117774405Y-64890333D01*
X117596654Y-64673745D01*
X117380066Y-64495995D01*
X117132962Y-64363916D01*
X116864838Y-64282581D01*
X116586000Y-64255118D01*
X116307161Y-64282581D01*
X116039037Y-64363916D01*
X115791933Y-64495995D01*
X115575345Y-64673746D01*
X115397595Y-64890334D01*
X115316000Y-65042988D01*
X115234405Y-64890333D01*
X115056654Y-64673745D01*
X114840066Y-64495995D01*
X114592962Y-64363916D01*
X114324838Y-64282581D01*
X114046000Y-64255118D01*
X113767161Y-64282581D01*
X113499037Y-64363916D01*
X113251933Y-64495995D01*
X113035345Y-64673746D01*
X112857595Y-64890334D01*
X112776000Y-65042988D01*
X112694405Y-64890333D01*
X112516654Y-64673745D01*
X112300066Y-64495995D01*
X112052962Y-64363916D01*
X111784838Y-64282581D01*
X111506000Y-64255118D01*
X111227161Y-64282581D01*
X110959037Y-64363916D01*
X110711933Y-64495995D01*
X110495345Y-64673746D01*
X110317595Y-64890334D01*
X110236000Y-65042988D01*
X110154405Y-64890333D01*
X109976654Y-64673745D01*
X109760066Y-64495995D01*
X109512962Y-64363916D01*
X109244838Y-64282581D01*
X108966000Y-64255118D01*
X108687161Y-64282581D01*
X108419037Y-64363916D01*
X108171933Y-64495995D01*
X107955345Y-64673746D01*
X107777595Y-64890334D01*
X107695187Y-65044510D01*
X107691526Y-65035438D01*
X107538125Y-64801260D01*
X107341986Y-64601508D01*
X107110646Y-64443859D01*
X106852996Y-64334372D01*
X106773060Y-64317690D01*
X106553000Y-64439848D01*
X106553000Y-65925700D01*
X106573000Y-65925700D01*
X106573000Y-66179700D01*
X106553000Y-66179700D01*
X106553000Y-67665552D01*
X106773060Y-67787710D01*
X106852996Y-67771028D01*
X107110646Y-67661541D01*
X107341986Y-67503892D01*
X107538125Y-67304140D01*
X107691526Y-67069962D01*
X107701027Y-67046418D01*
X107777595Y-67189667D01*
X107955346Y-67406255D01*
X108171934Y-67584005D01*
X108206000Y-67602214D01*
X108206001Y-71203897D01*
X107438998Y-71970901D01*
X107410000Y-71994699D01*
X107386203Y-72023696D01*
X107386201Y-72023698D01*
X107315026Y-72110424D01*
X107244454Y-72242454D01*
X107221087Y-72319488D01*
X107200999Y-72385713D01*
X107200998Y-72385715D01*
X107195843Y-72438052D01*
X107035241Y-72545363D01*
X106835363Y-72745241D01*
X106678320Y-72980273D01*
X106570147Y-73241426D01*
X106515000Y-73518665D01*
X92100000Y-73518665D01*
X92100000Y-65760777D01*
X92415000Y-65760777D01*
X92415000Y-66319223D01*
X92523948Y-66866939D01*
X92737656Y-67382876D01*
X93047912Y-67847207D01*
X93442793Y-68242088D01*
X93907124Y-68552344D01*
X94423061Y-68766052D01*
X94970777Y-68875000D01*
X95529223Y-68875000D01*
X96076939Y-68766052D01*
X96592876Y-68552344D01*
X97057207Y-68242088D01*
X97452088Y-67847207D01*
X97762344Y-67382876D01*
X97763482Y-67380129D01*
X97795346Y-67418955D01*
X98011934Y-67596705D01*
X98259038Y-67728784D01*
X98527162Y-67810119D01*
X98806000Y-67837582D01*
X99084839Y-67810119D01*
X99352963Y-67728784D01*
X99600067Y-67596705D01*
X99816655Y-67418955D01*
X99994405Y-67202367D01*
X100076000Y-67049713D01*
X100157595Y-67202367D01*
X100335346Y-67418955D01*
X100551934Y-67596705D01*
X100799038Y-67728784D01*
X101067162Y-67810119D01*
X101346000Y-67837582D01*
X101624839Y-67810119D01*
X101892963Y-67728784D01*
X102140067Y-67596705D01*
X102356655Y-67418955D01*
X102534405Y-67202367D01*
X102616000Y-67049713D01*
X102697595Y-67202367D01*
X102875346Y-67418955D01*
X103091934Y-67596705D01*
X103339038Y-67728784D01*
X103607162Y-67810119D01*
X103886000Y-67837582D01*
X104164839Y-67810119D01*
X104432963Y-67728784D01*
X104680067Y-67596705D01*
X104896655Y-67418955D01*
X105074405Y-67202367D01*
X105153893Y-67053655D01*
X105160474Y-67069962D01*
X105313875Y-67304140D01*
X105510014Y-67503892D01*
X105741354Y-67661541D01*
X105999004Y-67771028D01*
X106078940Y-67787710D01*
X106299000Y-67665552D01*
X106299000Y-66179700D01*
X106279000Y-66179700D01*
X106279000Y-65925700D01*
X106299000Y-65925700D01*
X106299000Y-64439848D01*
X106078940Y-64317690D01*
X105999004Y-64334372D01*
X105741354Y-64443859D01*
X105510014Y-64601508D01*
X105313875Y-64801260D01*
X105160474Y-65035438D01*
X105153893Y-65051745D01*
X105074405Y-64903033D01*
X104896654Y-64686445D01*
X104680066Y-64508695D01*
X104432962Y-64376616D01*
X104164838Y-64295281D01*
X103886000Y-64267818D01*
X103607161Y-64295281D01*
X103339037Y-64376616D01*
X103091933Y-64508695D01*
X102875345Y-64686446D01*
X102697595Y-64903034D01*
X102616000Y-65055688D01*
X102534405Y-64903033D01*
X102356654Y-64686445D01*
X102140066Y-64508695D01*
X101892962Y-64376616D01*
X101624838Y-64295281D01*
X101346000Y-64267818D01*
X101067161Y-64295281D01*
X100799037Y-64376616D01*
X100551933Y-64508695D01*
X100335345Y-64686446D01*
X100157595Y-64903034D01*
X100076000Y-65055688D01*
X99994405Y-64903033D01*
X99816654Y-64686445D01*
X99600066Y-64508695D01*
X99352962Y-64376616D01*
X99084838Y-64295281D01*
X98806000Y-64267818D01*
X98527161Y-64295281D01*
X98259037Y-64376616D01*
X98011933Y-64508695D01*
X97795345Y-64686446D01*
X97770474Y-64716751D01*
X97762344Y-64697124D01*
X97452088Y-64232793D01*
X97057207Y-63837912D01*
X96592876Y-63527656D01*
X96076939Y-63313948D01*
X95529223Y-63205000D01*
X94970777Y-63205000D01*
X94423061Y-63313948D01*
X93907124Y-63527656D01*
X93442793Y-63837912D01*
X93047912Y-64232793D01*
X92737656Y-64697124D01*
X92523948Y-65213061D01*
X92415000Y-65760777D01*
X92100000Y-65760777D01*
X92100000Y-62890000D01*
X179680000Y-62890000D01*
X179680001Y-74897581D01*
G37*
X179680001Y-74897581D02*
X179676808Y-74930000D01*
X179680001Y-74962419D01*
X179687628Y-75039853D01*
X179689551Y-75059382D01*
X179727290Y-75183792D01*
X179788575Y-75298450D01*
X179850386Y-75373766D01*
X179850389Y-75373769D01*
X179871053Y-75398948D01*
X179896232Y-75419612D01*
X182220000Y-77743381D01*
X182220001Y-81247581D01*
X182220000Y-114026619D01*
X179896232Y-116350388D01*
X179871053Y-116371052D01*
X179850389Y-116396231D01*
X179850386Y-116396234D01*
X179788575Y-116471550D01*
X179727290Y-116586208D01*
X179689551Y-116710618D01*
X179676808Y-116840000D01*
X179680001Y-116872419D01*
X179680001Y-117450000D01*
X92100000Y-117450000D01*
X92100000Y-116429295D01*
X92172793Y-116502088D01*
X92637124Y-116812344D01*
X93153061Y-117026052D01*
X93700777Y-117135000D01*
X94259223Y-117135000D01*
X94806939Y-117026052D01*
X95322876Y-116812344D01*
X95787207Y-116502088D01*
X96182088Y-116107207D01*
X96492344Y-115642876D01*
X96706052Y-115126939D01*
X96815000Y-114579223D01*
X96815000Y-114020777D01*
X96706052Y-113473061D01*
X96492344Y-112957124D01*
X96182088Y-112492793D01*
X95787207Y-112097912D01*
X95322876Y-111787656D01*
X94806939Y-111573948D01*
X94259223Y-111465000D01*
X93700777Y-111465000D01*
X93153061Y-111573948D01*
X92637124Y-111787656D01*
X92172793Y-112097912D01*
X92100000Y-112170705D01*
X92100000Y-93838665D01*
X106515000Y-93838665D01*
X106515000Y-94121335D01*
X106570147Y-94398574D01*
X106678320Y-94659727D01*
X106835363Y-94894759D01*
X107035241Y-95094637D01*
X107270273Y-95251680D01*
X107531426Y-95359853D01*
X107808665Y-95415000D01*
X108091335Y-95415000D01*
X108368574Y-95359853D01*
X108629727Y-95251680D01*
X108864759Y-95094637D01*
X109064637Y-94894759D01*
X109221680Y-94659727D01*
X109226067Y-94649135D01*
X109337615Y-94835131D01*
X109526586Y-95043519D01*
X109752580Y-95211037D01*
X110006913Y-95331246D01*
X110140961Y-95371904D01*
X110363000Y-95249915D01*
X110363000Y-94107000D01*
X110343000Y-94107000D01*
X110343000Y-93853000D01*
X110363000Y-93853000D01*
X110363000Y-92710085D01*
X110140961Y-92588096D01*
X110006913Y-92628754D01*
X109752580Y-92748963D01*
X109526586Y-92916481D01*
X109337615Y-93124869D01*
X109226067Y-93310865D01*
X109221680Y-93300273D01*
X109064637Y-93065241D01*
X108864759Y-92865363D01*
X108629727Y-92708320D01*
X108368574Y-92600147D01*
X108091335Y-92545000D01*
X107808665Y-92545000D01*
X107531426Y-92600147D01*
X107270273Y-92708320D01*
X107035241Y-92865363D01*
X106835363Y-93065241D01*
X106678320Y-93300273D01*
X106570147Y-93561426D01*
X106515000Y-93838665D01*
X92100000Y-93838665D01*
X92100000Y-87160000D01*
X106511928Y-87160000D01*
X106524188Y-87284482D01*
X106560498Y-87404180D01*
X106619463Y-87514494D01*
X106698815Y-87611185D01*
X106795506Y-87690537D01*
X106905820Y-87749502D01*
X107025518Y-87785812D01*
X107150000Y-87798072D01*
X107664250Y-87795000D01*
X107823000Y-87636250D01*
X107823000Y-86487000D01*
X106673750Y-86487000D01*
X106515000Y-86645750D01*
X106511928Y-87160000D01*
X92100000Y-87160000D01*
X92100000Y-85560000D01*
X106511928Y-85560000D01*
X106515000Y-86074250D01*
X106673750Y-86233000D01*
X107823000Y-86233000D01*
X107823000Y-85083750D01*
X107664250Y-84925000D01*
X107150000Y-84921928D01*
X107025518Y-84934188D01*
X106905820Y-84970498D01*
X106795506Y-85029463D01*
X106698815Y-85108815D01*
X106619463Y-85205506D01*
X106560498Y-85315820D01*
X106524188Y-85435518D01*
X106511928Y-85560000D01*
X92100000Y-85560000D01*
X92100000Y-79732702D01*
X137696903Y-79732702D01*
X137768486Y-79976671D01*
X138023996Y-80097571D01*
X138298184Y-80166300D01*
X138580512Y-80180217D01*
X138860130Y-80138787D01*
X139126292Y-80043603D01*
X139251514Y-79976671D01*
X139323097Y-79732702D01*
X138510000Y-78919605D01*
X137696903Y-79732702D01*
X92100000Y-79732702D01*
X92100000Y-78810512D01*
X137069783Y-78810512D01*
X137111213Y-79090130D01*
X137206397Y-79356292D01*
X137273329Y-79481514D01*
X137517298Y-79553097D01*
X138330395Y-78740000D01*
X138689605Y-78740000D01*
X139502702Y-79553097D01*
X139746671Y-79481514D01*
X139867571Y-79226004D01*
X139936300Y-78951816D01*
X139950217Y-78669488D01*
X139908787Y-78389870D01*
X139813603Y-78123708D01*
X139746671Y-77998486D01*
X139502702Y-77926903D01*
X138689605Y-78740000D01*
X138330395Y-78740000D01*
X137517298Y-77926903D01*
X137273329Y-77998486D01*
X137152429Y-78253996D01*
X137083700Y-78528184D01*
X137069783Y-78810512D01*
X92100000Y-78810512D01*
X92100000Y-77747298D01*
X137696903Y-77747298D01*
X138510000Y-78560395D01*
X139323097Y-77747298D01*
X139251514Y-77503329D01*
X138996004Y-77382429D01*
X138721816Y-77313700D01*
X138439488Y-77299783D01*
X138159870Y-77341213D01*
X137893708Y-77436397D01*
X137768486Y-77503329D01*
X137696903Y-77747298D01*
X92100000Y-77747298D01*
X92100000Y-73518665D01*
X106515000Y-73518665D01*
X106515000Y-73801335D01*
X106570147Y-74078574D01*
X106678320Y-74339727D01*
X106835363Y-74574759D01*
X107035241Y-74774637D01*
X107270273Y-74931680D01*
X107531426Y-75039853D01*
X107808665Y-75095000D01*
X108091335Y-75095000D01*
X108368574Y-75039853D01*
X108629727Y-74931680D01*
X108864759Y-74774637D01*
X109064637Y-74574759D01*
X109220000Y-74342241D01*
X109375363Y-74574759D01*
X109575241Y-74774637D01*
X109810273Y-74931680D01*
X110071426Y-75039853D01*
X110348665Y-75095000D01*
X110631335Y-75095000D01*
X110908574Y-75039853D01*
X111169727Y-74931680D01*
X111404759Y-74774637D01*
X111604637Y-74574759D01*
X111760000Y-74342241D01*
X111915363Y-74574759D01*
X112115241Y-74774637D01*
X112350273Y-74931680D01*
X112611426Y-75039853D01*
X112888665Y-75095000D01*
X113171335Y-75095000D01*
X113448574Y-75039853D01*
X113709727Y-74931680D01*
X113944759Y-74774637D01*
X114144637Y-74574759D01*
X114300000Y-74342241D01*
X114455363Y-74574759D01*
X114655241Y-74774637D01*
X114890273Y-74931680D01*
X115151426Y-75039853D01*
X115428665Y-75095000D01*
X115711335Y-75095000D01*
X115988574Y-75039853D01*
X116249727Y-74931680D01*
X116484759Y-74774637D01*
X116684637Y-74574759D01*
X116840000Y-74342241D01*
X116995363Y-74574759D01*
X117195241Y-74774637D01*
X117430273Y-74931680D01*
X117691426Y-75039853D01*
X117968665Y-75095000D01*
X118251335Y-75095000D01*
X118528574Y-75039853D01*
X118789727Y-74931680D01*
X119024759Y-74774637D01*
X119224637Y-74574759D01*
X119380000Y-74342241D01*
X119535363Y-74574759D01*
X119735241Y-74774637D01*
X119970273Y-74931680D01*
X120231426Y-75039853D01*
X120508665Y-75095000D01*
X120791335Y-75095000D01*
X121068574Y-75039853D01*
X121329727Y-74931680D01*
X121564759Y-74774637D01*
X121764637Y-74574759D01*
X121920000Y-74342241D01*
X122075363Y-74574759D01*
X122275241Y-74774637D01*
X122510273Y-74931680D01*
X122771426Y-75039853D01*
X123048665Y-75095000D01*
X123331335Y-75095000D01*
X123608574Y-75039853D01*
X123869727Y-74931680D01*
X124104759Y-74774637D01*
X124304637Y-74574759D01*
X124460000Y-74342241D01*
X124615363Y-74574759D01*
X124815241Y-74774637D01*
X125050273Y-74931680D01*
X125311426Y-75039853D01*
X125588665Y-75095000D01*
X125871335Y-75095000D01*
X126148574Y-75039853D01*
X126409727Y-74931680D01*
X126644759Y-74774637D01*
X126844637Y-74574759D01*
X127001680Y-74339727D01*
X127109853Y-74078574D01*
X127165000Y-73801335D01*
X127165000Y-73518665D01*
X127137955Y-73382702D01*
X137696903Y-73382702D01*
X137768486Y-73626671D01*
X138023996Y-73747571D01*
X138298184Y-73816300D01*
X138580512Y-73830217D01*
X138860130Y-73788787D01*
X139126292Y-73693603D01*
X139251514Y-73626671D01*
X139323097Y-73382702D01*
X138510000Y-72569605D01*
X137696903Y-73382702D01*
X127137955Y-73382702D01*
X127109853Y-73241426D01*
X127001680Y-72980273D01*
X126844637Y-72745241D01*
X126644759Y-72545363D01*
X126517770Y-72460512D01*
X137069783Y-72460512D01*
X137111213Y-72740130D01*
X137206397Y-73006292D01*
X137273329Y-73131514D01*
X137517298Y-73203097D01*
X138330395Y-72390000D01*
X138689605Y-72390000D01*
X139502702Y-73203097D01*
X139746671Y-73131514D01*
X139867571Y-72876004D01*
X139936300Y-72601816D01*
X139950217Y-72319488D01*
X139908787Y-72039870D01*
X139813603Y-71773708D01*
X139746671Y-71648486D01*
X139502702Y-71576903D01*
X138689605Y-72390000D01*
X138330395Y-72390000D01*
X137517298Y-71576903D01*
X137273329Y-71648486D01*
X137152429Y-71903996D01*
X137083700Y-72178184D01*
X137069783Y-72460512D01*
X126517770Y-72460512D01*
X126490000Y-72441957D01*
X126490000Y-71397298D01*
X137696903Y-71397298D01*
X138510000Y-72210395D01*
X139323097Y-71397298D01*
X139251514Y-71153329D01*
X138996004Y-71032429D01*
X138721816Y-70963700D01*
X138439488Y-70949783D01*
X138159870Y-70991213D01*
X137893708Y-71086397D01*
X137768486Y-71153329D01*
X137696903Y-71397298D01*
X126490000Y-71397298D01*
X126490000Y-67602214D01*
X126524067Y-67584005D01*
X126740655Y-67406255D01*
X126918405Y-67189667D01*
X127000000Y-67037013D01*
X127081595Y-67189667D01*
X127259346Y-67406255D01*
X127475934Y-67584005D01*
X127723038Y-67716084D01*
X127991162Y-67797419D01*
X128270000Y-67824882D01*
X128548839Y-67797419D01*
X128816963Y-67716084D01*
X129064067Y-67584005D01*
X129280655Y-67406255D01*
X129458405Y-67189667D01*
X129540000Y-67037013D01*
X129621595Y-67189667D01*
X129799346Y-67406255D01*
X130015934Y-67584005D01*
X130263038Y-67716084D01*
X130531162Y-67797419D01*
X130810000Y-67824882D01*
X131088839Y-67797419D01*
X131356963Y-67716084D01*
X131604067Y-67584005D01*
X131820655Y-67406255D01*
X131998405Y-67189667D01*
X132080000Y-67037013D01*
X132161595Y-67189667D01*
X132339346Y-67406255D01*
X132555934Y-67584005D01*
X132803038Y-67716084D01*
X133071162Y-67797419D01*
X133350000Y-67824882D01*
X133628839Y-67797419D01*
X133896963Y-67716084D01*
X134144067Y-67584005D01*
X134360655Y-67406255D01*
X134538405Y-67189667D01*
X134620000Y-67037013D01*
X134701595Y-67189667D01*
X134879346Y-67406255D01*
X135095934Y-67584005D01*
X135343038Y-67716084D01*
X135611162Y-67797419D01*
X135890000Y-67824882D01*
X136168839Y-67797419D01*
X136436963Y-67716084D01*
X136684067Y-67584005D01*
X136900655Y-67406255D01*
X137078405Y-67189667D01*
X137160000Y-67037013D01*
X137241595Y-67189667D01*
X137419346Y-67406255D01*
X137635934Y-67584005D01*
X137883038Y-67716084D01*
X138151162Y-67797419D01*
X138430000Y-67824882D01*
X138708839Y-67797419D01*
X138976963Y-67716084D01*
X139224067Y-67584005D01*
X139241663Y-67569564D01*
X142806382Y-71134283D01*
X142595241Y-71275363D01*
X142395363Y-71475241D01*
X142238320Y-71710273D01*
X142130147Y-71971426D01*
X142075000Y-72248665D01*
X142075000Y-72531335D01*
X142130147Y-72808574D01*
X142238320Y-73069727D01*
X142375001Y-73274285D01*
X142375000Y-77855716D01*
X142238320Y-78060273D01*
X142130147Y-78321426D01*
X142075000Y-78598665D01*
X142075000Y-78881335D01*
X142130147Y-79158574D01*
X142238320Y-79419727D01*
X142375001Y-79624285D01*
X142375000Y-81264278D01*
X142369509Y-81320058D01*
X142378312Y-81409383D01*
X142391423Y-81542498D01*
X142391432Y-81542529D01*
X142391435Y-81542556D01*
X142421168Y-81640552D01*
X142456324Y-81756446D01*
X142456339Y-81756475D01*
X142456347Y-81756500D01*
X142503140Y-81844034D01*
X142561716Y-81953623D01*
X142561737Y-81953649D01*
X142561749Y-81953671D01*
X142620783Y-82025597D01*
X142703551Y-82126449D01*
X142746887Y-82162014D01*
X142877927Y-82293040D01*
X127242900Y-97928069D01*
X124682626Y-95367795D01*
X124685820Y-95369502D01*
X124805518Y-95405812D01*
X124930000Y-95418072D01*
X125444250Y-95415000D01*
X125603000Y-95256250D01*
X125603000Y-94107000D01*
X125857000Y-94107000D01*
X125857000Y-95256250D01*
X126015750Y-95415000D01*
X126530000Y-95418072D01*
X126654482Y-95405812D01*
X126774180Y-95369502D01*
X126884494Y-95310537D01*
X126981185Y-95231185D01*
X127060537Y-95134494D01*
X127119502Y-95024180D01*
X127155812Y-94904482D01*
X127168072Y-94780000D01*
X127165000Y-94265750D01*
X127006250Y-94107000D01*
X125857000Y-94107000D01*
X125603000Y-94107000D01*
X125583000Y-94107000D01*
X125583000Y-93853000D01*
X125603000Y-93853000D01*
X125603000Y-92703750D01*
X125857000Y-92703750D01*
X125857000Y-93853000D01*
X127006250Y-93853000D01*
X127165000Y-93694250D01*
X127168072Y-93180000D01*
X127155812Y-93055518D01*
X127119502Y-92935820D01*
X127060537Y-92825506D01*
X126981185Y-92728815D01*
X126884494Y-92649463D01*
X126774180Y-92590498D01*
X126654482Y-92554188D01*
X126530000Y-92541928D01*
X126015750Y-92545000D01*
X125857000Y-92703750D01*
X125603000Y-92703750D01*
X125444250Y-92545000D01*
X124930000Y-92541928D01*
X124805518Y-92554188D01*
X124685820Y-92590498D01*
X124575506Y-92649463D01*
X124478815Y-92728815D01*
X124399463Y-92825506D01*
X124340498Y-92935820D01*
X124304188Y-93055518D01*
X124303357Y-93063961D01*
X124104759Y-92865363D01*
X123869727Y-92708320D01*
X123608574Y-92600147D01*
X123367282Y-92552150D01*
X119182396Y-88367265D01*
X119146849Y-88323951D01*
X118974023Y-88182116D01*
X118776847Y-88076724D01*
X118562899Y-88011823D01*
X118396152Y-87995400D01*
X118396151Y-87995400D01*
X118340400Y-87989909D01*
X118284649Y-87995400D01*
X113730532Y-87995400D01*
X113467249Y-87732117D01*
X113709727Y-87631680D01*
X113944759Y-87474637D01*
X114144637Y-87274759D01*
X114300000Y-87042241D01*
X114455363Y-87274759D01*
X114655241Y-87474637D01*
X114890273Y-87631680D01*
X115151426Y-87739853D01*
X115428665Y-87795000D01*
X115711335Y-87795000D01*
X115988574Y-87739853D01*
X116249727Y-87631680D01*
X116484759Y-87474637D01*
X116684637Y-87274759D01*
X116840000Y-87042241D01*
X116995363Y-87274759D01*
X117195241Y-87474637D01*
X117430273Y-87631680D01*
X117691426Y-87739853D01*
X117968665Y-87795000D01*
X118251335Y-87795000D01*
X118528574Y-87739853D01*
X118789727Y-87631680D01*
X119024759Y-87474637D01*
X119224637Y-87274759D01*
X119380000Y-87042241D01*
X119535363Y-87274759D01*
X119735241Y-87474637D01*
X119970273Y-87631680D01*
X120231426Y-87739853D01*
X120508665Y-87795000D01*
X120791335Y-87795000D01*
X121068574Y-87739853D01*
X121329727Y-87631680D01*
X121564759Y-87474637D01*
X121764637Y-87274759D01*
X121921680Y-87039727D01*
X121926067Y-87029135D01*
X122037615Y-87215131D01*
X122226586Y-87423519D01*
X122452580Y-87591037D01*
X122706913Y-87711246D01*
X122840961Y-87751904D01*
X123063000Y-87629915D01*
X123063000Y-86487000D01*
X123043000Y-86487000D01*
X123043000Y-86233000D01*
X123063000Y-86233000D01*
X123063000Y-85090085D01*
X123317000Y-85090085D01*
X123317000Y-86233000D01*
X123337000Y-86233000D01*
X123337000Y-86487000D01*
X123317000Y-86487000D01*
X123317000Y-87629915D01*
X123539039Y-87751904D01*
X123673087Y-87711246D01*
X123927420Y-87591037D01*
X124153414Y-87423519D01*
X124342385Y-87215131D01*
X124453933Y-87029135D01*
X124458320Y-87039727D01*
X124615363Y-87274759D01*
X124815241Y-87474637D01*
X125050273Y-87631680D01*
X125311426Y-87739853D01*
X125588665Y-87795000D01*
X125871335Y-87795000D01*
X126148574Y-87739853D01*
X126409727Y-87631680D01*
X126644759Y-87474637D01*
X126844637Y-87274759D01*
X127001680Y-87039727D01*
X127109853Y-86778574D01*
X127165000Y-86501335D01*
X127165000Y-86218665D01*
X127109853Y-85941426D01*
X127001680Y-85680273D01*
X126844637Y-85445241D01*
X126644759Y-85245363D01*
X126409727Y-85088320D01*
X126148574Y-84980147D01*
X125871335Y-84925000D01*
X125588665Y-84925000D01*
X125311426Y-84980147D01*
X125050273Y-85088320D01*
X124815241Y-85245363D01*
X124615363Y-85445241D01*
X124458320Y-85680273D01*
X124453933Y-85690865D01*
X124342385Y-85504869D01*
X124153414Y-85296481D01*
X123927420Y-85128963D01*
X123673087Y-85008754D01*
X123539039Y-84968096D01*
X123317000Y-85090085D01*
X123063000Y-85090085D01*
X122840961Y-84968096D01*
X122706913Y-85008754D01*
X122452580Y-85128963D01*
X122226586Y-85296481D01*
X122037615Y-85504869D01*
X121926067Y-85690865D01*
X121921680Y-85680273D01*
X121764637Y-85445241D01*
X121564759Y-85245363D01*
X121329727Y-85088320D01*
X121068574Y-84980147D01*
X120791335Y-84925000D01*
X120508665Y-84925000D01*
X120231426Y-84980147D01*
X119970273Y-85088320D01*
X119735241Y-85245363D01*
X119535363Y-85445241D01*
X119380000Y-85677759D01*
X119224637Y-85445241D01*
X119024759Y-85245363D01*
X118789727Y-85088320D01*
X118528574Y-84980147D01*
X118251335Y-84925000D01*
X117968665Y-84925000D01*
X117691426Y-84980147D01*
X117430273Y-85088320D01*
X117195241Y-85245363D01*
X116995363Y-85445241D01*
X116840000Y-85677759D01*
X116684637Y-85445241D01*
X116484759Y-85245363D01*
X116249727Y-85088320D01*
X115988574Y-84980147D01*
X115711335Y-84925000D01*
X115428665Y-84925000D01*
X115151426Y-84980147D01*
X114890273Y-85088320D01*
X114655241Y-85245363D01*
X114455363Y-85445241D01*
X114300000Y-85677759D01*
X114144637Y-85445241D01*
X113944759Y-85245363D01*
X113709727Y-85088320D01*
X113448574Y-84980147D01*
X113171335Y-84925000D01*
X112888665Y-84925000D01*
X112611426Y-84980147D01*
X112350273Y-85088320D01*
X112115241Y-85245363D01*
X111915363Y-85445241D01*
X111760000Y-85677759D01*
X111604637Y-85445241D01*
X111404759Y-85245363D01*
X111169727Y-85088320D01*
X110908574Y-84980147D01*
X110631335Y-84925000D01*
X110348665Y-84925000D01*
X110071426Y-84980147D01*
X109810273Y-85088320D01*
X109575241Y-85245363D01*
X109376643Y-85443961D01*
X109375812Y-85435518D01*
X109339502Y-85315820D01*
X109280537Y-85205506D01*
X109201185Y-85108815D01*
X109104494Y-85029463D01*
X108994180Y-84970498D01*
X108874482Y-84934188D01*
X108750000Y-84921928D01*
X108235750Y-84925000D01*
X108077000Y-85083750D01*
X108077000Y-86233000D01*
X108097000Y-86233000D01*
X108097000Y-86487000D01*
X108077000Y-86487000D01*
X108077000Y-87636250D01*
X108235750Y-87795000D01*
X108750000Y-87798072D01*
X108874482Y-87785812D01*
X108994180Y-87749502D01*
X109104494Y-87690537D01*
X109201185Y-87611185D01*
X109280537Y-87514494D01*
X109339502Y-87404180D01*
X109375812Y-87284482D01*
X109376643Y-87276039D01*
X109575241Y-87474637D01*
X109810273Y-87631680D01*
X110071426Y-87739853D01*
X110312718Y-87787850D01*
X112418409Y-89893541D01*
X112453951Y-89936849D01*
X112626777Y-90078684D01*
X112823953Y-90184076D01*
X113037901Y-90248977D01*
X113204648Y-90265400D01*
X113204657Y-90265400D01*
X113260399Y-90270890D01*
X113316141Y-90265400D01*
X117870269Y-90265400D01*
X120212751Y-92607882D01*
X119970273Y-92708320D01*
X119735241Y-92865363D01*
X119535363Y-93065241D01*
X119380000Y-93297759D01*
X119224637Y-93065241D01*
X119024759Y-92865363D01*
X118789727Y-92708320D01*
X118528574Y-92600147D01*
X118251335Y-92545000D01*
X117968665Y-92545000D01*
X117691426Y-92600147D01*
X117430273Y-92708320D01*
X117195241Y-92865363D01*
X116995363Y-93065241D01*
X116840000Y-93297759D01*
X116684637Y-93065241D01*
X116484759Y-92865363D01*
X116249727Y-92708320D01*
X115988574Y-92600147D01*
X115711335Y-92545000D01*
X115428665Y-92545000D01*
X115151426Y-92600147D01*
X114890273Y-92708320D01*
X114655241Y-92865363D01*
X114455363Y-93065241D01*
X114300000Y-93297759D01*
X114144637Y-93065241D01*
X113944759Y-92865363D01*
X113709727Y-92708320D01*
X113448574Y-92600147D01*
X113171335Y-92545000D01*
X112888665Y-92545000D01*
X112611426Y-92600147D01*
X112350273Y-92708320D01*
X112115241Y-92865363D01*
X111915363Y-93065241D01*
X111758320Y-93300273D01*
X111753933Y-93310865D01*
X111642385Y-93124869D01*
X111453414Y-92916481D01*
X111227420Y-92748963D01*
X110973087Y-92628754D01*
X110839039Y-92588096D01*
X110617000Y-92710085D01*
X110617000Y-93853000D01*
X110637000Y-93853000D01*
X110637000Y-94107000D01*
X110617000Y-94107000D01*
X110617000Y-95249915D01*
X110839039Y-95371904D01*
X110973087Y-95331246D01*
X111227420Y-95211037D01*
X111453414Y-95043519D01*
X111642385Y-94835131D01*
X111753933Y-94649135D01*
X111758320Y-94659727D01*
X111915363Y-94894759D01*
X112115241Y-95094637D01*
X112350273Y-95251680D01*
X112611426Y-95359853D01*
X112888665Y-95415000D01*
X113171335Y-95415000D01*
X113448574Y-95359853D01*
X113709727Y-95251680D01*
X113944759Y-95094637D01*
X114144637Y-94894759D01*
X114300000Y-94662241D01*
X114455363Y-94894759D01*
X114655241Y-95094637D01*
X114890273Y-95251680D01*
X115151426Y-95359853D01*
X115428665Y-95415000D01*
X115711335Y-95415000D01*
X115988574Y-95359853D01*
X116249727Y-95251680D01*
X116484759Y-95094637D01*
X116684637Y-94894759D01*
X116840000Y-94662241D01*
X116995363Y-94894759D01*
X117195241Y-95094637D01*
X117430273Y-95251680D01*
X117691426Y-95359853D01*
X117968665Y-95415000D01*
X118251335Y-95415000D01*
X118528574Y-95359853D01*
X118789727Y-95251680D01*
X119024759Y-95094637D01*
X119224637Y-94894759D01*
X119380000Y-94662241D01*
X119535363Y-94894759D01*
X119735241Y-95094637D01*
X119970273Y-95251680D01*
X120231426Y-95359853D01*
X120508665Y-95415000D01*
X120791335Y-95415000D01*
X121068574Y-95359853D01*
X121329727Y-95251680D01*
X121564759Y-95094637D01*
X121764637Y-94894759D01*
X121920000Y-94662241D01*
X122055000Y-94864284D01*
X122055000Y-95424549D01*
X122049509Y-95480300D01*
X122071423Y-95702798D01*
X122136324Y-95916746D01*
X122136325Y-95916747D01*
X122241717Y-96113923D01*
X122383552Y-96286749D01*
X122426860Y-96322291D01*
X126107901Y-100003333D01*
X126107900Y-105292056D01*
X125871335Y-105245000D01*
X125588665Y-105245000D01*
X125311426Y-105300147D01*
X125050273Y-105408320D01*
X124815241Y-105565363D01*
X124615363Y-105765241D01*
X124460000Y-105997759D01*
X124304637Y-105765241D01*
X124104759Y-105565363D01*
X123869727Y-105408320D01*
X123608574Y-105300147D01*
X123331335Y-105245000D01*
X123048665Y-105245000D01*
X122771426Y-105300147D01*
X122510273Y-105408320D01*
X122275241Y-105565363D01*
X122075363Y-105765241D01*
X121920000Y-105997759D01*
X121764637Y-105765241D01*
X121564759Y-105565363D01*
X121329727Y-105408320D01*
X121068574Y-105300147D01*
X120791335Y-105245000D01*
X120508665Y-105245000D01*
X120231426Y-105300147D01*
X119970273Y-105408320D01*
X119735241Y-105565363D01*
X119535363Y-105765241D01*
X119380000Y-105997759D01*
X119224637Y-105765241D01*
X119024759Y-105565363D01*
X118789727Y-105408320D01*
X118528574Y-105300147D01*
X118251335Y-105245000D01*
X117968665Y-105245000D01*
X117691426Y-105300147D01*
X117430273Y-105408320D01*
X117195241Y-105565363D01*
X116995363Y-105765241D01*
X116840000Y-105997759D01*
X116684637Y-105765241D01*
X116484759Y-105565363D01*
X116249727Y-105408320D01*
X115988574Y-105300147D01*
X115711335Y-105245000D01*
X115428665Y-105245000D01*
X115151426Y-105300147D01*
X114890273Y-105408320D01*
X114655241Y-105565363D01*
X114455363Y-105765241D01*
X114300000Y-105997759D01*
X114144637Y-105765241D01*
X113944759Y-105565363D01*
X113709727Y-105408320D01*
X113448574Y-105300147D01*
X113171335Y-105245000D01*
X112888665Y-105245000D01*
X112611426Y-105300147D01*
X112350273Y-105408320D01*
X112115241Y-105565363D01*
X111915363Y-105765241D01*
X111760000Y-105997759D01*
X111604637Y-105765241D01*
X111404759Y-105565363D01*
X111169727Y-105408320D01*
X110908574Y-105300147D01*
X110631335Y-105245000D01*
X110348665Y-105245000D01*
X110071426Y-105300147D01*
X109810273Y-105408320D01*
X109575241Y-105565363D01*
X109375363Y-105765241D01*
X109220000Y-105997759D01*
X109064637Y-105765241D01*
X108864759Y-105565363D01*
X108629727Y-105408320D01*
X108368574Y-105300147D01*
X108091335Y-105245000D01*
X107808665Y-105245000D01*
X107531426Y-105300147D01*
X107270273Y-105408320D01*
X107035241Y-105565363D01*
X106835363Y-105765241D01*
X106678320Y-106000273D01*
X106570147Y-106261426D01*
X106515000Y-106538665D01*
X106515000Y-106821335D01*
X106570147Y-107098574D01*
X106678320Y-107359727D01*
X106835363Y-107594759D01*
X107035241Y-107794637D01*
X107270273Y-107951680D01*
X107531426Y-108059853D01*
X107808665Y-108115000D01*
X108091335Y-108115000D01*
X108368574Y-108059853D01*
X108629727Y-107951680D01*
X108864759Y-107794637D01*
X109064637Y-107594759D01*
X109220000Y-107362241D01*
X109375363Y-107594759D01*
X109575241Y-107794637D01*
X109810273Y-107951680D01*
X110071426Y-108059853D01*
X110348665Y-108115000D01*
X110631335Y-108115000D01*
X110908574Y-108059853D01*
X111169727Y-107951680D01*
X111404759Y-107794637D01*
X111604637Y-107594759D01*
X111760000Y-107362241D01*
X111915363Y-107594759D01*
X112115241Y-107794637D01*
X112350273Y-107951680D01*
X112611426Y-108059853D01*
X112888665Y-108115000D01*
X113171335Y-108115000D01*
X113448574Y-108059853D01*
X113709727Y-107951680D01*
X113944759Y-107794637D01*
X114144637Y-107594759D01*
X114300000Y-107362241D01*
X114455363Y-107594759D01*
X114655241Y-107794637D01*
X114890273Y-107951680D01*
X115151426Y-108059853D01*
X115428665Y-108115000D01*
X115711335Y-108115000D01*
X115988574Y-108059853D01*
X116249727Y-107951680D01*
X116484759Y-107794637D01*
X116684637Y-107594759D01*
X116840000Y-107362241D01*
X116995363Y-107594759D01*
X117195241Y-107794637D01*
X117430273Y-107951680D01*
X117691426Y-108059853D01*
X117968665Y-108115000D01*
X118251335Y-108115000D01*
X118528574Y-108059853D01*
X118789727Y-107951680D01*
X119024759Y-107794637D01*
X119224637Y-107594759D01*
X119380000Y-107362241D01*
X119535363Y-107594759D01*
X119735241Y-107794637D01*
X119970273Y-107951680D01*
X120231426Y-108059853D01*
X120508665Y-108115000D01*
X120791335Y-108115000D01*
X121068574Y-108059853D01*
X121329727Y-107951680D01*
X121564759Y-107794637D01*
X121764637Y-107594759D01*
X121920000Y-107362241D01*
X122075363Y-107594759D01*
X122275241Y-107794637D01*
X122510273Y-107951680D01*
X122771426Y-108059853D01*
X122777055Y-108060973D01*
X122662956Y-108154611D01*
X122662954Y-108154613D01*
X122619651Y-108190151D01*
X122584113Y-108233454D01*
X118273634Y-112543934D01*
X118110000Y-112527818D01*
X117831161Y-112555281D01*
X117563037Y-112636616D01*
X117315933Y-112768695D01*
X117099345Y-112946446D01*
X116921595Y-113163034D01*
X116840000Y-113315688D01*
X116758405Y-113163033D01*
X116580654Y-112946445D01*
X116364066Y-112768695D01*
X116116962Y-112636616D01*
X115848838Y-112555281D01*
X115570000Y-112527818D01*
X115291161Y-112555281D01*
X115023037Y-112636616D01*
X114775933Y-112768695D01*
X114559345Y-112946446D01*
X114381595Y-113163034D01*
X114300000Y-113315688D01*
X114218405Y-113163033D01*
X114040654Y-112946445D01*
X113824066Y-112768695D01*
X113576962Y-112636616D01*
X113308838Y-112555281D01*
X113030000Y-112527818D01*
X112751161Y-112555281D01*
X112483037Y-112636616D01*
X112235933Y-112768695D01*
X112019345Y-112946446D01*
X111841595Y-113163034D01*
X111760000Y-113315688D01*
X111678405Y-113163033D01*
X111500654Y-112946445D01*
X111284066Y-112768695D01*
X111036962Y-112636616D01*
X110768838Y-112555281D01*
X110490000Y-112527818D01*
X110211161Y-112555281D01*
X109943037Y-112636616D01*
X109695933Y-112768695D01*
X109479345Y-112946446D01*
X109301595Y-113163034D01*
X109220000Y-113315688D01*
X109138405Y-113163033D01*
X108960654Y-112946445D01*
X108744066Y-112768695D01*
X108496962Y-112636616D01*
X108228838Y-112555281D01*
X107950000Y-112527818D01*
X107671161Y-112555281D01*
X107403037Y-112636616D01*
X107155933Y-112768695D01*
X106939345Y-112946446D01*
X106761595Y-113163034D01*
X106629516Y-113410138D01*
X106548181Y-113678262D01*
X106527600Y-113887226D01*
X106527600Y-114738175D01*
X106548181Y-114947139D01*
X106629516Y-115215263D01*
X106761595Y-115462367D01*
X106939346Y-115678955D01*
X107155934Y-115856705D01*
X107403038Y-115988784D01*
X107671162Y-116070119D01*
X107950000Y-116097582D01*
X108228839Y-116070119D01*
X108496963Y-115988784D01*
X108744067Y-115856705D01*
X108960655Y-115678955D01*
X109138405Y-115462367D01*
X109220000Y-115309713D01*
X109301595Y-115462367D01*
X109479346Y-115678955D01*
X109695934Y-115856705D01*
X109943038Y-115988784D01*
X110211162Y-116070119D01*
X110490000Y-116097582D01*
X110768839Y-116070119D01*
X111036963Y-115988784D01*
X111284067Y-115856705D01*
X111500655Y-115678955D01*
X111678405Y-115462367D01*
X111760000Y-115309713D01*
X111841595Y-115462367D01*
X112019346Y-115678955D01*
X112235934Y-115856705D01*
X112483038Y-115988784D01*
X112751162Y-116070119D01*
X113030000Y-116097582D01*
X113308839Y-116070119D01*
X113576963Y-115988784D01*
X113824067Y-115856705D01*
X114040655Y-115678955D01*
X114218405Y-115462367D01*
X114300000Y-115309713D01*
X114381595Y-115462367D01*
X114559346Y-115678955D01*
X114775934Y-115856705D01*
X115023038Y-115988784D01*
X115291162Y-116070119D01*
X115570000Y-116097582D01*
X115848839Y-116070119D01*
X116116963Y-115988784D01*
X116364067Y-115856705D01*
X116580655Y-115678955D01*
X116758405Y-115462367D01*
X116840000Y-115309713D01*
X116921595Y-115462367D01*
X117099346Y-115678955D01*
X117315934Y-115856705D01*
X117563038Y-115988784D01*
X117831162Y-116070119D01*
X118110000Y-116097582D01*
X118388839Y-116070119D01*
X118656963Y-115988784D01*
X118904067Y-115856705D01*
X119120655Y-115678955D01*
X119298405Y-115462367D01*
X119377893Y-115313655D01*
X119384474Y-115329962D01*
X119537875Y-115564140D01*
X119734014Y-115763892D01*
X119965354Y-115921541D01*
X120223004Y-116031028D01*
X120302940Y-116047710D01*
X120523000Y-115925552D01*
X120523000Y-114439700D01*
X120777000Y-114439700D01*
X120777000Y-115925552D01*
X120997060Y-116047710D01*
X121076996Y-116031028D01*
X121334646Y-115921541D01*
X121565986Y-115763892D01*
X121762125Y-115564140D01*
X121915526Y-115329962D01*
X121920000Y-115318876D01*
X121924474Y-115329962D01*
X122077875Y-115564140D01*
X122274014Y-115763892D01*
X122505354Y-115921541D01*
X122763004Y-116031028D01*
X122842940Y-116047710D01*
X123063000Y-115925552D01*
X123063000Y-114439700D01*
X120777000Y-114439700D01*
X120523000Y-114439700D01*
X120503000Y-114439700D01*
X120503000Y-114185700D01*
X120523000Y-114185700D01*
X120523000Y-114165700D01*
X120777000Y-114165700D01*
X120777000Y-114185700D01*
X123063000Y-114185700D01*
X123063000Y-112699848D01*
X122842940Y-112577690D01*
X122763004Y-112594372D01*
X122505354Y-112703859D01*
X122274014Y-112861508D01*
X122077875Y-113061260D01*
X121924474Y-113295438D01*
X121920000Y-113306524D01*
X121915526Y-113295438D01*
X121762125Y-113061260D01*
X121565986Y-112861508D01*
X121334646Y-112703859D01*
X121327156Y-112700676D01*
X123896233Y-110131600D01*
X125536249Y-110131600D01*
X125592000Y-110137091D01*
X125647751Y-110131600D01*
X125647752Y-110131600D01*
X125814499Y-110115177D01*
X126028447Y-110050276D01*
X126225623Y-109944884D01*
X126398449Y-109803049D01*
X126433996Y-109759735D01*
X128006040Y-108187691D01*
X128049349Y-108152149D01*
X128191184Y-107979323D01*
X128296576Y-107782147D01*
X128356916Y-107583235D01*
X128361477Y-107568200D01*
X128367861Y-107503376D01*
X128377900Y-107401452D01*
X128377900Y-107401445D01*
X128383390Y-107345701D01*
X128377900Y-107289957D01*
X128377900Y-100003331D01*
X134598529Y-93782702D01*
X137616903Y-93782702D01*
X137688486Y-94026671D01*
X137943996Y-94147571D01*
X138218184Y-94216300D01*
X138500512Y-94230217D01*
X138780130Y-94188787D01*
X139046292Y-94093603D01*
X139171514Y-94026671D01*
X139243097Y-93782702D01*
X138430000Y-92969605D01*
X137616903Y-93782702D01*
X134598529Y-93782702D01*
X135520719Y-92860512D01*
X136989783Y-92860512D01*
X137031213Y-93140130D01*
X137126397Y-93406292D01*
X137193329Y-93531514D01*
X137437298Y-93603097D01*
X138250395Y-92790000D01*
X138609605Y-92790000D01*
X139422702Y-93603097D01*
X139666671Y-93531514D01*
X139787571Y-93276004D01*
X139856300Y-93001816D01*
X139870217Y-92719488D01*
X139828787Y-92439870D01*
X139733603Y-92173708D01*
X139666671Y-92048486D01*
X139422702Y-91976903D01*
X138609605Y-92790000D01*
X138250395Y-92790000D01*
X137437298Y-91976903D01*
X137193329Y-92048486D01*
X137072429Y-92303996D01*
X137003700Y-92578184D01*
X136989783Y-92860512D01*
X135520719Y-92860512D01*
X136583933Y-91797298D01*
X137616903Y-91797298D01*
X138430000Y-92610395D01*
X139243097Y-91797298D01*
X139171514Y-91553329D01*
X138916004Y-91432429D01*
X138641816Y-91363700D01*
X138359488Y-91349783D01*
X138079870Y-91391213D01*
X137813708Y-91486397D01*
X137688486Y-91553329D01*
X137616903Y-91797298D01*
X136583933Y-91797298D01*
X144483099Y-83898134D01*
X167293896Y-106709025D01*
X167292815Y-106720000D01*
X167321487Y-107011111D01*
X167406401Y-107291034D01*
X167469950Y-107409925D01*
X167446099Y-107429499D01*
X167422301Y-107458497D01*
X166555199Y-108325600D01*
X139868072Y-108325600D01*
X139868072Y-107150000D01*
X139855812Y-107025518D01*
X139819502Y-106905820D01*
X139760537Y-106795506D01*
X139681185Y-106698815D01*
X139584494Y-106619463D01*
X139565000Y-106609043D01*
X139565000Y-106505452D01*
X139570491Y-106449700D01*
X139548577Y-106227201D01*
X139483676Y-106013253D01*
X139378284Y-105816077D01*
X139271989Y-105686556D01*
X139271987Y-105686554D01*
X139236449Y-105643251D01*
X139193146Y-105607713D01*
X138064700Y-104479269D01*
X138064700Y-104337827D01*
X138218184Y-104376300D01*
X138500512Y-104390217D01*
X138780130Y-104348787D01*
X139046292Y-104253603D01*
X139171514Y-104186671D01*
X139243097Y-103942702D01*
X138430000Y-103129605D01*
X138415858Y-103143748D01*
X138236253Y-102964143D01*
X138250395Y-102950000D01*
X138609605Y-102950000D01*
X139422702Y-103763097D01*
X139666671Y-103691514D01*
X139787571Y-103436004D01*
X139856300Y-103161816D01*
X139870217Y-102879488D01*
X139828787Y-102599870D01*
X139733603Y-102333708D01*
X139666671Y-102208486D01*
X139422702Y-102136903D01*
X138609605Y-102950000D01*
X138250395Y-102950000D01*
X138236253Y-102935858D01*
X138415858Y-102756253D01*
X138430000Y-102770395D01*
X139243097Y-101957298D01*
X139171514Y-101713329D01*
X138916004Y-101592429D01*
X138641816Y-101523700D01*
X138359488Y-101509783D01*
X138079870Y-101551213D01*
X138064700Y-101556638D01*
X138064700Y-101260731D01*
X139193146Y-100132287D01*
X139236449Y-100096749D01*
X139275625Y-100049014D01*
X139378284Y-99923923D01*
X139483676Y-99726747D01*
X139548577Y-99512799D01*
X139570491Y-99290300D01*
X139565000Y-99234548D01*
X139565000Y-99130957D01*
X139584494Y-99120537D01*
X139681185Y-99041185D01*
X139760537Y-98944494D01*
X139819502Y-98834180D01*
X139855812Y-98714482D01*
X139868072Y-98590000D01*
X139868072Y-96990000D01*
X139855812Y-96865518D01*
X139819502Y-96745820D01*
X139760537Y-96635506D01*
X139681185Y-96538815D01*
X139584494Y-96459463D01*
X139474180Y-96400498D01*
X139354482Y-96364188D01*
X139230000Y-96351928D01*
X137630000Y-96351928D01*
X137505518Y-96364188D01*
X137385820Y-96400498D01*
X137275506Y-96459463D01*
X137178815Y-96538815D01*
X137099463Y-96635506D01*
X137040498Y-96745820D01*
X137004188Y-96865518D01*
X136991928Y-96990000D01*
X136991928Y-98590000D01*
X137004188Y-98714482D01*
X137040498Y-98834180D01*
X137099463Y-98944494D01*
X137131561Y-98983606D01*
X136166560Y-99948609D01*
X136123252Y-99984151D01*
X135981417Y-100156977D01*
X135928228Y-100256487D01*
X135876024Y-100354154D01*
X135811123Y-100568102D01*
X135789209Y-100790600D01*
X135794701Y-100846361D01*
X135794700Y-104126415D01*
X135774551Y-104142951D01*
X135739009Y-104186259D01*
X126848011Y-113077258D01*
X126740654Y-112946445D01*
X126524066Y-112768695D01*
X126276962Y-112636616D01*
X126008838Y-112555281D01*
X125730000Y-112527818D01*
X125451161Y-112555281D01*
X125183037Y-112636616D01*
X124935933Y-112768695D01*
X124719345Y-112946446D01*
X124541595Y-113163034D01*
X124462107Y-113311746D01*
X124455526Y-113295438D01*
X124302125Y-113061260D01*
X124105986Y-112861508D01*
X123874646Y-112703859D01*
X123616996Y-112594372D01*
X123537060Y-112577690D01*
X123317000Y-112699848D01*
X123317000Y-114185700D01*
X123337000Y-114185700D01*
X123337000Y-114439700D01*
X123317000Y-114439700D01*
X123317000Y-115925552D01*
X123537060Y-116047710D01*
X123616996Y-116031028D01*
X123874646Y-115921541D01*
X124105986Y-115763892D01*
X124302125Y-115564140D01*
X124455526Y-115329962D01*
X124462107Y-115313655D01*
X124541595Y-115462367D01*
X124719346Y-115678955D01*
X124935934Y-115856705D01*
X125183038Y-115988784D01*
X125451162Y-116070119D01*
X125730000Y-116097582D01*
X126008839Y-116070119D01*
X126276963Y-115988784D01*
X126524067Y-115856705D01*
X126740655Y-115678955D01*
X126918405Y-115462367D01*
X126926245Y-115447700D01*
X127161949Y-115447700D01*
X127217700Y-115453191D01*
X127273451Y-115447700D01*
X127273452Y-115447700D01*
X127440199Y-115431277D01*
X127654147Y-115366376D01*
X127851323Y-115260984D01*
X128024149Y-115119149D01*
X128059696Y-115075835D01*
X129402818Y-113732713D01*
X129387600Y-113887226D01*
X129387600Y-114738175D01*
X129408181Y-114947139D01*
X129489516Y-115215263D01*
X129621595Y-115462367D01*
X129799346Y-115678955D01*
X130015934Y-115856705D01*
X130263038Y-115988784D01*
X130531162Y-116070119D01*
X130810000Y-116097582D01*
X131088839Y-116070119D01*
X131356963Y-115988784D01*
X131604067Y-115856705D01*
X131820655Y-115678955D01*
X131998405Y-115462367D01*
X132083394Y-115303363D01*
X132161595Y-115449667D01*
X132339346Y-115666255D01*
X132555934Y-115844005D01*
X132803038Y-115976084D01*
X133071162Y-116057419D01*
X133350000Y-116084882D01*
X133628839Y-116057419D01*
X133896963Y-115976084D01*
X134144067Y-115844005D01*
X134360655Y-115666255D01*
X134538405Y-115449667D01*
X134620000Y-115297013D01*
X134701595Y-115449667D01*
X134879346Y-115666255D01*
X135095934Y-115844005D01*
X135343038Y-115976084D01*
X135611162Y-116057419D01*
X135890000Y-116084882D01*
X136168839Y-116057419D01*
X136436963Y-115976084D01*
X136684067Y-115844005D01*
X136900655Y-115666255D01*
X137078405Y-115449667D01*
X137160000Y-115297013D01*
X137241595Y-115449667D01*
X137419346Y-115666255D01*
X137635934Y-115844005D01*
X137883038Y-115976084D01*
X138151162Y-116057419D01*
X138430000Y-116084882D01*
X138708839Y-116057419D01*
X138976963Y-115976084D01*
X139224067Y-115844005D01*
X139440655Y-115666255D01*
X139618405Y-115449667D01*
X139700000Y-115297013D01*
X139781595Y-115449667D01*
X139959346Y-115666255D01*
X140175934Y-115844005D01*
X140423038Y-115976084D01*
X140691162Y-116057419D01*
X140970000Y-116084882D01*
X141248839Y-116057419D01*
X141516963Y-115976084D01*
X141764067Y-115844005D01*
X141980655Y-115666255D01*
X142158405Y-115449667D01*
X142240000Y-115297013D01*
X142321595Y-115449667D01*
X142499346Y-115666255D01*
X142715934Y-115844005D01*
X142963038Y-115976084D01*
X143231162Y-116057419D01*
X143510000Y-116084882D01*
X143788839Y-116057419D01*
X144056963Y-115976084D01*
X144304067Y-115844005D01*
X144520655Y-115666255D01*
X144698405Y-115449667D01*
X144780000Y-115297013D01*
X144861595Y-115449667D01*
X145039346Y-115666255D01*
X145255934Y-115844005D01*
X145503038Y-115976084D01*
X145771162Y-116057419D01*
X146050000Y-116084882D01*
X146328839Y-116057419D01*
X146596963Y-115976084D01*
X146844067Y-115844005D01*
X147060655Y-115666255D01*
X147238405Y-115449667D01*
X147320000Y-115297013D01*
X147401595Y-115449667D01*
X147579346Y-115666255D01*
X147795934Y-115844005D01*
X148043038Y-115976084D01*
X148311162Y-116057419D01*
X148590000Y-116084882D01*
X148868839Y-116057419D01*
X149136963Y-115976084D01*
X149384067Y-115844005D01*
X149600655Y-115666255D01*
X149778405Y-115449667D01*
X149910484Y-115202563D01*
X149991819Y-114934438D01*
X150012400Y-114725474D01*
X150012400Y-113874526D01*
X152247600Y-113874526D01*
X152247600Y-114725475D01*
X152268181Y-114934439D01*
X152349516Y-115202563D01*
X152481595Y-115449667D01*
X152659346Y-115666255D01*
X152875934Y-115844005D01*
X153123038Y-115976084D01*
X153391162Y-116057419D01*
X153670000Y-116084882D01*
X153948839Y-116057419D01*
X154216963Y-115976084D01*
X154464067Y-115844005D01*
X154680655Y-115666255D01*
X154858405Y-115449667D01*
X154940000Y-115297013D01*
X155021595Y-115449667D01*
X155199346Y-115666255D01*
X155415934Y-115844005D01*
X155663038Y-115976084D01*
X155931162Y-116057419D01*
X156210000Y-116084882D01*
X156488839Y-116057419D01*
X156756963Y-115976084D01*
X157004067Y-115844005D01*
X157220655Y-115666255D01*
X157398405Y-115449667D01*
X157480000Y-115297013D01*
X157561595Y-115449667D01*
X157739346Y-115666255D01*
X157955934Y-115844005D01*
X158203038Y-115976084D01*
X158471162Y-116057419D01*
X158750000Y-116084882D01*
X159028839Y-116057419D01*
X159296963Y-115976084D01*
X159544067Y-115844005D01*
X159760655Y-115666255D01*
X159938405Y-115449667D01*
X160020000Y-115297013D01*
X160101595Y-115449667D01*
X160279346Y-115666255D01*
X160495934Y-115844005D01*
X160743038Y-115976084D01*
X161011162Y-116057419D01*
X161290000Y-116084882D01*
X161568839Y-116057419D01*
X161836963Y-115976084D01*
X162084067Y-115844005D01*
X162300655Y-115666255D01*
X162478405Y-115449667D01*
X162560000Y-115297013D01*
X162641595Y-115449667D01*
X162819346Y-115666255D01*
X163035934Y-115844005D01*
X163283038Y-115976084D01*
X163551162Y-116057419D01*
X163830000Y-116084882D01*
X164108839Y-116057419D01*
X164376963Y-115976084D01*
X164624067Y-115844005D01*
X164840655Y-115666255D01*
X165018405Y-115449667D01*
X165100000Y-115297013D01*
X165181595Y-115449667D01*
X165359346Y-115666255D01*
X165575934Y-115844005D01*
X165823038Y-115976084D01*
X166091162Y-116057419D01*
X166370000Y-116084882D01*
X166648839Y-116057419D01*
X166916963Y-115976084D01*
X167164067Y-115844005D01*
X167380655Y-115666255D01*
X167558405Y-115449667D01*
X167640000Y-115297013D01*
X167721595Y-115449667D01*
X167899346Y-115666255D01*
X168115934Y-115844005D01*
X168363038Y-115976084D01*
X168631162Y-116057419D01*
X168910000Y-116084882D01*
X169188839Y-116057419D01*
X169456963Y-115976084D01*
X169704067Y-115844005D01*
X169920655Y-115666255D01*
X170098405Y-115449667D01*
X170180000Y-115297013D01*
X170261595Y-115449667D01*
X170439346Y-115666255D01*
X170655934Y-115844005D01*
X170903038Y-115976084D01*
X171171162Y-116057419D01*
X171450000Y-116084882D01*
X171728839Y-116057419D01*
X171996963Y-115976084D01*
X172244067Y-115844005D01*
X172460655Y-115666255D01*
X172638405Y-115449667D01*
X172770484Y-115202563D01*
X172851819Y-114934438D01*
X172872400Y-114725474D01*
X172872400Y-114020777D01*
X173695000Y-114020777D01*
X173695000Y-114579223D01*
X173803948Y-115126939D01*
X174017656Y-115642876D01*
X174327912Y-116107207D01*
X174722793Y-116502088D01*
X175187124Y-116812344D01*
X175703061Y-117026052D01*
X176250777Y-117135000D01*
X176809223Y-117135000D01*
X177356939Y-117026052D01*
X177872876Y-116812344D01*
X178337207Y-116502088D01*
X178732088Y-116107207D01*
X179042344Y-115642876D01*
X179256052Y-115126939D01*
X179365000Y-114579223D01*
X179365000Y-114020777D01*
X179256052Y-113473061D01*
X179042344Y-112957124D01*
X178732088Y-112492793D01*
X178337207Y-112097912D01*
X177872876Y-111787656D01*
X177356939Y-111573948D01*
X176809223Y-111465000D01*
X176250777Y-111465000D01*
X175703061Y-111573948D01*
X175187124Y-111787656D01*
X174722793Y-112097912D01*
X174327912Y-112492793D01*
X174017656Y-112957124D01*
X173803948Y-113473061D01*
X173695000Y-114020777D01*
X172872400Y-114020777D01*
X172872400Y-113874525D01*
X172851819Y-113665561D01*
X172770484Y-113397437D01*
X172638405Y-113150333D01*
X172460654Y-112933745D01*
X172244066Y-112755995D01*
X171996962Y-112623916D01*
X171728838Y-112542581D01*
X171450000Y-112515118D01*
X171171161Y-112542581D01*
X170903037Y-112623916D01*
X170655933Y-112755995D01*
X170439345Y-112933746D01*
X170261595Y-113150334D01*
X170180000Y-113302988D01*
X170098405Y-113150333D01*
X169920654Y-112933745D01*
X169704066Y-112755995D01*
X169456962Y-112623916D01*
X169188838Y-112542581D01*
X168910000Y-112515118D01*
X168631161Y-112542581D01*
X168363037Y-112623916D01*
X168115933Y-112755995D01*
X167899345Y-112933746D01*
X167721595Y-113150334D01*
X167640000Y-113302988D01*
X167558405Y-113150333D01*
X167380654Y-112933745D01*
X167164066Y-112755995D01*
X166916962Y-112623916D01*
X166648838Y-112542581D01*
X166370000Y-112515118D01*
X166091161Y-112542581D01*
X165823037Y-112623916D01*
X165575933Y-112755995D01*
X165359345Y-112933746D01*
X165181595Y-113150334D01*
X165100000Y-113302988D01*
X165018405Y-113150333D01*
X164840654Y-112933745D01*
X164624066Y-112755995D01*
X164376962Y-112623916D01*
X164108838Y-112542581D01*
X163830000Y-112515118D01*
X163551161Y-112542581D01*
X163283037Y-112623916D01*
X163035933Y-112755995D01*
X162819345Y-112933746D01*
X162641595Y-113150334D01*
X162560000Y-113302988D01*
X162478405Y-113150333D01*
X162300654Y-112933745D01*
X162084066Y-112755995D01*
X161836962Y-112623916D01*
X161568838Y-112542581D01*
X161290000Y-112515118D01*
X161011161Y-112542581D01*
X160743037Y-112623916D01*
X160495933Y-112755995D01*
X160279345Y-112933746D01*
X160101595Y-113150334D01*
X160020000Y-113302988D01*
X159938405Y-113150333D01*
X159760654Y-112933745D01*
X159544066Y-112755995D01*
X159296962Y-112623916D01*
X159028838Y-112542581D01*
X158750000Y-112515118D01*
X158471161Y-112542581D01*
X158203037Y-112623916D01*
X157955933Y-112755995D01*
X157739345Y-112933746D01*
X157561595Y-113150334D01*
X157480000Y-113302988D01*
X157398405Y-113150333D01*
X157220654Y-112933745D01*
X157004066Y-112755995D01*
X156756962Y-112623916D01*
X156488838Y-112542581D01*
X156210000Y-112515118D01*
X155931161Y-112542581D01*
X155663037Y-112623916D01*
X155415933Y-112755995D01*
X155199345Y-112933746D01*
X155021595Y-113150334D01*
X154940000Y-113302988D01*
X154858405Y-113150333D01*
X154680654Y-112933745D01*
X154464066Y-112755995D01*
X154216962Y-112623916D01*
X153948838Y-112542581D01*
X153670000Y-112515118D01*
X153391161Y-112542581D01*
X153123037Y-112623916D01*
X152875933Y-112755995D01*
X152659345Y-112933746D01*
X152481595Y-113150334D01*
X152349516Y-113397438D01*
X152268181Y-113665562D01*
X152247600Y-113874526D01*
X150012400Y-113874526D01*
X150012400Y-113874525D01*
X149991819Y-113665561D01*
X149910484Y-113397437D01*
X149778405Y-113150333D01*
X149600654Y-112933745D01*
X149384066Y-112755995D01*
X149136962Y-112623916D01*
X148868838Y-112542581D01*
X148590000Y-112515118D01*
X148311161Y-112542581D01*
X148043037Y-112623916D01*
X147795933Y-112755995D01*
X147579345Y-112933746D01*
X147401595Y-113150334D01*
X147320000Y-113302988D01*
X147238405Y-113150333D01*
X147060654Y-112933745D01*
X146844066Y-112755995D01*
X146596962Y-112623916D01*
X146328838Y-112542581D01*
X146050000Y-112515118D01*
X145771161Y-112542581D01*
X145503037Y-112623916D01*
X145255933Y-112755995D01*
X145039345Y-112933746D01*
X144861595Y-113150334D01*
X144780000Y-113302988D01*
X144698405Y-113150333D01*
X144520654Y-112933745D01*
X144304066Y-112755995D01*
X144056962Y-112623916D01*
X143788838Y-112542581D01*
X143510000Y-112515118D01*
X143231161Y-112542581D01*
X142963037Y-112623916D01*
X142715933Y-112755995D01*
X142499345Y-112933746D01*
X142321595Y-113150334D01*
X142240000Y-113302988D01*
X142158405Y-113150333D01*
X141980654Y-112933745D01*
X141764066Y-112755995D01*
X141516962Y-112623916D01*
X141248838Y-112542581D01*
X140970000Y-112515118D01*
X140691161Y-112542581D01*
X140423037Y-112623916D01*
X140175933Y-112755995D01*
X139959345Y-112933746D01*
X139781595Y-113150334D01*
X139700000Y-113302988D01*
X139618405Y-113150333D01*
X139440654Y-112933745D01*
X139224066Y-112755995D01*
X138976962Y-112623916D01*
X138708838Y-112542581D01*
X138430000Y-112515118D01*
X138151161Y-112542581D01*
X137883037Y-112623916D01*
X137635933Y-112755995D01*
X137419345Y-112933746D01*
X137241595Y-113150334D01*
X137160000Y-113302988D01*
X137078405Y-113150333D01*
X136900654Y-112933745D01*
X136684066Y-112755995D01*
X136580476Y-112700625D01*
X137919802Y-111361300D01*
X169653978Y-111361300D01*
X169691300Y-111364976D01*
X169728622Y-111361300D01*
X169728633Y-111361300D01*
X169840286Y-111350303D01*
X169983547Y-111306846D01*
X170115576Y-111236274D01*
X170231301Y-111141301D01*
X170255104Y-111112298D01*
X171235604Y-110131798D01*
X171264601Y-110108001D01*
X171295788Y-110070000D01*
X171359574Y-109992277D01*
X171430146Y-109860247D01*
X171437925Y-109834602D01*
X171473603Y-109716986D01*
X171484600Y-109605333D01*
X171484600Y-109605323D01*
X171488276Y-109568000D01*
X171484600Y-109530677D01*
X171484600Y-104233022D01*
X171488276Y-104195699D01*
X171484600Y-104158376D01*
X171484600Y-104158367D01*
X171473603Y-104046714D01*
X171430146Y-103903453D01*
X171359574Y-103771424D01*
X171264601Y-103655699D01*
X171235603Y-103631901D01*
X170220267Y-102616566D01*
X170275706Y-102549014D01*
X170413599Y-102291034D01*
X170498513Y-102011111D01*
X170527185Y-101720000D01*
X170498513Y-101428889D01*
X170413599Y-101148966D01*
X170275706Y-100890986D01*
X170090134Y-100664866D01*
X169864014Y-100479294D01*
X169846626Y-100470000D01*
X169864014Y-100460706D01*
X170090134Y-100275134D01*
X170275706Y-100049014D01*
X170413599Y-99791034D01*
X170498513Y-99511111D01*
X170527185Y-99220000D01*
X170498513Y-98928889D01*
X170413599Y-98648966D01*
X170275706Y-98390986D01*
X170090134Y-98164866D01*
X169864014Y-97979294D01*
X169670000Y-97875591D01*
X169670000Y-96200423D01*
X169673676Y-96163100D01*
X169670000Y-96125777D01*
X169670000Y-96125767D01*
X169659003Y-96014114D01*
X169615546Y-95870853D01*
X169544975Y-95738825D01*
X169544974Y-95738823D01*
X169473799Y-95652097D01*
X169450001Y-95623099D01*
X169421004Y-95599302D01*
X167998775Y-94177073D01*
X168011746Y-94181008D01*
X168185000Y-94198072D01*
X169635000Y-94198072D01*
X169808254Y-94181008D01*
X169974850Y-94130472D01*
X170128386Y-94048405D01*
X170262962Y-93937962D01*
X170373405Y-93803386D01*
X170455472Y-93649850D01*
X170506008Y-93483254D01*
X170523072Y-93310000D01*
X170523072Y-92110000D01*
X170506008Y-91936746D01*
X170455472Y-91770150D01*
X170373405Y-91616614D01*
X170262962Y-91482038D01*
X170128386Y-91371595D01*
X170026663Y-91317223D01*
X170090134Y-91265134D01*
X170275706Y-91039014D01*
X170413599Y-90781034D01*
X170498513Y-90501111D01*
X170527185Y-90210000D01*
X170498513Y-89918889D01*
X170413599Y-89638966D01*
X170275706Y-89380986D01*
X170090134Y-89154866D01*
X169864014Y-88969294D01*
X169846626Y-88960000D01*
X169864014Y-88950706D01*
X170090134Y-88765134D01*
X170275706Y-88539014D01*
X170413599Y-88281034D01*
X170498513Y-88001111D01*
X170527185Y-87710000D01*
X170498513Y-87418889D01*
X170413599Y-87138966D01*
X170275706Y-86880986D01*
X170090134Y-86654866D01*
X169864014Y-86469294D01*
X169846626Y-86460000D01*
X169864014Y-86450706D01*
X170090134Y-86265134D01*
X170275706Y-86039014D01*
X170413599Y-85781034D01*
X170498513Y-85501111D01*
X170527185Y-85210000D01*
X170498513Y-84918889D01*
X170413599Y-84638966D01*
X170275706Y-84380986D01*
X170090134Y-84154866D01*
X169864014Y-83969294D01*
X169606034Y-83831401D01*
X169326111Y-83746487D01*
X169107950Y-83725000D01*
X168712050Y-83725000D01*
X168493889Y-83746487D01*
X168213966Y-83831401D01*
X167955986Y-83969294D01*
X167729866Y-84154866D01*
X167544294Y-84380986D01*
X167406401Y-84638966D01*
X167321487Y-84918889D01*
X167292815Y-85210000D01*
X167321487Y-85501111D01*
X167406401Y-85781034D01*
X167544294Y-86039014D01*
X167729866Y-86265134D01*
X167955986Y-86450706D01*
X167973374Y-86460000D01*
X167955986Y-86469294D01*
X167729866Y-86654866D01*
X167544294Y-86880986D01*
X167406401Y-87138966D01*
X167321487Y-87418889D01*
X167292815Y-87710000D01*
X167321487Y-88001111D01*
X167406401Y-88281034D01*
X167544294Y-88539014D01*
X167729866Y-88765134D01*
X167955986Y-88950706D01*
X167973374Y-88960000D01*
X167955986Y-88969294D01*
X167729866Y-89154866D01*
X167544294Y-89380986D01*
X167406401Y-89638966D01*
X167321487Y-89918889D01*
X167292815Y-90210000D01*
X167321487Y-90501111D01*
X167406401Y-90781034D01*
X167544294Y-91039014D01*
X167729866Y-91265134D01*
X167793337Y-91317223D01*
X167691614Y-91371595D01*
X167557038Y-91482038D01*
X167446595Y-91616614D01*
X167364528Y-91770150D01*
X167313992Y-91936746D01*
X167296928Y-92110000D01*
X167296928Y-93310000D01*
X167313992Y-93483254D01*
X167317927Y-93496225D01*
X145061702Y-71240000D01*
X167292815Y-71240000D01*
X167321487Y-71531111D01*
X167406401Y-71811034D01*
X167544294Y-72069014D01*
X167729866Y-72295134D01*
X167955986Y-72480706D01*
X167973374Y-72490000D01*
X167955986Y-72499294D01*
X167729866Y-72684866D01*
X167544294Y-72910986D01*
X167406401Y-73168966D01*
X167321487Y-73448889D01*
X167292815Y-73740000D01*
X167321487Y-74031111D01*
X167406401Y-74311034D01*
X167544294Y-74569014D01*
X167729866Y-74795134D01*
X167955986Y-74980706D01*
X167973374Y-74990000D01*
X167955986Y-74999294D01*
X167729866Y-75184866D01*
X167544294Y-75410986D01*
X167406401Y-75668966D01*
X167321487Y-75948889D01*
X167292815Y-76240000D01*
X167321487Y-76531111D01*
X167406401Y-76811034D01*
X167544294Y-77069014D01*
X167729866Y-77295134D01*
X167793337Y-77347223D01*
X167691614Y-77401595D01*
X167557038Y-77512038D01*
X167446595Y-77646614D01*
X167364528Y-77800150D01*
X167313992Y-77966746D01*
X167296928Y-78140000D01*
X167296928Y-79340000D01*
X167313992Y-79513254D01*
X167364528Y-79679850D01*
X167446595Y-79833386D01*
X167557038Y-79967962D01*
X167691614Y-80078405D01*
X167845150Y-80160472D01*
X168011746Y-80211008D01*
X168185000Y-80228072D01*
X169635000Y-80228072D01*
X169808254Y-80211008D01*
X169974850Y-80160472D01*
X170128386Y-80078405D01*
X170262962Y-79967962D01*
X170373405Y-79833386D01*
X170455472Y-79679850D01*
X170506008Y-79513254D01*
X170523072Y-79340000D01*
X170523072Y-78140000D01*
X170506008Y-77966746D01*
X170455472Y-77800150D01*
X170373405Y-77646614D01*
X170262962Y-77512038D01*
X170128386Y-77401595D01*
X170026663Y-77347223D01*
X170090134Y-77295134D01*
X170275706Y-77069014D01*
X170413599Y-76811034D01*
X170498513Y-76531111D01*
X170527185Y-76240000D01*
X170498513Y-75948889D01*
X170413599Y-75668966D01*
X170275706Y-75410986D01*
X170090134Y-75184866D01*
X169864014Y-74999294D01*
X169846626Y-74990000D01*
X169864014Y-74980706D01*
X170090134Y-74795134D01*
X170275706Y-74569014D01*
X170413599Y-74311034D01*
X170498513Y-74031111D01*
X170527185Y-73740000D01*
X170498513Y-73448889D01*
X170413599Y-73168966D01*
X170275706Y-72910986D01*
X170090134Y-72684866D01*
X169864014Y-72499294D01*
X169846626Y-72490000D01*
X169864014Y-72480706D01*
X170090134Y-72295134D01*
X170275706Y-72069014D01*
X170413599Y-71811034D01*
X170498513Y-71531111D01*
X170527185Y-71240000D01*
X170498513Y-70948889D01*
X170413599Y-70668966D01*
X170275706Y-70410986D01*
X170090134Y-70184866D01*
X169864014Y-69999294D01*
X169606034Y-69861401D01*
X169326111Y-69776487D01*
X169107950Y-69755000D01*
X168712050Y-69755000D01*
X168493889Y-69776487D01*
X168213966Y-69861401D01*
X167955986Y-69999294D01*
X167729866Y-70184866D01*
X167544294Y-70410986D01*
X167406401Y-70668966D01*
X167321487Y-70948889D01*
X167292815Y-71240000D01*
X145061702Y-71240000D01*
X141530532Y-67708831D01*
X141764067Y-67584005D01*
X141980655Y-67406255D01*
X142158405Y-67189667D01*
X142236606Y-67043363D01*
X142321595Y-67202367D01*
X142499346Y-67418955D01*
X142715934Y-67596705D01*
X142963038Y-67728784D01*
X143231162Y-67810119D01*
X143510000Y-67837582D01*
X143788839Y-67810119D01*
X144056963Y-67728784D01*
X144304067Y-67596705D01*
X144520655Y-67418955D01*
X144698405Y-67202367D01*
X144830484Y-66955263D01*
X144911819Y-66687138D01*
X144932400Y-66478174D01*
X144932400Y-65627225D01*
X144931150Y-65614526D01*
X147167600Y-65614526D01*
X147167600Y-66465475D01*
X147188181Y-66674439D01*
X147269516Y-66942563D01*
X147401595Y-67189667D01*
X147579346Y-67406255D01*
X147795934Y-67584005D01*
X148043038Y-67716084D01*
X148311162Y-67797419D01*
X148590000Y-67824882D01*
X148868839Y-67797419D01*
X149136963Y-67716084D01*
X149384067Y-67584005D01*
X149600655Y-67406255D01*
X149778405Y-67189667D01*
X149860000Y-67037013D01*
X149941595Y-67189667D01*
X150119346Y-67406255D01*
X150335934Y-67584005D01*
X150583038Y-67716084D01*
X150851162Y-67797419D01*
X151130000Y-67824882D01*
X151408839Y-67797419D01*
X151676963Y-67716084D01*
X151924067Y-67584005D01*
X152140655Y-67406255D01*
X152318405Y-67189667D01*
X152400000Y-67037013D01*
X152481595Y-67189667D01*
X152659346Y-67406255D01*
X152875934Y-67584005D01*
X153123038Y-67716084D01*
X153391162Y-67797419D01*
X153670000Y-67824882D01*
X153948839Y-67797419D01*
X154216963Y-67716084D01*
X154464067Y-67584005D01*
X154680655Y-67406255D01*
X154858405Y-67189667D01*
X154940000Y-67037013D01*
X155021595Y-67189667D01*
X155199346Y-67406255D01*
X155415934Y-67584005D01*
X155663038Y-67716084D01*
X155931162Y-67797419D01*
X156210000Y-67824882D01*
X156488839Y-67797419D01*
X156756963Y-67716084D01*
X157004067Y-67584005D01*
X157220655Y-67406255D01*
X157398405Y-67189667D01*
X157480000Y-67037013D01*
X157561595Y-67189667D01*
X157739346Y-67406255D01*
X157955934Y-67584005D01*
X158203038Y-67716084D01*
X158471162Y-67797419D01*
X158750000Y-67824882D01*
X159028839Y-67797419D01*
X159296963Y-67716084D01*
X159544067Y-67584005D01*
X159760655Y-67406255D01*
X159938405Y-67189667D01*
X160020000Y-67037013D01*
X160101595Y-67189667D01*
X160279346Y-67406255D01*
X160495934Y-67584005D01*
X160743038Y-67716084D01*
X161011162Y-67797419D01*
X161290000Y-67824882D01*
X161568839Y-67797419D01*
X161836963Y-67716084D01*
X162084067Y-67584005D01*
X162300655Y-67406255D01*
X162478405Y-67189667D01*
X162556606Y-67043363D01*
X162641595Y-67202367D01*
X162819346Y-67418955D01*
X163035934Y-67596705D01*
X163283038Y-67728784D01*
X163551162Y-67810119D01*
X163830000Y-67837582D01*
X164108839Y-67810119D01*
X164376963Y-67728784D01*
X164624067Y-67596705D01*
X164840655Y-67418955D01*
X165018405Y-67202367D01*
X165100000Y-67049713D01*
X165181595Y-67202367D01*
X165359346Y-67418955D01*
X165575934Y-67596705D01*
X165823038Y-67728784D01*
X166091162Y-67810119D01*
X166370000Y-67837582D01*
X166648839Y-67810119D01*
X166916963Y-67728784D01*
X167164067Y-67596705D01*
X167380655Y-67418955D01*
X167558405Y-67202367D01*
X167577832Y-67166021D01*
X167667656Y-67382876D01*
X167977912Y-67847207D01*
X168372793Y-68242088D01*
X168837124Y-68552344D01*
X169353061Y-68766052D01*
X169900777Y-68875000D01*
X170459223Y-68875000D01*
X171006939Y-68766052D01*
X171522876Y-68552344D01*
X171987207Y-68242088D01*
X172382088Y-67847207D01*
X172692344Y-67382876D01*
X172886095Y-66915121D01*
X172904880Y-66943235D01*
X173099465Y-67137820D01*
X173328273Y-67290705D01*
X173405515Y-67322700D01*
X173328273Y-67354695D01*
X173099465Y-67507580D01*
X172904880Y-67702165D01*
X172751995Y-67930973D01*
X172646686Y-68185210D01*
X172593000Y-68455108D01*
X172593000Y-68730292D01*
X172646686Y-69000190D01*
X172751995Y-69254427D01*
X172904880Y-69483235D01*
X173099465Y-69677820D01*
X173328273Y-69830705D01*
X173405515Y-69862700D01*
X173328273Y-69894695D01*
X173099465Y-70047580D01*
X172904880Y-70242165D01*
X172751995Y-70470973D01*
X172646686Y-70725210D01*
X172593000Y-70995108D01*
X172593000Y-71270292D01*
X172646686Y-71540190D01*
X172751995Y-71794427D01*
X172904880Y-72023235D01*
X173099465Y-72217820D01*
X173328273Y-72370705D01*
X173405515Y-72402700D01*
X173328273Y-72434695D01*
X173099465Y-72587580D01*
X172904880Y-72782165D01*
X172751995Y-73010973D01*
X172646686Y-73265210D01*
X172593000Y-73535108D01*
X172593000Y-73810292D01*
X172646686Y-74080190D01*
X172751995Y-74334427D01*
X172904880Y-74563235D01*
X173099465Y-74757820D01*
X173328273Y-74910705D01*
X173405515Y-74942700D01*
X173328273Y-74974695D01*
X173099465Y-75127580D01*
X172904880Y-75322165D01*
X172751995Y-75550973D01*
X172646686Y-75805210D01*
X172593000Y-76075108D01*
X172593000Y-76350292D01*
X172646686Y-76620190D01*
X172751995Y-76874427D01*
X172904880Y-77103235D01*
X173099465Y-77297820D01*
X173328273Y-77450705D01*
X173405515Y-77482700D01*
X173328273Y-77514695D01*
X173099465Y-77667580D01*
X172904880Y-77862165D01*
X172751995Y-78090973D01*
X172646686Y-78345210D01*
X172593000Y-78615108D01*
X172593000Y-78890292D01*
X172646686Y-79160190D01*
X172751995Y-79414427D01*
X172904880Y-79643235D01*
X173099465Y-79837820D01*
X173328273Y-79990705D01*
X173405515Y-80022700D01*
X173328273Y-80054695D01*
X173099465Y-80207580D01*
X172904880Y-80402165D01*
X172751995Y-80630973D01*
X172646686Y-80885210D01*
X172593000Y-81155108D01*
X172593000Y-81430292D01*
X172646686Y-81700190D01*
X172751995Y-81954427D01*
X172904880Y-82183235D01*
X173099465Y-82377820D01*
X173328273Y-82530705D01*
X173405515Y-82562700D01*
X173328273Y-82594695D01*
X173099465Y-82747580D01*
X172904880Y-82942165D01*
X172751995Y-83170973D01*
X172646686Y-83425210D01*
X172593000Y-83695108D01*
X172593000Y-83970292D01*
X172646686Y-84240190D01*
X172751995Y-84494427D01*
X172904880Y-84723235D01*
X173099465Y-84917820D01*
X173328273Y-85070705D01*
X173405515Y-85102700D01*
X173328273Y-85134695D01*
X173099465Y-85287580D01*
X172904880Y-85482165D01*
X172751995Y-85710973D01*
X172646686Y-85965210D01*
X172593000Y-86235108D01*
X172593000Y-86510292D01*
X172646686Y-86780190D01*
X172751995Y-87034427D01*
X172904880Y-87263235D01*
X173099465Y-87457820D01*
X173328273Y-87610705D01*
X173405515Y-87642700D01*
X173328273Y-87674695D01*
X173099465Y-87827580D01*
X172904880Y-88022165D01*
X172751995Y-88250973D01*
X172646686Y-88505210D01*
X172593000Y-88775108D01*
X172593000Y-89050292D01*
X172646686Y-89320190D01*
X172751995Y-89574427D01*
X172904880Y-89803235D01*
X173099465Y-89997820D01*
X173328273Y-90150705D01*
X173405515Y-90182700D01*
X173328273Y-90214695D01*
X173099465Y-90367580D01*
X172904880Y-90562165D01*
X172751995Y-90790973D01*
X172646686Y-91045210D01*
X172593000Y-91315108D01*
X172593000Y-91590292D01*
X172646686Y-91860190D01*
X172751995Y-92114427D01*
X172904880Y-92343235D01*
X173099465Y-92537820D01*
X173328273Y-92690705D01*
X173405515Y-92722700D01*
X173328273Y-92754695D01*
X173099465Y-92907580D01*
X172904880Y-93102165D01*
X172751995Y-93330973D01*
X172646686Y-93585210D01*
X172593000Y-93855108D01*
X172593000Y-94130292D01*
X172646686Y-94400190D01*
X172751995Y-94654427D01*
X172904880Y-94883235D01*
X173099465Y-95077820D01*
X173328273Y-95230705D01*
X173405515Y-95262700D01*
X173328273Y-95294695D01*
X173099465Y-95447580D01*
X172904880Y-95642165D01*
X172751995Y-95870973D01*
X172646686Y-96125210D01*
X172593000Y-96395108D01*
X172593000Y-96670292D01*
X172646686Y-96940190D01*
X172751995Y-97194427D01*
X172904880Y-97423235D01*
X173099465Y-97617820D01*
X173328273Y-97770705D01*
X173405515Y-97802700D01*
X173328273Y-97834695D01*
X173099465Y-97987580D01*
X172904880Y-98182165D01*
X172751995Y-98410973D01*
X172646686Y-98665210D01*
X172593000Y-98935108D01*
X172593000Y-99210292D01*
X172646686Y-99480190D01*
X172751995Y-99734427D01*
X172904880Y-99963235D01*
X173099465Y-100157820D01*
X173328273Y-100310705D01*
X173405515Y-100342700D01*
X173328273Y-100374695D01*
X173099465Y-100527580D01*
X172904880Y-100722165D01*
X172751995Y-100950973D01*
X172646686Y-101205210D01*
X172593000Y-101475108D01*
X172593000Y-101750292D01*
X172646686Y-102020190D01*
X172751995Y-102274427D01*
X172904880Y-102503235D01*
X173099465Y-102697820D01*
X173328273Y-102850705D01*
X173405515Y-102882700D01*
X173328273Y-102914695D01*
X173099465Y-103067580D01*
X172904880Y-103262165D01*
X172751995Y-103490973D01*
X172646686Y-103745210D01*
X172593000Y-104015108D01*
X172593000Y-104290292D01*
X172646686Y-104560190D01*
X172751995Y-104814427D01*
X172904880Y-105043235D01*
X173099465Y-105237820D01*
X173328273Y-105390705D01*
X173405515Y-105422700D01*
X173328273Y-105454695D01*
X173099465Y-105607580D01*
X172904880Y-105802165D01*
X172751995Y-106030973D01*
X172646686Y-106285210D01*
X172593000Y-106555108D01*
X172593000Y-106830292D01*
X172646686Y-107100190D01*
X172751995Y-107354427D01*
X172904880Y-107583235D01*
X173099465Y-107777820D01*
X173328273Y-107930705D01*
X173405515Y-107962700D01*
X173328273Y-107994695D01*
X173099465Y-108147580D01*
X172904880Y-108342165D01*
X172751995Y-108570973D01*
X172646686Y-108825210D01*
X172593000Y-109095108D01*
X172593000Y-109370292D01*
X172646686Y-109640190D01*
X172751995Y-109894427D01*
X172904880Y-110123235D01*
X173099465Y-110317820D01*
X173328273Y-110470705D01*
X173582510Y-110576014D01*
X173852408Y-110629700D01*
X174127592Y-110629700D01*
X174397490Y-110576014D01*
X174651727Y-110470705D01*
X174880535Y-110317820D01*
X175075120Y-110123235D01*
X175228005Y-109894427D01*
X175260000Y-109817185D01*
X175291995Y-109894427D01*
X175444880Y-110123235D01*
X175639465Y-110317820D01*
X175868273Y-110470705D01*
X176122510Y-110576014D01*
X176392408Y-110629700D01*
X176667592Y-110629700D01*
X176937490Y-110576014D01*
X177191727Y-110470705D01*
X177420535Y-110317820D01*
X177615120Y-110123235D01*
X177768005Y-109894427D01*
X177873314Y-109640190D01*
X177927000Y-109370292D01*
X177927000Y-109095108D01*
X177873314Y-108825210D01*
X177768005Y-108570973D01*
X177615120Y-108342165D01*
X177420535Y-108147580D01*
X177191727Y-107994695D01*
X177114485Y-107962700D01*
X177191727Y-107930705D01*
X177420535Y-107777820D01*
X177615120Y-107583235D01*
X177768005Y-107354427D01*
X177873314Y-107100190D01*
X177927000Y-106830292D01*
X177927000Y-106555108D01*
X177873314Y-106285210D01*
X177768005Y-106030973D01*
X177615120Y-105802165D01*
X177420535Y-105607580D01*
X177191727Y-105454695D01*
X177114485Y-105422700D01*
X177191727Y-105390705D01*
X177420535Y-105237820D01*
X177615120Y-105043235D01*
X177768005Y-104814427D01*
X177873314Y-104560190D01*
X177927000Y-104290292D01*
X177927000Y-104015108D01*
X177873314Y-103745210D01*
X177768005Y-103490973D01*
X177615120Y-103262165D01*
X177420535Y-103067580D01*
X177191727Y-102914695D01*
X177114485Y-102882700D01*
X177191727Y-102850705D01*
X177420535Y-102697820D01*
X177615120Y-102503235D01*
X177768005Y-102274427D01*
X177873314Y-102020190D01*
X177927000Y-101750292D01*
X177927000Y-101475108D01*
X177873314Y-101205210D01*
X177768005Y-100950973D01*
X177615120Y-100722165D01*
X177420535Y-100527580D01*
X177191727Y-100374695D01*
X177114485Y-100342700D01*
X177191727Y-100310705D01*
X177420535Y-100157820D01*
X177615120Y-99963235D01*
X177768005Y-99734427D01*
X177873314Y-99480190D01*
X177927000Y-99210292D01*
X177927000Y-98935108D01*
X177873314Y-98665210D01*
X177768005Y-98410973D01*
X177615120Y-98182165D01*
X177420535Y-97987580D01*
X177191727Y-97834695D01*
X177114485Y-97802700D01*
X177191727Y-97770705D01*
X177420535Y-97617820D01*
X177615120Y-97423235D01*
X177768005Y-97194427D01*
X177873314Y-96940190D01*
X177927000Y-96670292D01*
X177927000Y-96395108D01*
X177873314Y-96125210D01*
X177768005Y-95870973D01*
X177615120Y-95642165D01*
X177420535Y-95447580D01*
X177191727Y-95294695D01*
X177114485Y-95262700D01*
X177191727Y-95230705D01*
X177420535Y-95077820D01*
X177615120Y-94883235D01*
X177768005Y-94654427D01*
X177873314Y-94400190D01*
X177927000Y-94130292D01*
X177927000Y-93855108D01*
X177873314Y-93585210D01*
X177768005Y-93330973D01*
X177615120Y-93102165D01*
X177420535Y-92907580D01*
X177191727Y-92754695D01*
X177114485Y-92722700D01*
X177191727Y-92690705D01*
X177420535Y-92537820D01*
X177615120Y-92343235D01*
X177768005Y-92114427D01*
X177873314Y-91860190D01*
X177927000Y-91590292D01*
X177927000Y-91315108D01*
X177873314Y-91045210D01*
X177768005Y-90790973D01*
X177615120Y-90562165D01*
X177420535Y-90367580D01*
X177191727Y-90214695D01*
X177114485Y-90182700D01*
X177191727Y-90150705D01*
X177420535Y-89997820D01*
X177615120Y-89803235D01*
X177768005Y-89574427D01*
X177873314Y-89320190D01*
X177927000Y-89050292D01*
X177927000Y-88775108D01*
X177873314Y-88505210D01*
X177768005Y-88250973D01*
X177615120Y-88022165D01*
X177420535Y-87827580D01*
X177191727Y-87674695D01*
X177114485Y-87642700D01*
X177191727Y-87610705D01*
X177420535Y-87457820D01*
X177615120Y-87263235D01*
X177768005Y-87034427D01*
X177873314Y-86780190D01*
X177927000Y-86510292D01*
X177927000Y-86235108D01*
X177873314Y-85965210D01*
X177768005Y-85710973D01*
X177615120Y-85482165D01*
X177420535Y-85287580D01*
X177191727Y-85134695D01*
X177114485Y-85102700D01*
X177191727Y-85070705D01*
X177420535Y-84917820D01*
X177615120Y-84723235D01*
X177768005Y-84494427D01*
X177873314Y-84240190D01*
X177927000Y-83970292D01*
X177927000Y-83695108D01*
X177873314Y-83425210D01*
X177768005Y-83170973D01*
X177615120Y-82942165D01*
X177420535Y-82747580D01*
X177191727Y-82594695D01*
X177114485Y-82562700D01*
X177191727Y-82530705D01*
X177420535Y-82377820D01*
X177615120Y-82183235D01*
X177768005Y-81954427D01*
X177873314Y-81700190D01*
X177927000Y-81430292D01*
X177927000Y-81155108D01*
X177873314Y-80885210D01*
X177768005Y-80630973D01*
X177615120Y-80402165D01*
X177420535Y-80207580D01*
X177191727Y-80054695D01*
X177114485Y-80022700D01*
X177191727Y-79990705D01*
X177420535Y-79837820D01*
X177615120Y-79643235D01*
X177768005Y-79414427D01*
X177873314Y-79160190D01*
X177927000Y-78890292D01*
X177927000Y-78615108D01*
X177873314Y-78345210D01*
X177768005Y-78090973D01*
X177615120Y-77862165D01*
X177420535Y-77667580D01*
X177191727Y-77514695D01*
X177114485Y-77482700D01*
X177191727Y-77450705D01*
X177420535Y-77297820D01*
X177615120Y-77103235D01*
X177768005Y-76874427D01*
X177873314Y-76620190D01*
X177927000Y-76350292D01*
X177927000Y-76075108D01*
X177873314Y-75805210D01*
X177768005Y-75550973D01*
X177615120Y-75322165D01*
X177420535Y-75127580D01*
X177191727Y-74974695D01*
X177114485Y-74942700D01*
X177191727Y-74910705D01*
X177420535Y-74757820D01*
X177615120Y-74563235D01*
X177768005Y-74334427D01*
X177873314Y-74080190D01*
X177927000Y-73810292D01*
X177927000Y-73535108D01*
X177873314Y-73265210D01*
X177768005Y-73010973D01*
X177615120Y-72782165D01*
X177420535Y-72587580D01*
X177191727Y-72434695D01*
X177114485Y-72402700D01*
X177191727Y-72370705D01*
X177420535Y-72217820D01*
X177615120Y-72023235D01*
X177768005Y-71794427D01*
X177873314Y-71540190D01*
X177927000Y-71270292D01*
X177927000Y-70995108D01*
X177873314Y-70725210D01*
X177768005Y-70470973D01*
X177615120Y-70242165D01*
X177420535Y-70047580D01*
X177191727Y-69894695D01*
X177114485Y-69862700D01*
X177191727Y-69830705D01*
X177420535Y-69677820D01*
X177615120Y-69483235D01*
X177768005Y-69254427D01*
X177873314Y-69000190D01*
X177927000Y-68730292D01*
X177927000Y-68455108D01*
X177873314Y-68185210D01*
X177768005Y-67930973D01*
X177615120Y-67702165D01*
X177420535Y-67507580D01*
X177191727Y-67354695D01*
X177114485Y-67322700D01*
X177191727Y-67290705D01*
X177420535Y-67137820D01*
X177615120Y-66943235D01*
X177768005Y-66714427D01*
X177873314Y-66460190D01*
X177927000Y-66190292D01*
X177927000Y-65915108D01*
X177873314Y-65645210D01*
X177768005Y-65390973D01*
X177615120Y-65162165D01*
X177420535Y-64967580D01*
X177191727Y-64814695D01*
X176937490Y-64709386D01*
X176667592Y-64655700D01*
X176392408Y-64655700D01*
X176122510Y-64709386D01*
X175868273Y-64814695D01*
X175639465Y-64967580D01*
X175444880Y-65162165D01*
X175291995Y-65390973D01*
X175260000Y-65468215D01*
X175228005Y-65390973D01*
X175075120Y-65162165D01*
X174880535Y-64967580D01*
X174651727Y-64814695D01*
X174397490Y-64709386D01*
X174127592Y-64655700D01*
X173852408Y-64655700D01*
X173582510Y-64709386D01*
X173328273Y-64814695D01*
X173099465Y-64967580D01*
X172904880Y-65162165D01*
X172892589Y-65180559D01*
X172692344Y-64697124D01*
X172382088Y-64232793D01*
X171987207Y-63837912D01*
X171522876Y-63527656D01*
X171006939Y-63313948D01*
X170459223Y-63205000D01*
X169900777Y-63205000D01*
X169353061Y-63313948D01*
X168837124Y-63527656D01*
X168372793Y-63837912D01*
X167977912Y-64232793D01*
X167667656Y-64697124D01*
X167571904Y-64928289D01*
X167558405Y-64903033D01*
X167380654Y-64686445D01*
X167164066Y-64508695D01*
X166916962Y-64376616D01*
X166648838Y-64295281D01*
X166370000Y-64267818D01*
X166091161Y-64295281D01*
X165823037Y-64376616D01*
X165575933Y-64508695D01*
X165359345Y-64686446D01*
X165181595Y-64903034D01*
X165100000Y-65055688D01*
X165018405Y-64903033D01*
X164840654Y-64686445D01*
X164624066Y-64508695D01*
X164376962Y-64376616D01*
X164108838Y-64295281D01*
X163830000Y-64267818D01*
X163551161Y-64295281D01*
X163283037Y-64376616D01*
X163035933Y-64508695D01*
X162819345Y-64686446D01*
X162641595Y-64903034D01*
X162563394Y-65049338D01*
X162478405Y-64890333D01*
X162300654Y-64673745D01*
X162084066Y-64495995D01*
X161836962Y-64363916D01*
X161568838Y-64282581D01*
X161290000Y-64255118D01*
X161011161Y-64282581D01*
X160743037Y-64363916D01*
X160495933Y-64495995D01*
X160279345Y-64673746D01*
X160101595Y-64890334D01*
X160020000Y-65042988D01*
X159938405Y-64890333D01*
X159760654Y-64673745D01*
X159544066Y-64495995D01*
X159296962Y-64363916D01*
X159028838Y-64282581D01*
X158750000Y-64255118D01*
X158471161Y-64282581D01*
X158203037Y-64363916D01*
X157955933Y-64495995D01*
X157739345Y-64673746D01*
X157561595Y-64890334D01*
X157480000Y-65042988D01*
X157398405Y-64890333D01*
X157220654Y-64673745D01*
X157004066Y-64495995D01*
X156756962Y-64363916D01*
X156488838Y-64282581D01*
X156210000Y-64255118D01*
X155931161Y-64282581D01*
X155663037Y-64363916D01*
X155415933Y-64495995D01*
X155199345Y-64673746D01*
X155021595Y-64890334D01*
X154940000Y-65042988D01*
X154858405Y-64890333D01*
X154680654Y-64673745D01*
X154464066Y-64495995D01*
X154216962Y-64363916D01*
X153948838Y-64282581D01*
X153670000Y-64255118D01*
X153391161Y-64282581D01*
X153123037Y-64363916D01*
X152875933Y-64495995D01*
X152659345Y-64673746D01*
X152481595Y-64890334D01*
X152400000Y-65042988D01*
X152318405Y-64890333D01*
X152140654Y-64673745D01*
X151924066Y-64495995D01*
X151676962Y-64363916D01*
X151408838Y-64282581D01*
X151130000Y-64255118D01*
X150851161Y-64282581D01*
X150583037Y-64363916D01*
X150335933Y-64495995D01*
X150119345Y-64673746D01*
X149941595Y-64890334D01*
X149860000Y-65042988D01*
X149778405Y-64890333D01*
X149600654Y-64673745D01*
X149384066Y-64495995D01*
X149136962Y-64363916D01*
X148868838Y-64282581D01*
X148590000Y-64255118D01*
X148311161Y-64282581D01*
X148043037Y-64363916D01*
X147795933Y-64495995D01*
X147579345Y-64673746D01*
X147401595Y-64890334D01*
X147269516Y-65137438D01*
X147188181Y-65405562D01*
X147167600Y-65614526D01*
X144931150Y-65614526D01*
X144911819Y-65418261D01*
X144830484Y-65150137D01*
X144698405Y-64903033D01*
X144520654Y-64686445D01*
X144304066Y-64508695D01*
X144056962Y-64376616D01*
X143788838Y-64295281D01*
X143510000Y-64267818D01*
X143231161Y-64295281D01*
X142963037Y-64376616D01*
X142715933Y-64508695D01*
X142499345Y-64686446D01*
X142321595Y-64903034D01*
X142243394Y-65049338D01*
X142158405Y-64890333D01*
X141980654Y-64673745D01*
X141764066Y-64495995D01*
X141516962Y-64363916D01*
X141248838Y-64282581D01*
X140970000Y-64255118D01*
X140691161Y-64282581D01*
X140423037Y-64363916D01*
X140175933Y-64495995D01*
X139959345Y-64673746D01*
X139781595Y-64890334D01*
X139700000Y-65042988D01*
X139618405Y-64890333D01*
X139440654Y-64673745D01*
X139224066Y-64495995D01*
X138976962Y-64363916D01*
X138708838Y-64282581D01*
X138430000Y-64255118D01*
X138151161Y-64282581D01*
X137883037Y-64363916D01*
X137635933Y-64495995D01*
X137419345Y-64673746D01*
X137241595Y-64890334D01*
X137160000Y-65042988D01*
X137078405Y-64890333D01*
X136900654Y-64673745D01*
X136684066Y-64495995D01*
X136436962Y-64363916D01*
X136168838Y-64282581D01*
X135890000Y-64255118D01*
X135611161Y-64282581D01*
X135343037Y-64363916D01*
X135095933Y-64495995D01*
X134879345Y-64673746D01*
X134701595Y-64890334D01*
X134620000Y-65042988D01*
X134538405Y-64890333D01*
X134360654Y-64673745D01*
X134144066Y-64495995D01*
X133896962Y-64363916D01*
X133628838Y-64282581D01*
X133350000Y-64255118D01*
X133071161Y-64282581D01*
X132803037Y-64363916D01*
X132555933Y-64495995D01*
X132339345Y-64673746D01*
X132161595Y-64890334D01*
X132080000Y-65042988D01*
X131998405Y-64890333D01*
X131820654Y-64673745D01*
X131604066Y-64495995D01*
X131356962Y-64363916D01*
X131088838Y-64282581D01*
X130810000Y-64255118D01*
X130531161Y-64282581D01*
X130263037Y-64363916D01*
X130015933Y-64495995D01*
X129799345Y-64673746D01*
X129621595Y-64890334D01*
X129540000Y-65042988D01*
X129458405Y-64890333D01*
X129280654Y-64673745D01*
X129064066Y-64495995D01*
X128816962Y-64363916D01*
X128548838Y-64282581D01*
X128270000Y-64255118D01*
X127991161Y-64282581D01*
X127723037Y-64363916D01*
X127475933Y-64495995D01*
X127259345Y-64673746D01*
X127081595Y-64890334D01*
X127000000Y-65042988D01*
X126918405Y-64890333D01*
X126740654Y-64673745D01*
X126524066Y-64495995D01*
X126276962Y-64363916D01*
X126008838Y-64282581D01*
X125730000Y-64255118D01*
X125451161Y-64282581D01*
X125183037Y-64363916D01*
X124935933Y-64495995D01*
X124719345Y-64673746D01*
X124541595Y-64890334D01*
X124409516Y-65137438D01*
X124328181Y-65405562D01*
X124307600Y-65614526D01*
X124307600Y-66465475D01*
X124328181Y-66674439D01*
X124409516Y-66942563D01*
X124541595Y-67189667D01*
X124719346Y-67406255D01*
X124935934Y-67584005D01*
X124970000Y-67602214D01*
X124970001Y-72441956D01*
X124815241Y-72545363D01*
X124615363Y-72745241D01*
X124460000Y-72977759D01*
X124304637Y-72745241D01*
X124104759Y-72545363D01*
X123944158Y-72438053D01*
X123939003Y-72385714D01*
X123895546Y-72242453D01*
X123824974Y-72110424D01*
X123730001Y-71994699D01*
X123700997Y-71970896D01*
X123538700Y-71808599D01*
X123538700Y-66077333D01*
X123542377Y-66040000D01*
X123527703Y-65891014D01*
X123484246Y-65747753D01*
X123413674Y-65615724D01*
X123318701Y-65499999D01*
X123202976Y-65405026D01*
X123070947Y-65334454D01*
X123043746Y-65326203D01*
X122986484Y-65137437D01*
X122854405Y-64890333D01*
X122676654Y-64673745D01*
X122460066Y-64495995D01*
X122212962Y-64363916D01*
X121944838Y-64282581D01*
X121666000Y-64255118D01*
X121387161Y-64282581D01*
X121119037Y-64363916D01*
X120871933Y-64495995D01*
X120655345Y-64673746D01*
X120477595Y-64890334D01*
X120396000Y-65042988D01*
X120314405Y-64890333D01*
X120136654Y-64673745D01*
X119920066Y-64495995D01*
X119672962Y-64363916D01*
X119404838Y-64282581D01*
X119126000Y-64255118D01*
X118847161Y-64282581D01*
X118579037Y-64363916D01*
X118331933Y-64495995D01*
X118115345Y-64673746D01*
X117937595Y-64890334D01*
X117856000Y-65042988D01*
X117774405Y-64890333D01*
X117596654Y-64673745D01*
X117380066Y-64495995D01*
X117132962Y-64363916D01*
X116864838Y-64282581D01*
X116586000Y-64255118D01*
X116307161Y-64282581D01*
X116039037Y-64363916D01*
X115791933Y-64495995D01*
X115575345Y-64673746D01*
X115397595Y-64890334D01*
X115316000Y-65042988D01*
X115234405Y-64890333D01*
X115056654Y-64673745D01*
X114840066Y-64495995D01*
X114592962Y-64363916D01*
X114324838Y-64282581D01*
X114046000Y-64255118D01*
X113767161Y-64282581D01*
X113499037Y-64363916D01*
X113251933Y-64495995D01*
X113035345Y-64673746D01*
X112857595Y-64890334D01*
X112776000Y-65042988D01*
X112694405Y-64890333D01*
X112516654Y-64673745D01*
X112300066Y-64495995D01*
X112052962Y-64363916D01*
X111784838Y-64282581D01*
X111506000Y-64255118D01*
X111227161Y-64282581D01*
X110959037Y-64363916D01*
X110711933Y-64495995D01*
X110495345Y-64673746D01*
X110317595Y-64890334D01*
X110236000Y-65042988D01*
X110154405Y-64890333D01*
X109976654Y-64673745D01*
X109760066Y-64495995D01*
X109512962Y-64363916D01*
X109244838Y-64282581D01*
X108966000Y-64255118D01*
X108687161Y-64282581D01*
X108419037Y-64363916D01*
X108171933Y-64495995D01*
X107955345Y-64673746D01*
X107777595Y-64890334D01*
X107695187Y-65044510D01*
X107691526Y-65035438D01*
X107538125Y-64801260D01*
X107341986Y-64601508D01*
X107110646Y-64443859D01*
X106852996Y-64334372D01*
X106773060Y-64317690D01*
X106553000Y-64439848D01*
X106553000Y-65925700D01*
X106573000Y-65925700D01*
X106573000Y-66179700D01*
X106553000Y-66179700D01*
X106553000Y-67665552D01*
X106773060Y-67787710D01*
X106852996Y-67771028D01*
X107110646Y-67661541D01*
X107341986Y-67503892D01*
X107538125Y-67304140D01*
X107691526Y-67069962D01*
X107701027Y-67046418D01*
X107777595Y-67189667D01*
X107955346Y-67406255D01*
X108171934Y-67584005D01*
X108206000Y-67602214D01*
X108206001Y-71203897D01*
X107438998Y-71970901D01*
X107410000Y-71994699D01*
X107386203Y-72023696D01*
X107386201Y-72023698D01*
X107315026Y-72110424D01*
X107244454Y-72242454D01*
X107221087Y-72319488D01*
X107200999Y-72385713D01*
X107200998Y-72385715D01*
X107195843Y-72438052D01*
X107035241Y-72545363D01*
X106835363Y-72745241D01*
X106678320Y-72980273D01*
X106570147Y-73241426D01*
X106515000Y-73518665D01*
X92100000Y-73518665D01*
X92100000Y-65760777D01*
X92415000Y-65760777D01*
X92415000Y-66319223D01*
X92523948Y-66866939D01*
X92737656Y-67382876D01*
X93047912Y-67847207D01*
X93442793Y-68242088D01*
X93907124Y-68552344D01*
X94423061Y-68766052D01*
X94970777Y-68875000D01*
X95529223Y-68875000D01*
X96076939Y-68766052D01*
X96592876Y-68552344D01*
X97057207Y-68242088D01*
X97452088Y-67847207D01*
X97762344Y-67382876D01*
X97763482Y-67380129D01*
X97795346Y-67418955D01*
X98011934Y-67596705D01*
X98259038Y-67728784D01*
X98527162Y-67810119D01*
X98806000Y-67837582D01*
X99084839Y-67810119D01*
X99352963Y-67728784D01*
X99600067Y-67596705D01*
X99816655Y-67418955D01*
X99994405Y-67202367D01*
X100076000Y-67049713D01*
X100157595Y-67202367D01*
X100335346Y-67418955D01*
X100551934Y-67596705D01*
X100799038Y-67728784D01*
X101067162Y-67810119D01*
X101346000Y-67837582D01*
X101624839Y-67810119D01*
X101892963Y-67728784D01*
X102140067Y-67596705D01*
X102356655Y-67418955D01*
X102534405Y-67202367D01*
X102616000Y-67049713D01*
X102697595Y-67202367D01*
X102875346Y-67418955D01*
X103091934Y-67596705D01*
X103339038Y-67728784D01*
X103607162Y-67810119D01*
X103886000Y-67837582D01*
X104164839Y-67810119D01*
X104432963Y-67728784D01*
X104680067Y-67596705D01*
X104896655Y-67418955D01*
X105074405Y-67202367D01*
X105153893Y-67053655D01*
X105160474Y-67069962D01*
X105313875Y-67304140D01*
X105510014Y-67503892D01*
X105741354Y-67661541D01*
X105999004Y-67771028D01*
X106078940Y-67787710D01*
X106299000Y-67665552D01*
X106299000Y-66179700D01*
X106279000Y-66179700D01*
X106279000Y-65925700D01*
X106299000Y-65925700D01*
X106299000Y-64439848D01*
X106078940Y-64317690D01*
X105999004Y-64334372D01*
X105741354Y-64443859D01*
X105510014Y-64601508D01*
X105313875Y-64801260D01*
X105160474Y-65035438D01*
X105153893Y-65051745D01*
X105074405Y-64903033D01*
X104896654Y-64686445D01*
X104680066Y-64508695D01*
X104432962Y-64376616D01*
X104164838Y-64295281D01*
X103886000Y-64267818D01*
X103607161Y-64295281D01*
X103339037Y-64376616D01*
X103091933Y-64508695D01*
X102875345Y-64686446D01*
X102697595Y-64903034D01*
X102616000Y-65055688D01*
X102534405Y-64903033D01*
X102356654Y-64686445D01*
X102140066Y-64508695D01*
X101892962Y-64376616D01*
X101624838Y-64295281D01*
X101346000Y-64267818D01*
X101067161Y-64295281D01*
X100799037Y-64376616D01*
X100551933Y-64508695D01*
X100335345Y-64686446D01*
X100157595Y-64903034D01*
X100076000Y-65055688D01*
X99994405Y-64903033D01*
X99816654Y-64686445D01*
X99600066Y-64508695D01*
X99352962Y-64376616D01*
X99084838Y-64295281D01*
X98806000Y-64267818D01*
X98527161Y-64295281D01*
X98259037Y-64376616D01*
X98011933Y-64508695D01*
X97795345Y-64686446D01*
X97770474Y-64716751D01*
X97762344Y-64697124D01*
X97452088Y-64232793D01*
X97057207Y-63837912D01*
X96592876Y-63527656D01*
X96076939Y-63313948D01*
X95529223Y-63205000D01*
X94970777Y-63205000D01*
X94423061Y-63313948D01*
X93907124Y-63527656D01*
X93442793Y-63837912D01*
X93047912Y-64232793D01*
X92737656Y-64697124D01*
X92523948Y-65213061D01*
X92415000Y-65760777D01*
X92100000Y-65760777D01*
X92100000Y-62890000D01*
X179680000Y-62890000D01*
X179680001Y-74897581D01*
G36*
X169037000Y-109093000D02*
G01*
X169057000Y-109093000D01*
X169057000Y-109347000D01*
X169037000Y-109347000D01*
X169037000Y-109367000D01*
X168783000Y-109367000D01*
X168783000Y-109347000D01*
X168763000Y-109347000D01*
X168763000Y-109093000D01*
X168783000Y-109093000D01*
X168783000Y-109073000D01*
X169037000Y-109073000D01*
X169037000Y-109093000D01*
G37*
X169037000Y-109093000D02*
X169057000Y-109093000D01*
X169057000Y-109347000D01*
X169037000Y-109347000D01*
X169037000Y-109367000D01*
X168783000Y-109367000D01*
X168783000Y-109347000D01*
X168763000Y-109347000D01*
X168763000Y-109093000D01*
X168783000Y-109093000D01*
X168783000Y-109073000D01*
X169037000Y-109073000D01*
X169037000Y-109093000D01*
M02*
