G04 #@! TF.GenerationSoftware,KiCad,Pcbnew,5.1.5-52549c5~84~ubuntu18.04.1*
G04 #@! TF.CreationDate,2019-12-29T10:54:49+01:00*
G04 #@! TF.ProjectId,schema,73636865-6d61-42e6-9b69-6361645f7063,rev?*
G04 #@! TF.SameCoordinates,Original*
G04 #@! TF.FileFunction,Legend,Bot*
G04 #@! TF.FilePolarity,Positive*
%FSLAX46Y46*%
G04 Gerber Fmt 4.6, Leading zero omitted, Abs format (unit mm)*
G04 Created by KiCad (PCBNEW 5.1.5-52549c5~84~ubuntu18.04.1) date 2019-12-29 10:54:49*
%MOMM*%
%LPD*%
G04 APERTURE LIST*
%ADD10C,0.120000*%
%ADD11C,0.150000*%
%ADD12C,0.500000*%
%ADD13C,0.050000*%
G04 APERTURE END LIST*
D10*
X111760000Y-67310000D02*
X111760000Y-92710000D01*
X100330000Y-67310000D02*
X111760000Y-67310000D01*
X100330000Y-92710000D02*
X100330000Y-67310000D01*
X111760000Y-92710000D02*
X100330000Y-92710000D01*
D11*
X106415833Y-79800000D02*
X106382500Y-79833333D01*
X106415833Y-79866666D01*
X106449166Y-79833333D01*
X106415833Y-79800000D01*
X106415833Y-79866666D01*
X106415833Y-79433333D02*
X106382500Y-79466666D01*
X106415833Y-79500000D01*
X106449166Y-79466666D01*
X106415833Y-79433333D01*
X106415833Y-79500000D01*
X105615833Y-79166666D02*
X105149166Y-79166666D01*
X105449166Y-79866666D01*
X106415833Y-81000000D02*
X106382500Y-81033333D01*
X106415833Y-81066666D01*
X106449166Y-81033333D01*
X106415833Y-81000000D01*
X106415833Y-81066666D01*
X106415833Y-80633333D02*
X106382500Y-80666666D01*
X106415833Y-80700000D01*
X106449166Y-80666666D01*
X106415833Y-80633333D01*
X106415833Y-80700000D01*
X105449166Y-80666666D02*
X105515833Y-80633333D01*
X105549166Y-80600000D01*
X105582500Y-80533333D01*
X105582500Y-80500000D01*
X105549166Y-80433333D01*
X105515833Y-80400000D01*
X105449166Y-80366666D01*
X105315833Y-80366666D01*
X105249166Y-80400000D01*
X105215833Y-80433333D01*
X105182500Y-80500000D01*
X105182500Y-80533333D01*
X105215833Y-80600000D01*
X105249166Y-80633333D01*
X105315833Y-80666666D01*
X105449166Y-80666666D01*
X105515833Y-80700000D01*
X105549166Y-80733333D01*
X105582500Y-80800000D01*
X105582500Y-80933333D01*
X105549166Y-81000000D01*
X105515833Y-81033333D01*
X105449166Y-81066666D01*
X105315833Y-81066666D01*
X105249166Y-81033333D01*
X105215833Y-81000000D01*
X105182500Y-80933333D01*
X105182500Y-80800000D01*
X105215833Y-80733333D01*
X105249166Y-80700000D01*
X105315833Y-80666666D01*
X106415833Y-82200000D02*
X106382500Y-82233333D01*
X106415833Y-82266666D01*
X106449166Y-82233333D01*
X106415833Y-82200000D01*
X106415833Y-82266666D01*
X106415833Y-81833333D02*
X106382500Y-81866666D01*
X106415833Y-81900000D01*
X106449166Y-81866666D01*
X106415833Y-81833333D01*
X106415833Y-81900000D01*
X105515833Y-82266666D02*
X105382500Y-82266666D01*
X105315833Y-82233333D01*
X105282500Y-82200000D01*
X105215833Y-82100000D01*
X105182500Y-81966666D01*
X105182500Y-81700000D01*
X105215833Y-81633333D01*
X105249166Y-81600000D01*
X105315833Y-81566666D01*
X105449166Y-81566666D01*
X105515833Y-81600000D01*
X105549166Y-81633333D01*
X105582500Y-81700000D01*
X105582500Y-81866666D01*
X105549166Y-81933333D01*
X105515833Y-81966666D01*
X105449166Y-82000000D01*
X105315833Y-82000000D01*
X105249166Y-81966666D01*
X105215833Y-81933333D01*
X105182500Y-81866666D01*
X106415833Y-83400000D02*
X106382500Y-83433333D01*
X106415833Y-83466666D01*
X106449166Y-83433333D01*
X106415833Y-83400000D01*
X106415833Y-83466666D01*
X106415833Y-83033333D02*
X106382500Y-83066666D01*
X106415833Y-83100000D01*
X106449166Y-83066666D01*
X106415833Y-83033333D01*
X106415833Y-83100000D01*
X105182500Y-83466666D02*
X105582500Y-83466666D01*
X105382500Y-83466666D02*
X105382500Y-82766666D01*
X105449166Y-82866666D01*
X105515833Y-82933333D01*
X105582500Y-82966666D01*
X104749166Y-82766666D02*
X104682500Y-82766666D01*
X104615833Y-82800000D01*
X104582500Y-82833333D01*
X104549166Y-82900000D01*
X104515833Y-83033333D01*
X104515833Y-83200000D01*
X104549166Y-83333333D01*
X104582500Y-83400000D01*
X104615833Y-83433333D01*
X104682500Y-83466666D01*
X104749166Y-83466666D01*
X104815833Y-83433333D01*
X104849166Y-83400000D01*
X104882500Y-83333333D01*
X104915833Y-83200000D01*
X104915833Y-83033333D01*
X104882500Y-82900000D01*
X104849166Y-82833333D01*
X104815833Y-82800000D01*
X104749166Y-82766666D01*
X106415833Y-84600000D02*
X106382500Y-84633333D01*
X106415833Y-84666666D01*
X106449166Y-84633333D01*
X106415833Y-84600000D01*
X106415833Y-84666666D01*
X106415833Y-84233333D02*
X106382500Y-84266666D01*
X106415833Y-84300000D01*
X106449166Y-84266666D01*
X106415833Y-84233333D01*
X106415833Y-84300000D01*
X105182500Y-84666666D02*
X105582500Y-84666666D01*
X105382500Y-84666666D02*
X105382500Y-83966666D01*
X105449166Y-84066666D01*
X105515833Y-84133333D01*
X105582500Y-84166666D01*
X104515833Y-84666666D02*
X104915833Y-84666666D01*
X104715833Y-84666666D02*
X104715833Y-83966666D01*
X104782500Y-84066666D01*
X104849166Y-84133333D01*
X104915833Y-84166666D01*
X106415833Y-85800000D02*
X106382500Y-85833333D01*
X106415833Y-85866666D01*
X106449166Y-85833333D01*
X106415833Y-85800000D01*
X106415833Y-85866666D01*
X106415833Y-85433333D02*
X106382500Y-85466666D01*
X106415833Y-85500000D01*
X106449166Y-85466666D01*
X106415833Y-85433333D01*
X106415833Y-85500000D01*
X105182500Y-85866666D02*
X105582500Y-85866666D01*
X105382500Y-85866666D02*
X105382500Y-85166666D01*
X105449166Y-85266666D01*
X105515833Y-85333333D01*
X105582500Y-85366666D01*
X104915833Y-85233333D02*
X104882500Y-85200000D01*
X104815833Y-85166666D01*
X104649166Y-85166666D01*
X104582500Y-85200000D01*
X104549166Y-85233333D01*
X104515833Y-85300000D01*
X104515833Y-85366666D01*
X104549166Y-85466666D01*
X104949166Y-85866666D01*
X104515833Y-85866666D01*
X106415833Y-87000000D02*
X106382500Y-87033333D01*
X106415833Y-87066666D01*
X106449166Y-87033333D01*
X106415833Y-87000000D01*
X106415833Y-87066666D01*
X106415833Y-86633333D02*
X106382500Y-86666666D01*
X106415833Y-86700000D01*
X106449166Y-86666666D01*
X106415833Y-86633333D01*
X106415833Y-86700000D01*
X105182500Y-87066666D02*
X105582500Y-87066666D01*
X105382500Y-87066666D02*
X105382500Y-86366666D01*
X105449166Y-86466666D01*
X105515833Y-86533333D01*
X105582500Y-86566666D01*
X104949166Y-86366666D02*
X104515833Y-86366666D01*
X104749166Y-86633333D01*
X104649166Y-86633333D01*
X104582500Y-86666666D01*
X104549166Y-86700000D01*
X104515833Y-86766666D01*
X104515833Y-86933333D01*
X104549166Y-87000000D01*
X104582500Y-87033333D01*
X104649166Y-87066666D01*
X104849166Y-87066666D01*
X104915833Y-87033333D01*
X104949166Y-87000000D01*
X106415833Y-69640000D02*
X106382500Y-69673333D01*
X106415833Y-69706666D01*
X106449166Y-69673333D01*
X106415833Y-69640000D01*
X106415833Y-69706666D01*
X106415833Y-69273333D02*
X106382500Y-69306666D01*
X106415833Y-69340000D01*
X106449166Y-69306666D01*
X106415833Y-69273333D01*
X106415833Y-69340000D01*
X105582500Y-69506666D02*
X105249166Y-69506666D01*
X105649166Y-69706666D02*
X105415833Y-69006666D01*
X105182500Y-69706666D01*
X104915833Y-69706666D02*
X104782500Y-69706666D01*
X104715833Y-69673333D01*
X104682500Y-69640000D01*
X104615833Y-69540000D01*
X104582500Y-69406666D01*
X104582500Y-69140000D01*
X104615833Y-69073333D01*
X104649166Y-69040000D01*
X104715833Y-69006666D01*
X104849166Y-69006666D01*
X104915833Y-69040000D01*
X104949166Y-69073333D01*
X104982500Y-69140000D01*
X104982500Y-69306666D01*
X104949166Y-69373333D01*
X104915833Y-69406666D01*
X104849166Y-69440000D01*
X104715833Y-69440000D01*
X104649166Y-69406666D01*
X104615833Y-69373333D01*
X104582500Y-69306666D01*
X106415833Y-70840000D02*
X106382500Y-70873333D01*
X106415833Y-70906666D01*
X106449166Y-70873333D01*
X106415833Y-70840000D01*
X106415833Y-70906666D01*
X106415833Y-70473333D02*
X106382500Y-70506666D01*
X106415833Y-70540000D01*
X106449166Y-70506666D01*
X106415833Y-70473333D01*
X106415833Y-70540000D01*
X105582500Y-70706666D02*
X105249166Y-70706666D01*
X105649166Y-70906666D02*
X105415833Y-70206666D01*
X105182500Y-70906666D01*
X104582500Y-70906666D02*
X104982500Y-70906666D01*
X104782500Y-70906666D02*
X104782500Y-70206666D01*
X104849166Y-70306666D01*
X104915833Y-70373333D01*
X104982500Y-70406666D01*
X104149166Y-70206666D02*
X104082500Y-70206666D01*
X104015833Y-70240000D01*
X103982500Y-70273333D01*
X103949166Y-70340000D01*
X103915833Y-70473333D01*
X103915833Y-70640000D01*
X103949166Y-70773333D01*
X103982500Y-70840000D01*
X104015833Y-70873333D01*
X104082500Y-70906666D01*
X104149166Y-70906666D01*
X104215833Y-70873333D01*
X104249166Y-70840000D01*
X104282500Y-70773333D01*
X104315833Y-70640000D01*
X104315833Y-70473333D01*
X104282500Y-70340000D01*
X104249166Y-70273333D01*
X104215833Y-70240000D01*
X104149166Y-70206666D01*
X106415833Y-72040000D02*
X106382500Y-72073333D01*
X106415833Y-72106666D01*
X106449166Y-72073333D01*
X106415833Y-72040000D01*
X106415833Y-72106666D01*
X106415833Y-71673333D02*
X106382500Y-71706666D01*
X106415833Y-71740000D01*
X106449166Y-71706666D01*
X106415833Y-71673333D01*
X106415833Y-71740000D01*
X105582500Y-71906666D02*
X105249166Y-71906666D01*
X105649166Y-72106666D02*
X105415833Y-71406666D01*
X105182500Y-72106666D01*
X104582500Y-72106666D02*
X104982500Y-72106666D01*
X104782500Y-72106666D02*
X104782500Y-71406666D01*
X104849166Y-71506666D01*
X104915833Y-71573333D01*
X104982500Y-71606666D01*
X103915833Y-72106666D02*
X104315833Y-72106666D01*
X104115833Y-72106666D02*
X104115833Y-71406666D01*
X104182500Y-71506666D01*
X104249166Y-71573333D01*
X104315833Y-71606666D01*
X106415833Y-73240000D02*
X106382500Y-73273333D01*
X106415833Y-73306666D01*
X106449166Y-73273333D01*
X106415833Y-73240000D01*
X106415833Y-73306666D01*
X106415833Y-72873333D02*
X106382500Y-72906666D01*
X106415833Y-72940000D01*
X106449166Y-72906666D01*
X106415833Y-72873333D01*
X106415833Y-72940000D01*
X105582500Y-73106666D02*
X105249166Y-73106666D01*
X105649166Y-73306666D02*
X105415833Y-72606666D01*
X105182500Y-73306666D01*
X104582500Y-73306666D02*
X104982500Y-73306666D01*
X104782500Y-73306666D02*
X104782500Y-72606666D01*
X104849166Y-72706666D01*
X104915833Y-72773333D01*
X104982500Y-72806666D01*
X104315833Y-72673333D02*
X104282500Y-72640000D01*
X104215833Y-72606666D01*
X104049166Y-72606666D01*
X103982500Y-72640000D01*
X103949166Y-72673333D01*
X103915833Y-72740000D01*
X103915833Y-72806666D01*
X103949166Y-72906666D01*
X104349166Y-73306666D01*
X103915833Y-73306666D01*
X106415833Y-74440000D02*
X106382500Y-74473333D01*
X106415833Y-74506666D01*
X106449166Y-74473333D01*
X106415833Y-74440000D01*
X106415833Y-74506666D01*
X106415833Y-74073333D02*
X106382500Y-74106666D01*
X106415833Y-74140000D01*
X106449166Y-74106666D01*
X106415833Y-74073333D01*
X106415833Y-74140000D01*
X105582500Y-74306666D02*
X105249166Y-74306666D01*
X105649166Y-74506666D02*
X105415833Y-73806666D01*
X105182500Y-74506666D01*
X104582500Y-74506666D02*
X104982500Y-74506666D01*
X104782500Y-74506666D02*
X104782500Y-73806666D01*
X104849166Y-73906666D01*
X104915833Y-73973333D01*
X104982500Y-74006666D01*
X104349166Y-73806666D02*
X103915833Y-73806666D01*
X104149166Y-74073333D01*
X104049166Y-74073333D01*
X103982500Y-74106666D01*
X103949166Y-74140000D01*
X103915833Y-74206666D01*
X103915833Y-74373333D01*
X103949166Y-74440000D01*
X103982500Y-74473333D01*
X104049166Y-74506666D01*
X104249166Y-74506666D01*
X104315833Y-74473333D01*
X104349166Y-74440000D01*
X106415833Y-75640000D02*
X106382500Y-75673333D01*
X106415833Y-75706666D01*
X106449166Y-75673333D01*
X106415833Y-75640000D01*
X106415833Y-75706666D01*
X106415833Y-75273333D02*
X106382500Y-75306666D01*
X106415833Y-75340000D01*
X106449166Y-75306666D01*
X106415833Y-75273333D01*
X106415833Y-75340000D01*
X105582500Y-75506666D02*
X105249166Y-75506666D01*
X105649166Y-75706666D02*
X105415833Y-75006666D01*
X105182500Y-75706666D01*
X104582500Y-75706666D02*
X104982500Y-75706666D01*
X104782500Y-75706666D02*
X104782500Y-75006666D01*
X104849166Y-75106666D01*
X104915833Y-75173333D01*
X104982500Y-75206666D01*
X103982500Y-75240000D02*
X103982500Y-75706666D01*
X104149166Y-74973333D02*
X104315833Y-75473333D01*
X103882500Y-75473333D01*
X106415833Y-76840000D02*
X106382500Y-76873333D01*
X106415833Y-76906666D01*
X106449166Y-76873333D01*
X106415833Y-76840000D01*
X106415833Y-76906666D01*
X106415833Y-76473333D02*
X106382500Y-76506666D01*
X106415833Y-76540000D01*
X106449166Y-76506666D01*
X106415833Y-76473333D01*
X106415833Y-76540000D01*
X105582500Y-76706666D02*
X105249166Y-76706666D01*
X105649166Y-76906666D02*
X105415833Y-76206666D01*
X105182500Y-76906666D01*
X104582500Y-76906666D02*
X104982500Y-76906666D01*
X104782500Y-76906666D02*
X104782500Y-76206666D01*
X104849166Y-76306666D01*
X104915833Y-76373333D01*
X104982500Y-76406666D01*
X103949166Y-76206666D02*
X104282500Y-76206666D01*
X104315833Y-76540000D01*
X104282500Y-76506666D01*
X104215833Y-76473333D01*
X104049166Y-76473333D01*
X103982500Y-76506666D01*
X103949166Y-76540000D01*
X103915833Y-76606666D01*
X103915833Y-76773333D01*
X103949166Y-76840000D01*
X103982500Y-76873333D01*
X104049166Y-76906666D01*
X104215833Y-76906666D01*
X104282500Y-76873333D01*
X104315833Y-76840000D01*
X108589166Y-106996666D02*
X108989166Y-106996666D01*
X108789166Y-106996666D02*
X108789166Y-106296666D01*
X108855833Y-106396666D01*
X108922500Y-106463333D01*
X108989166Y-106496666D01*
X149229166Y-85406666D02*
X149629166Y-85406666D01*
X149429166Y-85406666D02*
X149429166Y-84706666D01*
X149495833Y-84806666D01*
X149562500Y-84873333D01*
X149629166Y-84906666D01*
X132719166Y-94296666D02*
X133119166Y-94296666D01*
X132919166Y-94296666D02*
X132919166Y-93596666D01*
X132985833Y-93696666D01*
X133052500Y-93763333D01*
X133119166Y-93796666D01*
X103675833Y-96946666D02*
X103675833Y-97446666D01*
X103709166Y-97546666D01*
X103775833Y-97613333D01*
X103875833Y-97646666D01*
X103942500Y-97646666D01*
X103242500Y-97646666D02*
X103309166Y-97613333D01*
X103342500Y-97580000D01*
X103375833Y-97513333D01*
X103375833Y-97313333D01*
X103342500Y-97246666D01*
X103309166Y-97213333D01*
X103242500Y-97180000D01*
X103142500Y-97180000D01*
X103075833Y-97213333D01*
X103042500Y-97246666D01*
X103009166Y-97313333D01*
X103009166Y-97513333D01*
X103042500Y-97580000D01*
X103075833Y-97613333D01*
X103142500Y-97646666D01*
X103242500Y-97646666D01*
X102775833Y-97180000D02*
X102609166Y-97646666D01*
X102442500Y-97180000D02*
X102609166Y-97646666D01*
X102675833Y-97813333D01*
X102709166Y-97846666D01*
X102775833Y-97880000D01*
X102209166Y-97613333D02*
X102142500Y-97646666D01*
X102009166Y-97646666D01*
X101942500Y-97613333D01*
X101909166Y-97546666D01*
X101909166Y-97513333D01*
X101942500Y-97446666D01*
X102009166Y-97413333D01*
X102109166Y-97413333D01*
X102175833Y-97380000D01*
X102209166Y-97313333D01*
X102209166Y-97280000D01*
X102175833Y-97213333D01*
X102109166Y-97180000D01*
X102009166Y-97180000D01*
X101942500Y-97213333D01*
X101709166Y-97180000D02*
X101442500Y-97180000D01*
X101609166Y-96946666D02*
X101609166Y-97546666D01*
X101575833Y-97613333D01*
X101509166Y-97646666D01*
X101442500Y-97646666D01*
X101209166Y-97646666D02*
X101209166Y-97180000D01*
X101209166Y-96946666D02*
X101242500Y-96980000D01*
X101209166Y-97013333D01*
X101175833Y-96980000D01*
X101209166Y-96946666D01*
X101209166Y-97013333D01*
X100575833Y-97613333D02*
X100642500Y-97646666D01*
X100775833Y-97646666D01*
X100842500Y-97613333D01*
X100875833Y-97580000D01*
X100909166Y-97513333D01*
X100909166Y-97313333D01*
X100875833Y-97246666D01*
X100842500Y-97213333D01*
X100775833Y-97180000D01*
X100642500Y-97180000D01*
X100575833Y-97213333D01*
X100275833Y-97646666D02*
X100275833Y-96946666D01*
X100209166Y-97380000D02*
X100009166Y-97646666D01*
X100009166Y-97180000D02*
X100275833Y-97446666D01*
X102442500Y-98846666D02*
X102842500Y-98846666D01*
X102642500Y-98846666D02*
X102642500Y-98146666D01*
X102709166Y-98246666D01*
X102775833Y-98313333D01*
X102842500Y-98346666D01*
X101609166Y-98780000D02*
X101575833Y-98813333D01*
X101609166Y-98846666D01*
X101642500Y-98813333D01*
X101609166Y-98780000D01*
X101609166Y-98846666D01*
X101609166Y-98413333D02*
X101575833Y-98446666D01*
X101609166Y-98480000D01*
X101642500Y-98446666D01*
X101609166Y-98413333D01*
X101609166Y-98480000D01*
X100375833Y-98180000D02*
X100442500Y-98146666D01*
X100542500Y-98146666D01*
X100642500Y-98180000D01*
X100709166Y-98246666D01*
X100742500Y-98313333D01*
X100775833Y-98446666D01*
X100775833Y-98546666D01*
X100742500Y-98680000D01*
X100709166Y-98746666D01*
X100642500Y-98813333D01*
X100542500Y-98846666D01*
X100475833Y-98846666D01*
X100375833Y-98813333D01*
X100342500Y-98780000D01*
X100342500Y-98546666D01*
X100475833Y-98546666D01*
X100042500Y-98846666D02*
X100042500Y-98146666D01*
X99642500Y-98846666D01*
X99642500Y-98146666D01*
X99309166Y-98846666D02*
X99309166Y-98146666D01*
X99142500Y-98146666D01*
X99042500Y-98180000D01*
X98975833Y-98246666D01*
X98942500Y-98313333D01*
X98909166Y-98446666D01*
X98909166Y-98546666D01*
X98942500Y-98680000D01*
X98975833Y-98746666D01*
X99042500Y-98813333D01*
X99142500Y-98846666D01*
X99309166Y-98846666D01*
X102842500Y-99413333D02*
X102809166Y-99380000D01*
X102742500Y-99346666D01*
X102575833Y-99346666D01*
X102509166Y-99380000D01*
X102475833Y-99413333D01*
X102442500Y-99480000D01*
X102442500Y-99546666D01*
X102475833Y-99646666D01*
X102875833Y-100046666D01*
X102442500Y-100046666D01*
X101609166Y-99980000D02*
X101575833Y-100013333D01*
X101609166Y-100046666D01*
X101642500Y-100013333D01*
X101609166Y-99980000D01*
X101609166Y-100046666D01*
X101609166Y-99613333D02*
X101575833Y-99646666D01*
X101609166Y-99680000D01*
X101642500Y-99646666D01*
X101609166Y-99613333D01*
X101609166Y-99680000D01*
X100742500Y-99780000D02*
X100209166Y-99780000D01*
X100475833Y-100046666D02*
X100475833Y-99513333D01*
X99542500Y-99346666D02*
X99875833Y-99346666D01*
X99909166Y-99680000D01*
X99875833Y-99646666D01*
X99809166Y-99613333D01*
X99642500Y-99613333D01*
X99575833Y-99646666D01*
X99542500Y-99680000D01*
X99509166Y-99746666D01*
X99509166Y-99913333D01*
X99542500Y-99980000D01*
X99575833Y-100013333D01*
X99642500Y-100046666D01*
X99809166Y-100046666D01*
X99875833Y-100013333D01*
X99909166Y-99980000D01*
X99309166Y-99346666D02*
X99075833Y-100046666D01*
X98842500Y-99346666D01*
X102875833Y-100546666D02*
X102442500Y-100546666D01*
X102675833Y-100813333D01*
X102575833Y-100813333D01*
X102509166Y-100846666D01*
X102475833Y-100880000D01*
X102442500Y-100946666D01*
X102442500Y-101113333D01*
X102475833Y-101180000D01*
X102509166Y-101213333D01*
X102575833Y-101246666D01*
X102775833Y-101246666D01*
X102842500Y-101213333D01*
X102875833Y-101180000D01*
X101609166Y-101180000D02*
X101575833Y-101213333D01*
X101609166Y-101246666D01*
X101642500Y-101213333D01*
X101609166Y-101180000D01*
X101609166Y-101246666D01*
X101609166Y-100813333D02*
X101575833Y-100846666D01*
X101609166Y-100880000D01*
X101642500Y-100846666D01*
X101609166Y-100813333D01*
X101609166Y-100880000D01*
X100509166Y-100880000D02*
X100409166Y-100913333D01*
X100375833Y-100946666D01*
X100342500Y-101013333D01*
X100342500Y-101113333D01*
X100375833Y-101180000D01*
X100409166Y-101213333D01*
X100475833Y-101246666D01*
X100742500Y-101246666D01*
X100742500Y-100546666D01*
X100509166Y-100546666D01*
X100442500Y-100580000D01*
X100409166Y-100613333D01*
X100375833Y-100680000D01*
X100375833Y-100746666D01*
X100409166Y-100813333D01*
X100442500Y-100846666D01*
X100509166Y-100880000D01*
X100742500Y-100880000D01*
X99742500Y-100780000D02*
X99742500Y-101246666D01*
X100042500Y-100780000D02*
X100042500Y-101146666D01*
X100009166Y-101213333D01*
X99942500Y-101246666D01*
X99842500Y-101246666D01*
X99775833Y-101213333D01*
X99742500Y-101180000D01*
X99509166Y-100780000D02*
X99242500Y-100780000D01*
X99409166Y-100546666D02*
X99409166Y-101146666D01*
X99375833Y-101213333D01*
X99309166Y-101246666D01*
X99242500Y-101246666D01*
X99109166Y-100780000D02*
X98842500Y-100780000D01*
X99009166Y-100546666D02*
X99009166Y-101146666D01*
X98975833Y-101213333D01*
X98909166Y-101246666D01*
X98842500Y-101246666D01*
X98509166Y-101246666D02*
X98575833Y-101213333D01*
X98609166Y-101180000D01*
X98642500Y-101113333D01*
X98642500Y-100913333D01*
X98609166Y-100846666D01*
X98575833Y-100813333D01*
X98509166Y-100780000D01*
X98409166Y-100780000D01*
X98342500Y-100813333D01*
X98309166Y-100846666D01*
X98275833Y-100913333D01*
X98275833Y-101113333D01*
X98309166Y-101180000D01*
X98342500Y-101213333D01*
X98409166Y-101246666D01*
X98509166Y-101246666D01*
X97975833Y-100780000D02*
X97975833Y-101246666D01*
X97975833Y-100846666D02*
X97942500Y-100813333D01*
X97875833Y-100780000D01*
X97775833Y-100780000D01*
X97709166Y-100813333D01*
X97675833Y-100880000D01*
X97675833Y-101246666D01*
X102509166Y-101980000D02*
X102509166Y-102446666D01*
X102675833Y-101713333D02*
X102842500Y-102213333D01*
X102409166Y-102213333D01*
X101609166Y-102380000D02*
X101575833Y-102413333D01*
X101609166Y-102446666D01*
X101642500Y-102413333D01*
X101609166Y-102380000D01*
X101609166Y-102446666D01*
X101609166Y-102013333D02*
X101575833Y-102046666D01*
X101609166Y-102080000D01*
X101642500Y-102046666D01*
X101609166Y-102013333D01*
X101609166Y-102080000D01*
X100809166Y-101746666D02*
X100342500Y-102446666D01*
X100342500Y-101746666D02*
X100809166Y-102446666D01*
X102475833Y-102946666D02*
X102809166Y-102946666D01*
X102842500Y-103280000D01*
X102809166Y-103246666D01*
X102742500Y-103213333D01*
X102575833Y-103213333D01*
X102509166Y-103246666D01*
X102475833Y-103280000D01*
X102442500Y-103346666D01*
X102442500Y-103513333D01*
X102475833Y-103580000D01*
X102509166Y-103613333D01*
X102575833Y-103646666D01*
X102742500Y-103646666D01*
X102809166Y-103613333D01*
X102842500Y-103580000D01*
X101609166Y-103580000D02*
X101575833Y-103613333D01*
X101609166Y-103646666D01*
X101642500Y-103613333D01*
X101609166Y-103580000D01*
X101609166Y-103646666D01*
X101609166Y-103213333D02*
X101575833Y-103246666D01*
X101609166Y-103280000D01*
X101642500Y-103246666D01*
X101609166Y-103213333D01*
X101609166Y-103280000D01*
X100609166Y-103313333D02*
X100609166Y-103646666D01*
X100842500Y-102946666D02*
X100609166Y-103313333D01*
X100375833Y-102946666D01*
X110225833Y-78666666D02*
X110225833Y-77966666D01*
X110059166Y-77966666D01*
X109959166Y-78000000D01*
X109892500Y-78066666D01*
X109859166Y-78133333D01*
X109825833Y-78266666D01*
X109825833Y-78366666D01*
X109859166Y-78500000D01*
X109892500Y-78566666D01*
X109959166Y-78633333D01*
X110059166Y-78666666D01*
X110225833Y-78666666D01*
X109259166Y-78633333D02*
X109325833Y-78666666D01*
X109459166Y-78666666D01*
X109525833Y-78633333D01*
X109559166Y-78566666D01*
X109559166Y-78300000D01*
X109525833Y-78233333D01*
X109459166Y-78200000D01*
X109325833Y-78200000D01*
X109259166Y-78233333D01*
X109225833Y-78300000D01*
X109225833Y-78366666D01*
X109559166Y-78433333D01*
X109325833Y-77933333D02*
X109425833Y-78033333D01*
X108625833Y-78633333D02*
X108692500Y-78666666D01*
X108825833Y-78666666D01*
X108892500Y-78633333D01*
X108925833Y-78600000D01*
X108959166Y-78533333D01*
X108959166Y-78333333D01*
X108925833Y-78266666D01*
X108892500Y-78233333D01*
X108825833Y-78200000D01*
X108692500Y-78200000D01*
X108625833Y-78233333D01*
X108225833Y-78666666D02*
X108292500Y-78633333D01*
X108325833Y-78566666D01*
X108325833Y-77966666D01*
X107959166Y-78666666D02*
X107959166Y-78200000D01*
X107959166Y-77966666D02*
X107992500Y-78000000D01*
X107959166Y-78033333D01*
X107925833Y-78000000D01*
X107959166Y-77966666D01*
X107959166Y-78033333D01*
X107625833Y-78200000D02*
X107625833Y-78666666D01*
X107625833Y-78266666D02*
X107592500Y-78233333D01*
X107525833Y-78200000D01*
X107425833Y-78200000D01*
X107359166Y-78233333D01*
X107325833Y-78300000D01*
X107325833Y-78666666D01*
X106692500Y-78666666D02*
X106692500Y-78300000D01*
X106725833Y-78233333D01*
X106792500Y-78200000D01*
X106925833Y-78200000D01*
X106992500Y-78233333D01*
X106692500Y-78633333D02*
X106759166Y-78666666D01*
X106925833Y-78666666D01*
X106992500Y-78633333D01*
X107025833Y-78566666D01*
X107025833Y-78500000D01*
X106992500Y-78433333D01*
X106925833Y-78400000D01*
X106759166Y-78400000D01*
X106692500Y-78366666D01*
X106359166Y-78666666D02*
X106359166Y-78200000D01*
X106359166Y-77966666D02*
X106392500Y-78000000D01*
X106359166Y-78033333D01*
X106325833Y-78000000D01*
X106359166Y-77966666D01*
X106359166Y-78033333D01*
X106059166Y-78633333D02*
X105992500Y-78666666D01*
X105859166Y-78666666D01*
X105792500Y-78633333D01*
X105759166Y-78566666D01*
X105759166Y-78533333D01*
X105792500Y-78466666D01*
X105859166Y-78433333D01*
X105959166Y-78433333D01*
X106025833Y-78400000D01*
X106059166Y-78333333D01*
X106059166Y-78300000D01*
X106025833Y-78233333D01*
X105959166Y-78200000D01*
X105859166Y-78200000D01*
X105792500Y-78233333D01*
X105359166Y-78666666D02*
X105425833Y-78633333D01*
X105459166Y-78600000D01*
X105492500Y-78533333D01*
X105492500Y-78333333D01*
X105459166Y-78266666D01*
X105425833Y-78233333D01*
X105359166Y-78200000D01*
X105259166Y-78200000D01*
X105192500Y-78233333D01*
X105159166Y-78266666D01*
X105125833Y-78333333D01*
X105125833Y-78533333D01*
X105159166Y-78600000D01*
X105192500Y-78633333D01*
X105259166Y-78666666D01*
X105359166Y-78666666D01*
X104825833Y-78200000D02*
X104825833Y-78666666D01*
X104825833Y-78266666D02*
X104792500Y-78233333D01*
X104725833Y-78200000D01*
X104625833Y-78200000D01*
X104559166Y-78233333D01*
X104525833Y-78300000D01*
X104525833Y-78666666D01*
X109159166Y-79500000D02*
X108925833Y-79500000D01*
X108825833Y-79866666D02*
X109159166Y-79866666D01*
X109159166Y-79166666D01*
X108825833Y-79166666D01*
X108525833Y-79400000D02*
X108525833Y-79866666D01*
X108525833Y-79466666D02*
X108492500Y-79433333D01*
X108425833Y-79400000D01*
X108325833Y-79400000D01*
X108259166Y-79433333D01*
X108225833Y-79500000D01*
X108225833Y-79866666D01*
X109159166Y-81066666D02*
X109159166Y-80366666D01*
X108925833Y-80866666D01*
X108692500Y-80366666D01*
X108692500Y-81066666D01*
X108392500Y-81033333D02*
X108292500Y-81066666D01*
X108125833Y-81066666D01*
X108059166Y-81033333D01*
X108025833Y-81000000D01*
X107992500Y-80933333D01*
X107992500Y-80866666D01*
X108025833Y-80800000D01*
X108059166Y-80766666D01*
X108125833Y-80733333D01*
X108259166Y-80700000D01*
X108325833Y-80666666D01*
X108359166Y-80633333D01*
X108392500Y-80566666D01*
X108392500Y-80500000D01*
X108359166Y-80433333D01*
X108325833Y-80400000D01*
X108259166Y-80366666D01*
X108092500Y-80366666D01*
X107992500Y-80400000D01*
X107325833Y-81066666D02*
X107725833Y-81066666D01*
X107525833Y-81066666D02*
X107525833Y-80366666D01*
X107592500Y-80466666D01*
X107659166Y-80533333D01*
X107725833Y-80566666D01*
X109159166Y-82266666D02*
X109159166Y-81566666D01*
X108925833Y-82066666D01*
X108692500Y-81566666D01*
X108692500Y-82266666D01*
X108392500Y-82233333D02*
X108292500Y-82266666D01*
X108125833Y-82266666D01*
X108059166Y-82233333D01*
X108025833Y-82200000D01*
X107992500Y-82133333D01*
X107992500Y-82066666D01*
X108025833Y-82000000D01*
X108059166Y-81966666D01*
X108125833Y-81933333D01*
X108259166Y-81900000D01*
X108325833Y-81866666D01*
X108359166Y-81833333D01*
X108392500Y-81766666D01*
X108392500Y-81700000D01*
X108359166Y-81633333D01*
X108325833Y-81600000D01*
X108259166Y-81566666D01*
X108092500Y-81566666D01*
X107992500Y-81600000D01*
X107725833Y-81633333D02*
X107692500Y-81600000D01*
X107625833Y-81566666D01*
X107459166Y-81566666D01*
X107392500Y-81600000D01*
X107359166Y-81633333D01*
X107325833Y-81700000D01*
X107325833Y-81766666D01*
X107359166Y-81866666D01*
X107759166Y-82266666D01*
X107325833Y-82266666D01*
X109159166Y-83466666D02*
X109159166Y-82766666D01*
X108925833Y-83266666D01*
X108692500Y-82766666D01*
X108692500Y-83466666D01*
X108392500Y-83433333D02*
X108292500Y-83466666D01*
X108125833Y-83466666D01*
X108059166Y-83433333D01*
X108025833Y-83400000D01*
X107992500Y-83333333D01*
X107992500Y-83266666D01*
X108025833Y-83200000D01*
X108059166Y-83166666D01*
X108125833Y-83133333D01*
X108259166Y-83100000D01*
X108325833Y-83066666D01*
X108359166Y-83033333D01*
X108392500Y-82966666D01*
X108392500Y-82900000D01*
X108359166Y-82833333D01*
X108325833Y-82800000D01*
X108259166Y-82766666D01*
X108092500Y-82766666D01*
X107992500Y-82800000D01*
X107759166Y-82766666D02*
X107325833Y-82766666D01*
X107559166Y-83033333D01*
X107459166Y-83033333D01*
X107392500Y-83066666D01*
X107359166Y-83100000D01*
X107325833Y-83166666D01*
X107325833Y-83333333D01*
X107359166Y-83400000D01*
X107392500Y-83433333D01*
X107459166Y-83466666D01*
X107659166Y-83466666D01*
X107725833Y-83433333D01*
X107759166Y-83400000D01*
X108759166Y-84666666D02*
X108992500Y-84333333D01*
X109159166Y-84666666D02*
X109159166Y-83966666D01*
X108892500Y-83966666D01*
X108825833Y-84000000D01*
X108792500Y-84033333D01*
X108759166Y-84100000D01*
X108759166Y-84200000D01*
X108792500Y-84266666D01*
X108825833Y-84300000D01*
X108892500Y-84333333D01*
X109159166Y-84333333D01*
X108492500Y-84633333D02*
X108392500Y-84666666D01*
X108225833Y-84666666D01*
X108159166Y-84633333D01*
X108125833Y-84600000D01*
X108092500Y-84533333D01*
X108092500Y-84466666D01*
X108125833Y-84400000D01*
X108159166Y-84366666D01*
X108225833Y-84333333D01*
X108359166Y-84300000D01*
X108425833Y-84266666D01*
X108459166Y-84233333D01*
X108492500Y-84166666D01*
X108492500Y-84100000D01*
X108459166Y-84033333D01*
X108425833Y-84000000D01*
X108359166Y-83966666D01*
X108192500Y-83966666D01*
X108092500Y-84000000D01*
X107892500Y-83966666D02*
X107492500Y-83966666D01*
X107692500Y-84666666D02*
X107692500Y-83966666D01*
X109192500Y-85833333D02*
X109092500Y-85866666D01*
X108925833Y-85866666D01*
X108859166Y-85833333D01*
X108825833Y-85800000D01*
X108792500Y-85733333D01*
X108792500Y-85666666D01*
X108825833Y-85600000D01*
X108859166Y-85566666D01*
X108925833Y-85533333D01*
X109059166Y-85500000D01*
X109125833Y-85466666D01*
X109159166Y-85433333D01*
X109192500Y-85366666D01*
X109192500Y-85300000D01*
X109159166Y-85233333D01*
X109125833Y-85200000D01*
X109059166Y-85166666D01*
X108892500Y-85166666D01*
X108792500Y-85200000D01*
X108592500Y-85166666D02*
X108192500Y-85166666D01*
X108392500Y-85866666D02*
X108392500Y-85166666D01*
X107959166Y-85500000D02*
X107725833Y-85500000D01*
X107625833Y-85866666D02*
X107959166Y-85866666D01*
X107959166Y-85166666D01*
X107625833Y-85166666D01*
X107325833Y-85866666D02*
X107325833Y-85166666D01*
X107059166Y-85166666D01*
X106992500Y-85200000D01*
X106959166Y-85233333D01*
X106925833Y-85300000D01*
X106925833Y-85400000D01*
X106959166Y-85466666D01*
X106992500Y-85500000D01*
X107059166Y-85533333D01*
X107325833Y-85533333D01*
X109159166Y-87066666D02*
X109159166Y-86366666D01*
X108992500Y-86366666D01*
X108892500Y-86400000D01*
X108825833Y-86466666D01*
X108792500Y-86533333D01*
X108759166Y-86666666D01*
X108759166Y-86766666D01*
X108792500Y-86900000D01*
X108825833Y-86966666D01*
X108892500Y-87033333D01*
X108992500Y-87066666D01*
X109159166Y-87066666D01*
X108459166Y-87066666D02*
X108459166Y-86366666D01*
X107725833Y-87066666D02*
X107959166Y-86733333D01*
X108125833Y-87066666D02*
X108125833Y-86366666D01*
X107859166Y-86366666D01*
X107792500Y-86400000D01*
X107759166Y-86433333D01*
X107725833Y-86500000D01*
X107725833Y-86600000D01*
X107759166Y-86666666D01*
X107792500Y-86700000D01*
X107859166Y-86733333D01*
X108125833Y-86733333D01*
X110259166Y-68306666D02*
X109925833Y-68306666D01*
X110325833Y-68506666D02*
X110092500Y-67806666D01*
X109859166Y-68506666D01*
X109659166Y-68473333D02*
X109592500Y-68506666D01*
X109459166Y-68506666D01*
X109392500Y-68473333D01*
X109359166Y-68406666D01*
X109359166Y-68373333D01*
X109392500Y-68306666D01*
X109459166Y-68273333D01*
X109559166Y-68273333D01*
X109625833Y-68240000D01*
X109659166Y-68173333D01*
X109659166Y-68140000D01*
X109625833Y-68073333D01*
X109559166Y-68040000D01*
X109459166Y-68040000D01*
X109392500Y-68073333D01*
X108759166Y-68473333D02*
X108825833Y-68506666D01*
X108959166Y-68506666D01*
X109025833Y-68473333D01*
X109059166Y-68440000D01*
X109092500Y-68373333D01*
X109092500Y-68173333D01*
X109059166Y-68106666D01*
X109025833Y-68073333D01*
X108959166Y-68040000D01*
X108825833Y-68040000D01*
X108759166Y-68073333D01*
X108192500Y-68473333D02*
X108259166Y-68506666D01*
X108392500Y-68506666D01*
X108459166Y-68473333D01*
X108492500Y-68406666D01*
X108492500Y-68140000D01*
X108459166Y-68073333D01*
X108392500Y-68040000D01*
X108259166Y-68040000D01*
X108192500Y-68073333D01*
X108159166Y-68140000D01*
X108159166Y-68206666D01*
X108492500Y-68273333D01*
X107859166Y-68040000D02*
X107859166Y-68506666D01*
X107859166Y-68106666D02*
X107825833Y-68073333D01*
X107759166Y-68040000D01*
X107659166Y-68040000D01*
X107592500Y-68073333D01*
X107559166Y-68140000D01*
X107559166Y-68506666D01*
X107259166Y-68473333D02*
X107192500Y-68506666D01*
X107059166Y-68506666D01*
X106992500Y-68473333D01*
X106959166Y-68406666D01*
X106959166Y-68373333D01*
X106992500Y-68306666D01*
X107059166Y-68273333D01*
X107159166Y-68273333D01*
X107225833Y-68240000D01*
X107259166Y-68173333D01*
X107259166Y-68140000D01*
X107225833Y-68073333D01*
X107159166Y-68040000D01*
X107059166Y-68040000D01*
X106992500Y-68073333D01*
X106659166Y-68506666D02*
X106659166Y-68040000D01*
X106659166Y-67806666D02*
X106692500Y-67840000D01*
X106659166Y-67873333D01*
X106625833Y-67840000D01*
X106659166Y-67806666D01*
X106659166Y-67873333D01*
X106225833Y-68506666D02*
X106292500Y-68473333D01*
X106325833Y-68440000D01*
X106359166Y-68373333D01*
X106359166Y-68173333D01*
X106325833Y-68106666D01*
X106292500Y-68073333D01*
X106225833Y-68040000D01*
X106125833Y-68040000D01*
X106059166Y-68073333D01*
X106025833Y-68106666D01*
X105992500Y-68173333D01*
X105992500Y-68373333D01*
X106025833Y-68440000D01*
X106059166Y-68473333D01*
X106125833Y-68506666D01*
X106225833Y-68506666D01*
X105692500Y-68040000D02*
X105692500Y-68506666D01*
X105692500Y-68106666D02*
X105659166Y-68073333D01*
X105592500Y-68040000D01*
X105492500Y-68040000D01*
X105425833Y-68073333D01*
X105392500Y-68140000D01*
X105392500Y-68506666D01*
X104525833Y-68506666D02*
X104525833Y-67806666D01*
X104359166Y-67806666D01*
X104259166Y-67840000D01*
X104192500Y-67906666D01*
X104159166Y-67973333D01*
X104125833Y-68106666D01*
X104125833Y-68206666D01*
X104159166Y-68340000D01*
X104192500Y-68406666D01*
X104259166Y-68473333D01*
X104359166Y-68506666D01*
X104525833Y-68506666D01*
X103825833Y-68506666D02*
X103825833Y-68040000D01*
X103825833Y-68173333D02*
X103792500Y-68106666D01*
X103759166Y-68073333D01*
X103692500Y-68040000D01*
X103625833Y-68040000D01*
X103292500Y-68506666D02*
X103359166Y-68473333D01*
X103392500Y-68440000D01*
X103425833Y-68373333D01*
X103425833Y-68173333D01*
X103392500Y-68106666D01*
X103359166Y-68073333D01*
X103292500Y-68040000D01*
X103192500Y-68040000D01*
X103125833Y-68073333D01*
X103092500Y-68106666D01*
X103059166Y-68173333D01*
X103059166Y-68373333D01*
X103092500Y-68440000D01*
X103125833Y-68473333D01*
X103192500Y-68506666D01*
X103292500Y-68506666D01*
X102759166Y-68506666D02*
X102759166Y-68040000D01*
X102759166Y-67806666D02*
X102792500Y-67840000D01*
X102759166Y-67873333D01*
X102725833Y-67840000D01*
X102759166Y-67806666D01*
X102759166Y-67873333D01*
X102525833Y-68040000D02*
X102259166Y-68040000D01*
X102425833Y-67806666D02*
X102425833Y-68406666D01*
X102392500Y-68473333D01*
X102325833Y-68506666D01*
X102259166Y-68506666D01*
X101759166Y-68473333D02*
X101825833Y-68506666D01*
X101959166Y-68506666D01*
X102025833Y-68473333D01*
X102059166Y-68406666D01*
X102059166Y-68140000D01*
X102025833Y-68073333D01*
X101959166Y-68040000D01*
X101825833Y-68040000D01*
X101759166Y-68073333D01*
X101725833Y-68140000D01*
X101725833Y-68206666D01*
X102059166Y-68273333D01*
X109159166Y-69340000D02*
X108925833Y-69340000D01*
X108825833Y-69706666D02*
X109159166Y-69706666D01*
X109159166Y-69006666D01*
X108825833Y-69006666D01*
X108525833Y-69240000D02*
X108525833Y-69706666D01*
X108525833Y-69306666D02*
X108492500Y-69273333D01*
X108425833Y-69240000D01*
X108325833Y-69240000D01*
X108259166Y-69273333D01*
X108225833Y-69340000D01*
X108225833Y-69706666D01*
X109159166Y-70906666D02*
X109159166Y-70206666D01*
X108925833Y-70706666D01*
X108692500Y-70206666D01*
X108692500Y-70906666D01*
X108392500Y-70873333D02*
X108292500Y-70906666D01*
X108125833Y-70906666D01*
X108059166Y-70873333D01*
X108025833Y-70840000D01*
X107992500Y-70773333D01*
X107992500Y-70706666D01*
X108025833Y-70640000D01*
X108059166Y-70606666D01*
X108125833Y-70573333D01*
X108259166Y-70540000D01*
X108325833Y-70506666D01*
X108359166Y-70473333D01*
X108392500Y-70406666D01*
X108392500Y-70340000D01*
X108359166Y-70273333D01*
X108325833Y-70240000D01*
X108259166Y-70206666D01*
X108092500Y-70206666D01*
X107992500Y-70240000D01*
X107325833Y-70906666D02*
X107725833Y-70906666D01*
X107525833Y-70906666D02*
X107525833Y-70206666D01*
X107592500Y-70306666D01*
X107659166Y-70373333D01*
X107725833Y-70406666D01*
X109159166Y-72106666D02*
X109159166Y-71406666D01*
X108925833Y-71906666D01*
X108692500Y-71406666D01*
X108692500Y-72106666D01*
X108392500Y-72073333D02*
X108292500Y-72106666D01*
X108125833Y-72106666D01*
X108059166Y-72073333D01*
X108025833Y-72040000D01*
X107992500Y-71973333D01*
X107992500Y-71906666D01*
X108025833Y-71840000D01*
X108059166Y-71806666D01*
X108125833Y-71773333D01*
X108259166Y-71740000D01*
X108325833Y-71706666D01*
X108359166Y-71673333D01*
X108392500Y-71606666D01*
X108392500Y-71540000D01*
X108359166Y-71473333D01*
X108325833Y-71440000D01*
X108259166Y-71406666D01*
X108092500Y-71406666D01*
X107992500Y-71440000D01*
X107725833Y-71473333D02*
X107692500Y-71440000D01*
X107625833Y-71406666D01*
X107459166Y-71406666D01*
X107392500Y-71440000D01*
X107359166Y-71473333D01*
X107325833Y-71540000D01*
X107325833Y-71606666D01*
X107359166Y-71706666D01*
X107759166Y-72106666D01*
X107325833Y-72106666D01*
X109159166Y-73306666D02*
X109159166Y-72606666D01*
X108925833Y-73106666D01*
X108692500Y-72606666D01*
X108692500Y-73306666D01*
X108392500Y-73273333D02*
X108292500Y-73306666D01*
X108125833Y-73306666D01*
X108059166Y-73273333D01*
X108025833Y-73240000D01*
X107992500Y-73173333D01*
X107992500Y-73106666D01*
X108025833Y-73040000D01*
X108059166Y-73006666D01*
X108125833Y-72973333D01*
X108259166Y-72940000D01*
X108325833Y-72906666D01*
X108359166Y-72873333D01*
X108392500Y-72806666D01*
X108392500Y-72740000D01*
X108359166Y-72673333D01*
X108325833Y-72640000D01*
X108259166Y-72606666D01*
X108092500Y-72606666D01*
X107992500Y-72640000D01*
X107759166Y-72606666D02*
X107325833Y-72606666D01*
X107559166Y-72873333D01*
X107459166Y-72873333D01*
X107392500Y-72906666D01*
X107359166Y-72940000D01*
X107325833Y-73006666D01*
X107325833Y-73173333D01*
X107359166Y-73240000D01*
X107392500Y-73273333D01*
X107459166Y-73306666D01*
X107659166Y-73306666D01*
X107725833Y-73273333D01*
X107759166Y-73240000D01*
X108759166Y-74506666D02*
X108992500Y-74173333D01*
X109159166Y-74506666D02*
X109159166Y-73806666D01*
X108892500Y-73806666D01*
X108825833Y-73840000D01*
X108792500Y-73873333D01*
X108759166Y-73940000D01*
X108759166Y-74040000D01*
X108792500Y-74106666D01*
X108825833Y-74140000D01*
X108892500Y-74173333D01*
X109159166Y-74173333D01*
X108492500Y-74473333D02*
X108392500Y-74506666D01*
X108225833Y-74506666D01*
X108159166Y-74473333D01*
X108125833Y-74440000D01*
X108092500Y-74373333D01*
X108092500Y-74306666D01*
X108125833Y-74240000D01*
X108159166Y-74206666D01*
X108225833Y-74173333D01*
X108359166Y-74140000D01*
X108425833Y-74106666D01*
X108459166Y-74073333D01*
X108492500Y-74006666D01*
X108492500Y-73940000D01*
X108459166Y-73873333D01*
X108425833Y-73840000D01*
X108359166Y-73806666D01*
X108192500Y-73806666D01*
X108092500Y-73840000D01*
X107892500Y-73806666D02*
X107492500Y-73806666D01*
X107692500Y-74506666D02*
X107692500Y-73806666D01*
X109192500Y-75673333D02*
X109092500Y-75706666D01*
X108925833Y-75706666D01*
X108859166Y-75673333D01*
X108825833Y-75640000D01*
X108792500Y-75573333D01*
X108792500Y-75506666D01*
X108825833Y-75440000D01*
X108859166Y-75406666D01*
X108925833Y-75373333D01*
X109059166Y-75340000D01*
X109125833Y-75306666D01*
X109159166Y-75273333D01*
X109192500Y-75206666D01*
X109192500Y-75140000D01*
X109159166Y-75073333D01*
X109125833Y-75040000D01*
X109059166Y-75006666D01*
X108892500Y-75006666D01*
X108792500Y-75040000D01*
X108592500Y-75006666D02*
X108192500Y-75006666D01*
X108392500Y-75706666D02*
X108392500Y-75006666D01*
X107959166Y-75340000D02*
X107725833Y-75340000D01*
X107625833Y-75706666D02*
X107959166Y-75706666D01*
X107959166Y-75006666D01*
X107625833Y-75006666D01*
X107325833Y-75706666D02*
X107325833Y-75006666D01*
X107059166Y-75006666D01*
X106992500Y-75040000D01*
X106959166Y-75073333D01*
X106925833Y-75140000D01*
X106925833Y-75240000D01*
X106959166Y-75306666D01*
X106992500Y-75340000D01*
X107059166Y-75373333D01*
X107325833Y-75373333D01*
X109159166Y-76906666D02*
X109159166Y-76206666D01*
X108992500Y-76206666D01*
X108892500Y-76240000D01*
X108825833Y-76306666D01*
X108792500Y-76373333D01*
X108759166Y-76506666D01*
X108759166Y-76606666D01*
X108792500Y-76740000D01*
X108825833Y-76806666D01*
X108892500Y-76873333D01*
X108992500Y-76906666D01*
X109159166Y-76906666D01*
X108459166Y-76906666D02*
X108459166Y-76206666D01*
X107725833Y-76906666D02*
X107959166Y-76573333D01*
X108125833Y-76906666D02*
X108125833Y-76206666D01*
X107859166Y-76206666D01*
X107792500Y-76240000D01*
X107759166Y-76273333D01*
X107725833Y-76340000D01*
X107725833Y-76440000D01*
X107759166Y-76506666D01*
X107792500Y-76540000D01*
X107859166Y-76573333D01*
X108125833Y-76573333D01*
X110025833Y-87986666D02*
X110025833Y-88486666D01*
X110059166Y-88586666D01*
X110125833Y-88653333D01*
X110225833Y-88686666D01*
X110292500Y-88686666D01*
X109592500Y-88686666D02*
X109659166Y-88653333D01*
X109692500Y-88620000D01*
X109725833Y-88553333D01*
X109725833Y-88353333D01*
X109692500Y-88286666D01*
X109659166Y-88253333D01*
X109592500Y-88220000D01*
X109492500Y-88220000D01*
X109425833Y-88253333D01*
X109392500Y-88286666D01*
X109359166Y-88353333D01*
X109359166Y-88553333D01*
X109392500Y-88620000D01*
X109425833Y-88653333D01*
X109492500Y-88686666D01*
X109592500Y-88686666D01*
X109125833Y-88220000D02*
X108959166Y-88686666D01*
X108792500Y-88220000D02*
X108959166Y-88686666D01*
X109025833Y-88853333D01*
X109059166Y-88886666D01*
X109125833Y-88920000D01*
X108559166Y-88653333D02*
X108492500Y-88686666D01*
X108359166Y-88686666D01*
X108292500Y-88653333D01*
X108259166Y-88586666D01*
X108259166Y-88553333D01*
X108292500Y-88486666D01*
X108359166Y-88453333D01*
X108459166Y-88453333D01*
X108525833Y-88420000D01*
X108559166Y-88353333D01*
X108559166Y-88320000D01*
X108525833Y-88253333D01*
X108459166Y-88220000D01*
X108359166Y-88220000D01*
X108292500Y-88253333D01*
X108059166Y-88220000D02*
X107792500Y-88220000D01*
X107959166Y-87986666D02*
X107959166Y-88586666D01*
X107925833Y-88653333D01*
X107859166Y-88686666D01*
X107792500Y-88686666D01*
X107559166Y-88686666D02*
X107559166Y-88220000D01*
X107559166Y-87986666D02*
X107592500Y-88020000D01*
X107559166Y-88053333D01*
X107525833Y-88020000D01*
X107559166Y-87986666D01*
X107559166Y-88053333D01*
X106925833Y-88653333D02*
X106992500Y-88686666D01*
X107125833Y-88686666D01*
X107192500Y-88653333D01*
X107225833Y-88620000D01*
X107259166Y-88553333D01*
X107259166Y-88353333D01*
X107225833Y-88286666D01*
X107192500Y-88253333D01*
X107125833Y-88220000D01*
X106992500Y-88220000D01*
X106925833Y-88253333D01*
X106625833Y-88686666D02*
X106625833Y-87986666D01*
X106559166Y-88420000D02*
X106359166Y-88686666D01*
X106359166Y-88220000D02*
X106625833Y-88486666D01*
X109225833Y-89186666D02*
X108759166Y-89886666D01*
X108759166Y-89186666D02*
X109225833Y-89886666D01*
X106359166Y-89820000D02*
X106325833Y-89853333D01*
X106359166Y-89886666D01*
X106392500Y-89853333D01*
X106359166Y-89820000D01*
X106359166Y-89886666D01*
X106359166Y-89453333D02*
X106325833Y-89486666D01*
X106359166Y-89520000D01*
X106392500Y-89486666D01*
X106359166Y-89453333D01*
X106359166Y-89520000D01*
X105525833Y-89686666D02*
X105192500Y-89686666D01*
X105592500Y-89886666D02*
X105359166Y-89186666D01*
X105125833Y-89886666D01*
X104759166Y-89186666D02*
X104692500Y-89186666D01*
X104625833Y-89220000D01*
X104592500Y-89253333D01*
X104559166Y-89320000D01*
X104525833Y-89453333D01*
X104525833Y-89620000D01*
X104559166Y-89753333D01*
X104592500Y-89820000D01*
X104625833Y-89853333D01*
X104692500Y-89886666D01*
X104759166Y-89886666D01*
X104825833Y-89853333D01*
X104859166Y-89820000D01*
X104892500Y-89753333D01*
X104925833Y-89620000D01*
X104925833Y-89453333D01*
X104892500Y-89320000D01*
X104859166Y-89253333D01*
X104825833Y-89220000D01*
X104759166Y-89186666D01*
X109025833Y-90753333D02*
X109025833Y-91086666D01*
X109259166Y-90386666D02*
X109025833Y-90753333D01*
X108792500Y-90386666D01*
X106425833Y-91020000D02*
X106392500Y-91053333D01*
X106425833Y-91086666D01*
X106459166Y-91053333D01*
X106425833Y-91020000D01*
X106425833Y-91086666D01*
X106425833Y-90653333D02*
X106392500Y-90686666D01*
X106425833Y-90720000D01*
X106459166Y-90686666D01*
X106425833Y-90653333D01*
X106425833Y-90720000D01*
X105592500Y-90886666D02*
X105259166Y-90886666D01*
X105659166Y-91086666D02*
X105425833Y-90386666D01*
X105192500Y-91086666D01*
X104592500Y-91086666D02*
X104992500Y-91086666D01*
X104792500Y-91086666D02*
X104792500Y-90386666D01*
X104859166Y-90486666D01*
X104925833Y-90553333D01*
X104992500Y-90586666D01*
X108925833Y-91920000D02*
X108825833Y-91953333D01*
X108792500Y-91986666D01*
X108759166Y-92053333D01*
X108759166Y-92153333D01*
X108792500Y-92220000D01*
X108825833Y-92253333D01*
X108892500Y-92286666D01*
X109159166Y-92286666D01*
X109159166Y-91586666D01*
X108925833Y-91586666D01*
X108859166Y-91620000D01*
X108825833Y-91653333D01*
X108792500Y-91720000D01*
X108792500Y-91786666D01*
X108825833Y-91853333D01*
X108859166Y-91886666D01*
X108925833Y-91920000D01*
X109159166Y-91920000D01*
X108159166Y-91820000D02*
X108159166Y-92286666D01*
X108459166Y-91820000D02*
X108459166Y-92186666D01*
X108425833Y-92253333D01*
X108359166Y-92286666D01*
X108259166Y-92286666D01*
X108192500Y-92253333D01*
X108159166Y-92220000D01*
X107925833Y-91820000D02*
X107659166Y-91820000D01*
X107825833Y-91586666D02*
X107825833Y-92186666D01*
X107792500Y-92253333D01*
X107725833Y-92286666D01*
X107659166Y-92286666D01*
X106359166Y-92220000D02*
X106325833Y-92253333D01*
X106359166Y-92286666D01*
X106392500Y-92253333D01*
X106359166Y-92220000D01*
X106359166Y-92286666D01*
X106359166Y-91853333D02*
X106325833Y-91886666D01*
X106359166Y-91920000D01*
X106392500Y-91886666D01*
X106359166Y-91853333D01*
X106359166Y-91920000D01*
X105525833Y-91653333D02*
X105492500Y-91620000D01*
X105425833Y-91586666D01*
X105259166Y-91586666D01*
X105192500Y-91620000D01*
X105159166Y-91653333D01*
X105125833Y-91720000D01*
X105125833Y-91786666D01*
X105159166Y-91886666D01*
X105559166Y-92286666D01*
X105125833Y-92286666D01*
D10*
X105410000Y-106680000D02*
X107950000Y-106680000D01*
X107950000Y-106680000D02*
X107950000Y-93980000D01*
X105410000Y-93980000D02*
X105410000Y-106680000D01*
X107950000Y-93980000D02*
X105410000Y-93980000D01*
X160020000Y-83820000D02*
X160020000Y-81280000D01*
X149860000Y-83820000D02*
X160020000Y-83820000D01*
X149860000Y-81280000D02*
X149860000Y-83820000D01*
X160020000Y-81280000D02*
X149860000Y-81280000D01*
X133350000Y-95250000D02*
X123190000Y-95250000D01*
X133350000Y-97790000D02*
X133350000Y-95250000D01*
X123190000Y-97790000D02*
X133350000Y-97790000D01*
X123190000Y-95250000D02*
X123190000Y-97790000D01*
D11*
X159440000Y-75834761D02*
X159773333Y-74882380D01*
X160011428Y-75834761D02*
X160011428Y-73834761D01*
X159630476Y-73834761D01*
X159535238Y-73930000D01*
X159487619Y-74025238D01*
X159440000Y-74215714D01*
X159440000Y-74501428D01*
X159487619Y-74691904D01*
X159535238Y-74787142D01*
X159630476Y-74882380D01*
X160011428Y-74882380D01*
X158582857Y-74501428D02*
X158582857Y-75834761D01*
X159011428Y-74501428D02*
X159011428Y-75549047D01*
X158963809Y-75739523D01*
X158868571Y-75834761D01*
X158725714Y-75834761D01*
X158630476Y-75739523D01*
X158582857Y-75644285D01*
X158106666Y-74501428D02*
X158106666Y-75834761D01*
X158106666Y-74691904D02*
X158059047Y-74596666D01*
X157963809Y-74501428D01*
X157820952Y-74501428D01*
X157725714Y-74596666D01*
X157678095Y-74787142D01*
X157678095Y-75834761D01*
X157249523Y-75739523D02*
X157154285Y-75834761D01*
X156963809Y-75834761D01*
X156868571Y-75739523D01*
X156820952Y-75549047D01*
X156820952Y-75453809D01*
X156868571Y-75263333D01*
X156963809Y-75168095D01*
X157106666Y-75168095D01*
X157201904Y-75072857D01*
X157249523Y-74882380D01*
X157249523Y-74787142D01*
X157201904Y-74596666D01*
X157106666Y-74501428D01*
X156963809Y-74501428D01*
X156868571Y-74596666D01*
X156487619Y-74501428D02*
X156249523Y-75834761D01*
X156011428Y-74501428D02*
X156249523Y-75834761D01*
X156344761Y-76310952D01*
X156392380Y-76406190D01*
X156487619Y-76501428D01*
X155678095Y-75739523D02*
X155582857Y-75834761D01*
X155392380Y-75834761D01*
X155297142Y-75739523D01*
X155249523Y-75549047D01*
X155249523Y-75453809D01*
X155297142Y-75263333D01*
X155392380Y-75168095D01*
X155535238Y-75168095D01*
X155630476Y-75072857D01*
X155678095Y-74882380D01*
X155678095Y-74787142D01*
X155630476Y-74596666D01*
X155535238Y-74501428D01*
X155392380Y-74501428D01*
X155297142Y-74596666D01*
X153630476Y-75739523D02*
X153725714Y-75834761D01*
X153916190Y-75834761D01*
X154011428Y-75739523D01*
X154059047Y-75644285D01*
X154106666Y-75453809D01*
X154106666Y-74882380D01*
X154059047Y-74691904D01*
X154011428Y-74596666D01*
X153916190Y-74501428D01*
X153725714Y-74501428D01*
X153630476Y-74596666D01*
X153249523Y-74025238D02*
X153201904Y-73930000D01*
X153106666Y-73834761D01*
X152868571Y-73834761D01*
X152773333Y-73930000D01*
X152725714Y-74025238D01*
X152678095Y-74215714D01*
X152678095Y-74406190D01*
X152725714Y-74691904D01*
X153297142Y-75834761D01*
X152678095Y-75834761D01*
X152059047Y-73834761D02*
X151963809Y-73834761D01*
X151868571Y-73930000D01*
X151820952Y-74025238D01*
X151773333Y-74215714D01*
X151725714Y-74596666D01*
X151725714Y-75072857D01*
X151773333Y-75453809D01*
X151820952Y-75644285D01*
X151868571Y-75739523D01*
X151963809Y-75834761D01*
X152059047Y-75834761D01*
X152154285Y-75739523D01*
X152201904Y-75644285D01*
X152249523Y-75453809D01*
X152297142Y-75072857D01*
X152297142Y-74596666D01*
X152249523Y-74215714D01*
X152201904Y-74025238D01*
X152154285Y-73930000D01*
X152059047Y-73834761D01*
X150773333Y-75834761D02*
X151344761Y-75834761D01*
X151059047Y-75834761D02*
X151059047Y-73834761D01*
X151154285Y-74120476D01*
X151249523Y-74310952D01*
X151344761Y-74406190D01*
X150297142Y-75834761D02*
X150106666Y-75834761D01*
X150011428Y-75739523D01*
X149963809Y-75644285D01*
X149868571Y-75358571D01*
X149820952Y-74977619D01*
X149820952Y-74215714D01*
X149868571Y-74025238D01*
X149916190Y-73930000D01*
X150011428Y-73834761D01*
X150201904Y-73834761D01*
X150297142Y-73930000D01*
X150344761Y-74025238D01*
X150392380Y-74215714D01*
X150392380Y-74691904D01*
X150344761Y-74882380D01*
X150297142Y-74977619D01*
X150201904Y-75072857D01*
X150011428Y-75072857D01*
X149916190Y-74977619D01*
X149868571Y-74882380D01*
X149820952Y-74691904D01*
D12*
X164908571Y-70834285D02*
X164241904Y-70834285D01*
X163956190Y-72929523D02*
X164908571Y-72929523D01*
X164908571Y-68929523D01*
X163956190Y-68929523D01*
X161765714Y-73310476D02*
X161956190Y-73120000D01*
X162146666Y-72739047D01*
X162432380Y-72167619D01*
X162622857Y-71977142D01*
X162813333Y-71977142D01*
X162718095Y-72929523D02*
X162908571Y-72739047D01*
X163099047Y-72358095D01*
X163194285Y-71596190D01*
X163194285Y-70262857D01*
X163099047Y-69500952D01*
X162908571Y-69120000D01*
X162718095Y-68929523D01*
X162337142Y-68929523D01*
X162146666Y-69120000D01*
X161956190Y-69500952D01*
X161860952Y-70262857D01*
X161860952Y-71596190D01*
X161956190Y-72358095D01*
X162146666Y-72739047D01*
X162337142Y-72929523D01*
X162718095Y-72929523D01*
X160051428Y-68929523D02*
X161003809Y-68929523D01*
X161099047Y-70834285D01*
X161003809Y-70643809D01*
X160813333Y-70453333D01*
X160337142Y-70453333D01*
X160146666Y-70643809D01*
X160051428Y-70834285D01*
X159956190Y-71215238D01*
X159956190Y-72167619D01*
X160051428Y-72548571D01*
X160146666Y-72739047D01*
X160337142Y-72929523D01*
X160813333Y-72929523D01*
X161003809Y-72739047D01*
X161099047Y-72548571D01*
X157575238Y-72929523D02*
X157575238Y-68929523D01*
X157099047Y-68929523D01*
X156813333Y-69120000D01*
X156622857Y-69500952D01*
X156527619Y-69881904D01*
X156432380Y-70643809D01*
X156432380Y-71215238D01*
X156527619Y-71977142D01*
X156622857Y-72358095D01*
X156813333Y-72739047D01*
X157099047Y-72929523D01*
X157575238Y-72929523D01*
X154432380Y-72929523D02*
X155099047Y-71024761D01*
X155575238Y-72929523D02*
X155575238Y-68929523D01*
X154813333Y-68929523D01*
X154622857Y-69120000D01*
X154527619Y-69310476D01*
X154432380Y-69691428D01*
X154432380Y-70262857D01*
X154527619Y-70643809D01*
X154622857Y-70834285D01*
X154813333Y-71024761D01*
X155575238Y-71024761D01*
X153575238Y-72929523D02*
X153575238Y-68929523D01*
X152908571Y-68929523D02*
X152241904Y-72929523D01*
X151575238Y-68929523D01*
X150908571Y-70834285D02*
X150241904Y-70834285D01*
X149956190Y-72929523D02*
X150908571Y-72929523D01*
X150908571Y-68929523D01*
X149956190Y-68929523D01*
D11*
X130545833Y-99516666D02*
X130545833Y-98816666D01*
X130379166Y-98816666D01*
X130279166Y-98850000D01*
X130212500Y-98916666D01*
X130179166Y-98983333D01*
X130145833Y-99116666D01*
X130145833Y-99216666D01*
X130179166Y-99350000D01*
X130212500Y-99416666D01*
X130279166Y-99483333D01*
X130379166Y-99516666D01*
X130545833Y-99516666D01*
X129579166Y-99483333D02*
X129645833Y-99516666D01*
X129779166Y-99516666D01*
X129845833Y-99483333D01*
X129879166Y-99416666D01*
X129879166Y-99150000D01*
X129845833Y-99083333D01*
X129779166Y-99050000D01*
X129645833Y-99050000D01*
X129579166Y-99083333D01*
X129545833Y-99150000D01*
X129545833Y-99216666D01*
X129879166Y-99283333D01*
X129645833Y-98783333D02*
X129745833Y-98883333D01*
X128945833Y-99483333D02*
X129012500Y-99516666D01*
X129145833Y-99516666D01*
X129212500Y-99483333D01*
X129245833Y-99450000D01*
X129279166Y-99383333D01*
X129279166Y-99183333D01*
X129245833Y-99116666D01*
X129212500Y-99083333D01*
X129145833Y-99050000D01*
X129012500Y-99050000D01*
X128945833Y-99083333D01*
X128545833Y-99516666D02*
X128612500Y-99483333D01*
X128645833Y-99416666D01*
X128645833Y-98816666D01*
X128279166Y-99516666D02*
X128279166Y-99050000D01*
X128279166Y-98816666D02*
X128312500Y-98850000D01*
X128279166Y-98883333D01*
X128245833Y-98850000D01*
X128279166Y-98816666D01*
X128279166Y-98883333D01*
X127945833Y-99050000D02*
X127945833Y-99516666D01*
X127945833Y-99116666D02*
X127912500Y-99083333D01*
X127845833Y-99050000D01*
X127745833Y-99050000D01*
X127679166Y-99083333D01*
X127645833Y-99150000D01*
X127645833Y-99516666D01*
X127012500Y-99516666D02*
X127012500Y-99150000D01*
X127045833Y-99083333D01*
X127112500Y-99050000D01*
X127245833Y-99050000D01*
X127312500Y-99083333D01*
X127012500Y-99483333D02*
X127079166Y-99516666D01*
X127245833Y-99516666D01*
X127312500Y-99483333D01*
X127345833Y-99416666D01*
X127345833Y-99350000D01*
X127312500Y-99283333D01*
X127245833Y-99250000D01*
X127079166Y-99250000D01*
X127012500Y-99216666D01*
X126679166Y-99516666D02*
X126679166Y-99050000D01*
X126679166Y-98816666D02*
X126712500Y-98850000D01*
X126679166Y-98883333D01*
X126645833Y-98850000D01*
X126679166Y-98816666D01*
X126679166Y-98883333D01*
X126379166Y-99483333D02*
X126312500Y-99516666D01*
X126179166Y-99516666D01*
X126112500Y-99483333D01*
X126079166Y-99416666D01*
X126079166Y-99383333D01*
X126112500Y-99316666D01*
X126179166Y-99283333D01*
X126279166Y-99283333D01*
X126345833Y-99250000D01*
X126379166Y-99183333D01*
X126379166Y-99150000D01*
X126345833Y-99083333D01*
X126279166Y-99050000D01*
X126179166Y-99050000D01*
X126112500Y-99083333D01*
X125679166Y-99516666D02*
X125745833Y-99483333D01*
X125779166Y-99450000D01*
X125812500Y-99383333D01*
X125812500Y-99183333D01*
X125779166Y-99116666D01*
X125745833Y-99083333D01*
X125679166Y-99050000D01*
X125579166Y-99050000D01*
X125512500Y-99083333D01*
X125479166Y-99116666D01*
X125445833Y-99183333D01*
X125445833Y-99383333D01*
X125479166Y-99450000D01*
X125512500Y-99483333D01*
X125579166Y-99516666D01*
X125679166Y-99516666D01*
X125145833Y-99050000D02*
X125145833Y-99516666D01*
X125145833Y-99116666D02*
X125112500Y-99083333D01*
X125045833Y-99050000D01*
X124945833Y-99050000D01*
X124879166Y-99083333D01*
X124845833Y-99150000D01*
X124845833Y-99516666D01*
X129112500Y-100716666D02*
X129512500Y-100716666D01*
X129312500Y-100716666D02*
X129312500Y-100016666D01*
X129379166Y-100116666D01*
X129445833Y-100183333D01*
X129512500Y-100216666D01*
X128279166Y-100650000D02*
X128245833Y-100683333D01*
X128279166Y-100716666D01*
X128312500Y-100683333D01*
X128279166Y-100650000D01*
X128279166Y-100716666D01*
X128279166Y-100283333D02*
X128245833Y-100316666D01*
X128279166Y-100350000D01*
X128312500Y-100316666D01*
X128279166Y-100283333D01*
X128279166Y-100350000D01*
X127045833Y-100716666D02*
X127445833Y-100716666D01*
X127245833Y-100716666D02*
X127245833Y-100016666D01*
X127312500Y-100116666D01*
X127379166Y-100183333D01*
X127445833Y-100216666D01*
X126779166Y-100516666D02*
X126445833Y-100516666D01*
X126845833Y-100716666D02*
X126612500Y-100016666D01*
X126379166Y-100716666D01*
X129512500Y-101283333D02*
X129479166Y-101250000D01*
X129412500Y-101216666D01*
X129245833Y-101216666D01*
X129179166Y-101250000D01*
X129145833Y-101283333D01*
X129112500Y-101350000D01*
X129112500Y-101416666D01*
X129145833Y-101516666D01*
X129545833Y-101916666D01*
X129112500Y-101916666D01*
X128279166Y-101850000D02*
X128245833Y-101883333D01*
X128279166Y-101916666D01*
X128312500Y-101883333D01*
X128279166Y-101850000D01*
X128279166Y-101916666D01*
X128279166Y-101483333D02*
X128245833Y-101516666D01*
X128279166Y-101550000D01*
X128312500Y-101516666D01*
X128279166Y-101483333D01*
X128279166Y-101550000D01*
X127445833Y-101283333D02*
X127412500Y-101250000D01*
X127345833Y-101216666D01*
X127179166Y-101216666D01*
X127112500Y-101250000D01*
X127079166Y-101283333D01*
X127045833Y-101350000D01*
X127045833Y-101416666D01*
X127079166Y-101516666D01*
X127479166Y-101916666D01*
X127045833Y-101916666D01*
X126512500Y-101550000D02*
X126412500Y-101583333D01*
X126379166Y-101616666D01*
X126345833Y-101683333D01*
X126345833Y-101783333D01*
X126379166Y-101850000D01*
X126412500Y-101883333D01*
X126479166Y-101916666D01*
X126745833Y-101916666D01*
X126745833Y-101216666D01*
X126512500Y-101216666D01*
X126445833Y-101250000D01*
X126412500Y-101283333D01*
X126379166Y-101350000D01*
X126379166Y-101416666D01*
X126412500Y-101483333D01*
X126445833Y-101516666D01*
X126512500Y-101550000D01*
X126745833Y-101550000D01*
X129545833Y-102416666D02*
X129112500Y-102416666D01*
X129345833Y-102683333D01*
X129245833Y-102683333D01*
X129179166Y-102716666D01*
X129145833Y-102750000D01*
X129112500Y-102816666D01*
X129112500Y-102983333D01*
X129145833Y-103050000D01*
X129179166Y-103083333D01*
X129245833Y-103116666D01*
X129445833Y-103116666D01*
X129512500Y-103083333D01*
X129545833Y-103050000D01*
X128279166Y-103050000D02*
X128245833Y-103083333D01*
X128279166Y-103116666D01*
X128312500Y-103083333D01*
X128279166Y-103050000D01*
X128279166Y-103116666D01*
X128279166Y-102683333D02*
X128245833Y-102716666D01*
X128279166Y-102750000D01*
X128312500Y-102716666D01*
X128279166Y-102683333D01*
X128279166Y-102750000D01*
X127445833Y-102483333D02*
X127412500Y-102450000D01*
X127345833Y-102416666D01*
X127179166Y-102416666D01*
X127112500Y-102450000D01*
X127079166Y-102483333D01*
X127045833Y-102550000D01*
X127045833Y-102616666D01*
X127079166Y-102716666D01*
X127479166Y-103116666D01*
X127045833Y-103116666D01*
X126779166Y-102916666D02*
X126445833Y-102916666D01*
X126845833Y-103116666D02*
X126612500Y-102416666D01*
X126379166Y-103116666D01*
X129179166Y-103850000D02*
X129179166Y-104316666D01*
X129345833Y-103583333D02*
X129512500Y-104083333D01*
X129079166Y-104083333D01*
X128279166Y-104250000D02*
X128245833Y-104283333D01*
X128279166Y-104316666D01*
X128312500Y-104283333D01*
X128279166Y-104250000D01*
X128279166Y-104316666D01*
X128279166Y-103883333D02*
X128245833Y-103916666D01*
X128279166Y-103950000D01*
X128312500Y-103916666D01*
X128279166Y-103883333D01*
X128279166Y-103950000D01*
X127045833Y-104316666D02*
X127445833Y-104316666D01*
X127245833Y-104316666D02*
X127245833Y-103616666D01*
X127312500Y-103716666D01*
X127379166Y-103783333D01*
X127445833Y-103816666D01*
X126512500Y-103950000D02*
X126412500Y-103983333D01*
X126379166Y-104016666D01*
X126345833Y-104083333D01*
X126345833Y-104183333D01*
X126379166Y-104250000D01*
X126412500Y-104283333D01*
X126479166Y-104316666D01*
X126745833Y-104316666D01*
X126745833Y-103616666D01*
X126512500Y-103616666D01*
X126445833Y-103650000D01*
X126412500Y-103683333D01*
X126379166Y-103750000D01*
X126379166Y-103816666D01*
X126412500Y-103883333D01*
X126445833Y-103916666D01*
X126512500Y-103950000D01*
X126745833Y-103950000D01*
X159789166Y-86616666D02*
X159455833Y-86616666D01*
X159855833Y-86816666D02*
X159622500Y-86116666D01*
X159389166Y-86816666D01*
X159189166Y-86783333D02*
X159122500Y-86816666D01*
X158989166Y-86816666D01*
X158922500Y-86783333D01*
X158889166Y-86716666D01*
X158889166Y-86683333D01*
X158922500Y-86616666D01*
X158989166Y-86583333D01*
X159089166Y-86583333D01*
X159155833Y-86550000D01*
X159189166Y-86483333D01*
X159189166Y-86450000D01*
X159155833Y-86383333D01*
X159089166Y-86350000D01*
X158989166Y-86350000D01*
X158922500Y-86383333D01*
X158289166Y-86783333D02*
X158355833Y-86816666D01*
X158489166Y-86816666D01*
X158555833Y-86783333D01*
X158589166Y-86750000D01*
X158622500Y-86683333D01*
X158622500Y-86483333D01*
X158589166Y-86416666D01*
X158555833Y-86383333D01*
X158489166Y-86350000D01*
X158355833Y-86350000D01*
X158289166Y-86383333D01*
X157722500Y-86783333D02*
X157789166Y-86816666D01*
X157922500Y-86816666D01*
X157989166Y-86783333D01*
X158022500Y-86716666D01*
X158022500Y-86450000D01*
X157989166Y-86383333D01*
X157922500Y-86350000D01*
X157789166Y-86350000D01*
X157722500Y-86383333D01*
X157689166Y-86450000D01*
X157689166Y-86516666D01*
X158022500Y-86583333D01*
X157389166Y-86350000D02*
X157389166Y-86816666D01*
X157389166Y-86416666D02*
X157355833Y-86383333D01*
X157289166Y-86350000D01*
X157189166Y-86350000D01*
X157122500Y-86383333D01*
X157089166Y-86450000D01*
X157089166Y-86816666D01*
X156789166Y-86783333D02*
X156722500Y-86816666D01*
X156589166Y-86816666D01*
X156522500Y-86783333D01*
X156489166Y-86716666D01*
X156489166Y-86683333D01*
X156522500Y-86616666D01*
X156589166Y-86583333D01*
X156689166Y-86583333D01*
X156755833Y-86550000D01*
X156789166Y-86483333D01*
X156789166Y-86450000D01*
X156755833Y-86383333D01*
X156689166Y-86350000D01*
X156589166Y-86350000D01*
X156522500Y-86383333D01*
X156189166Y-86816666D02*
X156189166Y-86350000D01*
X156189166Y-86116666D02*
X156222500Y-86150000D01*
X156189166Y-86183333D01*
X156155833Y-86150000D01*
X156189166Y-86116666D01*
X156189166Y-86183333D01*
X155755833Y-86816666D02*
X155822500Y-86783333D01*
X155855833Y-86750000D01*
X155889166Y-86683333D01*
X155889166Y-86483333D01*
X155855833Y-86416666D01*
X155822500Y-86383333D01*
X155755833Y-86350000D01*
X155655833Y-86350000D01*
X155589166Y-86383333D01*
X155555833Y-86416666D01*
X155522500Y-86483333D01*
X155522500Y-86683333D01*
X155555833Y-86750000D01*
X155589166Y-86783333D01*
X155655833Y-86816666D01*
X155755833Y-86816666D01*
X155222500Y-86350000D02*
X155222500Y-86816666D01*
X155222500Y-86416666D02*
X155189166Y-86383333D01*
X155122500Y-86350000D01*
X155022500Y-86350000D01*
X154955833Y-86383333D01*
X154922500Y-86450000D01*
X154922500Y-86816666D01*
X154055833Y-86816666D02*
X154055833Y-86116666D01*
X153889166Y-86116666D01*
X153789166Y-86150000D01*
X153722500Y-86216666D01*
X153689166Y-86283333D01*
X153655833Y-86416666D01*
X153655833Y-86516666D01*
X153689166Y-86650000D01*
X153722500Y-86716666D01*
X153789166Y-86783333D01*
X153889166Y-86816666D01*
X154055833Y-86816666D01*
X153355833Y-86816666D02*
X153355833Y-86350000D01*
X153355833Y-86483333D02*
X153322500Y-86416666D01*
X153289166Y-86383333D01*
X153222500Y-86350000D01*
X153155833Y-86350000D01*
X152822500Y-86816666D02*
X152889166Y-86783333D01*
X152922500Y-86750000D01*
X152955833Y-86683333D01*
X152955833Y-86483333D01*
X152922500Y-86416666D01*
X152889166Y-86383333D01*
X152822500Y-86350000D01*
X152722500Y-86350000D01*
X152655833Y-86383333D01*
X152622500Y-86416666D01*
X152589166Y-86483333D01*
X152589166Y-86683333D01*
X152622500Y-86750000D01*
X152655833Y-86783333D01*
X152722500Y-86816666D01*
X152822500Y-86816666D01*
X152289166Y-86816666D02*
X152289166Y-86350000D01*
X152289166Y-86116666D02*
X152322500Y-86150000D01*
X152289166Y-86183333D01*
X152255833Y-86150000D01*
X152289166Y-86116666D01*
X152289166Y-86183333D01*
X152055833Y-86350000D02*
X151789166Y-86350000D01*
X151955833Y-86116666D02*
X151955833Y-86716666D01*
X151922500Y-86783333D01*
X151855833Y-86816666D01*
X151789166Y-86816666D01*
X151289166Y-86783333D02*
X151355833Y-86816666D01*
X151489166Y-86816666D01*
X151555833Y-86783333D01*
X151589166Y-86716666D01*
X151589166Y-86450000D01*
X151555833Y-86383333D01*
X151489166Y-86350000D01*
X151355833Y-86350000D01*
X151289166Y-86383333D01*
X151255833Y-86450000D01*
X151255833Y-86516666D01*
X151589166Y-86583333D01*
X158322500Y-88016666D02*
X158722500Y-88016666D01*
X158522500Y-88016666D02*
X158522500Y-87316666D01*
X158589166Y-87416666D01*
X158655833Y-87483333D01*
X158722500Y-87516666D01*
X157489166Y-87950000D02*
X157455833Y-87983333D01*
X157489166Y-88016666D01*
X157522500Y-87983333D01*
X157489166Y-87950000D01*
X157489166Y-88016666D01*
X157489166Y-87583333D02*
X157455833Y-87616666D01*
X157489166Y-87650000D01*
X157522500Y-87616666D01*
X157489166Y-87583333D01*
X157489166Y-87650000D01*
X156255833Y-88016666D02*
X156655833Y-88016666D01*
X156455833Y-88016666D02*
X156455833Y-87316666D01*
X156522500Y-87416666D01*
X156589166Y-87483333D01*
X156655833Y-87516666D01*
X155989166Y-87816666D02*
X155655833Y-87816666D01*
X156055833Y-88016666D02*
X155822500Y-87316666D01*
X155589166Y-88016666D01*
X158722500Y-88583333D02*
X158689166Y-88550000D01*
X158622500Y-88516666D01*
X158455833Y-88516666D01*
X158389166Y-88550000D01*
X158355833Y-88583333D01*
X158322500Y-88650000D01*
X158322500Y-88716666D01*
X158355833Y-88816666D01*
X158755833Y-89216666D01*
X158322500Y-89216666D01*
X157489166Y-89150000D02*
X157455833Y-89183333D01*
X157489166Y-89216666D01*
X157522500Y-89183333D01*
X157489166Y-89150000D01*
X157489166Y-89216666D01*
X157489166Y-88783333D02*
X157455833Y-88816666D01*
X157489166Y-88850000D01*
X157522500Y-88816666D01*
X157489166Y-88783333D01*
X157489166Y-88850000D01*
X156655833Y-88583333D02*
X156622500Y-88550000D01*
X156555833Y-88516666D01*
X156389166Y-88516666D01*
X156322500Y-88550000D01*
X156289166Y-88583333D01*
X156255833Y-88650000D01*
X156255833Y-88716666D01*
X156289166Y-88816666D01*
X156689166Y-89216666D01*
X156255833Y-89216666D01*
X155722500Y-88850000D02*
X155622500Y-88883333D01*
X155589166Y-88916666D01*
X155555833Y-88983333D01*
X155555833Y-89083333D01*
X155589166Y-89150000D01*
X155622500Y-89183333D01*
X155689166Y-89216666D01*
X155955833Y-89216666D01*
X155955833Y-88516666D01*
X155722500Y-88516666D01*
X155655833Y-88550000D01*
X155622500Y-88583333D01*
X155589166Y-88650000D01*
X155589166Y-88716666D01*
X155622500Y-88783333D01*
X155655833Y-88816666D01*
X155722500Y-88850000D01*
X155955833Y-88850000D01*
X158755833Y-89716666D02*
X158322500Y-89716666D01*
X158555833Y-89983333D01*
X158455833Y-89983333D01*
X158389166Y-90016666D01*
X158355833Y-90050000D01*
X158322500Y-90116666D01*
X158322500Y-90283333D01*
X158355833Y-90350000D01*
X158389166Y-90383333D01*
X158455833Y-90416666D01*
X158655833Y-90416666D01*
X158722500Y-90383333D01*
X158755833Y-90350000D01*
X157489166Y-90350000D02*
X157455833Y-90383333D01*
X157489166Y-90416666D01*
X157522500Y-90383333D01*
X157489166Y-90350000D01*
X157489166Y-90416666D01*
X157489166Y-89983333D02*
X157455833Y-90016666D01*
X157489166Y-90050000D01*
X157522500Y-90016666D01*
X157489166Y-89983333D01*
X157489166Y-90050000D01*
X156655833Y-89783333D02*
X156622500Y-89750000D01*
X156555833Y-89716666D01*
X156389166Y-89716666D01*
X156322500Y-89750000D01*
X156289166Y-89783333D01*
X156255833Y-89850000D01*
X156255833Y-89916666D01*
X156289166Y-90016666D01*
X156689166Y-90416666D01*
X156255833Y-90416666D01*
X155989166Y-90216666D02*
X155655833Y-90216666D01*
X156055833Y-90416666D02*
X155822500Y-89716666D01*
X155589166Y-90416666D01*
X158389166Y-91150000D02*
X158389166Y-91616666D01*
X158555833Y-90883333D02*
X158722500Y-91383333D01*
X158289166Y-91383333D01*
X157489166Y-91550000D02*
X157455833Y-91583333D01*
X157489166Y-91616666D01*
X157522500Y-91583333D01*
X157489166Y-91550000D01*
X157489166Y-91616666D01*
X157489166Y-91183333D02*
X157455833Y-91216666D01*
X157489166Y-91250000D01*
X157522500Y-91216666D01*
X157489166Y-91183333D01*
X157489166Y-91250000D01*
X156255833Y-91616666D02*
X156655833Y-91616666D01*
X156455833Y-91616666D02*
X156455833Y-90916666D01*
X156522500Y-91016666D01*
X156589166Y-91083333D01*
X156655833Y-91116666D01*
X155722500Y-91250000D02*
X155622500Y-91283333D01*
X155589166Y-91316666D01*
X155555833Y-91383333D01*
X155555833Y-91483333D01*
X155589166Y-91550000D01*
X155622500Y-91583333D01*
X155689166Y-91616666D01*
X155955833Y-91616666D01*
X155955833Y-90916666D01*
X155722500Y-90916666D01*
X155655833Y-90950000D01*
X155622500Y-90983333D01*
X155589166Y-91050000D01*
X155589166Y-91116666D01*
X155622500Y-91183333D01*
X155655833Y-91216666D01*
X155722500Y-91250000D01*
X155955833Y-91250000D01*
D13*
G36*
X145221962Y-69286084D02*
G01*
X145134376Y-69351311D01*
X145092784Y-69422211D01*
X145084262Y-69464188D01*
X145092943Y-69514878D01*
X145122636Y-69586534D01*
X145175726Y-69688774D01*
X145284075Y-69888494D01*
X145141933Y-70015806D01*
X145059683Y-70084728D01*
X145005263Y-70117590D01*
X144971270Y-70118558D01*
X144965820Y-70114924D01*
X144910940Y-70092837D01*
X144883465Y-70091760D01*
X144836719Y-70094038D01*
X144820956Y-70084343D01*
X144839181Y-70056976D01*
X144894396Y-70006238D01*
X144955792Y-69954489D01*
X145049568Y-69873730D01*
X145107035Y-69814425D01*
X145134782Y-69766106D01*
X145136644Y-69746822D01*
X145075713Y-69746822D01*
X144982134Y-69828855D01*
X144899922Y-69901175D01*
X144815336Y-69975950D01*
X144799576Y-69989936D01*
X144635680Y-70130331D01*
X144504903Y-70230726D01*
X144405940Y-70292042D01*
X144340470Y-70314907D01*
X144271430Y-70330279D01*
X144227146Y-70351002D01*
X144094127Y-70455812D01*
X143966588Y-70554598D01*
X143851492Y-70642133D01*
X143755803Y-70713194D01*
X143686483Y-70762553D01*
X143650496Y-70784987D01*
X143647737Y-70785790D01*
X143615733Y-70767703D01*
X143586661Y-70739000D01*
X143551951Y-70694436D01*
X143538187Y-70656843D01*
X143549817Y-70617710D01*
X143591291Y-70568526D01*
X143667058Y-70500779D01*
X143745057Y-70435962D01*
X143864070Y-70334601D01*
X143989983Y-70221770D01*
X144103541Y-70114942D01*
X144153292Y-70065548D01*
X144248315Y-69974451D01*
X144369272Y-69867024D01*
X144498815Y-69758336D01*
X144592284Y-69684203D01*
X144703192Y-69599797D01*
X144780608Y-69544249D01*
X144832976Y-69513240D01*
X144868739Y-69502448D01*
X144896341Y-69507554D01*
X144915864Y-69518622D01*
X144967020Y-69567555D01*
X145017544Y-69638591D01*
X145024977Y-69651847D01*
X145075713Y-69746822D01*
X145136644Y-69746822D01*
X145139398Y-69718302D01*
X145131390Y-69675471D01*
X145103810Y-69620295D01*
X145051579Y-69551218D01*
X144987572Y-69481873D01*
X144924664Y-69425892D01*
X144875731Y-69396906D01*
X144866941Y-69395474D01*
X144832042Y-69411974D01*
X144765113Y-69457054D01*
X144674371Y-69524083D01*
X144568029Y-69606431D01*
X144454303Y-69697466D01*
X144341408Y-69790558D01*
X144237560Y-69879076D01*
X144150973Y-69956390D01*
X144089863Y-70015867D01*
X144069960Y-70038745D01*
X144021779Y-70090985D01*
X143941977Y-70165641D01*
X143841558Y-70252840D01*
X143731525Y-70342708D01*
X143729090Y-70344632D01*
X143603340Y-70447225D01*
X143518272Y-70527204D01*
X143470208Y-70591815D01*
X143455470Y-70648303D01*
X143470381Y-70703915D01*
X143511263Y-70765894D01*
X143513682Y-70768984D01*
X143559139Y-70823247D01*
X143599411Y-70855415D01*
X143642852Y-70863434D01*
X143697814Y-70845250D01*
X143772653Y-70798809D01*
X143875720Y-70722057D01*
X143954671Y-70660534D01*
X144093095Y-70553142D01*
X144196725Y-70476177D01*
X144272045Y-70426069D01*
X144325535Y-70399249D01*
X144363680Y-70392147D01*
X144392960Y-70401194D01*
X144407175Y-70411376D01*
X144434141Y-70442044D01*
X144422513Y-70473741D01*
X144404724Y-70494522D01*
X144376519Y-70547559D01*
X144376660Y-70584753D01*
X144369102Y-70615064D01*
X144327208Y-70664151D01*
X144247532Y-70735404D01*
X144126629Y-70832212D01*
X144119218Y-70837955D01*
X143992880Y-70936819D01*
X143860482Y-71042210D01*
X143739159Y-71140401D01*
X143658661Y-71207003D01*
X143533441Y-71311428D01*
X143388317Y-71431002D01*
X143234192Y-71556875D01*
X143081970Y-71680198D01*
X142942557Y-71792123D01*
X142826855Y-71883799D01*
X142774306Y-71924672D01*
X142713398Y-71972536D01*
X142616673Y-72049820D01*
X142489653Y-72152028D01*
X142337862Y-72274661D01*
X142166822Y-72413221D01*
X141982056Y-72563210D01*
X141789085Y-72720131D01*
X141593433Y-72879486D01*
X141400622Y-73036776D01*
X141216176Y-73187504D01*
X141045615Y-73327173D01*
X140894464Y-73451283D01*
X140768245Y-73555338D01*
X140672479Y-73634839D01*
X140614707Y-73683554D01*
X140536056Y-73752557D01*
X140482439Y-73809272D01*
X140453614Y-73863393D01*
X140449338Y-73924613D01*
X140469369Y-74002624D01*
X140513464Y-74107120D01*
X140581380Y-74247794D01*
X140599653Y-74284882D01*
X140677486Y-74433751D01*
X140751342Y-74551149D01*
X140834555Y-74656194D01*
X140927491Y-74754994D01*
X141041998Y-74863486D01*
X141161733Y-74964972D01*
X141277607Y-75052859D01*
X141380533Y-75120553D01*
X141461420Y-75161462D01*
X141500441Y-75170632D01*
X141530447Y-75154333D01*
X141597969Y-75107509D01*
X141639393Y-75077053D01*
X141533082Y-75077053D01*
X141519713Y-75090421D01*
X141506345Y-75077053D01*
X141519713Y-75063684D01*
X141533082Y-75077053D01*
X141639393Y-75077053D01*
X141698951Y-75033266D01*
X141829335Y-74934709D01*
X141985066Y-74814946D01*
X142162085Y-74677082D01*
X142356337Y-74524223D01*
X142563765Y-74359477D01*
X142654069Y-74287300D01*
X142914695Y-74079169D01*
X143136557Y-73903287D01*
X143322095Y-73757819D01*
X143473747Y-73640930D01*
X143593955Y-73550784D01*
X143685155Y-73485546D01*
X143749788Y-73443381D01*
X143790293Y-73422452D01*
X143806972Y-73419768D01*
X143863937Y-73417288D01*
X143925495Y-73390523D01*
X143949780Y-73376849D01*
X143643445Y-73376849D01*
X143623001Y-73398584D01*
X143568574Y-73446396D01*
X143488277Y-73513385D01*
X143390222Y-73592652D01*
X143382760Y-73598594D01*
X143300540Y-73664266D01*
X143183556Y-73758057D01*
X143038634Y-73874474D01*
X142872602Y-74008027D01*
X142692287Y-74153226D01*
X142504516Y-74304579D01*
X142348555Y-74430407D01*
X142148786Y-74590528D01*
X141973482Y-74728754D01*
X141825561Y-74842894D01*
X141707935Y-74930757D01*
X141623522Y-74990149D01*
X141575236Y-75018881D01*
X141564542Y-75019866D01*
X141534551Y-74993430D01*
X141479876Y-74983474D01*
X141421694Y-74992795D01*
X141393908Y-75013309D01*
X141370457Y-75010527D01*
X141315180Y-74979173D01*
X141237287Y-74924964D01*
X141176901Y-74878600D01*
X141082724Y-74802376D01*
X141025324Y-74750832D01*
X140998705Y-74716554D01*
X140996876Y-74692123D01*
X141010828Y-74673065D01*
X141047616Y-74622648D01*
X141037306Y-74580888D01*
X141010580Y-74554744D01*
X140967703Y-74534666D01*
X140938391Y-74551470D01*
X140899550Y-74578920D01*
X140886323Y-74582421D01*
X140858450Y-74560469D01*
X140813441Y-74502116D01*
X140758415Y-74418619D01*
X140700492Y-74321233D01*
X140646789Y-74221216D01*
X140613401Y-74150878D01*
X140578586Y-74068769D01*
X140565332Y-74025114D01*
X140572384Y-74010002D01*
X140595908Y-74012838D01*
X140648817Y-74007793D01*
X140671147Y-73964606D01*
X140664058Y-73913761D01*
X140630618Y-73868010D01*
X140583967Y-73868340D01*
X140544162Y-73907316D01*
X140522555Y-73938039D01*
X140520391Y-73920220D01*
X140523077Y-73900998D01*
X140529078Y-73884781D01*
X140544844Y-73862314D01*
X140573280Y-73831139D01*
X140617289Y-73788797D01*
X140679776Y-73732828D01*
X140763646Y-73660773D01*
X140871802Y-73570173D01*
X141007148Y-73458568D01*
X141172590Y-73323499D01*
X141371031Y-73162508D01*
X141605375Y-72973134D01*
X141878527Y-72752919D01*
X141886196Y-72746741D01*
X142054960Y-72611945D01*
X142211154Y-72489394D01*
X142349807Y-72382819D01*
X142465947Y-72295951D01*
X142554602Y-72232522D01*
X142610800Y-72196262D01*
X142629014Y-72189302D01*
X142654209Y-72214065D01*
X142707694Y-72272741D01*
X142784157Y-72359107D01*
X142878281Y-72466942D01*
X142984753Y-72590025D01*
X143098259Y-72722135D01*
X143213484Y-72857050D01*
X143325113Y-72988549D01*
X143427833Y-73110411D01*
X143516329Y-73216414D01*
X143585286Y-73300338D01*
X143629391Y-73355961D01*
X143643445Y-73376849D01*
X143949780Y-73376849D01*
X143976848Y-73361608D01*
X144011443Y-73364939D01*
X144046495Y-73392767D01*
X144078393Y-73417425D01*
X144107968Y-73420086D01*
X144149603Y-73396546D01*
X144217415Y-73342817D01*
X144285492Y-73290217D01*
X144337875Y-73255520D01*
X144358318Y-73247058D01*
X144388101Y-73267169D01*
X144432559Y-73314709D01*
X144440679Y-73324772D01*
X144500802Y-73401005D01*
X143932850Y-73822130D01*
X143779138Y-73935331D01*
X143637877Y-74037896D01*
X143515212Y-74125479D01*
X143417290Y-74193734D01*
X143350255Y-74238318D01*
X143320955Y-74254746D01*
X143273782Y-74250064D01*
X143259048Y-74237171D01*
X143214833Y-74209763D01*
X143150255Y-74219451D01*
X143080381Y-74263278D01*
X143068368Y-74274599D01*
X143025976Y-74321448D01*
X143017027Y-74358366D01*
X143037986Y-74410785D01*
X143046989Y-74428336D01*
X143126822Y-74559685D01*
X143203859Y-74638330D01*
X143279367Y-74664887D01*
X143354617Y-74639970D01*
X143400872Y-74599823D01*
X143440682Y-74543833D01*
X143440907Y-74525102D01*
X143356674Y-74525102D01*
X143344470Y-74551707D01*
X143287307Y-74580661D01*
X143227180Y-74556275D01*
X143170713Y-74488886D01*
X143121764Y-74395909D01*
X143115484Y-74332832D01*
X143151657Y-74297602D01*
X143202101Y-74302590D01*
X143258489Y-74341888D01*
X143310157Y-74401443D01*
X143346440Y-74467199D01*
X143356674Y-74525102D01*
X143440907Y-74525102D01*
X143441324Y-74490477D01*
X143435223Y-74472166D01*
X143429783Y-74450412D01*
X143433817Y-74427527D01*
X143452043Y-74399202D01*
X143489180Y-74361130D01*
X143549949Y-74309000D01*
X143639069Y-74238503D01*
X143761260Y-74145331D01*
X143921242Y-74025175D01*
X143941007Y-74010381D01*
X144124537Y-73872903D01*
X144269532Y-73764324D01*
X144380484Y-73681797D01*
X144461888Y-73622474D01*
X144518236Y-73583505D01*
X144554023Y-73562042D01*
X144573740Y-73555238D01*
X144581883Y-73560243D01*
X144582944Y-73574210D01*
X144581416Y-73594289D01*
X144581082Y-73604631D01*
X144566408Y-73658978D01*
X144516016Y-73711587D01*
X144467450Y-73745462D01*
X144403697Y-73789235D01*
X144311135Y-73856346D01*
X144201735Y-73937722D01*
X144087469Y-74024292D01*
X143980310Y-74106984D01*
X143892229Y-74176724D01*
X143835198Y-74224441D01*
X143834237Y-74225306D01*
X143811848Y-74256155D01*
X143825586Y-74290995D01*
X143847559Y-74316975D01*
X143876516Y-74352548D01*
X143879076Y-74379959D01*
X143850059Y-74414265D01*
X143798981Y-74458176D01*
X143740390Y-74515170D01*
X143704743Y-74564924D01*
X143699615Y-74582421D01*
X143716688Y-74639710D01*
X143754483Y-74684153D01*
X143796522Y-74696896D01*
X143799029Y-74696171D01*
X143814436Y-74704255D01*
X143824621Y-74745155D01*
X143830355Y-74825370D01*
X143832411Y-74951401D01*
X143832450Y-74977378D01*
X143832450Y-75269843D01*
X143749439Y-75293764D01*
X143734852Y-75299178D01*
X143719820Y-75308829D01*
X143702944Y-75325649D01*
X143682822Y-75352571D01*
X143658055Y-75392529D01*
X143627242Y-75448456D01*
X143588983Y-75523284D01*
X143541878Y-75619947D01*
X143484525Y-75741378D01*
X143415526Y-75890510D01*
X143333479Y-76070276D01*
X143236984Y-76283608D01*
X143124641Y-76533441D01*
X142995050Y-76822706D01*
X142846810Y-77154338D01*
X142678520Y-77531269D01*
X142640234Y-77617053D01*
X142465996Y-78007686D01*
X142312414Y-78352590D01*
X142178210Y-78654801D01*
X142062105Y-78917358D01*
X141962820Y-79143298D01*
X141879075Y-79335659D01*
X141809593Y-79497477D01*
X141753093Y-79631791D01*
X141708296Y-79741638D01*
X141673925Y-79830056D01*
X141648699Y-79900082D01*
X141631339Y-79954754D01*
X141620567Y-79997110D01*
X141615104Y-80030186D01*
X141613667Y-80055049D01*
X141622414Y-80186126D01*
X141648223Y-80277924D01*
X141689235Y-80325279D01*
X141712894Y-80330718D01*
X141764078Y-80317447D01*
X141820179Y-80275310D01*
X141883942Y-80200430D01*
X141958113Y-80088933D01*
X142045435Y-79936943D01*
X142148655Y-79740584D01*
X142192670Y-79653426D01*
X142250619Y-79537032D01*
X142326231Y-79384173D01*
X142417210Y-79199551D01*
X142521261Y-78987871D01*
X142636089Y-78753837D01*
X142759399Y-78502151D01*
X142888897Y-78237519D01*
X143022287Y-77964644D01*
X143157275Y-77688229D01*
X143291565Y-77412979D01*
X143422863Y-77143597D01*
X143548873Y-76884787D01*
X143667301Y-76641253D01*
X143775852Y-76417698D01*
X143872230Y-76218827D01*
X143954141Y-76049343D01*
X144019290Y-75913950D01*
X144065382Y-75817352D01*
X144089551Y-75765526D01*
X144129729Y-75684261D01*
X144163955Y-75641798D01*
X144195959Y-75629401D01*
X144051083Y-75629401D01*
X143389158Y-76984174D01*
X143249219Y-77270490D01*
X143102293Y-77570916D01*
X142952675Y-77876685D01*
X142804660Y-78179028D01*
X142662540Y-78469174D01*
X142530611Y-78738356D01*
X142413166Y-78977804D01*
X142314500Y-79178750D01*
X142306747Y-79194526D01*
X142171663Y-79467735D01*
X142057702Y-79694348D01*
X141963655Y-79876359D01*
X141888310Y-80015760D01*
X141830460Y-80114541D01*
X141788893Y-80174697D01*
X141762400Y-80198218D01*
X141749772Y-80187098D01*
X141749799Y-80143327D01*
X141755325Y-80102599D01*
X141775298Y-80028692D01*
X141812020Y-79930483D01*
X141830244Y-79889684D01*
X141746976Y-79889684D01*
X141733608Y-79903053D01*
X141720240Y-79889684D01*
X141733608Y-79876316D01*
X141746976Y-79889684D01*
X141830244Y-79889684D01*
X141851583Y-79841915D01*
X141860741Y-79822842D01*
X141773713Y-79822842D01*
X141763931Y-79844850D01*
X141755889Y-79840667D01*
X141752689Y-79808936D01*
X141755889Y-79805018D01*
X141771784Y-79808688D01*
X141773713Y-79822842D01*
X141860741Y-79822842D01*
X141892837Y-79756000D01*
X141800450Y-79756000D01*
X141787082Y-79769368D01*
X141773713Y-79756000D01*
X141787082Y-79742632D01*
X141800450Y-79756000D01*
X141892837Y-79756000D01*
X141903212Y-79734395D01*
X141964700Y-79604143D01*
X142023804Y-79477116D01*
X142030811Y-79461895D01*
X142075946Y-79364956D01*
X142138126Y-79233155D01*
X142211060Y-79079741D01*
X142288453Y-78917965D01*
X142341912Y-78806842D01*
X142419706Y-78644380D01*
X142498232Y-78478327D01*
X142570896Y-78322768D01*
X142631103Y-78191787D01*
X142661077Y-78125053D01*
X142713222Y-78009196D01*
X142763508Y-77901071D01*
X142804109Y-77817360D01*
X142817811Y-77790842D01*
X142847585Y-77732376D01*
X142894096Y-77637346D01*
X142951574Y-77517694D01*
X143014248Y-77385361D01*
X143030995Y-77349684D01*
X143095970Y-77211370D01*
X143158937Y-77078010D01*
X143213475Y-76963162D01*
X143253160Y-76880385D01*
X143258969Y-76868421D01*
X143295842Y-76791904D01*
X143348483Y-76681563D01*
X143409951Y-76551987D01*
X143473310Y-76417766D01*
X143475132Y-76413895D01*
X143551011Y-76252876D01*
X143637277Y-76070113D01*
X143721834Y-75891219D01*
X143776088Y-75776612D01*
X143895360Y-75524895D01*
X143797079Y-75524895D01*
X143783155Y-75554732D01*
X143748370Y-75628300D01*
X143694881Y-75741064D01*
X143624845Y-75888487D01*
X143540417Y-76066034D01*
X143443753Y-76269170D01*
X143337011Y-76493359D01*
X143222347Y-76734066D01*
X143158321Y-76868421D01*
X143025315Y-77147755D01*
X142887021Y-77438672D01*
X142747497Y-77732608D01*
X142610800Y-78020999D01*
X142480986Y-78295278D01*
X142362112Y-78546882D01*
X142258235Y-78767246D01*
X142174458Y-78945572D01*
X142086524Y-79132393D01*
X142005842Y-79302238D01*
X141935171Y-79449421D01*
X141877270Y-79568260D01*
X141834897Y-79653069D01*
X141810812Y-79698164D01*
X141806373Y-79703993D01*
X141815528Y-79678773D01*
X141844767Y-79608643D01*
X141892375Y-79497523D01*
X141956638Y-79349333D01*
X142035840Y-79167991D01*
X142128265Y-78957417D01*
X142232200Y-78721529D01*
X142345927Y-78464247D01*
X142467733Y-78189490D01*
X142563308Y-77974421D01*
X142742439Y-77571733D01*
X142901136Y-77215094D01*
X143040728Y-76901711D01*
X143162544Y-76628788D01*
X143267916Y-76393533D01*
X143358172Y-76193150D01*
X143434643Y-76024844D01*
X143498658Y-75885823D01*
X143551547Y-75773291D01*
X143594641Y-75684455D01*
X143629268Y-75616519D01*
X143656760Y-75566689D01*
X143678445Y-75532172D01*
X143695653Y-75510173D01*
X143709715Y-75497897D01*
X143721960Y-75492550D01*
X143733718Y-75491338D01*
X143744973Y-75491474D01*
X143793119Y-75501883D01*
X143797079Y-75524895D01*
X143895360Y-75524895D01*
X143926029Y-75460170D01*
X143988556Y-75544786D01*
X144051083Y-75629401D01*
X144195959Y-75629401D01*
X144203728Y-75626392D01*
X144226997Y-75625158D01*
X144301376Y-75625158D01*
X144548398Y-76978876D01*
X144597000Y-77243061D01*
X144643722Y-77492909D01*
X144687529Y-77723164D01*
X144727386Y-77928568D01*
X144762257Y-78103863D01*
X144791105Y-78243792D01*
X144812896Y-78343097D01*
X144826593Y-78396522D01*
X144828870Y-78402613D01*
X144875691Y-78460136D01*
X144933849Y-78481135D01*
X144986942Y-78462348D01*
X145006032Y-78437831D01*
X145012092Y-78424218D01*
X145016797Y-78405674D01*
X145019943Y-78378246D01*
X145021106Y-78344443D01*
X144939197Y-78344443D01*
X144937865Y-78385077D01*
X144937295Y-78386713D01*
X144922990Y-78397838D01*
X144907475Y-78382451D01*
X144889484Y-78335951D01*
X144867755Y-78253740D01*
X144841024Y-78131216D01*
X144808025Y-77963781D01*
X144779856Y-77813812D01*
X144747064Y-77635692D01*
X144714853Y-77458558D01*
X144685596Y-77295625D01*
X144661668Y-77160111D01*
X144646622Y-77072329D01*
X144627881Y-76964070D01*
X144610804Y-76872841D01*
X144598332Y-76814131D01*
X144595862Y-76804961D01*
X144587463Y-76766661D01*
X144571999Y-76686009D01*
X144551162Y-76572675D01*
X144526645Y-76436327D01*
X144500139Y-76286635D01*
X144473336Y-76133269D01*
X144447927Y-75985898D01*
X144425606Y-75854190D01*
X144408062Y-75747816D01*
X144396989Y-75676446D01*
X144393924Y-75650809D01*
X144418395Y-75638167D01*
X144482795Y-75629006D01*
X144573604Y-75625178D01*
X144581082Y-75625158D01*
X144679073Y-75626363D01*
X144735259Y-75632461D01*
X144761295Y-75647179D01*
X144768835Y-75674244D01*
X144769233Y-75685316D01*
X144771512Y-75734496D01*
X144776991Y-75824351D01*
X144784859Y-75942234D01*
X144794300Y-76075497D01*
X144794605Y-76079684D01*
X144822431Y-76465238D01*
X144847737Y-76824097D01*
X144870342Y-77153355D01*
X144890067Y-77450104D01*
X144906733Y-77711435D01*
X144920158Y-77934443D01*
X144930164Y-78116218D01*
X144936570Y-78253854D01*
X144939197Y-78344443D01*
X145021106Y-78344443D01*
X145021329Y-78337984D01*
X145020752Y-78280937D01*
X145018010Y-78203151D01*
X145012900Y-78100677D01*
X145005220Y-77969562D01*
X144994768Y-77805856D01*
X144981342Y-77605606D01*
X144964738Y-77364861D01*
X144944756Y-77079670D01*
X144921191Y-76746081D01*
X144914725Y-76654773D01*
X144899239Y-76434815D01*
X144885037Y-76230489D01*
X144872553Y-76048247D01*
X144862223Y-75894546D01*
X144854481Y-75775839D01*
X144849761Y-75698581D01*
X144848450Y-75670418D01*
X144861485Y-75635323D01*
X144909091Y-75628866D01*
X144921181Y-75630066D01*
X144932787Y-75630483D01*
X144942818Y-75630391D01*
X144952921Y-75632296D01*
X144964741Y-75638704D01*
X144979927Y-75652120D01*
X145000122Y-75675050D01*
X145026976Y-75709997D01*
X145062132Y-75759469D01*
X145107239Y-75825970D01*
X145163943Y-75912005D01*
X145233889Y-76020080D01*
X145318725Y-76152700D01*
X145420096Y-76312370D01*
X145539650Y-76501597D01*
X145679032Y-76722884D01*
X145839889Y-76978737D01*
X146023868Y-77271663D01*
X146232614Y-77604165D01*
X146467775Y-77978750D01*
X146534454Y-78084947D01*
X146778196Y-78472947D01*
X146995301Y-78818081D01*
X147187414Y-79122867D01*
X147356176Y-79389823D01*
X147503232Y-79621467D01*
X147630224Y-79820317D01*
X147738796Y-79988890D01*
X147830592Y-80129705D01*
X147907253Y-80245280D01*
X147970425Y-80338132D01*
X148021749Y-80410779D01*
X148062869Y-80465740D01*
X148095429Y-80505532D01*
X148121072Y-80532673D01*
X148141441Y-80549681D01*
X148144265Y-80551594D01*
X148224311Y-80589095D01*
X148295394Y-80596812D01*
X148333152Y-80580386D01*
X148348211Y-80550157D01*
X148346834Y-80501451D01*
X148337535Y-80467362D01*
X148244029Y-80467362D01*
X148242835Y-80480606D01*
X148236877Y-80482504D01*
X148222598Y-80467943D01*
X148196435Y-80431809D01*
X148154829Y-80368989D01*
X148094219Y-80274369D01*
X148011046Y-80142836D01*
X147944215Y-80036737D01*
X147893044Y-79954743D01*
X147816819Y-79831603D01*
X147718309Y-79671832D01*
X147600286Y-79479947D01*
X147465520Y-79260463D01*
X147316784Y-79017897D01*
X147156848Y-78756766D01*
X146988483Y-78481585D01*
X146901301Y-78338947D01*
X146800240Y-78338947D01*
X146786871Y-78352316D01*
X146773503Y-78338947D01*
X146786871Y-78325579D01*
X146800240Y-78338947D01*
X146901301Y-78338947D01*
X146852275Y-78258737D01*
X146746766Y-78258737D01*
X146733398Y-78272105D01*
X146720029Y-78258737D01*
X146733398Y-78245368D01*
X146746766Y-78258737D01*
X146852275Y-78258737D01*
X146826698Y-78216891D01*
X146713474Y-78216891D01*
X146709817Y-78218632D01*
X146685417Y-78199809D01*
X146679924Y-78191895D01*
X146673111Y-78166899D01*
X146676768Y-78165158D01*
X146701168Y-78183980D01*
X146706661Y-78191895D01*
X146713474Y-78216891D01*
X146826698Y-78216891D01*
X146814460Y-78196870D01*
X146770608Y-78125053D01*
X146666555Y-78125053D01*
X146653187Y-78138421D01*
X146639819Y-78125053D01*
X146653187Y-78111684D01*
X146666555Y-78125053D01*
X146770608Y-78125053D01*
X146721630Y-78044842D01*
X146613082Y-78044842D01*
X146599713Y-78058211D01*
X146586345Y-78044842D01*
X146599713Y-78031474D01*
X146613082Y-78044842D01*
X146721630Y-78044842D01*
X146696079Y-78002996D01*
X146579790Y-78002996D01*
X146576132Y-78004737D01*
X146551733Y-77985915D01*
X146546240Y-77978000D01*
X146539427Y-77953004D01*
X146543084Y-77951263D01*
X146567483Y-77970085D01*
X146572976Y-77978000D01*
X146579790Y-78002996D01*
X146696079Y-78002996D01*
X146648163Y-77924526D01*
X146640008Y-77911158D01*
X146532871Y-77911158D01*
X146519503Y-77924526D01*
X146506134Y-77911158D01*
X146519503Y-77897790D01*
X146532871Y-77911158D01*
X146640008Y-77911158D01*
X146614478Y-77869312D01*
X146499579Y-77869312D01*
X146495922Y-77871053D01*
X146471522Y-77852230D01*
X146466029Y-77844316D01*
X146459216Y-77819320D01*
X146462873Y-77817579D01*
X146487273Y-77836401D01*
X146492766Y-77844316D01*
X146499579Y-77869312D01*
X146614478Y-77869312D01*
X146559200Y-77778707D01*
X146443135Y-77778707D01*
X146441174Y-77790842D01*
X146419700Y-77770347D01*
X146399187Y-77737368D01*
X146381976Y-77696030D01*
X146383937Y-77683895D01*
X146405411Y-77704390D01*
X146425924Y-77737368D01*
X146443135Y-77778707D01*
X146559200Y-77778707D01*
X146483981Y-77655417D01*
X146365895Y-77655417D01*
X146362238Y-77657158D01*
X146337838Y-77638336D01*
X146332345Y-77630421D01*
X146325532Y-77605425D01*
X146329189Y-77603684D01*
X146353589Y-77622506D01*
X146359082Y-77630421D01*
X146365895Y-77655417D01*
X146483981Y-77655417D01*
X146428703Y-77564812D01*
X146309451Y-77564812D01*
X146307489Y-77576947D01*
X146286016Y-77556452D01*
X146265503Y-77523474D01*
X146248292Y-77482135D01*
X146250253Y-77470000D01*
X146271726Y-77490496D01*
X146292240Y-77523474D01*
X146309451Y-77564812D01*
X146428703Y-77564812D01*
X146394551Y-77508835D01*
X146345376Y-77428156D01*
X146227878Y-77428156D01*
X146221609Y-77431632D01*
X146219649Y-77429895D01*
X146198689Y-77401265D01*
X146153195Y-77333009D01*
X146086883Y-77230906D01*
X146003467Y-77100731D01*
X145906662Y-76948264D01*
X145800183Y-76779281D01*
X145755491Y-76708000D01*
X145583176Y-76432522D01*
X145437475Y-76198959D01*
X145316417Y-76004035D01*
X145218031Y-75844475D01*
X145140345Y-75717000D01*
X145081388Y-75618335D01*
X145039190Y-75545205D01*
X145011778Y-75494331D01*
X144997181Y-75462439D01*
X144993429Y-75446251D01*
X144994596Y-75443363D01*
X145018118Y-75439842D01*
X145018468Y-75440228D01*
X145033387Y-75463980D01*
X145072746Y-75527893D01*
X145133178Y-75626451D01*
X145211318Y-75754140D01*
X145303800Y-75905444D01*
X145407259Y-76074847D01*
X145518330Y-76256833D01*
X145633646Y-76445888D01*
X145749843Y-76636496D01*
X145863554Y-76823142D01*
X145971415Y-77000309D01*
X146070060Y-77162483D01*
X146156124Y-77304147D01*
X146208070Y-77389790D01*
X146227878Y-77428156D01*
X146345376Y-77428156D01*
X146167839Y-77136884D01*
X145966946Y-76806841D01*
X145790793Y-76516878D01*
X145638300Y-76265164D01*
X145508386Y-76049868D01*
X145399972Y-75869161D01*
X145311979Y-75721213D01*
X145243325Y-75604193D01*
X145192930Y-75516271D01*
X145159716Y-75455618D01*
X145142602Y-75420403D01*
X145140508Y-75408795D01*
X145152353Y-75418965D01*
X145177059Y-75449083D01*
X145213545Y-75497318D01*
X145225079Y-75512943D01*
X145275334Y-75576385D01*
X145314474Y-75617067D01*
X145328015Y-75625158D01*
X145359626Y-75610647D01*
X145418305Y-75573499D01*
X145461167Y-75543490D01*
X145573907Y-75461821D01*
X145547113Y-75416408D01*
X145442985Y-75416408D01*
X145436240Y-75447381D01*
X145417908Y-75470686D01*
X145377002Y-75507620D01*
X145354814Y-75518211D01*
X145329855Y-75498152D01*
X145285095Y-75445974D01*
X145238687Y-75384526D01*
X145179185Y-75317684D01*
X145035608Y-75317684D01*
X145022240Y-75331053D01*
X145008871Y-75317684D01*
X145022240Y-75304316D01*
X145035608Y-75317684D01*
X145179185Y-75317684D01*
X145155997Y-75291637D01*
X145075975Y-75250647D01*
X144993803Y-75260508D01*
X144912312Y-75313466D01*
X144865665Y-75357634D01*
X144855882Y-75389734D01*
X144878166Y-75431220D01*
X144884084Y-75439730D01*
X144916402Y-75492376D01*
X144928661Y-75524160D01*
X144903448Y-75531318D01*
X144833903Y-75537410D01*
X144729163Y-75541975D01*
X144598365Y-75544548D01*
X144518425Y-75544947D01*
X144108189Y-75544947D01*
X143997057Y-75413151D01*
X143985388Y-75398419D01*
X143799404Y-75398419D01*
X143772425Y-75429285D01*
X143747388Y-75438000D01*
X143736610Y-75422724D01*
X143752776Y-75397249D01*
X143785470Y-75369220D01*
X143798832Y-75368733D01*
X143799404Y-75398419D01*
X143985388Y-75398419D01*
X143945842Y-75348497D01*
X143911507Y-75289838D01*
X143892016Y-75225475D01*
X143885337Y-75143710D01*
X143889437Y-75032846D01*
X143902282Y-74881184D01*
X143903093Y-74872580D01*
X143919882Y-74694844D01*
X144237113Y-74675783D01*
X144405697Y-74669455D01*
X144597901Y-74668118D01*
X144784104Y-74671760D01*
X144875187Y-74676000D01*
X145196029Y-74695277D01*
X145196029Y-74864534D01*
X145192101Y-74954998D01*
X145181865Y-75022533D01*
X145169292Y-75050316D01*
X145141785Y-75088459D01*
X145158085Y-75129382D01*
X145211370Y-75158652D01*
X145221628Y-75161046D01*
X145290899Y-75193820D01*
X145359200Y-75268397D01*
X145380809Y-75300011D01*
X145425620Y-75372400D01*
X145442985Y-75416408D01*
X145547113Y-75416408D01*
X145522136Y-75374076D01*
X145473951Y-75294504D01*
X145427914Y-75221552D01*
X145425816Y-75218341D01*
X145398101Y-75168833D01*
X145402802Y-75144535D01*
X145420250Y-75135393D01*
X145439929Y-75144164D01*
X145472363Y-75183469D01*
X145519590Y-75256706D01*
X145583648Y-75367271D01*
X145666576Y-75518561D01*
X145770412Y-75713974D01*
X145791323Y-75753796D01*
X145856207Y-75877542D01*
X145943290Y-76043627D01*
X146049941Y-76247030D01*
X146173527Y-76482733D01*
X146311417Y-76745715D01*
X146460979Y-77030956D01*
X146619579Y-77333437D01*
X146784587Y-77648138D01*
X146953371Y-77970040D01*
X147123297Y-78294121D01*
X147183721Y-78409360D01*
X147343842Y-78715150D01*
X147496620Y-79007716D01*
X147640248Y-79283552D01*
X147772921Y-79539149D01*
X147892830Y-79771002D01*
X147998168Y-79975601D01*
X148087128Y-80149440D01*
X148157904Y-80289011D01*
X148208688Y-80390807D01*
X148237672Y-80451320D01*
X148244029Y-80467362D01*
X148337535Y-80467362D01*
X148327146Y-80429284D01*
X148287272Y-80328667D01*
X148225339Y-80194616D01*
X148139474Y-80022143D01*
X148079484Y-79905465D01*
X148025524Y-79801688D01*
X147948799Y-79654611D01*
X147851423Y-79468265D01*
X147735511Y-79246684D01*
X147603176Y-78993899D01*
X147456533Y-78713944D01*
X147297697Y-78410850D01*
X147128782Y-78088650D01*
X146951902Y-77751378D01*
X146769172Y-77403064D01*
X146582705Y-77047742D01*
X146394617Y-76689444D01*
X146207022Y-76332203D01*
X146022034Y-75980050D01*
X145841767Y-75637020D01*
X145698258Y-75364044D01*
X145617534Y-75213668D01*
X145553986Y-75105062D01*
X145501933Y-75031654D01*
X145455693Y-74986873D01*
X145409584Y-74964148D01*
X145357925Y-74956906D01*
X145346115Y-74956737D01*
X145309187Y-74953181D01*
X145288116Y-74934322D01*
X145277368Y-74887874D01*
X145271407Y-74801549D01*
X145270831Y-74789632D01*
X145262871Y-74622526D01*
X144942029Y-74595790D01*
X144925656Y-74390494D01*
X144832337Y-74390494D01*
X144829597Y-74498174D01*
X144824521Y-74575737D01*
X144806581Y-74591903D01*
X144752026Y-74602383D01*
X144654901Y-74607878D01*
X144540986Y-74609158D01*
X144260258Y-74609158D01*
X144260967Y-74596124D01*
X144061505Y-74596124D01*
X144039324Y-74607360D01*
X143991689Y-74609158D01*
X143935611Y-74607192D01*
X143914205Y-74602382D01*
X143914889Y-74601592D01*
X143942980Y-74580984D01*
X143969271Y-74561157D01*
X144011243Y-74542856D01*
X144046071Y-74568723D01*
X144061505Y-74596124D01*
X144260967Y-74596124D01*
X144271866Y-74396017D01*
X144282443Y-74229577D01*
X144294706Y-74108045D01*
X144310780Y-74022853D01*
X144313529Y-74015681D01*
X144236210Y-74015681D01*
X144219341Y-74225525D01*
X144207237Y-74359091D01*
X144195827Y-74445489D01*
X144184060Y-74490995D01*
X144172994Y-74502211D01*
X144153598Y-74482719D01*
X144118070Y-74439635D01*
X143965945Y-74439635D01*
X143955352Y-74462577D01*
X143913349Y-74505448D01*
X143885924Y-74528947D01*
X143817728Y-74579945D01*
X143786702Y-74594209D01*
X143795264Y-74574158D01*
X143845832Y-74522209D01*
X143863300Y-74506324D01*
X143919403Y-74461194D01*
X143958038Y-74439310D01*
X143965945Y-74439635D01*
X144118070Y-74439635D01*
X144111707Y-74431920D01*
X144063048Y-74369466D01*
X144012265Y-74297117D01*
X143980766Y-74240812D01*
X143975144Y-74215157D01*
X144002784Y-74188742D01*
X144060110Y-74143218D01*
X144112341Y-74104637D01*
X144236210Y-74015681D01*
X144313529Y-74015681D01*
X144332793Y-73965437D01*
X144362869Y-73927231D01*
X144393747Y-73904989D01*
X144503800Y-73864408D01*
X144616562Y-73863592D01*
X144715232Y-73901224D01*
X144753184Y-73933127D01*
X144798448Y-73994429D01*
X144809750Y-74057811D01*
X144804323Y-74106917D01*
X144799677Y-74171184D01*
X144808116Y-74206039D01*
X144812725Y-74208105D01*
X144823489Y-74232643D01*
X144830163Y-74297711D01*
X144832337Y-74390494D01*
X144925656Y-74390494D01*
X144922837Y-74355158D01*
X144914593Y-74239602D01*
X144913258Y-74164867D01*
X144920408Y-74118566D01*
X144937620Y-74088315D01*
X144959425Y-74067571D01*
X144992185Y-74043667D01*
X145019980Y-74042268D01*
X145055522Y-74069139D01*
X145111522Y-74130048D01*
X145121093Y-74140910D01*
X145185589Y-74208858D01*
X145230018Y-74239711D01*
X145265064Y-74240122D01*
X145273909Y-74236090D01*
X145297508Y-74232331D01*
X145329117Y-74247484D01*
X145374336Y-74286740D01*
X145438764Y-74355289D01*
X145528000Y-74458321D01*
X145579275Y-74519147D01*
X145669856Y-74629873D01*
X145746570Y-74728820D01*
X145803322Y-74807717D01*
X145834019Y-74858297D01*
X145837713Y-74869870D01*
X145854680Y-74921939D01*
X145882379Y-74961777D01*
X145907978Y-74996464D01*
X145904734Y-75027255D01*
X145868386Y-75072201D01*
X145852307Y-75089142D01*
X145808119Y-75145572D01*
X145792908Y-75200658D01*
X145808952Y-75264449D01*
X145858533Y-75346995D01*
X145932958Y-75444684D01*
X146018695Y-75540067D01*
X146091852Y-75589489D01*
X146162421Y-75595467D01*
X146240391Y-75560517D01*
X146280415Y-75532214D01*
X146337966Y-75492844D01*
X146368656Y-75487028D01*
X146382363Y-75505477D01*
X146419446Y-75537064D01*
X146482792Y-75542513D01*
X146551807Y-75521458D01*
X146572015Y-75508851D01*
X146605288Y-75468252D01*
X146609704Y-75405343D01*
X146605977Y-75377841D01*
X146602866Y-75302695D01*
X146630352Y-75247915D01*
X146655302Y-75222118D01*
X146700584Y-75164341D01*
X146720016Y-75109322D01*
X146720029Y-75108243D01*
X146718829Y-75104596D01*
X146639819Y-75104596D01*
X146619711Y-75137501D01*
X146566327Y-75192751D01*
X146490070Y-75261849D01*
X146401346Y-75336299D01*
X146310561Y-75407604D01*
X146228120Y-75467266D01*
X146164428Y-75506789D01*
X146133306Y-75518211D01*
X146092675Y-75498009D01*
X146034262Y-75444855D01*
X145974649Y-75375372D01*
X145918749Y-75298940D01*
X145879093Y-75237128D01*
X145864450Y-75203958D01*
X145883568Y-75176114D01*
X145934303Y-75123519D01*
X146006729Y-75055087D01*
X146090919Y-74979734D01*
X146176945Y-74906376D01*
X146203774Y-74884878D01*
X146089465Y-74884878D01*
X146074058Y-74921797D01*
X146044384Y-74942834D01*
X146007795Y-74924832D01*
X145993469Y-74912409D01*
X145959688Y-74874892D01*
X145966444Y-74845368D01*
X145985568Y-74824840D01*
X146021337Y-74798131D01*
X146049695Y-74813348D01*
X146066158Y-74834227D01*
X146089465Y-74884878D01*
X146203774Y-74884878D01*
X146254880Y-74843928D01*
X146307793Y-74805794D01*
X146362916Y-74781640D01*
X146399234Y-74782977D01*
X146437662Y-74818116D01*
X146490943Y-74880066D01*
X146548336Y-74954471D01*
X146599103Y-75026973D01*
X146632503Y-75083216D01*
X146639819Y-75104596D01*
X146718829Y-75104596D01*
X146703017Y-75056569D01*
X146658859Y-74980735D01*
X146597869Y-74894736D01*
X146530365Y-74812570D01*
X146466661Y-74748234D01*
X146438848Y-74726724D01*
X146393001Y-74701622D01*
X146353384Y-74701561D01*
X146297523Y-74728436D01*
X146277024Y-74740389D01*
X146180901Y-74797103D01*
X146143108Y-74765710D01*
X145943771Y-74765710D01*
X145928838Y-74761513D01*
X145892244Y-74727312D01*
X145830828Y-74659907D01*
X145741428Y-74556104D01*
X145661412Y-74461154D01*
X145572394Y-74353112D01*
X145498415Y-74259802D01*
X145445104Y-74188608D01*
X145418089Y-74146917D01*
X145416229Y-74139414D01*
X145436447Y-74154191D01*
X145483309Y-74201740D01*
X145549446Y-74273571D01*
X145627489Y-74361196D01*
X145710070Y-74456124D01*
X145789820Y-74549866D01*
X145859370Y-74633931D01*
X145911352Y-74699831D01*
X145938396Y-74739075D01*
X145940205Y-74743098D01*
X145943771Y-74765710D01*
X146143108Y-74765710D01*
X146074774Y-74708948D01*
X146017046Y-74654949D01*
X145935528Y-74570714D01*
X145840507Y-74467219D01*
X145742267Y-74355439D01*
X145729841Y-74340923D01*
X145635016Y-74229358D01*
X145570827Y-74151133D01*
X145533192Y-74098914D01*
X145521598Y-74073266D01*
X145370533Y-74073266D01*
X145333883Y-74098207D01*
X145282048Y-74075652D01*
X145214067Y-74006356D01*
X145165598Y-73933077D01*
X145159479Y-73883426D01*
X145195830Y-73861309D01*
X145209615Y-73860526D01*
X145248612Y-73880241D01*
X145296560Y-73928291D01*
X145340869Y-73988031D01*
X145368950Y-74042818D01*
X145370533Y-74073266D01*
X145521598Y-74073266D01*
X145518028Y-74065370D01*
X145521254Y-74043171D01*
X145538786Y-74024983D01*
X145549375Y-74016822D01*
X145602223Y-73976755D01*
X145464790Y-73976755D01*
X145464499Y-73977067D01*
X145431946Y-73977324D01*
X145377553Y-73932469D01*
X145341245Y-73892364D01*
X145285379Y-73830620D01*
X145242825Y-73789982D01*
X145227367Y-73780449D01*
X145196524Y-73795742D01*
X145143794Y-73833213D01*
X145133196Y-73841559D01*
X145056995Y-73902537D01*
X145153249Y-74017746D01*
X145215714Y-74096486D01*
X145244016Y-74140100D01*
X145239041Y-74146369D01*
X145201675Y-74113072D01*
X145141297Y-74047684D01*
X145035372Y-73927368D01*
X144955279Y-73972914D01*
X144899103Y-73999403D01*
X144876595Y-73993545D01*
X144875187Y-73984259D01*
X144852607Y-73935334D01*
X144793478Y-73877410D01*
X144710717Y-73821797D01*
X144661292Y-73796950D01*
X144567713Y-73755410D01*
X144669046Y-73771039D01*
X144754306Y-73773753D01*
X144814323Y-73746463D01*
X144822783Y-73739243D01*
X144867521Y-73670947D01*
X144870398Y-73626640D01*
X144787699Y-73626640D01*
X144768441Y-73659757D01*
X144720762Y-73691207D01*
X144681088Y-73674151D01*
X144666000Y-73637651D01*
X144678380Y-73593940D01*
X144719719Y-73571864D01*
X144766650Y-73582039D01*
X144774251Y-73588475D01*
X144787699Y-73626640D01*
X144870398Y-73626640D01*
X144872353Y-73596536D01*
X144842218Y-73531622D01*
X144782055Y-73491818D01*
X144742728Y-73486211D01*
X144693355Y-73477302D01*
X144643395Y-73444840D01*
X144581629Y-73380223D01*
X144542257Y-73332474D01*
X144418890Y-73178737D01*
X144545247Y-73065806D01*
X144611024Y-73008515D01*
X144658498Y-72969993D01*
X144676562Y-72958858D01*
X144872600Y-73196063D01*
X145036259Y-73395439D01*
X145169797Y-73559903D01*
X145275469Y-73692369D01*
X145355531Y-73795752D01*
X145412238Y-73872967D01*
X145447847Y-73926929D01*
X145464612Y-73960554D01*
X145464790Y-73976755D01*
X145602223Y-73976755D01*
X145607716Y-73972591D01*
X145502437Y-73843032D01*
X145451307Y-73780483D01*
X145373748Y-73686073D01*
X145277439Y-73569125D01*
X145170058Y-73438963D01*
X145068849Y-73316481D01*
X144740539Y-72919489D01*
X144854653Y-72818111D01*
X144918064Y-72759816D01*
X144946558Y-72723388D01*
X144946236Y-72711133D01*
X144841972Y-72711133D01*
X144841624Y-72713735D01*
X144817426Y-72740901D01*
X144760032Y-72793787D01*
X144677719Y-72865574D01*
X144578764Y-72949445D01*
X144471444Y-73038581D01*
X144364034Y-73126166D01*
X144264812Y-73205380D01*
X144182055Y-73269407D01*
X144124038Y-73311427D01*
X144099819Y-73324796D01*
X144074284Y-73307433D01*
X144051450Y-73285684D01*
X143939398Y-73285684D01*
X143926029Y-73299053D01*
X143912661Y-73285684D01*
X143926029Y-73272316D01*
X143939398Y-73285684D01*
X144051450Y-73285684D01*
X144029658Y-73264928D01*
X144023824Y-73258836D01*
X144007787Y-73241927D01*
X143798871Y-73241927D01*
X143782099Y-73281808D01*
X143778183Y-73286641D01*
X143768453Y-73300427D01*
X143760271Y-73310980D01*
X143749927Y-73314526D01*
X143733714Y-73307288D01*
X143707924Y-73285494D01*
X143668849Y-73245367D01*
X143612780Y-73183134D01*
X143536010Y-73095019D01*
X143434831Y-72977249D01*
X143305534Y-72826047D01*
X143169921Y-72667448D01*
X143018016Y-72488605D01*
X142899705Y-72346161D01*
X142812587Y-72236965D01*
X142754265Y-72157869D01*
X142722339Y-72105722D01*
X142714411Y-72077376D01*
X142716803Y-72072553D01*
X142753115Y-72045716D01*
X142764266Y-72042421D01*
X142785220Y-72062026D01*
X142836844Y-72117801D01*
X142915159Y-72205189D01*
X143016183Y-72319634D01*
X143135937Y-72456578D01*
X143270440Y-72611463D01*
X143415712Y-72779731D01*
X143567773Y-72956827D01*
X143722643Y-73138192D01*
X143773761Y-73198288D01*
X143798871Y-73241927D01*
X144007787Y-73241927D01*
X143961197Y-73192807D01*
X144037192Y-73128924D01*
X144084774Y-73089016D01*
X144163753Y-73022871D01*
X144264500Y-72938550D01*
X144377387Y-72844115D01*
X144420661Y-72807925D01*
X144728134Y-72550808D01*
X144788151Y-72624141D01*
X144826302Y-72676900D01*
X144841972Y-72711133D01*
X144946236Y-72711133D01*
X144945836Y-72695912D01*
X144922182Y-72665119D01*
X144895138Y-72629552D01*
X144897363Y-72599960D01*
X144933310Y-72558418D01*
X144953586Y-72538789D01*
X144955046Y-72537053D01*
X144848450Y-72537053D01*
X144835082Y-72550421D01*
X144821713Y-72537053D01*
X144835082Y-72523684D01*
X144848450Y-72537053D01*
X144955046Y-72537053D01*
X144999816Y-72483847D01*
X145006853Y-72467550D01*
X144714766Y-72467550D01*
X144695263Y-72489844D01*
X144641806Y-72539452D01*
X144561976Y-72610006D01*
X144463351Y-72695140D01*
X144353512Y-72788486D01*
X144240037Y-72883676D01*
X144130506Y-72974342D01*
X144032499Y-73054118D01*
X143953595Y-73116636D01*
X143901374Y-73155528D01*
X143884121Y-73165368D01*
X143862931Y-73145901D01*
X143811754Y-73091018D01*
X143735292Y-73006002D01*
X143638247Y-72896133D01*
X143525322Y-72766692D01*
X143402035Y-72623911D01*
X143249831Y-72446929D01*
X143128926Y-72306261D01*
X143036011Y-72197459D01*
X142967777Y-72116072D01*
X142920916Y-72057651D01*
X142892117Y-72017745D01*
X142878073Y-71991906D01*
X142875475Y-71975683D01*
X142881013Y-71964627D01*
X142891379Y-71954288D01*
X142898447Y-71946689D01*
X142929826Y-71916930D01*
X142995675Y-71859953D01*
X143088676Y-71781903D01*
X143201511Y-71688928D01*
X143319669Y-71592970D01*
X143705820Y-71281508D01*
X143798778Y-71387912D01*
X143983266Y-71599671D01*
X144153646Y-71796383D01*
X144306961Y-71974565D01*
X144440257Y-72130732D01*
X144550576Y-72261400D01*
X144634963Y-72363084D01*
X144690461Y-72432301D01*
X144714116Y-72465566D01*
X144714766Y-72467550D01*
X145006853Y-72467550D01*
X145019370Y-72438565D01*
X145018338Y-72429579D01*
X145015433Y-72421190D01*
X145015667Y-72411937D01*
X145022248Y-72399076D01*
X145038386Y-72379864D01*
X145053226Y-72365331D01*
X144871898Y-72365331D01*
X144870639Y-72382112D01*
X144830139Y-72413764D01*
X144791386Y-72397894D01*
X144764817Y-72366118D01*
X144738068Y-72333011D01*
X144681243Y-72265324D01*
X144599301Y-72168875D01*
X144497203Y-72049479D01*
X144379908Y-71912955D01*
X144252377Y-71765118D01*
X144249999Y-71762366D01*
X144106802Y-71596049D01*
X143995723Y-71465146D01*
X143913367Y-71365096D01*
X143856338Y-71291337D01*
X143821241Y-71239306D01*
X143804680Y-71204441D01*
X143803260Y-71182179D01*
X143809959Y-71171138D01*
X143824720Y-71164575D01*
X143847152Y-71171786D01*
X143881023Y-71196575D01*
X143930102Y-71242746D01*
X143998156Y-71314102D01*
X144088953Y-71414448D01*
X144206262Y-71547588D01*
X144353851Y-71717326D01*
X144373715Y-71740265D01*
X144531163Y-71923217D01*
X144655288Y-72070066D01*
X144748757Y-72184256D01*
X144814236Y-72269234D01*
X144854394Y-72328444D01*
X144871898Y-72365331D01*
X145053226Y-72365331D01*
X145067291Y-72351557D01*
X145112172Y-72311414D01*
X145176238Y-72256689D01*
X145262700Y-72184642D01*
X145374766Y-72092527D01*
X145515647Y-71977602D01*
X145688551Y-71837125D01*
X145896688Y-71668351D01*
X146133420Y-71476517D01*
X146316751Y-71327494D01*
X146489635Y-71186069D01*
X146647029Y-71056434D01*
X146783888Y-70942782D01*
X146895168Y-70849305D01*
X146975824Y-70780196D01*
X147020811Y-70739649D01*
X147024841Y-70735592D01*
X147102391Y-70654150D01*
X147075744Y-70584374D01*
X146987398Y-70584374D01*
X146965406Y-70596781D01*
X146944175Y-70598632D01*
X146913482Y-70613819D01*
X146913602Y-70664798D01*
X146913588Y-70686835D01*
X146902634Y-70713172D01*
X146876531Y-70747777D01*
X146831072Y-70794615D01*
X146762049Y-70857652D01*
X146665253Y-70940854D01*
X146536477Y-71048185D01*
X146371512Y-71183613D01*
X146308456Y-71235113D01*
X146027576Y-71463756D01*
X145776585Y-71666901D01*
X145557026Y-71843331D01*
X145370438Y-71991828D01*
X145218364Y-72111177D01*
X145102343Y-72200160D01*
X145023917Y-72257561D01*
X144984627Y-72282162D01*
X144981306Y-72283053D01*
X144958742Y-72263610D01*
X144906129Y-72208762D01*
X144828190Y-72123729D01*
X144729646Y-72013732D01*
X144615217Y-71883993D01*
X144489627Y-71739731D01*
X144482831Y-71731874D01*
X144355568Y-71584447D01*
X144238628Y-71448507D01*
X144136940Y-71329824D01*
X144055433Y-71234163D01*
X143999037Y-71167294D01*
X143972681Y-71134982D01*
X143972559Y-71134817D01*
X143961959Y-71110614D01*
X143970510Y-71082631D01*
X144004314Y-71043658D01*
X144069473Y-70986489D01*
X144159717Y-70913718D01*
X144288106Y-70809969D01*
X144378108Y-70731995D01*
X144434786Y-70674401D01*
X144463201Y-70631793D01*
X144468418Y-70598776D01*
X144465478Y-70587901D01*
X144478704Y-70549648D01*
X144537032Y-70483249D01*
X144640556Y-70388598D01*
X144675371Y-70358941D01*
X144776282Y-70275511D01*
X144845976Y-70222997D01*
X144861678Y-70214154D01*
X144697833Y-70214154D01*
X144667819Y-70255905D01*
X144647924Y-70277790D01*
X144581328Y-70338918D01*
X144540651Y-70356906D01*
X144527608Y-70333204D01*
X144547644Y-70300127D01*
X144594860Y-70256189D01*
X144649921Y-70216903D01*
X144693492Y-70197785D01*
X144696637Y-70197579D01*
X144697833Y-70214154D01*
X144861678Y-70214154D01*
X144892973Y-70196531D01*
X144925791Y-70191246D01*
X144951336Y-70201247D01*
X144982938Y-70213194D01*
X145020589Y-70205364D01*
X145075405Y-70172738D01*
X145158501Y-70110297D01*
X145166276Y-70104199D01*
X145244471Y-70044935D01*
X145305092Y-70003061D01*
X145337461Y-69985837D01*
X145339860Y-69986199D01*
X145357072Y-70013465D01*
X145392288Y-70073563D01*
X145431223Y-70141751D01*
X145513015Y-70286449D01*
X145428127Y-70328909D01*
X145368585Y-70369692D01*
X145335819Y-70412954D01*
X145334663Y-70417390D01*
X145344603Y-70469024D01*
X145380637Y-70539383D01*
X145431417Y-70612598D01*
X145485597Y-70672801D01*
X145531827Y-70704121D01*
X145540749Y-70705579D01*
X145594090Y-70724311D01*
X145637391Y-70759279D01*
X145675395Y-70794499D01*
X145709728Y-70794746D01*
X145755167Y-70768948D01*
X145803643Y-70736057D01*
X145885996Y-70678026D01*
X145993058Y-70601433D01*
X146115657Y-70512862D01*
X146244623Y-70418891D01*
X146317194Y-70365635D01*
X146311908Y-70343803D01*
X146153814Y-70343803D01*
X146127545Y-70379398D01*
X146067721Y-70432711D01*
X145987100Y-70494733D01*
X145898439Y-70556453D01*
X145814496Y-70608860D01*
X145748031Y-70642944D01*
X145718734Y-70651075D01*
X145684509Y-70645089D01*
X145697430Y-70621272D01*
X145713810Y-70574196D01*
X145702972Y-70544201D01*
X145584095Y-70544201D01*
X145582487Y-70573879D01*
X145548595Y-70593544D01*
X145504093Y-70561656D01*
X145468781Y-70511559D01*
X145441753Y-70446353D01*
X145452360Y-70411816D01*
X145482583Y-70412478D01*
X145523150Y-70445394D01*
X145561255Y-70494618D01*
X145584095Y-70544201D01*
X145702972Y-70544201D01*
X145701837Y-70541062D01*
X145690675Y-70508792D01*
X145711263Y-70494759D01*
X145774370Y-70491684D01*
X145774892Y-70491684D01*
X145867545Y-70473404D01*
X145944584Y-70426089D01*
X145991036Y-70361032D01*
X145998134Y-70323329D01*
X145998834Y-70319550D01*
X145915050Y-70319550D01*
X145911440Y-70346185D01*
X145879429Y-70381245D01*
X145837414Y-70407286D01*
X145818109Y-70411474D01*
X145802908Y-70400366D01*
X145834402Y-70366105D01*
X145841436Y-70360302D01*
X145888661Y-70327464D01*
X145914852Y-70319372D01*
X145915050Y-70319550D01*
X145998834Y-70319550D01*
X146004679Y-70288002D01*
X146032245Y-70299654D01*
X146037899Y-70304244D01*
X146091376Y-70324542D01*
X146120052Y-70320980D01*
X146152461Y-70321187D01*
X146153814Y-70343803D01*
X146311908Y-70343803D01*
X146311678Y-70342854D01*
X146297141Y-70325470D01*
X146272185Y-70275246D01*
X146265503Y-70228566D01*
X146251811Y-70184261D01*
X146247973Y-70176790D01*
X146145841Y-70176790D01*
X146144833Y-70198152D01*
X146121083Y-70221517D01*
X146091068Y-70208569D01*
X146064280Y-70179530D01*
X145862870Y-70179530D01*
X145837664Y-70260199D01*
X145820201Y-70282368D01*
X145751532Y-70324983D01*
X145676629Y-70321958D01*
X145613661Y-70274211D01*
X145611966Y-70271840D01*
X145575855Y-70209383D01*
X145578952Y-70177684D01*
X145608399Y-70170842D01*
X145652228Y-70154652D01*
X145712766Y-70114568D01*
X145727189Y-70102907D01*
X145779944Y-70060884D01*
X145808241Y-70051653D01*
X145828043Y-70072999D01*
X145836188Y-70087781D01*
X145862870Y-70179530D01*
X146064280Y-70179530D01*
X146050099Y-70164158D01*
X146005769Y-70093273D01*
X146005217Y-70042149D01*
X146020619Y-70026417D01*
X146049473Y-70035570D01*
X146088459Y-70075432D01*
X146124831Y-70128380D01*
X146145841Y-70176790D01*
X146247973Y-70176790D01*
X146217000Y-70116513D01*
X146170467Y-70039970D01*
X146121610Y-69969278D01*
X146079826Y-69919083D01*
X146056926Y-69903474D01*
X146030431Y-69917397D01*
X145979038Y-69951559D01*
X145969865Y-69958039D01*
X145893236Y-70012604D01*
X145847726Y-69940137D01*
X145730766Y-69940137D01*
X145710095Y-70009361D01*
X145658359Y-70060628D01*
X145590970Y-70088224D01*
X145523340Y-70086434D01*
X145470883Y-70049544D01*
X145464338Y-70038916D01*
X145439982Y-69984301D01*
X145449045Y-69961235D01*
X145486230Y-69956947D01*
X145538884Y-69939600D01*
X145599920Y-69897428D01*
X145604433Y-69893340D01*
X145666211Y-69854206D01*
X145709752Y-69863805D01*
X145729956Y-69920246D01*
X145730766Y-69940137D01*
X145847726Y-69940137D01*
X145829584Y-69911249D01*
X145765792Y-69808842D01*
X145744772Y-69769657D01*
X145632339Y-69769657D01*
X145607221Y-69808239D01*
X145562690Y-69851539D01*
X145511451Y-69887334D01*
X145466208Y-69903403D01*
X145463744Y-69903474D01*
X145435312Y-69899025D01*
X145440076Y-69880223D01*
X145481837Y-69838885D01*
X145502125Y-69820886D01*
X145563675Y-69773782D01*
X145611894Y-69749019D01*
X145625340Y-69748016D01*
X145632339Y-69769657D01*
X145744772Y-69769657D01*
X145728915Y-69740098D01*
X145718384Y-69692809D01*
X145726998Y-69671317D01*
X145572935Y-69671317D01*
X145554497Y-69696305D01*
X145509345Y-69740303D01*
X145453104Y-69789656D01*
X145401399Y-69830713D01*
X145369857Y-69849822D01*
X145368428Y-69850000D01*
X145352452Y-69828811D01*
X145319336Y-69774368D01*
X145291894Y-69726317D01*
X145248434Y-69647521D01*
X145228647Y-69604564D01*
X145230184Y-69586574D01*
X145250692Y-69582678D01*
X145260820Y-69582632D01*
X145304720Y-69566442D01*
X145365176Y-69526394D01*
X145379067Y-69515153D01*
X145415381Y-69484597D01*
X145213854Y-69484597D01*
X145210184Y-69500492D01*
X145196029Y-69502421D01*
X145174022Y-69492638D01*
X145178205Y-69484597D01*
X145209935Y-69481397D01*
X145213854Y-69484597D01*
X145415381Y-69484597D01*
X145459261Y-69447675D01*
X145515969Y-69548574D01*
X145550951Y-69615383D01*
X145571057Y-69662620D01*
X145572935Y-69671317D01*
X145726998Y-69671317D01*
X145733631Y-69654768D01*
X145774087Y-69613766D01*
X145814121Y-69579327D01*
X145894010Y-69518166D01*
X145953228Y-69492784D01*
X145994320Y-69494224D01*
X146052154Y-69494286D01*
X146077415Y-69477188D01*
X146104348Y-69478919D01*
X146163889Y-69519723D01*
X146256802Y-69600191D01*
X146346565Y-69684724D01*
X146448043Y-69783263D01*
X146515636Y-69852178D01*
X146554342Y-69898549D01*
X146569163Y-69929458D01*
X146565099Y-69951986D01*
X146548980Y-69971395D01*
X146517615Y-70009752D01*
X146526074Y-70039412D01*
X146546942Y-70061030D01*
X146583652Y-70089478D01*
X146608354Y-70077079D01*
X146621315Y-70058679D01*
X146640670Y-70040082D01*
X146664642Y-70048480D01*
X146701108Y-70090230D01*
X146753859Y-70165626D01*
X146811851Y-70255649D01*
X146870966Y-70354145D01*
X146924293Y-70448722D01*
X146964922Y-70526989D01*
X146985941Y-70576556D01*
X146987398Y-70584374D01*
X147075744Y-70584374D01*
X147058376Y-70538899D01*
X147008237Y-70432486D01*
X146931312Y-70299131D01*
X146836336Y-70151870D01*
X146732039Y-70003736D01*
X146627155Y-69867763D01*
X146544632Y-69772096D01*
X146444108Y-69668410D01*
X146338733Y-69567915D01*
X146236973Y-69477824D01*
X146147294Y-69405350D01*
X146078163Y-69357705D01*
X146039793Y-69342000D01*
X146002141Y-69357016D01*
X145935574Y-69396678D01*
X145853468Y-69452908D01*
X145840580Y-69462316D01*
X145759778Y-69519981D01*
X145695402Y-69562564D01*
X145659518Y-69582156D01*
X145657089Y-69582632D01*
X145634059Y-69561615D01*
X145592328Y-69506316D01*
X145540614Y-69428357D01*
X145536757Y-69422211D01*
X145525165Y-69404386D01*
X145294064Y-69404386D01*
X145290394Y-69420281D01*
X145276240Y-69422211D01*
X145254232Y-69412428D01*
X145258415Y-69404386D01*
X145290145Y-69401186D01*
X145294064Y-69404386D01*
X145525165Y-69404386D01*
X145481927Y-69337905D01*
X145441294Y-69289859D01*
X145402281Y-69268043D01*
X145352309Y-69262429D01*
X145336307Y-69262384D01*
X145221962Y-69286084D01*
G37*
X145221962Y-69286084D02*
X145134376Y-69351311D01*
X145092784Y-69422211D01*
X145084262Y-69464188D01*
X145092943Y-69514878D01*
X145122636Y-69586534D01*
X145175726Y-69688774D01*
X145284075Y-69888494D01*
X145141933Y-70015806D01*
X145059683Y-70084728D01*
X145005263Y-70117590D01*
X144971270Y-70118558D01*
X144965820Y-70114924D01*
X144910940Y-70092837D01*
X144883465Y-70091760D01*
X144836719Y-70094038D01*
X144820956Y-70084343D01*
X144839181Y-70056976D01*
X144894396Y-70006238D01*
X144955792Y-69954489D01*
X145049568Y-69873730D01*
X145107035Y-69814425D01*
X145134782Y-69766106D01*
X145136644Y-69746822D01*
X145075713Y-69746822D01*
X144982134Y-69828855D01*
X144899922Y-69901175D01*
X144815336Y-69975950D01*
X144799576Y-69989936D01*
X144635680Y-70130331D01*
X144504903Y-70230726D01*
X144405940Y-70292042D01*
X144340470Y-70314907D01*
X144271430Y-70330279D01*
X144227146Y-70351002D01*
X144094127Y-70455812D01*
X143966588Y-70554598D01*
X143851492Y-70642133D01*
X143755803Y-70713194D01*
X143686483Y-70762553D01*
X143650496Y-70784987D01*
X143647737Y-70785790D01*
X143615733Y-70767703D01*
X143586661Y-70739000D01*
X143551951Y-70694436D01*
X143538187Y-70656843D01*
X143549817Y-70617710D01*
X143591291Y-70568526D01*
X143667058Y-70500779D01*
X143745057Y-70435962D01*
X143864070Y-70334601D01*
X143989983Y-70221770D01*
X144103541Y-70114942D01*
X144153292Y-70065548D01*
X144248315Y-69974451D01*
X144369272Y-69867024D01*
X144498815Y-69758336D01*
X144592284Y-69684203D01*
X144703192Y-69599797D01*
X144780608Y-69544249D01*
X144832976Y-69513240D01*
X144868739Y-69502448D01*
X144896341Y-69507554D01*
X144915864Y-69518622D01*
X144967020Y-69567555D01*
X145017544Y-69638591D01*
X145024977Y-69651847D01*
X145075713Y-69746822D01*
X145136644Y-69746822D01*
X145139398Y-69718302D01*
X145131390Y-69675471D01*
X145103810Y-69620295D01*
X145051579Y-69551218D01*
X144987572Y-69481873D01*
X144924664Y-69425892D01*
X144875731Y-69396906D01*
X144866941Y-69395474D01*
X144832042Y-69411974D01*
X144765113Y-69457054D01*
X144674371Y-69524083D01*
X144568029Y-69606431D01*
X144454303Y-69697466D01*
X144341408Y-69790558D01*
X144237560Y-69879076D01*
X144150973Y-69956390D01*
X144089863Y-70015867D01*
X144069960Y-70038745D01*
X144021779Y-70090985D01*
X143941977Y-70165641D01*
X143841558Y-70252840D01*
X143731525Y-70342708D01*
X143729090Y-70344632D01*
X143603340Y-70447225D01*
X143518272Y-70527204D01*
X143470208Y-70591815D01*
X143455470Y-70648303D01*
X143470381Y-70703915D01*
X143511263Y-70765894D01*
X143513682Y-70768984D01*
X143559139Y-70823247D01*
X143599411Y-70855415D01*
X143642852Y-70863434D01*
X143697814Y-70845250D01*
X143772653Y-70798809D01*
X143875720Y-70722057D01*
X143954671Y-70660534D01*
X144093095Y-70553142D01*
X144196725Y-70476177D01*
X144272045Y-70426069D01*
X144325535Y-70399249D01*
X144363680Y-70392147D01*
X144392960Y-70401194D01*
X144407175Y-70411376D01*
X144434141Y-70442044D01*
X144422513Y-70473741D01*
X144404724Y-70494522D01*
X144376519Y-70547559D01*
X144376660Y-70584753D01*
X144369102Y-70615064D01*
X144327208Y-70664151D01*
X144247532Y-70735404D01*
X144126629Y-70832212D01*
X144119218Y-70837955D01*
X143992880Y-70936819D01*
X143860482Y-71042210D01*
X143739159Y-71140401D01*
X143658661Y-71207003D01*
X143533441Y-71311428D01*
X143388317Y-71431002D01*
X143234192Y-71556875D01*
X143081970Y-71680198D01*
X142942557Y-71792123D01*
X142826855Y-71883799D01*
X142774306Y-71924672D01*
X142713398Y-71972536D01*
X142616673Y-72049820D01*
X142489653Y-72152028D01*
X142337862Y-72274661D01*
X142166822Y-72413221D01*
X141982056Y-72563210D01*
X141789085Y-72720131D01*
X141593433Y-72879486D01*
X141400622Y-73036776D01*
X141216176Y-73187504D01*
X141045615Y-73327173D01*
X140894464Y-73451283D01*
X140768245Y-73555338D01*
X140672479Y-73634839D01*
X140614707Y-73683554D01*
X140536056Y-73752557D01*
X140482439Y-73809272D01*
X140453614Y-73863393D01*
X140449338Y-73924613D01*
X140469369Y-74002624D01*
X140513464Y-74107120D01*
X140581380Y-74247794D01*
X140599653Y-74284882D01*
X140677486Y-74433751D01*
X140751342Y-74551149D01*
X140834555Y-74656194D01*
X140927491Y-74754994D01*
X141041998Y-74863486D01*
X141161733Y-74964972D01*
X141277607Y-75052859D01*
X141380533Y-75120553D01*
X141461420Y-75161462D01*
X141500441Y-75170632D01*
X141530447Y-75154333D01*
X141597969Y-75107509D01*
X141639393Y-75077053D01*
X141533082Y-75077053D01*
X141519713Y-75090421D01*
X141506345Y-75077053D01*
X141519713Y-75063684D01*
X141533082Y-75077053D01*
X141639393Y-75077053D01*
X141698951Y-75033266D01*
X141829335Y-74934709D01*
X141985066Y-74814946D01*
X142162085Y-74677082D01*
X142356337Y-74524223D01*
X142563765Y-74359477D01*
X142654069Y-74287300D01*
X142914695Y-74079169D01*
X143136557Y-73903287D01*
X143322095Y-73757819D01*
X143473747Y-73640930D01*
X143593955Y-73550784D01*
X143685155Y-73485546D01*
X143749788Y-73443381D01*
X143790293Y-73422452D01*
X143806972Y-73419768D01*
X143863937Y-73417288D01*
X143925495Y-73390523D01*
X143949780Y-73376849D01*
X143643445Y-73376849D01*
X143623001Y-73398584D01*
X143568574Y-73446396D01*
X143488277Y-73513385D01*
X143390222Y-73592652D01*
X143382760Y-73598594D01*
X143300540Y-73664266D01*
X143183556Y-73758057D01*
X143038634Y-73874474D01*
X142872602Y-74008027D01*
X142692287Y-74153226D01*
X142504516Y-74304579D01*
X142348555Y-74430407D01*
X142148786Y-74590528D01*
X141973482Y-74728754D01*
X141825561Y-74842894D01*
X141707935Y-74930757D01*
X141623522Y-74990149D01*
X141575236Y-75018881D01*
X141564542Y-75019866D01*
X141534551Y-74993430D01*
X141479876Y-74983474D01*
X141421694Y-74992795D01*
X141393908Y-75013309D01*
X141370457Y-75010527D01*
X141315180Y-74979173D01*
X141237287Y-74924964D01*
X141176901Y-74878600D01*
X141082724Y-74802376D01*
X141025324Y-74750832D01*
X140998705Y-74716554D01*
X140996876Y-74692123D01*
X141010828Y-74673065D01*
X141047616Y-74622648D01*
X141037306Y-74580888D01*
X141010580Y-74554744D01*
X140967703Y-74534666D01*
X140938391Y-74551470D01*
X140899550Y-74578920D01*
X140886323Y-74582421D01*
X140858450Y-74560469D01*
X140813441Y-74502116D01*
X140758415Y-74418619D01*
X140700492Y-74321233D01*
X140646789Y-74221216D01*
X140613401Y-74150878D01*
X140578586Y-74068769D01*
X140565332Y-74025114D01*
X140572384Y-74010002D01*
X140595908Y-74012838D01*
X140648817Y-74007793D01*
X140671147Y-73964606D01*
X140664058Y-73913761D01*
X140630618Y-73868010D01*
X140583967Y-73868340D01*
X140544162Y-73907316D01*
X140522555Y-73938039D01*
X140520391Y-73920220D01*
X140523077Y-73900998D01*
X140529078Y-73884781D01*
X140544844Y-73862314D01*
X140573280Y-73831139D01*
X140617289Y-73788797D01*
X140679776Y-73732828D01*
X140763646Y-73660773D01*
X140871802Y-73570173D01*
X141007148Y-73458568D01*
X141172590Y-73323499D01*
X141371031Y-73162508D01*
X141605375Y-72973134D01*
X141878527Y-72752919D01*
X141886196Y-72746741D01*
X142054960Y-72611945D01*
X142211154Y-72489394D01*
X142349807Y-72382819D01*
X142465947Y-72295951D01*
X142554602Y-72232522D01*
X142610800Y-72196262D01*
X142629014Y-72189302D01*
X142654209Y-72214065D01*
X142707694Y-72272741D01*
X142784157Y-72359107D01*
X142878281Y-72466942D01*
X142984753Y-72590025D01*
X143098259Y-72722135D01*
X143213484Y-72857050D01*
X143325113Y-72988549D01*
X143427833Y-73110411D01*
X143516329Y-73216414D01*
X143585286Y-73300338D01*
X143629391Y-73355961D01*
X143643445Y-73376849D01*
X143949780Y-73376849D01*
X143976848Y-73361608D01*
X144011443Y-73364939D01*
X144046495Y-73392767D01*
X144078393Y-73417425D01*
X144107968Y-73420086D01*
X144149603Y-73396546D01*
X144217415Y-73342817D01*
X144285492Y-73290217D01*
X144337875Y-73255520D01*
X144358318Y-73247058D01*
X144388101Y-73267169D01*
X144432559Y-73314709D01*
X144440679Y-73324772D01*
X144500802Y-73401005D01*
X143932850Y-73822130D01*
X143779138Y-73935331D01*
X143637877Y-74037896D01*
X143515212Y-74125479D01*
X143417290Y-74193734D01*
X143350255Y-74238318D01*
X143320955Y-74254746D01*
X143273782Y-74250064D01*
X143259048Y-74237171D01*
X143214833Y-74209763D01*
X143150255Y-74219451D01*
X143080381Y-74263278D01*
X143068368Y-74274599D01*
X143025976Y-74321448D01*
X143017027Y-74358366D01*
X143037986Y-74410785D01*
X143046989Y-74428336D01*
X143126822Y-74559685D01*
X143203859Y-74638330D01*
X143279367Y-74664887D01*
X143354617Y-74639970D01*
X143400872Y-74599823D01*
X143440682Y-74543833D01*
X143440907Y-74525102D01*
X143356674Y-74525102D01*
X143344470Y-74551707D01*
X143287307Y-74580661D01*
X143227180Y-74556275D01*
X143170713Y-74488886D01*
X143121764Y-74395909D01*
X143115484Y-74332832D01*
X143151657Y-74297602D01*
X143202101Y-74302590D01*
X143258489Y-74341888D01*
X143310157Y-74401443D01*
X143346440Y-74467199D01*
X143356674Y-74525102D01*
X143440907Y-74525102D01*
X143441324Y-74490477D01*
X143435223Y-74472166D01*
X143429783Y-74450412D01*
X143433817Y-74427527D01*
X143452043Y-74399202D01*
X143489180Y-74361130D01*
X143549949Y-74309000D01*
X143639069Y-74238503D01*
X143761260Y-74145331D01*
X143921242Y-74025175D01*
X143941007Y-74010381D01*
X144124537Y-73872903D01*
X144269532Y-73764324D01*
X144380484Y-73681797D01*
X144461888Y-73622474D01*
X144518236Y-73583505D01*
X144554023Y-73562042D01*
X144573740Y-73555238D01*
X144581883Y-73560243D01*
X144582944Y-73574210D01*
X144581416Y-73594289D01*
X144581082Y-73604631D01*
X144566408Y-73658978D01*
X144516016Y-73711587D01*
X144467450Y-73745462D01*
X144403697Y-73789235D01*
X144311135Y-73856346D01*
X144201735Y-73937722D01*
X144087469Y-74024292D01*
X143980310Y-74106984D01*
X143892229Y-74176724D01*
X143835198Y-74224441D01*
X143834237Y-74225306D01*
X143811848Y-74256155D01*
X143825586Y-74290995D01*
X143847559Y-74316975D01*
X143876516Y-74352548D01*
X143879076Y-74379959D01*
X143850059Y-74414265D01*
X143798981Y-74458176D01*
X143740390Y-74515170D01*
X143704743Y-74564924D01*
X143699615Y-74582421D01*
X143716688Y-74639710D01*
X143754483Y-74684153D01*
X143796522Y-74696896D01*
X143799029Y-74696171D01*
X143814436Y-74704255D01*
X143824621Y-74745155D01*
X143830355Y-74825370D01*
X143832411Y-74951401D01*
X143832450Y-74977378D01*
X143832450Y-75269843D01*
X143749439Y-75293764D01*
X143734852Y-75299178D01*
X143719820Y-75308829D01*
X143702944Y-75325649D01*
X143682822Y-75352571D01*
X143658055Y-75392529D01*
X143627242Y-75448456D01*
X143588983Y-75523284D01*
X143541878Y-75619947D01*
X143484525Y-75741378D01*
X143415526Y-75890510D01*
X143333479Y-76070276D01*
X143236984Y-76283608D01*
X143124641Y-76533441D01*
X142995050Y-76822706D01*
X142846810Y-77154338D01*
X142678520Y-77531269D01*
X142640234Y-77617053D01*
X142465996Y-78007686D01*
X142312414Y-78352590D01*
X142178210Y-78654801D01*
X142062105Y-78917358D01*
X141962820Y-79143298D01*
X141879075Y-79335659D01*
X141809593Y-79497477D01*
X141753093Y-79631791D01*
X141708296Y-79741638D01*
X141673925Y-79830056D01*
X141648699Y-79900082D01*
X141631339Y-79954754D01*
X141620567Y-79997110D01*
X141615104Y-80030186D01*
X141613667Y-80055049D01*
X141622414Y-80186126D01*
X141648223Y-80277924D01*
X141689235Y-80325279D01*
X141712894Y-80330718D01*
X141764078Y-80317447D01*
X141820179Y-80275310D01*
X141883942Y-80200430D01*
X141958113Y-80088933D01*
X142045435Y-79936943D01*
X142148655Y-79740584D01*
X142192670Y-79653426D01*
X142250619Y-79537032D01*
X142326231Y-79384173D01*
X142417210Y-79199551D01*
X142521261Y-78987871D01*
X142636089Y-78753837D01*
X142759399Y-78502151D01*
X142888897Y-78237519D01*
X143022287Y-77964644D01*
X143157275Y-77688229D01*
X143291565Y-77412979D01*
X143422863Y-77143597D01*
X143548873Y-76884787D01*
X143667301Y-76641253D01*
X143775852Y-76417698D01*
X143872230Y-76218827D01*
X143954141Y-76049343D01*
X144019290Y-75913950D01*
X144065382Y-75817352D01*
X144089551Y-75765526D01*
X144129729Y-75684261D01*
X144163955Y-75641798D01*
X144195959Y-75629401D01*
X144051083Y-75629401D01*
X143389158Y-76984174D01*
X143249219Y-77270490D01*
X143102293Y-77570916D01*
X142952675Y-77876685D01*
X142804660Y-78179028D01*
X142662540Y-78469174D01*
X142530611Y-78738356D01*
X142413166Y-78977804D01*
X142314500Y-79178750D01*
X142306747Y-79194526D01*
X142171663Y-79467735D01*
X142057702Y-79694348D01*
X141963655Y-79876359D01*
X141888310Y-80015760D01*
X141830460Y-80114541D01*
X141788893Y-80174697D01*
X141762400Y-80198218D01*
X141749772Y-80187098D01*
X141749799Y-80143327D01*
X141755325Y-80102599D01*
X141775298Y-80028692D01*
X141812020Y-79930483D01*
X141830244Y-79889684D01*
X141746976Y-79889684D01*
X141733608Y-79903053D01*
X141720240Y-79889684D01*
X141733608Y-79876316D01*
X141746976Y-79889684D01*
X141830244Y-79889684D01*
X141851583Y-79841915D01*
X141860741Y-79822842D01*
X141773713Y-79822842D01*
X141763931Y-79844850D01*
X141755889Y-79840667D01*
X141752689Y-79808936D01*
X141755889Y-79805018D01*
X141771784Y-79808688D01*
X141773713Y-79822842D01*
X141860741Y-79822842D01*
X141892837Y-79756000D01*
X141800450Y-79756000D01*
X141787082Y-79769368D01*
X141773713Y-79756000D01*
X141787082Y-79742632D01*
X141800450Y-79756000D01*
X141892837Y-79756000D01*
X141903212Y-79734395D01*
X141964700Y-79604143D01*
X142023804Y-79477116D01*
X142030811Y-79461895D01*
X142075946Y-79364956D01*
X142138126Y-79233155D01*
X142211060Y-79079741D01*
X142288453Y-78917965D01*
X142341912Y-78806842D01*
X142419706Y-78644380D01*
X142498232Y-78478327D01*
X142570896Y-78322768D01*
X142631103Y-78191787D01*
X142661077Y-78125053D01*
X142713222Y-78009196D01*
X142763508Y-77901071D01*
X142804109Y-77817360D01*
X142817811Y-77790842D01*
X142847585Y-77732376D01*
X142894096Y-77637346D01*
X142951574Y-77517694D01*
X143014248Y-77385361D01*
X143030995Y-77349684D01*
X143095970Y-77211370D01*
X143158937Y-77078010D01*
X143213475Y-76963162D01*
X143253160Y-76880385D01*
X143258969Y-76868421D01*
X143295842Y-76791904D01*
X143348483Y-76681563D01*
X143409951Y-76551987D01*
X143473310Y-76417766D01*
X143475132Y-76413895D01*
X143551011Y-76252876D01*
X143637277Y-76070113D01*
X143721834Y-75891219D01*
X143776088Y-75776612D01*
X143895360Y-75524895D01*
X143797079Y-75524895D01*
X143783155Y-75554732D01*
X143748370Y-75628300D01*
X143694881Y-75741064D01*
X143624845Y-75888487D01*
X143540417Y-76066034D01*
X143443753Y-76269170D01*
X143337011Y-76493359D01*
X143222347Y-76734066D01*
X143158321Y-76868421D01*
X143025315Y-77147755D01*
X142887021Y-77438672D01*
X142747497Y-77732608D01*
X142610800Y-78020999D01*
X142480986Y-78295278D01*
X142362112Y-78546882D01*
X142258235Y-78767246D01*
X142174458Y-78945572D01*
X142086524Y-79132393D01*
X142005842Y-79302238D01*
X141935171Y-79449421D01*
X141877270Y-79568260D01*
X141834897Y-79653069D01*
X141810812Y-79698164D01*
X141806373Y-79703993D01*
X141815528Y-79678773D01*
X141844767Y-79608643D01*
X141892375Y-79497523D01*
X141956638Y-79349333D01*
X142035840Y-79167991D01*
X142128265Y-78957417D01*
X142232200Y-78721529D01*
X142345927Y-78464247D01*
X142467733Y-78189490D01*
X142563308Y-77974421D01*
X142742439Y-77571733D01*
X142901136Y-77215094D01*
X143040728Y-76901711D01*
X143162544Y-76628788D01*
X143267916Y-76393533D01*
X143358172Y-76193150D01*
X143434643Y-76024844D01*
X143498658Y-75885823D01*
X143551547Y-75773291D01*
X143594641Y-75684455D01*
X143629268Y-75616519D01*
X143656760Y-75566689D01*
X143678445Y-75532172D01*
X143695653Y-75510173D01*
X143709715Y-75497897D01*
X143721960Y-75492550D01*
X143733718Y-75491338D01*
X143744973Y-75491474D01*
X143793119Y-75501883D01*
X143797079Y-75524895D01*
X143895360Y-75524895D01*
X143926029Y-75460170D01*
X143988556Y-75544786D01*
X144051083Y-75629401D01*
X144195959Y-75629401D01*
X144203728Y-75626392D01*
X144226997Y-75625158D01*
X144301376Y-75625158D01*
X144548398Y-76978876D01*
X144597000Y-77243061D01*
X144643722Y-77492909D01*
X144687529Y-77723164D01*
X144727386Y-77928568D01*
X144762257Y-78103863D01*
X144791105Y-78243792D01*
X144812896Y-78343097D01*
X144826593Y-78396522D01*
X144828870Y-78402613D01*
X144875691Y-78460136D01*
X144933849Y-78481135D01*
X144986942Y-78462348D01*
X145006032Y-78437831D01*
X145012092Y-78424218D01*
X145016797Y-78405674D01*
X145019943Y-78378246D01*
X145021106Y-78344443D01*
X144939197Y-78344443D01*
X144937865Y-78385077D01*
X144937295Y-78386713D01*
X144922990Y-78397838D01*
X144907475Y-78382451D01*
X144889484Y-78335951D01*
X144867755Y-78253740D01*
X144841024Y-78131216D01*
X144808025Y-77963781D01*
X144779856Y-77813812D01*
X144747064Y-77635692D01*
X144714853Y-77458558D01*
X144685596Y-77295625D01*
X144661668Y-77160111D01*
X144646622Y-77072329D01*
X144627881Y-76964070D01*
X144610804Y-76872841D01*
X144598332Y-76814131D01*
X144595862Y-76804961D01*
X144587463Y-76766661D01*
X144571999Y-76686009D01*
X144551162Y-76572675D01*
X144526645Y-76436327D01*
X144500139Y-76286635D01*
X144473336Y-76133269D01*
X144447927Y-75985898D01*
X144425606Y-75854190D01*
X144408062Y-75747816D01*
X144396989Y-75676446D01*
X144393924Y-75650809D01*
X144418395Y-75638167D01*
X144482795Y-75629006D01*
X144573604Y-75625178D01*
X144581082Y-75625158D01*
X144679073Y-75626363D01*
X144735259Y-75632461D01*
X144761295Y-75647179D01*
X144768835Y-75674244D01*
X144769233Y-75685316D01*
X144771512Y-75734496D01*
X144776991Y-75824351D01*
X144784859Y-75942234D01*
X144794300Y-76075497D01*
X144794605Y-76079684D01*
X144822431Y-76465238D01*
X144847737Y-76824097D01*
X144870342Y-77153355D01*
X144890067Y-77450104D01*
X144906733Y-77711435D01*
X144920158Y-77934443D01*
X144930164Y-78116218D01*
X144936570Y-78253854D01*
X144939197Y-78344443D01*
X145021106Y-78344443D01*
X145021329Y-78337984D01*
X145020752Y-78280937D01*
X145018010Y-78203151D01*
X145012900Y-78100677D01*
X145005220Y-77969562D01*
X144994768Y-77805856D01*
X144981342Y-77605606D01*
X144964738Y-77364861D01*
X144944756Y-77079670D01*
X144921191Y-76746081D01*
X144914725Y-76654773D01*
X144899239Y-76434815D01*
X144885037Y-76230489D01*
X144872553Y-76048247D01*
X144862223Y-75894546D01*
X144854481Y-75775839D01*
X144849761Y-75698581D01*
X144848450Y-75670418D01*
X144861485Y-75635323D01*
X144909091Y-75628866D01*
X144921181Y-75630066D01*
X144932787Y-75630483D01*
X144942818Y-75630391D01*
X144952921Y-75632296D01*
X144964741Y-75638704D01*
X144979927Y-75652120D01*
X145000122Y-75675050D01*
X145026976Y-75709997D01*
X145062132Y-75759469D01*
X145107239Y-75825970D01*
X145163943Y-75912005D01*
X145233889Y-76020080D01*
X145318725Y-76152700D01*
X145420096Y-76312370D01*
X145539650Y-76501597D01*
X145679032Y-76722884D01*
X145839889Y-76978737D01*
X146023868Y-77271663D01*
X146232614Y-77604165D01*
X146467775Y-77978750D01*
X146534454Y-78084947D01*
X146778196Y-78472947D01*
X146995301Y-78818081D01*
X147187414Y-79122867D01*
X147356176Y-79389823D01*
X147503232Y-79621467D01*
X147630224Y-79820317D01*
X147738796Y-79988890D01*
X147830592Y-80129705D01*
X147907253Y-80245280D01*
X147970425Y-80338132D01*
X148021749Y-80410779D01*
X148062869Y-80465740D01*
X148095429Y-80505532D01*
X148121072Y-80532673D01*
X148141441Y-80549681D01*
X148144265Y-80551594D01*
X148224311Y-80589095D01*
X148295394Y-80596812D01*
X148333152Y-80580386D01*
X148348211Y-80550157D01*
X148346834Y-80501451D01*
X148337535Y-80467362D01*
X148244029Y-80467362D01*
X148242835Y-80480606D01*
X148236877Y-80482504D01*
X148222598Y-80467943D01*
X148196435Y-80431809D01*
X148154829Y-80368989D01*
X148094219Y-80274369D01*
X148011046Y-80142836D01*
X147944215Y-80036737D01*
X147893044Y-79954743D01*
X147816819Y-79831603D01*
X147718309Y-79671832D01*
X147600286Y-79479947D01*
X147465520Y-79260463D01*
X147316784Y-79017897D01*
X147156848Y-78756766D01*
X146988483Y-78481585D01*
X146901301Y-78338947D01*
X146800240Y-78338947D01*
X146786871Y-78352316D01*
X146773503Y-78338947D01*
X146786871Y-78325579D01*
X146800240Y-78338947D01*
X146901301Y-78338947D01*
X146852275Y-78258737D01*
X146746766Y-78258737D01*
X146733398Y-78272105D01*
X146720029Y-78258737D01*
X146733398Y-78245368D01*
X146746766Y-78258737D01*
X146852275Y-78258737D01*
X146826698Y-78216891D01*
X146713474Y-78216891D01*
X146709817Y-78218632D01*
X146685417Y-78199809D01*
X146679924Y-78191895D01*
X146673111Y-78166899D01*
X146676768Y-78165158D01*
X146701168Y-78183980D01*
X146706661Y-78191895D01*
X146713474Y-78216891D01*
X146826698Y-78216891D01*
X146814460Y-78196870D01*
X146770608Y-78125053D01*
X146666555Y-78125053D01*
X146653187Y-78138421D01*
X146639819Y-78125053D01*
X146653187Y-78111684D01*
X146666555Y-78125053D01*
X146770608Y-78125053D01*
X146721630Y-78044842D01*
X146613082Y-78044842D01*
X146599713Y-78058211D01*
X146586345Y-78044842D01*
X146599713Y-78031474D01*
X146613082Y-78044842D01*
X146721630Y-78044842D01*
X146696079Y-78002996D01*
X146579790Y-78002996D01*
X146576132Y-78004737D01*
X146551733Y-77985915D01*
X146546240Y-77978000D01*
X146539427Y-77953004D01*
X146543084Y-77951263D01*
X146567483Y-77970085D01*
X146572976Y-77978000D01*
X146579790Y-78002996D01*
X146696079Y-78002996D01*
X146648163Y-77924526D01*
X146640008Y-77911158D01*
X146532871Y-77911158D01*
X146519503Y-77924526D01*
X146506134Y-77911158D01*
X146519503Y-77897790D01*
X146532871Y-77911158D01*
X146640008Y-77911158D01*
X146614478Y-77869312D01*
X146499579Y-77869312D01*
X146495922Y-77871053D01*
X146471522Y-77852230D01*
X146466029Y-77844316D01*
X146459216Y-77819320D01*
X146462873Y-77817579D01*
X146487273Y-77836401D01*
X146492766Y-77844316D01*
X146499579Y-77869312D01*
X146614478Y-77869312D01*
X146559200Y-77778707D01*
X146443135Y-77778707D01*
X146441174Y-77790842D01*
X146419700Y-77770347D01*
X146399187Y-77737368D01*
X146381976Y-77696030D01*
X146383937Y-77683895D01*
X146405411Y-77704390D01*
X146425924Y-77737368D01*
X146443135Y-77778707D01*
X146559200Y-77778707D01*
X146483981Y-77655417D01*
X146365895Y-77655417D01*
X146362238Y-77657158D01*
X146337838Y-77638336D01*
X146332345Y-77630421D01*
X146325532Y-77605425D01*
X146329189Y-77603684D01*
X146353589Y-77622506D01*
X146359082Y-77630421D01*
X146365895Y-77655417D01*
X146483981Y-77655417D01*
X146428703Y-77564812D01*
X146309451Y-77564812D01*
X146307489Y-77576947D01*
X146286016Y-77556452D01*
X146265503Y-77523474D01*
X146248292Y-77482135D01*
X146250253Y-77470000D01*
X146271726Y-77490496D01*
X146292240Y-77523474D01*
X146309451Y-77564812D01*
X146428703Y-77564812D01*
X146394551Y-77508835D01*
X146345376Y-77428156D01*
X146227878Y-77428156D01*
X146221609Y-77431632D01*
X146219649Y-77429895D01*
X146198689Y-77401265D01*
X146153195Y-77333009D01*
X146086883Y-77230906D01*
X146003467Y-77100731D01*
X145906662Y-76948264D01*
X145800183Y-76779281D01*
X145755491Y-76708000D01*
X145583176Y-76432522D01*
X145437475Y-76198959D01*
X145316417Y-76004035D01*
X145218031Y-75844475D01*
X145140345Y-75717000D01*
X145081388Y-75618335D01*
X145039190Y-75545205D01*
X145011778Y-75494331D01*
X144997181Y-75462439D01*
X144993429Y-75446251D01*
X144994596Y-75443363D01*
X145018118Y-75439842D01*
X145018468Y-75440228D01*
X145033387Y-75463980D01*
X145072746Y-75527893D01*
X145133178Y-75626451D01*
X145211318Y-75754140D01*
X145303800Y-75905444D01*
X145407259Y-76074847D01*
X145518330Y-76256833D01*
X145633646Y-76445888D01*
X145749843Y-76636496D01*
X145863554Y-76823142D01*
X145971415Y-77000309D01*
X146070060Y-77162483D01*
X146156124Y-77304147D01*
X146208070Y-77389790D01*
X146227878Y-77428156D01*
X146345376Y-77428156D01*
X146167839Y-77136884D01*
X145966946Y-76806841D01*
X145790793Y-76516878D01*
X145638300Y-76265164D01*
X145508386Y-76049868D01*
X145399972Y-75869161D01*
X145311979Y-75721213D01*
X145243325Y-75604193D01*
X145192930Y-75516271D01*
X145159716Y-75455618D01*
X145142602Y-75420403D01*
X145140508Y-75408795D01*
X145152353Y-75418965D01*
X145177059Y-75449083D01*
X145213545Y-75497318D01*
X145225079Y-75512943D01*
X145275334Y-75576385D01*
X145314474Y-75617067D01*
X145328015Y-75625158D01*
X145359626Y-75610647D01*
X145418305Y-75573499D01*
X145461167Y-75543490D01*
X145573907Y-75461821D01*
X145547113Y-75416408D01*
X145442985Y-75416408D01*
X145436240Y-75447381D01*
X145417908Y-75470686D01*
X145377002Y-75507620D01*
X145354814Y-75518211D01*
X145329855Y-75498152D01*
X145285095Y-75445974D01*
X145238687Y-75384526D01*
X145179185Y-75317684D01*
X145035608Y-75317684D01*
X145022240Y-75331053D01*
X145008871Y-75317684D01*
X145022240Y-75304316D01*
X145035608Y-75317684D01*
X145179185Y-75317684D01*
X145155997Y-75291637D01*
X145075975Y-75250647D01*
X144993803Y-75260508D01*
X144912312Y-75313466D01*
X144865665Y-75357634D01*
X144855882Y-75389734D01*
X144878166Y-75431220D01*
X144884084Y-75439730D01*
X144916402Y-75492376D01*
X144928661Y-75524160D01*
X144903448Y-75531318D01*
X144833903Y-75537410D01*
X144729163Y-75541975D01*
X144598365Y-75544548D01*
X144518425Y-75544947D01*
X144108189Y-75544947D01*
X143997057Y-75413151D01*
X143985388Y-75398419D01*
X143799404Y-75398419D01*
X143772425Y-75429285D01*
X143747388Y-75438000D01*
X143736610Y-75422724D01*
X143752776Y-75397249D01*
X143785470Y-75369220D01*
X143798832Y-75368733D01*
X143799404Y-75398419D01*
X143985388Y-75398419D01*
X143945842Y-75348497D01*
X143911507Y-75289838D01*
X143892016Y-75225475D01*
X143885337Y-75143710D01*
X143889437Y-75032846D01*
X143902282Y-74881184D01*
X143903093Y-74872580D01*
X143919882Y-74694844D01*
X144237113Y-74675783D01*
X144405697Y-74669455D01*
X144597901Y-74668118D01*
X144784104Y-74671760D01*
X144875187Y-74676000D01*
X145196029Y-74695277D01*
X145196029Y-74864534D01*
X145192101Y-74954998D01*
X145181865Y-75022533D01*
X145169292Y-75050316D01*
X145141785Y-75088459D01*
X145158085Y-75129382D01*
X145211370Y-75158652D01*
X145221628Y-75161046D01*
X145290899Y-75193820D01*
X145359200Y-75268397D01*
X145380809Y-75300011D01*
X145425620Y-75372400D01*
X145442985Y-75416408D01*
X145547113Y-75416408D01*
X145522136Y-75374076D01*
X145473951Y-75294504D01*
X145427914Y-75221552D01*
X145425816Y-75218341D01*
X145398101Y-75168833D01*
X145402802Y-75144535D01*
X145420250Y-75135393D01*
X145439929Y-75144164D01*
X145472363Y-75183469D01*
X145519590Y-75256706D01*
X145583648Y-75367271D01*
X145666576Y-75518561D01*
X145770412Y-75713974D01*
X145791323Y-75753796D01*
X145856207Y-75877542D01*
X145943290Y-76043627D01*
X146049941Y-76247030D01*
X146173527Y-76482733D01*
X146311417Y-76745715D01*
X146460979Y-77030956D01*
X146619579Y-77333437D01*
X146784587Y-77648138D01*
X146953371Y-77970040D01*
X147123297Y-78294121D01*
X147183721Y-78409360D01*
X147343842Y-78715150D01*
X147496620Y-79007716D01*
X147640248Y-79283552D01*
X147772921Y-79539149D01*
X147892830Y-79771002D01*
X147998168Y-79975601D01*
X148087128Y-80149440D01*
X148157904Y-80289011D01*
X148208688Y-80390807D01*
X148237672Y-80451320D01*
X148244029Y-80467362D01*
X148337535Y-80467362D01*
X148327146Y-80429284D01*
X148287272Y-80328667D01*
X148225339Y-80194616D01*
X148139474Y-80022143D01*
X148079484Y-79905465D01*
X148025524Y-79801688D01*
X147948799Y-79654611D01*
X147851423Y-79468265D01*
X147735511Y-79246684D01*
X147603176Y-78993899D01*
X147456533Y-78713944D01*
X147297697Y-78410850D01*
X147128782Y-78088650D01*
X146951902Y-77751378D01*
X146769172Y-77403064D01*
X146582705Y-77047742D01*
X146394617Y-76689444D01*
X146207022Y-76332203D01*
X146022034Y-75980050D01*
X145841767Y-75637020D01*
X145698258Y-75364044D01*
X145617534Y-75213668D01*
X145553986Y-75105062D01*
X145501933Y-75031654D01*
X145455693Y-74986873D01*
X145409584Y-74964148D01*
X145357925Y-74956906D01*
X145346115Y-74956737D01*
X145309187Y-74953181D01*
X145288116Y-74934322D01*
X145277368Y-74887874D01*
X145271407Y-74801549D01*
X145270831Y-74789632D01*
X145262871Y-74622526D01*
X144942029Y-74595790D01*
X144925656Y-74390494D01*
X144832337Y-74390494D01*
X144829597Y-74498174D01*
X144824521Y-74575737D01*
X144806581Y-74591903D01*
X144752026Y-74602383D01*
X144654901Y-74607878D01*
X144540986Y-74609158D01*
X144260258Y-74609158D01*
X144260967Y-74596124D01*
X144061505Y-74596124D01*
X144039324Y-74607360D01*
X143991689Y-74609158D01*
X143935611Y-74607192D01*
X143914205Y-74602382D01*
X143914889Y-74601592D01*
X143942980Y-74580984D01*
X143969271Y-74561157D01*
X144011243Y-74542856D01*
X144046071Y-74568723D01*
X144061505Y-74596124D01*
X144260967Y-74596124D01*
X144271866Y-74396017D01*
X144282443Y-74229577D01*
X144294706Y-74108045D01*
X144310780Y-74022853D01*
X144313529Y-74015681D01*
X144236210Y-74015681D01*
X144219341Y-74225525D01*
X144207237Y-74359091D01*
X144195827Y-74445489D01*
X144184060Y-74490995D01*
X144172994Y-74502211D01*
X144153598Y-74482719D01*
X144118070Y-74439635D01*
X143965945Y-74439635D01*
X143955352Y-74462577D01*
X143913349Y-74505448D01*
X143885924Y-74528947D01*
X143817728Y-74579945D01*
X143786702Y-74594209D01*
X143795264Y-74574158D01*
X143845832Y-74522209D01*
X143863300Y-74506324D01*
X143919403Y-74461194D01*
X143958038Y-74439310D01*
X143965945Y-74439635D01*
X144118070Y-74439635D01*
X144111707Y-74431920D01*
X144063048Y-74369466D01*
X144012265Y-74297117D01*
X143980766Y-74240812D01*
X143975144Y-74215157D01*
X144002784Y-74188742D01*
X144060110Y-74143218D01*
X144112341Y-74104637D01*
X144236210Y-74015681D01*
X144313529Y-74015681D01*
X144332793Y-73965437D01*
X144362869Y-73927231D01*
X144393747Y-73904989D01*
X144503800Y-73864408D01*
X144616562Y-73863592D01*
X144715232Y-73901224D01*
X144753184Y-73933127D01*
X144798448Y-73994429D01*
X144809750Y-74057811D01*
X144804323Y-74106917D01*
X144799677Y-74171184D01*
X144808116Y-74206039D01*
X144812725Y-74208105D01*
X144823489Y-74232643D01*
X144830163Y-74297711D01*
X144832337Y-74390494D01*
X144925656Y-74390494D01*
X144922837Y-74355158D01*
X144914593Y-74239602D01*
X144913258Y-74164867D01*
X144920408Y-74118566D01*
X144937620Y-74088315D01*
X144959425Y-74067571D01*
X144992185Y-74043667D01*
X145019980Y-74042268D01*
X145055522Y-74069139D01*
X145111522Y-74130048D01*
X145121093Y-74140910D01*
X145185589Y-74208858D01*
X145230018Y-74239711D01*
X145265064Y-74240122D01*
X145273909Y-74236090D01*
X145297508Y-74232331D01*
X145329117Y-74247484D01*
X145374336Y-74286740D01*
X145438764Y-74355289D01*
X145528000Y-74458321D01*
X145579275Y-74519147D01*
X145669856Y-74629873D01*
X145746570Y-74728820D01*
X145803322Y-74807717D01*
X145834019Y-74858297D01*
X145837713Y-74869870D01*
X145854680Y-74921939D01*
X145882379Y-74961777D01*
X145907978Y-74996464D01*
X145904734Y-75027255D01*
X145868386Y-75072201D01*
X145852307Y-75089142D01*
X145808119Y-75145572D01*
X145792908Y-75200658D01*
X145808952Y-75264449D01*
X145858533Y-75346995D01*
X145932958Y-75444684D01*
X146018695Y-75540067D01*
X146091852Y-75589489D01*
X146162421Y-75595467D01*
X146240391Y-75560517D01*
X146280415Y-75532214D01*
X146337966Y-75492844D01*
X146368656Y-75487028D01*
X146382363Y-75505477D01*
X146419446Y-75537064D01*
X146482792Y-75542513D01*
X146551807Y-75521458D01*
X146572015Y-75508851D01*
X146605288Y-75468252D01*
X146609704Y-75405343D01*
X146605977Y-75377841D01*
X146602866Y-75302695D01*
X146630352Y-75247915D01*
X146655302Y-75222118D01*
X146700584Y-75164341D01*
X146720016Y-75109322D01*
X146720029Y-75108243D01*
X146718829Y-75104596D01*
X146639819Y-75104596D01*
X146619711Y-75137501D01*
X146566327Y-75192751D01*
X146490070Y-75261849D01*
X146401346Y-75336299D01*
X146310561Y-75407604D01*
X146228120Y-75467266D01*
X146164428Y-75506789D01*
X146133306Y-75518211D01*
X146092675Y-75498009D01*
X146034262Y-75444855D01*
X145974649Y-75375372D01*
X145918749Y-75298940D01*
X145879093Y-75237128D01*
X145864450Y-75203958D01*
X145883568Y-75176114D01*
X145934303Y-75123519D01*
X146006729Y-75055087D01*
X146090919Y-74979734D01*
X146176945Y-74906376D01*
X146203774Y-74884878D01*
X146089465Y-74884878D01*
X146074058Y-74921797D01*
X146044384Y-74942834D01*
X146007795Y-74924832D01*
X145993469Y-74912409D01*
X145959688Y-74874892D01*
X145966444Y-74845368D01*
X145985568Y-74824840D01*
X146021337Y-74798131D01*
X146049695Y-74813348D01*
X146066158Y-74834227D01*
X146089465Y-74884878D01*
X146203774Y-74884878D01*
X146254880Y-74843928D01*
X146307793Y-74805794D01*
X146362916Y-74781640D01*
X146399234Y-74782977D01*
X146437662Y-74818116D01*
X146490943Y-74880066D01*
X146548336Y-74954471D01*
X146599103Y-75026973D01*
X146632503Y-75083216D01*
X146639819Y-75104596D01*
X146718829Y-75104596D01*
X146703017Y-75056569D01*
X146658859Y-74980735D01*
X146597869Y-74894736D01*
X146530365Y-74812570D01*
X146466661Y-74748234D01*
X146438848Y-74726724D01*
X146393001Y-74701622D01*
X146353384Y-74701561D01*
X146297523Y-74728436D01*
X146277024Y-74740389D01*
X146180901Y-74797103D01*
X146143108Y-74765710D01*
X145943771Y-74765710D01*
X145928838Y-74761513D01*
X145892244Y-74727312D01*
X145830828Y-74659907D01*
X145741428Y-74556104D01*
X145661412Y-74461154D01*
X145572394Y-74353112D01*
X145498415Y-74259802D01*
X145445104Y-74188608D01*
X145418089Y-74146917D01*
X145416229Y-74139414D01*
X145436447Y-74154191D01*
X145483309Y-74201740D01*
X145549446Y-74273571D01*
X145627489Y-74361196D01*
X145710070Y-74456124D01*
X145789820Y-74549866D01*
X145859370Y-74633931D01*
X145911352Y-74699831D01*
X145938396Y-74739075D01*
X145940205Y-74743098D01*
X145943771Y-74765710D01*
X146143108Y-74765710D01*
X146074774Y-74708948D01*
X146017046Y-74654949D01*
X145935528Y-74570714D01*
X145840507Y-74467219D01*
X145742267Y-74355439D01*
X145729841Y-74340923D01*
X145635016Y-74229358D01*
X145570827Y-74151133D01*
X145533192Y-74098914D01*
X145521598Y-74073266D01*
X145370533Y-74073266D01*
X145333883Y-74098207D01*
X145282048Y-74075652D01*
X145214067Y-74006356D01*
X145165598Y-73933077D01*
X145159479Y-73883426D01*
X145195830Y-73861309D01*
X145209615Y-73860526D01*
X145248612Y-73880241D01*
X145296560Y-73928291D01*
X145340869Y-73988031D01*
X145368950Y-74042818D01*
X145370533Y-74073266D01*
X145521598Y-74073266D01*
X145518028Y-74065370D01*
X145521254Y-74043171D01*
X145538786Y-74024983D01*
X145549375Y-74016822D01*
X145602223Y-73976755D01*
X145464790Y-73976755D01*
X145464499Y-73977067D01*
X145431946Y-73977324D01*
X145377553Y-73932469D01*
X145341245Y-73892364D01*
X145285379Y-73830620D01*
X145242825Y-73789982D01*
X145227367Y-73780449D01*
X145196524Y-73795742D01*
X145143794Y-73833213D01*
X145133196Y-73841559D01*
X145056995Y-73902537D01*
X145153249Y-74017746D01*
X145215714Y-74096486D01*
X145244016Y-74140100D01*
X145239041Y-74146369D01*
X145201675Y-74113072D01*
X145141297Y-74047684D01*
X145035372Y-73927368D01*
X144955279Y-73972914D01*
X144899103Y-73999403D01*
X144876595Y-73993545D01*
X144875187Y-73984259D01*
X144852607Y-73935334D01*
X144793478Y-73877410D01*
X144710717Y-73821797D01*
X144661292Y-73796950D01*
X144567713Y-73755410D01*
X144669046Y-73771039D01*
X144754306Y-73773753D01*
X144814323Y-73746463D01*
X144822783Y-73739243D01*
X144867521Y-73670947D01*
X144870398Y-73626640D01*
X144787699Y-73626640D01*
X144768441Y-73659757D01*
X144720762Y-73691207D01*
X144681088Y-73674151D01*
X144666000Y-73637651D01*
X144678380Y-73593940D01*
X144719719Y-73571864D01*
X144766650Y-73582039D01*
X144774251Y-73588475D01*
X144787699Y-73626640D01*
X144870398Y-73626640D01*
X144872353Y-73596536D01*
X144842218Y-73531622D01*
X144782055Y-73491818D01*
X144742728Y-73486211D01*
X144693355Y-73477302D01*
X144643395Y-73444840D01*
X144581629Y-73380223D01*
X144542257Y-73332474D01*
X144418890Y-73178737D01*
X144545247Y-73065806D01*
X144611024Y-73008515D01*
X144658498Y-72969993D01*
X144676562Y-72958858D01*
X144872600Y-73196063D01*
X145036259Y-73395439D01*
X145169797Y-73559903D01*
X145275469Y-73692369D01*
X145355531Y-73795752D01*
X145412238Y-73872967D01*
X145447847Y-73926929D01*
X145464612Y-73960554D01*
X145464790Y-73976755D01*
X145602223Y-73976755D01*
X145607716Y-73972591D01*
X145502437Y-73843032D01*
X145451307Y-73780483D01*
X145373748Y-73686073D01*
X145277439Y-73569125D01*
X145170058Y-73438963D01*
X145068849Y-73316481D01*
X144740539Y-72919489D01*
X144854653Y-72818111D01*
X144918064Y-72759816D01*
X144946558Y-72723388D01*
X144946236Y-72711133D01*
X144841972Y-72711133D01*
X144841624Y-72713735D01*
X144817426Y-72740901D01*
X144760032Y-72793787D01*
X144677719Y-72865574D01*
X144578764Y-72949445D01*
X144471444Y-73038581D01*
X144364034Y-73126166D01*
X144264812Y-73205380D01*
X144182055Y-73269407D01*
X144124038Y-73311427D01*
X144099819Y-73324796D01*
X144074284Y-73307433D01*
X144051450Y-73285684D01*
X143939398Y-73285684D01*
X143926029Y-73299053D01*
X143912661Y-73285684D01*
X143926029Y-73272316D01*
X143939398Y-73285684D01*
X144051450Y-73285684D01*
X144029658Y-73264928D01*
X144023824Y-73258836D01*
X144007787Y-73241927D01*
X143798871Y-73241927D01*
X143782099Y-73281808D01*
X143778183Y-73286641D01*
X143768453Y-73300427D01*
X143760271Y-73310980D01*
X143749927Y-73314526D01*
X143733714Y-73307288D01*
X143707924Y-73285494D01*
X143668849Y-73245367D01*
X143612780Y-73183134D01*
X143536010Y-73095019D01*
X143434831Y-72977249D01*
X143305534Y-72826047D01*
X143169921Y-72667448D01*
X143018016Y-72488605D01*
X142899705Y-72346161D01*
X142812587Y-72236965D01*
X142754265Y-72157869D01*
X142722339Y-72105722D01*
X142714411Y-72077376D01*
X142716803Y-72072553D01*
X142753115Y-72045716D01*
X142764266Y-72042421D01*
X142785220Y-72062026D01*
X142836844Y-72117801D01*
X142915159Y-72205189D01*
X143016183Y-72319634D01*
X143135937Y-72456578D01*
X143270440Y-72611463D01*
X143415712Y-72779731D01*
X143567773Y-72956827D01*
X143722643Y-73138192D01*
X143773761Y-73198288D01*
X143798871Y-73241927D01*
X144007787Y-73241927D01*
X143961197Y-73192807D01*
X144037192Y-73128924D01*
X144084774Y-73089016D01*
X144163753Y-73022871D01*
X144264500Y-72938550D01*
X144377387Y-72844115D01*
X144420661Y-72807925D01*
X144728134Y-72550808D01*
X144788151Y-72624141D01*
X144826302Y-72676900D01*
X144841972Y-72711133D01*
X144946236Y-72711133D01*
X144945836Y-72695912D01*
X144922182Y-72665119D01*
X144895138Y-72629552D01*
X144897363Y-72599960D01*
X144933310Y-72558418D01*
X144953586Y-72538789D01*
X144955046Y-72537053D01*
X144848450Y-72537053D01*
X144835082Y-72550421D01*
X144821713Y-72537053D01*
X144835082Y-72523684D01*
X144848450Y-72537053D01*
X144955046Y-72537053D01*
X144999816Y-72483847D01*
X145006853Y-72467550D01*
X144714766Y-72467550D01*
X144695263Y-72489844D01*
X144641806Y-72539452D01*
X144561976Y-72610006D01*
X144463351Y-72695140D01*
X144353512Y-72788486D01*
X144240037Y-72883676D01*
X144130506Y-72974342D01*
X144032499Y-73054118D01*
X143953595Y-73116636D01*
X143901374Y-73155528D01*
X143884121Y-73165368D01*
X143862931Y-73145901D01*
X143811754Y-73091018D01*
X143735292Y-73006002D01*
X143638247Y-72896133D01*
X143525322Y-72766692D01*
X143402035Y-72623911D01*
X143249831Y-72446929D01*
X143128926Y-72306261D01*
X143036011Y-72197459D01*
X142967777Y-72116072D01*
X142920916Y-72057651D01*
X142892117Y-72017745D01*
X142878073Y-71991906D01*
X142875475Y-71975683D01*
X142881013Y-71964627D01*
X142891379Y-71954288D01*
X142898447Y-71946689D01*
X142929826Y-71916930D01*
X142995675Y-71859953D01*
X143088676Y-71781903D01*
X143201511Y-71688928D01*
X143319669Y-71592970D01*
X143705820Y-71281508D01*
X143798778Y-71387912D01*
X143983266Y-71599671D01*
X144153646Y-71796383D01*
X144306961Y-71974565D01*
X144440257Y-72130732D01*
X144550576Y-72261400D01*
X144634963Y-72363084D01*
X144690461Y-72432301D01*
X144714116Y-72465566D01*
X144714766Y-72467550D01*
X145006853Y-72467550D01*
X145019370Y-72438565D01*
X145018338Y-72429579D01*
X145015433Y-72421190D01*
X145015667Y-72411937D01*
X145022248Y-72399076D01*
X145038386Y-72379864D01*
X145053226Y-72365331D01*
X144871898Y-72365331D01*
X144870639Y-72382112D01*
X144830139Y-72413764D01*
X144791386Y-72397894D01*
X144764817Y-72366118D01*
X144738068Y-72333011D01*
X144681243Y-72265324D01*
X144599301Y-72168875D01*
X144497203Y-72049479D01*
X144379908Y-71912955D01*
X144252377Y-71765118D01*
X144249999Y-71762366D01*
X144106802Y-71596049D01*
X143995723Y-71465146D01*
X143913367Y-71365096D01*
X143856338Y-71291337D01*
X143821241Y-71239306D01*
X143804680Y-71204441D01*
X143803260Y-71182179D01*
X143809959Y-71171138D01*
X143824720Y-71164575D01*
X143847152Y-71171786D01*
X143881023Y-71196575D01*
X143930102Y-71242746D01*
X143998156Y-71314102D01*
X144088953Y-71414448D01*
X144206262Y-71547588D01*
X144353851Y-71717326D01*
X144373715Y-71740265D01*
X144531163Y-71923217D01*
X144655288Y-72070066D01*
X144748757Y-72184256D01*
X144814236Y-72269234D01*
X144854394Y-72328444D01*
X144871898Y-72365331D01*
X145053226Y-72365331D01*
X145067291Y-72351557D01*
X145112172Y-72311414D01*
X145176238Y-72256689D01*
X145262700Y-72184642D01*
X145374766Y-72092527D01*
X145515647Y-71977602D01*
X145688551Y-71837125D01*
X145896688Y-71668351D01*
X146133420Y-71476517D01*
X146316751Y-71327494D01*
X146489635Y-71186069D01*
X146647029Y-71056434D01*
X146783888Y-70942782D01*
X146895168Y-70849305D01*
X146975824Y-70780196D01*
X147020811Y-70739649D01*
X147024841Y-70735592D01*
X147102391Y-70654150D01*
X147075744Y-70584374D01*
X146987398Y-70584374D01*
X146965406Y-70596781D01*
X146944175Y-70598632D01*
X146913482Y-70613819D01*
X146913602Y-70664798D01*
X146913588Y-70686835D01*
X146902634Y-70713172D01*
X146876531Y-70747777D01*
X146831072Y-70794615D01*
X146762049Y-70857652D01*
X146665253Y-70940854D01*
X146536477Y-71048185D01*
X146371512Y-71183613D01*
X146308456Y-71235113D01*
X146027576Y-71463756D01*
X145776585Y-71666901D01*
X145557026Y-71843331D01*
X145370438Y-71991828D01*
X145218364Y-72111177D01*
X145102343Y-72200160D01*
X145023917Y-72257561D01*
X144984627Y-72282162D01*
X144981306Y-72283053D01*
X144958742Y-72263610D01*
X144906129Y-72208762D01*
X144828190Y-72123729D01*
X144729646Y-72013732D01*
X144615217Y-71883993D01*
X144489627Y-71739731D01*
X144482831Y-71731874D01*
X144355568Y-71584447D01*
X144238628Y-71448507D01*
X144136940Y-71329824D01*
X144055433Y-71234163D01*
X143999037Y-71167294D01*
X143972681Y-71134982D01*
X143972559Y-71134817D01*
X143961959Y-71110614D01*
X143970510Y-71082631D01*
X144004314Y-71043658D01*
X144069473Y-70986489D01*
X144159717Y-70913718D01*
X144288106Y-70809969D01*
X144378108Y-70731995D01*
X144434786Y-70674401D01*
X144463201Y-70631793D01*
X144468418Y-70598776D01*
X144465478Y-70587901D01*
X144478704Y-70549648D01*
X144537032Y-70483249D01*
X144640556Y-70388598D01*
X144675371Y-70358941D01*
X144776282Y-70275511D01*
X144845976Y-70222997D01*
X144861678Y-70214154D01*
X144697833Y-70214154D01*
X144667819Y-70255905D01*
X144647924Y-70277790D01*
X144581328Y-70338918D01*
X144540651Y-70356906D01*
X144527608Y-70333204D01*
X144547644Y-70300127D01*
X144594860Y-70256189D01*
X144649921Y-70216903D01*
X144693492Y-70197785D01*
X144696637Y-70197579D01*
X144697833Y-70214154D01*
X144861678Y-70214154D01*
X144892973Y-70196531D01*
X144925791Y-70191246D01*
X144951336Y-70201247D01*
X144982938Y-70213194D01*
X145020589Y-70205364D01*
X145075405Y-70172738D01*
X145158501Y-70110297D01*
X145166276Y-70104199D01*
X145244471Y-70044935D01*
X145305092Y-70003061D01*
X145337461Y-69985837D01*
X145339860Y-69986199D01*
X145357072Y-70013465D01*
X145392288Y-70073563D01*
X145431223Y-70141751D01*
X145513015Y-70286449D01*
X145428127Y-70328909D01*
X145368585Y-70369692D01*
X145335819Y-70412954D01*
X145334663Y-70417390D01*
X145344603Y-70469024D01*
X145380637Y-70539383D01*
X145431417Y-70612598D01*
X145485597Y-70672801D01*
X145531827Y-70704121D01*
X145540749Y-70705579D01*
X145594090Y-70724311D01*
X145637391Y-70759279D01*
X145675395Y-70794499D01*
X145709728Y-70794746D01*
X145755167Y-70768948D01*
X145803643Y-70736057D01*
X145885996Y-70678026D01*
X145993058Y-70601433D01*
X146115657Y-70512862D01*
X146244623Y-70418891D01*
X146317194Y-70365635D01*
X146311908Y-70343803D01*
X146153814Y-70343803D01*
X146127545Y-70379398D01*
X146067721Y-70432711D01*
X145987100Y-70494733D01*
X145898439Y-70556453D01*
X145814496Y-70608860D01*
X145748031Y-70642944D01*
X145718734Y-70651075D01*
X145684509Y-70645089D01*
X145697430Y-70621272D01*
X145713810Y-70574196D01*
X145702972Y-70544201D01*
X145584095Y-70544201D01*
X145582487Y-70573879D01*
X145548595Y-70593544D01*
X145504093Y-70561656D01*
X145468781Y-70511559D01*
X145441753Y-70446353D01*
X145452360Y-70411816D01*
X145482583Y-70412478D01*
X145523150Y-70445394D01*
X145561255Y-70494618D01*
X145584095Y-70544201D01*
X145702972Y-70544201D01*
X145701837Y-70541062D01*
X145690675Y-70508792D01*
X145711263Y-70494759D01*
X145774370Y-70491684D01*
X145774892Y-70491684D01*
X145867545Y-70473404D01*
X145944584Y-70426089D01*
X145991036Y-70361032D01*
X145998134Y-70323329D01*
X145998834Y-70319550D01*
X145915050Y-70319550D01*
X145911440Y-70346185D01*
X145879429Y-70381245D01*
X145837414Y-70407286D01*
X145818109Y-70411474D01*
X145802908Y-70400366D01*
X145834402Y-70366105D01*
X145841436Y-70360302D01*
X145888661Y-70327464D01*
X145914852Y-70319372D01*
X145915050Y-70319550D01*
X145998834Y-70319550D01*
X146004679Y-70288002D01*
X146032245Y-70299654D01*
X146037899Y-70304244D01*
X146091376Y-70324542D01*
X146120052Y-70320980D01*
X146152461Y-70321187D01*
X146153814Y-70343803D01*
X146311908Y-70343803D01*
X146311678Y-70342854D01*
X146297141Y-70325470D01*
X146272185Y-70275246D01*
X146265503Y-70228566D01*
X146251811Y-70184261D01*
X146247973Y-70176790D01*
X146145841Y-70176790D01*
X146144833Y-70198152D01*
X146121083Y-70221517D01*
X146091068Y-70208569D01*
X146064280Y-70179530D01*
X145862870Y-70179530D01*
X145837664Y-70260199D01*
X145820201Y-70282368D01*
X145751532Y-70324983D01*
X145676629Y-70321958D01*
X145613661Y-70274211D01*
X145611966Y-70271840D01*
X145575855Y-70209383D01*
X145578952Y-70177684D01*
X145608399Y-70170842D01*
X145652228Y-70154652D01*
X145712766Y-70114568D01*
X145727189Y-70102907D01*
X145779944Y-70060884D01*
X145808241Y-70051653D01*
X145828043Y-70072999D01*
X145836188Y-70087781D01*
X145862870Y-70179530D01*
X146064280Y-70179530D01*
X146050099Y-70164158D01*
X146005769Y-70093273D01*
X146005217Y-70042149D01*
X146020619Y-70026417D01*
X146049473Y-70035570D01*
X146088459Y-70075432D01*
X146124831Y-70128380D01*
X146145841Y-70176790D01*
X146247973Y-70176790D01*
X146217000Y-70116513D01*
X146170467Y-70039970D01*
X146121610Y-69969278D01*
X146079826Y-69919083D01*
X146056926Y-69903474D01*
X146030431Y-69917397D01*
X145979038Y-69951559D01*
X145969865Y-69958039D01*
X145893236Y-70012604D01*
X145847726Y-69940137D01*
X145730766Y-69940137D01*
X145710095Y-70009361D01*
X145658359Y-70060628D01*
X145590970Y-70088224D01*
X145523340Y-70086434D01*
X145470883Y-70049544D01*
X145464338Y-70038916D01*
X145439982Y-69984301D01*
X145449045Y-69961235D01*
X145486230Y-69956947D01*
X145538884Y-69939600D01*
X145599920Y-69897428D01*
X145604433Y-69893340D01*
X145666211Y-69854206D01*
X145709752Y-69863805D01*
X145729956Y-69920246D01*
X145730766Y-69940137D01*
X145847726Y-69940137D01*
X145829584Y-69911249D01*
X145765792Y-69808842D01*
X145744772Y-69769657D01*
X145632339Y-69769657D01*
X145607221Y-69808239D01*
X145562690Y-69851539D01*
X145511451Y-69887334D01*
X145466208Y-69903403D01*
X145463744Y-69903474D01*
X145435312Y-69899025D01*
X145440076Y-69880223D01*
X145481837Y-69838885D01*
X145502125Y-69820886D01*
X145563675Y-69773782D01*
X145611894Y-69749019D01*
X145625340Y-69748016D01*
X145632339Y-69769657D01*
X145744772Y-69769657D01*
X145728915Y-69740098D01*
X145718384Y-69692809D01*
X145726998Y-69671317D01*
X145572935Y-69671317D01*
X145554497Y-69696305D01*
X145509345Y-69740303D01*
X145453104Y-69789656D01*
X145401399Y-69830713D01*
X145369857Y-69849822D01*
X145368428Y-69850000D01*
X145352452Y-69828811D01*
X145319336Y-69774368D01*
X145291894Y-69726317D01*
X145248434Y-69647521D01*
X145228647Y-69604564D01*
X145230184Y-69586574D01*
X145250692Y-69582678D01*
X145260820Y-69582632D01*
X145304720Y-69566442D01*
X145365176Y-69526394D01*
X145379067Y-69515153D01*
X145415381Y-69484597D01*
X145213854Y-69484597D01*
X145210184Y-69500492D01*
X145196029Y-69502421D01*
X145174022Y-69492638D01*
X145178205Y-69484597D01*
X145209935Y-69481397D01*
X145213854Y-69484597D01*
X145415381Y-69484597D01*
X145459261Y-69447675D01*
X145515969Y-69548574D01*
X145550951Y-69615383D01*
X145571057Y-69662620D01*
X145572935Y-69671317D01*
X145726998Y-69671317D01*
X145733631Y-69654768D01*
X145774087Y-69613766D01*
X145814121Y-69579327D01*
X145894010Y-69518166D01*
X145953228Y-69492784D01*
X145994320Y-69494224D01*
X146052154Y-69494286D01*
X146077415Y-69477188D01*
X146104348Y-69478919D01*
X146163889Y-69519723D01*
X146256802Y-69600191D01*
X146346565Y-69684724D01*
X146448043Y-69783263D01*
X146515636Y-69852178D01*
X146554342Y-69898549D01*
X146569163Y-69929458D01*
X146565099Y-69951986D01*
X146548980Y-69971395D01*
X146517615Y-70009752D01*
X146526074Y-70039412D01*
X146546942Y-70061030D01*
X146583652Y-70089478D01*
X146608354Y-70077079D01*
X146621315Y-70058679D01*
X146640670Y-70040082D01*
X146664642Y-70048480D01*
X146701108Y-70090230D01*
X146753859Y-70165626D01*
X146811851Y-70255649D01*
X146870966Y-70354145D01*
X146924293Y-70448722D01*
X146964922Y-70526989D01*
X146985941Y-70576556D01*
X146987398Y-70584374D01*
X147075744Y-70584374D01*
X147058376Y-70538899D01*
X147008237Y-70432486D01*
X146931312Y-70299131D01*
X146836336Y-70151870D01*
X146732039Y-70003736D01*
X146627155Y-69867763D01*
X146544632Y-69772096D01*
X146444108Y-69668410D01*
X146338733Y-69567915D01*
X146236973Y-69477824D01*
X146147294Y-69405350D01*
X146078163Y-69357705D01*
X146039793Y-69342000D01*
X146002141Y-69357016D01*
X145935574Y-69396678D01*
X145853468Y-69452908D01*
X145840580Y-69462316D01*
X145759778Y-69519981D01*
X145695402Y-69562564D01*
X145659518Y-69582156D01*
X145657089Y-69582632D01*
X145634059Y-69561615D01*
X145592328Y-69506316D01*
X145540614Y-69428357D01*
X145536757Y-69422211D01*
X145525165Y-69404386D01*
X145294064Y-69404386D01*
X145290394Y-69420281D01*
X145276240Y-69422211D01*
X145254232Y-69412428D01*
X145258415Y-69404386D01*
X145290145Y-69401186D01*
X145294064Y-69404386D01*
X145525165Y-69404386D01*
X145481927Y-69337905D01*
X145441294Y-69289859D01*
X145402281Y-69268043D01*
X145352309Y-69262429D01*
X145336307Y-69262384D01*
X145221962Y-69286084D01*
M02*
