G04 #@! TF.GenerationSoftware,KiCad,Pcbnew,5.1.5-52549c5~84~ubuntu18.04.1*
G04 #@! TF.CreationDate,2019-12-31T14:26:09+01:00*
G04 #@! TF.ProjectId,schema-2.0,73636865-6d61-42d3-922e-302e6b696361,rev?*
G04 #@! TF.SameCoordinates,Original*
G04 #@! TF.FileFunction,Legend,Top*
G04 #@! TF.FilePolarity,Positive*
%FSLAX46Y46*%
G04 Gerber Fmt 4.6, Leading zero omitted, Abs format (unit mm)*
G04 Created by KiCad (PCBNEW 5.1.5-52549c5~84~ubuntu18.04.1) date 2019-12-31 14:26:09*
%MOMM*%
%LPD*%
G04 APERTURE LIST*
%ADD10C,0.300000*%
%ADD11C,0.250000*%
%ADD12C,0.150000*%
%ADD13C,0.500000*%
%ADD14C,0.120000*%
%ADD15C,0.010000*%
%ADD16C,0.070000*%
G04 APERTURE END LIST*
D10*
X158075714Y-101118087D02*
X158790000Y-101118087D01*
X157932857Y-101975229D02*
X158432857Y-98975229D01*
X158932857Y-101975229D01*
X160075714Y-99975229D02*
X160075714Y-101975229D01*
X159718571Y-98832372D02*
X159361428Y-100975229D01*
X160290000Y-100975229D01*
X160932857Y-101975229D02*
X161218571Y-101975229D01*
X161361428Y-101832372D01*
X161432857Y-101689515D01*
X161575714Y-101260944D01*
X161647142Y-100689515D01*
X161647142Y-99546658D01*
X161575714Y-99260944D01*
X161504285Y-99118087D01*
X161361428Y-98975229D01*
X161075714Y-98975229D01*
X160932857Y-99118087D01*
X160861428Y-99260944D01*
X160790000Y-99546658D01*
X160790000Y-100260944D01*
X160861428Y-100546658D01*
X160932857Y-100689515D01*
X161075714Y-100832372D01*
X161361428Y-100832372D01*
X161504285Y-100689515D01*
X161575714Y-100546658D01*
X161647142Y-100260944D01*
X162504285Y-100260944D02*
X162361428Y-100118087D01*
X162290000Y-99975229D01*
X162218571Y-99689515D01*
X162218571Y-99546658D01*
X162290000Y-99260944D01*
X162361428Y-99118087D01*
X162504285Y-98975229D01*
X162790000Y-98975229D01*
X162932857Y-99118087D01*
X163004285Y-99260944D01*
X163075714Y-99546658D01*
X163075714Y-99689515D01*
X163004285Y-99975229D01*
X162932857Y-100118087D01*
X162790000Y-100260944D01*
X162504285Y-100260944D01*
X162361428Y-100403801D01*
X162290000Y-100546658D01*
X162218571Y-100832372D01*
X162218571Y-101403801D01*
X162290000Y-101689515D01*
X162361428Y-101832372D01*
X162504285Y-101975229D01*
X162790000Y-101975229D01*
X162932857Y-101832372D01*
X163004285Y-101689515D01*
X163075714Y-101403801D01*
X163075714Y-100832372D01*
X163004285Y-100546658D01*
X162932857Y-100403801D01*
X162790000Y-100260944D01*
X163932857Y-100260944D02*
X163790000Y-100118087D01*
X163718571Y-99975229D01*
X163647142Y-99689515D01*
X163647142Y-99546658D01*
X163718571Y-99260944D01*
X163790000Y-99118087D01*
X163932857Y-98975229D01*
X164218571Y-98975229D01*
X164361428Y-99118087D01*
X164432857Y-99260944D01*
X164504285Y-99546658D01*
X164504285Y-99689515D01*
X164432857Y-99975229D01*
X164361428Y-100118087D01*
X164218571Y-100260944D01*
X163932857Y-100260944D01*
X163790000Y-100403801D01*
X163718571Y-100546658D01*
X163647142Y-100832372D01*
X163647142Y-101403801D01*
X163718571Y-101689515D01*
X163790000Y-101832372D01*
X163932857Y-101975229D01*
X164218571Y-101975229D01*
X164361428Y-101832372D01*
X164432857Y-101689515D01*
X164504285Y-101403801D01*
X164504285Y-100832372D01*
X164432857Y-100546658D01*
X164361428Y-100403801D01*
X164218571Y-100260944D01*
X158075714Y-81780000D02*
X158790000Y-81780000D01*
X157932857Y-82637142D02*
X158432857Y-79637142D01*
X158932857Y-82637142D01*
X160075714Y-80637142D02*
X160075714Y-82637142D01*
X159718571Y-79494285D02*
X159361428Y-81637142D01*
X160290000Y-81637142D01*
X160932857Y-82637142D02*
X161218571Y-82637142D01*
X161361428Y-82494285D01*
X161432857Y-82351428D01*
X161575714Y-81922857D01*
X161647142Y-81351428D01*
X161647142Y-80208571D01*
X161575714Y-79922857D01*
X161504285Y-79780000D01*
X161361428Y-79637142D01*
X161075714Y-79637142D01*
X160932857Y-79780000D01*
X160861428Y-79922857D01*
X160790000Y-80208571D01*
X160790000Y-80922857D01*
X160861428Y-81208571D01*
X160932857Y-81351428D01*
X161075714Y-81494285D01*
X161361428Y-81494285D01*
X161504285Y-81351428D01*
X161575714Y-81208571D01*
X161647142Y-80922857D01*
X162504285Y-80922857D02*
X162361428Y-80780000D01*
X162290000Y-80637142D01*
X162218571Y-80351428D01*
X162218571Y-80208571D01*
X162290000Y-79922857D01*
X162361428Y-79780000D01*
X162504285Y-79637142D01*
X162790000Y-79637142D01*
X162932857Y-79780000D01*
X163004285Y-79922857D01*
X163075714Y-80208571D01*
X163075714Y-80351428D01*
X163004285Y-80637142D01*
X162932857Y-80780000D01*
X162790000Y-80922857D01*
X162504285Y-80922857D01*
X162361428Y-81065714D01*
X162290000Y-81208571D01*
X162218571Y-81494285D01*
X162218571Y-82065714D01*
X162290000Y-82351428D01*
X162361428Y-82494285D01*
X162504285Y-82637142D01*
X162790000Y-82637142D01*
X162932857Y-82494285D01*
X163004285Y-82351428D01*
X163075714Y-82065714D01*
X163075714Y-81494285D01*
X163004285Y-81208571D01*
X162932857Y-81065714D01*
X162790000Y-80922857D01*
X163932857Y-80922857D02*
X163790000Y-80780000D01*
X163718571Y-80637142D01*
X163647142Y-80351428D01*
X163647142Y-80208571D01*
X163718571Y-79922857D01*
X163790000Y-79780000D01*
X163932857Y-79637142D01*
X164218571Y-79637142D01*
X164361428Y-79780000D01*
X164432857Y-79922857D01*
X164504285Y-80208571D01*
X164504285Y-80351428D01*
X164432857Y-80637142D01*
X164361428Y-80780000D01*
X164218571Y-80922857D01*
X163932857Y-80922857D01*
X163790000Y-81065714D01*
X163718571Y-81208571D01*
X163647142Y-81494285D01*
X163647142Y-82065714D01*
X163718571Y-82351428D01*
X163790000Y-82494285D01*
X163932857Y-82637142D01*
X164218571Y-82637142D01*
X164361428Y-82494285D01*
X164432857Y-82351428D01*
X164504285Y-82065714D01*
X164504285Y-81494285D01*
X164432857Y-81208571D01*
X164361428Y-81065714D01*
X164218571Y-80922857D01*
D11*
X121800952Y-68043928D02*
X121753333Y-68139166D01*
X121705714Y-68186785D01*
X121610476Y-68234404D01*
X121562857Y-68234404D01*
X121467619Y-68186785D01*
X121420000Y-68139166D01*
X121372380Y-68043928D01*
X121372380Y-67853452D01*
X121420000Y-67758214D01*
X121467619Y-67710595D01*
X121562857Y-67662976D01*
X121610476Y-67662976D01*
X121705714Y-67710595D01*
X121753333Y-67758214D01*
X121800952Y-67853452D01*
X121800952Y-68043928D01*
X121848571Y-68139166D01*
X121896190Y-68186785D01*
X121991428Y-68234404D01*
X122181904Y-68234404D01*
X122277142Y-68186785D01*
X122324761Y-68139166D01*
X122372380Y-68043928D01*
X122372380Y-67853452D01*
X122324761Y-67758214D01*
X122277142Y-67710595D01*
X122181904Y-67662976D01*
X121991428Y-67662976D01*
X121896190Y-67710595D01*
X121848571Y-67758214D01*
X121800952Y-67853452D01*
X119832380Y-68139166D02*
X119832380Y-67948690D01*
X119784761Y-67853452D01*
X119737142Y-67805833D01*
X119594285Y-67710595D01*
X119403809Y-67662976D01*
X119022857Y-67662976D01*
X118927619Y-67710595D01*
X118880000Y-67758214D01*
X118832380Y-67853452D01*
X118832380Y-68043928D01*
X118880000Y-68139166D01*
X118927619Y-68186785D01*
X119022857Y-68234404D01*
X119260952Y-68234404D01*
X119356190Y-68186785D01*
X119403809Y-68139166D01*
X119451428Y-68043928D01*
X119451428Y-67853452D01*
X119403809Y-67758214D01*
X119356190Y-67710595D01*
X119260952Y-67662976D01*
X117292380Y-68615357D02*
X117292380Y-69186785D01*
X117292380Y-68901071D02*
X116292380Y-68901071D01*
X116435238Y-68996309D01*
X116530476Y-69091547D01*
X116578095Y-69186785D01*
X116292380Y-67996309D02*
X116292380Y-67901071D01*
X116340000Y-67805833D01*
X116387619Y-67758214D01*
X116482857Y-67710595D01*
X116673333Y-67662976D01*
X116911428Y-67662976D01*
X117101904Y-67710595D01*
X117197142Y-67758214D01*
X117244761Y-67805833D01*
X117292380Y-67901071D01*
X117292380Y-67996309D01*
X117244761Y-68091547D01*
X117197142Y-68139166D01*
X117101904Y-68186785D01*
X116911428Y-68234404D01*
X116673333Y-68234404D01*
X116482857Y-68186785D01*
X116387619Y-68139166D01*
X116340000Y-68091547D01*
X116292380Y-67996309D01*
X114752380Y-68615357D02*
X114752380Y-69186785D01*
X114752380Y-68901071D02*
X113752380Y-68901071D01*
X113895238Y-68996309D01*
X113990476Y-69091547D01*
X114038095Y-69186785D01*
X114752380Y-67662976D02*
X114752380Y-68234404D01*
X114752380Y-67948690D02*
X113752380Y-67948690D01*
X113895238Y-68043928D01*
X113990476Y-68139166D01*
X114038095Y-68234404D01*
X112212380Y-68615357D02*
X112212380Y-69186785D01*
X112212380Y-68901071D02*
X111212380Y-68901071D01*
X111355238Y-68996309D01*
X111450476Y-69091547D01*
X111498095Y-69186785D01*
X111307619Y-68234404D02*
X111260000Y-68186785D01*
X111212380Y-68091547D01*
X111212380Y-67853452D01*
X111260000Y-67758214D01*
X111307619Y-67710595D01*
X111402857Y-67662976D01*
X111498095Y-67662976D01*
X111640952Y-67710595D01*
X112212380Y-68282023D01*
X112212380Y-67662976D01*
X109672380Y-68615357D02*
X109672380Y-69186785D01*
X109672380Y-68901071D02*
X108672380Y-68901071D01*
X108815238Y-68996309D01*
X108910476Y-69091547D01*
X108958095Y-69186785D01*
X108672380Y-68282023D02*
X108672380Y-67662976D01*
X109053333Y-67996309D01*
X109053333Y-67853452D01*
X109100952Y-67758214D01*
X109148571Y-67710595D01*
X109243809Y-67662976D01*
X109481904Y-67662976D01*
X109577142Y-67710595D01*
X109624761Y-67758214D01*
X109672380Y-67853452D01*
X109672380Y-68139166D01*
X109624761Y-68234404D01*
X109577142Y-68282023D01*
X106180000Y-69758214D02*
X106132380Y-69853452D01*
X106132380Y-69996309D01*
X106180000Y-70139166D01*
X106275238Y-70234404D01*
X106370476Y-70282023D01*
X106560952Y-70329642D01*
X106703809Y-70329642D01*
X106894285Y-70282023D01*
X106989523Y-70234404D01*
X107084761Y-70139166D01*
X107132380Y-69996309D01*
X107132380Y-69901071D01*
X107084761Y-69758214D01*
X107037142Y-69710595D01*
X106703809Y-69710595D01*
X106703809Y-69901071D01*
X107132380Y-69282023D02*
X106132380Y-69282023D01*
X107132380Y-68710595D01*
X106132380Y-68710595D01*
X107132380Y-68234404D02*
X106132380Y-68234404D01*
X106132380Y-67996309D01*
X106180000Y-67853452D01*
X106275238Y-67758214D01*
X106370476Y-67710595D01*
X106560952Y-67662976D01*
X106703809Y-67662976D01*
X106894285Y-67710595D01*
X106989523Y-67758214D01*
X107084761Y-67853452D01*
X107132380Y-67996309D01*
X107132380Y-68234404D01*
X104306666Y-70186785D02*
X104306666Y-69710595D01*
X104592380Y-70282023D02*
X103592380Y-69948690D01*
X104592380Y-69615357D01*
X104592380Y-69282023D02*
X103925714Y-69282023D01*
X104116190Y-69282023D02*
X104020952Y-69234404D01*
X103973333Y-69186785D01*
X103925714Y-69091547D01*
X103925714Y-68996309D01*
X104544761Y-68282023D02*
X104592380Y-68377261D01*
X104592380Y-68567738D01*
X104544761Y-68662976D01*
X104449523Y-68710595D01*
X104068571Y-68710595D01*
X103973333Y-68662976D01*
X103925714Y-68567738D01*
X103925714Y-68377261D01*
X103973333Y-68282023D01*
X104068571Y-68234404D01*
X104163809Y-68234404D01*
X104259047Y-68710595D01*
X103925714Y-67948690D02*
X103925714Y-67567738D01*
X104592380Y-67805833D02*
X103735238Y-67805833D01*
X103640000Y-67758214D01*
X103592380Y-67662976D01*
X103592380Y-67567738D01*
X166774761Y-72710595D02*
X166822380Y-72567738D01*
X166822380Y-72329642D01*
X166774761Y-72234404D01*
X166727142Y-72186785D01*
X166631904Y-72139166D01*
X166536666Y-72139166D01*
X166441428Y-72186785D01*
X166393809Y-72234404D01*
X166346190Y-72329642D01*
X166298571Y-72520119D01*
X166250952Y-72615357D01*
X166203333Y-72662976D01*
X166108095Y-72710595D01*
X166012857Y-72710595D01*
X165917619Y-72662976D01*
X165870000Y-72615357D01*
X165822380Y-72520119D01*
X165822380Y-72282023D01*
X165870000Y-72139166D01*
X166727142Y-71139166D02*
X166774761Y-71186785D01*
X166822380Y-71329642D01*
X166822380Y-71424880D01*
X166774761Y-71567738D01*
X166679523Y-71662976D01*
X166584285Y-71710595D01*
X166393809Y-71758214D01*
X166250952Y-71758214D01*
X166060476Y-71710595D01*
X165965238Y-71662976D01*
X165870000Y-71567738D01*
X165822380Y-71424880D01*
X165822380Y-71329642D01*
X165870000Y-71186785D01*
X165917619Y-71139166D01*
X166822380Y-70234404D02*
X166822380Y-70710595D01*
X165822380Y-70710595D01*
X165917619Y-69186785D02*
X165870000Y-69139166D01*
X165822380Y-69043928D01*
X165822380Y-68805833D01*
X165870000Y-68710595D01*
X165917619Y-68662976D01*
X166012857Y-68615357D01*
X166108095Y-68615357D01*
X166250952Y-68662976D01*
X166822380Y-69234404D01*
X166822380Y-68615357D01*
X166822380Y-67662976D02*
X166822380Y-68234404D01*
X166822380Y-67948690D02*
X165822380Y-67948690D01*
X165965238Y-68043928D01*
X166060476Y-68139166D01*
X166108095Y-68234404D01*
X164234761Y-72758214D02*
X164282380Y-72615357D01*
X164282380Y-72377261D01*
X164234761Y-72282023D01*
X164187142Y-72234404D01*
X164091904Y-72186785D01*
X163996666Y-72186785D01*
X163901428Y-72234404D01*
X163853809Y-72282023D01*
X163806190Y-72377261D01*
X163758571Y-72567738D01*
X163710952Y-72662976D01*
X163663333Y-72710595D01*
X163568095Y-72758214D01*
X163472857Y-72758214D01*
X163377619Y-72710595D01*
X163330000Y-72662976D01*
X163282380Y-72567738D01*
X163282380Y-72329642D01*
X163330000Y-72186785D01*
X164282380Y-71758214D02*
X163282380Y-71758214D01*
X163282380Y-71520119D01*
X163330000Y-71377261D01*
X163425238Y-71282023D01*
X163520476Y-71234404D01*
X163710952Y-71186785D01*
X163853809Y-71186785D01*
X164044285Y-71234404D01*
X164139523Y-71282023D01*
X164234761Y-71377261D01*
X164282380Y-71520119D01*
X164282380Y-71758214D01*
X163996666Y-70805833D02*
X163996666Y-70329642D01*
X164282380Y-70901071D02*
X163282380Y-70567738D01*
X164282380Y-70234404D01*
X163377619Y-69186785D02*
X163330000Y-69139166D01*
X163282380Y-69043928D01*
X163282380Y-68805833D01*
X163330000Y-68710595D01*
X163377619Y-68662976D01*
X163472857Y-68615357D01*
X163568095Y-68615357D01*
X163710952Y-68662976D01*
X164282380Y-69234404D01*
X164282380Y-68615357D01*
X163282380Y-67996309D02*
X163282380Y-67901071D01*
X163330000Y-67805833D01*
X163377619Y-67758214D01*
X163472857Y-67710595D01*
X163663333Y-67662976D01*
X163901428Y-67662976D01*
X164091904Y-67710595D01*
X164187142Y-67758214D01*
X164234761Y-67805833D01*
X164282380Y-67901071D01*
X164282380Y-67996309D01*
X164234761Y-68091547D01*
X164187142Y-68139166D01*
X164091904Y-68186785D01*
X163901428Y-68234404D01*
X163663333Y-68234404D01*
X163472857Y-68186785D01*
X163377619Y-68139166D01*
X163330000Y-68091547D01*
X163282380Y-67996309D01*
X161742380Y-72234404D02*
X161266190Y-72567738D01*
X161742380Y-72805833D02*
X160742380Y-72805833D01*
X160742380Y-72424880D01*
X160790000Y-72329642D01*
X160837619Y-72282023D01*
X160932857Y-72234404D01*
X161075714Y-72234404D01*
X161170952Y-72282023D01*
X161218571Y-72329642D01*
X161266190Y-72424880D01*
X161266190Y-72805833D01*
X160742380Y-71901071D02*
X161742380Y-71234404D01*
X160742380Y-71234404D02*
X161742380Y-71901071D01*
X161742380Y-70329642D02*
X161742380Y-70901071D01*
X161742380Y-70615357D02*
X160742380Y-70615357D01*
X160885238Y-70710595D01*
X160980476Y-70805833D01*
X161028095Y-70901071D01*
X161742380Y-68615357D02*
X161742380Y-69186785D01*
X161742380Y-68901071D02*
X160742380Y-68901071D01*
X160885238Y-68996309D01*
X160980476Y-69091547D01*
X161028095Y-69186785D01*
X161742380Y-68139166D02*
X161742380Y-67948690D01*
X161694761Y-67853452D01*
X161647142Y-67805833D01*
X161504285Y-67710595D01*
X161313809Y-67662976D01*
X160932857Y-67662976D01*
X160837619Y-67710595D01*
X160790000Y-67758214D01*
X160742380Y-67853452D01*
X160742380Y-68043928D01*
X160790000Y-68139166D01*
X160837619Y-68186785D01*
X160932857Y-68234404D01*
X161170952Y-68234404D01*
X161266190Y-68186785D01*
X161313809Y-68139166D01*
X161361428Y-68043928D01*
X161361428Y-67853452D01*
X161313809Y-67758214D01*
X161266190Y-67710595D01*
X161170952Y-67662976D01*
X158202380Y-72710595D02*
X158202380Y-72139166D01*
X159202380Y-72424880D02*
X158202380Y-72424880D01*
X158202380Y-71901071D02*
X159202380Y-71234404D01*
X158202380Y-71234404D02*
X159202380Y-71901071D01*
X159202380Y-70329642D02*
X159202380Y-70901071D01*
X159202380Y-70615357D02*
X158202380Y-70615357D01*
X158345238Y-70710595D01*
X158440476Y-70805833D01*
X158488095Y-70901071D01*
X159202380Y-68615357D02*
X159202380Y-69186785D01*
X159202380Y-68901071D02*
X158202380Y-68901071D01*
X158345238Y-68996309D01*
X158440476Y-69091547D01*
X158488095Y-69186785D01*
X158630952Y-68043928D02*
X158583333Y-68139166D01*
X158535714Y-68186785D01*
X158440476Y-68234404D01*
X158392857Y-68234404D01*
X158297619Y-68186785D01*
X158250000Y-68139166D01*
X158202380Y-68043928D01*
X158202380Y-67853452D01*
X158250000Y-67758214D01*
X158297619Y-67710595D01*
X158392857Y-67662976D01*
X158440476Y-67662976D01*
X158535714Y-67710595D01*
X158583333Y-67758214D01*
X158630952Y-67853452D01*
X158630952Y-68043928D01*
X158678571Y-68139166D01*
X158726190Y-68186785D01*
X158821428Y-68234404D01*
X159011904Y-68234404D01*
X159107142Y-68186785D01*
X159154761Y-68139166D01*
X159202380Y-68043928D01*
X159202380Y-67853452D01*
X159154761Y-67758214D01*
X159107142Y-67710595D01*
X159011904Y-67662976D01*
X158821428Y-67662976D01*
X158726190Y-67710595D01*
X158678571Y-67758214D01*
X158630952Y-67853452D01*
X156662380Y-72234404D02*
X156186190Y-72567738D01*
X156662380Y-72805833D02*
X155662380Y-72805833D01*
X155662380Y-72424880D01*
X155710000Y-72329642D01*
X155757619Y-72282023D01*
X155852857Y-72234404D01*
X155995714Y-72234404D01*
X156090952Y-72282023D01*
X156138571Y-72329642D01*
X156186190Y-72424880D01*
X156186190Y-72805833D01*
X155662380Y-71901071D02*
X156662380Y-71234404D01*
X155662380Y-71234404D02*
X156662380Y-71901071D01*
X155757619Y-70901071D02*
X155710000Y-70853452D01*
X155662380Y-70758214D01*
X155662380Y-70520119D01*
X155710000Y-70424880D01*
X155757619Y-70377261D01*
X155852857Y-70329642D01*
X155948095Y-70329642D01*
X156090952Y-70377261D01*
X156662380Y-70948690D01*
X156662380Y-70329642D01*
X156662380Y-68615357D02*
X156662380Y-69186785D01*
X156662380Y-68901071D02*
X155662380Y-68901071D01*
X155805238Y-68996309D01*
X155900476Y-69091547D01*
X155948095Y-69186785D01*
X155662380Y-68282023D02*
X155662380Y-67615357D01*
X156662380Y-68043928D01*
X153122380Y-72710595D02*
X153122380Y-72139166D01*
X154122380Y-72424880D02*
X153122380Y-72424880D01*
X153122380Y-71901071D02*
X154122380Y-71234404D01*
X153122380Y-71234404D02*
X154122380Y-71901071D01*
X153217619Y-70901071D02*
X153170000Y-70853452D01*
X153122380Y-70758214D01*
X153122380Y-70520119D01*
X153170000Y-70424880D01*
X153217619Y-70377261D01*
X153312857Y-70329642D01*
X153408095Y-70329642D01*
X153550952Y-70377261D01*
X154122380Y-70948690D01*
X154122380Y-70329642D01*
X154122380Y-68615357D02*
X154122380Y-69186785D01*
X154122380Y-68901071D02*
X153122380Y-68901071D01*
X153265238Y-68996309D01*
X153360476Y-69091547D01*
X153408095Y-69186785D01*
X153122380Y-67758214D02*
X153122380Y-67948690D01*
X153170000Y-68043928D01*
X153217619Y-68091547D01*
X153360476Y-68186785D01*
X153550952Y-68234404D01*
X153931904Y-68234404D01*
X154027142Y-68186785D01*
X154074761Y-68139166D01*
X154122380Y-68043928D01*
X154122380Y-67853452D01*
X154074761Y-67758214D01*
X154027142Y-67710595D01*
X153931904Y-67662976D01*
X153693809Y-67662976D01*
X153598571Y-67710595D01*
X153550952Y-67758214D01*
X153503333Y-67853452D01*
X153503333Y-68043928D01*
X153550952Y-68139166D01*
X153598571Y-68186785D01*
X153693809Y-68234404D01*
X151582380Y-72234404D02*
X151106190Y-72567738D01*
X151582380Y-72805833D02*
X150582380Y-72805833D01*
X150582380Y-72424880D01*
X150630000Y-72329642D01*
X150677619Y-72282023D01*
X150772857Y-72234404D01*
X150915714Y-72234404D01*
X151010952Y-72282023D01*
X151058571Y-72329642D01*
X151106190Y-72424880D01*
X151106190Y-72805833D01*
X150582380Y-71901071D02*
X151582380Y-71234404D01*
X150582380Y-71234404D02*
X151582380Y-71901071D01*
X150582380Y-70948690D02*
X150582380Y-70329642D01*
X150963333Y-70662976D01*
X150963333Y-70520119D01*
X151010952Y-70424880D01*
X151058571Y-70377261D01*
X151153809Y-70329642D01*
X151391904Y-70329642D01*
X151487142Y-70377261D01*
X151534761Y-70424880D01*
X151582380Y-70520119D01*
X151582380Y-70805833D01*
X151534761Y-70901071D01*
X151487142Y-70948690D01*
X151582380Y-68615357D02*
X151582380Y-69186785D01*
X151582380Y-68901071D02*
X150582380Y-68901071D01*
X150725238Y-68996309D01*
X150820476Y-69091547D01*
X150868095Y-69186785D01*
X150582380Y-67710595D02*
X150582380Y-68186785D01*
X151058571Y-68234404D01*
X151010952Y-68186785D01*
X150963333Y-68091547D01*
X150963333Y-67853452D01*
X151010952Y-67758214D01*
X151058571Y-67710595D01*
X151153809Y-67662976D01*
X151391904Y-67662976D01*
X151487142Y-67710595D01*
X151534761Y-67758214D01*
X151582380Y-67853452D01*
X151582380Y-68091547D01*
X151534761Y-68186785D01*
X151487142Y-68234404D01*
X148042380Y-72710595D02*
X148042380Y-72139166D01*
X149042380Y-72424880D02*
X148042380Y-72424880D01*
X148042380Y-71901071D02*
X149042380Y-71234404D01*
X148042380Y-71234404D02*
X149042380Y-71901071D01*
X148042380Y-70948690D02*
X148042380Y-70329642D01*
X148423333Y-70662976D01*
X148423333Y-70520119D01*
X148470952Y-70424880D01*
X148518571Y-70377261D01*
X148613809Y-70329642D01*
X148851904Y-70329642D01*
X148947142Y-70377261D01*
X148994761Y-70424880D01*
X149042380Y-70520119D01*
X149042380Y-70805833D01*
X148994761Y-70901071D01*
X148947142Y-70948690D01*
X149042380Y-68615357D02*
X149042380Y-69186785D01*
X149042380Y-68901071D02*
X148042380Y-68901071D01*
X148185238Y-68996309D01*
X148280476Y-69091547D01*
X148328095Y-69186785D01*
X148375714Y-67758214D02*
X149042380Y-67758214D01*
X147994761Y-67996309D02*
X148709047Y-68234404D01*
X148709047Y-67615357D01*
X143962380Y-72996309D02*
X143486190Y-73329642D01*
X143962380Y-73567738D02*
X142962380Y-73567738D01*
X142962380Y-73186785D01*
X143010000Y-73091547D01*
X143057619Y-73043928D01*
X143152857Y-72996309D01*
X143295714Y-72996309D01*
X143390952Y-73043928D01*
X143438571Y-73091547D01*
X143486190Y-73186785D01*
X143486190Y-73567738D01*
X142962380Y-72662976D02*
X143962380Y-71996309D01*
X142962380Y-71996309D02*
X143962380Y-72662976D01*
X142962380Y-71424880D02*
X142962380Y-71329642D01*
X143010000Y-71234404D01*
X143057619Y-71186785D01*
X143152857Y-71139166D01*
X143343333Y-71091547D01*
X143581428Y-71091547D01*
X143771904Y-71139166D01*
X143867142Y-71186785D01*
X143914761Y-71234404D01*
X143962380Y-71329642D01*
X143962380Y-71424880D01*
X143914761Y-71520119D01*
X143867142Y-71567738D01*
X143771904Y-71615357D01*
X143581428Y-71662976D01*
X143343333Y-71662976D01*
X143152857Y-71615357D01*
X143057619Y-71567738D01*
X143010000Y-71520119D01*
X142962380Y-71424880D01*
X143295714Y-69901071D02*
X143581428Y-70662976D01*
X143867142Y-69901071D01*
X143581428Y-69424880D02*
X143581428Y-68662976D01*
X142962380Y-67996309D02*
X142962380Y-67901071D01*
X143010000Y-67805833D01*
X143057619Y-67758214D01*
X143152857Y-67710595D01*
X143343333Y-67662976D01*
X143581428Y-67662976D01*
X143771904Y-67710595D01*
X143867142Y-67758214D01*
X143914761Y-67805833D01*
X143962380Y-67901071D01*
X143962380Y-67996309D01*
X143914761Y-68091547D01*
X143867142Y-68139166D01*
X143771904Y-68186785D01*
X143581428Y-68234404D01*
X143343333Y-68234404D01*
X143152857Y-68186785D01*
X143057619Y-68139166D01*
X143010000Y-68091547D01*
X142962380Y-67996309D01*
X140422380Y-73472500D02*
X140422380Y-72901071D01*
X141422380Y-73186785D02*
X140422380Y-73186785D01*
X140422380Y-72662976D02*
X141422380Y-71996309D01*
X140422380Y-71996309D02*
X141422380Y-72662976D01*
X140422380Y-71424880D02*
X140422380Y-71329642D01*
X140470000Y-71234404D01*
X140517619Y-71186785D01*
X140612857Y-71139166D01*
X140803333Y-71091547D01*
X141041428Y-71091547D01*
X141231904Y-71139166D01*
X141327142Y-71186785D01*
X141374761Y-71234404D01*
X141422380Y-71329642D01*
X141422380Y-71424880D01*
X141374761Y-71520119D01*
X141327142Y-71567738D01*
X141231904Y-71615357D01*
X141041428Y-71662976D01*
X140803333Y-71662976D01*
X140612857Y-71615357D01*
X140517619Y-71567738D01*
X140470000Y-71520119D01*
X140422380Y-71424880D01*
X141041428Y-70662976D02*
X141041428Y-69901071D01*
X140755714Y-69424880D02*
X141041428Y-68662976D01*
X141327142Y-69424880D01*
X141422380Y-67662976D02*
X141422380Y-68234404D01*
X141422380Y-67948690D02*
X140422380Y-67948690D01*
X140565238Y-68043928D01*
X140660476Y-68139166D01*
X140708095Y-68234404D01*
X137977619Y-68234404D02*
X137930000Y-68186785D01*
X137882380Y-68091547D01*
X137882380Y-67853452D01*
X137930000Y-67758214D01*
X137977619Y-67710595D01*
X138072857Y-67662976D01*
X138168095Y-67662976D01*
X138310952Y-67710595D01*
X138882380Y-68282023D01*
X138882380Y-67662976D01*
X135342380Y-68282023D02*
X135342380Y-67662976D01*
X135723333Y-67996309D01*
X135723333Y-67853452D01*
X135770952Y-67758214D01*
X135818571Y-67710595D01*
X135913809Y-67662976D01*
X136151904Y-67662976D01*
X136247142Y-67710595D01*
X136294761Y-67758214D01*
X136342380Y-67853452D01*
X136342380Y-68139166D01*
X136294761Y-68234404D01*
X136247142Y-68282023D01*
X133135714Y-67758214D02*
X133802380Y-67758214D01*
X132754761Y-67996309D02*
X133469047Y-68234404D01*
X133469047Y-67615357D01*
X130262380Y-67710595D02*
X130262380Y-68186785D01*
X130738571Y-68234404D01*
X130690952Y-68186785D01*
X130643333Y-68091547D01*
X130643333Y-67853452D01*
X130690952Y-67758214D01*
X130738571Y-67710595D01*
X130833809Y-67662976D01*
X131071904Y-67662976D01*
X131167142Y-67710595D01*
X131214761Y-67758214D01*
X131262380Y-67853452D01*
X131262380Y-68091547D01*
X131214761Y-68186785D01*
X131167142Y-68234404D01*
X127722380Y-67758214D02*
X127722380Y-67948690D01*
X127770000Y-68043928D01*
X127817619Y-68091547D01*
X127960476Y-68186785D01*
X128150952Y-68234404D01*
X128531904Y-68234404D01*
X128627142Y-68186785D01*
X128674761Y-68139166D01*
X128722380Y-68043928D01*
X128722380Y-67853452D01*
X128674761Y-67758214D01*
X128627142Y-67710595D01*
X128531904Y-67662976D01*
X128293809Y-67662976D01*
X128198571Y-67710595D01*
X128150952Y-67758214D01*
X128103333Y-67853452D01*
X128103333Y-68043928D01*
X128150952Y-68139166D01*
X128198571Y-68186785D01*
X128293809Y-68234404D01*
X125182380Y-68282023D02*
X125182380Y-67615357D01*
X126182380Y-68043928D01*
X171616666Y-111407023D02*
X171616666Y-110930833D01*
X171902380Y-111502261D02*
X170902380Y-111168928D01*
X171902380Y-110835595D01*
X171902380Y-109978452D02*
X171902380Y-110549880D01*
X171902380Y-110264166D02*
X170902380Y-110264166D01*
X171045238Y-110359404D01*
X171140476Y-110454642D01*
X171188095Y-110549880D01*
X170902380Y-109073690D02*
X170902380Y-109549880D01*
X171378571Y-109597500D01*
X171330952Y-109549880D01*
X171283333Y-109454642D01*
X171283333Y-109216547D01*
X171330952Y-109121309D01*
X171378571Y-109073690D01*
X171473809Y-109026071D01*
X171711904Y-109026071D01*
X171807142Y-109073690D01*
X171854761Y-109121309D01*
X171902380Y-109216547D01*
X171902380Y-109454642D01*
X171854761Y-109549880D01*
X171807142Y-109597500D01*
X169076666Y-111407023D02*
X169076666Y-110930833D01*
X169362380Y-111502261D02*
X168362380Y-111168928D01*
X169362380Y-110835595D01*
X169362380Y-109978452D02*
X169362380Y-110549880D01*
X169362380Y-110264166D02*
X168362380Y-110264166D01*
X168505238Y-110359404D01*
X168600476Y-110454642D01*
X168648095Y-110549880D01*
X168695714Y-109121309D02*
X169362380Y-109121309D01*
X168314761Y-109359404D02*
X169029047Y-109597500D01*
X169029047Y-108978452D01*
X166536666Y-111407023D02*
X166536666Y-110930833D01*
X166822380Y-111502261D02*
X165822380Y-111168928D01*
X166822380Y-110835595D01*
X166822380Y-109978452D02*
X166822380Y-110549880D01*
X166822380Y-110264166D02*
X165822380Y-110264166D01*
X165965238Y-110359404D01*
X166060476Y-110454642D01*
X166108095Y-110549880D01*
X165822380Y-109645119D02*
X165822380Y-109026071D01*
X166203333Y-109359404D01*
X166203333Y-109216547D01*
X166250952Y-109121309D01*
X166298571Y-109073690D01*
X166393809Y-109026071D01*
X166631904Y-109026071D01*
X166727142Y-109073690D01*
X166774761Y-109121309D01*
X166822380Y-109216547D01*
X166822380Y-109502261D01*
X166774761Y-109597500D01*
X166727142Y-109645119D01*
X163996666Y-111407023D02*
X163996666Y-110930833D01*
X164282380Y-111502261D02*
X163282380Y-111168928D01*
X164282380Y-110835595D01*
X164282380Y-109978452D02*
X164282380Y-110549880D01*
X164282380Y-110264166D02*
X163282380Y-110264166D01*
X163425238Y-110359404D01*
X163520476Y-110454642D01*
X163568095Y-110549880D01*
X163377619Y-109597500D02*
X163330000Y-109549880D01*
X163282380Y-109454642D01*
X163282380Y-109216547D01*
X163330000Y-109121309D01*
X163377619Y-109073690D01*
X163472857Y-109026071D01*
X163568095Y-109026071D01*
X163710952Y-109073690D01*
X164282380Y-109645119D01*
X164282380Y-109026071D01*
X161456666Y-111407023D02*
X161456666Y-110930833D01*
X161742380Y-111502261D02*
X160742380Y-111168928D01*
X161742380Y-110835595D01*
X161742380Y-109978452D02*
X161742380Y-110549880D01*
X161742380Y-110264166D02*
X160742380Y-110264166D01*
X160885238Y-110359404D01*
X160980476Y-110454642D01*
X161028095Y-110549880D01*
X161742380Y-109026071D02*
X161742380Y-109597500D01*
X161742380Y-109311785D02*
X160742380Y-109311785D01*
X160885238Y-109407023D01*
X160980476Y-109502261D01*
X161028095Y-109597500D01*
X158916666Y-111407023D02*
X158916666Y-110930833D01*
X159202380Y-111502261D02*
X158202380Y-111168928D01*
X159202380Y-110835595D01*
X159202380Y-109978452D02*
X159202380Y-110549880D01*
X159202380Y-110264166D02*
X158202380Y-110264166D01*
X158345238Y-110359404D01*
X158440476Y-110454642D01*
X158488095Y-110549880D01*
X158202380Y-109359404D02*
X158202380Y-109264166D01*
X158250000Y-109168928D01*
X158297619Y-109121309D01*
X158392857Y-109073690D01*
X158583333Y-109026071D01*
X158821428Y-109026071D01*
X159011904Y-109073690D01*
X159107142Y-109121309D01*
X159154761Y-109168928D01*
X159202380Y-109264166D01*
X159202380Y-109359404D01*
X159154761Y-109454642D01*
X159107142Y-109502261D01*
X159011904Y-109549880D01*
X158821428Y-109597500D01*
X158583333Y-109597500D01*
X158392857Y-109549880D01*
X158297619Y-109502261D01*
X158250000Y-109454642D01*
X158202380Y-109359404D01*
X156376666Y-111407023D02*
X156376666Y-110930833D01*
X156662380Y-111502261D02*
X155662380Y-111168928D01*
X156662380Y-110835595D01*
X156662380Y-110454642D02*
X156662380Y-110264166D01*
X156614761Y-110168928D01*
X156567142Y-110121309D01*
X156424285Y-110026071D01*
X156233809Y-109978452D01*
X155852857Y-109978452D01*
X155757619Y-110026071D01*
X155710000Y-110073690D01*
X155662380Y-110168928D01*
X155662380Y-110359404D01*
X155710000Y-110454642D01*
X155757619Y-110502261D01*
X155852857Y-110549880D01*
X156090952Y-110549880D01*
X156186190Y-110502261D01*
X156233809Y-110454642D01*
X156281428Y-110359404D01*
X156281428Y-110168928D01*
X156233809Y-110073690D01*
X156186190Y-110026071D01*
X156090952Y-109978452D01*
X153836666Y-111407023D02*
X153836666Y-110930833D01*
X154122380Y-111502261D02*
X153122380Y-111168928D01*
X154122380Y-110835595D01*
X153550952Y-110359404D02*
X153503333Y-110454642D01*
X153455714Y-110502261D01*
X153360476Y-110549880D01*
X153312857Y-110549880D01*
X153217619Y-110502261D01*
X153170000Y-110454642D01*
X153122380Y-110359404D01*
X153122380Y-110168928D01*
X153170000Y-110073690D01*
X153217619Y-110026071D01*
X153312857Y-109978452D01*
X153360476Y-109978452D01*
X153455714Y-110026071D01*
X153503333Y-110073690D01*
X153550952Y-110168928D01*
X153550952Y-110359404D01*
X153598571Y-110454642D01*
X153646190Y-110502261D01*
X153741428Y-110549880D01*
X153931904Y-110549880D01*
X154027142Y-110502261D01*
X154074761Y-110454642D01*
X154122380Y-110359404D01*
X154122380Y-110168928D01*
X154074761Y-110073690D01*
X154027142Y-110026071D01*
X153931904Y-109978452D01*
X153741428Y-109978452D01*
X153646190Y-110026071D01*
X153598571Y-110073690D01*
X153550952Y-110168928D01*
X148756666Y-111407023D02*
X148756666Y-110930833D01*
X149042380Y-111502261D02*
X148042380Y-111168928D01*
X149042380Y-110835595D01*
X148042380Y-110597500D02*
X148042380Y-109930833D01*
X149042380Y-110359404D01*
X146216666Y-111407023D02*
X146216666Y-110930833D01*
X146502380Y-111502261D02*
X145502380Y-111168928D01*
X146502380Y-110835595D01*
X145502380Y-110073690D02*
X145502380Y-110264166D01*
X145550000Y-110359404D01*
X145597619Y-110407023D01*
X145740476Y-110502261D01*
X145930952Y-110549880D01*
X146311904Y-110549880D01*
X146407142Y-110502261D01*
X146454761Y-110454642D01*
X146502380Y-110359404D01*
X146502380Y-110168928D01*
X146454761Y-110073690D01*
X146407142Y-110026071D01*
X146311904Y-109978452D01*
X146073809Y-109978452D01*
X145978571Y-110026071D01*
X145930952Y-110073690D01*
X145883333Y-110168928D01*
X145883333Y-110359404D01*
X145930952Y-110454642D01*
X145978571Y-110502261D01*
X146073809Y-110549880D01*
X143676666Y-111407023D02*
X143676666Y-110930833D01*
X143962380Y-111502261D02*
X142962380Y-111168928D01*
X143962380Y-110835595D01*
X142962380Y-110026071D02*
X142962380Y-110502261D01*
X143438571Y-110549880D01*
X143390952Y-110502261D01*
X143343333Y-110407023D01*
X143343333Y-110168928D01*
X143390952Y-110073690D01*
X143438571Y-110026071D01*
X143533809Y-109978452D01*
X143771904Y-109978452D01*
X143867142Y-110026071D01*
X143914761Y-110073690D01*
X143962380Y-110168928D01*
X143962380Y-110407023D01*
X143914761Y-110502261D01*
X143867142Y-110549880D01*
X141136666Y-111407023D02*
X141136666Y-110930833D01*
X141422380Y-111502261D02*
X140422380Y-111168928D01*
X141422380Y-110835595D01*
X140755714Y-110073690D02*
X141422380Y-110073690D01*
X140374761Y-110311785D02*
X141089047Y-110549880D01*
X141089047Y-109930833D01*
X138596666Y-111407023D02*
X138596666Y-110930833D01*
X138882380Y-111502261D02*
X137882380Y-111168928D01*
X138882380Y-110835595D01*
X137882380Y-110597500D02*
X137882380Y-109978452D01*
X138263333Y-110311785D01*
X138263333Y-110168928D01*
X138310952Y-110073690D01*
X138358571Y-110026071D01*
X138453809Y-109978452D01*
X138691904Y-109978452D01*
X138787142Y-110026071D01*
X138834761Y-110073690D01*
X138882380Y-110168928D01*
X138882380Y-110454642D01*
X138834761Y-110549880D01*
X138787142Y-110597500D01*
X136056666Y-111407023D02*
X136056666Y-110930833D01*
X136342380Y-111502261D02*
X135342380Y-111168928D01*
X136342380Y-110835595D01*
X135437619Y-110549880D02*
X135390000Y-110502261D01*
X135342380Y-110407023D01*
X135342380Y-110168928D01*
X135390000Y-110073690D01*
X135437619Y-110026071D01*
X135532857Y-109978452D01*
X135628095Y-109978452D01*
X135770952Y-110026071D01*
X136342380Y-110597500D01*
X136342380Y-109978452D01*
X133516666Y-111407023D02*
X133516666Y-110930833D01*
X133802380Y-111502261D02*
X132802380Y-111168928D01*
X133802380Y-110835595D01*
X133802380Y-109978452D02*
X133802380Y-110549880D01*
X133802380Y-110264166D02*
X132802380Y-110264166D01*
X132945238Y-110359404D01*
X133040476Y-110454642D01*
X133088095Y-110549880D01*
X130976666Y-111407023D02*
X130976666Y-110930833D01*
X131262380Y-111502261D02*
X130262380Y-111168928D01*
X131262380Y-110835595D01*
X130262380Y-110311785D02*
X130262380Y-110216547D01*
X130310000Y-110121309D01*
X130357619Y-110073690D01*
X130452857Y-110026071D01*
X130643333Y-109978452D01*
X130881428Y-109978452D01*
X131071904Y-110026071D01*
X131167142Y-110073690D01*
X131214761Y-110121309D01*
X131262380Y-110216547D01*
X131262380Y-110311785D01*
X131214761Y-110407023D01*
X131167142Y-110454642D01*
X131071904Y-110502261D01*
X130881428Y-110549880D01*
X130643333Y-110549880D01*
X130452857Y-110502261D01*
X130357619Y-110454642D01*
X130310000Y-110407023D01*
X130262380Y-110311785D01*
X113482380Y-110787976D02*
X113006190Y-111121309D01*
X113482380Y-111359404D02*
X112482380Y-111359404D01*
X112482380Y-110978452D01*
X112530000Y-110883214D01*
X112577619Y-110835595D01*
X112672857Y-110787976D01*
X112815714Y-110787976D01*
X112910952Y-110835595D01*
X112958571Y-110883214D01*
X113006190Y-110978452D01*
X113006190Y-111359404D01*
X113434761Y-110407023D02*
X113482380Y-110264166D01*
X113482380Y-110026071D01*
X113434761Y-109930833D01*
X113387142Y-109883214D01*
X113291904Y-109835595D01*
X113196666Y-109835595D01*
X113101428Y-109883214D01*
X113053809Y-109930833D01*
X113006190Y-110026071D01*
X112958571Y-110216547D01*
X112910952Y-110311785D01*
X112863333Y-110359404D01*
X112768095Y-110407023D01*
X112672857Y-110407023D01*
X112577619Y-110359404D01*
X112530000Y-110311785D01*
X112482380Y-110216547D01*
X112482380Y-109978452D01*
X112530000Y-109835595D01*
X112482380Y-109549880D02*
X112482380Y-108978452D01*
X113482380Y-109264166D02*
X112482380Y-109264166D01*
X115022380Y-111454642D02*
X115022380Y-110835595D01*
X115403333Y-111168928D01*
X115403333Y-111026071D01*
X115450952Y-110930833D01*
X115498571Y-110883214D01*
X115593809Y-110835595D01*
X115831904Y-110835595D01*
X115927142Y-110883214D01*
X115974761Y-110930833D01*
X116022380Y-111026071D01*
X116022380Y-111311785D01*
X115974761Y-111407023D01*
X115927142Y-111454642D01*
X115927142Y-110407023D02*
X115974761Y-110359404D01*
X116022380Y-110407023D01*
X115974761Y-110454642D01*
X115927142Y-110407023D01*
X116022380Y-110407023D01*
X115022380Y-110026071D02*
X115022380Y-109407023D01*
X115403333Y-109740357D01*
X115403333Y-109597500D01*
X115450952Y-109502261D01*
X115498571Y-109454642D01*
X115593809Y-109407023D01*
X115831904Y-109407023D01*
X115927142Y-109454642D01*
X115974761Y-109502261D01*
X116022380Y-109597500D01*
X116022380Y-109883214D01*
X115974761Y-109978452D01*
X115927142Y-110026071D01*
X115022380Y-109121309D02*
X116022380Y-108787976D01*
X115022380Y-108454642D01*
X117562380Y-110883214D02*
X117562380Y-111359404D01*
X118038571Y-111407023D01*
X117990952Y-111359404D01*
X117943333Y-111264166D01*
X117943333Y-111026071D01*
X117990952Y-110930833D01*
X118038571Y-110883214D01*
X118133809Y-110835595D01*
X118371904Y-110835595D01*
X118467142Y-110883214D01*
X118514761Y-110930833D01*
X118562380Y-111026071D01*
X118562380Y-111264166D01*
X118514761Y-111359404D01*
X118467142Y-111407023D01*
X117562380Y-110549880D02*
X118562380Y-110216547D01*
X117562380Y-109883214D01*
X125182380Y-111502261D02*
X126182380Y-111168928D01*
X125182380Y-110835595D01*
X126182380Y-110502261D02*
X125515714Y-110502261D01*
X125182380Y-110502261D02*
X125230000Y-110549880D01*
X125277619Y-110502261D01*
X125230000Y-110454642D01*
X125182380Y-110502261D01*
X125277619Y-110502261D01*
X125515714Y-110026071D02*
X126182380Y-110026071D01*
X125610952Y-110026071D02*
X125563333Y-109978452D01*
X125515714Y-109883214D01*
X125515714Y-109740357D01*
X125563333Y-109645119D01*
X125658571Y-109597500D01*
X126182380Y-109597500D01*
X120150000Y-110835595D02*
X120102380Y-110930833D01*
X120102380Y-111073690D01*
X120150000Y-111216547D01*
X120245238Y-111311785D01*
X120340476Y-111359404D01*
X120530952Y-111407023D01*
X120673809Y-111407023D01*
X120864285Y-111359404D01*
X120959523Y-111311785D01*
X121054761Y-111216547D01*
X121102380Y-111073690D01*
X121102380Y-110978452D01*
X121054761Y-110835595D01*
X121007142Y-110787976D01*
X120673809Y-110787976D01*
X120673809Y-110978452D01*
X121102380Y-110359404D02*
X120102380Y-110359404D01*
X121102380Y-109787976D01*
X120102380Y-109787976D01*
X121102380Y-109311785D02*
X120102380Y-109311785D01*
X120102380Y-109073690D01*
X120150000Y-108930833D01*
X120245238Y-108835595D01*
X120340476Y-108787976D01*
X120530952Y-108740357D01*
X120673809Y-108740357D01*
X120864285Y-108787976D01*
X120959523Y-108835595D01*
X121054761Y-108930833D01*
X121102380Y-109073690D01*
X121102380Y-109311785D01*
X122690000Y-110835595D02*
X122642380Y-110930833D01*
X122642380Y-111073690D01*
X122690000Y-111216547D01*
X122785238Y-111311785D01*
X122880476Y-111359404D01*
X123070952Y-111407023D01*
X123213809Y-111407023D01*
X123404285Y-111359404D01*
X123499523Y-111311785D01*
X123594761Y-111216547D01*
X123642380Y-111073690D01*
X123642380Y-110978452D01*
X123594761Y-110835595D01*
X123547142Y-110787976D01*
X123213809Y-110787976D01*
X123213809Y-110978452D01*
X123642380Y-110359404D02*
X122642380Y-110359404D01*
X123642380Y-109787976D01*
X122642380Y-109787976D01*
X123642380Y-109311785D02*
X122642380Y-109311785D01*
X122642380Y-109073690D01*
X122690000Y-108930833D01*
X122785238Y-108835595D01*
X122880476Y-108787976D01*
X123070952Y-108740357D01*
X123213809Y-108740357D01*
X123404285Y-108787976D01*
X123499523Y-108835595D01*
X123594761Y-108930833D01*
X123642380Y-109073690D01*
X123642380Y-109311785D01*
D10*
X119554761Y-95118571D02*
X120983333Y-95118571D01*
X121269047Y-95190000D01*
X121459523Y-95332857D01*
X121554761Y-95547142D01*
X121554761Y-95690000D01*
X121554761Y-94190000D02*
X121459523Y-94332857D01*
X121364285Y-94404285D01*
X121173809Y-94475714D01*
X120602380Y-94475714D01*
X120411904Y-94404285D01*
X120316666Y-94332857D01*
X120221428Y-94190000D01*
X120221428Y-93975714D01*
X120316666Y-93832857D01*
X120411904Y-93761428D01*
X120602380Y-93690000D01*
X121173809Y-93690000D01*
X121364285Y-93761428D01*
X121459523Y-93832857D01*
X121554761Y-93975714D01*
X121554761Y-94190000D01*
X120221428Y-93190000D02*
X121554761Y-92832857D01*
X120221428Y-92475714D02*
X121554761Y-92832857D01*
X122030952Y-92975714D01*
X122126190Y-93047142D01*
X122221428Y-93190000D01*
X121459523Y-91975714D02*
X121554761Y-91832857D01*
X121554761Y-91547142D01*
X121459523Y-91404285D01*
X121269047Y-91332857D01*
X121173809Y-91332857D01*
X120983333Y-91404285D01*
X120888095Y-91547142D01*
X120888095Y-91761428D01*
X120792857Y-91904285D01*
X120602380Y-91975714D01*
X120507142Y-91975714D01*
X120316666Y-91904285D01*
X120221428Y-91761428D01*
X120221428Y-91547142D01*
X120316666Y-91404285D01*
X120221428Y-90904285D02*
X120221428Y-90332857D01*
X119554761Y-90690000D02*
X121269047Y-90690000D01*
X121459523Y-90618571D01*
X121554761Y-90475714D01*
X121554761Y-90332857D01*
X121554761Y-89832857D02*
X120221428Y-89832857D01*
X119554761Y-89832857D02*
X119650000Y-89904285D01*
X119745238Y-89832857D01*
X119650000Y-89761428D01*
X119554761Y-89832857D01*
X119745238Y-89832857D01*
X121459523Y-88475714D02*
X121554761Y-88618571D01*
X121554761Y-88904285D01*
X121459523Y-89047142D01*
X121364285Y-89118571D01*
X121173809Y-89190000D01*
X120602380Y-89190000D01*
X120411904Y-89118571D01*
X120316666Y-89047142D01*
X120221428Y-88904285D01*
X120221428Y-88618571D01*
X120316666Y-88475714D01*
X121554761Y-87832857D02*
X119554761Y-87832857D01*
X120792857Y-87690000D02*
X121554761Y-87261428D01*
X120221428Y-87261428D02*
X120983333Y-87832857D01*
X130444761Y-81037142D02*
X128444761Y-81037142D01*
X128444761Y-80680000D01*
X128540000Y-80465714D01*
X128730476Y-80322857D01*
X128920952Y-80251428D01*
X129301904Y-80180000D01*
X129587619Y-80180000D01*
X129968571Y-80251428D01*
X130159047Y-80322857D01*
X130349523Y-80465714D01*
X130444761Y-80680000D01*
X130444761Y-81037142D01*
X130349523Y-78965714D02*
X130444761Y-79108571D01*
X130444761Y-79394285D01*
X130349523Y-79537142D01*
X130159047Y-79608571D01*
X129397142Y-79608571D01*
X129206666Y-79537142D01*
X129111428Y-79394285D01*
X129111428Y-79108571D01*
X129206666Y-78965714D01*
X129397142Y-78894285D01*
X129587619Y-78894285D01*
X129778095Y-79608571D01*
X128349523Y-79108571D02*
X128635238Y-79322857D01*
X130349523Y-77608571D02*
X130444761Y-77751428D01*
X130444761Y-78037142D01*
X130349523Y-78180000D01*
X130254285Y-78251428D01*
X130063809Y-78322857D01*
X129492380Y-78322857D01*
X129301904Y-78251428D01*
X129206666Y-78180000D01*
X129111428Y-78037142D01*
X129111428Y-77751428D01*
X129206666Y-77608571D01*
X130444761Y-76751428D02*
X130349523Y-76894285D01*
X130159047Y-76965714D01*
X128444761Y-76965714D01*
X130444761Y-76180000D02*
X129111428Y-76180000D01*
X128444761Y-76180000D02*
X128540000Y-76251428D01*
X128635238Y-76180000D01*
X128540000Y-76108571D01*
X128444761Y-76180000D01*
X128635238Y-76180000D01*
X129111428Y-75465714D02*
X130444761Y-75465714D01*
X129301904Y-75465714D02*
X129206666Y-75394285D01*
X129111428Y-75251428D01*
X129111428Y-75037142D01*
X129206666Y-74894285D01*
X129397142Y-74822857D01*
X130444761Y-74822857D01*
X130444761Y-73465714D02*
X129397142Y-73465714D01*
X129206666Y-73537142D01*
X129111428Y-73680000D01*
X129111428Y-73965714D01*
X129206666Y-74108571D01*
X130349523Y-73465714D02*
X130444761Y-73608571D01*
X130444761Y-73965714D01*
X130349523Y-74108571D01*
X130159047Y-74180000D01*
X129968571Y-74180000D01*
X129778095Y-74108571D01*
X129682857Y-73965714D01*
X129682857Y-73608571D01*
X129587619Y-73465714D01*
X130444761Y-72751428D02*
X129111428Y-72751428D01*
X128444761Y-72751428D02*
X128540000Y-72822857D01*
X128635238Y-72751428D01*
X128540000Y-72680000D01*
X128444761Y-72751428D01*
X128635238Y-72751428D01*
X130349523Y-72108571D02*
X130444761Y-71965714D01*
X130444761Y-71680000D01*
X130349523Y-71537142D01*
X130159047Y-71465714D01*
X130063809Y-71465714D01*
X129873333Y-71537142D01*
X129778095Y-71680000D01*
X129778095Y-71894285D01*
X129682857Y-72037142D01*
X129492380Y-72108571D01*
X129397142Y-72108571D01*
X129206666Y-72037142D01*
X129111428Y-71894285D01*
X129111428Y-71680000D01*
X129206666Y-71537142D01*
X130444761Y-70608571D02*
X130349523Y-70751428D01*
X130254285Y-70822857D01*
X130063809Y-70894285D01*
X129492380Y-70894285D01*
X129301904Y-70822857D01*
X129206666Y-70751428D01*
X129111428Y-70608571D01*
X129111428Y-70394285D01*
X129206666Y-70251428D01*
X129301904Y-70180000D01*
X129492380Y-70108571D01*
X130063809Y-70108571D01*
X130254285Y-70180000D01*
X130349523Y-70251428D01*
X130444761Y-70394285D01*
X130444761Y-70608571D01*
X129111428Y-69465714D02*
X130444761Y-69465714D01*
X129301904Y-69465714D02*
X129206666Y-69394285D01*
X129111428Y-69251428D01*
X129111428Y-69037142D01*
X129206666Y-68894285D01*
X129397142Y-68822857D01*
X130444761Y-68822857D01*
X128603333Y-111267142D02*
X128603333Y-110552857D01*
X129174761Y-111410000D02*
X127174761Y-110910000D01*
X129174761Y-110410000D01*
X129079523Y-109981428D02*
X129174761Y-109838571D01*
X129174761Y-109552857D01*
X129079523Y-109410000D01*
X128889047Y-109338571D01*
X128793809Y-109338571D01*
X128603333Y-109410000D01*
X128508095Y-109552857D01*
X128508095Y-109767142D01*
X128412857Y-109910000D01*
X128222380Y-109981428D01*
X128127142Y-109981428D01*
X127936666Y-109910000D01*
X127841428Y-109767142D01*
X127841428Y-109552857D01*
X127936666Y-109410000D01*
X129079523Y-108052857D02*
X129174761Y-108195714D01*
X129174761Y-108481428D01*
X129079523Y-108624285D01*
X128984285Y-108695714D01*
X128793809Y-108767142D01*
X128222380Y-108767142D01*
X128031904Y-108695714D01*
X127936666Y-108624285D01*
X127841428Y-108481428D01*
X127841428Y-108195714D01*
X127936666Y-108052857D01*
X128984285Y-107410000D02*
X129079523Y-107338571D01*
X129174761Y-107410000D01*
X129079523Y-107481428D01*
X128984285Y-107410000D01*
X129174761Y-107410000D01*
X129174761Y-105552857D02*
X127174761Y-105552857D01*
X127174761Y-105195714D01*
X127270000Y-104981428D01*
X127460476Y-104838571D01*
X127650952Y-104767142D01*
X128031904Y-104695714D01*
X128317619Y-104695714D01*
X128698571Y-104767142D01*
X128889047Y-104838571D01*
X129079523Y-104981428D01*
X129174761Y-105195714D01*
X129174761Y-105552857D01*
X129174761Y-104052857D02*
X127841428Y-104052857D01*
X128222380Y-104052857D02*
X128031904Y-103981428D01*
X127936666Y-103910000D01*
X127841428Y-103767142D01*
X127841428Y-103624285D01*
X129174761Y-102910000D02*
X129079523Y-103052857D01*
X128984285Y-103124285D01*
X128793809Y-103195714D01*
X128222380Y-103195714D01*
X128031904Y-103124285D01*
X127936666Y-103052857D01*
X127841428Y-102910000D01*
X127841428Y-102695714D01*
X127936666Y-102552857D01*
X128031904Y-102481428D01*
X128222380Y-102410000D01*
X128793809Y-102410000D01*
X128984285Y-102481428D01*
X129079523Y-102552857D01*
X129174761Y-102695714D01*
X129174761Y-102910000D01*
X129174761Y-101767142D02*
X127841428Y-101767142D01*
X127174761Y-101767142D02*
X127270000Y-101838571D01*
X127365238Y-101767142D01*
X127270000Y-101695714D01*
X127174761Y-101767142D01*
X127365238Y-101767142D01*
X127841428Y-101267142D02*
X127841428Y-100695714D01*
X127174761Y-101052857D02*
X128889047Y-101052857D01*
X129079523Y-100981428D01*
X129174761Y-100838571D01*
X129174761Y-100695714D01*
X129079523Y-99624285D02*
X129174761Y-99767142D01*
X129174761Y-100052857D01*
X129079523Y-100195714D01*
X128889047Y-100267142D01*
X128127142Y-100267142D01*
X127936666Y-100195714D01*
X127841428Y-100052857D01*
X127841428Y-99767142D01*
X127936666Y-99624285D01*
X128127142Y-99552857D01*
X128317619Y-99552857D01*
X128508095Y-100267142D01*
D12*
X107584761Y-95940000D02*
X106632380Y-96273333D01*
X107584761Y-96511428D02*
X105584761Y-96511428D01*
X105584761Y-96130476D01*
X105680000Y-96035238D01*
X105775238Y-95987619D01*
X105965714Y-95940000D01*
X106251428Y-95940000D01*
X106441904Y-95987619D01*
X106537142Y-96035238D01*
X106632380Y-96130476D01*
X106632380Y-96511428D01*
X106251428Y-95082857D02*
X107584761Y-95082857D01*
X106251428Y-95511428D02*
X107299047Y-95511428D01*
X107489523Y-95463809D01*
X107584761Y-95368571D01*
X107584761Y-95225714D01*
X107489523Y-95130476D01*
X107394285Y-95082857D01*
X106251428Y-94606666D02*
X107584761Y-94606666D01*
X106441904Y-94606666D02*
X106346666Y-94559047D01*
X106251428Y-94463809D01*
X106251428Y-94320952D01*
X106346666Y-94225714D01*
X106537142Y-94178095D01*
X107584761Y-94178095D01*
X107489523Y-93749523D02*
X107584761Y-93654285D01*
X107584761Y-93463809D01*
X107489523Y-93368571D01*
X107299047Y-93320952D01*
X107203809Y-93320952D01*
X107013333Y-93368571D01*
X106918095Y-93463809D01*
X106918095Y-93606666D01*
X106822857Y-93701904D01*
X106632380Y-93749523D01*
X106537142Y-93749523D01*
X106346666Y-93701904D01*
X106251428Y-93606666D01*
X106251428Y-93463809D01*
X106346666Y-93368571D01*
X106251428Y-92987619D02*
X107584761Y-92749523D01*
X106251428Y-92511428D02*
X107584761Y-92749523D01*
X108060952Y-92844761D01*
X108156190Y-92892380D01*
X108251428Y-92987619D01*
X107489523Y-92178095D02*
X107584761Y-92082857D01*
X107584761Y-91892380D01*
X107489523Y-91797142D01*
X107299047Y-91749523D01*
X107203809Y-91749523D01*
X107013333Y-91797142D01*
X106918095Y-91892380D01*
X106918095Y-92035238D01*
X106822857Y-92130476D01*
X106632380Y-92178095D01*
X106537142Y-92178095D01*
X106346666Y-92130476D01*
X106251428Y-92035238D01*
X106251428Y-91892380D01*
X106346666Y-91797142D01*
X107489523Y-90130476D02*
X107584761Y-90225714D01*
X107584761Y-90416190D01*
X107489523Y-90511428D01*
X107394285Y-90559047D01*
X107203809Y-90606666D01*
X106632380Y-90606666D01*
X106441904Y-90559047D01*
X106346666Y-90511428D01*
X106251428Y-90416190D01*
X106251428Y-90225714D01*
X106346666Y-90130476D01*
X105775238Y-89749523D02*
X105680000Y-89701904D01*
X105584761Y-89606666D01*
X105584761Y-89368571D01*
X105680000Y-89273333D01*
X105775238Y-89225714D01*
X105965714Y-89178095D01*
X106156190Y-89178095D01*
X106441904Y-89225714D01*
X107584761Y-89797142D01*
X107584761Y-89178095D01*
X105584761Y-88559047D02*
X105584761Y-88463809D01*
X105680000Y-88368571D01*
X105775238Y-88320952D01*
X105965714Y-88273333D01*
X106346666Y-88225714D01*
X106822857Y-88225714D01*
X107203809Y-88273333D01*
X107394285Y-88320952D01*
X107489523Y-88368571D01*
X107584761Y-88463809D01*
X107584761Y-88559047D01*
X107489523Y-88654285D01*
X107394285Y-88701904D01*
X107203809Y-88749523D01*
X106822857Y-88797142D01*
X106346666Y-88797142D01*
X105965714Y-88749523D01*
X105775238Y-88701904D01*
X105680000Y-88654285D01*
X105584761Y-88559047D01*
X107584761Y-87273333D02*
X107584761Y-87844761D01*
X107584761Y-87559047D02*
X105584761Y-87559047D01*
X105870476Y-87654285D01*
X106060952Y-87749523D01*
X106156190Y-87844761D01*
X107584761Y-86797142D02*
X107584761Y-86606666D01*
X107489523Y-86511428D01*
X107394285Y-86463809D01*
X107108571Y-86368571D01*
X106727619Y-86320952D01*
X105965714Y-86320952D01*
X105775238Y-86368571D01*
X105680000Y-86416190D01*
X105584761Y-86511428D01*
X105584761Y-86701904D01*
X105680000Y-86797142D01*
X105775238Y-86844761D01*
X105965714Y-86892380D01*
X106441904Y-86892380D01*
X106632380Y-86844761D01*
X106727619Y-86797142D01*
X106822857Y-86701904D01*
X106822857Y-86511428D01*
X106727619Y-86416190D01*
X106632380Y-86368571D01*
X106441904Y-86320952D01*
D13*
X101314285Y-100138571D02*
X101314285Y-99471904D01*
X103409523Y-99186190D02*
X103409523Y-100138571D01*
X99409523Y-100138571D01*
X99409523Y-99186190D01*
X103790476Y-96995714D02*
X103600000Y-97186190D01*
X103219047Y-97376666D01*
X102647619Y-97662380D01*
X102457142Y-97852857D01*
X102457142Y-98043333D01*
X103409523Y-97948095D02*
X103219047Y-98138571D01*
X102838095Y-98329047D01*
X102076190Y-98424285D01*
X100742857Y-98424285D01*
X99980952Y-98329047D01*
X99600000Y-98138571D01*
X99409523Y-97948095D01*
X99409523Y-97567142D01*
X99600000Y-97376666D01*
X99980952Y-97186190D01*
X100742857Y-97090952D01*
X102076190Y-97090952D01*
X102838095Y-97186190D01*
X103219047Y-97376666D01*
X103409523Y-97567142D01*
X103409523Y-97948095D01*
X99409523Y-95281428D02*
X99409523Y-96233809D01*
X101314285Y-96329047D01*
X101123809Y-96233809D01*
X100933333Y-96043333D01*
X100933333Y-95567142D01*
X101123809Y-95376666D01*
X101314285Y-95281428D01*
X101695238Y-95186190D01*
X102647619Y-95186190D01*
X103028571Y-95281428D01*
X103219047Y-95376666D01*
X103409523Y-95567142D01*
X103409523Y-96043333D01*
X103219047Y-96233809D01*
X103028571Y-96329047D01*
X103409523Y-92805238D02*
X99409523Y-92805238D01*
X99409523Y-92329047D01*
X99600000Y-92043333D01*
X99980952Y-91852857D01*
X100361904Y-91757619D01*
X101123809Y-91662380D01*
X101695238Y-91662380D01*
X102457142Y-91757619D01*
X102838095Y-91852857D01*
X103219047Y-92043333D01*
X103409523Y-92329047D01*
X103409523Y-92805238D01*
X103409523Y-89662380D02*
X101504761Y-90329047D01*
X103409523Y-90805238D02*
X99409523Y-90805238D01*
X99409523Y-90043333D01*
X99600000Y-89852857D01*
X99790476Y-89757619D01*
X100171428Y-89662380D01*
X100742857Y-89662380D01*
X101123809Y-89757619D01*
X101314285Y-89852857D01*
X101504761Y-90043333D01*
X101504761Y-90805238D01*
X103409523Y-88805238D02*
X99409523Y-88805238D01*
X99409523Y-88138571D02*
X103409523Y-87471904D01*
X99409523Y-86805238D01*
X101314285Y-86138571D02*
X101314285Y-85471904D01*
X103409523Y-85186190D02*
X103409523Y-86138571D01*
X99409523Y-86138571D01*
X99409523Y-85186190D01*
D14*
X125520000Y-97940000D02*
X126770000Y-97940000D01*
X125520000Y-96690000D02*
X125520000Y-97940000D01*
X131020000Y-83290000D02*
X131020000Y-90090000D01*
X128070000Y-83290000D02*
X131020000Y-83290000D01*
X128070000Y-82540000D02*
X128070000Y-83290000D01*
X131020000Y-96890000D02*
X131020000Y-90090000D01*
X128070000Y-96890000D02*
X131020000Y-96890000D01*
X128070000Y-97640000D02*
X128070000Y-96890000D01*
X125820000Y-82540000D02*
X125820000Y-84340000D01*
X126570000Y-82540000D02*
X125820000Y-82540000D01*
X126570000Y-84340000D02*
X126570000Y-82540000D01*
X125820000Y-84340000D02*
X126570000Y-84340000D01*
X125820000Y-95840000D02*
X125820000Y-97640000D01*
X126570000Y-95840000D02*
X125820000Y-95840000D01*
X126570000Y-97640000D02*
X126570000Y-95840000D01*
X125820000Y-97640000D02*
X126570000Y-97640000D01*
X125820000Y-85840000D02*
X125820000Y-94340000D01*
X126570000Y-85840000D02*
X125820000Y-85840000D01*
X126570000Y-94340000D02*
X126570000Y-85840000D01*
X125820000Y-94340000D02*
X126570000Y-94340000D01*
X125810000Y-82530000D02*
X125810000Y-97650000D01*
X131780000Y-82530000D02*
X125810000Y-82530000D01*
X131780000Y-97650000D02*
X131780000Y-82530000D01*
X125810000Y-97650000D02*
X131780000Y-97650000D01*
X139910000Y-68270000D02*
X138660000Y-68270000D01*
X139910000Y-69520000D02*
X139910000Y-68270000D01*
X134410000Y-80420000D02*
X134410000Y-74870000D01*
X137360000Y-80420000D02*
X134410000Y-80420000D01*
X137360000Y-81170000D02*
X137360000Y-80420000D01*
X134410000Y-69320000D02*
X134410000Y-74870000D01*
X137360000Y-69320000D02*
X134410000Y-69320000D01*
X137360000Y-68570000D02*
X137360000Y-69320000D01*
X139610000Y-81170000D02*
X139610000Y-79370000D01*
X138860000Y-81170000D02*
X139610000Y-81170000D01*
X138860000Y-79370000D02*
X138860000Y-81170000D01*
X139610000Y-79370000D02*
X138860000Y-79370000D01*
X139610000Y-70370000D02*
X139610000Y-68570000D01*
X138860000Y-70370000D02*
X139610000Y-70370000D01*
X138860000Y-68570000D02*
X138860000Y-70370000D01*
X139610000Y-68570000D02*
X138860000Y-68570000D01*
X139610000Y-77870000D02*
X139610000Y-71870000D01*
X138860000Y-77870000D02*
X139610000Y-77870000D01*
X138860000Y-71870000D02*
X138860000Y-77870000D01*
X139610000Y-71870000D02*
X138860000Y-71870000D01*
X139620000Y-81180000D02*
X139620000Y-68560000D01*
X133650000Y-81180000D02*
X139620000Y-81180000D01*
X133650000Y-68560000D02*
X133650000Y-81180000D01*
X139620000Y-68560000D02*
X133650000Y-68560000D01*
X139910000Y-98750000D02*
X138660000Y-98750000D01*
X139910000Y-100000000D02*
X139910000Y-98750000D01*
X134410000Y-110900000D02*
X134410000Y-105350000D01*
X137360000Y-110900000D02*
X134410000Y-110900000D01*
X137360000Y-111650000D02*
X137360000Y-110900000D01*
X134410000Y-99800000D02*
X134410000Y-105350000D01*
X137360000Y-99800000D02*
X134410000Y-99800000D01*
X137360000Y-99050000D02*
X137360000Y-99800000D01*
X139610000Y-111650000D02*
X139610000Y-109850000D01*
X138860000Y-111650000D02*
X139610000Y-111650000D01*
X138860000Y-109850000D02*
X138860000Y-111650000D01*
X139610000Y-109850000D02*
X138860000Y-109850000D01*
X139610000Y-100850000D02*
X139610000Y-99050000D01*
X138860000Y-100850000D02*
X139610000Y-100850000D01*
X138860000Y-99050000D02*
X138860000Y-100850000D01*
X139610000Y-99050000D02*
X138860000Y-99050000D01*
X139610000Y-108350000D02*
X139610000Y-102350000D01*
X138860000Y-108350000D02*
X139610000Y-108350000D01*
X138860000Y-102350000D02*
X138860000Y-108350000D01*
X139610000Y-102350000D02*
X138860000Y-102350000D01*
X139620000Y-111660000D02*
X139620000Y-99040000D01*
X133650000Y-111660000D02*
X139620000Y-111660000D01*
X133650000Y-99040000D02*
X133650000Y-111660000D01*
X139620000Y-99040000D02*
X133650000Y-99040000D01*
X139610000Y-86575000D02*
X139610000Y-85909000D01*
X139610000Y-89351000D02*
X139610000Y-88685000D01*
X144950000Y-86575000D02*
X144950000Y-85909000D01*
X144950000Y-89351000D02*
X144950000Y-88685000D01*
X144950000Y-85909000D02*
X139610000Y-85909000D01*
X144950000Y-89351000D02*
X139610000Y-89351000D01*
X144950000Y-95035000D02*
X144950000Y-95701000D01*
X144950000Y-92259000D02*
X144950000Y-92925000D01*
X139610000Y-95035000D02*
X139610000Y-95701000D01*
X139610000Y-92259000D02*
X139610000Y-92925000D01*
X139610000Y-95701000D02*
X144950000Y-95701000D01*
X139610000Y-92259000D02*
X144950000Y-92259000D01*
D15*
G36*
X98957783Y-73932146D02*
G01*
X99006526Y-73967474D01*
X99046585Y-74025678D01*
X99060000Y-74074421D01*
X99041384Y-74132183D01*
X98997182Y-74189788D01*
X98944867Y-74227530D01*
X98919632Y-74232731D01*
X98864553Y-74222086D01*
X98846105Y-74216287D01*
X98782402Y-74170354D01*
X98743503Y-74099902D01*
X98740046Y-74075562D01*
X98845879Y-74075562D01*
X98864487Y-74110627D01*
X98903197Y-74121458D01*
X98934686Y-74095144D01*
X98939684Y-74072559D01*
X98917459Y-74036391D01*
X98892895Y-74026037D01*
X98855362Y-74037511D01*
X98845879Y-74075562D01*
X98740046Y-74075562D01*
X98739158Y-74069311D01*
X98761557Y-74006778D01*
X98815366Y-73949271D01*
X98880502Y-73916234D01*
X98899579Y-73914000D01*
X98957783Y-73932146D01*
G37*
X98957783Y-73932146D02*
X99006526Y-73967474D01*
X99046585Y-74025678D01*
X99060000Y-74074421D01*
X99041384Y-74132183D01*
X98997182Y-74189788D01*
X98944867Y-74227530D01*
X98919632Y-74232731D01*
X98864553Y-74222086D01*
X98846105Y-74216287D01*
X98782402Y-74170354D01*
X98743503Y-74099902D01*
X98740046Y-74075562D01*
X98845879Y-74075562D01*
X98864487Y-74110627D01*
X98903197Y-74121458D01*
X98934686Y-74095144D01*
X98939684Y-74072559D01*
X98917459Y-74036391D01*
X98892895Y-74026037D01*
X98855362Y-74037511D01*
X98845879Y-74075562D01*
X98740046Y-74075562D01*
X98739158Y-74069311D01*
X98761557Y-74006778D01*
X98815366Y-73949271D01*
X98880502Y-73916234D01*
X98899579Y-73914000D01*
X98957783Y-73932146D01*
G36*
X104412146Y-81382217D02*
G01*
X104447474Y-81333474D01*
X104505678Y-81293415D01*
X104554421Y-81280000D01*
X104612183Y-81298616D01*
X104669788Y-81342818D01*
X104707530Y-81395133D01*
X104712731Y-81420368D01*
X104702086Y-81475447D01*
X104696287Y-81493895D01*
X104650354Y-81557598D01*
X104579902Y-81596497D01*
X104555562Y-81599954D01*
X104555562Y-81494121D01*
X104590627Y-81475513D01*
X104601458Y-81436803D01*
X104575144Y-81405314D01*
X104552559Y-81400316D01*
X104516391Y-81422541D01*
X104506037Y-81447105D01*
X104517511Y-81484638D01*
X104555562Y-81494121D01*
X104555562Y-81599954D01*
X104549311Y-81600842D01*
X104486778Y-81578443D01*
X104429271Y-81524634D01*
X104396234Y-81459498D01*
X104394000Y-81440421D01*
X104412146Y-81382217D01*
G37*
X104412146Y-81382217D02*
X104447474Y-81333474D01*
X104505678Y-81293415D01*
X104554421Y-81280000D01*
X104612183Y-81298616D01*
X104669788Y-81342818D01*
X104707530Y-81395133D01*
X104712731Y-81420368D01*
X104702086Y-81475447D01*
X104696287Y-81493895D01*
X104650354Y-81557598D01*
X104579902Y-81596497D01*
X104555562Y-81599954D01*
X104555562Y-81494121D01*
X104590627Y-81475513D01*
X104601458Y-81436803D01*
X104575144Y-81405314D01*
X104552559Y-81400316D01*
X104516391Y-81422541D01*
X104506037Y-81447105D01*
X104517511Y-81484638D01*
X104555562Y-81494121D01*
X104555562Y-81599954D01*
X104549311Y-81600842D01*
X104486778Y-81578443D01*
X104429271Y-81524634D01*
X104396234Y-81459498D01*
X104394000Y-81440421D01*
X104412146Y-81382217D01*
D16*
G36*
X99766084Y-82108038D02*
G01*
X99831311Y-82020452D01*
X99902211Y-81978860D01*
X99944188Y-81970338D01*
X99994878Y-81979019D01*
X100066534Y-82008712D01*
X100168774Y-82061802D01*
X100368494Y-82170151D01*
X100495806Y-82028009D01*
X100564728Y-81945759D01*
X100597590Y-81891339D01*
X100598558Y-81857346D01*
X100594924Y-81851896D01*
X100572837Y-81797016D01*
X100571760Y-81769541D01*
X100574038Y-81722795D01*
X100564343Y-81707032D01*
X100536976Y-81725257D01*
X100486238Y-81780472D01*
X100434489Y-81841868D01*
X100353730Y-81935644D01*
X100294425Y-81993111D01*
X100246106Y-82020858D01*
X100226822Y-82022720D01*
X100226822Y-81961789D01*
X100308855Y-81868210D01*
X100381175Y-81785998D01*
X100455950Y-81701412D01*
X100469936Y-81685652D01*
X100610331Y-81521756D01*
X100710726Y-81390979D01*
X100772042Y-81292016D01*
X100794907Y-81226546D01*
X100810279Y-81157506D01*
X100831002Y-81113222D01*
X100935812Y-80980203D01*
X101034598Y-80852664D01*
X101122133Y-80737568D01*
X101193194Y-80641879D01*
X101242553Y-80572559D01*
X101264987Y-80536572D01*
X101265790Y-80533813D01*
X101247703Y-80501809D01*
X101219000Y-80472737D01*
X101174436Y-80438027D01*
X101136843Y-80424263D01*
X101097710Y-80435893D01*
X101048526Y-80477367D01*
X100980779Y-80553134D01*
X100915962Y-80631133D01*
X100814601Y-80750146D01*
X100701770Y-80876059D01*
X100594942Y-80989617D01*
X100545548Y-81039368D01*
X100454451Y-81134391D01*
X100347024Y-81255348D01*
X100238336Y-81384891D01*
X100164203Y-81478360D01*
X100079797Y-81589268D01*
X100024249Y-81666684D01*
X99993240Y-81719052D01*
X99982448Y-81754815D01*
X99987554Y-81782417D01*
X99998622Y-81801940D01*
X100047555Y-81853096D01*
X100118591Y-81903620D01*
X100131847Y-81911053D01*
X100226822Y-81961789D01*
X100226822Y-82022720D01*
X100198302Y-82025474D01*
X100155471Y-82017466D01*
X100100295Y-81989886D01*
X100031218Y-81937655D01*
X99961873Y-81873648D01*
X99905892Y-81810740D01*
X99876906Y-81761807D01*
X99875474Y-81753017D01*
X99891974Y-81718118D01*
X99937054Y-81651189D01*
X100004083Y-81560447D01*
X100086431Y-81454105D01*
X100177466Y-81340379D01*
X100270558Y-81227484D01*
X100359076Y-81123636D01*
X100436390Y-81037049D01*
X100495867Y-80975939D01*
X100518745Y-80956036D01*
X100570985Y-80907855D01*
X100645641Y-80828053D01*
X100732840Y-80727634D01*
X100822708Y-80617601D01*
X100824632Y-80615166D01*
X100927225Y-80489416D01*
X101007204Y-80404348D01*
X101071815Y-80356284D01*
X101128303Y-80341546D01*
X101183915Y-80356457D01*
X101245894Y-80397339D01*
X101248984Y-80399758D01*
X101303247Y-80445215D01*
X101335415Y-80485487D01*
X101343434Y-80528928D01*
X101325250Y-80583890D01*
X101278809Y-80658729D01*
X101202057Y-80761796D01*
X101140534Y-80840747D01*
X101033142Y-80979171D01*
X100956177Y-81082801D01*
X100906069Y-81158121D01*
X100879249Y-81211611D01*
X100872147Y-81249756D01*
X100881194Y-81279036D01*
X100891376Y-81293251D01*
X100922044Y-81320217D01*
X100953741Y-81308589D01*
X100974522Y-81290800D01*
X101027559Y-81262595D01*
X101064753Y-81262736D01*
X101095064Y-81255178D01*
X101144151Y-81213284D01*
X101215404Y-81133608D01*
X101312212Y-81012705D01*
X101317955Y-81005294D01*
X101416819Y-80878956D01*
X101522210Y-80746558D01*
X101620401Y-80625235D01*
X101687003Y-80544737D01*
X101791428Y-80419517D01*
X101911002Y-80274393D01*
X102036875Y-80120268D01*
X102160198Y-79968046D01*
X102272123Y-79828633D01*
X102363799Y-79712931D01*
X102404672Y-79660382D01*
X102452536Y-79599474D01*
X102529820Y-79502749D01*
X102632028Y-79375729D01*
X102754661Y-79223938D01*
X102893221Y-79052898D01*
X103043210Y-78868132D01*
X103200131Y-78675161D01*
X103359486Y-78479509D01*
X103516776Y-78286698D01*
X103667504Y-78102252D01*
X103807173Y-77931691D01*
X103931283Y-77780540D01*
X104035338Y-77654321D01*
X104114839Y-77558555D01*
X104163554Y-77500783D01*
X104232557Y-77422132D01*
X104289272Y-77368515D01*
X104343393Y-77339690D01*
X104404613Y-77335414D01*
X104482624Y-77355445D01*
X104587120Y-77399540D01*
X104727794Y-77467456D01*
X104764882Y-77485729D01*
X104913751Y-77563562D01*
X105031149Y-77637418D01*
X105136194Y-77720631D01*
X105234994Y-77813567D01*
X105343486Y-77928074D01*
X105444972Y-78047809D01*
X105532859Y-78163683D01*
X105600553Y-78266609D01*
X105641462Y-78347496D01*
X105650632Y-78386517D01*
X105634333Y-78416523D01*
X105587509Y-78484045D01*
X105557053Y-78525469D01*
X105557053Y-78419158D01*
X105570421Y-78405789D01*
X105557053Y-78392421D01*
X105543684Y-78405789D01*
X105557053Y-78419158D01*
X105557053Y-78525469D01*
X105513266Y-78585027D01*
X105414709Y-78715411D01*
X105294946Y-78871142D01*
X105157082Y-79048161D01*
X105004223Y-79242413D01*
X104839477Y-79449841D01*
X104767300Y-79540145D01*
X104559169Y-79800771D01*
X104383287Y-80022633D01*
X104237819Y-80208171D01*
X104120930Y-80359823D01*
X104030784Y-80480031D01*
X103965546Y-80571231D01*
X103923381Y-80635864D01*
X103902452Y-80676369D01*
X103899768Y-80693048D01*
X103897288Y-80750013D01*
X103870523Y-80811571D01*
X103856849Y-80835856D01*
X103856849Y-80529521D01*
X103878584Y-80509077D01*
X103926396Y-80454650D01*
X103993385Y-80374353D01*
X104072652Y-80276298D01*
X104078594Y-80268836D01*
X104144266Y-80186616D01*
X104238057Y-80069632D01*
X104354474Y-79924710D01*
X104488027Y-79758678D01*
X104633226Y-79578363D01*
X104784579Y-79390592D01*
X104910407Y-79234631D01*
X105070528Y-79034862D01*
X105208754Y-78859558D01*
X105322894Y-78711637D01*
X105410757Y-78594011D01*
X105470149Y-78509598D01*
X105498881Y-78461312D01*
X105499866Y-78450618D01*
X105473430Y-78420627D01*
X105463474Y-78365952D01*
X105472795Y-78307770D01*
X105493309Y-78279984D01*
X105490527Y-78256533D01*
X105459173Y-78201256D01*
X105404964Y-78123363D01*
X105358600Y-78062977D01*
X105282376Y-77968800D01*
X105230832Y-77911400D01*
X105196554Y-77884781D01*
X105172123Y-77882952D01*
X105153065Y-77896904D01*
X105102648Y-77933692D01*
X105060888Y-77923382D01*
X105034744Y-77896656D01*
X105014666Y-77853779D01*
X105031470Y-77824467D01*
X105058920Y-77785626D01*
X105062421Y-77772399D01*
X105040469Y-77744526D01*
X104982116Y-77699517D01*
X104898619Y-77644491D01*
X104801233Y-77586568D01*
X104701216Y-77532865D01*
X104630878Y-77499477D01*
X104548769Y-77464662D01*
X104505114Y-77451408D01*
X104490002Y-77458460D01*
X104492838Y-77481984D01*
X104487793Y-77534893D01*
X104444606Y-77557223D01*
X104393761Y-77550134D01*
X104348010Y-77516694D01*
X104348340Y-77470043D01*
X104387316Y-77430238D01*
X104418039Y-77408631D01*
X104400220Y-77406467D01*
X104380998Y-77409153D01*
X104364781Y-77415154D01*
X104342314Y-77430920D01*
X104311139Y-77459356D01*
X104268797Y-77503365D01*
X104212828Y-77565852D01*
X104140773Y-77649722D01*
X104050173Y-77757878D01*
X103938568Y-77893224D01*
X103803499Y-78058666D01*
X103642508Y-78257107D01*
X103453134Y-78491451D01*
X103232919Y-78764603D01*
X103226741Y-78772272D01*
X103091945Y-78941036D01*
X102969394Y-79097230D01*
X102862819Y-79235883D01*
X102775951Y-79352023D01*
X102712522Y-79440678D01*
X102676262Y-79496876D01*
X102669302Y-79515090D01*
X102694065Y-79540285D01*
X102752741Y-79593770D01*
X102839107Y-79670233D01*
X102946942Y-79764357D01*
X103070025Y-79870829D01*
X103202135Y-79984335D01*
X103337050Y-80099560D01*
X103468549Y-80211189D01*
X103590411Y-80313909D01*
X103696414Y-80402405D01*
X103780338Y-80471362D01*
X103835961Y-80515467D01*
X103856849Y-80529521D01*
X103856849Y-80835856D01*
X103841608Y-80862924D01*
X103844939Y-80897519D01*
X103872767Y-80932571D01*
X103897425Y-80964469D01*
X103900086Y-80994044D01*
X103876546Y-81035679D01*
X103822817Y-81103491D01*
X103770217Y-81171568D01*
X103735520Y-81223951D01*
X103727058Y-81244394D01*
X103747169Y-81274177D01*
X103794709Y-81318635D01*
X103804772Y-81326755D01*
X103881005Y-81386878D01*
X104302130Y-80818926D01*
X104415331Y-80665214D01*
X104517896Y-80523953D01*
X104605479Y-80401288D01*
X104673734Y-80303366D01*
X104718318Y-80236331D01*
X104734746Y-80207031D01*
X104730064Y-80159858D01*
X104717171Y-80145124D01*
X104689763Y-80100909D01*
X104699451Y-80036331D01*
X104743278Y-79966457D01*
X104754599Y-79954444D01*
X104801448Y-79912052D01*
X104838366Y-79903103D01*
X104890785Y-79924062D01*
X104908336Y-79933065D01*
X105039685Y-80012898D01*
X105118330Y-80089935D01*
X105144887Y-80165443D01*
X105119970Y-80240693D01*
X105079823Y-80286948D01*
X105023833Y-80326758D01*
X105005102Y-80326983D01*
X105005102Y-80242750D01*
X105031707Y-80230546D01*
X105060661Y-80173383D01*
X105036275Y-80113256D01*
X104968886Y-80056789D01*
X104875909Y-80007840D01*
X104812832Y-80001560D01*
X104777602Y-80037733D01*
X104782590Y-80088177D01*
X104821888Y-80144565D01*
X104881443Y-80196233D01*
X104947199Y-80232516D01*
X105005102Y-80242750D01*
X105005102Y-80326983D01*
X104970477Y-80327400D01*
X104952166Y-80321299D01*
X104930412Y-80315859D01*
X104907527Y-80319893D01*
X104879202Y-80338119D01*
X104841130Y-80375256D01*
X104789000Y-80436025D01*
X104718503Y-80525145D01*
X104625331Y-80647336D01*
X104505175Y-80807318D01*
X104490381Y-80827083D01*
X104352903Y-81010613D01*
X104244324Y-81155608D01*
X104161797Y-81266560D01*
X104102474Y-81347964D01*
X104063505Y-81404312D01*
X104042042Y-81440099D01*
X104035238Y-81459816D01*
X104040243Y-81467959D01*
X104054210Y-81469020D01*
X104074289Y-81467492D01*
X104084631Y-81467158D01*
X104138978Y-81452484D01*
X104191587Y-81402092D01*
X104225462Y-81353526D01*
X104269235Y-81289773D01*
X104336346Y-81197211D01*
X104417722Y-81087811D01*
X104504292Y-80973545D01*
X104586984Y-80866386D01*
X104656724Y-80778305D01*
X104704441Y-80721274D01*
X104705306Y-80720313D01*
X104736155Y-80697924D01*
X104770995Y-80711662D01*
X104796975Y-80733635D01*
X104832548Y-80762592D01*
X104859959Y-80765152D01*
X104894265Y-80736135D01*
X104938176Y-80685057D01*
X104995170Y-80626466D01*
X105044924Y-80590819D01*
X105062421Y-80585691D01*
X105119710Y-80602764D01*
X105164153Y-80640559D01*
X105176896Y-80682598D01*
X105176171Y-80685105D01*
X105184255Y-80700512D01*
X105225155Y-80710697D01*
X105305370Y-80716431D01*
X105431401Y-80718487D01*
X105457378Y-80718526D01*
X105749843Y-80718526D01*
X105773764Y-80635515D01*
X105779178Y-80620928D01*
X105788829Y-80605896D01*
X105805649Y-80589020D01*
X105832571Y-80568898D01*
X105872529Y-80544131D01*
X105928456Y-80513318D01*
X106003284Y-80475059D01*
X106099947Y-80427954D01*
X106221378Y-80370601D01*
X106370510Y-80301602D01*
X106550276Y-80219555D01*
X106763608Y-80123060D01*
X107013441Y-80010717D01*
X107302706Y-79881126D01*
X107634338Y-79732886D01*
X108011269Y-79564596D01*
X108097053Y-79526310D01*
X108487686Y-79352072D01*
X108832590Y-79198490D01*
X109134801Y-79064286D01*
X109397358Y-78948181D01*
X109623298Y-78848896D01*
X109815659Y-78765151D01*
X109977477Y-78695669D01*
X110111791Y-78639169D01*
X110221638Y-78594372D01*
X110310056Y-78560001D01*
X110380082Y-78534775D01*
X110434754Y-78517415D01*
X110477110Y-78506643D01*
X110510186Y-78501180D01*
X110535049Y-78499743D01*
X110666126Y-78508490D01*
X110757924Y-78534299D01*
X110805279Y-78575311D01*
X110810718Y-78598970D01*
X110797447Y-78650154D01*
X110755310Y-78706255D01*
X110680430Y-78770018D01*
X110568933Y-78844189D01*
X110416943Y-78931511D01*
X110220584Y-79034731D01*
X110133426Y-79078746D01*
X110017032Y-79136695D01*
X109864173Y-79212307D01*
X109679551Y-79303286D01*
X109467871Y-79407337D01*
X109233837Y-79522165D01*
X108982151Y-79645475D01*
X108717519Y-79774973D01*
X108444644Y-79908363D01*
X108168229Y-80043351D01*
X107892979Y-80177641D01*
X107623597Y-80308939D01*
X107364787Y-80434949D01*
X107121253Y-80553377D01*
X106897698Y-80661928D01*
X106698827Y-80758306D01*
X106529343Y-80840217D01*
X106393950Y-80905366D01*
X106297352Y-80951458D01*
X106245526Y-80975627D01*
X106164261Y-81015805D01*
X106121798Y-81050031D01*
X106109401Y-81082035D01*
X106109401Y-80937159D01*
X107464174Y-80275234D01*
X107750490Y-80135295D01*
X108050916Y-79988369D01*
X108356685Y-79838751D01*
X108659028Y-79690736D01*
X108949174Y-79548616D01*
X109218356Y-79416687D01*
X109457804Y-79299242D01*
X109658750Y-79200576D01*
X109674526Y-79192823D01*
X109947735Y-79057739D01*
X110174348Y-78943778D01*
X110356359Y-78849731D01*
X110495760Y-78774386D01*
X110594541Y-78716536D01*
X110654697Y-78674969D01*
X110678218Y-78648476D01*
X110667098Y-78635848D01*
X110623327Y-78635875D01*
X110582599Y-78641401D01*
X110508692Y-78661374D01*
X110410483Y-78698096D01*
X110369684Y-78716320D01*
X110369684Y-78633052D01*
X110383053Y-78619684D01*
X110369684Y-78606316D01*
X110356316Y-78619684D01*
X110369684Y-78633052D01*
X110369684Y-78716320D01*
X110321915Y-78737659D01*
X110302842Y-78746817D01*
X110302842Y-78659789D01*
X110324850Y-78650007D01*
X110320667Y-78641965D01*
X110288936Y-78638765D01*
X110285018Y-78641965D01*
X110288688Y-78657860D01*
X110302842Y-78659789D01*
X110302842Y-78746817D01*
X110236000Y-78778913D01*
X110236000Y-78686526D01*
X110249368Y-78673158D01*
X110236000Y-78659789D01*
X110222632Y-78673158D01*
X110236000Y-78686526D01*
X110236000Y-78778913D01*
X110214395Y-78789288D01*
X110084143Y-78850776D01*
X109957116Y-78909880D01*
X109941895Y-78916887D01*
X109844956Y-78962022D01*
X109713155Y-79024202D01*
X109559741Y-79097136D01*
X109397965Y-79174529D01*
X109286842Y-79227988D01*
X109124380Y-79305782D01*
X108958327Y-79384308D01*
X108802768Y-79456972D01*
X108671787Y-79517179D01*
X108605053Y-79547153D01*
X108489196Y-79599298D01*
X108381071Y-79649584D01*
X108297360Y-79690185D01*
X108270842Y-79703887D01*
X108212376Y-79733661D01*
X108117346Y-79780172D01*
X107997694Y-79837650D01*
X107865361Y-79900324D01*
X107829684Y-79917071D01*
X107691370Y-79982046D01*
X107558010Y-80045013D01*
X107443162Y-80099551D01*
X107360385Y-80139236D01*
X107348421Y-80145045D01*
X107271904Y-80181918D01*
X107161563Y-80234559D01*
X107031987Y-80296027D01*
X106897766Y-80359386D01*
X106893895Y-80361208D01*
X106732876Y-80437087D01*
X106550113Y-80523353D01*
X106371219Y-80607910D01*
X106256612Y-80662164D01*
X106004895Y-80781436D01*
X106004895Y-80683155D01*
X106034732Y-80669231D01*
X106108300Y-80634446D01*
X106221064Y-80580957D01*
X106368487Y-80510921D01*
X106546034Y-80426493D01*
X106749170Y-80329829D01*
X106973359Y-80223087D01*
X107214066Y-80108423D01*
X107348421Y-80044397D01*
X107627755Y-79911391D01*
X107918672Y-79773097D01*
X108212608Y-79633573D01*
X108500999Y-79496876D01*
X108775278Y-79367062D01*
X109026882Y-79248188D01*
X109247246Y-79144311D01*
X109425572Y-79060534D01*
X109612393Y-78972600D01*
X109782238Y-78891918D01*
X109929421Y-78821247D01*
X110048260Y-78763346D01*
X110133069Y-78720973D01*
X110178164Y-78696888D01*
X110183993Y-78692449D01*
X110158773Y-78701604D01*
X110088643Y-78730843D01*
X109977523Y-78778451D01*
X109829333Y-78842714D01*
X109647991Y-78921916D01*
X109437417Y-79014341D01*
X109201529Y-79118276D01*
X108944247Y-79232003D01*
X108669490Y-79353809D01*
X108454421Y-79449384D01*
X108051733Y-79628515D01*
X107695094Y-79787212D01*
X107381711Y-79926804D01*
X107108788Y-80048620D01*
X106873533Y-80153992D01*
X106673150Y-80244248D01*
X106504844Y-80320719D01*
X106365823Y-80384734D01*
X106253291Y-80437623D01*
X106164455Y-80480717D01*
X106096519Y-80515344D01*
X106046689Y-80542836D01*
X106012172Y-80564521D01*
X105990173Y-80581729D01*
X105977897Y-80595791D01*
X105972550Y-80608036D01*
X105971338Y-80619794D01*
X105971474Y-80631049D01*
X105981883Y-80679195D01*
X106004895Y-80683155D01*
X106004895Y-80781436D01*
X105940170Y-80812105D01*
X106024786Y-80874632D01*
X106109401Y-80937159D01*
X106109401Y-81082035D01*
X106106392Y-81089804D01*
X106105158Y-81113073D01*
X106105158Y-81187452D01*
X107458876Y-81434474D01*
X107723061Y-81483076D01*
X107972909Y-81529798D01*
X108203164Y-81573605D01*
X108408568Y-81613462D01*
X108583863Y-81648333D01*
X108723792Y-81677181D01*
X108823097Y-81698972D01*
X108876522Y-81712669D01*
X108882613Y-81714946D01*
X108940136Y-81761767D01*
X108961135Y-81819925D01*
X108942348Y-81873018D01*
X108917831Y-81892108D01*
X108904218Y-81898168D01*
X108885674Y-81902873D01*
X108858246Y-81906019D01*
X108824443Y-81907182D01*
X108824443Y-81825273D01*
X108865077Y-81823941D01*
X108866713Y-81823371D01*
X108877838Y-81809066D01*
X108862451Y-81793551D01*
X108815951Y-81775560D01*
X108733740Y-81753831D01*
X108611216Y-81727100D01*
X108443781Y-81694101D01*
X108293812Y-81665932D01*
X108115692Y-81633140D01*
X107938558Y-81600929D01*
X107775625Y-81571672D01*
X107640111Y-81547744D01*
X107552329Y-81532698D01*
X107444070Y-81513957D01*
X107352841Y-81496880D01*
X107294131Y-81484408D01*
X107284961Y-81481938D01*
X107246661Y-81473539D01*
X107166009Y-81458075D01*
X107052675Y-81437238D01*
X106916327Y-81412721D01*
X106766635Y-81386215D01*
X106613269Y-81359412D01*
X106465898Y-81334003D01*
X106334190Y-81311682D01*
X106227816Y-81294138D01*
X106156446Y-81283065D01*
X106130809Y-81280000D01*
X106118167Y-81304471D01*
X106109006Y-81368871D01*
X106105178Y-81459680D01*
X106105158Y-81467158D01*
X106106363Y-81565149D01*
X106112461Y-81621335D01*
X106127179Y-81647371D01*
X106154244Y-81654911D01*
X106165316Y-81655309D01*
X106214496Y-81657588D01*
X106304351Y-81663067D01*
X106422234Y-81670935D01*
X106555497Y-81680376D01*
X106559684Y-81680681D01*
X106945238Y-81708507D01*
X107304097Y-81733813D01*
X107633355Y-81756418D01*
X107930104Y-81776143D01*
X108191435Y-81792809D01*
X108414443Y-81806234D01*
X108596218Y-81816240D01*
X108733854Y-81822646D01*
X108824443Y-81825273D01*
X108824443Y-81907182D01*
X108817984Y-81907405D01*
X108760937Y-81906828D01*
X108683151Y-81904086D01*
X108580677Y-81898976D01*
X108449562Y-81891296D01*
X108285856Y-81880844D01*
X108085606Y-81867418D01*
X107844861Y-81850814D01*
X107559670Y-81830832D01*
X107226081Y-81807267D01*
X107134773Y-81800801D01*
X106914815Y-81785315D01*
X106710489Y-81771113D01*
X106528247Y-81758629D01*
X106374546Y-81748299D01*
X106255839Y-81740557D01*
X106178581Y-81735837D01*
X106150418Y-81734526D01*
X106115323Y-81747561D01*
X106108866Y-81795167D01*
X106110066Y-81807257D01*
X106110483Y-81818863D01*
X106110391Y-81828894D01*
X106112296Y-81838997D01*
X106118704Y-81850817D01*
X106132120Y-81866003D01*
X106155050Y-81886198D01*
X106189997Y-81913052D01*
X106239469Y-81948208D01*
X106305970Y-81993315D01*
X106392005Y-82050019D01*
X106500080Y-82119965D01*
X106632700Y-82204801D01*
X106792370Y-82306172D01*
X106981597Y-82425726D01*
X107202884Y-82565108D01*
X107458737Y-82725965D01*
X107751663Y-82909944D01*
X108084165Y-83118690D01*
X108458750Y-83353851D01*
X108564947Y-83420530D01*
X108952947Y-83664272D01*
X109298081Y-83881377D01*
X109602867Y-84073490D01*
X109869823Y-84242252D01*
X110101467Y-84389308D01*
X110300317Y-84516300D01*
X110468890Y-84624872D01*
X110609705Y-84716668D01*
X110725280Y-84793329D01*
X110818132Y-84856501D01*
X110890779Y-84907825D01*
X110945740Y-84948945D01*
X110985532Y-84981505D01*
X111012673Y-85007148D01*
X111029681Y-85027517D01*
X111031594Y-85030341D01*
X111069095Y-85110387D01*
X111076812Y-85181470D01*
X111060386Y-85219228D01*
X111030157Y-85234287D01*
X110981451Y-85232910D01*
X110947362Y-85223611D01*
X110947362Y-85130105D01*
X110960606Y-85128911D01*
X110962504Y-85122953D01*
X110947943Y-85108674D01*
X110911809Y-85082511D01*
X110848989Y-85040905D01*
X110754369Y-84980295D01*
X110622836Y-84897122D01*
X110516737Y-84830291D01*
X110434743Y-84779120D01*
X110311603Y-84702895D01*
X110151832Y-84604385D01*
X109959947Y-84486362D01*
X109740463Y-84351596D01*
X109497897Y-84202860D01*
X109236766Y-84042924D01*
X108961585Y-83874559D01*
X108818947Y-83787377D01*
X108818947Y-83686316D01*
X108832316Y-83672947D01*
X108818947Y-83659579D01*
X108805579Y-83672947D01*
X108818947Y-83686316D01*
X108818947Y-83787377D01*
X108738737Y-83738351D01*
X108738737Y-83632842D01*
X108752105Y-83619474D01*
X108738737Y-83606105D01*
X108725368Y-83619474D01*
X108738737Y-83632842D01*
X108738737Y-83738351D01*
X108696891Y-83712774D01*
X108696891Y-83599550D01*
X108698632Y-83595893D01*
X108679809Y-83571493D01*
X108671895Y-83566000D01*
X108646899Y-83559187D01*
X108645158Y-83562844D01*
X108663980Y-83587244D01*
X108671895Y-83592737D01*
X108696891Y-83599550D01*
X108696891Y-83712774D01*
X108676870Y-83700536D01*
X108605053Y-83656684D01*
X108605053Y-83552631D01*
X108618421Y-83539263D01*
X108605053Y-83525895D01*
X108591684Y-83539263D01*
X108605053Y-83552631D01*
X108605053Y-83656684D01*
X108524842Y-83607706D01*
X108524842Y-83499158D01*
X108538211Y-83485789D01*
X108524842Y-83472421D01*
X108511474Y-83485789D01*
X108524842Y-83499158D01*
X108524842Y-83607706D01*
X108482996Y-83582155D01*
X108482996Y-83465866D01*
X108484737Y-83462208D01*
X108465915Y-83437809D01*
X108458000Y-83432316D01*
X108433004Y-83425503D01*
X108431263Y-83429160D01*
X108450085Y-83453559D01*
X108458000Y-83459052D01*
X108482996Y-83465866D01*
X108482996Y-83582155D01*
X108404526Y-83534239D01*
X108391158Y-83526084D01*
X108391158Y-83418947D01*
X108404526Y-83405579D01*
X108391158Y-83392210D01*
X108377790Y-83405579D01*
X108391158Y-83418947D01*
X108391158Y-83526084D01*
X108349312Y-83500554D01*
X108349312Y-83385655D01*
X108351053Y-83381998D01*
X108332230Y-83357598D01*
X108324316Y-83352105D01*
X108299320Y-83345292D01*
X108297579Y-83348949D01*
X108316401Y-83373349D01*
X108324316Y-83378842D01*
X108349312Y-83385655D01*
X108349312Y-83500554D01*
X108258707Y-83445276D01*
X108258707Y-83329211D01*
X108270842Y-83327250D01*
X108250347Y-83305776D01*
X108217368Y-83285263D01*
X108176030Y-83268052D01*
X108163895Y-83270013D01*
X108184390Y-83291487D01*
X108217368Y-83312000D01*
X108258707Y-83329211D01*
X108258707Y-83445276D01*
X108135417Y-83370057D01*
X108135417Y-83251971D01*
X108137158Y-83248314D01*
X108118336Y-83223914D01*
X108110421Y-83218421D01*
X108085425Y-83211608D01*
X108083684Y-83215265D01*
X108102506Y-83239665D01*
X108110421Y-83245158D01*
X108135417Y-83251971D01*
X108135417Y-83370057D01*
X108044812Y-83314779D01*
X108044812Y-83195527D01*
X108056947Y-83193565D01*
X108036452Y-83172092D01*
X108003474Y-83151579D01*
X107962135Y-83134368D01*
X107950000Y-83136329D01*
X107970496Y-83157802D01*
X108003474Y-83178316D01*
X108044812Y-83195527D01*
X108044812Y-83314779D01*
X107988835Y-83280627D01*
X107908156Y-83231452D01*
X107908156Y-83113954D01*
X107911632Y-83107685D01*
X107909895Y-83105725D01*
X107881265Y-83084765D01*
X107813009Y-83039271D01*
X107710906Y-82972959D01*
X107580731Y-82889543D01*
X107428264Y-82792738D01*
X107259281Y-82686259D01*
X107188000Y-82641567D01*
X106912522Y-82469252D01*
X106678959Y-82323551D01*
X106484035Y-82202493D01*
X106324475Y-82104107D01*
X106197000Y-82026421D01*
X106098335Y-81967464D01*
X106025205Y-81925266D01*
X105974331Y-81897854D01*
X105942439Y-81883257D01*
X105926251Y-81879505D01*
X105923363Y-81880672D01*
X105919842Y-81904194D01*
X105920228Y-81904544D01*
X105943980Y-81919463D01*
X106007893Y-81958822D01*
X106106451Y-82019254D01*
X106234140Y-82097394D01*
X106385444Y-82189876D01*
X106554847Y-82293335D01*
X106736833Y-82404406D01*
X106925888Y-82519722D01*
X107116496Y-82635919D01*
X107303142Y-82749630D01*
X107480309Y-82857491D01*
X107642483Y-82956136D01*
X107784147Y-83042200D01*
X107869790Y-83094146D01*
X107908156Y-83113954D01*
X107908156Y-83231452D01*
X107616884Y-83053915D01*
X107286841Y-82853022D01*
X106996878Y-82676869D01*
X106745164Y-82524376D01*
X106529868Y-82394462D01*
X106349161Y-82286048D01*
X106201213Y-82198055D01*
X106084193Y-82129401D01*
X105996271Y-82079006D01*
X105935618Y-82045792D01*
X105900403Y-82028678D01*
X105888795Y-82026584D01*
X105898965Y-82038429D01*
X105929083Y-82063135D01*
X105977318Y-82099621D01*
X105992943Y-82111155D01*
X106056385Y-82161410D01*
X106097067Y-82200550D01*
X106105158Y-82214091D01*
X106090647Y-82245702D01*
X106053499Y-82304381D01*
X106023490Y-82347243D01*
X105941821Y-82459983D01*
X105896408Y-82433189D01*
X105896408Y-82329061D01*
X105927381Y-82322316D01*
X105950686Y-82303984D01*
X105987620Y-82263078D01*
X105998211Y-82240890D01*
X105978152Y-82215931D01*
X105925974Y-82171171D01*
X105864526Y-82124763D01*
X105797684Y-82065261D01*
X105797684Y-81921684D01*
X105811053Y-81908316D01*
X105797684Y-81894947D01*
X105784316Y-81908316D01*
X105797684Y-81921684D01*
X105797684Y-82065261D01*
X105771637Y-82042073D01*
X105730647Y-81962051D01*
X105740508Y-81879879D01*
X105793466Y-81798388D01*
X105837634Y-81751741D01*
X105869734Y-81741958D01*
X105911220Y-81764242D01*
X105919730Y-81770160D01*
X105972376Y-81802478D01*
X106004160Y-81814737D01*
X106011318Y-81789524D01*
X106017410Y-81719979D01*
X106021975Y-81615239D01*
X106024548Y-81484441D01*
X106024947Y-81404501D01*
X106024947Y-80994265D01*
X105893151Y-80883133D01*
X105878419Y-80871464D01*
X105878419Y-80685480D01*
X105909285Y-80658501D01*
X105918000Y-80633464D01*
X105902724Y-80622686D01*
X105877249Y-80638852D01*
X105849220Y-80671546D01*
X105848733Y-80684908D01*
X105878419Y-80685480D01*
X105878419Y-80871464D01*
X105828497Y-80831918D01*
X105769838Y-80797583D01*
X105705475Y-80778092D01*
X105623710Y-80771413D01*
X105512846Y-80775513D01*
X105361184Y-80788358D01*
X105352580Y-80789169D01*
X105174844Y-80805958D01*
X105155783Y-81123189D01*
X105149455Y-81291773D01*
X105148118Y-81483977D01*
X105151760Y-81670180D01*
X105156000Y-81761263D01*
X105175277Y-82082105D01*
X105344534Y-82082105D01*
X105434998Y-82078177D01*
X105502533Y-82067941D01*
X105530316Y-82055368D01*
X105568459Y-82027861D01*
X105609382Y-82044161D01*
X105638652Y-82097446D01*
X105641046Y-82107704D01*
X105673820Y-82176975D01*
X105748397Y-82245276D01*
X105780011Y-82266885D01*
X105852400Y-82311696D01*
X105896408Y-82329061D01*
X105896408Y-82433189D01*
X105854076Y-82408212D01*
X105774504Y-82360027D01*
X105701552Y-82313990D01*
X105698341Y-82311892D01*
X105648833Y-82284177D01*
X105624535Y-82288878D01*
X105615393Y-82306326D01*
X105624164Y-82326005D01*
X105663469Y-82358439D01*
X105736706Y-82405666D01*
X105847271Y-82469724D01*
X105998561Y-82552652D01*
X106193974Y-82656488D01*
X106233796Y-82677399D01*
X106357542Y-82742283D01*
X106523627Y-82829366D01*
X106727030Y-82936017D01*
X106962733Y-83059603D01*
X107225715Y-83197493D01*
X107510956Y-83347055D01*
X107813437Y-83505655D01*
X108128138Y-83670663D01*
X108450040Y-83839447D01*
X108774121Y-84009373D01*
X108889360Y-84069797D01*
X109195150Y-84229918D01*
X109487716Y-84382696D01*
X109763552Y-84526324D01*
X110019149Y-84658997D01*
X110251002Y-84778906D01*
X110455601Y-84884244D01*
X110629440Y-84973204D01*
X110769011Y-85043980D01*
X110870807Y-85094764D01*
X110931320Y-85123748D01*
X110947362Y-85130105D01*
X110947362Y-85223611D01*
X110909284Y-85213222D01*
X110808667Y-85173348D01*
X110674616Y-85111415D01*
X110502143Y-85025550D01*
X110385465Y-84965560D01*
X110281688Y-84911600D01*
X110134611Y-84834875D01*
X109948265Y-84737499D01*
X109726684Y-84621587D01*
X109473899Y-84489252D01*
X109193944Y-84342609D01*
X108890850Y-84183773D01*
X108568650Y-84014858D01*
X108231378Y-83837978D01*
X107883064Y-83655248D01*
X107527742Y-83468781D01*
X107169444Y-83280693D01*
X106812203Y-83093098D01*
X106460050Y-82908110D01*
X106117020Y-82727843D01*
X105844044Y-82584334D01*
X105693668Y-82503610D01*
X105585062Y-82440062D01*
X105511654Y-82388009D01*
X105466873Y-82341769D01*
X105444148Y-82295660D01*
X105436906Y-82244001D01*
X105436737Y-82232191D01*
X105433181Y-82195263D01*
X105414322Y-82174192D01*
X105367874Y-82163444D01*
X105281549Y-82157483D01*
X105269632Y-82156907D01*
X105102526Y-82148947D01*
X105075790Y-81828105D01*
X104870494Y-81811732D01*
X104870494Y-81718413D01*
X104978174Y-81715673D01*
X105055737Y-81710597D01*
X105071903Y-81692657D01*
X105082383Y-81638102D01*
X105087878Y-81540977D01*
X105089158Y-81427062D01*
X105089158Y-81146334D01*
X105076124Y-81147043D01*
X105076124Y-80947581D01*
X105087360Y-80925400D01*
X105089158Y-80877765D01*
X105087192Y-80821687D01*
X105082382Y-80800281D01*
X105081592Y-80800965D01*
X105060984Y-80829056D01*
X105041157Y-80855347D01*
X105022856Y-80897319D01*
X105048723Y-80932147D01*
X105076124Y-80947581D01*
X105076124Y-81147043D01*
X104876017Y-81157942D01*
X104709577Y-81168519D01*
X104588045Y-81180782D01*
X104502853Y-81196856D01*
X104495681Y-81199605D01*
X104495681Y-81122286D01*
X104705525Y-81105417D01*
X104839091Y-81093313D01*
X104925489Y-81081903D01*
X104970995Y-81070136D01*
X104982211Y-81059070D01*
X104962719Y-81039674D01*
X104919635Y-81004146D01*
X104919635Y-80852021D01*
X104942577Y-80841428D01*
X104985448Y-80799425D01*
X105008947Y-80772000D01*
X105059945Y-80703804D01*
X105074209Y-80672778D01*
X105054158Y-80681340D01*
X105002209Y-80731908D01*
X104986324Y-80749376D01*
X104941194Y-80805479D01*
X104919310Y-80844114D01*
X104919635Y-80852021D01*
X104919635Y-81004146D01*
X104911920Y-80997783D01*
X104849466Y-80949124D01*
X104777117Y-80898341D01*
X104720812Y-80866842D01*
X104695157Y-80861220D01*
X104668742Y-80888860D01*
X104623218Y-80946186D01*
X104584637Y-80998417D01*
X104495681Y-81122286D01*
X104495681Y-81199605D01*
X104445437Y-81218869D01*
X104407231Y-81248945D01*
X104384989Y-81279823D01*
X104344408Y-81389876D01*
X104343592Y-81502638D01*
X104381224Y-81601308D01*
X104413127Y-81639260D01*
X104474429Y-81684524D01*
X104537811Y-81695826D01*
X104586917Y-81690399D01*
X104651184Y-81685753D01*
X104686039Y-81694192D01*
X104688105Y-81698801D01*
X104712643Y-81709565D01*
X104777711Y-81716239D01*
X104870494Y-81718413D01*
X104870494Y-81811732D01*
X104835158Y-81808913D01*
X104719602Y-81800669D01*
X104644867Y-81799334D01*
X104598566Y-81806484D01*
X104568315Y-81823696D01*
X104547571Y-81845501D01*
X104523667Y-81878261D01*
X104522268Y-81906056D01*
X104549139Y-81941598D01*
X104610048Y-81997598D01*
X104620910Y-82007169D01*
X104688858Y-82071665D01*
X104719711Y-82116094D01*
X104720122Y-82151140D01*
X104716090Y-82159985D01*
X104712331Y-82183584D01*
X104727484Y-82215193D01*
X104766740Y-82260412D01*
X104835289Y-82324840D01*
X104938321Y-82414076D01*
X104999147Y-82465351D01*
X105109873Y-82555932D01*
X105208820Y-82632646D01*
X105287717Y-82689398D01*
X105338297Y-82720095D01*
X105349870Y-82723789D01*
X105401939Y-82740756D01*
X105441777Y-82768455D01*
X105476464Y-82794054D01*
X105507255Y-82790810D01*
X105552201Y-82754462D01*
X105569142Y-82738383D01*
X105625572Y-82694195D01*
X105680658Y-82678984D01*
X105744449Y-82695028D01*
X105826995Y-82744609D01*
X105924684Y-82819034D01*
X106020067Y-82904771D01*
X106069489Y-82977928D01*
X106075467Y-83048497D01*
X106040517Y-83126467D01*
X106012214Y-83166491D01*
X105972844Y-83224042D01*
X105967028Y-83254732D01*
X105985477Y-83268439D01*
X106017064Y-83305522D01*
X106022513Y-83368868D01*
X106001458Y-83437883D01*
X105988851Y-83458091D01*
X105948252Y-83491364D01*
X105885343Y-83495780D01*
X105857841Y-83492053D01*
X105782695Y-83488942D01*
X105727915Y-83516428D01*
X105702118Y-83541378D01*
X105644341Y-83586660D01*
X105589322Y-83606092D01*
X105588243Y-83606105D01*
X105584596Y-83604905D01*
X105584596Y-83525895D01*
X105617501Y-83505787D01*
X105672751Y-83452403D01*
X105741849Y-83376146D01*
X105816299Y-83287422D01*
X105887604Y-83196637D01*
X105947266Y-83114196D01*
X105986789Y-83050504D01*
X105998211Y-83019382D01*
X105978009Y-82978751D01*
X105924855Y-82920338D01*
X105855372Y-82860725D01*
X105778940Y-82804825D01*
X105717128Y-82765169D01*
X105683958Y-82750526D01*
X105656114Y-82769644D01*
X105603519Y-82820379D01*
X105535087Y-82892805D01*
X105459734Y-82976995D01*
X105386376Y-83063021D01*
X105364878Y-83089850D01*
X105364878Y-82975541D01*
X105401797Y-82960134D01*
X105422834Y-82930460D01*
X105404832Y-82893871D01*
X105392409Y-82879545D01*
X105354892Y-82845764D01*
X105325368Y-82852520D01*
X105304840Y-82871644D01*
X105278131Y-82907413D01*
X105293348Y-82935771D01*
X105314227Y-82952234D01*
X105364878Y-82975541D01*
X105364878Y-83089850D01*
X105323928Y-83140956D01*
X105285794Y-83193869D01*
X105261640Y-83248992D01*
X105262977Y-83285310D01*
X105298116Y-83323738D01*
X105360066Y-83377019D01*
X105434471Y-83434412D01*
X105506973Y-83485179D01*
X105563216Y-83518579D01*
X105584596Y-83525895D01*
X105584596Y-83604905D01*
X105536569Y-83589093D01*
X105460735Y-83544935D01*
X105374736Y-83483945D01*
X105292570Y-83416441D01*
X105228234Y-83352737D01*
X105206724Y-83324924D01*
X105181622Y-83279077D01*
X105181561Y-83239460D01*
X105208436Y-83183599D01*
X105220389Y-83163100D01*
X105277103Y-83066977D01*
X105245710Y-83029184D01*
X105245710Y-82829847D01*
X105241513Y-82814914D01*
X105207312Y-82778320D01*
X105139907Y-82716904D01*
X105036104Y-82627504D01*
X104941154Y-82547488D01*
X104833112Y-82458470D01*
X104739802Y-82384491D01*
X104668608Y-82331180D01*
X104626917Y-82304165D01*
X104619414Y-82302305D01*
X104634191Y-82322523D01*
X104681740Y-82369385D01*
X104753571Y-82435522D01*
X104841196Y-82513565D01*
X104936124Y-82596146D01*
X105029866Y-82675896D01*
X105113931Y-82745446D01*
X105179831Y-82797428D01*
X105219075Y-82824472D01*
X105223098Y-82826281D01*
X105245710Y-82829847D01*
X105245710Y-83029184D01*
X105188948Y-82960850D01*
X105134949Y-82903122D01*
X105050714Y-82821604D01*
X104947219Y-82726583D01*
X104835439Y-82628343D01*
X104820923Y-82615917D01*
X104709358Y-82521092D01*
X104631133Y-82456903D01*
X104578914Y-82419268D01*
X104553266Y-82407674D01*
X104553266Y-82256609D01*
X104578207Y-82219959D01*
X104555652Y-82168124D01*
X104486356Y-82100143D01*
X104413077Y-82051674D01*
X104363426Y-82045555D01*
X104341309Y-82081906D01*
X104340526Y-82095691D01*
X104360241Y-82134688D01*
X104408291Y-82182636D01*
X104468031Y-82226945D01*
X104522818Y-82255026D01*
X104553266Y-82256609D01*
X104553266Y-82407674D01*
X104545370Y-82404104D01*
X104523171Y-82407330D01*
X104504983Y-82424862D01*
X104496822Y-82435451D01*
X104456755Y-82488299D01*
X104456755Y-82350866D01*
X104457067Y-82350575D01*
X104457324Y-82318022D01*
X104412469Y-82263629D01*
X104372364Y-82227321D01*
X104310620Y-82171455D01*
X104269982Y-82128901D01*
X104260449Y-82113443D01*
X104275742Y-82082600D01*
X104313213Y-82029870D01*
X104321559Y-82019272D01*
X104382537Y-81943071D01*
X104497746Y-82039325D01*
X104576486Y-82101790D01*
X104620100Y-82130092D01*
X104626369Y-82125117D01*
X104593072Y-82087751D01*
X104527684Y-82027373D01*
X104407368Y-81921448D01*
X104452914Y-81841355D01*
X104479403Y-81785179D01*
X104473545Y-81762671D01*
X104464259Y-81761263D01*
X104415334Y-81738683D01*
X104357410Y-81679554D01*
X104301797Y-81596793D01*
X104276950Y-81547368D01*
X104235410Y-81453789D01*
X104251039Y-81555122D01*
X104253753Y-81640382D01*
X104226463Y-81700399D01*
X104219243Y-81708859D01*
X104150947Y-81753597D01*
X104106640Y-81756474D01*
X104106640Y-81673775D01*
X104139757Y-81654517D01*
X104171207Y-81606838D01*
X104154151Y-81567164D01*
X104117651Y-81552076D01*
X104073940Y-81564456D01*
X104051864Y-81605795D01*
X104062039Y-81652726D01*
X104068475Y-81660327D01*
X104106640Y-81673775D01*
X104106640Y-81756474D01*
X104076536Y-81758429D01*
X104011622Y-81728294D01*
X103971818Y-81668131D01*
X103966211Y-81628804D01*
X103957302Y-81579431D01*
X103924840Y-81529471D01*
X103860223Y-81467705D01*
X103812474Y-81428333D01*
X103658737Y-81304966D01*
X103545806Y-81431323D01*
X103488515Y-81497100D01*
X103449993Y-81544574D01*
X103438858Y-81562638D01*
X103676063Y-81758676D01*
X103875439Y-81922335D01*
X104039903Y-82055873D01*
X104172369Y-82161545D01*
X104275752Y-82241607D01*
X104352967Y-82298314D01*
X104406929Y-82333923D01*
X104440554Y-82350688D01*
X104456755Y-82350866D01*
X104456755Y-82488299D01*
X104452591Y-82493792D01*
X104323032Y-82388513D01*
X104260483Y-82337383D01*
X104166073Y-82259824D01*
X104049125Y-82163515D01*
X103918963Y-82056134D01*
X103796481Y-81954925D01*
X103399489Y-81626615D01*
X103298111Y-81740729D01*
X103239816Y-81804140D01*
X103203388Y-81832634D01*
X103191133Y-81832312D01*
X103191133Y-81728048D01*
X103193735Y-81727700D01*
X103220901Y-81703502D01*
X103273787Y-81646108D01*
X103345574Y-81563795D01*
X103429445Y-81464840D01*
X103518581Y-81357520D01*
X103606166Y-81250110D01*
X103685380Y-81150888D01*
X103749407Y-81068131D01*
X103791427Y-81010114D01*
X103804796Y-80985895D01*
X103787433Y-80960360D01*
X103765684Y-80937526D01*
X103765684Y-80825474D01*
X103779053Y-80812105D01*
X103765684Y-80798737D01*
X103752316Y-80812105D01*
X103765684Y-80825474D01*
X103765684Y-80937526D01*
X103744928Y-80915734D01*
X103738836Y-80909900D01*
X103721927Y-80893863D01*
X103721927Y-80684947D01*
X103761808Y-80668175D01*
X103766641Y-80664259D01*
X103780427Y-80654529D01*
X103790980Y-80646347D01*
X103794526Y-80636003D01*
X103787288Y-80619790D01*
X103765494Y-80594000D01*
X103725367Y-80554925D01*
X103663134Y-80498856D01*
X103575019Y-80422086D01*
X103457249Y-80320907D01*
X103306047Y-80191610D01*
X103147448Y-80055997D01*
X102968605Y-79904092D01*
X102826161Y-79785781D01*
X102716965Y-79698663D01*
X102637869Y-79640341D01*
X102585722Y-79608415D01*
X102557376Y-79600487D01*
X102552553Y-79602879D01*
X102525716Y-79639191D01*
X102522421Y-79650342D01*
X102542026Y-79671296D01*
X102597801Y-79722920D01*
X102685189Y-79801235D01*
X102799634Y-79902259D01*
X102936578Y-80022013D01*
X103091463Y-80156516D01*
X103259731Y-80301788D01*
X103436827Y-80453849D01*
X103618192Y-80608719D01*
X103678288Y-80659837D01*
X103721927Y-80684947D01*
X103721927Y-80893863D01*
X103672807Y-80847273D01*
X103608924Y-80923268D01*
X103569016Y-80970850D01*
X103502871Y-81049829D01*
X103418550Y-81150576D01*
X103324115Y-81263463D01*
X103287925Y-81306737D01*
X103030808Y-81614210D01*
X103104141Y-81674227D01*
X103156900Y-81712378D01*
X103191133Y-81728048D01*
X103191133Y-81832312D01*
X103175912Y-81831912D01*
X103145119Y-81808258D01*
X103109552Y-81781214D01*
X103079960Y-81783439D01*
X103038418Y-81819386D01*
X103018789Y-81839662D01*
X103017053Y-81841122D01*
X103017053Y-81734526D01*
X103030421Y-81721158D01*
X103017053Y-81707789D01*
X103003684Y-81721158D01*
X103017053Y-81734526D01*
X103017053Y-81841122D01*
X102963847Y-81885892D01*
X102947550Y-81892929D01*
X102947550Y-81600842D01*
X102969844Y-81581339D01*
X103019452Y-81527882D01*
X103090006Y-81448052D01*
X103175140Y-81349427D01*
X103268486Y-81239588D01*
X103363676Y-81126113D01*
X103454342Y-81016582D01*
X103534118Y-80918575D01*
X103596636Y-80839671D01*
X103635528Y-80787450D01*
X103645368Y-80770197D01*
X103625901Y-80749007D01*
X103571018Y-80697830D01*
X103486002Y-80621368D01*
X103376133Y-80524323D01*
X103246692Y-80411398D01*
X103103911Y-80288111D01*
X102926929Y-80135907D01*
X102786261Y-80015002D01*
X102677459Y-79922087D01*
X102596072Y-79853853D01*
X102537651Y-79806992D01*
X102497745Y-79778193D01*
X102471906Y-79764149D01*
X102455683Y-79761551D01*
X102444627Y-79767089D01*
X102434288Y-79777455D01*
X102426689Y-79784523D01*
X102396930Y-79815902D01*
X102339953Y-79881751D01*
X102261903Y-79974752D01*
X102168928Y-80087587D01*
X102072970Y-80205745D01*
X101761508Y-80591896D01*
X101867912Y-80684854D01*
X102079671Y-80869342D01*
X102276383Y-81039722D01*
X102454565Y-81193037D01*
X102610732Y-81326333D01*
X102741400Y-81436652D01*
X102843084Y-81521039D01*
X102912301Y-81576537D01*
X102945566Y-81600192D01*
X102947550Y-81600842D01*
X102947550Y-81892929D01*
X102918565Y-81905446D01*
X102909579Y-81904414D01*
X102901190Y-81901509D01*
X102891937Y-81901743D01*
X102879076Y-81908324D01*
X102859864Y-81924462D01*
X102845331Y-81939302D01*
X102845331Y-81757974D01*
X102862112Y-81756715D01*
X102893764Y-81716215D01*
X102877894Y-81677462D01*
X102846118Y-81650893D01*
X102813011Y-81624144D01*
X102745324Y-81567319D01*
X102648875Y-81485377D01*
X102529479Y-81383279D01*
X102392955Y-81265984D01*
X102245118Y-81138453D01*
X102242366Y-81136075D01*
X102076049Y-80992878D01*
X101945146Y-80881799D01*
X101845096Y-80799443D01*
X101771337Y-80742414D01*
X101719306Y-80707317D01*
X101684441Y-80690756D01*
X101662179Y-80689336D01*
X101651138Y-80696035D01*
X101644575Y-80710796D01*
X101651786Y-80733228D01*
X101676575Y-80767099D01*
X101722746Y-80816178D01*
X101794102Y-80884232D01*
X101894448Y-80975029D01*
X102027588Y-81092338D01*
X102197326Y-81239927D01*
X102220265Y-81259791D01*
X102403217Y-81417239D01*
X102550066Y-81541364D01*
X102664256Y-81634833D01*
X102749234Y-81700312D01*
X102808444Y-81740470D01*
X102845331Y-81757974D01*
X102845331Y-81939302D01*
X102831557Y-81953367D01*
X102791414Y-81998248D01*
X102736689Y-82062314D01*
X102664642Y-82148776D01*
X102572527Y-82260842D01*
X102457602Y-82401723D01*
X102317125Y-82574627D01*
X102148351Y-82782764D01*
X101956517Y-83019496D01*
X101807494Y-83202827D01*
X101666069Y-83375711D01*
X101536434Y-83533105D01*
X101422782Y-83669964D01*
X101329305Y-83781244D01*
X101260196Y-83861900D01*
X101219649Y-83906887D01*
X101215592Y-83910917D01*
X101134150Y-83988467D01*
X101064374Y-83961820D01*
X101064374Y-83873474D01*
X101076781Y-83851482D01*
X101078632Y-83830251D01*
X101093819Y-83799558D01*
X101144798Y-83799678D01*
X101166835Y-83799664D01*
X101193172Y-83788710D01*
X101227777Y-83762607D01*
X101274615Y-83717148D01*
X101337652Y-83648125D01*
X101420854Y-83551329D01*
X101528185Y-83422553D01*
X101663613Y-83257588D01*
X101715113Y-83194532D01*
X101943756Y-82913652D01*
X102146901Y-82662661D01*
X102323331Y-82443102D01*
X102471828Y-82256514D01*
X102591177Y-82104440D01*
X102680160Y-81988419D01*
X102737561Y-81909993D01*
X102762162Y-81870703D01*
X102763053Y-81867382D01*
X102743610Y-81844818D01*
X102688762Y-81792205D01*
X102603729Y-81714266D01*
X102493732Y-81615722D01*
X102363993Y-81501293D01*
X102219731Y-81375703D01*
X102211874Y-81368907D01*
X102064447Y-81241644D01*
X101928507Y-81124704D01*
X101809824Y-81023016D01*
X101714163Y-80941509D01*
X101647294Y-80885113D01*
X101614982Y-80858757D01*
X101614817Y-80858635D01*
X101590614Y-80848035D01*
X101562631Y-80856586D01*
X101523658Y-80890390D01*
X101466489Y-80955549D01*
X101393718Y-81045793D01*
X101289969Y-81174182D01*
X101211995Y-81264184D01*
X101154401Y-81320862D01*
X101111793Y-81349277D01*
X101078776Y-81354494D01*
X101067901Y-81351554D01*
X101029648Y-81364780D01*
X100963249Y-81423108D01*
X100868598Y-81526632D01*
X100838941Y-81561447D01*
X100755511Y-81662358D01*
X100702997Y-81732052D01*
X100694154Y-81747754D01*
X100694154Y-81583909D01*
X100735905Y-81553895D01*
X100757790Y-81534000D01*
X100818918Y-81467404D01*
X100836906Y-81426727D01*
X100813204Y-81413684D01*
X100780127Y-81433720D01*
X100736189Y-81480936D01*
X100696903Y-81535997D01*
X100677785Y-81579568D01*
X100677579Y-81582713D01*
X100694154Y-81583909D01*
X100694154Y-81747754D01*
X100676531Y-81779049D01*
X100671246Y-81811867D01*
X100681247Y-81837412D01*
X100693194Y-81869014D01*
X100685364Y-81906665D01*
X100652738Y-81961481D01*
X100590297Y-82044577D01*
X100584199Y-82052352D01*
X100524935Y-82130547D01*
X100483061Y-82191168D01*
X100465837Y-82223537D01*
X100466199Y-82225936D01*
X100493465Y-82243148D01*
X100553563Y-82278364D01*
X100621751Y-82317299D01*
X100766449Y-82399091D01*
X100808909Y-82314203D01*
X100849692Y-82254661D01*
X100892954Y-82221895D01*
X100897390Y-82220739D01*
X100949024Y-82230679D01*
X101019383Y-82266713D01*
X101092598Y-82317493D01*
X101152801Y-82371673D01*
X101184121Y-82417903D01*
X101185579Y-82426825D01*
X101204311Y-82480166D01*
X101239279Y-82523467D01*
X101274499Y-82561471D01*
X101274746Y-82595804D01*
X101248948Y-82641243D01*
X101216057Y-82689719D01*
X101158026Y-82772072D01*
X101081433Y-82879134D01*
X100992862Y-83001733D01*
X100898891Y-83130699D01*
X100845635Y-83203270D01*
X100823803Y-83197984D01*
X100823803Y-83039890D01*
X100859398Y-83013621D01*
X100912711Y-82953797D01*
X100974733Y-82873176D01*
X101036453Y-82784515D01*
X101088860Y-82700572D01*
X101122944Y-82634107D01*
X101131075Y-82604810D01*
X101125089Y-82570585D01*
X101101272Y-82583506D01*
X101054196Y-82599886D01*
X101024201Y-82589048D01*
X101024201Y-82470171D01*
X101053879Y-82468563D01*
X101073544Y-82434671D01*
X101041656Y-82390169D01*
X100991559Y-82354857D01*
X100926353Y-82327829D01*
X100891816Y-82338436D01*
X100892478Y-82368659D01*
X100925394Y-82409226D01*
X100974618Y-82447331D01*
X101024201Y-82470171D01*
X101024201Y-82589048D01*
X101021062Y-82587913D01*
X100988792Y-82576751D01*
X100974759Y-82597339D01*
X100971684Y-82660446D01*
X100971684Y-82660968D01*
X100953404Y-82753621D01*
X100906089Y-82830660D01*
X100841032Y-82877112D01*
X100803329Y-82884210D01*
X100799550Y-82884910D01*
X100799550Y-82801126D01*
X100826185Y-82797516D01*
X100861245Y-82765505D01*
X100887286Y-82723490D01*
X100891474Y-82704185D01*
X100880366Y-82688984D01*
X100846105Y-82720478D01*
X100840302Y-82727512D01*
X100807464Y-82774737D01*
X100799372Y-82800928D01*
X100799550Y-82801126D01*
X100799550Y-82884910D01*
X100768002Y-82890755D01*
X100779654Y-82918321D01*
X100784244Y-82923975D01*
X100804542Y-82977452D01*
X100800980Y-83006128D01*
X100801187Y-83038537D01*
X100823803Y-83039890D01*
X100823803Y-83197984D01*
X100822854Y-83197754D01*
X100805470Y-83183217D01*
X100755246Y-83158261D01*
X100708566Y-83151579D01*
X100664261Y-83137887D01*
X100656790Y-83134049D01*
X100656790Y-83031917D01*
X100678152Y-83030909D01*
X100701517Y-83007159D01*
X100688569Y-82977144D01*
X100659530Y-82950356D01*
X100659530Y-82748946D01*
X100740199Y-82723740D01*
X100762368Y-82706277D01*
X100804983Y-82637608D01*
X100801958Y-82562705D01*
X100754211Y-82499737D01*
X100751840Y-82498042D01*
X100689383Y-82461931D01*
X100657684Y-82465028D01*
X100650842Y-82494475D01*
X100634652Y-82538304D01*
X100594568Y-82598842D01*
X100582907Y-82613265D01*
X100540884Y-82666020D01*
X100531653Y-82694317D01*
X100552999Y-82714119D01*
X100567781Y-82722264D01*
X100659530Y-82748946D01*
X100659530Y-82950356D01*
X100644158Y-82936175D01*
X100573273Y-82891845D01*
X100522149Y-82891293D01*
X100506417Y-82906695D01*
X100515570Y-82935549D01*
X100555432Y-82974535D01*
X100608380Y-83010907D01*
X100656790Y-83031917D01*
X100656790Y-83134049D01*
X100596513Y-83103076D01*
X100519970Y-83056543D01*
X100449278Y-83007686D01*
X100399083Y-82965902D01*
X100383474Y-82943002D01*
X100397397Y-82916507D01*
X100431559Y-82865114D01*
X100438039Y-82855941D01*
X100492604Y-82779312D01*
X100420137Y-82733802D01*
X100420137Y-82616842D01*
X100489361Y-82596171D01*
X100540628Y-82544435D01*
X100568224Y-82477046D01*
X100566434Y-82409416D01*
X100529544Y-82356959D01*
X100518916Y-82350414D01*
X100464301Y-82326058D01*
X100441235Y-82335121D01*
X100436947Y-82372306D01*
X100419600Y-82424960D01*
X100377428Y-82485996D01*
X100373340Y-82490509D01*
X100334206Y-82552287D01*
X100343805Y-82595828D01*
X100400246Y-82616032D01*
X100420137Y-82616842D01*
X100420137Y-82733802D01*
X100391249Y-82715660D01*
X100288842Y-82651868D01*
X100249657Y-82630848D01*
X100249657Y-82518415D01*
X100288239Y-82493297D01*
X100331539Y-82448766D01*
X100367334Y-82397527D01*
X100383403Y-82352284D01*
X100383474Y-82349820D01*
X100379025Y-82321388D01*
X100360223Y-82326152D01*
X100318885Y-82367913D01*
X100300886Y-82388201D01*
X100253782Y-82449751D01*
X100229019Y-82497970D01*
X100228016Y-82511416D01*
X100249657Y-82518415D01*
X100249657Y-82630848D01*
X100220098Y-82614991D01*
X100172809Y-82604460D01*
X100151317Y-82613074D01*
X100151317Y-82459011D01*
X100176305Y-82440573D01*
X100220303Y-82395421D01*
X100269656Y-82339180D01*
X100310713Y-82287475D01*
X100329822Y-82255933D01*
X100330000Y-82254504D01*
X100308811Y-82238528D01*
X100254368Y-82205412D01*
X100206317Y-82177970D01*
X100127521Y-82134510D01*
X100084564Y-82114723D01*
X100066574Y-82116260D01*
X100062678Y-82136768D01*
X100062632Y-82146896D01*
X100046442Y-82190796D01*
X100006394Y-82251252D01*
X99995153Y-82265143D01*
X99964597Y-82301457D01*
X99964597Y-82099930D01*
X99980492Y-82096260D01*
X99982421Y-82082105D01*
X99972638Y-82060098D01*
X99964597Y-82064281D01*
X99961397Y-82096011D01*
X99964597Y-82099930D01*
X99964597Y-82301457D01*
X99927675Y-82345337D01*
X100028574Y-82402045D01*
X100095383Y-82437027D01*
X100142620Y-82457133D01*
X100151317Y-82459011D01*
X100151317Y-82613074D01*
X100134768Y-82619707D01*
X100093766Y-82660163D01*
X100059327Y-82700197D01*
X99998166Y-82780086D01*
X99972784Y-82839304D01*
X99974224Y-82880396D01*
X99974286Y-82938230D01*
X99957188Y-82963491D01*
X99958919Y-82990424D01*
X99999723Y-83049965D01*
X100080191Y-83142878D01*
X100164724Y-83232641D01*
X100263263Y-83334119D01*
X100332178Y-83401712D01*
X100378549Y-83440418D01*
X100409458Y-83455239D01*
X100431986Y-83451175D01*
X100451395Y-83435056D01*
X100489752Y-83403691D01*
X100519412Y-83412150D01*
X100541030Y-83433018D01*
X100569478Y-83469728D01*
X100557079Y-83494430D01*
X100538679Y-83507391D01*
X100520082Y-83526746D01*
X100528480Y-83550718D01*
X100570230Y-83587184D01*
X100645626Y-83639935D01*
X100735649Y-83697927D01*
X100834145Y-83757042D01*
X100928722Y-83810369D01*
X101006989Y-83850998D01*
X101056556Y-83872017D01*
X101064374Y-83873474D01*
X101064374Y-83961820D01*
X101018899Y-83944452D01*
X100912486Y-83894313D01*
X100779131Y-83817388D01*
X100631870Y-83722412D01*
X100483736Y-83618115D01*
X100347763Y-83513231D01*
X100252096Y-83430708D01*
X100148410Y-83330184D01*
X100047915Y-83224809D01*
X99957824Y-83123049D01*
X99885350Y-83033370D01*
X99837705Y-82964239D01*
X99822000Y-82925869D01*
X99837016Y-82888217D01*
X99876678Y-82821650D01*
X99932908Y-82739544D01*
X99942316Y-82726656D01*
X99999981Y-82645854D01*
X100042564Y-82581478D01*
X100062156Y-82545594D01*
X100062632Y-82543165D01*
X100041615Y-82520135D01*
X99986316Y-82478404D01*
X99908357Y-82426690D01*
X99902211Y-82422833D01*
X99884386Y-82411241D01*
X99884386Y-82180140D01*
X99900281Y-82176470D01*
X99902211Y-82162316D01*
X99892428Y-82140308D01*
X99884386Y-82144491D01*
X99881186Y-82176221D01*
X99884386Y-82180140D01*
X99884386Y-82411241D01*
X99817905Y-82368003D01*
X99769859Y-82327370D01*
X99748043Y-82288357D01*
X99742429Y-82238385D01*
X99742384Y-82222383D01*
X99766084Y-82108038D01*
G37*
X99766084Y-82108038D02*
X99831311Y-82020452D01*
X99902211Y-81978860D01*
X99944188Y-81970338D01*
X99994878Y-81979019D01*
X100066534Y-82008712D01*
X100168774Y-82061802D01*
X100368494Y-82170151D01*
X100495806Y-82028009D01*
X100564728Y-81945759D01*
X100597590Y-81891339D01*
X100598558Y-81857346D01*
X100594924Y-81851896D01*
X100572837Y-81797016D01*
X100571760Y-81769541D01*
X100574038Y-81722795D01*
X100564343Y-81707032D01*
X100536976Y-81725257D01*
X100486238Y-81780472D01*
X100434489Y-81841868D01*
X100353730Y-81935644D01*
X100294425Y-81993111D01*
X100246106Y-82020858D01*
X100226822Y-82022720D01*
X100226822Y-81961789D01*
X100308855Y-81868210D01*
X100381175Y-81785998D01*
X100455950Y-81701412D01*
X100469936Y-81685652D01*
X100610331Y-81521756D01*
X100710726Y-81390979D01*
X100772042Y-81292016D01*
X100794907Y-81226546D01*
X100810279Y-81157506D01*
X100831002Y-81113222D01*
X100935812Y-80980203D01*
X101034598Y-80852664D01*
X101122133Y-80737568D01*
X101193194Y-80641879D01*
X101242553Y-80572559D01*
X101264987Y-80536572D01*
X101265790Y-80533813D01*
X101247703Y-80501809D01*
X101219000Y-80472737D01*
X101174436Y-80438027D01*
X101136843Y-80424263D01*
X101097710Y-80435893D01*
X101048526Y-80477367D01*
X100980779Y-80553134D01*
X100915962Y-80631133D01*
X100814601Y-80750146D01*
X100701770Y-80876059D01*
X100594942Y-80989617D01*
X100545548Y-81039368D01*
X100454451Y-81134391D01*
X100347024Y-81255348D01*
X100238336Y-81384891D01*
X100164203Y-81478360D01*
X100079797Y-81589268D01*
X100024249Y-81666684D01*
X99993240Y-81719052D01*
X99982448Y-81754815D01*
X99987554Y-81782417D01*
X99998622Y-81801940D01*
X100047555Y-81853096D01*
X100118591Y-81903620D01*
X100131847Y-81911053D01*
X100226822Y-81961789D01*
X100226822Y-82022720D01*
X100198302Y-82025474D01*
X100155471Y-82017466D01*
X100100295Y-81989886D01*
X100031218Y-81937655D01*
X99961873Y-81873648D01*
X99905892Y-81810740D01*
X99876906Y-81761807D01*
X99875474Y-81753017D01*
X99891974Y-81718118D01*
X99937054Y-81651189D01*
X100004083Y-81560447D01*
X100086431Y-81454105D01*
X100177466Y-81340379D01*
X100270558Y-81227484D01*
X100359076Y-81123636D01*
X100436390Y-81037049D01*
X100495867Y-80975939D01*
X100518745Y-80956036D01*
X100570985Y-80907855D01*
X100645641Y-80828053D01*
X100732840Y-80727634D01*
X100822708Y-80617601D01*
X100824632Y-80615166D01*
X100927225Y-80489416D01*
X101007204Y-80404348D01*
X101071815Y-80356284D01*
X101128303Y-80341546D01*
X101183915Y-80356457D01*
X101245894Y-80397339D01*
X101248984Y-80399758D01*
X101303247Y-80445215D01*
X101335415Y-80485487D01*
X101343434Y-80528928D01*
X101325250Y-80583890D01*
X101278809Y-80658729D01*
X101202057Y-80761796D01*
X101140534Y-80840747D01*
X101033142Y-80979171D01*
X100956177Y-81082801D01*
X100906069Y-81158121D01*
X100879249Y-81211611D01*
X100872147Y-81249756D01*
X100881194Y-81279036D01*
X100891376Y-81293251D01*
X100922044Y-81320217D01*
X100953741Y-81308589D01*
X100974522Y-81290800D01*
X101027559Y-81262595D01*
X101064753Y-81262736D01*
X101095064Y-81255178D01*
X101144151Y-81213284D01*
X101215404Y-81133608D01*
X101312212Y-81012705D01*
X101317955Y-81005294D01*
X101416819Y-80878956D01*
X101522210Y-80746558D01*
X101620401Y-80625235D01*
X101687003Y-80544737D01*
X101791428Y-80419517D01*
X101911002Y-80274393D01*
X102036875Y-80120268D01*
X102160198Y-79968046D01*
X102272123Y-79828633D01*
X102363799Y-79712931D01*
X102404672Y-79660382D01*
X102452536Y-79599474D01*
X102529820Y-79502749D01*
X102632028Y-79375729D01*
X102754661Y-79223938D01*
X102893221Y-79052898D01*
X103043210Y-78868132D01*
X103200131Y-78675161D01*
X103359486Y-78479509D01*
X103516776Y-78286698D01*
X103667504Y-78102252D01*
X103807173Y-77931691D01*
X103931283Y-77780540D01*
X104035338Y-77654321D01*
X104114839Y-77558555D01*
X104163554Y-77500783D01*
X104232557Y-77422132D01*
X104289272Y-77368515D01*
X104343393Y-77339690D01*
X104404613Y-77335414D01*
X104482624Y-77355445D01*
X104587120Y-77399540D01*
X104727794Y-77467456D01*
X104764882Y-77485729D01*
X104913751Y-77563562D01*
X105031149Y-77637418D01*
X105136194Y-77720631D01*
X105234994Y-77813567D01*
X105343486Y-77928074D01*
X105444972Y-78047809D01*
X105532859Y-78163683D01*
X105600553Y-78266609D01*
X105641462Y-78347496D01*
X105650632Y-78386517D01*
X105634333Y-78416523D01*
X105587509Y-78484045D01*
X105557053Y-78525469D01*
X105557053Y-78419158D01*
X105570421Y-78405789D01*
X105557053Y-78392421D01*
X105543684Y-78405789D01*
X105557053Y-78419158D01*
X105557053Y-78525469D01*
X105513266Y-78585027D01*
X105414709Y-78715411D01*
X105294946Y-78871142D01*
X105157082Y-79048161D01*
X105004223Y-79242413D01*
X104839477Y-79449841D01*
X104767300Y-79540145D01*
X104559169Y-79800771D01*
X104383287Y-80022633D01*
X104237819Y-80208171D01*
X104120930Y-80359823D01*
X104030784Y-80480031D01*
X103965546Y-80571231D01*
X103923381Y-80635864D01*
X103902452Y-80676369D01*
X103899768Y-80693048D01*
X103897288Y-80750013D01*
X103870523Y-80811571D01*
X103856849Y-80835856D01*
X103856849Y-80529521D01*
X103878584Y-80509077D01*
X103926396Y-80454650D01*
X103993385Y-80374353D01*
X104072652Y-80276298D01*
X104078594Y-80268836D01*
X104144266Y-80186616D01*
X104238057Y-80069632D01*
X104354474Y-79924710D01*
X104488027Y-79758678D01*
X104633226Y-79578363D01*
X104784579Y-79390592D01*
X104910407Y-79234631D01*
X105070528Y-79034862D01*
X105208754Y-78859558D01*
X105322894Y-78711637D01*
X105410757Y-78594011D01*
X105470149Y-78509598D01*
X105498881Y-78461312D01*
X105499866Y-78450618D01*
X105473430Y-78420627D01*
X105463474Y-78365952D01*
X105472795Y-78307770D01*
X105493309Y-78279984D01*
X105490527Y-78256533D01*
X105459173Y-78201256D01*
X105404964Y-78123363D01*
X105358600Y-78062977D01*
X105282376Y-77968800D01*
X105230832Y-77911400D01*
X105196554Y-77884781D01*
X105172123Y-77882952D01*
X105153065Y-77896904D01*
X105102648Y-77933692D01*
X105060888Y-77923382D01*
X105034744Y-77896656D01*
X105014666Y-77853779D01*
X105031470Y-77824467D01*
X105058920Y-77785626D01*
X105062421Y-77772399D01*
X105040469Y-77744526D01*
X104982116Y-77699517D01*
X104898619Y-77644491D01*
X104801233Y-77586568D01*
X104701216Y-77532865D01*
X104630878Y-77499477D01*
X104548769Y-77464662D01*
X104505114Y-77451408D01*
X104490002Y-77458460D01*
X104492838Y-77481984D01*
X104487793Y-77534893D01*
X104444606Y-77557223D01*
X104393761Y-77550134D01*
X104348010Y-77516694D01*
X104348340Y-77470043D01*
X104387316Y-77430238D01*
X104418039Y-77408631D01*
X104400220Y-77406467D01*
X104380998Y-77409153D01*
X104364781Y-77415154D01*
X104342314Y-77430920D01*
X104311139Y-77459356D01*
X104268797Y-77503365D01*
X104212828Y-77565852D01*
X104140773Y-77649722D01*
X104050173Y-77757878D01*
X103938568Y-77893224D01*
X103803499Y-78058666D01*
X103642508Y-78257107D01*
X103453134Y-78491451D01*
X103232919Y-78764603D01*
X103226741Y-78772272D01*
X103091945Y-78941036D01*
X102969394Y-79097230D01*
X102862819Y-79235883D01*
X102775951Y-79352023D01*
X102712522Y-79440678D01*
X102676262Y-79496876D01*
X102669302Y-79515090D01*
X102694065Y-79540285D01*
X102752741Y-79593770D01*
X102839107Y-79670233D01*
X102946942Y-79764357D01*
X103070025Y-79870829D01*
X103202135Y-79984335D01*
X103337050Y-80099560D01*
X103468549Y-80211189D01*
X103590411Y-80313909D01*
X103696414Y-80402405D01*
X103780338Y-80471362D01*
X103835961Y-80515467D01*
X103856849Y-80529521D01*
X103856849Y-80835856D01*
X103841608Y-80862924D01*
X103844939Y-80897519D01*
X103872767Y-80932571D01*
X103897425Y-80964469D01*
X103900086Y-80994044D01*
X103876546Y-81035679D01*
X103822817Y-81103491D01*
X103770217Y-81171568D01*
X103735520Y-81223951D01*
X103727058Y-81244394D01*
X103747169Y-81274177D01*
X103794709Y-81318635D01*
X103804772Y-81326755D01*
X103881005Y-81386878D01*
X104302130Y-80818926D01*
X104415331Y-80665214D01*
X104517896Y-80523953D01*
X104605479Y-80401288D01*
X104673734Y-80303366D01*
X104718318Y-80236331D01*
X104734746Y-80207031D01*
X104730064Y-80159858D01*
X104717171Y-80145124D01*
X104689763Y-80100909D01*
X104699451Y-80036331D01*
X104743278Y-79966457D01*
X104754599Y-79954444D01*
X104801448Y-79912052D01*
X104838366Y-79903103D01*
X104890785Y-79924062D01*
X104908336Y-79933065D01*
X105039685Y-80012898D01*
X105118330Y-80089935D01*
X105144887Y-80165443D01*
X105119970Y-80240693D01*
X105079823Y-80286948D01*
X105023833Y-80326758D01*
X105005102Y-80326983D01*
X105005102Y-80242750D01*
X105031707Y-80230546D01*
X105060661Y-80173383D01*
X105036275Y-80113256D01*
X104968886Y-80056789D01*
X104875909Y-80007840D01*
X104812832Y-80001560D01*
X104777602Y-80037733D01*
X104782590Y-80088177D01*
X104821888Y-80144565D01*
X104881443Y-80196233D01*
X104947199Y-80232516D01*
X105005102Y-80242750D01*
X105005102Y-80326983D01*
X104970477Y-80327400D01*
X104952166Y-80321299D01*
X104930412Y-80315859D01*
X104907527Y-80319893D01*
X104879202Y-80338119D01*
X104841130Y-80375256D01*
X104789000Y-80436025D01*
X104718503Y-80525145D01*
X104625331Y-80647336D01*
X104505175Y-80807318D01*
X104490381Y-80827083D01*
X104352903Y-81010613D01*
X104244324Y-81155608D01*
X104161797Y-81266560D01*
X104102474Y-81347964D01*
X104063505Y-81404312D01*
X104042042Y-81440099D01*
X104035238Y-81459816D01*
X104040243Y-81467959D01*
X104054210Y-81469020D01*
X104074289Y-81467492D01*
X104084631Y-81467158D01*
X104138978Y-81452484D01*
X104191587Y-81402092D01*
X104225462Y-81353526D01*
X104269235Y-81289773D01*
X104336346Y-81197211D01*
X104417722Y-81087811D01*
X104504292Y-80973545D01*
X104586984Y-80866386D01*
X104656724Y-80778305D01*
X104704441Y-80721274D01*
X104705306Y-80720313D01*
X104736155Y-80697924D01*
X104770995Y-80711662D01*
X104796975Y-80733635D01*
X104832548Y-80762592D01*
X104859959Y-80765152D01*
X104894265Y-80736135D01*
X104938176Y-80685057D01*
X104995170Y-80626466D01*
X105044924Y-80590819D01*
X105062421Y-80585691D01*
X105119710Y-80602764D01*
X105164153Y-80640559D01*
X105176896Y-80682598D01*
X105176171Y-80685105D01*
X105184255Y-80700512D01*
X105225155Y-80710697D01*
X105305370Y-80716431D01*
X105431401Y-80718487D01*
X105457378Y-80718526D01*
X105749843Y-80718526D01*
X105773764Y-80635515D01*
X105779178Y-80620928D01*
X105788829Y-80605896D01*
X105805649Y-80589020D01*
X105832571Y-80568898D01*
X105872529Y-80544131D01*
X105928456Y-80513318D01*
X106003284Y-80475059D01*
X106099947Y-80427954D01*
X106221378Y-80370601D01*
X106370510Y-80301602D01*
X106550276Y-80219555D01*
X106763608Y-80123060D01*
X107013441Y-80010717D01*
X107302706Y-79881126D01*
X107634338Y-79732886D01*
X108011269Y-79564596D01*
X108097053Y-79526310D01*
X108487686Y-79352072D01*
X108832590Y-79198490D01*
X109134801Y-79064286D01*
X109397358Y-78948181D01*
X109623298Y-78848896D01*
X109815659Y-78765151D01*
X109977477Y-78695669D01*
X110111791Y-78639169D01*
X110221638Y-78594372D01*
X110310056Y-78560001D01*
X110380082Y-78534775D01*
X110434754Y-78517415D01*
X110477110Y-78506643D01*
X110510186Y-78501180D01*
X110535049Y-78499743D01*
X110666126Y-78508490D01*
X110757924Y-78534299D01*
X110805279Y-78575311D01*
X110810718Y-78598970D01*
X110797447Y-78650154D01*
X110755310Y-78706255D01*
X110680430Y-78770018D01*
X110568933Y-78844189D01*
X110416943Y-78931511D01*
X110220584Y-79034731D01*
X110133426Y-79078746D01*
X110017032Y-79136695D01*
X109864173Y-79212307D01*
X109679551Y-79303286D01*
X109467871Y-79407337D01*
X109233837Y-79522165D01*
X108982151Y-79645475D01*
X108717519Y-79774973D01*
X108444644Y-79908363D01*
X108168229Y-80043351D01*
X107892979Y-80177641D01*
X107623597Y-80308939D01*
X107364787Y-80434949D01*
X107121253Y-80553377D01*
X106897698Y-80661928D01*
X106698827Y-80758306D01*
X106529343Y-80840217D01*
X106393950Y-80905366D01*
X106297352Y-80951458D01*
X106245526Y-80975627D01*
X106164261Y-81015805D01*
X106121798Y-81050031D01*
X106109401Y-81082035D01*
X106109401Y-80937159D01*
X107464174Y-80275234D01*
X107750490Y-80135295D01*
X108050916Y-79988369D01*
X108356685Y-79838751D01*
X108659028Y-79690736D01*
X108949174Y-79548616D01*
X109218356Y-79416687D01*
X109457804Y-79299242D01*
X109658750Y-79200576D01*
X109674526Y-79192823D01*
X109947735Y-79057739D01*
X110174348Y-78943778D01*
X110356359Y-78849731D01*
X110495760Y-78774386D01*
X110594541Y-78716536D01*
X110654697Y-78674969D01*
X110678218Y-78648476D01*
X110667098Y-78635848D01*
X110623327Y-78635875D01*
X110582599Y-78641401D01*
X110508692Y-78661374D01*
X110410483Y-78698096D01*
X110369684Y-78716320D01*
X110369684Y-78633052D01*
X110383053Y-78619684D01*
X110369684Y-78606316D01*
X110356316Y-78619684D01*
X110369684Y-78633052D01*
X110369684Y-78716320D01*
X110321915Y-78737659D01*
X110302842Y-78746817D01*
X110302842Y-78659789D01*
X110324850Y-78650007D01*
X110320667Y-78641965D01*
X110288936Y-78638765D01*
X110285018Y-78641965D01*
X110288688Y-78657860D01*
X110302842Y-78659789D01*
X110302842Y-78746817D01*
X110236000Y-78778913D01*
X110236000Y-78686526D01*
X110249368Y-78673158D01*
X110236000Y-78659789D01*
X110222632Y-78673158D01*
X110236000Y-78686526D01*
X110236000Y-78778913D01*
X110214395Y-78789288D01*
X110084143Y-78850776D01*
X109957116Y-78909880D01*
X109941895Y-78916887D01*
X109844956Y-78962022D01*
X109713155Y-79024202D01*
X109559741Y-79097136D01*
X109397965Y-79174529D01*
X109286842Y-79227988D01*
X109124380Y-79305782D01*
X108958327Y-79384308D01*
X108802768Y-79456972D01*
X108671787Y-79517179D01*
X108605053Y-79547153D01*
X108489196Y-79599298D01*
X108381071Y-79649584D01*
X108297360Y-79690185D01*
X108270842Y-79703887D01*
X108212376Y-79733661D01*
X108117346Y-79780172D01*
X107997694Y-79837650D01*
X107865361Y-79900324D01*
X107829684Y-79917071D01*
X107691370Y-79982046D01*
X107558010Y-80045013D01*
X107443162Y-80099551D01*
X107360385Y-80139236D01*
X107348421Y-80145045D01*
X107271904Y-80181918D01*
X107161563Y-80234559D01*
X107031987Y-80296027D01*
X106897766Y-80359386D01*
X106893895Y-80361208D01*
X106732876Y-80437087D01*
X106550113Y-80523353D01*
X106371219Y-80607910D01*
X106256612Y-80662164D01*
X106004895Y-80781436D01*
X106004895Y-80683155D01*
X106034732Y-80669231D01*
X106108300Y-80634446D01*
X106221064Y-80580957D01*
X106368487Y-80510921D01*
X106546034Y-80426493D01*
X106749170Y-80329829D01*
X106973359Y-80223087D01*
X107214066Y-80108423D01*
X107348421Y-80044397D01*
X107627755Y-79911391D01*
X107918672Y-79773097D01*
X108212608Y-79633573D01*
X108500999Y-79496876D01*
X108775278Y-79367062D01*
X109026882Y-79248188D01*
X109247246Y-79144311D01*
X109425572Y-79060534D01*
X109612393Y-78972600D01*
X109782238Y-78891918D01*
X109929421Y-78821247D01*
X110048260Y-78763346D01*
X110133069Y-78720973D01*
X110178164Y-78696888D01*
X110183993Y-78692449D01*
X110158773Y-78701604D01*
X110088643Y-78730843D01*
X109977523Y-78778451D01*
X109829333Y-78842714D01*
X109647991Y-78921916D01*
X109437417Y-79014341D01*
X109201529Y-79118276D01*
X108944247Y-79232003D01*
X108669490Y-79353809D01*
X108454421Y-79449384D01*
X108051733Y-79628515D01*
X107695094Y-79787212D01*
X107381711Y-79926804D01*
X107108788Y-80048620D01*
X106873533Y-80153992D01*
X106673150Y-80244248D01*
X106504844Y-80320719D01*
X106365823Y-80384734D01*
X106253291Y-80437623D01*
X106164455Y-80480717D01*
X106096519Y-80515344D01*
X106046689Y-80542836D01*
X106012172Y-80564521D01*
X105990173Y-80581729D01*
X105977897Y-80595791D01*
X105972550Y-80608036D01*
X105971338Y-80619794D01*
X105971474Y-80631049D01*
X105981883Y-80679195D01*
X106004895Y-80683155D01*
X106004895Y-80781436D01*
X105940170Y-80812105D01*
X106024786Y-80874632D01*
X106109401Y-80937159D01*
X106109401Y-81082035D01*
X106106392Y-81089804D01*
X106105158Y-81113073D01*
X106105158Y-81187452D01*
X107458876Y-81434474D01*
X107723061Y-81483076D01*
X107972909Y-81529798D01*
X108203164Y-81573605D01*
X108408568Y-81613462D01*
X108583863Y-81648333D01*
X108723792Y-81677181D01*
X108823097Y-81698972D01*
X108876522Y-81712669D01*
X108882613Y-81714946D01*
X108940136Y-81761767D01*
X108961135Y-81819925D01*
X108942348Y-81873018D01*
X108917831Y-81892108D01*
X108904218Y-81898168D01*
X108885674Y-81902873D01*
X108858246Y-81906019D01*
X108824443Y-81907182D01*
X108824443Y-81825273D01*
X108865077Y-81823941D01*
X108866713Y-81823371D01*
X108877838Y-81809066D01*
X108862451Y-81793551D01*
X108815951Y-81775560D01*
X108733740Y-81753831D01*
X108611216Y-81727100D01*
X108443781Y-81694101D01*
X108293812Y-81665932D01*
X108115692Y-81633140D01*
X107938558Y-81600929D01*
X107775625Y-81571672D01*
X107640111Y-81547744D01*
X107552329Y-81532698D01*
X107444070Y-81513957D01*
X107352841Y-81496880D01*
X107294131Y-81484408D01*
X107284961Y-81481938D01*
X107246661Y-81473539D01*
X107166009Y-81458075D01*
X107052675Y-81437238D01*
X106916327Y-81412721D01*
X106766635Y-81386215D01*
X106613269Y-81359412D01*
X106465898Y-81334003D01*
X106334190Y-81311682D01*
X106227816Y-81294138D01*
X106156446Y-81283065D01*
X106130809Y-81280000D01*
X106118167Y-81304471D01*
X106109006Y-81368871D01*
X106105178Y-81459680D01*
X106105158Y-81467158D01*
X106106363Y-81565149D01*
X106112461Y-81621335D01*
X106127179Y-81647371D01*
X106154244Y-81654911D01*
X106165316Y-81655309D01*
X106214496Y-81657588D01*
X106304351Y-81663067D01*
X106422234Y-81670935D01*
X106555497Y-81680376D01*
X106559684Y-81680681D01*
X106945238Y-81708507D01*
X107304097Y-81733813D01*
X107633355Y-81756418D01*
X107930104Y-81776143D01*
X108191435Y-81792809D01*
X108414443Y-81806234D01*
X108596218Y-81816240D01*
X108733854Y-81822646D01*
X108824443Y-81825273D01*
X108824443Y-81907182D01*
X108817984Y-81907405D01*
X108760937Y-81906828D01*
X108683151Y-81904086D01*
X108580677Y-81898976D01*
X108449562Y-81891296D01*
X108285856Y-81880844D01*
X108085606Y-81867418D01*
X107844861Y-81850814D01*
X107559670Y-81830832D01*
X107226081Y-81807267D01*
X107134773Y-81800801D01*
X106914815Y-81785315D01*
X106710489Y-81771113D01*
X106528247Y-81758629D01*
X106374546Y-81748299D01*
X106255839Y-81740557D01*
X106178581Y-81735837D01*
X106150418Y-81734526D01*
X106115323Y-81747561D01*
X106108866Y-81795167D01*
X106110066Y-81807257D01*
X106110483Y-81818863D01*
X106110391Y-81828894D01*
X106112296Y-81838997D01*
X106118704Y-81850817D01*
X106132120Y-81866003D01*
X106155050Y-81886198D01*
X106189997Y-81913052D01*
X106239469Y-81948208D01*
X106305970Y-81993315D01*
X106392005Y-82050019D01*
X106500080Y-82119965D01*
X106632700Y-82204801D01*
X106792370Y-82306172D01*
X106981597Y-82425726D01*
X107202884Y-82565108D01*
X107458737Y-82725965D01*
X107751663Y-82909944D01*
X108084165Y-83118690D01*
X108458750Y-83353851D01*
X108564947Y-83420530D01*
X108952947Y-83664272D01*
X109298081Y-83881377D01*
X109602867Y-84073490D01*
X109869823Y-84242252D01*
X110101467Y-84389308D01*
X110300317Y-84516300D01*
X110468890Y-84624872D01*
X110609705Y-84716668D01*
X110725280Y-84793329D01*
X110818132Y-84856501D01*
X110890779Y-84907825D01*
X110945740Y-84948945D01*
X110985532Y-84981505D01*
X111012673Y-85007148D01*
X111029681Y-85027517D01*
X111031594Y-85030341D01*
X111069095Y-85110387D01*
X111076812Y-85181470D01*
X111060386Y-85219228D01*
X111030157Y-85234287D01*
X110981451Y-85232910D01*
X110947362Y-85223611D01*
X110947362Y-85130105D01*
X110960606Y-85128911D01*
X110962504Y-85122953D01*
X110947943Y-85108674D01*
X110911809Y-85082511D01*
X110848989Y-85040905D01*
X110754369Y-84980295D01*
X110622836Y-84897122D01*
X110516737Y-84830291D01*
X110434743Y-84779120D01*
X110311603Y-84702895D01*
X110151832Y-84604385D01*
X109959947Y-84486362D01*
X109740463Y-84351596D01*
X109497897Y-84202860D01*
X109236766Y-84042924D01*
X108961585Y-83874559D01*
X108818947Y-83787377D01*
X108818947Y-83686316D01*
X108832316Y-83672947D01*
X108818947Y-83659579D01*
X108805579Y-83672947D01*
X108818947Y-83686316D01*
X108818947Y-83787377D01*
X108738737Y-83738351D01*
X108738737Y-83632842D01*
X108752105Y-83619474D01*
X108738737Y-83606105D01*
X108725368Y-83619474D01*
X108738737Y-83632842D01*
X108738737Y-83738351D01*
X108696891Y-83712774D01*
X108696891Y-83599550D01*
X108698632Y-83595893D01*
X108679809Y-83571493D01*
X108671895Y-83566000D01*
X108646899Y-83559187D01*
X108645158Y-83562844D01*
X108663980Y-83587244D01*
X108671895Y-83592737D01*
X108696891Y-83599550D01*
X108696891Y-83712774D01*
X108676870Y-83700536D01*
X108605053Y-83656684D01*
X108605053Y-83552631D01*
X108618421Y-83539263D01*
X108605053Y-83525895D01*
X108591684Y-83539263D01*
X108605053Y-83552631D01*
X108605053Y-83656684D01*
X108524842Y-83607706D01*
X108524842Y-83499158D01*
X108538211Y-83485789D01*
X108524842Y-83472421D01*
X108511474Y-83485789D01*
X108524842Y-83499158D01*
X108524842Y-83607706D01*
X108482996Y-83582155D01*
X108482996Y-83465866D01*
X108484737Y-83462208D01*
X108465915Y-83437809D01*
X108458000Y-83432316D01*
X108433004Y-83425503D01*
X108431263Y-83429160D01*
X108450085Y-83453559D01*
X108458000Y-83459052D01*
X108482996Y-83465866D01*
X108482996Y-83582155D01*
X108404526Y-83534239D01*
X108391158Y-83526084D01*
X108391158Y-83418947D01*
X108404526Y-83405579D01*
X108391158Y-83392210D01*
X108377790Y-83405579D01*
X108391158Y-83418947D01*
X108391158Y-83526084D01*
X108349312Y-83500554D01*
X108349312Y-83385655D01*
X108351053Y-83381998D01*
X108332230Y-83357598D01*
X108324316Y-83352105D01*
X108299320Y-83345292D01*
X108297579Y-83348949D01*
X108316401Y-83373349D01*
X108324316Y-83378842D01*
X108349312Y-83385655D01*
X108349312Y-83500554D01*
X108258707Y-83445276D01*
X108258707Y-83329211D01*
X108270842Y-83327250D01*
X108250347Y-83305776D01*
X108217368Y-83285263D01*
X108176030Y-83268052D01*
X108163895Y-83270013D01*
X108184390Y-83291487D01*
X108217368Y-83312000D01*
X108258707Y-83329211D01*
X108258707Y-83445276D01*
X108135417Y-83370057D01*
X108135417Y-83251971D01*
X108137158Y-83248314D01*
X108118336Y-83223914D01*
X108110421Y-83218421D01*
X108085425Y-83211608D01*
X108083684Y-83215265D01*
X108102506Y-83239665D01*
X108110421Y-83245158D01*
X108135417Y-83251971D01*
X108135417Y-83370057D01*
X108044812Y-83314779D01*
X108044812Y-83195527D01*
X108056947Y-83193565D01*
X108036452Y-83172092D01*
X108003474Y-83151579D01*
X107962135Y-83134368D01*
X107950000Y-83136329D01*
X107970496Y-83157802D01*
X108003474Y-83178316D01*
X108044812Y-83195527D01*
X108044812Y-83314779D01*
X107988835Y-83280627D01*
X107908156Y-83231452D01*
X107908156Y-83113954D01*
X107911632Y-83107685D01*
X107909895Y-83105725D01*
X107881265Y-83084765D01*
X107813009Y-83039271D01*
X107710906Y-82972959D01*
X107580731Y-82889543D01*
X107428264Y-82792738D01*
X107259281Y-82686259D01*
X107188000Y-82641567D01*
X106912522Y-82469252D01*
X106678959Y-82323551D01*
X106484035Y-82202493D01*
X106324475Y-82104107D01*
X106197000Y-82026421D01*
X106098335Y-81967464D01*
X106025205Y-81925266D01*
X105974331Y-81897854D01*
X105942439Y-81883257D01*
X105926251Y-81879505D01*
X105923363Y-81880672D01*
X105919842Y-81904194D01*
X105920228Y-81904544D01*
X105943980Y-81919463D01*
X106007893Y-81958822D01*
X106106451Y-82019254D01*
X106234140Y-82097394D01*
X106385444Y-82189876D01*
X106554847Y-82293335D01*
X106736833Y-82404406D01*
X106925888Y-82519722D01*
X107116496Y-82635919D01*
X107303142Y-82749630D01*
X107480309Y-82857491D01*
X107642483Y-82956136D01*
X107784147Y-83042200D01*
X107869790Y-83094146D01*
X107908156Y-83113954D01*
X107908156Y-83231452D01*
X107616884Y-83053915D01*
X107286841Y-82853022D01*
X106996878Y-82676869D01*
X106745164Y-82524376D01*
X106529868Y-82394462D01*
X106349161Y-82286048D01*
X106201213Y-82198055D01*
X106084193Y-82129401D01*
X105996271Y-82079006D01*
X105935618Y-82045792D01*
X105900403Y-82028678D01*
X105888795Y-82026584D01*
X105898965Y-82038429D01*
X105929083Y-82063135D01*
X105977318Y-82099621D01*
X105992943Y-82111155D01*
X106056385Y-82161410D01*
X106097067Y-82200550D01*
X106105158Y-82214091D01*
X106090647Y-82245702D01*
X106053499Y-82304381D01*
X106023490Y-82347243D01*
X105941821Y-82459983D01*
X105896408Y-82433189D01*
X105896408Y-82329061D01*
X105927381Y-82322316D01*
X105950686Y-82303984D01*
X105987620Y-82263078D01*
X105998211Y-82240890D01*
X105978152Y-82215931D01*
X105925974Y-82171171D01*
X105864526Y-82124763D01*
X105797684Y-82065261D01*
X105797684Y-81921684D01*
X105811053Y-81908316D01*
X105797684Y-81894947D01*
X105784316Y-81908316D01*
X105797684Y-81921684D01*
X105797684Y-82065261D01*
X105771637Y-82042073D01*
X105730647Y-81962051D01*
X105740508Y-81879879D01*
X105793466Y-81798388D01*
X105837634Y-81751741D01*
X105869734Y-81741958D01*
X105911220Y-81764242D01*
X105919730Y-81770160D01*
X105972376Y-81802478D01*
X106004160Y-81814737D01*
X106011318Y-81789524D01*
X106017410Y-81719979D01*
X106021975Y-81615239D01*
X106024548Y-81484441D01*
X106024947Y-81404501D01*
X106024947Y-80994265D01*
X105893151Y-80883133D01*
X105878419Y-80871464D01*
X105878419Y-80685480D01*
X105909285Y-80658501D01*
X105918000Y-80633464D01*
X105902724Y-80622686D01*
X105877249Y-80638852D01*
X105849220Y-80671546D01*
X105848733Y-80684908D01*
X105878419Y-80685480D01*
X105878419Y-80871464D01*
X105828497Y-80831918D01*
X105769838Y-80797583D01*
X105705475Y-80778092D01*
X105623710Y-80771413D01*
X105512846Y-80775513D01*
X105361184Y-80788358D01*
X105352580Y-80789169D01*
X105174844Y-80805958D01*
X105155783Y-81123189D01*
X105149455Y-81291773D01*
X105148118Y-81483977D01*
X105151760Y-81670180D01*
X105156000Y-81761263D01*
X105175277Y-82082105D01*
X105344534Y-82082105D01*
X105434998Y-82078177D01*
X105502533Y-82067941D01*
X105530316Y-82055368D01*
X105568459Y-82027861D01*
X105609382Y-82044161D01*
X105638652Y-82097446D01*
X105641046Y-82107704D01*
X105673820Y-82176975D01*
X105748397Y-82245276D01*
X105780011Y-82266885D01*
X105852400Y-82311696D01*
X105896408Y-82329061D01*
X105896408Y-82433189D01*
X105854076Y-82408212D01*
X105774504Y-82360027D01*
X105701552Y-82313990D01*
X105698341Y-82311892D01*
X105648833Y-82284177D01*
X105624535Y-82288878D01*
X105615393Y-82306326D01*
X105624164Y-82326005D01*
X105663469Y-82358439D01*
X105736706Y-82405666D01*
X105847271Y-82469724D01*
X105998561Y-82552652D01*
X106193974Y-82656488D01*
X106233796Y-82677399D01*
X106357542Y-82742283D01*
X106523627Y-82829366D01*
X106727030Y-82936017D01*
X106962733Y-83059603D01*
X107225715Y-83197493D01*
X107510956Y-83347055D01*
X107813437Y-83505655D01*
X108128138Y-83670663D01*
X108450040Y-83839447D01*
X108774121Y-84009373D01*
X108889360Y-84069797D01*
X109195150Y-84229918D01*
X109487716Y-84382696D01*
X109763552Y-84526324D01*
X110019149Y-84658997D01*
X110251002Y-84778906D01*
X110455601Y-84884244D01*
X110629440Y-84973204D01*
X110769011Y-85043980D01*
X110870807Y-85094764D01*
X110931320Y-85123748D01*
X110947362Y-85130105D01*
X110947362Y-85223611D01*
X110909284Y-85213222D01*
X110808667Y-85173348D01*
X110674616Y-85111415D01*
X110502143Y-85025550D01*
X110385465Y-84965560D01*
X110281688Y-84911600D01*
X110134611Y-84834875D01*
X109948265Y-84737499D01*
X109726684Y-84621587D01*
X109473899Y-84489252D01*
X109193944Y-84342609D01*
X108890850Y-84183773D01*
X108568650Y-84014858D01*
X108231378Y-83837978D01*
X107883064Y-83655248D01*
X107527742Y-83468781D01*
X107169444Y-83280693D01*
X106812203Y-83093098D01*
X106460050Y-82908110D01*
X106117020Y-82727843D01*
X105844044Y-82584334D01*
X105693668Y-82503610D01*
X105585062Y-82440062D01*
X105511654Y-82388009D01*
X105466873Y-82341769D01*
X105444148Y-82295660D01*
X105436906Y-82244001D01*
X105436737Y-82232191D01*
X105433181Y-82195263D01*
X105414322Y-82174192D01*
X105367874Y-82163444D01*
X105281549Y-82157483D01*
X105269632Y-82156907D01*
X105102526Y-82148947D01*
X105075790Y-81828105D01*
X104870494Y-81811732D01*
X104870494Y-81718413D01*
X104978174Y-81715673D01*
X105055737Y-81710597D01*
X105071903Y-81692657D01*
X105082383Y-81638102D01*
X105087878Y-81540977D01*
X105089158Y-81427062D01*
X105089158Y-81146334D01*
X105076124Y-81147043D01*
X105076124Y-80947581D01*
X105087360Y-80925400D01*
X105089158Y-80877765D01*
X105087192Y-80821687D01*
X105082382Y-80800281D01*
X105081592Y-80800965D01*
X105060984Y-80829056D01*
X105041157Y-80855347D01*
X105022856Y-80897319D01*
X105048723Y-80932147D01*
X105076124Y-80947581D01*
X105076124Y-81147043D01*
X104876017Y-81157942D01*
X104709577Y-81168519D01*
X104588045Y-81180782D01*
X104502853Y-81196856D01*
X104495681Y-81199605D01*
X104495681Y-81122286D01*
X104705525Y-81105417D01*
X104839091Y-81093313D01*
X104925489Y-81081903D01*
X104970995Y-81070136D01*
X104982211Y-81059070D01*
X104962719Y-81039674D01*
X104919635Y-81004146D01*
X104919635Y-80852021D01*
X104942577Y-80841428D01*
X104985448Y-80799425D01*
X105008947Y-80772000D01*
X105059945Y-80703804D01*
X105074209Y-80672778D01*
X105054158Y-80681340D01*
X105002209Y-80731908D01*
X104986324Y-80749376D01*
X104941194Y-80805479D01*
X104919310Y-80844114D01*
X104919635Y-80852021D01*
X104919635Y-81004146D01*
X104911920Y-80997783D01*
X104849466Y-80949124D01*
X104777117Y-80898341D01*
X104720812Y-80866842D01*
X104695157Y-80861220D01*
X104668742Y-80888860D01*
X104623218Y-80946186D01*
X104584637Y-80998417D01*
X104495681Y-81122286D01*
X104495681Y-81199605D01*
X104445437Y-81218869D01*
X104407231Y-81248945D01*
X104384989Y-81279823D01*
X104344408Y-81389876D01*
X104343592Y-81502638D01*
X104381224Y-81601308D01*
X104413127Y-81639260D01*
X104474429Y-81684524D01*
X104537811Y-81695826D01*
X104586917Y-81690399D01*
X104651184Y-81685753D01*
X104686039Y-81694192D01*
X104688105Y-81698801D01*
X104712643Y-81709565D01*
X104777711Y-81716239D01*
X104870494Y-81718413D01*
X104870494Y-81811732D01*
X104835158Y-81808913D01*
X104719602Y-81800669D01*
X104644867Y-81799334D01*
X104598566Y-81806484D01*
X104568315Y-81823696D01*
X104547571Y-81845501D01*
X104523667Y-81878261D01*
X104522268Y-81906056D01*
X104549139Y-81941598D01*
X104610048Y-81997598D01*
X104620910Y-82007169D01*
X104688858Y-82071665D01*
X104719711Y-82116094D01*
X104720122Y-82151140D01*
X104716090Y-82159985D01*
X104712331Y-82183584D01*
X104727484Y-82215193D01*
X104766740Y-82260412D01*
X104835289Y-82324840D01*
X104938321Y-82414076D01*
X104999147Y-82465351D01*
X105109873Y-82555932D01*
X105208820Y-82632646D01*
X105287717Y-82689398D01*
X105338297Y-82720095D01*
X105349870Y-82723789D01*
X105401939Y-82740756D01*
X105441777Y-82768455D01*
X105476464Y-82794054D01*
X105507255Y-82790810D01*
X105552201Y-82754462D01*
X105569142Y-82738383D01*
X105625572Y-82694195D01*
X105680658Y-82678984D01*
X105744449Y-82695028D01*
X105826995Y-82744609D01*
X105924684Y-82819034D01*
X106020067Y-82904771D01*
X106069489Y-82977928D01*
X106075467Y-83048497D01*
X106040517Y-83126467D01*
X106012214Y-83166491D01*
X105972844Y-83224042D01*
X105967028Y-83254732D01*
X105985477Y-83268439D01*
X106017064Y-83305522D01*
X106022513Y-83368868D01*
X106001458Y-83437883D01*
X105988851Y-83458091D01*
X105948252Y-83491364D01*
X105885343Y-83495780D01*
X105857841Y-83492053D01*
X105782695Y-83488942D01*
X105727915Y-83516428D01*
X105702118Y-83541378D01*
X105644341Y-83586660D01*
X105589322Y-83606092D01*
X105588243Y-83606105D01*
X105584596Y-83604905D01*
X105584596Y-83525895D01*
X105617501Y-83505787D01*
X105672751Y-83452403D01*
X105741849Y-83376146D01*
X105816299Y-83287422D01*
X105887604Y-83196637D01*
X105947266Y-83114196D01*
X105986789Y-83050504D01*
X105998211Y-83019382D01*
X105978009Y-82978751D01*
X105924855Y-82920338D01*
X105855372Y-82860725D01*
X105778940Y-82804825D01*
X105717128Y-82765169D01*
X105683958Y-82750526D01*
X105656114Y-82769644D01*
X105603519Y-82820379D01*
X105535087Y-82892805D01*
X105459734Y-82976995D01*
X105386376Y-83063021D01*
X105364878Y-83089850D01*
X105364878Y-82975541D01*
X105401797Y-82960134D01*
X105422834Y-82930460D01*
X105404832Y-82893871D01*
X105392409Y-82879545D01*
X105354892Y-82845764D01*
X105325368Y-82852520D01*
X105304840Y-82871644D01*
X105278131Y-82907413D01*
X105293348Y-82935771D01*
X105314227Y-82952234D01*
X105364878Y-82975541D01*
X105364878Y-83089850D01*
X105323928Y-83140956D01*
X105285794Y-83193869D01*
X105261640Y-83248992D01*
X105262977Y-83285310D01*
X105298116Y-83323738D01*
X105360066Y-83377019D01*
X105434471Y-83434412D01*
X105506973Y-83485179D01*
X105563216Y-83518579D01*
X105584596Y-83525895D01*
X105584596Y-83604905D01*
X105536569Y-83589093D01*
X105460735Y-83544935D01*
X105374736Y-83483945D01*
X105292570Y-83416441D01*
X105228234Y-83352737D01*
X105206724Y-83324924D01*
X105181622Y-83279077D01*
X105181561Y-83239460D01*
X105208436Y-83183599D01*
X105220389Y-83163100D01*
X105277103Y-83066977D01*
X105245710Y-83029184D01*
X105245710Y-82829847D01*
X105241513Y-82814914D01*
X105207312Y-82778320D01*
X105139907Y-82716904D01*
X105036104Y-82627504D01*
X104941154Y-82547488D01*
X104833112Y-82458470D01*
X104739802Y-82384491D01*
X104668608Y-82331180D01*
X104626917Y-82304165D01*
X104619414Y-82302305D01*
X104634191Y-82322523D01*
X104681740Y-82369385D01*
X104753571Y-82435522D01*
X104841196Y-82513565D01*
X104936124Y-82596146D01*
X105029866Y-82675896D01*
X105113931Y-82745446D01*
X105179831Y-82797428D01*
X105219075Y-82824472D01*
X105223098Y-82826281D01*
X105245710Y-82829847D01*
X105245710Y-83029184D01*
X105188948Y-82960850D01*
X105134949Y-82903122D01*
X105050714Y-82821604D01*
X104947219Y-82726583D01*
X104835439Y-82628343D01*
X104820923Y-82615917D01*
X104709358Y-82521092D01*
X104631133Y-82456903D01*
X104578914Y-82419268D01*
X104553266Y-82407674D01*
X104553266Y-82256609D01*
X104578207Y-82219959D01*
X104555652Y-82168124D01*
X104486356Y-82100143D01*
X104413077Y-82051674D01*
X104363426Y-82045555D01*
X104341309Y-82081906D01*
X104340526Y-82095691D01*
X104360241Y-82134688D01*
X104408291Y-82182636D01*
X104468031Y-82226945D01*
X104522818Y-82255026D01*
X104553266Y-82256609D01*
X104553266Y-82407674D01*
X104545370Y-82404104D01*
X104523171Y-82407330D01*
X104504983Y-82424862D01*
X104496822Y-82435451D01*
X104456755Y-82488299D01*
X104456755Y-82350866D01*
X104457067Y-82350575D01*
X104457324Y-82318022D01*
X104412469Y-82263629D01*
X104372364Y-82227321D01*
X104310620Y-82171455D01*
X104269982Y-82128901D01*
X104260449Y-82113443D01*
X104275742Y-82082600D01*
X104313213Y-82029870D01*
X104321559Y-82019272D01*
X104382537Y-81943071D01*
X104497746Y-82039325D01*
X104576486Y-82101790D01*
X104620100Y-82130092D01*
X104626369Y-82125117D01*
X104593072Y-82087751D01*
X104527684Y-82027373D01*
X104407368Y-81921448D01*
X104452914Y-81841355D01*
X104479403Y-81785179D01*
X104473545Y-81762671D01*
X104464259Y-81761263D01*
X104415334Y-81738683D01*
X104357410Y-81679554D01*
X104301797Y-81596793D01*
X104276950Y-81547368D01*
X104235410Y-81453789D01*
X104251039Y-81555122D01*
X104253753Y-81640382D01*
X104226463Y-81700399D01*
X104219243Y-81708859D01*
X104150947Y-81753597D01*
X104106640Y-81756474D01*
X104106640Y-81673775D01*
X104139757Y-81654517D01*
X104171207Y-81606838D01*
X104154151Y-81567164D01*
X104117651Y-81552076D01*
X104073940Y-81564456D01*
X104051864Y-81605795D01*
X104062039Y-81652726D01*
X104068475Y-81660327D01*
X104106640Y-81673775D01*
X104106640Y-81756474D01*
X104076536Y-81758429D01*
X104011622Y-81728294D01*
X103971818Y-81668131D01*
X103966211Y-81628804D01*
X103957302Y-81579431D01*
X103924840Y-81529471D01*
X103860223Y-81467705D01*
X103812474Y-81428333D01*
X103658737Y-81304966D01*
X103545806Y-81431323D01*
X103488515Y-81497100D01*
X103449993Y-81544574D01*
X103438858Y-81562638D01*
X103676063Y-81758676D01*
X103875439Y-81922335D01*
X104039903Y-82055873D01*
X104172369Y-82161545D01*
X104275752Y-82241607D01*
X104352967Y-82298314D01*
X104406929Y-82333923D01*
X104440554Y-82350688D01*
X104456755Y-82350866D01*
X104456755Y-82488299D01*
X104452591Y-82493792D01*
X104323032Y-82388513D01*
X104260483Y-82337383D01*
X104166073Y-82259824D01*
X104049125Y-82163515D01*
X103918963Y-82056134D01*
X103796481Y-81954925D01*
X103399489Y-81626615D01*
X103298111Y-81740729D01*
X103239816Y-81804140D01*
X103203388Y-81832634D01*
X103191133Y-81832312D01*
X103191133Y-81728048D01*
X103193735Y-81727700D01*
X103220901Y-81703502D01*
X103273787Y-81646108D01*
X103345574Y-81563795D01*
X103429445Y-81464840D01*
X103518581Y-81357520D01*
X103606166Y-81250110D01*
X103685380Y-81150888D01*
X103749407Y-81068131D01*
X103791427Y-81010114D01*
X103804796Y-80985895D01*
X103787433Y-80960360D01*
X103765684Y-80937526D01*
X103765684Y-80825474D01*
X103779053Y-80812105D01*
X103765684Y-80798737D01*
X103752316Y-80812105D01*
X103765684Y-80825474D01*
X103765684Y-80937526D01*
X103744928Y-80915734D01*
X103738836Y-80909900D01*
X103721927Y-80893863D01*
X103721927Y-80684947D01*
X103761808Y-80668175D01*
X103766641Y-80664259D01*
X103780427Y-80654529D01*
X103790980Y-80646347D01*
X103794526Y-80636003D01*
X103787288Y-80619790D01*
X103765494Y-80594000D01*
X103725367Y-80554925D01*
X103663134Y-80498856D01*
X103575019Y-80422086D01*
X103457249Y-80320907D01*
X103306047Y-80191610D01*
X103147448Y-80055997D01*
X102968605Y-79904092D01*
X102826161Y-79785781D01*
X102716965Y-79698663D01*
X102637869Y-79640341D01*
X102585722Y-79608415D01*
X102557376Y-79600487D01*
X102552553Y-79602879D01*
X102525716Y-79639191D01*
X102522421Y-79650342D01*
X102542026Y-79671296D01*
X102597801Y-79722920D01*
X102685189Y-79801235D01*
X102799634Y-79902259D01*
X102936578Y-80022013D01*
X103091463Y-80156516D01*
X103259731Y-80301788D01*
X103436827Y-80453849D01*
X103618192Y-80608719D01*
X103678288Y-80659837D01*
X103721927Y-80684947D01*
X103721927Y-80893863D01*
X103672807Y-80847273D01*
X103608924Y-80923268D01*
X103569016Y-80970850D01*
X103502871Y-81049829D01*
X103418550Y-81150576D01*
X103324115Y-81263463D01*
X103287925Y-81306737D01*
X103030808Y-81614210D01*
X103104141Y-81674227D01*
X103156900Y-81712378D01*
X103191133Y-81728048D01*
X103191133Y-81832312D01*
X103175912Y-81831912D01*
X103145119Y-81808258D01*
X103109552Y-81781214D01*
X103079960Y-81783439D01*
X103038418Y-81819386D01*
X103018789Y-81839662D01*
X103017053Y-81841122D01*
X103017053Y-81734526D01*
X103030421Y-81721158D01*
X103017053Y-81707789D01*
X103003684Y-81721158D01*
X103017053Y-81734526D01*
X103017053Y-81841122D01*
X102963847Y-81885892D01*
X102947550Y-81892929D01*
X102947550Y-81600842D01*
X102969844Y-81581339D01*
X103019452Y-81527882D01*
X103090006Y-81448052D01*
X103175140Y-81349427D01*
X103268486Y-81239588D01*
X103363676Y-81126113D01*
X103454342Y-81016582D01*
X103534118Y-80918575D01*
X103596636Y-80839671D01*
X103635528Y-80787450D01*
X103645368Y-80770197D01*
X103625901Y-80749007D01*
X103571018Y-80697830D01*
X103486002Y-80621368D01*
X103376133Y-80524323D01*
X103246692Y-80411398D01*
X103103911Y-80288111D01*
X102926929Y-80135907D01*
X102786261Y-80015002D01*
X102677459Y-79922087D01*
X102596072Y-79853853D01*
X102537651Y-79806992D01*
X102497745Y-79778193D01*
X102471906Y-79764149D01*
X102455683Y-79761551D01*
X102444627Y-79767089D01*
X102434288Y-79777455D01*
X102426689Y-79784523D01*
X102396930Y-79815902D01*
X102339953Y-79881751D01*
X102261903Y-79974752D01*
X102168928Y-80087587D01*
X102072970Y-80205745D01*
X101761508Y-80591896D01*
X101867912Y-80684854D01*
X102079671Y-80869342D01*
X102276383Y-81039722D01*
X102454565Y-81193037D01*
X102610732Y-81326333D01*
X102741400Y-81436652D01*
X102843084Y-81521039D01*
X102912301Y-81576537D01*
X102945566Y-81600192D01*
X102947550Y-81600842D01*
X102947550Y-81892929D01*
X102918565Y-81905446D01*
X102909579Y-81904414D01*
X102901190Y-81901509D01*
X102891937Y-81901743D01*
X102879076Y-81908324D01*
X102859864Y-81924462D01*
X102845331Y-81939302D01*
X102845331Y-81757974D01*
X102862112Y-81756715D01*
X102893764Y-81716215D01*
X102877894Y-81677462D01*
X102846118Y-81650893D01*
X102813011Y-81624144D01*
X102745324Y-81567319D01*
X102648875Y-81485377D01*
X102529479Y-81383279D01*
X102392955Y-81265984D01*
X102245118Y-81138453D01*
X102242366Y-81136075D01*
X102076049Y-80992878D01*
X101945146Y-80881799D01*
X101845096Y-80799443D01*
X101771337Y-80742414D01*
X101719306Y-80707317D01*
X101684441Y-80690756D01*
X101662179Y-80689336D01*
X101651138Y-80696035D01*
X101644575Y-80710796D01*
X101651786Y-80733228D01*
X101676575Y-80767099D01*
X101722746Y-80816178D01*
X101794102Y-80884232D01*
X101894448Y-80975029D01*
X102027588Y-81092338D01*
X102197326Y-81239927D01*
X102220265Y-81259791D01*
X102403217Y-81417239D01*
X102550066Y-81541364D01*
X102664256Y-81634833D01*
X102749234Y-81700312D01*
X102808444Y-81740470D01*
X102845331Y-81757974D01*
X102845331Y-81939302D01*
X102831557Y-81953367D01*
X102791414Y-81998248D01*
X102736689Y-82062314D01*
X102664642Y-82148776D01*
X102572527Y-82260842D01*
X102457602Y-82401723D01*
X102317125Y-82574627D01*
X102148351Y-82782764D01*
X101956517Y-83019496D01*
X101807494Y-83202827D01*
X101666069Y-83375711D01*
X101536434Y-83533105D01*
X101422782Y-83669964D01*
X101329305Y-83781244D01*
X101260196Y-83861900D01*
X101219649Y-83906887D01*
X101215592Y-83910917D01*
X101134150Y-83988467D01*
X101064374Y-83961820D01*
X101064374Y-83873474D01*
X101076781Y-83851482D01*
X101078632Y-83830251D01*
X101093819Y-83799558D01*
X101144798Y-83799678D01*
X101166835Y-83799664D01*
X101193172Y-83788710D01*
X101227777Y-83762607D01*
X101274615Y-83717148D01*
X101337652Y-83648125D01*
X101420854Y-83551329D01*
X101528185Y-83422553D01*
X101663613Y-83257588D01*
X101715113Y-83194532D01*
X101943756Y-82913652D01*
X102146901Y-82662661D01*
X102323331Y-82443102D01*
X102471828Y-82256514D01*
X102591177Y-82104440D01*
X102680160Y-81988419D01*
X102737561Y-81909993D01*
X102762162Y-81870703D01*
X102763053Y-81867382D01*
X102743610Y-81844818D01*
X102688762Y-81792205D01*
X102603729Y-81714266D01*
X102493732Y-81615722D01*
X102363993Y-81501293D01*
X102219731Y-81375703D01*
X102211874Y-81368907D01*
X102064447Y-81241644D01*
X101928507Y-81124704D01*
X101809824Y-81023016D01*
X101714163Y-80941509D01*
X101647294Y-80885113D01*
X101614982Y-80858757D01*
X101614817Y-80858635D01*
X101590614Y-80848035D01*
X101562631Y-80856586D01*
X101523658Y-80890390D01*
X101466489Y-80955549D01*
X101393718Y-81045793D01*
X101289969Y-81174182D01*
X101211995Y-81264184D01*
X101154401Y-81320862D01*
X101111793Y-81349277D01*
X101078776Y-81354494D01*
X101067901Y-81351554D01*
X101029648Y-81364780D01*
X100963249Y-81423108D01*
X100868598Y-81526632D01*
X100838941Y-81561447D01*
X100755511Y-81662358D01*
X100702997Y-81732052D01*
X100694154Y-81747754D01*
X100694154Y-81583909D01*
X100735905Y-81553895D01*
X100757790Y-81534000D01*
X100818918Y-81467404D01*
X100836906Y-81426727D01*
X100813204Y-81413684D01*
X100780127Y-81433720D01*
X100736189Y-81480936D01*
X100696903Y-81535997D01*
X100677785Y-81579568D01*
X100677579Y-81582713D01*
X100694154Y-81583909D01*
X100694154Y-81747754D01*
X100676531Y-81779049D01*
X100671246Y-81811867D01*
X100681247Y-81837412D01*
X100693194Y-81869014D01*
X100685364Y-81906665D01*
X100652738Y-81961481D01*
X100590297Y-82044577D01*
X100584199Y-82052352D01*
X100524935Y-82130547D01*
X100483061Y-82191168D01*
X100465837Y-82223537D01*
X100466199Y-82225936D01*
X100493465Y-82243148D01*
X100553563Y-82278364D01*
X100621751Y-82317299D01*
X100766449Y-82399091D01*
X100808909Y-82314203D01*
X100849692Y-82254661D01*
X100892954Y-82221895D01*
X100897390Y-82220739D01*
X100949024Y-82230679D01*
X101019383Y-82266713D01*
X101092598Y-82317493D01*
X101152801Y-82371673D01*
X101184121Y-82417903D01*
X101185579Y-82426825D01*
X101204311Y-82480166D01*
X101239279Y-82523467D01*
X101274499Y-82561471D01*
X101274746Y-82595804D01*
X101248948Y-82641243D01*
X101216057Y-82689719D01*
X101158026Y-82772072D01*
X101081433Y-82879134D01*
X100992862Y-83001733D01*
X100898891Y-83130699D01*
X100845635Y-83203270D01*
X100823803Y-83197984D01*
X100823803Y-83039890D01*
X100859398Y-83013621D01*
X100912711Y-82953797D01*
X100974733Y-82873176D01*
X101036453Y-82784515D01*
X101088860Y-82700572D01*
X101122944Y-82634107D01*
X101131075Y-82604810D01*
X101125089Y-82570585D01*
X101101272Y-82583506D01*
X101054196Y-82599886D01*
X101024201Y-82589048D01*
X101024201Y-82470171D01*
X101053879Y-82468563D01*
X101073544Y-82434671D01*
X101041656Y-82390169D01*
X100991559Y-82354857D01*
X100926353Y-82327829D01*
X100891816Y-82338436D01*
X100892478Y-82368659D01*
X100925394Y-82409226D01*
X100974618Y-82447331D01*
X101024201Y-82470171D01*
X101024201Y-82589048D01*
X101021062Y-82587913D01*
X100988792Y-82576751D01*
X100974759Y-82597339D01*
X100971684Y-82660446D01*
X100971684Y-82660968D01*
X100953404Y-82753621D01*
X100906089Y-82830660D01*
X100841032Y-82877112D01*
X100803329Y-82884210D01*
X100799550Y-82884910D01*
X100799550Y-82801126D01*
X100826185Y-82797516D01*
X100861245Y-82765505D01*
X100887286Y-82723490D01*
X100891474Y-82704185D01*
X100880366Y-82688984D01*
X100846105Y-82720478D01*
X100840302Y-82727512D01*
X100807464Y-82774737D01*
X100799372Y-82800928D01*
X100799550Y-82801126D01*
X100799550Y-82884910D01*
X100768002Y-82890755D01*
X100779654Y-82918321D01*
X100784244Y-82923975D01*
X100804542Y-82977452D01*
X100800980Y-83006128D01*
X100801187Y-83038537D01*
X100823803Y-83039890D01*
X100823803Y-83197984D01*
X100822854Y-83197754D01*
X100805470Y-83183217D01*
X100755246Y-83158261D01*
X100708566Y-83151579D01*
X100664261Y-83137887D01*
X100656790Y-83134049D01*
X100656790Y-83031917D01*
X100678152Y-83030909D01*
X100701517Y-83007159D01*
X100688569Y-82977144D01*
X100659530Y-82950356D01*
X100659530Y-82748946D01*
X100740199Y-82723740D01*
X100762368Y-82706277D01*
X100804983Y-82637608D01*
X100801958Y-82562705D01*
X100754211Y-82499737D01*
X100751840Y-82498042D01*
X100689383Y-82461931D01*
X100657684Y-82465028D01*
X100650842Y-82494475D01*
X100634652Y-82538304D01*
X100594568Y-82598842D01*
X100582907Y-82613265D01*
X100540884Y-82666020D01*
X100531653Y-82694317D01*
X100552999Y-82714119D01*
X100567781Y-82722264D01*
X100659530Y-82748946D01*
X100659530Y-82950356D01*
X100644158Y-82936175D01*
X100573273Y-82891845D01*
X100522149Y-82891293D01*
X100506417Y-82906695D01*
X100515570Y-82935549D01*
X100555432Y-82974535D01*
X100608380Y-83010907D01*
X100656790Y-83031917D01*
X100656790Y-83134049D01*
X100596513Y-83103076D01*
X100519970Y-83056543D01*
X100449278Y-83007686D01*
X100399083Y-82965902D01*
X100383474Y-82943002D01*
X100397397Y-82916507D01*
X100431559Y-82865114D01*
X100438039Y-82855941D01*
X100492604Y-82779312D01*
X100420137Y-82733802D01*
X100420137Y-82616842D01*
X100489361Y-82596171D01*
X100540628Y-82544435D01*
X100568224Y-82477046D01*
X100566434Y-82409416D01*
X100529544Y-82356959D01*
X100518916Y-82350414D01*
X100464301Y-82326058D01*
X100441235Y-82335121D01*
X100436947Y-82372306D01*
X100419600Y-82424960D01*
X100377428Y-82485996D01*
X100373340Y-82490509D01*
X100334206Y-82552287D01*
X100343805Y-82595828D01*
X100400246Y-82616032D01*
X100420137Y-82616842D01*
X100420137Y-82733802D01*
X100391249Y-82715660D01*
X100288842Y-82651868D01*
X100249657Y-82630848D01*
X100249657Y-82518415D01*
X100288239Y-82493297D01*
X100331539Y-82448766D01*
X100367334Y-82397527D01*
X100383403Y-82352284D01*
X100383474Y-82349820D01*
X100379025Y-82321388D01*
X100360223Y-82326152D01*
X100318885Y-82367913D01*
X100300886Y-82388201D01*
X100253782Y-82449751D01*
X100229019Y-82497970D01*
X100228016Y-82511416D01*
X100249657Y-82518415D01*
X100249657Y-82630848D01*
X100220098Y-82614991D01*
X100172809Y-82604460D01*
X100151317Y-82613074D01*
X100151317Y-82459011D01*
X100176305Y-82440573D01*
X100220303Y-82395421D01*
X100269656Y-82339180D01*
X100310713Y-82287475D01*
X100329822Y-82255933D01*
X100330000Y-82254504D01*
X100308811Y-82238528D01*
X100254368Y-82205412D01*
X100206317Y-82177970D01*
X100127521Y-82134510D01*
X100084564Y-82114723D01*
X100066574Y-82116260D01*
X100062678Y-82136768D01*
X100062632Y-82146896D01*
X100046442Y-82190796D01*
X100006394Y-82251252D01*
X99995153Y-82265143D01*
X99964597Y-82301457D01*
X99964597Y-82099930D01*
X99980492Y-82096260D01*
X99982421Y-82082105D01*
X99972638Y-82060098D01*
X99964597Y-82064281D01*
X99961397Y-82096011D01*
X99964597Y-82099930D01*
X99964597Y-82301457D01*
X99927675Y-82345337D01*
X100028574Y-82402045D01*
X100095383Y-82437027D01*
X100142620Y-82457133D01*
X100151317Y-82459011D01*
X100151317Y-82613074D01*
X100134768Y-82619707D01*
X100093766Y-82660163D01*
X100059327Y-82700197D01*
X99998166Y-82780086D01*
X99972784Y-82839304D01*
X99974224Y-82880396D01*
X99974286Y-82938230D01*
X99957188Y-82963491D01*
X99958919Y-82990424D01*
X99999723Y-83049965D01*
X100080191Y-83142878D01*
X100164724Y-83232641D01*
X100263263Y-83334119D01*
X100332178Y-83401712D01*
X100378549Y-83440418D01*
X100409458Y-83455239D01*
X100431986Y-83451175D01*
X100451395Y-83435056D01*
X100489752Y-83403691D01*
X100519412Y-83412150D01*
X100541030Y-83433018D01*
X100569478Y-83469728D01*
X100557079Y-83494430D01*
X100538679Y-83507391D01*
X100520082Y-83526746D01*
X100528480Y-83550718D01*
X100570230Y-83587184D01*
X100645626Y-83639935D01*
X100735649Y-83697927D01*
X100834145Y-83757042D01*
X100928722Y-83810369D01*
X101006989Y-83850998D01*
X101056556Y-83872017D01*
X101064374Y-83873474D01*
X101064374Y-83961820D01*
X101018899Y-83944452D01*
X100912486Y-83894313D01*
X100779131Y-83817388D01*
X100631870Y-83722412D01*
X100483736Y-83618115D01*
X100347763Y-83513231D01*
X100252096Y-83430708D01*
X100148410Y-83330184D01*
X100047915Y-83224809D01*
X99957824Y-83123049D01*
X99885350Y-83033370D01*
X99837705Y-82964239D01*
X99822000Y-82925869D01*
X99837016Y-82888217D01*
X99876678Y-82821650D01*
X99932908Y-82739544D01*
X99942316Y-82726656D01*
X99999981Y-82645854D01*
X100042564Y-82581478D01*
X100062156Y-82545594D01*
X100062632Y-82543165D01*
X100041615Y-82520135D01*
X99986316Y-82478404D01*
X99908357Y-82426690D01*
X99902211Y-82422833D01*
X99884386Y-82411241D01*
X99884386Y-82180140D01*
X99900281Y-82176470D01*
X99902211Y-82162316D01*
X99892428Y-82140308D01*
X99884386Y-82144491D01*
X99881186Y-82176221D01*
X99884386Y-82180140D01*
X99884386Y-82411241D01*
X99817905Y-82368003D01*
X99769859Y-82327370D01*
X99748043Y-82288357D01*
X99742429Y-82238385D01*
X99742384Y-82222383D01*
X99766084Y-82108038D01*
D14*
X142000302Y-106505000D02*
X142000302Y-107305000D01*
X141600302Y-106905000D02*
X142400302Y-106905000D01*
X150091000Y-108687000D02*
X150091000Y-109753000D01*
X150051000Y-108452000D02*
X150051000Y-109988000D01*
X150011000Y-108272000D02*
X150011000Y-110168000D01*
X149971000Y-108122000D02*
X149971000Y-110318000D01*
X149931000Y-107991000D02*
X149931000Y-110449000D01*
X149891000Y-107874000D02*
X149891000Y-110566000D01*
X149851000Y-107767000D02*
X149851000Y-110673000D01*
X149811000Y-107668000D02*
X149811000Y-110772000D01*
X149771000Y-107575000D02*
X149771000Y-110865000D01*
X149731000Y-107489000D02*
X149731000Y-110951000D01*
X149691000Y-107407000D02*
X149691000Y-111033000D01*
X149651000Y-107330000D02*
X149651000Y-111110000D01*
X149611000Y-107256000D02*
X149611000Y-111184000D01*
X149571000Y-107186000D02*
X149571000Y-111254000D01*
X149531000Y-110260000D02*
X149531000Y-111322000D01*
X149531000Y-107118000D02*
X149531000Y-108180000D01*
X149491000Y-110260000D02*
X149491000Y-111386000D01*
X149491000Y-107054000D02*
X149491000Y-108180000D01*
X149451000Y-110260000D02*
X149451000Y-111448000D01*
X149451000Y-106992000D02*
X149451000Y-108180000D01*
X149411000Y-110260000D02*
X149411000Y-111507000D01*
X149411000Y-106933000D02*
X149411000Y-108180000D01*
X149371000Y-110260000D02*
X149371000Y-111565000D01*
X149371000Y-106875000D02*
X149371000Y-108180000D01*
X149331000Y-110260000D02*
X149331000Y-111620000D01*
X149331000Y-106820000D02*
X149331000Y-108180000D01*
X149291000Y-110260000D02*
X149291000Y-111674000D01*
X149291000Y-106766000D02*
X149291000Y-108180000D01*
X149251000Y-110260000D02*
X149251000Y-111725000D01*
X149251000Y-106715000D02*
X149251000Y-108180000D01*
X149211000Y-110260000D02*
X149211000Y-111776000D01*
X149211000Y-106664000D02*
X149211000Y-108180000D01*
X149171000Y-110260000D02*
X149171000Y-111824000D01*
X149171000Y-106616000D02*
X149171000Y-108180000D01*
X149131000Y-110260000D02*
X149131000Y-111871000D01*
X149131000Y-106569000D02*
X149131000Y-108180000D01*
X149091000Y-110260000D02*
X149091000Y-111917000D01*
X149091000Y-106523000D02*
X149091000Y-108180000D01*
X149051000Y-110260000D02*
X149051000Y-111961000D01*
X149051000Y-106479000D02*
X149051000Y-108180000D01*
X149011000Y-110260000D02*
X149011000Y-112004000D01*
X149011000Y-106436000D02*
X149011000Y-108180000D01*
X148971000Y-110260000D02*
X148971000Y-112046000D01*
X148971000Y-106394000D02*
X148971000Y-108180000D01*
X148931000Y-110260000D02*
X148931000Y-112087000D01*
X148931000Y-106353000D02*
X148931000Y-108180000D01*
X148891000Y-110260000D02*
X148891000Y-112127000D01*
X148891000Y-106313000D02*
X148891000Y-108180000D01*
X148851000Y-110260000D02*
X148851000Y-112165000D01*
X148851000Y-106275000D02*
X148851000Y-108180000D01*
X148811000Y-110260000D02*
X148811000Y-112203000D01*
X148811000Y-106237000D02*
X148811000Y-108180000D01*
X148771000Y-110260000D02*
X148771000Y-112239000D01*
X148771000Y-106201000D02*
X148771000Y-108180000D01*
X148731000Y-110260000D02*
X148731000Y-112275000D01*
X148731000Y-106165000D02*
X148731000Y-108180000D01*
X148691000Y-110260000D02*
X148691000Y-112310000D01*
X148691000Y-106130000D02*
X148691000Y-108180000D01*
X148651000Y-110260000D02*
X148651000Y-112344000D01*
X148651000Y-106096000D02*
X148651000Y-108180000D01*
X148611000Y-110260000D02*
X148611000Y-112376000D01*
X148611000Y-106064000D02*
X148611000Y-108180000D01*
X148571000Y-110260000D02*
X148571000Y-112409000D01*
X148571000Y-106031000D02*
X148571000Y-108180000D01*
X148531000Y-110260000D02*
X148531000Y-112440000D01*
X148531000Y-106000000D02*
X148531000Y-108180000D01*
X148491000Y-110260000D02*
X148491000Y-112470000D01*
X148491000Y-105970000D02*
X148491000Y-108180000D01*
X148451000Y-110260000D02*
X148451000Y-112500000D01*
X148451000Y-105940000D02*
X148451000Y-108180000D01*
X148411000Y-110260000D02*
X148411000Y-112529000D01*
X148411000Y-105911000D02*
X148411000Y-108180000D01*
X148371000Y-110260000D02*
X148371000Y-112558000D01*
X148371000Y-105882000D02*
X148371000Y-108180000D01*
X148331000Y-110260000D02*
X148331000Y-112585000D01*
X148331000Y-105855000D02*
X148331000Y-108180000D01*
X148291000Y-110260000D02*
X148291000Y-112612000D01*
X148291000Y-105828000D02*
X148291000Y-108180000D01*
X148251000Y-110260000D02*
X148251000Y-112638000D01*
X148251000Y-105802000D02*
X148251000Y-108180000D01*
X148211000Y-110260000D02*
X148211000Y-112664000D01*
X148211000Y-105776000D02*
X148211000Y-108180000D01*
X148171000Y-110260000D02*
X148171000Y-112689000D01*
X148171000Y-105751000D02*
X148171000Y-108180000D01*
X148131000Y-110260000D02*
X148131000Y-112713000D01*
X148131000Y-105727000D02*
X148131000Y-108180000D01*
X148091000Y-110260000D02*
X148091000Y-112737000D01*
X148091000Y-105703000D02*
X148091000Y-108180000D01*
X148051000Y-110260000D02*
X148051000Y-112760000D01*
X148051000Y-105680000D02*
X148051000Y-108180000D01*
X148011000Y-110260000D02*
X148011000Y-112782000D01*
X148011000Y-105658000D02*
X148011000Y-108180000D01*
X147971000Y-110260000D02*
X147971000Y-112804000D01*
X147971000Y-105636000D02*
X147971000Y-108180000D01*
X147931000Y-110260000D02*
X147931000Y-112826000D01*
X147931000Y-105614000D02*
X147931000Y-108180000D01*
X147891000Y-110260000D02*
X147891000Y-112847000D01*
X147891000Y-105593000D02*
X147891000Y-108180000D01*
X147851000Y-110260000D02*
X147851000Y-112867000D01*
X147851000Y-105573000D02*
X147851000Y-108180000D01*
X147811000Y-110260000D02*
X147811000Y-112886000D01*
X147811000Y-105554000D02*
X147811000Y-108180000D01*
X147771000Y-110260000D02*
X147771000Y-112906000D01*
X147771000Y-105534000D02*
X147771000Y-108180000D01*
X147731000Y-110260000D02*
X147731000Y-112924000D01*
X147731000Y-105516000D02*
X147731000Y-108180000D01*
X147691000Y-110260000D02*
X147691000Y-112942000D01*
X147691000Y-105498000D02*
X147691000Y-108180000D01*
X147651000Y-110260000D02*
X147651000Y-112960000D01*
X147651000Y-105480000D02*
X147651000Y-108180000D01*
X147611000Y-110260000D02*
X147611000Y-112977000D01*
X147611000Y-105463000D02*
X147611000Y-108180000D01*
X147571000Y-110260000D02*
X147571000Y-112994000D01*
X147571000Y-105446000D02*
X147571000Y-108180000D01*
X147531000Y-110260000D02*
X147531000Y-113010000D01*
X147531000Y-105430000D02*
X147531000Y-108180000D01*
X147491000Y-110260000D02*
X147491000Y-113025000D01*
X147491000Y-105415000D02*
X147491000Y-108180000D01*
X147451000Y-105399000D02*
X147451000Y-113041000D01*
X147411000Y-105385000D02*
X147411000Y-113055000D01*
X147371000Y-105370000D02*
X147371000Y-113070000D01*
X147331000Y-105357000D02*
X147331000Y-113083000D01*
X147291000Y-105343000D02*
X147291000Y-113097000D01*
X147251000Y-105331000D02*
X147251000Y-113109000D01*
X147211000Y-105318000D02*
X147211000Y-113122000D01*
X147171000Y-105306000D02*
X147171000Y-113134000D01*
X147131000Y-105295000D02*
X147131000Y-113145000D01*
X147091000Y-105284000D02*
X147091000Y-113156000D01*
X147051000Y-105273000D02*
X147051000Y-113167000D01*
X147011000Y-105263000D02*
X147011000Y-113177000D01*
X146971000Y-105253000D02*
X146971000Y-113187000D01*
X146931000Y-105244000D02*
X146931000Y-113196000D01*
X146891000Y-105235000D02*
X146891000Y-113205000D01*
X146851000Y-105226000D02*
X146851000Y-113214000D01*
X146811000Y-105218000D02*
X146811000Y-113222000D01*
X146771000Y-105210000D02*
X146771000Y-113230000D01*
X146731000Y-105203000D02*
X146731000Y-113237000D01*
X146690000Y-105196000D02*
X146690000Y-113244000D01*
X146650000Y-105190000D02*
X146650000Y-113250000D01*
X146610000Y-105183000D02*
X146610000Y-113257000D01*
X146570000Y-105178000D02*
X146570000Y-113262000D01*
X146530000Y-105172000D02*
X146530000Y-113268000D01*
X146490000Y-105168000D02*
X146490000Y-113272000D01*
X146450000Y-105163000D02*
X146450000Y-113277000D01*
X146410000Y-105159000D02*
X146410000Y-113281000D01*
X146370000Y-105155000D02*
X146370000Y-113285000D01*
X146330000Y-105152000D02*
X146330000Y-113288000D01*
X146290000Y-105149000D02*
X146290000Y-113291000D01*
X146250000Y-105146000D02*
X146250000Y-113294000D01*
X146210000Y-105144000D02*
X146210000Y-113296000D01*
X146170000Y-105143000D02*
X146170000Y-113297000D01*
X146130000Y-105141000D02*
X146130000Y-113299000D01*
X146090000Y-105140000D02*
X146090000Y-113300000D01*
X146050000Y-105140000D02*
X146050000Y-113300000D01*
X146010000Y-105140000D02*
X146010000Y-113300000D01*
X150130000Y-109220000D02*
G75*
G03X150130000Y-109220000I-4120000J0D01*
G01*
X148829698Y-77645000D02*
X148829698Y-76845000D01*
X149229698Y-77245000D02*
X148429698Y-77245000D01*
X140739000Y-75463000D02*
X140739000Y-74397000D01*
X140779000Y-75698000D02*
X140779000Y-74162000D01*
X140819000Y-75878000D02*
X140819000Y-73982000D01*
X140859000Y-76028000D02*
X140859000Y-73832000D01*
X140899000Y-76159000D02*
X140899000Y-73701000D01*
X140939000Y-76276000D02*
X140939000Y-73584000D01*
X140979000Y-76383000D02*
X140979000Y-73477000D01*
X141019000Y-76482000D02*
X141019000Y-73378000D01*
X141059000Y-76575000D02*
X141059000Y-73285000D01*
X141099000Y-76661000D02*
X141099000Y-73199000D01*
X141139000Y-76743000D02*
X141139000Y-73117000D01*
X141179000Y-76820000D02*
X141179000Y-73040000D01*
X141219000Y-76894000D02*
X141219000Y-72966000D01*
X141259000Y-76964000D02*
X141259000Y-72896000D01*
X141299000Y-73890000D02*
X141299000Y-72828000D01*
X141299000Y-77032000D02*
X141299000Y-75970000D01*
X141339000Y-73890000D02*
X141339000Y-72764000D01*
X141339000Y-77096000D02*
X141339000Y-75970000D01*
X141379000Y-73890000D02*
X141379000Y-72702000D01*
X141379000Y-77158000D02*
X141379000Y-75970000D01*
X141419000Y-73890000D02*
X141419000Y-72643000D01*
X141419000Y-77217000D02*
X141419000Y-75970000D01*
X141459000Y-73890000D02*
X141459000Y-72585000D01*
X141459000Y-77275000D02*
X141459000Y-75970000D01*
X141499000Y-73890000D02*
X141499000Y-72530000D01*
X141499000Y-77330000D02*
X141499000Y-75970000D01*
X141539000Y-73890000D02*
X141539000Y-72476000D01*
X141539000Y-77384000D02*
X141539000Y-75970000D01*
X141579000Y-73890000D02*
X141579000Y-72425000D01*
X141579000Y-77435000D02*
X141579000Y-75970000D01*
X141619000Y-73890000D02*
X141619000Y-72374000D01*
X141619000Y-77486000D02*
X141619000Y-75970000D01*
X141659000Y-73890000D02*
X141659000Y-72326000D01*
X141659000Y-77534000D02*
X141659000Y-75970000D01*
X141699000Y-73890000D02*
X141699000Y-72279000D01*
X141699000Y-77581000D02*
X141699000Y-75970000D01*
X141739000Y-73890000D02*
X141739000Y-72233000D01*
X141739000Y-77627000D02*
X141739000Y-75970000D01*
X141779000Y-73890000D02*
X141779000Y-72189000D01*
X141779000Y-77671000D02*
X141779000Y-75970000D01*
X141819000Y-73890000D02*
X141819000Y-72146000D01*
X141819000Y-77714000D02*
X141819000Y-75970000D01*
X141859000Y-73890000D02*
X141859000Y-72104000D01*
X141859000Y-77756000D02*
X141859000Y-75970000D01*
X141899000Y-73890000D02*
X141899000Y-72063000D01*
X141899000Y-77797000D02*
X141899000Y-75970000D01*
X141939000Y-73890000D02*
X141939000Y-72023000D01*
X141939000Y-77837000D02*
X141939000Y-75970000D01*
X141979000Y-73890000D02*
X141979000Y-71985000D01*
X141979000Y-77875000D02*
X141979000Y-75970000D01*
X142019000Y-73890000D02*
X142019000Y-71947000D01*
X142019000Y-77913000D02*
X142019000Y-75970000D01*
X142059000Y-73890000D02*
X142059000Y-71911000D01*
X142059000Y-77949000D02*
X142059000Y-75970000D01*
X142099000Y-73890000D02*
X142099000Y-71875000D01*
X142099000Y-77985000D02*
X142099000Y-75970000D01*
X142139000Y-73890000D02*
X142139000Y-71840000D01*
X142139000Y-78020000D02*
X142139000Y-75970000D01*
X142179000Y-73890000D02*
X142179000Y-71806000D01*
X142179000Y-78054000D02*
X142179000Y-75970000D01*
X142219000Y-73890000D02*
X142219000Y-71774000D01*
X142219000Y-78086000D02*
X142219000Y-75970000D01*
X142259000Y-73890000D02*
X142259000Y-71741000D01*
X142259000Y-78119000D02*
X142259000Y-75970000D01*
X142299000Y-73890000D02*
X142299000Y-71710000D01*
X142299000Y-78150000D02*
X142299000Y-75970000D01*
X142339000Y-73890000D02*
X142339000Y-71680000D01*
X142339000Y-78180000D02*
X142339000Y-75970000D01*
X142379000Y-73890000D02*
X142379000Y-71650000D01*
X142379000Y-78210000D02*
X142379000Y-75970000D01*
X142419000Y-73890000D02*
X142419000Y-71621000D01*
X142419000Y-78239000D02*
X142419000Y-75970000D01*
X142459000Y-73890000D02*
X142459000Y-71592000D01*
X142459000Y-78268000D02*
X142459000Y-75970000D01*
X142499000Y-73890000D02*
X142499000Y-71565000D01*
X142499000Y-78295000D02*
X142499000Y-75970000D01*
X142539000Y-73890000D02*
X142539000Y-71538000D01*
X142539000Y-78322000D02*
X142539000Y-75970000D01*
X142579000Y-73890000D02*
X142579000Y-71512000D01*
X142579000Y-78348000D02*
X142579000Y-75970000D01*
X142619000Y-73890000D02*
X142619000Y-71486000D01*
X142619000Y-78374000D02*
X142619000Y-75970000D01*
X142659000Y-73890000D02*
X142659000Y-71461000D01*
X142659000Y-78399000D02*
X142659000Y-75970000D01*
X142699000Y-73890000D02*
X142699000Y-71437000D01*
X142699000Y-78423000D02*
X142699000Y-75970000D01*
X142739000Y-73890000D02*
X142739000Y-71413000D01*
X142739000Y-78447000D02*
X142739000Y-75970000D01*
X142779000Y-73890000D02*
X142779000Y-71390000D01*
X142779000Y-78470000D02*
X142779000Y-75970000D01*
X142819000Y-73890000D02*
X142819000Y-71368000D01*
X142819000Y-78492000D02*
X142819000Y-75970000D01*
X142859000Y-73890000D02*
X142859000Y-71346000D01*
X142859000Y-78514000D02*
X142859000Y-75970000D01*
X142899000Y-73890000D02*
X142899000Y-71324000D01*
X142899000Y-78536000D02*
X142899000Y-75970000D01*
X142939000Y-73890000D02*
X142939000Y-71303000D01*
X142939000Y-78557000D02*
X142939000Y-75970000D01*
X142979000Y-73890000D02*
X142979000Y-71283000D01*
X142979000Y-78577000D02*
X142979000Y-75970000D01*
X143019000Y-73890000D02*
X143019000Y-71264000D01*
X143019000Y-78596000D02*
X143019000Y-75970000D01*
X143059000Y-73890000D02*
X143059000Y-71244000D01*
X143059000Y-78616000D02*
X143059000Y-75970000D01*
X143099000Y-73890000D02*
X143099000Y-71226000D01*
X143099000Y-78634000D02*
X143099000Y-75970000D01*
X143139000Y-73890000D02*
X143139000Y-71208000D01*
X143139000Y-78652000D02*
X143139000Y-75970000D01*
X143179000Y-73890000D02*
X143179000Y-71190000D01*
X143179000Y-78670000D02*
X143179000Y-75970000D01*
X143219000Y-73890000D02*
X143219000Y-71173000D01*
X143219000Y-78687000D02*
X143219000Y-75970000D01*
X143259000Y-73890000D02*
X143259000Y-71156000D01*
X143259000Y-78704000D02*
X143259000Y-75970000D01*
X143299000Y-73890000D02*
X143299000Y-71140000D01*
X143299000Y-78720000D02*
X143299000Y-75970000D01*
X143339000Y-73890000D02*
X143339000Y-71125000D01*
X143339000Y-78735000D02*
X143339000Y-75970000D01*
X143379000Y-78751000D02*
X143379000Y-71109000D01*
X143419000Y-78765000D02*
X143419000Y-71095000D01*
X143459000Y-78780000D02*
X143459000Y-71080000D01*
X143499000Y-78793000D02*
X143499000Y-71067000D01*
X143539000Y-78807000D02*
X143539000Y-71053000D01*
X143579000Y-78819000D02*
X143579000Y-71041000D01*
X143619000Y-78832000D02*
X143619000Y-71028000D01*
X143659000Y-78844000D02*
X143659000Y-71016000D01*
X143699000Y-78855000D02*
X143699000Y-71005000D01*
X143739000Y-78866000D02*
X143739000Y-70994000D01*
X143779000Y-78877000D02*
X143779000Y-70983000D01*
X143819000Y-78887000D02*
X143819000Y-70973000D01*
X143859000Y-78897000D02*
X143859000Y-70963000D01*
X143899000Y-78906000D02*
X143899000Y-70954000D01*
X143939000Y-78915000D02*
X143939000Y-70945000D01*
X143979000Y-78924000D02*
X143979000Y-70936000D01*
X144019000Y-78932000D02*
X144019000Y-70928000D01*
X144059000Y-78940000D02*
X144059000Y-70920000D01*
X144099000Y-78947000D02*
X144099000Y-70913000D01*
X144140000Y-78954000D02*
X144140000Y-70906000D01*
X144180000Y-78960000D02*
X144180000Y-70900000D01*
X144220000Y-78967000D02*
X144220000Y-70893000D01*
X144260000Y-78972000D02*
X144260000Y-70888000D01*
X144300000Y-78978000D02*
X144300000Y-70882000D01*
X144340000Y-78982000D02*
X144340000Y-70878000D01*
X144380000Y-78987000D02*
X144380000Y-70873000D01*
X144420000Y-78991000D02*
X144420000Y-70869000D01*
X144460000Y-78995000D02*
X144460000Y-70865000D01*
X144500000Y-78998000D02*
X144500000Y-70862000D01*
X144540000Y-79001000D02*
X144540000Y-70859000D01*
X144580000Y-79004000D02*
X144580000Y-70856000D01*
X144620000Y-79006000D02*
X144620000Y-70854000D01*
X144660000Y-79007000D02*
X144660000Y-70853000D01*
X144700000Y-79009000D02*
X144700000Y-70851000D01*
X144740000Y-79010000D02*
X144740000Y-70850000D01*
X144780000Y-79010000D02*
X144780000Y-70850000D01*
X144820000Y-79010000D02*
X144820000Y-70850000D01*
X148940000Y-74930000D02*
G75*
G03X148940000Y-74930000I-4120000J0D01*
G01*
X151000000Y-76200000D02*
X171580000Y-76200000D01*
X153670000Y-86360000D02*
X171580000Y-86360000D01*
X151000000Y-87630000D02*
X151000000Y-89030000D01*
X151000000Y-89030000D02*
X152400000Y-89030000D01*
X151000000Y-86360000D02*
X153670000Y-86360000D01*
X153670000Y-86360000D02*
X153670000Y-89030000D01*
X153670000Y-89030000D02*
X171580000Y-89030000D01*
X171580000Y-89030000D02*
X171580000Y-73530000D01*
X171580000Y-73530000D02*
X151000000Y-73530000D01*
X151000000Y-73530000D02*
X151000000Y-86360000D01*
X171580000Y-105410000D02*
X151000000Y-105410000D01*
X168910000Y-95250000D02*
X151000000Y-95250000D01*
X171580000Y-93980000D02*
X171580000Y-92580000D01*
X171580000Y-92580000D02*
X170180000Y-92580000D01*
X171580000Y-95250000D02*
X168910000Y-95250000D01*
X168910000Y-95250000D02*
X168910000Y-92580000D01*
X168910000Y-92580000D02*
X151000000Y-92580000D01*
X151000000Y-92580000D02*
X151000000Y-108080000D01*
X151000000Y-108080000D02*
X171580000Y-108080000D01*
X171580000Y-108080000D02*
X171580000Y-95250000D01*
D12*
X152400000Y-115570000D02*
X152400000Y-113030000D01*
X172720000Y-115570000D02*
X152400000Y-115570000D01*
X172720000Y-113030000D02*
X172720000Y-115570000D01*
X152400000Y-113030000D02*
X172720000Y-113030000D01*
X129540000Y-115570000D02*
X149860000Y-115570000D01*
X129540000Y-113030000D02*
X129540000Y-115570000D01*
X149860000Y-113030000D02*
X129540000Y-113030000D01*
X149860000Y-115570000D02*
X149860000Y-113030000D01*
X106680000Y-113030000D02*
X127000000Y-113030000D01*
X106680000Y-115570000D02*
X106680000Y-113030000D01*
X127000000Y-115570000D02*
X106680000Y-115570000D01*
X127000000Y-113030000D02*
X127000000Y-115570000D01*
X172720000Y-64770000D02*
X172720000Y-110490000D01*
X177800000Y-64770000D02*
X172720000Y-64770000D01*
X177800000Y-110490000D02*
X177800000Y-64770000D01*
X172720000Y-110490000D02*
X177800000Y-110490000D01*
X147320000Y-64770000D02*
X167640000Y-64770000D01*
X147320000Y-67310000D02*
X147320000Y-64770000D01*
X167640000Y-67310000D02*
X147320000Y-67310000D01*
X167640000Y-64770000D02*
X167640000Y-67310000D01*
X124460000Y-64770000D02*
X144780000Y-64770000D01*
X124460000Y-67310000D02*
X124460000Y-64770000D01*
X144780000Y-67310000D02*
X124460000Y-67310000D01*
X144780000Y-64770000D02*
X144780000Y-67310000D01*
D15*
X170180000Y-65405000D02*
X170180000Y-66675000D01*
X169545000Y-66040000D02*
X170815000Y-66040000D01*
X146050000Y-80645000D02*
X146050000Y-81915000D01*
X145415000Y-81280000D02*
X146685000Y-81280000D01*
X146050000Y-108585000D02*
X146050000Y-109855000D01*
X145415000Y-109220000D02*
X146685000Y-109220000D01*
X176530000Y-113665000D02*
X176530000Y-114935000D01*
X175895000Y-114300000D02*
X177165000Y-114300000D01*
X93980000Y-113665000D02*
X93980000Y-114935000D01*
X93345000Y-114300000D02*
X94615000Y-114300000D01*
X95250000Y-65405000D02*
X95250000Y-66675000D01*
X94615000Y-66040000D02*
X95885000Y-66040000D01*
D12*
X97536000Y-64770000D02*
X122936000Y-64770000D01*
X97536000Y-67310000D02*
X97536000Y-64770000D01*
X122936000Y-67310000D02*
X97536000Y-67310000D01*
X122936000Y-64770000D02*
X122936000Y-67310000D01*
D15*
X96774000Y-66040000D02*
G75*
G03X96774000Y-66040000I-1524000J0D01*
G01*
X147574000Y-81280000D02*
G75*
G03X147574000Y-81280000I-1524000J0D01*
G01*
X171704000Y-66040000D02*
G75*
G03X171704000Y-66040000I-1524000J0D01*
G01*
X178054000Y-114300000D02*
G75*
G03X178054000Y-114300000I-1524000J0D01*
G01*
X147574000Y-109220000D02*
G75*
G03X147574000Y-109220000I-1524000J0D01*
G01*
X95504000Y-114300000D02*
G75*
G03X95504000Y-114300000I-1524000J0D01*
G01*
D12*
X124172380Y-90423333D02*
X124886666Y-90423333D01*
X125029523Y-90470952D01*
X125124761Y-90566190D01*
X125172380Y-90709047D01*
X125172380Y-90804285D01*
X124172380Y-90042380D02*
X124172380Y-89423333D01*
X124553333Y-89756666D01*
X124553333Y-89613809D01*
X124600952Y-89518571D01*
X124648571Y-89470952D01*
X124743809Y-89423333D01*
X124981904Y-89423333D01*
X125077142Y-89470952D01*
X125124761Y-89518571D01*
X125172380Y-89613809D01*
X125172380Y-89899523D01*
X125124761Y-89994761D01*
X125077142Y-90042380D01*
X140162380Y-75203333D02*
X140876666Y-75203333D01*
X141019523Y-75250952D01*
X141114761Y-75346190D01*
X141162380Y-75489047D01*
X141162380Y-75584285D01*
X140257619Y-74774761D02*
X140210000Y-74727142D01*
X140162380Y-74631904D01*
X140162380Y-74393809D01*
X140210000Y-74298571D01*
X140257619Y-74250952D01*
X140352857Y-74203333D01*
X140448095Y-74203333D01*
X140590952Y-74250952D01*
X141162380Y-74822380D01*
X141162380Y-74203333D01*
X140162380Y-105683333D02*
X140876666Y-105683333D01*
X141019523Y-105730952D01*
X141114761Y-105826190D01*
X141162380Y-105969047D01*
X141162380Y-106064285D01*
X141162380Y-104683333D02*
X141162380Y-105254761D01*
X141162380Y-104969047D02*
X140162380Y-104969047D01*
X140305238Y-105064285D01*
X140400476Y-105159523D01*
X140448095Y-105254761D01*
X142113333Y-90837142D02*
X142065714Y-90884761D01*
X141922857Y-90932380D01*
X141827619Y-90932380D01*
X141684761Y-90884761D01*
X141589523Y-90789523D01*
X141541904Y-90694285D01*
X141494285Y-90503809D01*
X141494285Y-90360952D01*
X141541904Y-90170476D01*
X141589523Y-90075238D01*
X141684761Y-89980000D01*
X141827619Y-89932380D01*
X141922857Y-89932380D01*
X142065714Y-89980000D01*
X142113333Y-90027619D01*
X142446666Y-89932380D02*
X143065714Y-89932380D01*
X142732380Y-90313333D01*
X142875238Y-90313333D01*
X142970476Y-90360952D01*
X143018095Y-90408571D01*
X143065714Y-90503809D01*
X143065714Y-90741904D01*
X143018095Y-90837142D01*
X142970476Y-90884761D01*
X142875238Y-90932380D01*
X142589523Y-90932380D01*
X142494285Y-90884761D01*
X142446666Y-90837142D01*
X142113333Y-91487142D02*
X142065714Y-91534761D01*
X141922857Y-91582380D01*
X141827619Y-91582380D01*
X141684761Y-91534761D01*
X141589523Y-91439523D01*
X141541904Y-91344285D01*
X141494285Y-91153809D01*
X141494285Y-91010952D01*
X141541904Y-90820476D01*
X141589523Y-90725238D01*
X141684761Y-90630000D01*
X141827619Y-90582380D01*
X141922857Y-90582380D01*
X142065714Y-90630000D01*
X142113333Y-90677619D01*
X143065714Y-91582380D02*
X142494285Y-91582380D01*
X142780000Y-91582380D02*
X142780000Y-90582380D01*
X142684761Y-90725238D01*
X142589523Y-90820476D01*
X142494285Y-90868095D01*
X145843333Y-104327142D02*
X145795714Y-104374761D01*
X145652857Y-104422380D01*
X145557619Y-104422380D01*
X145414761Y-104374761D01*
X145319523Y-104279523D01*
X145271904Y-104184285D01*
X145224285Y-103993809D01*
X145224285Y-103850952D01*
X145271904Y-103660476D01*
X145319523Y-103565238D01*
X145414761Y-103470000D01*
X145557619Y-103422380D01*
X145652857Y-103422380D01*
X145795714Y-103470000D01*
X145843333Y-103517619D01*
X146700476Y-103755714D02*
X146700476Y-104422380D01*
X146462380Y-103374761D02*
X146224285Y-104089047D01*
X146843333Y-104089047D01*
X144653333Y-80537142D02*
X144605714Y-80584761D01*
X144462857Y-80632380D01*
X144367619Y-80632380D01*
X144224761Y-80584761D01*
X144129523Y-80489523D01*
X144081904Y-80394285D01*
X144034285Y-80203809D01*
X144034285Y-80060952D01*
X144081904Y-79870476D01*
X144129523Y-79775238D01*
X144224761Y-79680000D01*
X144367619Y-79632380D01*
X144462857Y-79632380D01*
X144605714Y-79680000D01*
X144653333Y-79727619D01*
X145034285Y-79727619D02*
X145081904Y-79680000D01*
X145177142Y-79632380D01*
X145415238Y-79632380D01*
X145510476Y-79680000D01*
X145558095Y-79727619D01*
X145605714Y-79822857D01*
X145605714Y-79918095D01*
X145558095Y-80060952D01*
X144986666Y-80632380D01*
X145605714Y-80632380D01*
X150026666Y-81994285D02*
X150026666Y-81518095D01*
X150312380Y-82089523D02*
X149312380Y-81756190D01*
X150312380Y-81422857D01*
X149407619Y-81137142D02*
X149360000Y-81089523D01*
X149312380Y-80994285D01*
X149312380Y-80756190D01*
X149360000Y-80660952D01*
X149407619Y-80613333D01*
X149502857Y-80565714D01*
X149598095Y-80565714D01*
X149740952Y-80613333D01*
X150312380Y-81184761D01*
X150312380Y-80565714D01*
X172886666Y-101044285D02*
X172886666Y-100568095D01*
X173172380Y-101139523D02*
X172172380Y-100806190D01*
X173172380Y-100472857D01*
X173172380Y-99615714D02*
X173172380Y-100187142D01*
X173172380Y-99901428D02*
X172172380Y-99901428D01*
X172315238Y-99996666D01*
X172410476Y-100091904D01*
X172458095Y-100187142D01*
M02*
