G04 #@! TF.GenerationSoftware,KiCad,Pcbnew,5.1.5-52549c5~84~ubuntu16.04.1*
G04 #@! TF.CreationDate,2019-12-28T23:35:38+01:00*
G04 #@! TF.ProjectId,schema,73636865-6d61-42e6-9b69-6361645f7063,rev?*
G04 #@! TF.SameCoordinates,Original*
G04 #@! TF.FileFunction,Copper,L2,Bot*
G04 #@! TF.FilePolarity,Positive*
%FSLAX46Y46*%
G04 Gerber Fmt 4.6, Leading zero omitted, Abs format (unit mm)*
G04 Created by KiCad (PCBNEW 5.1.5-52549c5~84~ubuntu16.04.1) date 2019-12-28 23:35:38*
%MOMM*%
%LPD*%
G04 APERTURE LIST*
%ADD10C,1.600000*%
%ADD11R,1.600000X1.600000*%
%ADD12C,4.400000*%
%ADD13R,1.750000X1.750000*%
%ADD14C,1.750000*%
%ADD15O,1.600000X1.600000*%
%ADD16O,1.574800X2.286000*%
%ADD17C,1.524000*%
%ADD18C,0.250000*%
%ADD19C,0.508000*%
%ADD20C,0.762000*%
%ADD21C,0.254000*%
G04 APERTURE END LIST*
D10*
X113110000Y-95250000D03*
X118110000Y-95250000D03*
X170100000Y-83820000D03*
X165100000Y-83820000D03*
X144700000Y-81280000D03*
D11*
X139700000Y-81280000D03*
D10*
X138430000Y-95250000D03*
D11*
X143430000Y-95250000D03*
D12*
X176530000Y-114300000D03*
X170180000Y-66040000D03*
X93980000Y-114300000D03*
X95250000Y-66040000D03*
D13*
X106680000Y-105410000D03*
D14*
X106680000Y-102910000D03*
X106680000Y-100410000D03*
X106680000Y-97910000D03*
X106680000Y-95410000D03*
D13*
X132080000Y-96520000D03*
D14*
X129580000Y-96520000D03*
X127080000Y-96520000D03*
X124580000Y-96520000D03*
D13*
X151130000Y-82550000D03*
D14*
X153630000Y-82550000D03*
X156130000Y-82550000D03*
X158630000Y-82550000D03*
D11*
X115570000Y-86360000D03*
D15*
X133350000Y-73660000D03*
X118110000Y-86360000D03*
X130810000Y-73660000D03*
X120650000Y-86360000D03*
X128270000Y-73660000D03*
X123190000Y-86360000D03*
X125730000Y-73660000D03*
X125730000Y-86360000D03*
X123190000Y-73660000D03*
X128270000Y-86360000D03*
X120650000Y-73660000D03*
X130810000Y-86360000D03*
X118110000Y-73660000D03*
X133350000Y-86360000D03*
X115570000Y-73660000D03*
D11*
X167640000Y-93980000D03*
D15*
X149860000Y-106680000D03*
X165100000Y-93980000D03*
X152400000Y-106680000D03*
X162560000Y-93980000D03*
X154940000Y-106680000D03*
X160020000Y-93980000D03*
X157480000Y-106680000D03*
X157480000Y-93980000D03*
X160020000Y-106680000D03*
X154940000Y-93980000D03*
X162560000Y-106680000D03*
X152400000Y-93980000D03*
X165100000Y-106680000D03*
X149860000Y-93980000D03*
X167640000Y-106680000D03*
D16*
X161290000Y-66040000D03*
X158750000Y-66040000D03*
X156210000Y-66040000D03*
X153670000Y-66040000D03*
X151130000Y-66040000D03*
X148590000Y-66040000D03*
X108966000Y-66040000D03*
X111506000Y-66040000D03*
X114046000Y-66040000D03*
X116586000Y-66040000D03*
X119126000Y-66040000D03*
X121666000Y-66040000D03*
X125730000Y-66040000D03*
X128270000Y-66040000D03*
X130810000Y-66040000D03*
X133350000Y-66040000D03*
X135890000Y-66040000D03*
X138430000Y-66040000D03*
X140970000Y-66040000D03*
X171450000Y-114300000D03*
X168910000Y-114300000D03*
X166370000Y-114300000D03*
X163830000Y-114300000D03*
X161290000Y-114300000D03*
X158750000Y-114300000D03*
X156210000Y-114300000D03*
X153670000Y-114300000D03*
X148590000Y-114300000D03*
X146050000Y-114300000D03*
X143510000Y-114300000D03*
X140970000Y-114300000D03*
X138430000Y-114300000D03*
X135890000Y-114300000D03*
X133350000Y-114300000D03*
X98806000Y-66052700D03*
X101346000Y-66052700D03*
X103886000Y-66052700D03*
X106426000Y-66052700D03*
X143510000Y-66052700D03*
X163830000Y-66052700D03*
X166370000Y-66052700D03*
D17*
X176530000Y-66052700D03*
X173990000Y-66052700D03*
X176530000Y-101612700D03*
X173990000Y-101612700D03*
X176530000Y-99072700D03*
X173990000Y-99072700D03*
X176530000Y-96532700D03*
X173990000Y-96532700D03*
X176530000Y-93992700D03*
X173990000Y-93992700D03*
X176530000Y-91452700D03*
X173990000Y-91452700D03*
X176530000Y-88912700D03*
X173990000Y-88912700D03*
X176530000Y-86372700D03*
X173990000Y-86372700D03*
X176530000Y-83832700D03*
X173990000Y-83832700D03*
X176530000Y-81292700D03*
X173990000Y-81292700D03*
X176530000Y-78752700D03*
X173990000Y-78752700D03*
X176530000Y-76212700D03*
X173990000Y-76212700D03*
X176530000Y-73672700D03*
X173990000Y-73672700D03*
X176530000Y-71132700D03*
X173990000Y-71132700D03*
X176530000Y-68592700D03*
X173990000Y-68592700D03*
X176530000Y-106692700D03*
X173990000Y-106692700D03*
X176530000Y-104152700D03*
X173990000Y-104152700D03*
X176530000Y-109232700D03*
X173990000Y-109232700D03*
D16*
X130810000Y-114312700D03*
X125730000Y-114312700D03*
X123190000Y-114312700D03*
X120650000Y-114312700D03*
X118110000Y-114312700D03*
X115570000Y-114312700D03*
X113030000Y-114312700D03*
X110490000Y-114312700D03*
X107950000Y-114312700D03*
D18*
X115570000Y-73660000D02*
X115570000Y-72534700D01*
X108966000Y-66040000D02*
X110078700Y-66040000D01*
X110078700Y-66040000D02*
X110078700Y-67043400D01*
X110078700Y-67043400D02*
X115570000Y-72534700D01*
X118110000Y-73660000D02*
X118110000Y-72534700D01*
X111506000Y-66040000D02*
X112618700Y-66040000D01*
X112618700Y-66040000D02*
X112618700Y-67043400D01*
X112618700Y-67043400D02*
X118110000Y-72534700D01*
X123190000Y-73660000D02*
X122064700Y-73660000D01*
X114046000Y-66040000D02*
X115158700Y-66040000D01*
X115158700Y-66040000D02*
X115158700Y-66596400D01*
X115158700Y-66596400D02*
X121097000Y-72534700D01*
X121097000Y-72534700D02*
X121218100Y-72534700D01*
X121218100Y-72534700D02*
X122064700Y-73381300D01*
X122064700Y-73381300D02*
X122064700Y-73660000D01*
X125730000Y-73660000D02*
X124604700Y-73660000D01*
X116586000Y-66040000D02*
X117698700Y-66040000D01*
X117698700Y-66040000D02*
X117698700Y-66596400D01*
X117698700Y-66596400D02*
X123637000Y-72534700D01*
X123637000Y-72534700D02*
X123758100Y-72534700D01*
X123758100Y-72534700D02*
X124604700Y-73381300D01*
X124604700Y-73381300D02*
X124604700Y-73660000D01*
X128270000Y-73660000D02*
X127144700Y-73660000D01*
X119126000Y-66040000D02*
X120238700Y-66040000D01*
X120238700Y-66040000D02*
X120238700Y-66596300D01*
X120238700Y-66596300D02*
X126177100Y-72534700D01*
X126177100Y-72534700D02*
X126298200Y-72534700D01*
X126298200Y-72534700D02*
X127144700Y-73381200D01*
X127144700Y-73381200D02*
X127144700Y-73660000D01*
X121666000Y-66040000D02*
X122778700Y-66040000D01*
X130810000Y-73660000D02*
X129684700Y-73660000D01*
X122778700Y-66040000D02*
X129684700Y-72946000D01*
X129684700Y-72946000D02*
X129684700Y-73660000D01*
X167640000Y-106680000D02*
X167640000Y-107805300D01*
X171450000Y-114300000D02*
X171450000Y-111615300D01*
X171450000Y-111615300D02*
X167640000Y-107805300D01*
X165100000Y-106680000D02*
X165100000Y-107805300D01*
X168910000Y-114300000D02*
X168910000Y-111615300D01*
X168910000Y-111615300D02*
X165100000Y-107805300D01*
X160020000Y-106680000D02*
X160020000Y-107805300D01*
X166370000Y-114300000D02*
X165257300Y-114300000D01*
X165257300Y-114300000D02*
X165257300Y-113042600D01*
X165257300Y-113042600D02*
X160020000Y-107805300D01*
X157480000Y-106680000D02*
X157480000Y-107805300D01*
X163830000Y-114300000D02*
X162717300Y-114300000D01*
X162717300Y-114300000D02*
X162717300Y-113042600D01*
X162717300Y-113042600D02*
X157480000Y-107805300D01*
X154940000Y-106680000D02*
X154940000Y-107805300D01*
X161290000Y-114300000D02*
X160177300Y-114300000D01*
X160177300Y-114300000D02*
X160177300Y-113042600D01*
X160177300Y-113042600D02*
X154940000Y-107805300D01*
X152400000Y-106680000D02*
X152400000Y-107805300D01*
X158750000Y-114300000D02*
X157637300Y-114300000D01*
X157637300Y-114300000D02*
X157637300Y-113042600D01*
X157637300Y-113042600D02*
X152400000Y-107805300D01*
X149860000Y-106680000D02*
X149860000Y-107805300D01*
X156210000Y-114300000D02*
X155097300Y-114300000D01*
X155097300Y-114300000D02*
X155097300Y-113042600D01*
X155097300Y-113042600D02*
X149860000Y-107805300D01*
D19*
X162560000Y-93980000D02*
X162560000Y-86480000D01*
X162560000Y-86480000D02*
X158630000Y-82550000D01*
X160020000Y-93980000D02*
X160020000Y-86440000D01*
X160020000Y-86440000D02*
X156130000Y-82550000D01*
X157480000Y-93980000D02*
X157480000Y-86400000D01*
X157480000Y-86400000D02*
X153630000Y-82550000D01*
X151130000Y-82550000D02*
X151130000Y-83750300D01*
X154940000Y-93980000D02*
X154940000Y-87560300D01*
X154940000Y-87560300D02*
X151130000Y-83750300D01*
X125730000Y-86360000D02*
X125730000Y-92670000D01*
X125730000Y-92670000D02*
X129580000Y-96520000D01*
X132080000Y-96520000D02*
X132080000Y-95319700D01*
X128270000Y-86360000D02*
X128270000Y-91509700D01*
X128270000Y-91509700D02*
X132080000Y-95319700D01*
D18*
X108565000Y-104795000D02*
X106680000Y-102910000D01*
X116997300Y-114312700D02*
X116997300Y-113227300D01*
X116997300Y-113227300D02*
X108565000Y-104795000D01*
X118110000Y-95250000D02*
X108565000Y-104795000D01*
X118110000Y-114312700D02*
X116997300Y-114312700D01*
D20*
X149860000Y-93980000D02*
X148734700Y-93980000D01*
X148027400Y-94687300D02*
X148734700Y-93980000D01*
X125730000Y-114312700D02*
X126842700Y-114312700D01*
X126842700Y-114312700D02*
X126842700Y-111772600D01*
X133350000Y-86360000D02*
X134475300Y-86360000D01*
X139700000Y-81280000D02*
X138574700Y-81280000D01*
X134475300Y-86360000D02*
X134475300Y-85379400D01*
X134475300Y-85379400D02*
X138574700Y-81280000D01*
X143430000Y-94200000D02*
X143430000Y-95250000D01*
X135590000Y-86360000D02*
X143430000Y-94200000D01*
X134475300Y-86360000D02*
X135590000Y-86360000D01*
X147464700Y-95250000D02*
X148027400Y-94687300D01*
X143430000Y-95250000D02*
X147464700Y-95250000D01*
X143430000Y-96300000D02*
X143430000Y-95250000D01*
X127957400Y-111772600D02*
X143430000Y-96300000D01*
X126842700Y-111772600D02*
X127957400Y-111772600D01*
D18*
X138430000Y-66040000D02*
X137317300Y-66040000D01*
X137317300Y-66040000D02*
X137317300Y-67152700D01*
X137317300Y-67152700D02*
X132080000Y-72390000D01*
X132080000Y-72390000D02*
X132080000Y-74061900D01*
X132080000Y-74061900D02*
X122152800Y-83989100D01*
X122152800Y-83989100D02*
X121368400Y-83989100D01*
X121368400Y-83989100D02*
X119380000Y-85977500D01*
X119380000Y-85977500D02*
X119380000Y-86731400D01*
X119380000Y-86731400D02*
X110701400Y-95410000D01*
X110701400Y-95410000D02*
X106680000Y-95410000D01*
D21*
G36*
X179680001Y-74897581D02*
G01*
X179676808Y-74930000D01*
X179680001Y-74962419D01*
X179687628Y-75039853D01*
X179689551Y-75059382D01*
X179727290Y-75183792D01*
X179788575Y-75298450D01*
X179850386Y-75373766D01*
X179850389Y-75373769D01*
X179871053Y-75398948D01*
X179896232Y-75419612D01*
X182220000Y-77743381D01*
X182220001Y-81247581D01*
X182220000Y-114026619D01*
X179896232Y-116350388D01*
X179871053Y-116371052D01*
X179850389Y-116396231D01*
X179850386Y-116396234D01*
X179788575Y-116471550D01*
X179727290Y-116586208D01*
X179689551Y-116710618D01*
X179676808Y-116840000D01*
X179680001Y-116872419D01*
X179680001Y-117450000D01*
X92100000Y-117450000D01*
X92100000Y-116429295D01*
X92172793Y-116502088D01*
X92637124Y-116812344D01*
X93153061Y-117026052D01*
X93700777Y-117135000D01*
X94259223Y-117135000D01*
X94806939Y-117026052D01*
X95322876Y-116812344D01*
X95787207Y-116502088D01*
X96182088Y-116107207D01*
X96492344Y-115642876D01*
X96706052Y-115126939D01*
X96815000Y-114579223D01*
X96815000Y-114020777D01*
X96706052Y-113473061D01*
X96492344Y-112957124D01*
X96182088Y-112492793D01*
X95787207Y-112097912D01*
X95322876Y-111787656D01*
X94806939Y-111573948D01*
X94259223Y-111465000D01*
X93700777Y-111465000D01*
X93153061Y-111573948D01*
X92637124Y-111787656D01*
X92172793Y-112097912D01*
X92100000Y-112170705D01*
X92100000Y-106285000D01*
X105166928Y-106285000D01*
X105179188Y-106409482D01*
X105215498Y-106529180D01*
X105274463Y-106639494D01*
X105353815Y-106736185D01*
X105450506Y-106815537D01*
X105560820Y-106874502D01*
X105680518Y-106910812D01*
X105805000Y-106923072D01*
X106394250Y-106920000D01*
X106553000Y-106761250D01*
X106553000Y-105537000D01*
X105328750Y-105537000D01*
X105170000Y-105695750D01*
X105166928Y-106285000D01*
X92100000Y-106285000D01*
X92100000Y-104535000D01*
X105166928Y-104535000D01*
X105170000Y-105124250D01*
X105328750Y-105283000D01*
X106553000Y-105283000D01*
X106553000Y-105263000D01*
X106807000Y-105263000D01*
X106807000Y-105283000D01*
X106827000Y-105283000D01*
X106827000Y-105537000D01*
X106807000Y-105537000D01*
X106807000Y-106761250D01*
X106965750Y-106920000D01*
X107555000Y-106923072D01*
X107679482Y-106910812D01*
X107799180Y-106874502D01*
X107909494Y-106815537D01*
X108006185Y-106736185D01*
X108085537Y-106639494D01*
X108144502Y-106529180D01*
X108180812Y-106409482D01*
X108193072Y-106285000D01*
X108190000Y-105695750D01*
X108031252Y-105537002D01*
X108190000Y-105537002D01*
X108190000Y-105494801D01*
X115259948Y-112564750D01*
X115023037Y-112636616D01*
X114775933Y-112768695D01*
X114559345Y-112946446D01*
X114381595Y-113163034D01*
X114300000Y-113315688D01*
X114218405Y-113163033D01*
X114040654Y-112946445D01*
X113824066Y-112768695D01*
X113576962Y-112636616D01*
X113308838Y-112555281D01*
X113030000Y-112527818D01*
X112751161Y-112555281D01*
X112483037Y-112636616D01*
X112235933Y-112768695D01*
X112019345Y-112946446D01*
X111841595Y-113163034D01*
X111760000Y-113315688D01*
X111678405Y-113163033D01*
X111500654Y-112946445D01*
X111284066Y-112768695D01*
X111036962Y-112636616D01*
X110768838Y-112555281D01*
X110490000Y-112527818D01*
X110211161Y-112555281D01*
X109943037Y-112636616D01*
X109695933Y-112768695D01*
X109479345Y-112946446D01*
X109301595Y-113163034D01*
X109220000Y-113315688D01*
X109138405Y-113163033D01*
X108960654Y-112946445D01*
X108744066Y-112768695D01*
X108496962Y-112636616D01*
X108228838Y-112555281D01*
X107950000Y-112527818D01*
X107671161Y-112555281D01*
X107403037Y-112636616D01*
X107155933Y-112768695D01*
X106939345Y-112946446D01*
X106761595Y-113163034D01*
X106629516Y-113410138D01*
X106548181Y-113678262D01*
X106527600Y-113887226D01*
X106527600Y-114738175D01*
X106548181Y-114947139D01*
X106629516Y-115215263D01*
X106761595Y-115462367D01*
X106939346Y-115678955D01*
X107155934Y-115856705D01*
X107403038Y-115988784D01*
X107671162Y-116070119D01*
X107950000Y-116097582D01*
X108228839Y-116070119D01*
X108496963Y-115988784D01*
X108744067Y-115856705D01*
X108960655Y-115678955D01*
X109138405Y-115462367D01*
X109220000Y-115309713D01*
X109301595Y-115462367D01*
X109479346Y-115678955D01*
X109695934Y-115856705D01*
X109943038Y-115988784D01*
X110211162Y-116070119D01*
X110490000Y-116097582D01*
X110768839Y-116070119D01*
X111036963Y-115988784D01*
X111284067Y-115856705D01*
X111500655Y-115678955D01*
X111678405Y-115462367D01*
X111760000Y-115309713D01*
X111841595Y-115462367D01*
X112019346Y-115678955D01*
X112235934Y-115856705D01*
X112483038Y-115988784D01*
X112751162Y-116070119D01*
X113030000Y-116097582D01*
X113308839Y-116070119D01*
X113576963Y-115988784D01*
X113824067Y-115856705D01*
X114040655Y-115678955D01*
X114218405Y-115462367D01*
X114300000Y-115309713D01*
X114381595Y-115462367D01*
X114559346Y-115678955D01*
X114775934Y-115856705D01*
X115023038Y-115988784D01*
X115291162Y-116070119D01*
X115570000Y-116097582D01*
X115848839Y-116070119D01*
X116116963Y-115988784D01*
X116364067Y-115856705D01*
X116580655Y-115678955D01*
X116758405Y-115462367D01*
X116840000Y-115309713D01*
X116921595Y-115462367D01*
X117099346Y-115678955D01*
X117315934Y-115856705D01*
X117563038Y-115988784D01*
X117831162Y-116070119D01*
X118110000Y-116097582D01*
X118388839Y-116070119D01*
X118656963Y-115988784D01*
X118904067Y-115856705D01*
X119120655Y-115678955D01*
X119298405Y-115462367D01*
X119377893Y-115313655D01*
X119384474Y-115329962D01*
X119537875Y-115564140D01*
X119734014Y-115763892D01*
X119965354Y-115921541D01*
X120223004Y-116031028D01*
X120302940Y-116047710D01*
X120523000Y-115925552D01*
X120523000Y-114439700D01*
X120777000Y-114439700D01*
X120777000Y-115925552D01*
X120997060Y-116047710D01*
X121076996Y-116031028D01*
X121334646Y-115921541D01*
X121565986Y-115763892D01*
X121762125Y-115564140D01*
X121915526Y-115329962D01*
X121920000Y-115318876D01*
X121924474Y-115329962D01*
X122077875Y-115564140D01*
X122274014Y-115763892D01*
X122505354Y-115921541D01*
X122763004Y-116031028D01*
X122842940Y-116047710D01*
X123063000Y-115925552D01*
X123063000Y-114439700D01*
X120777000Y-114439700D01*
X120523000Y-114439700D01*
X120503000Y-114439700D01*
X120503000Y-114185700D01*
X120523000Y-114185700D01*
X120523000Y-112699848D01*
X120777000Y-112699848D01*
X120777000Y-114185700D01*
X123063000Y-114185700D01*
X123063000Y-112699848D01*
X123317000Y-112699848D01*
X123317000Y-114185700D01*
X123337000Y-114185700D01*
X123337000Y-114439700D01*
X123317000Y-114439700D01*
X123317000Y-115925552D01*
X123537060Y-116047710D01*
X123616996Y-116031028D01*
X123874646Y-115921541D01*
X124105986Y-115763892D01*
X124302125Y-115564140D01*
X124455526Y-115329962D01*
X124462107Y-115313655D01*
X124541595Y-115462367D01*
X124719346Y-115678955D01*
X124935934Y-115856705D01*
X125183038Y-115988784D01*
X125451162Y-116070119D01*
X125730000Y-116097582D01*
X126008839Y-116070119D01*
X126276963Y-115988784D01*
X126524067Y-115856705D01*
X126740655Y-115678955D01*
X126918405Y-115462367D01*
X126995255Y-115318589D01*
X127041871Y-115313998D01*
X127233387Y-115255902D01*
X127409890Y-115161560D01*
X127564596Y-115034596D01*
X127691560Y-114879890D01*
X127785902Y-114703387D01*
X127843998Y-114511871D01*
X127863615Y-114312700D01*
X127858700Y-114262798D01*
X127858700Y-113887226D01*
X129387600Y-113887226D01*
X129387600Y-114738175D01*
X129408181Y-114947139D01*
X129489516Y-115215263D01*
X129621595Y-115462367D01*
X129799346Y-115678955D01*
X130015934Y-115856705D01*
X130263038Y-115988784D01*
X130531162Y-116070119D01*
X130810000Y-116097582D01*
X131088839Y-116070119D01*
X131356963Y-115988784D01*
X131604067Y-115856705D01*
X131820655Y-115678955D01*
X131998405Y-115462367D01*
X132083394Y-115303363D01*
X132161595Y-115449667D01*
X132339346Y-115666255D01*
X132555934Y-115844005D01*
X132803038Y-115976084D01*
X133071162Y-116057419D01*
X133350000Y-116084882D01*
X133628839Y-116057419D01*
X133896963Y-115976084D01*
X134144067Y-115844005D01*
X134360655Y-115666255D01*
X134538405Y-115449667D01*
X134620000Y-115297013D01*
X134701595Y-115449667D01*
X134879346Y-115666255D01*
X135095934Y-115844005D01*
X135343038Y-115976084D01*
X135611162Y-116057419D01*
X135890000Y-116084882D01*
X136168839Y-116057419D01*
X136436963Y-115976084D01*
X136684067Y-115844005D01*
X136900655Y-115666255D01*
X137078405Y-115449667D01*
X137160000Y-115297013D01*
X137241595Y-115449667D01*
X137419346Y-115666255D01*
X137635934Y-115844005D01*
X137883038Y-115976084D01*
X138151162Y-116057419D01*
X138430000Y-116084882D01*
X138708839Y-116057419D01*
X138976963Y-115976084D01*
X139224067Y-115844005D01*
X139440655Y-115666255D01*
X139618405Y-115449667D01*
X139700000Y-115297013D01*
X139781595Y-115449667D01*
X139959346Y-115666255D01*
X140175934Y-115844005D01*
X140423038Y-115976084D01*
X140691162Y-116057419D01*
X140970000Y-116084882D01*
X141248839Y-116057419D01*
X141516963Y-115976084D01*
X141764067Y-115844005D01*
X141980655Y-115666255D01*
X142158405Y-115449667D01*
X142240000Y-115297013D01*
X142321595Y-115449667D01*
X142499346Y-115666255D01*
X142715934Y-115844005D01*
X142963038Y-115976084D01*
X143231162Y-116057419D01*
X143510000Y-116084882D01*
X143788839Y-116057419D01*
X144056963Y-115976084D01*
X144304067Y-115844005D01*
X144520655Y-115666255D01*
X144698405Y-115449667D01*
X144780000Y-115297013D01*
X144861595Y-115449667D01*
X145039346Y-115666255D01*
X145255934Y-115844005D01*
X145503038Y-115976084D01*
X145771162Y-116057419D01*
X146050000Y-116084882D01*
X146328839Y-116057419D01*
X146596963Y-115976084D01*
X146844067Y-115844005D01*
X147060655Y-115666255D01*
X147238405Y-115449667D01*
X147320000Y-115297013D01*
X147401595Y-115449667D01*
X147579346Y-115666255D01*
X147795934Y-115844005D01*
X148043038Y-115976084D01*
X148311162Y-116057419D01*
X148590000Y-116084882D01*
X148868839Y-116057419D01*
X149136963Y-115976084D01*
X149384067Y-115844005D01*
X149600655Y-115666255D01*
X149778405Y-115449667D01*
X149910484Y-115202563D01*
X149991819Y-114934438D01*
X150012400Y-114725474D01*
X150012400Y-113874525D01*
X149991819Y-113665561D01*
X149910484Y-113397437D01*
X149778405Y-113150333D01*
X149600654Y-112933745D01*
X149384066Y-112755995D01*
X149136962Y-112623916D01*
X148868838Y-112542581D01*
X148590000Y-112515118D01*
X148311161Y-112542581D01*
X148043037Y-112623916D01*
X147795933Y-112755995D01*
X147579345Y-112933746D01*
X147401595Y-113150334D01*
X147320000Y-113302988D01*
X147238405Y-113150333D01*
X147060654Y-112933745D01*
X146844066Y-112755995D01*
X146596962Y-112623916D01*
X146328838Y-112542581D01*
X146050000Y-112515118D01*
X145771161Y-112542581D01*
X145503037Y-112623916D01*
X145255933Y-112755995D01*
X145039345Y-112933746D01*
X144861595Y-113150334D01*
X144780000Y-113302988D01*
X144698405Y-113150333D01*
X144520654Y-112933745D01*
X144304066Y-112755995D01*
X144056962Y-112623916D01*
X143788838Y-112542581D01*
X143510000Y-112515118D01*
X143231161Y-112542581D01*
X142963037Y-112623916D01*
X142715933Y-112755995D01*
X142499345Y-112933746D01*
X142321595Y-113150334D01*
X142240000Y-113302988D01*
X142158405Y-113150333D01*
X141980654Y-112933745D01*
X141764066Y-112755995D01*
X141516962Y-112623916D01*
X141248838Y-112542581D01*
X140970000Y-112515118D01*
X140691161Y-112542581D01*
X140423037Y-112623916D01*
X140175933Y-112755995D01*
X139959345Y-112933746D01*
X139781595Y-113150334D01*
X139700000Y-113302988D01*
X139618405Y-113150333D01*
X139440654Y-112933745D01*
X139224066Y-112755995D01*
X138976962Y-112623916D01*
X138708838Y-112542581D01*
X138430000Y-112515118D01*
X138151161Y-112542581D01*
X137883037Y-112623916D01*
X137635933Y-112755995D01*
X137419345Y-112933746D01*
X137241595Y-113150334D01*
X137160000Y-113302988D01*
X137078405Y-113150333D01*
X136900654Y-112933745D01*
X136684066Y-112755995D01*
X136436962Y-112623916D01*
X136168838Y-112542581D01*
X135890000Y-112515118D01*
X135611161Y-112542581D01*
X135343037Y-112623916D01*
X135095933Y-112755995D01*
X134879345Y-112933746D01*
X134701595Y-113150334D01*
X134620000Y-113302988D01*
X134538405Y-113150333D01*
X134360654Y-112933745D01*
X134144066Y-112755995D01*
X133896962Y-112623916D01*
X133628838Y-112542581D01*
X133350000Y-112515118D01*
X133071161Y-112542581D01*
X132803037Y-112623916D01*
X132555933Y-112755995D01*
X132339345Y-112933746D01*
X132161595Y-113150334D01*
X132076606Y-113309338D01*
X131998405Y-113163033D01*
X131820654Y-112946445D01*
X131604066Y-112768695D01*
X131356962Y-112636616D01*
X131088838Y-112555281D01*
X130810000Y-112527818D01*
X130531161Y-112555281D01*
X130263037Y-112636616D01*
X130015933Y-112768695D01*
X129799345Y-112946446D01*
X129621595Y-113163034D01*
X129489516Y-113410138D01*
X129408181Y-113678262D01*
X129387600Y-113887226D01*
X127858700Y-113887226D01*
X127858700Y-112788600D01*
X127907498Y-112788600D01*
X127957400Y-112793515D01*
X128007302Y-112788600D01*
X128156571Y-112773898D01*
X128348087Y-112715802D01*
X128524590Y-112621460D01*
X128679296Y-112494496D01*
X128711112Y-112455728D01*
X134628175Y-106538665D01*
X148425000Y-106538665D01*
X148425000Y-106821335D01*
X148480147Y-107098574D01*
X148588320Y-107359727D01*
X148745363Y-107594759D01*
X148945241Y-107794637D01*
X149105843Y-107901948D01*
X149108676Y-107930705D01*
X149110998Y-107954285D01*
X149154454Y-108097546D01*
X149225026Y-108229576D01*
X149296201Y-108316302D01*
X149320000Y-108345301D01*
X149348998Y-108369099D01*
X153510705Y-112530807D01*
X153391161Y-112542581D01*
X153123037Y-112623916D01*
X152875933Y-112755995D01*
X152659345Y-112933746D01*
X152481595Y-113150334D01*
X152349516Y-113397438D01*
X152268181Y-113665562D01*
X152247600Y-113874526D01*
X152247600Y-114725475D01*
X152268181Y-114934439D01*
X152349516Y-115202563D01*
X152481595Y-115449667D01*
X152659346Y-115666255D01*
X152875934Y-115844005D01*
X153123038Y-115976084D01*
X153391162Y-116057419D01*
X153670000Y-116084882D01*
X153948839Y-116057419D01*
X154216963Y-115976084D01*
X154464067Y-115844005D01*
X154680655Y-115666255D01*
X154858405Y-115449667D01*
X154940000Y-115297013D01*
X155021595Y-115449667D01*
X155199346Y-115666255D01*
X155415934Y-115844005D01*
X155663038Y-115976084D01*
X155931162Y-116057419D01*
X156210000Y-116084882D01*
X156488839Y-116057419D01*
X156756963Y-115976084D01*
X157004067Y-115844005D01*
X157220655Y-115666255D01*
X157398405Y-115449667D01*
X157480000Y-115297013D01*
X157561595Y-115449667D01*
X157739346Y-115666255D01*
X157955934Y-115844005D01*
X158203038Y-115976084D01*
X158471162Y-116057419D01*
X158750000Y-116084882D01*
X159028839Y-116057419D01*
X159296963Y-115976084D01*
X159544067Y-115844005D01*
X159760655Y-115666255D01*
X159938405Y-115449667D01*
X160020000Y-115297013D01*
X160101595Y-115449667D01*
X160279346Y-115666255D01*
X160495934Y-115844005D01*
X160743038Y-115976084D01*
X161011162Y-116057419D01*
X161290000Y-116084882D01*
X161568839Y-116057419D01*
X161836963Y-115976084D01*
X162084067Y-115844005D01*
X162300655Y-115666255D01*
X162478405Y-115449667D01*
X162560000Y-115297013D01*
X162641595Y-115449667D01*
X162819346Y-115666255D01*
X163035934Y-115844005D01*
X163283038Y-115976084D01*
X163551162Y-116057419D01*
X163830000Y-116084882D01*
X164108839Y-116057419D01*
X164376963Y-115976084D01*
X164624067Y-115844005D01*
X164840655Y-115666255D01*
X165018405Y-115449667D01*
X165100000Y-115297013D01*
X165181595Y-115449667D01*
X165359346Y-115666255D01*
X165575934Y-115844005D01*
X165823038Y-115976084D01*
X166091162Y-116057419D01*
X166370000Y-116084882D01*
X166648839Y-116057419D01*
X166916963Y-115976084D01*
X167164067Y-115844005D01*
X167380655Y-115666255D01*
X167558405Y-115449667D01*
X167640000Y-115297013D01*
X167721595Y-115449667D01*
X167899346Y-115666255D01*
X168115934Y-115844005D01*
X168363038Y-115976084D01*
X168631162Y-116057419D01*
X168910000Y-116084882D01*
X169188839Y-116057419D01*
X169456963Y-115976084D01*
X169704067Y-115844005D01*
X169920655Y-115666255D01*
X170098405Y-115449667D01*
X170180000Y-115297013D01*
X170261595Y-115449667D01*
X170439346Y-115666255D01*
X170655934Y-115844005D01*
X170903038Y-115976084D01*
X171171162Y-116057419D01*
X171450000Y-116084882D01*
X171728839Y-116057419D01*
X171996963Y-115976084D01*
X172244067Y-115844005D01*
X172460655Y-115666255D01*
X172638405Y-115449667D01*
X172770484Y-115202563D01*
X172851819Y-114934438D01*
X172872400Y-114725474D01*
X172872400Y-114020777D01*
X173695000Y-114020777D01*
X173695000Y-114579223D01*
X173803948Y-115126939D01*
X174017656Y-115642876D01*
X174327912Y-116107207D01*
X174722793Y-116502088D01*
X175187124Y-116812344D01*
X175703061Y-117026052D01*
X176250777Y-117135000D01*
X176809223Y-117135000D01*
X177356939Y-117026052D01*
X177872876Y-116812344D01*
X178337207Y-116502088D01*
X178732088Y-116107207D01*
X179042344Y-115642876D01*
X179256052Y-115126939D01*
X179365000Y-114579223D01*
X179365000Y-114020777D01*
X179256052Y-113473061D01*
X179042344Y-112957124D01*
X178732088Y-112492793D01*
X178337207Y-112097912D01*
X177872876Y-111787656D01*
X177356939Y-111573948D01*
X176809223Y-111465000D01*
X176250777Y-111465000D01*
X175703061Y-111573948D01*
X175187124Y-111787656D01*
X174722793Y-112097912D01*
X174327912Y-112492793D01*
X174017656Y-112957124D01*
X173803948Y-113473061D01*
X173695000Y-114020777D01*
X172872400Y-114020777D01*
X172872400Y-113874525D01*
X172851819Y-113665561D01*
X172770484Y-113397437D01*
X172638405Y-113150333D01*
X172460654Y-112933745D01*
X172244066Y-112755995D01*
X172210000Y-112737786D01*
X172210000Y-111652625D01*
X172213676Y-111615300D01*
X172210000Y-111577975D01*
X172210000Y-111577967D01*
X172199003Y-111466314D01*
X172155546Y-111323053D01*
X172084974Y-111191024D01*
X171990001Y-111075299D01*
X171961003Y-111051501D01*
X168629449Y-107719947D01*
X168754637Y-107594759D01*
X168911680Y-107359727D01*
X169019853Y-107098574D01*
X169075000Y-106821335D01*
X169075000Y-106538665D01*
X169019853Y-106261426D01*
X168911680Y-106000273D01*
X168754637Y-105765241D01*
X168554759Y-105565363D01*
X168319727Y-105408320D01*
X168058574Y-105300147D01*
X167781335Y-105245000D01*
X167498665Y-105245000D01*
X167221426Y-105300147D01*
X166960273Y-105408320D01*
X166725241Y-105565363D01*
X166525363Y-105765241D01*
X166370000Y-105997759D01*
X166214637Y-105765241D01*
X166014759Y-105565363D01*
X165779727Y-105408320D01*
X165518574Y-105300147D01*
X165241335Y-105245000D01*
X164958665Y-105245000D01*
X164681426Y-105300147D01*
X164420273Y-105408320D01*
X164185241Y-105565363D01*
X163985363Y-105765241D01*
X163830000Y-105997759D01*
X163674637Y-105765241D01*
X163474759Y-105565363D01*
X163239727Y-105408320D01*
X162978574Y-105300147D01*
X162701335Y-105245000D01*
X162418665Y-105245000D01*
X162141426Y-105300147D01*
X161880273Y-105408320D01*
X161645241Y-105565363D01*
X161445363Y-105765241D01*
X161290000Y-105997759D01*
X161134637Y-105765241D01*
X160934759Y-105565363D01*
X160699727Y-105408320D01*
X160438574Y-105300147D01*
X160161335Y-105245000D01*
X159878665Y-105245000D01*
X159601426Y-105300147D01*
X159340273Y-105408320D01*
X159105241Y-105565363D01*
X158905363Y-105765241D01*
X158750000Y-105997759D01*
X158594637Y-105765241D01*
X158394759Y-105565363D01*
X158159727Y-105408320D01*
X157898574Y-105300147D01*
X157621335Y-105245000D01*
X157338665Y-105245000D01*
X157061426Y-105300147D01*
X156800273Y-105408320D01*
X156565241Y-105565363D01*
X156365363Y-105765241D01*
X156210000Y-105997759D01*
X156054637Y-105765241D01*
X155854759Y-105565363D01*
X155619727Y-105408320D01*
X155358574Y-105300147D01*
X155081335Y-105245000D01*
X154798665Y-105245000D01*
X154521426Y-105300147D01*
X154260273Y-105408320D01*
X154025241Y-105565363D01*
X153825363Y-105765241D01*
X153670000Y-105997759D01*
X153514637Y-105765241D01*
X153314759Y-105565363D01*
X153079727Y-105408320D01*
X152818574Y-105300147D01*
X152541335Y-105245000D01*
X152258665Y-105245000D01*
X151981426Y-105300147D01*
X151720273Y-105408320D01*
X151485241Y-105565363D01*
X151285363Y-105765241D01*
X151130000Y-105997759D01*
X150974637Y-105765241D01*
X150774759Y-105565363D01*
X150539727Y-105408320D01*
X150278574Y-105300147D01*
X150001335Y-105245000D01*
X149718665Y-105245000D01*
X149441426Y-105300147D01*
X149180273Y-105408320D01*
X148945241Y-105565363D01*
X148745363Y-105765241D01*
X148588320Y-106000273D01*
X148480147Y-106261426D01*
X148425000Y-106538665D01*
X134628175Y-106538665D01*
X144113133Y-97053708D01*
X144151896Y-97021896D01*
X144278860Y-96867190D01*
X144373202Y-96690687D01*
X144380069Y-96668050D01*
X144474180Y-96639502D01*
X144584494Y-96580537D01*
X144681185Y-96501185D01*
X144760537Y-96404494D01*
X144819502Y-96294180D01*
X144828050Y-96266000D01*
X147414798Y-96266000D01*
X147464700Y-96270915D01*
X147514602Y-96266000D01*
X147663871Y-96251298D01*
X147855387Y-96193202D01*
X148031890Y-96098860D01*
X148186596Y-95971896D01*
X148218413Y-95933127D01*
X148781106Y-95370434D01*
X149012178Y-95139363D01*
X149180273Y-95251680D01*
X149441426Y-95359853D01*
X149718665Y-95415000D01*
X150001335Y-95415000D01*
X150278574Y-95359853D01*
X150539727Y-95251680D01*
X150774759Y-95094637D01*
X150974637Y-94894759D01*
X151131680Y-94659727D01*
X151136067Y-94649135D01*
X151247615Y-94835131D01*
X151436586Y-95043519D01*
X151662580Y-95211037D01*
X151916913Y-95331246D01*
X152050961Y-95371904D01*
X152273000Y-95249915D01*
X152273000Y-94107000D01*
X152253000Y-94107000D01*
X152253000Y-93853000D01*
X152273000Y-93853000D01*
X152273000Y-92710085D01*
X152050961Y-92588096D01*
X151916913Y-92628754D01*
X151662580Y-92748963D01*
X151436586Y-92916481D01*
X151247615Y-93124869D01*
X151136067Y-93310865D01*
X151131680Y-93300273D01*
X150974637Y-93065241D01*
X150774759Y-92865363D01*
X150539727Y-92708320D01*
X150278574Y-92600147D01*
X150001335Y-92545000D01*
X149718665Y-92545000D01*
X149441426Y-92600147D01*
X149180273Y-92708320D01*
X148945241Y-92865363D01*
X148846604Y-92964000D01*
X148784593Y-92964000D01*
X148734699Y-92959086D01*
X148684805Y-92964000D01*
X148684798Y-92964000D01*
X148535529Y-92978702D01*
X148344013Y-93036798D01*
X148167510Y-93131140D01*
X148012804Y-93258104D01*
X147980992Y-93296867D01*
X147344265Y-93933594D01*
X147344266Y-93933594D01*
X147043860Y-94234000D01*
X144828050Y-94234000D01*
X144819502Y-94205820D01*
X144760537Y-94095506D01*
X144681185Y-93998815D01*
X144584494Y-93919463D01*
X144474180Y-93860498D01*
X144380069Y-93831950D01*
X144373202Y-93809313D01*
X144278860Y-93632810D01*
X144151896Y-93478104D01*
X144113133Y-93446292D01*
X136343712Y-85676872D01*
X136311896Y-85638104D01*
X136157190Y-85511140D01*
X135980687Y-85416798D01*
X135899400Y-85392140D01*
X138633806Y-82657735D01*
X138655820Y-82669502D01*
X138775518Y-82705812D01*
X138900000Y-82718072D01*
X140500000Y-82718072D01*
X140624482Y-82705812D01*
X140744180Y-82669502D01*
X140854494Y-82610537D01*
X140951185Y-82531185D01*
X141030537Y-82434494D01*
X141089502Y-82324180D01*
X141105117Y-82272702D01*
X143886903Y-82272702D01*
X143958486Y-82516671D01*
X144213996Y-82637571D01*
X144488184Y-82706300D01*
X144770512Y-82720217D01*
X145050130Y-82678787D01*
X145316292Y-82583603D01*
X145441514Y-82516671D01*
X145513097Y-82272702D01*
X144700000Y-81459605D01*
X143886903Y-82272702D01*
X141105117Y-82272702D01*
X141125812Y-82204482D01*
X141138072Y-82080000D01*
X141138072Y-81350512D01*
X143259783Y-81350512D01*
X143301213Y-81630130D01*
X143396397Y-81896292D01*
X143463329Y-82021514D01*
X143707298Y-82093097D01*
X144520395Y-81280000D01*
X144879605Y-81280000D01*
X145692702Y-82093097D01*
X145936671Y-82021514D01*
X146057571Y-81766004D01*
X146080382Y-81675000D01*
X149616928Y-81675000D01*
X149616928Y-83425000D01*
X149629188Y-83549482D01*
X149665498Y-83669180D01*
X149724463Y-83779494D01*
X149803815Y-83876185D01*
X149900506Y-83955537D01*
X150010820Y-84014502D01*
X150130518Y-84050812D01*
X150255000Y-84063072D01*
X150295877Y-84063072D01*
X150304698Y-84092152D01*
X150387248Y-84246591D01*
X150415772Y-84281347D01*
X150498342Y-84381959D01*
X150532259Y-84409794D01*
X154051001Y-87928537D01*
X154051000Y-92848151D01*
X154025241Y-92865363D01*
X153825363Y-93065241D01*
X153668320Y-93300273D01*
X153663933Y-93310865D01*
X153552385Y-93124869D01*
X153363414Y-92916481D01*
X153137420Y-92748963D01*
X152883087Y-92628754D01*
X152749039Y-92588096D01*
X152527000Y-92710085D01*
X152527000Y-93853000D01*
X152547000Y-93853000D01*
X152547000Y-94107000D01*
X152527000Y-94107000D01*
X152527000Y-95249915D01*
X152749039Y-95371904D01*
X152883087Y-95331246D01*
X153137420Y-95211037D01*
X153363414Y-95043519D01*
X153552385Y-94835131D01*
X153663933Y-94649135D01*
X153668320Y-94659727D01*
X153825363Y-94894759D01*
X154025241Y-95094637D01*
X154260273Y-95251680D01*
X154521426Y-95359853D01*
X154798665Y-95415000D01*
X155081335Y-95415000D01*
X155358574Y-95359853D01*
X155619727Y-95251680D01*
X155854759Y-95094637D01*
X156054637Y-94894759D01*
X156210000Y-94662241D01*
X156365363Y-94894759D01*
X156565241Y-95094637D01*
X156800273Y-95251680D01*
X157061426Y-95359853D01*
X157338665Y-95415000D01*
X157621335Y-95415000D01*
X157898574Y-95359853D01*
X158159727Y-95251680D01*
X158394759Y-95094637D01*
X158594637Y-94894759D01*
X158750000Y-94662241D01*
X158905363Y-94894759D01*
X159105241Y-95094637D01*
X159340273Y-95251680D01*
X159601426Y-95359853D01*
X159878665Y-95415000D01*
X160161335Y-95415000D01*
X160438574Y-95359853D01*
X160699727Y-95251680D01*
X160934759Y-95094637D01*
X161134637Y-94894759D01*
X161290000Y-94662241D01*
X161445363Y-94894759D01*
X161645241Y-95094637D01*
X161880273Y-95251680D01*
X162141426Y-95359853D01*
X162418665Y-95415000D01*
X162701335Y-95415000D01*
X162978574Y-95359853D01*
X163239727Y-95251680D01*
X163474759Y-95094637D01*
X163674637Y-94894759D01*
X163830000Y-94662241D01*
X163985363Y-94894759D01*
X164185241Y-95094637D01*
X164420273Y-95251680D01*
X164681426Y-95359853D01*
X164958665Y-95415000D01*
X165241335Y-95415000D01*
X165518574Y-95359853D01*
X165779727Y-95251680D01*
X166014759Y-95094637D01*
X166213357Y-94896039D01*
X166214188Y-94904482D01*
X166250498Y-95024180D01*
X166309463Y-95134494D01*
X166388815Y-95231185D01*
X166485506Y-95310537D01*
X166595820Y-95369502D01*
X166715518Y-95405812D01*
X166840000Y-95418072D01*
X167354250Y-95415000D01*
X167513000Y-95256250D01*
X167513000Y-94107000D01*
X167767000Y-94107000D01*
X167767000Y-95256250D01*
X167925750Y-95415000D01*
X168440000Y-95418072D01*
X168564482Y-95405812D01*
X168684180Y-95369502D01*
X168794494Y-95310537D01*
X168891185Y-95231185D01*
X168970537Y-95134494D01*
X169029502Y-95024180D01*
X169065812Y-94904482D01*
X169078072Y-94780000D01*
X169075000Y-94265750D01*
X168916250Y-94107000D01*
X167767000Y-94107000D01*
X167513000Y-94107000D01*
X167493000Y-94107000D01*
X167493000Y-93853000D01*
X167513000Y-93853000D01*
X167513000Y-92703750D01*
X167767000Y-92703750D01*
X167767000Y-93853000D01*
X168916250Y-93853000D01*
X169075000Y-93694250D01*
X169078072Y-93180000D01*
X169065812Y-93055518D01*
X169029502Y-92935820D01*
X168970537Y-92825506D01*
X168891185Y-92728815D01*
X168794494Y-92649463D01*
X168684180Y-92590498D01*
X168564482Y-92554188D01*
X168440000Y-92541928D01*
X167925750Y-92545000D01*
X167767000Y-92703750D01*
X167513000Y-92703750D01*
X167354250Y-92545000D01*
X166840000Y-92541928D01*
X166715518Y-92554188D01*
X166595820Y-92590498D01*
X166485506Y-92649463D01*
X166388815Y-92728815D01*
X166309463Y-92825506D01*
X166250498Y-92935820D01*
X166214188Y-93055518D01*
X166213357Y-93063961D01*
X166014759Y-92865363D01*
X165779727Y-92708320D01*
X165518574Y-92600147D01*
X165241335Y-92545000D01*
X164958665Y-92545000D01*
X164681426Y-92600147D01*
X164420273Y-92708320D01*
X164185241Y-92865363D01*
X163985363Y-93065241D01*
X163830000Y-93297759D01*
X163674637Y-93065241D01*
X163474759Y-92865363D01*
X163449000Y-92848151D01*
X163449000Y-86523659D01*
X163453300Y-86479999D01*
X163449000Y-86436339D01*
X163449000Y-86436333D01*
X163436136Y-86305726D01*
X163436136Y-86305724D01*
X163385302Y-86138147D01*
X163365604Y-86101295D01*
X163302753Y-85983709D01*
X163191659Y-85848341D01*
X163157736Y-85820501D01*
X161015900Y-83678665D01*
X163665000Y-83678665D01*
X163665000Y-83961335D01*
X163720147Y-84238574D01*
X163828320Y-84499727D01*
X163985363Y-84734759D01*
X164185241Y-84934637D01*
X164420273Y-85091680D01*
X164681426Y-85199853D01*
X164958665Y-85255000D01*
X165241335Y-85255000D01*
X165518574Y-85199853D01*
X165779727Y-85091680D01*
X166014759Y-84934637D01*
X166136694Y-84812702D01*
X169286903Y-84812702D01*
X169358486Y-85056671D01*
X169613996Y-85177571D01*
X169888184Y-85246300D01*
X170170512Y-85260217D01*
X170450130Y-85218787D01*
X170716292Y-85123603D01*
X170841514Y-85056671D01*
X170913097Y-84812702D01*
X170100000Y-83999605D01*
X169286903Y-84812702D01*
X166136694Y-84812702D01*
X166214637Y-84734759D01*
X166371680Y-84499727D01*
X166479853Y-84238574D01*
X166535000Y-83961335D01*
X166535000Y-83890512D01*
X168659783Y-83890512D01*
X168701213Y-84170130D01*
X168796397Y-84436292D01*
X168863329Y-84561514D01*
X169107298Y-84633097D01*
X169920395Y-83820000D01*
X170279605Y-83820000D01*
X171092702Y-84633097D01*
X171336671Y-84561514D01*
X171457571Y-84306004D01*
X171526300Y-84031816D01*
X171540217Y-83749488D01*
X171498787Y-83469870D01*
X171403603Y-83203708D01*
X171336671Y-83078486D01*
X171092702Y-83006903D01*
X170279605Y-83820000D01*
X169920395Y-83820000D01*
X169107298Y-83006903D01*
X168863329Y-83078486D01*
X168742429Y-83333996D01*
X168673700Y-83608184D01*
X168659783Y-83890512D01*
X166535000Y-83890512D01*
X166535000Y-83678665D01*
X166479853Y-83401426D01*
X166371680Y-83140273D01*
X166214637Y-82905241D01*
X166136694Y-82827298D01*
X169286903Y-82827298D01*
X170100000Y-83640395D01*
X170913097Y-82827298D01*
X170841514Y-82583329D01*
X170586004Y-82462429D01*
X170311816Y-82393700D01*
X170029488Y-82379783D01*
X169749870Y-82421213D01*
X169483708Y-82516397D01*
X169358486Y-82583329D01*
X169286903Y-82827298D01*
X166136694Y-82827298D01*
X166014759Y-82705363D01*
X165779727Y-82548320D01*
X165518574Y-82440147D01*
X165241335Y-82385000D01*
X164958665Y-82385000D01*
X164681426Y-82440147D01*
X164420273Y-82548320D01*
X164185241Y-82705363D01*
X163985363Y-82905241D01*
X163828320Y-83140273D01*
X163720147Y-83401426D01*
X163665000Y-83678665D01*
X161015900Y-83678665D01*
X160122738Y-82785503D01*
X160140000Y-82698722D01*
X160140000Y-82401278D01*
X160081971Y-82109549D01*
X159968144Y-81834747D01*
X159802893Y-81587431D01*
X159592569Y-81377107D01*
X159345253Y-81211856D01*
X159070451Y-81098029D01*
X158778722Y-81040000D01*
X158481278Y-81040000D01*
X158189549Y-81098029D01*
X157914747Y-81211856D01*
X157667431Y-81377107D01*
X157457107Y-81587431D01*
X157380000Y-81702830D01*
X157302893Y-81587431D01*
X157092569Y-81377107D01*
X156845253Y-81211856D01*
X156570451Y-81098029D01*
X156278722Y-81040000D01*
X155981278Y-81040000D01*
X155689549Y-81098029D01*
X155414747Y-81211856D01*
X155167431Y-81377107D01*
X154957107Y-81587431D01*
X154880000Y-81702830D01*
X154802893Y-81587431D01*
X154592569Y-81377107D01*
X154345253Y-81211856D01*
X154070451Y-81098029D01*
X153778722Y-81040000D01*
X153481278Y-81040000D01*
X153189549Y-81098029D01*
X152914747Y-81211856D01*
X152667431Y-81377107D01*
X152598974Y-81445564D01*
X152594502Y-81430820D01*
X152535537Y-81320506D01*
X152456185Y-81223815D01*
X152359494Y-81144463D01*
X152249180Y-81085498D01*
X152129482Y-81049188D01*
X152005000Y-81036928D01*
X150255000Y-81036928D01*
X150130518Y-81049188D01*
X150010820Y-81085498D01*
X149900506Y-81144463D01*
X149803815Y-81223815D01*
X149724463Y-81320506D01*
X149665498Y-81430820D01*
X149629188Y-81550518D01*
X149616928Y-81675000D01*
X146080382Y-81675000D01*
X146126300Y-81491816D01*
X146140217Y-81209488D01*
X146098787Y-80929870D01*
X146003603Y-80663708D01*
X145936671Y-80538486D01*
X145692702Y-80466903D01*
X144879605Y-81280000D01*
X144520395Y-81280000D01*
X143707298Y-80466903D01*
X143463329Y-80538486D01*
X143342429Y-80793996D01*
X143273700Y-81068184D01*
X143259783Y-81350512D01*
X141138072Y-81350512D01*
X141138072Y-80480000D01*
X141125812Y-80355518D01*
X141105118Y-80287298D01*
X143886903Y-80287298D01*
X144700000Y-81100395D01*
X145513097Y-80287298D01*
X145441514Y-80043329D01*
X145186004Y-79922429D01*
X144911816Y-79853700D01*
X144629488Y-79839783D01*
X144349870Y-79881213D01*
X144083708Y-79976397D01*
X143958486Y-80043329D01*
X143886903Y-80287298D01*
X141105118Y-80287298D01*
X141089502Y-80235820D01*
X141030537Y-80125506D01*
X140951185Y-80028815D01*
X140854494Y-79949463D01*
X140744180Y-79890498D01*
X140624482Y-79854188D01*
X140500000Y-79841928D01*
X138900000Y-79841928D01*
X138775518Y-79854188D01*
X138655820Y-79890498D01*
X138545506Y-79949463D01*
X138448815Y-80028815D01*
X138369463Y-80125506D01*
X138310498Y-80235820D01*
X138289581Y-80304774D01*
X138184013Y-80336798D01*
X138007510Y-80431140D01*
X137852804Y-80558104D01*
X137820992Y-80596867D01*
X133792168Y-84625692D01*
X133753405Y-84657504D01*
X133626441Y-84812210D01*
X133569992Y-84917820D01*
X133558964Y-84938452D01*
X133491335Y-84925000D01*
X133208665Y-84925000D01*
X132931426Y-84980147D01*
X132670273Y-85088320D01*
X132435241Y-85245363D01*
X132235363Y-85445241D01*
X132078320Y-85680273D01*
X132073933Y-85690865D01*
X131962385Y-85504869D01*
X131773414Y-85296481D01*
X131547420Y-85128963D01*
X131293087Y-85008754D01*
X131159039Y-84968096D01*
X130937000Y-85090085D01*
X130937000Y-86233000D01*
X130957000Y-86233000D01*
X130957000Y-86487000D01*
X130937000Y-86487000D01*
X130937000Y-87629915D01*
X131159039Y-87751904D01*
X131293087Y-87711246D01*
X131547420Y-87591037D01*
X131773414Y-87423519D01*
X131962385Y-87215131D01*
X132073933Y-87029135D01*
X132078320Y-87039727D01*
X132235363Y-87274759D01*
X132435241Y-87474637D01*
X132670273Y-87631680D01*
X132931426Y-87739853D01*
X133208665Y-87795000D01*
X133491335Y-87795000D01*
X133768574Y-87739853D01*
X134029727Y-87631680D01*
X134264759Y-87474637D01*
X134363396Y-87376000D01*
X134425398Y-87376000D01*
X134475300Y-87380915D01*
X134525202Y-87376000D01*
X135169160Y-87376000D01*
X142030835Y-94237676D01*
X142004188Y-94325518D01*
X141991928Y-94450000D01*
X141991928Y-96050000D01*
X142004188Y-96174482D01*
X142030835Y-96262324D01*
X127536560Y-110756600D01*
X126892602Y-110756600D01*
X126842700Y-110751685D01*
X126792798Y-110756600D01*
X126643529Y-110771302D01*
X126452013Y-110829398D01*
X126275510Y-110923740D01*
X126120804Y-111050704D01*
X125993840Y-111205410D01*
X125899498Y-111381913D01*
X125841402Y-111573429D01*
X125821785Y-111772600D01*
X125826701Y-111822512D01*
X125826701Y-112537342D01*
X125730000Y-112527818D01*
X125451161Y-112555281D01*
X125183037Y-112636616D01*
X124935933Y-112768695D01*
X124719345Y-112946446D01*
X124541595Y-113163034D01*
X124462107Y-113311746D01*
X124455526Y-113295438D01*
X124302125Y-113061260D01*
X124105986Y-112861508D01*
X123874646Y-112703859D01*
X123616996Y-112594372D01*
X123537060Y-112577690D01*
X123317000Y-112699848D01*
X123063000Y-112699848D01*
X122842940Y-112577690D01*
X122763004Y-112594372D01*
X122505354Y-112703859D01*
X122274014Y-112861508D01*
X122077875Y-113061260D01*
X121924474Y-113295438D01*
X121920000Y-113306524D01*
X121915526Y-113295438D01*
X121762125Y-113061260D01*
X121565986Y-112861508D01*
X121334646Y-112703859D01*
X121076996Y-112594372D01*
X120997060Y-112577690D01*
X120777000Y-112699848D01*
X120523000Y-112699848D01*
X120302940Y-112577690D01*
X120223004Y-112594372D01*
X119965354Y-112703859D01*
X119734014Y-112861508D01*
X119537875Y-113061260D01*
X119384474Y-113295438D01*
X119377893Y-113311745D01*
X119298405Y-113163033D01*
X119120654Y-112946445D01*
X118904066Y-112768695D01*
X118656962Y-112636616D01*
X118388838Y-112555281D01*
X118110000Y-112527818D01*
X117831161Y-112555281D01*
X117563037Y-112636616D01*
X117510052Y-112664937D01*
X117508303Y-112663501D01*
X109639801Y-104795000D01*
X117786115Y-96648688D01*
X117968665Y-96685000D01*
X118251335Y-96685000D01*
X118528574Y-96629853D01*
X118789727Y-96521680D01*
X119024759Y-96364637D01*
X119224637Y-96164759D01*
X119381680Y-95929727D01*
X119489853Y-95668574D01*
X119545000Y-95391335D01*
X119545000Y-95108665D01*
X119489853Y-94831426D01*
X119381680Y-94570273D01*
X119224637Y-94335241D01*
X119024759Y-94135363D01*
X118789727Y-93978320D01*
X118528574Y-93870147D01*
X118251335Y-93815000D01*
X117968665Y-93815000D01*
X117691426Y-93870147D01*
X117430273Y-93978320D01*
X117195241Y-94135363D01*
X116995363Y-94335241D01*
X116838320Y-94570273D01*
X116730147Y-94831426D01*
X116675000Y-95108665D01*
X116675000Y-95391335D01*
X116711312Y-95573885D01*
X108565000Y-103720199D01*
X108142470Y-103297669D01*
X108190000Y-103058722D01*
X108190000Y-102761278D01*
X108131971Y-102469549D01*
X108018144Y-102194747D01*
X107852893Y-101947431D01*
X107642569Y-101737107D01*
X107527170Y-101660000D01*
X107642569Y-101582893D01*
X107852893Y-101372569D01*
X108018144Y-101125253D01*
X108131971Y-100850451D01*
X108190000Y-100558722D01*
X108190000Y-100261278D01*
X108131971Y-99969549D01*
X108018144Y-99694747D01*
X107852893Y-99447431D01*
X107642569Y-99237107D01*
X107527170Y-99160000D01*
X107642569Y-99082893D01*
X107852893Y-98872569D01*
X108018144Y-98625253D01*
X108131971Y-98350451D01*
X108190000Y-98058722D01*
X108190000Y-97761278D01*
X108131971Y-97469549D01*
X108018144Y-97194747D01*
X107852893Y-96947431D01*
X107642569Y-96737107D01*
X107527170Y-96660000D01*
X107642569Y-96582893D01*
X107852893Y-96372569D01*
X107939667Y-96242702D01*
X112296903Y-96242702D01*
X112368486Y-96486671D01*
X112623996Y-96607571D01*
X112898184Y-96676300D01*
X113180512Y-96690217D01*
X113460130Y-96648787D01*
X113726292Y-96553603D01*
X113851514Y-96486671D01*
X113923097Y-96242702D01*
X113110000Y-95429605D01*
X112296903Y-96242702D01*
X107939667Y-96242702D01*
X107988245Y-96170000D01*
X110664078Y-96170000D01*
X110701400Y-96173676D01*
X110738722Y-96170000D01*
X110738733Y-96170000D01*
X110850386Y-96159003D01*
X110993647Y-96115546D01*
X111125676Y-96044974D01*
X111241401Y-95950001D01*
X111265204Y-95920997D01*
X111695064Y-95491137D01*
X111711213Y-95600130D01*
X111806397Y-95866292D01*
X111873329Y-95991514D01*
X112117298Y-96063097D01*
X112930395Y-95250000D01*
X113289605Y-95250000D01*
X114102702Y-96063097D01*
X114346671Y-95991514D01*
X114467571Y-95736004D01*
X114536300Y-95461816D01*
X114550217Y-95179488D01*
X114508787Y-94899870D01*
X114413603Y-94633708D01*
X114346671Y-94508486D01*
X114102702Y-94436903D01*
X113289605Y-95250000D01*
X112930395Y-95250000D01*
X112916253Y-95235858D01*
X113095858Y-95056253D01*
X113110000Y-95070395D01*
X113923097Y-94257298D01*
X113851514Y-94013329D01*
X113596004Y-93892429D01*
X113354347Y-93831854D01*
X119723403Y-87462799D01*
X119735241Y-87474637D01*
X119970273Y-87631680D01*
X120231426Y-87739853D01*
X120508665Y-87795000D01*
X120791335Y-87795000D01*
X121068574Y-87739853D01*
X121329727Y-87631680D01*
X121564759Y-87474637D01*
X121764637Y-87274759D01*
X121920000Y-87042241D01*
X122075363Y-87274759D01*
X122275241Y-87474637D01*
X122510273Y-87631680D01*
X122771426Y-87739853D01*
X123048665Y-87795000D01*
X123331335Y-87795000D01*
X123608574Y-87739853D01*
X123869727Y-87631680D01*
X124104759Y-87474637D01*
X124304637Y-87274759D01*
X124460000Y-87042241D01*
X124615363Y-87274759D01*
X124815241Y-87474637D01*
X124841000Y-87491849D01*
X124841001Y-92626330D01*
X124836700Y-92670000D01*
X124853864Y-92844274D01*
X124904698Y-93011852D01*
X124952972Y-93102165D01*
X124987248Y-93166291D01*
X125098342Y-93301659D01*
X125132259Y-93329494D01*
X126832427Y-95029663D01*
X126639549Y-95068029D01*
X126364747Y-95181856D01*
X126117431Y-95347107D01*
X125907107Y-95557431D01*
X125830000Y-95672830D01*
X125752893Y-95557431D01*
X125542569Y-95347107D01*
X125295253Y-95181856D01*
X125020451Y-95068029D01*
X124728722Y-95010000D01*
X124431278Y-95010000D01*
X124139549Y-95068029D01*
X123864747Y-95181856D01*
X123617431Y-95347107D01*
X123407107Y-95557431D01*
X123241856Y-95804747D01*
X123128029Y-96079549D01*
X123070000Y-96371278D01*
X123070000Y-96668722D01*
X123128029Y-96960451D01*
X123241856Y-97235253D01*
X123407107Y-97482569D01*
X123617431Y-97692893D01*
X123864747Y-97858144D01*
X124139549Y-97971971D01*
X124431278Y-98030000D01*
X124728722Y-98030000D01*
X125020451Y-97971971D01*
X125295253Y-97858144D01*
X125542569Y-97692893D01*
X125752893Y-97482569D01*
X125830000Y-97367170D01*
X125907107Y-97482569D01*
X126117431Y-97692893D01*
X126364747Y-97858144D01*
X126639549Y-97971971D01*
X126931278Y-98030000D01*
X127228722Y-98030000D01*
X127520451Y-97971971D01*
X127795253Y-97858144D01*
X128042569Y-97692893D01*
X128252893Y-97482569D01*
X128330000Y-97367170D01*
X128407107Y-97482569D01*
X128617431Y-97692893D01*
X128864747Y-97858144D01*
X129139549Y-97971971D01*
X129431278Y-98030000D01*
X129728722Y-98030000D01*
X130020451Y-97971971D01*
X130295253Y-97858144D01*
X130542569Y-97692893D01*
X130611026Y-97624436D01*
X130615498Y-97639180D01*
X130674463Y-97749494D01*
X130753815Y-97846185D01*
X130850506Y-97925537D01*
X130960820Y-97984502D01*
X131080518Y-98020812D01*
X131205000Y-98033072D01*
X132955000Y-98033072D01*
X133079482Y-98020812D01*
X133199180Y-97984502D01*
X133309494Y-97925537D01*
X133406185Y-97846185D01*
X133485537Y-97749494D01*
X133544502Y-97639180D01*
X133580812Y-97519482D01*
X133593072Y-97395000D01*
X133593072Y-96242702D01*
X137616903Y-96242702D01*
X137688486Y-96486671D01*
X137943996Y-96607571D01*
X138218184Y-96676300D01*
X138500512Y-96690217D01*
X138780130Y-96648787D01*
X139046292Y-96553603D01*
X139171514Y-96486671D01*
X139243097Y-96242702D01*
X138430000Y-95429605D01*
X137616903Y-96242702D01*
X133593072Y-96242702D01*
X133593072Y-95645000D01*
X133580812Y-95520518D01*
X133544502Y-95400820D01*
X133501576Y-95320512D01*
X136989783Y-95320512D01*
X137031213Y-95600130D01*
X137126397Y-95866292D01*
X137193329Y-95991514D01*
X137437298Y-96063097D01*
X138250395Y-95250000D01*
X138609605Y-95250000D01*
X139422702Y-96063097D01*
X139666671Y-95991514D01*
X139787571Y-95736004D01*
X139856300Y-95461816D01*
X139870217Y-95179488D01*
X139828787Y-94899870D01*
X139733603Y-94633708D01*
X139666671Y-94508486D01*
X139422702Y-94436903D01*
X138609605Y-95250000D01*
X138250395Y-95250000D01*
X137437298Y-94436903D01*
X137193329Y-94508486D01*
X137072429Y-94763996D01*
X137003700Y-95038184D01*
X136989783Y-95320512D01*
X133501576Y-95320512D01*
X133485537Y-95290506D01*
X133406185Y-95193815D01*
X133309494Y-95114463D01*
X133199180Y-95055498D01*
X133079482Y-95019188D01*
X132955000Y-95006928D01*
X132914124Y-95006928D01*
X132905303Y-94977849D01*
X132822753Y-94823409D01*
X132773994Y-94763996D01*
X132739495Y-94721959D01*
X132739494Y-94721958D01*
X132711659Y-94688041D01*
X132677742Y-94660206D01*
X132274834Y-94257298D01*
X137616903Y-94257298D01*
X138430000Y-95070395D01*
X139243097Y-94257298D01*
X139171514Y-94013329D01*
X138916004Y-93892429D01*
X138641816Y-93823700D01*
X138359488Y-93809783D01*
X138079870Y-93851213D01*
X137813708Y-93946397D01*
X137688486Y-94013329D01*
X137616903Y-94257298D01*
X132274834Y-94257298D01*
X129159000Y-91141465D01*
X129159000Y-87491849D01*
X129184759Y-87474637D01*
X129384637Y-87274759D01*
X129541680Y-87039727D01*
X129546067Y-87029135D01*
X129657615Y-87215131D01*
X129846586Y-87423519D01*
X130072580Y-87591037D01*
X130326913Y-87711246D01*
X130460961Y-87751904D01*
X130683000Y-87629915D01*
X130683000Y-86487000D01*
X130663000Y-86487000D01*
X130663000Y-86233000D01*
X130683000Y-86233000D01*
X130683000Y-85090085D01*
X130460961Y-84968096D01*
X130326913Y-85008754D01*
X130072580Y-85128963D01*
X129846586Y-85296481D01*
X129657615Y-85504869D01*
X129546067Y-85690865D01*
X129541680Y-85680273D01*
X129384637Y-85445241D01*
X129184759Y-85245363D01*
X128949727Y-85088320D01*
X128688574Y-84980147D01*
X128411335Y-84925000D01*
X128128665Y-84925000D01*
X127851426Y-84980147D01*
X127590273Y-85088320D01*
X127355241Y-85245363D01*
X127155363Y-85445241D01*
X127000000Y-85677759D01*
X126844637Y-85445241D01*
X126644759Y-85245363D01*
X126409727Y-85088320D01*
X126148574Y-84980147D01*
X125871335Y-84925000D01*
X125588665Y-84925000D01*
X125311426Y-84980147D01*
X125050273Y-85088320D01*
X124815241Y-85245363D01*
X124615363Y-85445241D01*
X124460000Y-85677759D01*
X124304637Y-85445241D01*
X124104759Y-85245363D01*
X123869727Y-85088320D01*
X123608574Y-84980147D01*
X123331335Y-84925000D01*
X123048665Y-84925000D01*
X122771426Y-84980147D01*
X122510273Y-85088320D01*
X122275241Y-85245363D01*
X122075363Y-85445241D01*
X121920000Y-85677759D01*
X121764637Y-85445241D01*
X121564759Y-85245363D01*
X121338272Y-85094030D01*
X121683202Y-84749100D01*
X122115478Y-84749100D01*
X122152800Y-84752776D01*
X122190122Y-84749100D01*
X122190133Y-84749100D01*
X122301786Y-84738103D01*
X122445047Y-84694646D01*
X122577076Y-84624074D01*
X122692801Y-84529101D01*
X122716604Y-84500097D01*
X132439332Y-74777370D01*
X132670273Y-74931680D01*
X132931426Y-75039853D01*
X133208665Y-75095000D01*
X133491335Y-75095000D01*
X133768574Y-75039853D01*
X134029727Y-74931680D01*
X134264759Y-74774637D01*
X134464637Y-74574759D01*
X134621680Y-74339727D01*
X134729853Y-74078574D01*
X134785000Y-73801335D01*
X134785000Y-73518665D01*
X134729853Y-73241426D01*
X134621680Y-72980273D01*
X134464637Y-72745241D01*
X134264759Y-72545363D01*
X134029727Y-72388320D01*
X133768574Y-72280147D01*
X133491335Y-72225000D01*
X133319801Y-72225000D01*
X137828303Y-67716499D01*
X137850198Y-67698531D01*
X137883038Y-67716084D01*
X138151162Y-67797419D01*
X138430000Y-67824882D01*
X138708839Y-67797419D01*
X138976963Y-67716084D01*
X139224067Y-67584005D01*
X139440655Y-67406255D01*
X139618405Y-67189667D01*
X139700000Y-67037013D01*
X139781595Y-67189667D01*
X139959346Y-67406255D01*
X140175934Y-67584005D01*
X140423038Y-67716084D01*
X140691162Y-67797419D01*
X140970000Y-67824882D01*
X141248839Y-67797419D01*
X141516963Y-67716084D01*
X141764067Y-67584005D01*
X141980655Y-67406255D01*
X142158405Y-67189667D01*
X142236606Y-67043363D01*
X142321595Y-67202367D01*
X142499346Y-67418955D01*
X142715934Y-67596705D01*
X142963038Y-67728784D01*
X143231162Y-67810119D01*
X143510000Y-67837582D01*
X143788839Y-67810119D01*
X144056963Y-67728784D01*
X144304067Y-67596705D01*
X144520655Y-67418955D01*
X144698405Y-67202367D01*
X144830484Y-66955263D01*
X144911819Y-66687138D01*
X144932400Y-66478174D01*
X144932400Y-65627225D01*
X144931150Y-65614526D01*
X147167600Y-65614526D01*
X147167600Y-66465475D01*
X147188181Y-66674439D01*
X147269516Y-66942563D01*
X147401595Y-67189667D01*
X147579346Y-67406255D01*
X147795934Y-67584005D01*
X148043038Y-67716084D01*
X148311162Y-67797419D01*
X148590000Y-67824882D01*
X148868839Y-67797419D01*
X149136963Y-67716084D01*
X149384067Y-67584005D01*
X149600655Y-67406255D01*
X149778405Y-67189667D01*
X149860000Y-67037013D01*
X149941595Y-67189667D01*
X150119346Y-67406255D01*
X150335934Y-67584005D01*
X150583038Y-67716084D01*
X150851162Y-67797419D01*
X151130000Y-67824882D01*
X151408839Y-67797419D01*
X151676963Y-67716084D01*
X151924067Y-67584005D01*
X152140655Y-67406255D01*
X152318405Y-67189667D01*
X152400000Y-67037013D01*
X152481595Y-67189667D01*
X152659346Y-67406255D01*
X152875934Y-67584005D01*
X153123038Y-67716084D01*
X153391162Y-67797419D01*
X153670000Y-67824882D01*
X153948839Y-67797419D01*
X154216963Y-67716084D01*
X154464067Y-67584005D01*
X154680655Y-67406255D01*
X154858405Y-67189667D01*
X154940000Y-67037013D01*
X155021595Y-67189667D01*
X155199346Y-67406255D01*
X155415934Y-67584005D01*
X155663038Y-67716084D01*
X155931162Y-67797419D01*
X156210000Y-67824882D01*
X156488839Y-67797419D01*
X156756963Y-67716084D01*
X157004067Y-67584005D01*
X157220655Y-67406255D01*
X157398405Y-67189667D01*
X157480000Y-67037013D01*
X157561595Y-67189667D01*
X157739346Y-67406255D01*
X157955934Y-67584005D01*
X158203038Y-67716084D01*
X158471162Y-67797419D01*
X158750000Y-67824882D01*
X159028839Y-67797419D01*
X159296963Y-67716084D01*
X159544067Y-67584005D01*
X159760655Y-67406255D01*
X159938405Y-67189667D01*
X160020000Y-67037013D01*
X160101595Y-67189667D01*
X160279346Y-67406255D01*
X160495934Y-67584005D01*
X160743038Y-67716084D01*
X161011162Y-67797419D01*
X161290000Y-67824882D01*
X161568839Y-67797419D01*
X161836963Y-67716084D01*
X162084067Y-67584005D01*
X162300655Y-67406255D01*
X162478405Y-67189667D01*
X162556606Y-67043363D01*
X162641595Y-67202367D01*
X162819346Y-67418955D01*
X163035934Y-67596705D01*
X163283038Y-67728784D01*
X163551162Y-67810119D01*
X163830000Y-67837582D01*
X164108839Y-67810119D01*
X164376963Y-67728784D01*
X164624067Y-67596705D01*
X164840655Y-67418955D01*
X165018405Y-67202367D01*
X165100000Y-67049713D01*
X165181595Y-67202367D01*
X165359346Y-67418955D01*
X165575934Y-67596705D01*
X165823038Y-67728784D01*
X166091162Y-67810119D01*
X166370000Y-67837582D01*
X166648839Y-67810119D01*
X166916963Y-67728784D01*
X167164067Y-67596705D01*
X167380655Y-67418955D01*
X167558405Y-67202367D01*
X167577832Y-67166021D01*
X167667656Y-67382876D01*
X167977912Y-67847207D01*
X168372793Y-68242088D01*
X168837124Y-68552344D01*
X169353061Y-68766052D01*
X169900777Y-68875000D01*
X170459223Y-68875000D01*
X171006939Y-68766052D01*
X171522876Y-68552344D01*
X171987207Y-68242088D01*
X172382088Y-67847207D01*
X172692344Y-67382876D01*
X172886095Y-66915121D01*
X172904880Y-66943235D01*
X173099465Y-67137820D01*
X173328273Y-67290705D01*
X173405515Y-67322700D01*
X173328273Y-67354695D01*
X173099465Y-67507580D01*
X172904880Y-67702165D01*
X172751995Y-67930973D01*
X172646686Y-68185210D01*
X172593000Y-68455108D01*
X172593000Y-68730292D01*
X172646686Y-69000190D01*
X172751995Y-69254427D01*
X172904880Y-69483235D01*
X173099465Y-69677820D01*
X173328273Y-69830705D01*
X173405515Y-69862700D01*
X173328273Y-69894695D01*
X173099465Y-70047580D01*
X172904880Y-70242165D01*
X172751995Y-70470973D01*
X172646686Y-70725210D01*
X172593000Y-70995108D01*
X172593000Y-71270292D01*
X172646686Y-71540190D01*
X172751995Y-71794427D01*
X172904880Y-72023235D01*
X173099465Y-72217820D01*
X173328273Y-72370705D01*
X173405515Y-72402700D01*
X173328273Y-72434695D01*
X173099465Y-72587580D01*
X172904880Y-72782165D01*
X172751995Y-73010973D01*
X172646686Y-73265210D01*
X172593000Y-73535108D01*
X172593000Y-73810292D01*
X172646686Y-74080190D01*
X172751995Y-74334427D01*
X172904880Y-74563235D01*
X173099465Y-74757820D01*
X173328273Y-74910705D01*
X173405515Y-74942700D01*
X173328273Y-74974695D01*
X173099465Y-75127580D01*
X172904880Y-75322165D01*
X172751995Y-75550973D01*
X172646686Y-75805210D01*
X172593000Y-76075108D01*
X172593000Y-76350292D01*
X172646686Y-76620190D01*
X172751995Y-76874427D01*
X172904880Y-77103235D01*
X173099465Y-77297820D01*
X173328273Y-77450705D01*
X173405515Y-77482700D01*
X173328273Y-77514695D01*
X173099465Y-77667580D01*
X172904880Y-77862165D01*
X172751995Y-78090973D01*
X172646686Y-78345210D01*
X172593000Y-78615108D01*
X172593000Y-78890292D01*
X172646686Y-79160190D01*
X172751995Y-79414427D01*
X172904880Y-79643235D01*
X173099465Y-79837820D01*
X173328273Y-79990705D01*
X173405515Y-80022700D01*
X173328273Y-80054695D01*
X173099465Y-80207580D01*
X172904880Y-80402165D01*
X172751995Y-80630973D01*
X172646686Y-80885210D01*
X172593000Y-81155108D01*
X172593000Y-81430292D01*
X172646686Y-81700190D01*
X172751995Y-81954427D01*
X172904880Y-82183235D01*
X173099465Y-82377820D01*
X173328273Y-82530705D01*
X173405515Y-82562700D01*
X173328273Y-82594695D01*
X173099465Y-82747580D01*
X172904880Y-82942165D01*
X172751995Y-83170973D01*
X172646686Y-83425210D01*
X172593000Y-83695108D01*
X172593000Y-83970292D01*
X172646686Y-84240190D01*
X172751995Y-84494427D01*
X172904880Y-84723235D01*
X173099465Y-84917820D01*
X173328273Y-85070705D01*
X173405515Y-85102700D01*
X173328273Y-85134695D01*
X173099465Y-85287580D01*
X172904880Y-85482165D01*
X172751995Y-85710973D01*
X172646686Y-85965210D01*
X172593000Y-86235108D01*
X172593000Y-86510292D01*
X172646686Y-86780190D01*
X172751995Y-87034427D01*
X172904880Y-87263235D01*
X173099465Y-87457820D01*
X173328273Y-87610705D01*
X173405515Y-87642700D01*
X173328273Y-87674695D01*
X173099465Y-87827580D01*
X172904880Y-88022165D01*
X172751995Y-88250973D01*
X172646686Y-88505210D01*
X172593000Y-88775108D01*
X172593000Y-89050292D01*
X172646686Y-89320190D01*
X172751995Y-89574427D01*
X172904880Y-89803235D01*
X173099465Y-89997820D01*
X173328273Y-90150705D01*
X173405515Y-90182700D01*
X173328273Y-90214695D01*
X173099465Y-90367580D01*
X172904880Y-90562165D01*
X172751995Y-90790973D01*
X172646686Y-91045210D01*
X172593000Y-91315108D01*
X172593000Y-91590292D01*
X172646686Y-91860190D01*
X172751995Y-92114427D01*
X172904880Y-92343235D01*
X173099465Y-92537820D01*
X173328273Y-92690705D01*
X173405515Y-92722700D01*
X173328273Y-92754695D01*
X173099465Y-92907580D01*
X172904880Y-93102165D01*
X172751995Y-93330973D01*
X172646686Y-93585210D01*
X172593000Y-93855108D01*
X172593000Y-94130292D01*
X172646686Y-94400190D01*
X172751995Y-94654427D01*
X172904880Y-94883235D01*
X173099465Y-95077820D01*
X173328273Y-95230705D01*
X173405515Y-95262700D01*
X173328273Y-95294695D01*
X173099465Y-95447580D01*
X172904880Y-95642165D01*
X172751995Y-95870973D01*
X172646686Y-96125210D01*
X172593000Y-96395108D01*
X172593000Y-96670292D01*
X172646686Y-96940190D01*
X172751995Y-97194427D01*
X172904880Y-97423235D01*
X173099465Y-97617820D01*
X173328273Y-97770705D01*
X173405515Y-97802700D01*
X173328273Y-97834695D01*
X173099465Y-97987580D01*
X172904880Y-98182165D01*
X172751995Y-98410973D01*
X172646686Y-98665210D01*
X172593000Y-98935108D01*
X172593000Y-99210292D01*
X172646686Y-99480190D01*
X172751995Y-99734427D01*
X172904880Y-99963235D01*
X173099465Y-100157820D01*
X173328273Y-100310705D01*
X173405515Y-100342700D01*
X173328273Y-100374695D01*
X173099465Y-100527580D01*
X172904880Y-100722165D01*
X172751995Y-100950973D01*
X172646686Y-101205210D01*
X172593000Y-101475108D01*
X172593000Y-101750292D01*
X172646686Y-102020190D01*
X172751995Y-102274427D01*
X172904880Y-102503235D01*
X173099465Y-102697820D01*
X173328273Y-102850705D01*
X173405515Y-102882700D01*
X173328273Y-102914695D01*
X173099465Y-103067580D01*
X172904880Y-103262165D01*
X172751995Y-103490973D01*
X172646686Y-103745210D01*
X172593000Y-104015108D01*
X172593000Y-104290292D01*
X172646686Y-104560190D01*
X172751995Y-104814427D01*
X172904880Y-105043235D01*
X173099465Y-105237820D01*
X173328273Y-105390705D01*
X173405515Y-105422700D01*
X173328273Y-105454695D01*
X173099465Y-105607580D01*
X172904880Y-105802165D01*
X172751995Y-106030973D01*
X172646686Y-106285210D01*
X172593000Y-106555108D01*
X172593000Y-106830292D01*
X172646686Y-107100190D01*
X172751995Y-107354427D01*
X172904880Y-107583235D01*
X173099465Y-107777820D01*
X173328273Y-107930705D01*
X173405515Y-107962700D01*
X173328273Y-107994695D01*
X173099465Y-108147580D01*
X172904880Y-108342165D01*
X172751995Y-108570973D01*
X172646686Y-108825210D01*
X172593000Y-109095108D01*
X172593000Y-109370292D01*
X172646686Y-109640190D01*
X172751995Y-109894427D01*
X172904880Y-110123235D01*
X173099465Y-110317820D01*
X173328273Y-110470705D01*
X173582510Y-110576014D01*
X173852408Y-110629700D01*
X174127592Y-110629700D01*
X174397490Y-110576014D01*
X174651727Y-110470705D01*
X174880535Y-110317820D01*
X175075120Y-110123235D01*
X175228005Y-109894427D01*
X175260000Y-109817185D01*
X175291995Y-109894427D01*
X175444880Y-110123235D01*
X175639465Y-110317820D01*
X175868273Y-110470705D01*
X176122510Y-110576014D01*
X176392408Y-110629700D01*
X176667592Y-110629700D01*
X176937490Y-110576014D01*
X177191727Y-110470705D01*
X177420535Y-110317820D01*
X177615120Y-110123235D01*
X177768005Y-109894427D01*
X177873314Y-109640190D01*
X177927000Y-109370292D01*
X177927000Y-109095108D01*
X177873314Y-108825210D01*
X177768005Y-108570973D01*
X177615120Y-108342165D01*
X177420535Y-108147580D01*
X177191727Y-107994695D01*
X177114485Y-107962700D01*
X177191727Y-107930705D01*
X177420535Y-107777820D01*
X177615120Y-107583235D01*
X177768005Y-107354427D01*
X177873314Y-107100190D01*
X177927000Y-106830292D01*
X177927000Y-106555108D01*
X177873314Y-106285210D01*
X177768005Y-106030973D01*
X177615120Y-105802165D01*
X177420535Y-105607580D01*
X177191727Y-105454695D01*
X177114485Y-105422700D01*
X177191727Y-105390705D01*
X177420535Y-105237820D01*
X177615120Y-105043235D01*
X177768005Y-104814427D01*
X177873314Y-104560190D01*
X177927000Y-104290292D01*
X177927000Y-104015108D01*
X177873314Y-103745210D01*
X177768005Y-103490973D01*
X177615120Y-103262165D01*
X177420535Y-103067580D01*
X177191727Y-102914695D01*
X177114485Y-102882700D01*
X177191727Y-102850705D01*
X177420535Y-102697820D01*
X177615120Y-102503235D01*
X177768005Y-102274427D01*
X177873314Y-102020190D01*
X177927000Y-101750292D01*
X177927000Y-101475108D01*
X177873314Y-101205210D01*
X177768005Y-100950973D01*
X177615120Y-100722165D01*
X177420535Y-100527580D01*
X177191727Y-100374695D01*
X177114485Y-100342700D01*
X177191727Y-100310705D01*
X177420535Y-100157820D01*
X177615120Y-99963235D01*
X177768005Y-99734427D01*
X177873314Y-99480190D01*
X177927000Y-99210292D01*
X177927000Y-98935108D01*
X177873314Y-98665210D01*
X177768005Y-98410973D01*
X177615120Y-98182165D01*
X177420535Y-97987580D01*
X177191727Y-97834695D01*
X177114485Y-97802700D01*
X177191727Y-97770705D01*
X177420535Y-97617820D01*
X177615120Y-97423235D01*
X177768005Y-97194427D01*
X177873314Y-96940190D01*
X177927000Y-96670292D01*
X177927000Y-96395108D01*
X177873314Y-96125210D01*
X177768005Y-95870973D01*
X177615120Y-95642165D01*
X177420535Y-95447580D01*
X177191727Y-95294695D01*
X177114485Y-95262700D01*
X177191727Y-95230705D01*
X177420535Y-95077820D01*
X177615120Y-94883235D01*
X177768005Y-94654427D01*
X177873314Y-94400190D01*
X177927000Y-94130292D01*
X177927000Y-93855108D01*
X177873314Y-93585210D01*
X177768005Y-93330973D01*
X177615120Y-93102165D01*
X177420535Y-92907580D01*
X177191727Y-92754695D01*
X177114485Y-92722700D01*
X177191727Y-92690705D01*
X177420535Y-92537820D01*
X177615120Y-92343235D01*
X177768005Y-92114427D01*
X177873314Y-91860190D01*
X177927000Y-91590292D01*
X177927000Y-91315108D01*
X177873314Y-91045210D01*
X177768005Y-90790973D01*
X177615120Y-90562165D01*
X177420535Y-90367580D01*
X177191727Y-90214695D01*
X177114485Y-90182700D01*
X177191727Y-90150705D01*
X177420535Y-89997820D01*
X177615120Y-89803235D01*
X177768005Y-89574427D01*
X177873314Y-89320190D01*
X177927000Y-89050292D01*
X177927000Y-88775108D01*
X177873314Y-88505210D01*
X177768005Y-88250973D01*
X177615120Y-88022165D01*
X177420535Y-87827580D01*
X177191727Y-87674695D01*
X177114485Y-87642700D01*
X177191727Y-87610705D01*
X177420535Y-87457820D01*
X177615120Y-87263235D01*
X177768005Y-87034427D01*
X177873314Y-86780190D01*
X177927000Y-86510292D01*
X177927000Y-86235108D01*
X177873314Y-85965210D01*
X177768005Y-85710973D01*
X177615120Y-85482165D01*
X177420535Y-85287580D01*
X177191727Y-85134695D01*
X177114485Y-85102700D01*
X177191727Y-85070705D01*
X177420535Y-84917820D01*
X177615120Y-84723235D01*
X177768005Y-84494427D01*
X177873314Y-84240190D01*
X177927000Y-83970292D01*
X177927000Y-83695108D01*
X177873314Y-83425210D01*
X177768005Y-83170973D01*
X177615120Y-82942165D01*
X177420535Y-82747580D01*
X177191727Y-82594695D01*
X177114485Y-82562700D01*
X177191727Y-82530705D01*
X177420535Y-82377820D01*
X177615120Y-82183235D01*
X177768005Y-81954427D01*
X177873314Y-81700190D01*
X177927000Y-81430292D01*
X177927000Y-81155108D01*
X177873314Y-80885210D01*
X177768005Y-80630973D01*
X177615120Y-80402165D01*
X177420535Y-80207580D01*
X177191727Y-80054695D01*
X177114485Y-80022700D01*
X177191727Y-79990705D01*
X177420535Y-79837820D01*
X177615120Y-79643235D01*
X177768005Y-79414427D01*
X177873314Y-79160190D01*
X177927000Y-78890292D01*
X177927000Y-78615108D01*
X177873314Y-78345210D01*
X177768005Y-78090973D01*
X177615120Y-77862165D01*
X177420535Y-77667580D01*
X177191727Y-77514695D01*
X177114485Y-77482700D01*
X177191727Y-77450705D01*
X177420535Y-77297820D01*
X177615120Y-77103235D01*
X177768005Y-76874427D01*
X177873314Y-76620190D01*
X177927000Y-76350292D01*
X177927000Y-76075108D01*
X177873314Y-75805210D01*
X177768005Y-75550973D01*
X177615120Y-75322165D01*
X177420535Y-75127580D01*
X177191727Y-74974695D01*
X177114485Y-74942700D01*
X177191727Y-74910705D01*
X177420535Y-74757820D01*
X177615120Y-74563235D01*
X177768005Y-74334427D01*
X177873314Y-74080190D01*
X177927000Y-73810292D01*
X177927000Y-73535108D01*
X177873314Y-73265210D01*
X177768005Y-73010973D01*
X177615120Y-72782165D01*
X177420535Y-72587580D01*
X177191727Y-72434695D01*
X177114485Y-72402700D01*
X177191727Y-72370705D01*
X177420535Y-72217820D01*
X177615120Y-72023235D01*
X177768005Y-71794427D01*
X177873314Y-71540190D01*
X177927000Y-71270292D01*
X177927000Y-70995108D01*
X177873314Y-70725210D01*
X177768005Y-70470973D01*
X177615120Y-70242165D01*
X177420535Y-70047580D01*
X177191727Y-69894695D01*
X177114485Y-69862700D01*
X177191727Y-69830705D01*
X177420535Y-69677820D01*
X177615120Y-69483235D01*
X177768005Y-69254427D01*
X177873314Y-69000190D01*
X177927000Y-68730292D01*
X177927000Y-68455108D01*
X177873314Y-68185210D01*
X177768005Y-67930973D01*
X177615120Y-67702165D01*
X177420535Y-67507580D01*
X177191727Y-67354695D01*
X177114485Y-67322700D01*
X177191727Y-67290705D01*
X177420535Y-67137820D01*
X177615120Y-66943235D01*
X177768005Y-66714427D01*
X177873314Y-66460190D01*
X177927000Y-66190292D01*
X177927000Y-65915108D01*
X177873314Y-65645210D01*
X177768005Y-65390973D01*
X177615120Y-65162165D01*
X177420535Y-64967580D01*
X177191727Y-64814695D01*
X176937490Y-64709386D01*
X176667592Y-64655700D01*
X176392408Y-64655700D01*
X176122510Y-64709386D01*
X175868273Y-64814695D01*
X175639465Y-64967580D01*
X175444880Y-65162165D01*
X175291995Y-65390973D01*
X175260000Y-65468215D01*
X175228005Y-65390973D01*
X175075120Y-65162165D01*
X174880535Y-64967580D01*
X174651727Y-64814695D01*
X174397490Y-64709386D01*
X174127592Y-64655700D01*
X173852408Y-64655700D01*
X173582510Y-64709386D01*
X173328273Y-64814695D01*
X173099465Y-64967580D01*
X172904880Y-65162165D01*
X172892589Y-65180559D01*
X172692344Y-64697124D01*
X172382088Y-64232793D01*
X171987207Y-63837912D01*
X171522876Y-63527656D01*
X171006939Y-63313948D01*
X170459223Y-63205000D01*
X169900777Y-63205000D01*
X169353061Y-63313948D01*
X168837124Y-63527656D01*
X168372793Y-63837912D01*
X167977912Y-64232793D01*
X167667656Y-64697124D01*
X167571904Y-64928289D01*
X167558405Y-64903033D01*
X167380654Y-64686445D01*
X167164066Y-64508695D01*
X166916962Y-64376616D01*
X166648838Y-64295281D01*
X166370000Y-64267818D01*
X166091161Y-64295281D01*
X165823037Y-64376616D01*
X165575933Y-64508695D01*
X165359345Y-64686446D01*
X165181595Y-64903034D01*
X165100000Y-65055688D01*
X165018405Y-64903033D01*
X164840654Y-64686445D01*
X164624066Y-64508695D01*
X164376962Y-64376616D01*
X164108838Y-64295281D01*
X163830000Y-64267818D01*
X163551161Y-64295281D01*
X163283037Y-64376616D01*
X163035933Y-64508695D01*
X162819345Y-64686446D01*
X162641595Y-64903034D01*
X162563394Y-65049338D01*
X162478405Y-64890333D01*
X162300654Y-64673745D01*
X162084066Y-64495995D01*
X161836962Y-64363916D01*
X161568838Y-64282581D01*
X161290000Y-64255118D01*
X161011161Y-64282581D01*
X160743037Y-64363916D01*
X160495933Y-64495995D01*
X160279345Y-64673746D01*
X160101595Y-64890334D01*
X160020000Y-65042988D01*
X159938405Y-64890333D01*
X159760654Y-64673745D01*
X159544066Y-64495995D01*
X159296962Y-64363916D01*
X159028838Y-64282581D01*
X158750000Y-64255118D01*
X158471161Y-64282581D01*
X158203037Y-64363916D01*
X157955933Y-64495995D01*
X157739345Y-64673746D01*
X157561595Y-64890334D01*
X157480000Y-65042988D01*
X157398405Y-64890333D01*
X157220654Y-64673745D01*
X157004066Y-64495995D01*
X156756962Y-64363916D01*
X156488838Y-64282581D01*
X156210000Y-64255118D01*
X155931161Y-64282581D01*
X155663037Y-64363916D01*
X155415933Y-64495995D01*
X155199345Y-64673746D01*
X155021595Y-64890334D01*
X154940000Y-65042988D01*
X154858405Y-64890333D01*
X154680654Y-64673745D01*
X154464066Y-64495995D01*
X154216962Y-64363916D01*
X153948838Y-64282581D01*
X153670000Y-64255118D01*
X153391161Y-64282581D01*
X153123037Y-64363916D01*
X152875933Y-64495995D01*
X152659345Y-64673746D01*
X152481595Y-64890334D01*
X152400000Y-65042988D01*
X152318405Y-64890333D01*
X152140654Y-64673745D01*
X151924066Y-64495995D01*
X151676962Y-64363916D01*
X151408838Y-64282581D01*
X151130000Y-64255118D01*
X150851161Y-64282581D01*
X150583037Y-64363916D01*
X150335933Y-64495995D01*
X150119345Y-64673746D01*
X149941595Y-64890334D01*
X149860000Y-65042988D01*
X149778405Y-64890333D01*
X149600654Y-64673745D01*
X149384066Y-64495995D01*
X149136962Y-64363916D01*
X148868838Y-64282581D01*
X148590000Y-64255118D01*
X148311161Y-64282581D01*
X148043037Y-64363916D01*
X147795933Y-64495995D01*
X147579345Y-64673746D01*
X147401595Y-64890334D01*
X147269516Y-65137438D01*
X147188181Y-65405562D01*
X147167600Y-65614526D01*
X144931150Y-65614526D01*
X144911819Y-65418261D01*
X144830484Y-65150137D01*
X144698405Y-64903033D01*
X144520654Y-64686445D01*
X144304066Y-64508695D01*
X144056962Y-64376616D01*
X143788838Y-64295281D01*
X143510000Y-64267818D01*
X143231161Y-64295281D01*
X142963037Y-64376616D01*
X142715933Y-64508695D01*
X142499345Y-64686446D01*
X142321595Y-64903034D01*
X142243394Y-65049338D01*
X142158405Y-64890333D01*
X141980654Y-64673745D01*
X141764066Y-64495995D01*
X141516962Y-64363916D01*
X141248838Y-64282581D01*
X140970000Y-64255118D01*
X140691161Y-64282581D01*
X140423037Y-64363916D01*
X140175933Y-64495995D01*
X139959345Y-64673746D01*
X139781595Y-64890334D01*
X139700000Y-65042988D01*
X139618405Y-64890333D01*
X139440654Y-64673745D01*
X139224066Y-64495995D01*
X138976962Y-64363916D01*
X138708838Y-64282581D01*
X138430000Y-64255118D01*
X138151161Y-64282581D01*
X137883037Y-64363916D01*
X137635933Y-64495995D01*
X137419345Y-64673746D01*
X137241595Y-64890334D01*
X137160000Y-65042988D01*
X137078405Y-64890333D01*
X136900654Y-64673745D01*
X136684066Y-64495995D01*
X136436962Y-64363916D01*
X136168838Y-64282581D01*
X135890000Y-64255118D01*
X135611161Y-64282581D01*
X135343037Y-64363916D01*
X135095933Y-64495995D01*
X134879345Y-64673746D01*
X134701595Y-64890334D01*
X134620000Y-65042988D01*
X134538405Y-64890333D01*
X134360654Y-64673745D01*
X134144066Y-64495995D01*
X133896962Y-64363916D01*
X133628838Y-64282581D01*
X133350000Y-64255118D01*
X133071161Y-64282581D01*
X132803037Y-64363916D01*
X132555933Y-64495995D01*
X132339345Y-64673746D01*
X132161595Y-64890334D01*
X132080000Y-65042988D01*
X131998405Y-64890333D01*
X131820654Y-64673745D01*
X131604066Y-64495995D01*
X131356962Y-64363916D01*
X131088838Y-64282581D01*
X130810000Y-64255118D01*
X130531161Y-64282581D01*
X130263037Y-64363916D01*
X130015933Y-64495995D01*
X129799345Y-64673746D01*
X129621595Y-64890334D01*
X129540000Y-65042988D01*
X129458405Y-64890333D01*
X129280654Y-64673745D01*
X129064066Y-64495995D01*
X128816962Y-64363916D01*
X128548838Y-64282581D01*
X128270000Y-64255118D01*
X127991161Y-64282581D01*
X127723037Y-64363916D01*
X127475933Y-64495995D01*
X127259345Y-64673746D01*
X127081595Y-64890334D01*
X127000000Y-65042988D01*
X126918405Y-64890333D01*
X126740654Y-64673745D01*
X126524066Y-64495995D01*
X126276962Y-64363916D01*
X126008838Y-64282581D01*
X125730000Y-64255118D01*
X125451161Y-64282581D01*
X125183037Y-64363916D01*
X124935933Y-64495995D01*
X124719345Y-64673746D01*
X124541595Y-64890334D01*
X124409516Y-65137438D01*
X124328181Y-65405562D01*
X124307600Y-65614526D01*
X124307600Y-66465475D01*
X124310727Y-66497226D01*
X123342504Y-65529003D01*
X123318701Y-65499999D01*
X123202976Y-65405026D01*
X123070947Y-65334454D01*
X123043746Y-65326203D01*
X122986484Y-65137437D01*
X122854405Y-64890333D01*
X122676654Y-64673745D01*
X122460066Y-64495995D01*
X122212962Y-64363916D01*
X121944838Y-64282581D01*
X121666000Y-64255118D01*
X121387161Y-64282581D01*
X121119037Y-64363916D01*
X120871933Y-64495995D01*
X120655345Y-64673746D01*
X120477595Y-64890334D01*
X120396000Y-65042988D01*
X120314405Y-64890333D01*
X120136654Y-64673745D01*
X119920066Y-64495995D01*
X119672962Y-64363916D01*
X119404838Y-64282581D01*
X119126000Y-64255118D01*
X118847161Y-64282581D01*
X118579037Y-64363916D01*
X118331933Y-64495995D01*
X118115345Y-64673746D01*
X117937595Y-64890334D01*
X117856000Y-65042988D01*
X117774405Y-64890333D01*
X117596654Y-64673745D01*
X117380066Y-64495995D01*
X117132962Y-64363916D01*
X116864838Y-64282581D01*
X116586000Y-64255118D01*
X116307161Y-64282581D01*
X116039037Y-64363916D01*
X115791933Y-64495995D01*
X115575345Y-64673746D01*
X115397595Y-64890334D01*
X115316000Y-65042988D01*
X115234405Y-64890333D01*
X115056654Y-64673745D01*
X114840066Y-64495995D01*
X114592962Y-64363916D01*
X114324838Y-64282581D01*
X114046000Y-64255118D01*
X113767161Y-64282581D01*
X113499037Y-64363916D01*
X113251933Y-64495995D01*
X113035345Y-64673746D01*
X112857595Y-64890334D01*
X112776000Y-65042988D01*
X112694405Y-64890333D01*
X112516654Y-64673745D01*
X112300066Y-64495995D01*
X112052962Y-64363916D01*
X111784838Y-64282581D01*
X111506000Y-64255118D01*
X111227161Y-64282581D01*
X110959037Y-64363916D01*
X110711933Y-64495995D01*
X110495345Y-64673746D01*
X110317595Y-64890334D01*
X110236000Y-65042988D01*
X110154405Y-64890333D01*
X109976654Y-64673745D01*
X109760066Y-64495995D01*
X109512962Y-64363916D01*
X109244838Y-64282581D01*
X108966000Y-64255118D01*
X108687161Y-64282581D01*
X108419037Y-64363916D01*
X108171933Y-64495995D01*
X107955345Y-64673746D01*
X107777595Y-64890334D01*
X107695187Y-65044510D01*
X107691526Y-65035438D01*
X107538125Y-64801260D01*
X107341986Y-64601508D01*
X107110646Y-64443859D01*
X106852996Y-64334372D01*
X106773060Y-64317690D01*
X106553000Y-64439848D01*
X106553000Y-65925700D01*
X106573000Y-65925700D01*
X106573000Y-66179700D01*
X106553000Y-66179700D01*
X106553000Y-67665552D01*
X106773060Y-67787710D01*
X106852996Y-67771028D01*
X107110646Y-67661541D01*
X107341986Y-67503892D01*
X107538125Y-67304140D01*
X107691526Y-67069962D01*
X107701027Y-67046418D01*
X107777595Y-67189667D01*
X107955346Y-67406255D01*
X108171934Y-67584005D01*
X108419038Y-67716084D01*
X108687162Y-67797419D01*
X108966000Y-67824882D01*
X109244839Y-67797419D01*
X109512963Y-67716084D01*
X109619590Y-67659091D01*
X114580551Y-72620053D01*
X114455363Y-72745241D01*
X114298320Y-72980273D01*
X114190147Y-73241426D01*
X114135000Y-73518665D01*
X114135000Y-73801335D01*
X114190147Y-74078574D01*
X114298320Y-74339727D01*
X114455363Y-74574759D01*
X114655241Y-74774637D01*
X114890273Y-74931680D01*
X115151426Y-75039853D01*
X115428665Y-75095000D01*
X115711335Y-75095000D01*
X115988574Y-75039853D01*
X116249727Y-74931680D01*
X116484759Y-74774637D01*
X116684637Y-74574759D01*
X116840000Y-74342241D01*
X116995363Y-74574759D01*
X117195241Y-74774637D01*
X117430273Y-74931680D01*
X117691426Y-75039853D01*
X117968665Y-75095000D01*
X118251335Y-75095000D01*
X118528574Y-75039853D01*
X118789727Y-74931680D01*
X119024759Y-74774637D01*
X119224637Y-74574759D01*
X119380000Y-74342241D01*
X119535363Y-74574759D01*
X119735241Y-74774637D01*
X119970273Y-74931680D01*
X120231426Y-75039853D01*
X120508665Y-75095000D01*
X120791335Y-75095000D01*
X121068574Y-75039853D01*
X121329727Y-74931680D01*
X121564759Y-74774637D01*
X121764637Y-74574759D01*
X121882187Y-74398833D01*
X121915714Y-74409003D01*
X121968053Y-74414158D01*
X122075363Y-74574759D01*
X122275241Y-74774637D01*
X122510273Y-74931680D01*
X122771426Y-75039853D01*
X123048665Y-75095000D01*
X123331335Y-75095000D01*
X123608574Y-75039853D01*
X123869727Y-74931680D01*
X124104759Y-74774637D01*
X124304637Y-74574759D01*
X124422187Y-74398833D01*
X124455714Y-74409003D01*
X124508053Y-74414158D01*
X124615363Y-74574759D01*
X124815241Y-74774637D01*
X125050273Y-74931680D01*
X125311426Y-75039853D01*
X125588665Y-75095000D01*
X125871335Y-75095000D01*
X126148574Y-75039853D01*
X126409727Y-74931680D01*
X126644759Y-74774637D01*
X126844637Y-74574759D01*
X126962187Y-74398833D01*
X126995714Y-74409003D01*
X127048053Y-74414158D01*
X127155363Y-74574759D01*
X127355241Y-74774637D01*
X127590273Y-74931680D01*
X127851426Y-75039853D01*
X128128665Y-75095000D01*
X128411335Y-75095000D01*
X128688574Y-75039853D01*
X128949727Y-74931680D01*
X129184759Y-74774637D01*
X129384637Y-74574759D01*
X129502187Y-74398833D01*
X129535714Y-74409003D01*
X129588053Y-74414158D01*
X129695363Y-74574759D01*
X129895241Y-74774637D01*
X130130273Y-74931680D01*
X130133911Y-74933187D01*
X121837999Y-83229100D01*
X121405722Y-83229100D01*
X121368399Y-83225424D01*
X121331076Y-83229100D01*
X121331067Y-83229100D01*
X121219414Y-83240097D01*
X121076153Y-83283554D01*
X120944124Y-83354126D01*
X120828399Y-83449099D01*
X120804601Y-83478097D01*
X119031047Y-85251651D01*
X119024759Y-85245363D01*
X118789727Y-85088320D01*
X118528574Y-84980147D01*
X118251335Y-84925000D01*
X117968665Y-84925000D01*
X117691426Y-84980147D01*
X117430273Y-85088320D01*
X117195241Y-85245363D01*
X116996643Y-85443961D01*
X116995812Y-85435518D01*
X116959502Y-85315820D01*
X116900537Y-85205506D01*
X116821185Y-85108815D01*
X116724494Y-85029463D01*
X116614180Y-84970498D01*
X116494482Y-84934188D01*
X116370000Y-84921928D01*
X115855750Y-84925000D01*
X115697000Y-85083750D01*
X115697000Y-86233000D01*
X115717000Y-86233000D01*
X115717000Y-86487000D01*
X115697000Y-86487000D01*
X115697000Y-87636250D01*
X115855750Y-87795000D01*
X116370000Y-87798072D01*
X116494482Y-87785812D01*
X116614180Y-87749502D01*
X116724494Y-87690537D01*
X116821185Y-87611185D01*
X116900537Y-87514494D01*
X116959502Y-87404180D01*
X116995812Y-87284482D01*
X116996643Y-87276039D01*
X117195241Y-87474637D01*
X117415074Y-87621524D01*
X110386599Y-94650000D01*
X107988245Y-94650000D01*
X107852893Y-94447431D01*
X107642569Y-94237107D01*
X107395253Y-94071856D01*
X107120451Y-93958029D01*
X106828722Y-93900000D01*
X106531278Y-93900000D01*
X106239549Y-93958029D01*
X105964747Y-94071856D01*
X105717431Y-94237107D01*
X105507107Y-94447431D01*
X105341856Y-94694747D01*
X105228029Y-94969549D01*
X105170000Y-95261278D01*
X105170000Y-95558722D01*
X105228029Y-95850451D01*
X105341856Y-96125253D01*
X105507107Y-96372569D01*
X105717431Y-96582893D01*
X105832830Y-96660000D01*
X105717431Y-96737107D01*
X105507107Y-96947431D01*
X105341856Y-97194747D01*
X105228029Y-97469549D01*
X105170000Y-97761278D01*
X105170000Y-98058722D01*
X105228029Y-98350451D01*
X105341856Y-98625253D01*
X105507107Y-98872569D01*
X105717431Y-99082893D01*
X105832830Y-99160000D01*
X105717431Y-99237107D01*
X105507107Y-99447431D01*
X105341856Y-99694747D01*
X105228029Y-99969549D01*
X105170000Y-100261278D01*
X105170000Y-100558722D01*
X105228029Y-100850451D01*
X105341856Y-101125253D01*
X105507107Y-101372569D01*
X105717431Y-101582893D01*
X105832830Y-101660000D01*
X105717431Y-101737107D01*
X105507107Y-101947431D01*
X105341856Y-102194747D01*
X105228029Y-102469549D01*
X105170000Y-102761278D01*
X105170000Y-103058722D01*
X105228029Y-103350451D01*
X105341856Y-103625253D01*
X105507107Y-103872569D01*
X105575564Y-103941026D01*
X105560820Y-103945498D01*
X105450506Y-104004463D01*
X105353815Y-104083815D01*
X105274463Y-104180506D01*
X105215498Y-104290820D01*
X105179188Y-104410518D01*
X105166928Y-104535000D01*
X92100000Y-104535000D01*
X92100000Y-87160000D01*
X114131928Y-87160000D01*
X114144188Y-87284482D01*
X114180498Y-87404180D01*
X114239463Y-87514494D01*
X114318815Y-87611185D01*
X114415506Y-87690537D01*
X114525820Y-87749502D01*
X114645518Y-87785812D01*
X114770000Y-87798072D01*
X115284250Y-87795000D01*
X115443000Y-87636250D01*
X115443000Y-86487000D01*
X114293750Y-86487000D01*
X114135000Y-86645750D01*
X114131928Y-87160000D01*
X92100000Y-87160000D01*
X92100000Y-85560000D01*
X114131928Y-85560000D01*
X114135000Y-86074250D01*
X114293750Y-86233000D01*
X115443000Y-86233000D01*
X115443000Y-85083750D01*
X115284250Y-84925000D01*
X114770000Y-84921928D01*
X114645518Y-84934188D01*
X114525820Y-84970498D01*
X114415506Y-85029463D01*
X114318815Y-85108815D01*
X114239463Y-85205506D01*
X114180498Y-85315820D01*
X114144188Y-85435518D01*
X114131928Y-85560000D01*
X92100000Y-85560000D01*
X92100000Y-65760777D01*
X92415000Y-65760777D01*
X92415000Y-66319223D01*
X92523948Y-66866939D01*
X92737656Y-67382876D01*
X93047912Y-67847207D01*
X93442793Y-68242088D01*
X93907124Y-68552344D01*
X94423061Y-68766052D01*
X94970777Y-68875000D01*
X95529223Y-68875000D01*
X96076939Y-68766052D01*
X96592876Y-68552344D01*
X97057207Y-68242088D01*
X97452088Y-67847207D01*
X97762344Y-67382876D01*
X97763482Y-67380129D01*
X97795346Y-67418955D01*
X98011934Y-67596705D01*
X98259038Y-67728784D01*
X98527162Y-67810119D01*
X98806000Y-67837582D01*
X99084839Y-67810119D01*
X99352963Y-67728784D01*
X99600067Y-67596705D01*
X99816655Y-67418955D01*
X99994405Y-67202367D01*
X100076000Y-67049713D01*
X100157595Y-67202367D01*
X100335346Y-67418955D01*
X100551934Y-67596705D01*
X100799038Y-67728784D01*
X101067162Y-67810119D01*
X101346000Y-67837582D01*
X101624839Y-67810119D01*
X101892963Y-67728784D01*
X102140067Y-67596705D01*
X102356655Y-67418955D01*
X102534405Y-67202367D01*
X102616000Y-67049713D01*
X102697595Y-67202367D01*
X102875346Y-67418955D01*
X103091934Y-67596705D01*
X103339038Y-67728784D01*
X103607162Y-67810119D01*
X103886000Y-67837582D01*
X104164839Y-67810119D01*
X104432963Y-67728784D01*
X104680067Y-67596705D01*
X104896655Y-67418955D01*
X105074405Y-67202367D01*
X105153893Y-67053655D01*
X105160474Y-67069962D01*
X105313875Y-67304140D01*
X105510014Y-67503892D01*
X105741354Y-67661541D01*
X105999004Y-67771028D01*
X106078940Y-67787710D01*
X106299000Y-67665552D01*
X106299000Y-66179700D01*
X106279000Y-66179700D01*
X106279000Y-65925700D01*
X106299000Y-65925700D01*
X106299000Y-64439848D01*
X106078940Y-64317690D01*
X105999004Y-64334372D01*
X105741354Y-64443859D01*
X105510014Y-64601508D01*
X105313875Y-64801260D01*
X105160474Y-65035438D01*
X105153893Y-65051745D01*
X105074405Y-64903033D01*
X104896654Y-64686445D01*
X104680066Y-64508695D01*
X104432962Y-64376616D01*
X104164838Y-64295281D01*
X103886000Y-64267818D01*
X103607161Y-64295281D01*
X103339037Y-64376616D01*
X103091933Y-64508695D01*
X102875345Y-64686446D01*
X102697595Y-64903034D01*
X102616000Y-65055688D01*
X102534405Y-64903033D01*
X102356654Y-64686445D01*
X102140066Y-64508695D01*
X101892962Y-64376616D01*
X101624838Y-64295281D01*
X101346000Y-64267818D01*
X101067161Y-64295281D01*
X100799037Y-64376616D01*
X100551933Y-64508695D01*
X100335345Y-64686446D01*
X100157595Y-64903034D01*
X100076000Y-65055688D01*
X99994405Y-64903033D01*
X99816654Y-64686445D01*
X99600066Y-64508695D01*
X99352962Y-64376616D01*
X99084838Y-64295281D01*
X98806000Y-64267818D01*
X98527161Y-64295281D01*
X98259037Y-64376616D01*
X98011933Y-64508695D01*
X97795345Y-64686446D01*
X97770474Y-64716751D01*
X97762344Y-64697124D01*
X97452088Y-64232793D01*
X97057207Y-63837912D01*
X96592876Y-63527656D01*
X96076939Y-63313948D01*
X95529223Y-63205000D01*
X94970777Y-63205000D01*
X94423061Y-63313948D01*
X93907124Y-63527656D01*
X93442793Y-63837912D01*
X93047912Y-64232793D01*
X92737656Y-64697124D01*
X92523948Y-65213061D01*
X92415000Y-65760777D01*
X92100000Y-65760777D01*
X92100000Y-62890000D01*
X179680000Y-62890000D01*
X179680001Y-74897581D01*
G37*
X179680001Y-74897581D02*
X179676808Y-74930000D01*
X179680001Y-74962419D01*
X179687628Y-75039853D01*
X179689551Y-75059382D01*
X179727290Y-75183792D01*
X179788575Y-75298450D01*
X179850386Y-75373766D01*
X179850389Y-75373769D01*
X179871053Y-75398948D01*
X179896232Y-75419612D01*
X182220000Y-77743381D01*
X182220001Y-81247581D01*
X182220000Y-114026619D01*
X179896232Y-116350388D01*
X179871053Y-116371052D01*
X179850389Y-116396231D01*
X179850386Y-116396234D01*
X179788575Y-116471550D01*
X179727290Y-116586208D01*
X179689551Y-116710618D01*
X179676808Y-116840000D01*
X179680001Y-116872419D01*
X179680001Y-117450000D01*
X92100000Y-117450000D01*
X92100000Y-116429295D01*
X92172793Y-116502088D01*
X92637124Y-116812344D01*
X93153061Y-117026052D01*
X93700777Y-117135000D01*
X94259223Y-117135000D01*
X94806939Y-117026052D01*
X95322876Y-116812344D01*
X95787207Y-116502088D01*
X96182088Y-116107207D01*
X96492344Y-115642876D01*
X96706052Y-115126939D01*
X96815000Y-114579223D01*
X96815000Y-114020777D01*
X96706052Y-113473061D01*
X96492344Y-112957124D01*
X96182088Y-112492793D01*
X95787207Y-112097912D01*
X95322876Y-111787656D01*
X94806939Y-111573948D01*
X94259223Y-111465000D01*
X93700777Y-111465000D01*
X93153061Y-111573948D01*
X92637124Y-111787656D01*
X92172793Y-112097912D01*
X92100000Y-112170705D01*
X92100000Y-106285000D01*
X105166928Y-106285000D01*
X105179188Y-106409482D01*
X105215498Y-106529180D01*
X105274463Y-106639494D01*
X105353815Y-106736185D01*
X105450506Y-106815537D01*
X105560820Y-106874502D01*
X105680518Y-106910812D01*
X105805000Y-106923072D01*
X106394250Y-106920000D01*
X106553000Y-106761250D01*
X106553000Y-105537000D01*
X105328750Y-105537000D01*
X105170000Y-105695750D01*
X105166928Y-106285000D01*
X92100000Y-106285000D01*
X92100000Y-104535000D01*
X105166928Y-104535000D01*
X105170000Y-105124250D01*
X105328750Y-105283000D01*
X106553000Y-105283000D01*
X106553000Y-105263000D01*
X106807000Y-105263000D01*
X106807000Y-105283000D01*
X106827000Y-105283000D01*
X106827000Y-105537000D01*
X106807000Y-105537000D01*
X106807000Y-106761250D01*
X106965750Y-106920000D01*
X107555000Y-106923072D01*
X107679482Y-106910812D01*
X107799180Y-106874502D01*
X107909494Y-106815537D01*
X108006185Y-106736185D01*
X108085537Y-106639494D01*
X108144502Y-106529180D01*
X108180812Y-106409482D01*
X108193072Y-106285000D01*
X108190000Y-105695750D01*
X108031252Y-105537002D01*
X108190000Y-105537002D01*
X108190000Y-105494801D01*
X115259948Y-112564750D01*
X115023037Y-112636616D01*
X114775933Y-112768695D01*
X114559345Y-112946446D01*
X114381595Y-113163034D01*
X114300000Y-113315688D01*
X114218405Y-113163033D01*
X114040654Y-112946445D01*
X113824066Y-112768695D01*
X113576962Y-112636616D01*
X113308838Y-112555281D01*
X113030000Y-112527818D01*
X112751161Y-112555281D01*
X112483037Y-112636616D01*
X112235933Y-112768695D01*
X112019345Y-112946446D01*
X111841595Y-113163034D01*
X111760000Y-113315688D01*
X111678405Y-113163033D01*
X111500654Y-112946445D01*
X111284066Y-112768695D01*
X111036962Y-112636616D01*
X110768838Y-112555281D01*
X110490000Y-112527818D01*
X110211161Y-112555281D01*
X109943037Y-112636616D01*
X109695933Y-112768695D01*
X109479345Y-112946446D01*
X109301595Y-113163034D01*
X109220000Y-113315688D01*
X109138405Y-113163033D01*
X108960654Y-112946445D01*
X108744066Y-112768695D01*
X108496962Y-112636616D01*
X108228838Y-112555281D01*
X107950000Y-112527818D01*
X107671161Y-112555281D01*
X107403037Y-112636616D01*
X107155933Y-112768695D01*
X106939345Y-112946446D01*
X106761595Y-113163034D01*
X106629516Y-113410138D01*
X106548181Y-113678262D01*
X106527600Y-113887226D01*
X106527600Y-114738175D01*
X106548181Y-114947139D01*
X106629516Y-115215263D01*
X106761595Y-115462367D01*
X106939346Y-115678955D01*
X107155934Y-115856705D01*
X107403038Y-115988784D01*
X107671162Y-116070119D01*
X107950000Y-116097582D01*
X108228839Y-116070119D01*
X108496963Y-115988784D01*
X108744067Y-115856705D01*
X108960655Y-115678955D01*
X109138405Y-115462367D01*
X109220000Y-115309713D01*
X109301595Y-115462367D01*
X109479346Y-115678955D01*
X109695934Y-115856705D01*
X109943038Y-115988784D01*
X110211162Y-116070119D01*
X110490000Y-116097582D01*
X110768839Y-116070119D01*
X111036963Y-115988784D01*
X111284067Y-115856705D01*
X111500655Y-115678955D01*
X111678405Y-115462367D01*
X111760000Y-115309713D01*
X111841595Y-115462367D01*
X112019346Y-115678955D01*
X112235934Y-115856705D01*
X112483038Y-115988784D01*
X112751162Y-116070119D01*
X113030000Y-116097582D01*
X113308839Y-116070119D01*
X113576963Y-115988784D01*
X113824067Y-115856705D01*
X114040655Y-115678955D01*
X114218405Y-115462367D01*
X114300000Y-115309713D01*
X114381595Y-115462367D01*
X114559346Y-115678955D01*
X114775934Y-115856705D01*
X115023038Y-115988784D01*
X115291162Y-116070119D01*
X115570000Y-116097582D01*
X115848839Y-116070119D01*
X116116963Y-115988784D01*
X116364067Y-115856705D01*
X116580655Y-115678955D01*
X116758405Y-115462367D01*
X116840000Y-115309713D01*
X116921595Y-115462367D01*
X117099346Y-115678955D01*
X117315934Y-115856705D01*
X117563038Y-115988784D01*
X117831162Y-116070119D01*
X118110000Y-116097582D01*
X118388839Y-116070119D01*
X118656963Y-115988784D01*
X118904067Y-115856705D01*
X119120655Y-115678955D01*
X119298405Y-115462367D01*
X119377893Y-115313655D01*
X119384474Y-115329962D01*
X119537875Y-115564140D01*
X119734014Y-115763892D01*
X119965354Y-115921541D01*
X120223004Y-116031028D01*
X120302940Y-116047710D01*
X120523000Y-115925552D01*
X120523000Y-114439700D01*
X120777000Y-114439700D01*
X120777000Y-115925552D01*
X120997060Y-116047710D01*
X121076996Y-116031028D01*
X121334646Y-115921541D01*
X121565986Y-115763892D01*
X121762125Y-115564140D01*
X121915526Y-115329962D01*
X121920000Y-115318876D01*
X121924474Y-115329962D01*
X122077875Y-115564140D01*
X122274014Y-115763892D01*
X122505354Y-115921541D01*
X122763004Y-116031028D01*
X122842940Y-116047710D01*
X123063000Y-115925552D01*
X123063000Y-114439700D01*
X120777000Y-114439700D01*
X120523000Y-114439700D01*
X120503000Y-114439700D01*
X120503000Y-114185700D01*
X120523000Y-114185700D01*
X120523000Y-112699848D01*
X120777000Y-112699848D01*
X120777000Y-114185700D01*
X123063000Y-114185700D01*
X123063000Y-112699848D01*
X123317000Y-112699848D01*
X123317000Y-114185700D01*
X123337000Y-114185700D01*
X123337000Y-114439700D01*
X123317000Y-114439700D01*
X123317000Y-115925552D01*
X123537060Y-116047710D01*
X123616996Y-116031028D01*
X123874646Y-115921541D01*
X124105986Y-115763892D01*
X124302125Y-115564140D01*
X124455526Y-115329962D01*
X124462107Y-115313655D01*
X124541595Y-115462367D01*
X124719346Y-115678955D01*
X124935934Y-115856705D01*
X125183038Y-115988784D01*
X125451162Y-116070119D01*
X125730000Y-116097582D01*
X126008839Y-116070119D01*
X126276963Y-115988784D01*
X126524067Y-115856705D01*
X126740655Y-115678955D01*
X126918405Y-115462367D01*
X126995255Y-115318589D01*
X127041871Y-115313998D01*
X127233387Y-115255902D01*
X127409890Y-115161560D01*
X127564596Y-115034596D01*
X127691560Y-114879890D01*
X127785902Y-114703387D01*
X127843998Y-114511871D01*
X127863615Y-114312700D01*
X127858700Y-114262798D01*
X127858700Y-113887226D01*
X129387600Y-113887226D01*
X129387600Y-114738175D01*
X129408181Y-114947139D01*
X129489516Y-115215263D01*
X129621595Y-115462367D01*
X129799346Y-115678955D01*
X130015934Y-115856705D01*
X130263038Y-115988784D01*
X130531162Y-116070119D01*
X130810000Y-116097582D01*
X131088839Y-116070119D01*
X131356963Y-115988784D01*
X131604067Y-115856705D01*
X131820655Y-115678955D01*
X131998405Y-115462367D01*
X132083394Y-115303363D01*
X132161595Y-115449667D01*
X132339346Y-115666255D01*
X132555934Y-115844005D01*
X132803038Y-115976084D01*
X133071162Y-116057419D01*
X133350000Y-116084882D01*
X133628839Y-116057419D01*
X133896963Y-115976084D01*
X134144067Y-115844005D01*
X134360655Y-115666255D01*
X134538405Y-115449667D01*
X134620000Y-115297013D01*
X134701595Y-115449667D01*
X134879346Y-115666255D01*
X135095934Y-115844005D01*
X135343038Y-115976084D01*
X135611162Y-116057419D01*
X135890000Y-116084882D01*
X136168839Y-116057419D01*
X136436963Y-115976084D01*
X136684067Y-115844005D01*
X136900655Y-115666255D01*
X137078405Y-115449667D01*
X137160000Y-115297013D01*
X137241595Y-115449667D01*
X137419346Y-115666255D01*
X137635934Y-115844005D01*
X137883038Y-115976084D01*
X138151162Y-116057419D01*
X138430000Y-116084882D01*
X138708839Y-116057419D01*
X138976963Y-115976084D01*
X139224067Y-115844005D01*
X139440655Y-115666255D01*
X139618405Y-115449667D01*
X139700000Y-115297013D01*
X139781595Y-115449667D01*
X139959346Y-115666255D01*
X140175934Y-115844005D01*
X140423038Y-115976084D01*
X140691162Y-116057419D01*
X140970000Y-116084882D01*
X141248839Y-116057419D01*
X141516963Y-115976084D01*
X141764067Y-115844005D01*
X141980655Y-115666255D01*
X142158405Y-115449667D01*
X142240000Y-115297013D01*
X142321595Y-115449667D01*
X142499346Y-115666255D01*
X142715934Y-115844005D01*
X142963038Y-115976084D01*
X143231162Y-116057419D01*
X143510000Y-116084882D01*
X143788839Y-116057419D01*
X144056963Y-115976084D01*
X144304067Y-115844005D01*
X144520655Y-115666255D01*
X144698405Y-115449667D01*
X144780000Y-115297013D01*
X144861595Y-115449667D01*
X145039346Y-115666255D01*
X145255934Y-115844005D01*
X145503038Y-115976084D01*
X145771162Y-116057419D01*
X146050000Y-116084882D01*
X146328839Y-116057419D01*
X146596963Y-115976084D01*
X146844067Y-115844005D01*
X147060655Y-115666255D01*
X147238405Y-115449667D01*
X147320000Y-115297013D01*
X147401595Y-115449667D01*
X147579346Y-115666255D01*
X147795934Y-115844005D01*
X148043038Y-115976084D01*
X148311162Y-116057419D01*
X148590000Y-116084882D01*
X148868839Y-116057419D01*
X149136963Y-115976084D01*
X149384067Y-115844005D01*
X149600655Y-115666255D01*
X149778405Y-115449667D01*
X149910484Y-115202563D01*
X149991819Y-114934438D01*
X150012400Y-114725474D01*
X150012400Y-113874525D01*
X149991819Y-113665561D01*
X149910484Y-113397437D01*
X149778405Y-113150333D01*
X149600654Y-112933745D01*
X149384066Y-112755995D01*
X149136962Y-112623916D01*
X148868838Y-112542581D01*
X148590000Y-112515118D01*
X148311161Y-112542581D01*
X148043037Y-112623916D01*
X147795933Y-112755995D01*
X147579345Y-112933746D01*
X147401595Y-113150334D01*
X147320000Y-113302988D01*
X147238405Y-113150333D01*
X147060654Y-112933745D01*
X146844066Y-112755995D01*
X146596962Y-112623916D01*
X146328838Y-112542581D01*
X146050000Y-112515118D01*
X145771161Y-112542581D01*
X145503037Y-112623916D01*
X145255933Y-112755995D01*
X145039345Y-112933746D01*
X144861595Y-113150334D01*
X144780000Y-113302988D01*
X144698405Y-113150333D01*
X144520654Y-112933745D01*
X144304066Y-112755995D01*
X144056962Y-112623916D01*
X143788838Y-112542581D01*
X143510000Y-112515118D01*
X143231161Y-112542581D01*
X142963037Y-112623916D01*
X142715933Y-112755995D01*
X142499345Y-112933746D01*
X142321595Y-113150334D01*
X142240000Y-113302988D01*
X142158405Y-113150333D01*
X141980654Y-112933745D01*
X141764066Y-112755995D01*
X141516962Y-112623916D01*
X141248838Y-112542581D01*
X140970000Y-112515118D01*
X140691161Y-112542581D01*
X140423037Y-112623916D01*
X140175933Y-112755995D01*
X139959345Y-112933746D01*
X139781595Y-113150334D01*
X139700000Y-113302988D01*
X139618405Y-113150333D01*
X139440654Y-112933745D01*
X139224066Y-112755995D01*
X138976962Y-112623916D01*
X138708838Y-112542581D01*
X138430000Y-112515118D01*
X138151161Y-112542581D01*
X137883037Y-112623916D01*
X137635933Y-112755995D01*
X137419345Y-112933746D01*
X137241595Y-113150334D01*
X137160000Y-113302988D01*
X137078405Y-113150333D01*
X136900654Y-112933745D01*
X136684066Y-112755995D01*
X136436962Y-112623916D01*
X136168838Y-112542581D01*
X135890000Y-112515118D01*
X135611161Y-112542581D01*
X135343037Y-112623916D01*
X135095933Y-112755995D01*
X134879345Y-112933746D01*
X134701595Y-113150334D01*
X134620000Y-113302988D01*
X134538405Y-113150333D01*
X134360654Y-112933745D01*
X134144066Y-112755995D01*
X133896962Y-112623916D01*
X133628838Y-112542581D01*
X133350000Y-112515118D01*
X133071161Y-112542581D01*
X132803037Y-112623916D01*
X132555933Y-112755995D01*
X132339345Y-112933746D01*
X132161595Y-113150334D01*
X132076606Y-113309338D01*
X131998405Y-113163033D01*
X131820654Y-112946445D01*
X131604066Y-112768695D01*
X131356962Y-112636616D01*
X131088838Y-112555281D01*
X130810000Y-112527818D01*
X130531161Y-112555281D01*
X130263037Y-112636616D01*
X130015933Y-112768695D01*
X129799345Y-112946446D01*
X129621595Y-113163034D01*
X129489516Y-113410138D01*
X129408181Y-113678262D01*
X129387600Y-113887226D01*
X127858700Y-113887226D01*
X127858700Y-112788600D01*
X127907498Y-112788600D01*
X127957400Y-112793515D01*
X128007302Y-112788600D01*
X128156571Y-112773898D01*
X128348087Y-112715802D01*
X128524590Y-112621460D01*
X128679296Y-112494496D01*
X128711112Y-112455728D01*
X134628175Y-106538665D01*
X148425000Y-106538665D01*
X148425000Y-106821335D01*
X148480147Y-107098574D01*
X148588320Y-107359727D01*
X148745363Y-107594759D01*
X148945241Y-107794637D01*
X149105843Y-107901948D01*
X149108676Y-107930705D01*
X149110998Y-107954285D01*
X149154454Y-108097546D01*
X149225026Y-108229576D01*
X149296201Y-108316302D01*
X149320000Y-108345301D01*
X149348998Y-108369099D01*
X153510705Y-112530807D01*
X153391161Y-112542581D01*
X153123037Y-112623916D01*
X152875933Y-112755995D01*
X152659345Y-112933746D01*
X152481595Y-113150334D01*
X152349516Y-113397438D01*
X152268181Y-113665562D01*
X152247600Y-113874526D01*
X152247600Y-114725475D01*
X152268181Y-114934439D01*
X152349516Y-115202563D01*
X152481595Y-115449667D01*
X152659346Y-115666255D01*
X152875934Y-115844005D01*
X153123038Y-115976084D01*
X153391162Y-116057419D01*
X153670000Y-116084882D01*
X153948839Y-116057419D01*
X154216963Y-115976084D01*
X154464067Y-115844005D01*
X154680655Y-115666255D01*
X154858405Y-115449667D01*
X154940000Y-115297013D01*
X155021595Y-115449667D01*
X155199346Y-115666255D01*
X155415934Y-115844005D01*
X155663038Y-115976084D01*
X155931162Y-116057419D01*
X156210000Y-116084882D01*
X156488839Y-116057419D01*
X156756963Y-115976084D01*
X157004067Y-115844005D01*
X157220655Y-115666255D01*
X157398405Y-115449667D01*
X157480000Y-115297013D01*
X157561595Y-115449667D01*
X157739346Y-115666255D01*
X157955934Y-115844005D01*
X158203038Y-115976084D01*
X158471162Y-116057419D01*
X158750000Y-116084882D01*
X159028839Y-116057419D01*
X159296963Y-115976084D01*
X159544067Y-115844005D01*
X159760655Y-115666255D01*
X159938405Y-115449667D01*
X160020000Y-115297013D01*
X160101595Y-115449667D01*
X160279346Y-115666255D01*
X160495934Y-115844005D01*
X160743038Y-115976084D01*
X161011162Y-116057419D01*
X161290000Y-116084882D01*
X161568839Y-116057419D01*
X161836963Y-115976084D01*
X162084067Y-115844005D01*
X162300655Y-115666255D01*
X162478405Y-115449667D01*
X162560000Y-115297013D01*
X162641595Y-115449667D01*
X162819346Y-115666255D01*
X163035934Y-115844005D01*
X163283038Y-115976084D01*
X163551162Y-116057419D01*
X163830000Y-116084882D01*
X164108839Y-116057419D01*
X164376963Y-115976084D01*
X164624067Y-115844005D01*
X164840655Y-115666255D01*
X165018405Y-115449667D01*
X165100000Y-115297013D01*
X165181595Y-115449667D01*
X165359346Y-115666255D01*
X165575934Y-115844005D01*
X165823038Y-115976084D01*
X166091162Y-116057419D01*
X166370000Y-116084882D01*
X166648839Y-116057419D01*
X166916963Y-115976084D01*
X167164067Y-115844005D01*
X167380655Y-115666255D01*
X167558405Y-115449667D01*
X167640000Y-115297013D01*
X167721595Y-115449667D01*
X167899346Y-115666255D01*
X168115934Y-115844005D01*
X168363038Y-115976084D01*
X168631162Y-116057419D01*
X168910000Y-116084882D01*
X169188839Y-116057419D01*
X169456963Y-115976084D01*
X169704067Y-115844005D01*
X169920655Y-115666255D01*
X170098405Y-115449667D01*
X170180000Y-115297013D01*
X170261595Y-115449667D01*
X170439346Y-115666255D01*
X170655934Y-115844005D01*
X170903038Y-115976084D01*
X171171162Y-116057419D01*
X171450000Y-116084882D01*
X171728839Y-116057419D01*
X171996963Y-115976084D01*
X172244067Y-115844005D01*
X172460655Y-115666255D01*
X172638405Y-115449667D01*
X172770484Y-115202563D01*
X172851819Y-114934438D01*
X172872400Y-114725474D01*
X172872400Y-114020777D01*
X173695000Y-114020777D01*
X173695000Y-114579223D01*
X173803948Y-115126939D01*
X174017656Y-115642876D01*
X174327912Y-116107207D01*
X174722793Y-116502088D01*
X175187124Y-116812344D01*
X175703061Y-117026052D01*
X176250777Y-117135000D01*
X176809223Y-117135000D01*
X177356939Y-117026052D01*
X177872876Y-116812344D01*
X178337207Y-116502088D01*
X178732088Y-116107207D01*
X179042344Y-115642876D01*
X179256052Y-115126939D01*
X179365000Y-114579223D01*
X179365000Y-114020777D01*
X179256052Y-113473061D01*
X179042344Y-112957124D01*
X178732088Y-112492793D01*
X178337207Y-112097912D01*
X177872876Y-111787656D01*
X177356939Y-111573948D01*
X176809223Y-111465000D01*
X176250777Y-111465000D01*
X175703061Y-111573948D01*
X175187124Y-111787656D01*
X174722793Y-112097912D01*
X174327912Y-112492793D01*
X174017656Y-112957124D01*
X173803948Y-113473061D01*
X173695000Y-114020777D01*
X172872400Y-114020777D01*
X172872400Y-113874525D01*
X172851819Y-113665561D01*
X172770484Y-113397437D01*
X172638405Y-113150333D01*
X172460654Y-112933745D01*
X172244066Y-112755995D01*
X172210000Y-112737786D01*
X172210000Y-111652625D01*
X172213676Y-111615300D01*
X172210000Y-111577975D01*
X172210000Y-111577967D01*
X172199003Y-111466314D01*
X172155546Y-111323053D01*
X172084974Y-111191024D01*
X171990001Y-111075299D01*
X171961003Y-111051501D01*
X168629449Y-107719947D01*
X168754637Y-107594759D01*
X168911680Y-107359727D01*
X169019853Y-107098574D01*
X169075000Y-106821335D01*
X169075000Y-106538665D01*
X169019853Y-106261426D01*
X168911680Y-106000273D01*
X168754637Y-105765241D01*
X168554759Y-105565363D01*
X168319727Y-105408320D01*
X168058574Y-105300147D01*
X167781335Y-105245000D01*
X167498665Y-105245000D01*
X167221426Y-105300147D01*
X166960273Y-105408320D01*
X166725241Y-105565363D01*
X166525363Y-105765241D01*
X166370000Y-105997759D01*
X166214637Y-105765241D01*
X166014759Y-105565363D01*
X165779727Y-105408320D01*
X165518574Y-105300147D01*
X165241335Y-105245000D01*
X164958665Y-105245000D01*
X164681426Y-105300147D01*
X164420273Y-105408320D01*
X164185241Y-105565363D01*
X163985363Y-105765241D01*
X163830000Y-105997759D01*
X163674637Y-105765241D01*
X163474759Y-105565363D01*
X163239727Y-105408320D01*
X162978574Y-105300147D01*
X162701335Y-105245000D01*
X162418665Y-105245000D01*
X162141426Y-105300147D01*
X161880273Y-105408320D01*
X161645241Y-105565363D01*
X161445363Y-105765241D01*
X161290000Y-105997759D01*
X161134637Y-105765241D01*
X160934759Y-105565363D01*
X160699727Y-105408320D01*
X160438574Y-105300147D01*
X160161335Y-105245000D01*
X159878665Y-105245000D01*
X159601426Y-105300147D01*
X159340273Y-105408320D01*
X159105241Y-105565363D01*
X158905363Y-105765241D01*
X158750000Y-105997759D01*
X158594637Y-105765241D01*
X158394759Y-105565363D01*
X158159727Y-105408320D01*
X157898574Y-105300147D01*
X157621335Y-105245000D01*
X157338665Y-105245000D01*
X157061426Y-105300147D01*
X156800273Y-105408320D01*
X156565241Y-105565363D01*
X156365363Y-105765241D01*
X156210000Y-105997759D01*
X156054637Y-105765241D01*
X155854759Y-105565363D01*
X155619727Y-105408320D01*
X155358574Y-105300147D01*
X155081335Y-105245000D01*
X154798665Y-105245000D01*
X154521426Y-105300147D01*
X154260273Y-105408320D01*
X154025241Y-105565363D01*
X153825363Y-105765241D01*
X153670000Y-105997759D01*
X153514637Y-105765241D01*
X153314759Y-105565363D01*
X153079727Y-105408320D01*
X152818574Y-105300147D01*
X152541335Y-105245000D01*
X152258665Y-105245000D01*
X151981426Y-105300147D01*
X151720273Y-105408320D01*
X151485241Y-105565363D01*
X151285363Y-105765241D01*
X151130000Y-105997759D01*
X150974637Y-105765241D01*
X150774759Y-105565363D01*
X150539727Y-105408320D01*
X150278574Y-105300147D01*
X150001335Y-105245000D01*
X149718665Y-105245000D01*
X149441426Y-105300147D01*
X149180273Y-105408320D01*
X148945241Y-105565363D01*
X148745363Y-105765241D01*
X148588320Y-106000273D01*
X148480147Y-106261426D01*
X148425000Y-106538665D01*
X134628175Y-106538665D01*
X144113133Y-97053708D01*
X144151896Y-97021896D01*
X144278860Y-96867190D01*
X144373202Y-96690687D01*
X144380069Y-96668050D01*
X144474180Y-96639502D01*
X144584494Y-96580537D01*
X144681185Y-96501185D01*
X144760537Y-96404494D01*
X144819502Y-96294180D01*
X144828050Y-96266000D01*
X147414798Y-96266000D01*
X147464700Y-96270915D01*
X147514602Y-96266000D01*
X147663871Y-96251298D01*
X147855387Y-96193202D01*
X148031890Y-96098860D01*
X148186596Y-95971896D01*
X148218413Y-95933127D01*
X148781106Y-95370434D01*
X149012178Y-95139363D01*
X149180273Y-95251680D01*
X149441426Y-95359853D01*
X149718665Y-95415000D01*
X150001335Y-95415000D01*
X150278574Y-95359853D01*
X150539727Y-95251680D01*
X150774759Y-95094637D01*
X150974637Y-94894759D01*
X151131680Y-94659727D01*
X151136067Y-94649135D01*
X151247615Y-94835131D01*
X151436586Y-95043519D01*
X151662580Y-95211037D01*
X151916913Y-95331246D01*
X152050961Y-95371904D01*
X152273000Y-95249915D01*
X152273000Y-94107000D01*
X152253000Y-94107000D01*
X152253000Y-93853000D01*
X152273000Y-93853000D01*
X152273000Y-92710085D01*
X152050961Y-92588096D01*
X151916913Y-92628754D01*
X151662580Y-92748963D01*
X151436586Y-92916481D01*
X151247615Y-93124869D01*
X151136067Y-93310865D01*
X151131680Y-93300273D01*
X150974637Y-93065241D01*
X150774759Y-92865363D01*
X150539727Y-92708320D01*
X150278574Y-92600147D01*
X150001335Y-92545000D01*
X149718665Y-92545000D01*
X149441426Y-92600147D01*
X149180273Y-92708320D01*
X148945241Y-92865363D01*
X148846604Y-92964000D01*
X148784593Y-92964000D01*
X148734699Y-92959086D01*
X148684805Y-92964000D01*
X148684798Y-92964000D01*
X148535529Y-92978702D01*
X148344013Y-93036798D01*
X148167510Y-93131140D01*
X148012804Y-93258104D01*
X147980992Y-93296867D01*
X147344265Y-93933594D01*
X147344266Y-93933594D01*
X147043860Y-94234000D01*
X144828050Y-94234000D01*
X144819502Y-94205820D01*
X144760537Y-94095506D01*
X144681185Y-93998815D01*
X144584494Y-93919463D01*
X144474180Y-93860498D01*
X144380069Y-93831950D01*
X144373202Y-93809313D01*
X144278860Y-93632810D01*
X144151896Y-93478104D01*
X144113133Y-93446292D01*
X136343712Y-85676872D01*
X136311896Y-85638104D01*
X136157190Y-85511140D01*
X135980687Y-85416798D01*
X135899400Y-85392140D01*
X138633806Y-82657735D01*
X138655820Y-82669502D01*
X138775518Y-82705812D01*
X138900000Y-82718072D01*
X140500000Y-82718072D01*
X140624482Y-82705812D01*
X140744180Y-82669502D01*
X140854494Y-82610537D01*
X140951185Y-82531185D01*
X141030537Y-82434494D01*
X141089502Y-82324180D01*
X141105117Y-82272702D01*
X143886903Y-82272702D01*
X143958486Y-82516671D01*
X144213996Y-82637571D01*
X144488184Y-82706300D01*
X144770512Y-82720217D01*
X145050130Y-82678787D01*
X145316292Y-82583603D01*
X145441514Y-82516671D01*
X145513097Y-82272702D01*
X144700000Y-81459605D01*
X143886903Y-82272702D01*
X141105117Y-82272702D01*
X141125812Y-82204482D01*
X141138072Y-82080000D01*
X141138072Y-81350512D01*
X143259783Y-81350512D01*
X143301213Y-81630130D01*
X143396397Y-81896292D01*
X143463329Y-82021514D01*
X143707298Y-82093097D01*
X144520395Y-81280000D01*
X144879605Y-81280000D01*
X145692702Y-82093097D01*
X145936671Y-82021514D01*
X146057571Y-81766004D01*
X146080382Y-81675000D01*
X149616928Y-81675000D01*
X149616928Y-83425000D01*
X149629188Y-83549482D01*
X149665498Y-83669180D01*
X149724463Y-83779494D01*
X149803815Y-83876185D01*
X149900506Y-83955537D01*
X150010820Y-84014502D01*
X150130518Y-84050812D01*
X150255000Y-84063072D01*
X150295877Y-84063072D01*
X150304698Y-84092152D01*
X150387248Y-84246591D01*
X150415772Y-84281347D01*
X150498342Y-84381959D01*
X150532259Y-84409794D01*
X154051001Y-87928537D01*
X154051000Y-92848151D01*
X154025241Y-92865363D01*
X153825363Y-93065241D01*
X153668320Y-93300273D01*
X153663933Y-93310865D01*
X153552385Y-93124869D01*
X153363414Y-92916481D01*
X153137420Y-92748963D01*
X152883087Y-92628754D01*
X152749039Y-92588096D01*
X152527000Y-92710085D01*
X152527000Y-93853000D01*
X152547000Y-93853000D01*
X152547000Y-94107000D01*
X152527000Y-94107000D01*
X152527000Y-95249915D01*
X152749039Y-95371904D01*
X152883087Y-95331246D01*
X153137420Y-95211037D01*
X153363414Y-95043519D01*
X153552385Y-94835131D01*
X153663933Y-94649135D01*
X153668320Y-94659727D01*
X153825363Y-94894759D01*
X154025241Y-95094637D01*
X154260273Y-95251680D01*
X154521426Y-95359853D01*
X154798665Y-95415000D01*
X155081335Y-95415000D01*
X155358574Y-95359853D01*
X155619727Y-95251680D01*
X155854759Y-95094637D01*
X156054637Y-94894759D01*
X156210000Y-94662241D01*
X156365363Y-94894759D01*
X156565241Y-95094637D01*
X156800273Y-95251680D01*
X157061426Y-95359853D01*
X157338665Y-95415000D01*
X157621335Y-95415000D01*
X157898574Y-95359853D01*
X158159727Y-95251680D01*
X158394759Y-95094637D01*
X158594637Y-94894759D01*
X158750000Y-94662241D01*
X158905363Y-94894759D01*
X159105241Y-95094637D01*
X159340273Y-95251680D01*
X159601426Y-95359853D01*
X159878665Y-95415000D01*
X160161335Y-95415000D01*
X160438574Y-95359853D01*
X160699727Y-95251680D01*
X160934759Y-95094637D01*
X161134637Y-94894759D01*
X161290000Y-94662241D01*
X161445363Y-94894759D01*
X161645241Y-95094637D01*
X161880273Y-95251680D01*
X162141426Y-95359853D01*
X162418665Y-95415000D01*
X162701335Y-95415000D01*
X162978574Y-95359853D01*
X163239727Y-95251680D01*
X163474759Y-95094637D01*
X163674637Y-94894759D01*
X163830000Y-94662241D01*
X163985363Y-94894759D01*
X164185241Y-95094637D01*
X164420273Y-95251680D01*
X164681426Y-95359853D01*
X164958665Y-95415000D01*
X165241335Y-95415000D01*
X165518574Y-95359853D01*
X165779727Y-95251680D01*
X166014759Y-95094637D01*
X166213357Y-94896039D01*
X166214188Y-94904482D01*
X166250498Y-95024180D01*
X166309463Y-95134494D01*
X166388815Y-95231185D01*
X166485506Y-95310537D01*
X166595820Y-95369502D01*
X166715518Y-95405812D01*
X166840000Y-95418072D01*
X167354250Y-95415000D01*
X167513000Y-95256250D01*
X167513000Y-94107000D01*
X167767000Y-94107000D01*
X167767000Y-95256250D01*
X167925750Y-95415000D01*
X168440000Y-95418072D01*
X168564482Y-95405812D01*
X168684180Y-95369502D01*
X168794494Y-95310537D01*
X168891185Y-95231185D01*
X168970537Y-95134494D01*
X169029502Y-95024180D01*
X169065812Y-94904482D01*
X169078072Y-94780000D01*
X169075000Y-94265750D01*
X168916250Y-94107000D01*
X167767000Y-94107000D01*
X167513000Y-94107000D01*
X167493000Y-94107000D01*
X167493000Y-93853000D01*
X167513000Y-93853000D01*
X167513000Y-92703750D01*
X167767000Y-92703750D01*
X167767000Y-93853000D01*
X168916250Y-93853000D01*
X169075000Y-93694250D01*
X169078072Y-93180000D01*
X169065812Y-93055518D01*
X169029502Y-92935820D01*
X168970537Y-92825506D01*
X168891185Y-92728815D01*
X168794494Y-92649463D01*
X168684180Y-92590498D01*
X168564482Y-92554188D01*
X168440000Y-92541928D01*
X167925750Y-92545000D01*
X167767000Y-92703750D01*
X167513000Y-92703750D01*
X167354250Y-92545000D01*
X166840000Y-92541928D01*
X166715518Y-92554188D01*
X166595820Y-92590498D01*
X166485506Y-92649463D01*
X166388815Y-92728815D01*
X166309463Y-92825506D01*
X166250498Y-92935820D01*
X166214188Y-93055518D01*
X166213357Y-93063961D01*
X166014759Y-92865363D01*
X165779727Y-92708320D01*
X165518574Y-92600147D01*
X165241335Y-92545000D01*
X164958665Y-92545000D01*
X164681426Y-92600147D01*
X164420273Y-92708320D01*
X164185241Y-92865363D01*
X163985363Y-93065241D01*
X163830000Y-93297759D01*
X163674637Y-93065241D01*
X163474759Y-92865363D01*
X163449000Y-92848151D01*
X163449000Y-86523659D01*
X163453300Y-86479999D01*
X163449000Y-86436339D01*
X163449000Y-86436333D01*
X163436136Y-86305726D01*
X163436136Y-86305724D01*
X163385302Y-86138147D01*
X163365604Y-86101295D01*
X163302753Y-85983709D01*
X163191659Y-85848341D01*
X163157736Y-85820501D01*
X161015900Y-83678665D01*
X163665000Y-83678665D01*
X163665000Y-83961335D01*
X163720147Y-84238574D01*
X163828320Y-84499727D01*
X163985363Y-84734759D01*
X164185241Y-84934637D01*
X164420273Y-85091680D01*
X164681426Y-85199853D01*
X164958665Y-85255000D01*
X165241335Y-85255000D01*
X165518574Y-85199853D01*
X165779727Y-85091680D01*
X166014759Y-84934637D01*
X166136694Y-84812702D01*
X169286903Y-84812702D01*
X169358486Y-85056671D01*
X169613996Y-85177571D01*
X169888184Y-85246300D01*
X170170512Y-85260217D01*
X170450130Y-85218787D01*
X170716292Y-85123603D01*
X170841514Y-85056671D01*
X170913097Y-84812702D01*
X170100000Y-83999605D01*
X169286903Y-84812702D01*
X166136694Y-84812702D01*
X166214637Y-84734759D01*
X166371680Y-84499727D01*
X166479853Y-84238574D01*
X166535000Y-83961335D01*
X166535000Y-83890512D01*
X168659783Y-83890512D01*
X168701213Y-84170130D01*
X168796397Y-84436292D01*
X168863329Y-84561514D01*
X169107298Y-84633097D01*
X169920395Y-83820000D01*
X170279605Y-83820000D01*
X171092702Y-84633097D01*
X171336671Y-84561514D01*
X171457571Y-84306004D01*
X171526300Y-84031816D01*
X171540217Y-83749488D01*
X171498787Y-83469870D01*
X171403603Y-83203708D01*
X171336671Y-83078486D01*
X171092702Y-83006903D01*
X170279605Y-83820000D01*
X169920395Y-83820000D01*
X169107298Y-83006903D01*
X168863329Y-83078486D01*
X168742429Y-83333996D01*
X168673700Y-83608184D01*
X168659783Y-83890512D01*
X166535000Y-83890512D01*
X166535000Y-83678665D01*
X166479853Y-83401426D01*
X166371680Y-83140273D01*
X166214637Y-82905241D01*
X166136694Y-82827298D01*
X169286903Y-82827298D01*
X170100000Y-83640395D01*
X170913097Y-82827298D01*
X170841514Y-82583329D01*
X170586004Y-82462429D01*
X170311816Y-82393700D01*
X170029488Y-82379783D01*
X169749870Y-82421213D01*
X169483708Y-82516397D01*
X169358486Y-82583329D01*
X169286903Y-82827298D01*
X166136694Y-82827298D01*
X166014759Y-82705363D01*
X165779727Y-82548320D01*
X165518574Y-82440147D01*
X165241335Y-82385000D01*
X164958665Y-82385000D01*
X164681426Y-82440147D01*
X164420273Y-82548320D01*
X164185241Y-82705363D01*
X163985363Y-82905241D01*
X163828320Y-83140273D01*
X163720147Y-83401426D01*
X163665000Y-83678665D01*
X161015900Y-83678665D01*
X160122738Y-82785503D01*
X160140000Y-82698722D01*
X160140000Y-82401278D01*
X160081971Y-82109549D01*
X159968144Y-81834747D01*
X159802893Y-81587431D01*
X159592569Y-81377107D01*
X159345253Y-81211856D01*
X159070451Y-81098029D01*
X158778722Y-81040000D01*
X158481278Y-81040000D01*
X158189549Y-81098029D01*
X157914747Y-81211856D01*
X157667431Y-81377107D01*
X157457107Y-81587431D01*
X157380000Y-81702830D01*
X157302893Y-81587431D01*
X157092569Y-81377107D01*
X156845253Y-81211856D01*
X156570451Y-81098029D01*
X156278722Y-81040000D01*
X155981278Y-81040000D01*
X155689549Y-81098029D01*
X155414747Y-81211856D01*
X155167431Y-81377107D01*
X154957107Y-81587431D01*
X154880000Y-81702830D01*
X154802893Y-81587431D01*
X154592569Y-81377107D01*
X154345253Y-81211856D01*
X154070451Y-81098029D01*
X153778722Y-81040000D01*
X153481278Y-81040000D01*
X153189549Y-81098029D01*
X152914747Y-81211856D01*
X152667431Y-81377107D01*
X152598974Y-81445564D01*
X152594502Y-81430820D01*
X152535537Y-81320506D01*
X152456185Y-81223815D01*
X152359494Y-81144463D01*
X152249180Y-81085498D01*
X152129482Y-81049188D01*
X152005000Y-81036928D01*
X150255000Y-81036928D01*
X150130518Y-81049188D01*
X150010820Y-81085498D01*
X149900506Y-81144463D01*
X149803815Y-81223815D01*
X149724463Y-81320506D01*
X149665498Y-81430820D01*
X149629188Y-81550518D01*
X149616928Y-81675000D01*
X146080382Y-81675000D01*
X146126300Y-81491816D01*
X146140217Y-81209488D01*
X146098787Y-80929870D01*
X146003603Y-80663708D01*
X145936671Y-80538486D01*
X145692702Y-80466903D01*
X144879605Y-81280000D01*
X144520395Y-81280000D01*
X143707298Y-80466903D01*
X143463329Y-80538486D01*
X143342429Y-80793996D01*
X143273700Y-81068184D01*
X143259783Y-81350512D01*
X141138072Y-81350512D01*
X141138072Y-80480000D01*
X141125812Y-80355518D01*
X141105118Y-80287298D01*
X143886903Y-80287298D01*
X144700000Y-81100395D01*
X145513097Y-80287298D01*
X145441514Y-80043329D01*
X145186004Y-79922429D01*
X144911816Y-79853700D01*
X144629488Y-79839783D01*
X144349870Y-79881213D01*
X144083708Y-79976397D01*
X143958486Y-80043329D01*
X143886903Y-80287298D01*
X141105118Y-80287298D01*
X141089502Y-80235820D01*
X141030537Y-80125506D01*
X140951185Y-80028815D01*
X140854494Y-79949463D01*
X140744180Y-79890498D01*
X140624482Y-79854188D01*
X140500000Y-79841928D01*
X138900000Y-79841928D01*
X138775518Y-79854188D01*
X138655820Y-79890498D01*
X138545506Y-79949463D01*
X138448815Y-80028815D01*
X138369463Y-80125506D01*
X138310498Y-80235820D01*
X138289581Y-80304774D01*
X138184013Y-80336798D01*
X138007510Y-80431140D01*
X137852804Y-80558104D01*
X137820992Y-80596867D01*
X133792168Y-84625692D01*
X133753405Y-84657504D01*
X133626441Y-84812210D01*
X133569992Y-84917820D01*
X133558964Y-84938452D01*
X133491335Y-84925000D01*
X133208665Y-84925000D01*
X132931426Y-84980147D01*
X132670273Y-85088320D01*
X132435241Y-85245363D01*
X132235363Y-85445241D01*
X132078320Y-85680273D01*
X132073933Y-85690865D01*
X131962385Y-85504869D01*
X131773414Y-85296481D01*
X131547420Y-85128963D01*
X131293087Y-85008754D01*
X131159039Y-84968096D01*
X130937000Y-85090085D01*
X130937000Y-86233000D01*
X130957000Y-86233000D01*
X130957000Y-86487000D01*
X130937000Y-86487000D01*
X130937000Y-87629915D01*
X131159039Y-87751904D01*
X131293087Y-87711246D01*
X131547420Y-87591037D01*
X131773414Y-87423519D01*
X131962385Y-87215131D01*
X132073933Y-87029135D01*
X132078320Y-87039727D01*
X132235363Y-87274759D01*
X132435241Y-87474637D01*
X132670273Y-87631680D01*
X132931426Y-87739853D01*
X133208665Y-87795000D01*
X133491335Y-87795000D01*
X133768574Y-87739853D01*
X134029727Y-87631680D01*
X134264759Y-87474637D01*
X134363396Y-87376000D01*
X134425398Y-87376000D01*
X134475300Y-87380915D01*
X134525202Y-87376000D01*
X135169160Y-87376000D01*
X142030835Y-94237676D01*
X142004188Y-94325518D01*
X141991928Y-94450000D01*
X141991928Y-96050000D01*
X142004188Y-96174482D01*
X142030835Y-96262324D01*
X127536560Y-110756600D01*
X126892602Y-110756600D01*
X126842700Y-110751685D01*
X126792798Y-110756600D01*
X126643529Y-110771302D01*
X126452013Y-110829398D01*
X126275510Y-110923740D01*
X126120804Y-111050704D01*
X125993840Y-111205410D01*
X125899498Y-111381913D01*
X125841402Y-111573429D01*
X125821785Y-111772600D01*
X125826701Y-111822512D01*
X125826701Y-112537342D01*
X125730000Y-112527818D01*
X125451161Y-112555281D01*
X125183037Y-112636616D01*
X124935933Y-112768695D01*
X124719345Y-112946446D01*
X124541595Y-113163034D01*
X124462107Y-113311746D01*
X124455526Y-113295438D01*
X124302125Y-113061260D01*
X124105986Y-112861508D01*
X123874646Y-112703859D01*
X123616996Y-112594372D01*
X123537060Y-112577690D01*
X123317000Y-112699848D01*
X123063000Y-112699848D01*
X122842940Y-112577690D01*
X122763004Y-112594372D01*
X122505354Y-112703859D01*
X122274014Y-112861508D01*
X122077875Y-113061260D01*
X121924474Y-113295438D01*
X121920000Y-113306524D01*
X121915526Y-113295438D01*
X121762125Y-113061260D01*
X121565986Y-112861508D01*
X121334646Y-112703859D01*
X121076996Y-112594372D01*
X120997060Y-112577690D01*
X120777000Y-112699848D01*
X120523000Y-112699848D01*
X120302940Y-112577690D01*
X120223004Y-112594372D01*
X119965354Y-112703859D01*
X119734014Y-112861508D01*
X119537875Y-113061260D01*
X119384474Y-113295438D01*
X119377893Y-113311745D01*
X119298405Y-113163033D01*
X119120654Y-112946445D01*
X118904066Y-112768695D01*
X118656962Y-112636616D01*
X118388838Y-112555281D01*
X118110000Y-112527818D01*
X117831161Y-112555281D01*
X117563037Y-112636616D01*
X117510052Y-112664937D01*
X117508303Y-112663501D01*
X109639801Y-104795000D01*
X117786115Y-96648688D01*
X117968665Y-96685000D01*
X118251335Y-96685000D01*
X118528574Y-96629853D01*
X118789727Y-96521680D01*
X119024759Y-96364637D01*
X119224637Y-96164759D01*
X119381680Y-95929727D01*
X119489853Y-95668574D01*
X119545000Y-95391335D01*
X119545000Y-95108665D01*
X119489853Y-94831426D01*
X119381680Y-94570273D01*
X119224637Y-94335241D01*
X119024759Y-94135363D01*
X118789727Y-93978320D01*
X118528574Y-93870147D01*
X118251335Y-93815000D01*
X117968665Y-93815000D01*
X117691426Y-93870147D01*
X117430273Y-93978320D01*
X117195241Y-94135363D01*
X116995363Y-94335241D01*
X116838320Y-94570273D01*
X116730147Y-94831426D01*
X116675000Y-95108665D01*
X116675000Y-95391335D01*
X116711312Y-95573885D01*
X108565000Y-103720199D01*
X108142470Y-103297669D01*
X108190000Y-103058722D01*
X108190000Y-102761278D01*
X108131971Y-102469549D01*
X108018144Y-102194747D01*
X107852893Y-101947431D01*
X107642569Y-101737107D01*
X107527170Y-101660000D01*
X107642569Y-101582893D01*
X107852893Y-101372569D01*
X108018144Y-101125253D01*
X108131971Y-100850451D01*
X108190000Y-100558722D01*
X108190000Y-100261278D01*
X108131971Y-99969549D01*
X108018144Y-99694747D01*
X107852893Y-99447431D01*
X107642569Y-99237107D01*
X107527170Y-99160000D01*
X107642569Y-99082893D01*
X107852893Y-98872569D01*
X108018144Y-98625253D01*
X108131971Y-98350451D01*
X108190000Y-98058722D01*
X108190000Y-97761278D01*
X108131971Y-97469549D01*
X108018144Y-97194747D01*
X107852893Y-96947431D01*
X107642569Y-96737107D01*
X107527170Y-96660000D01*
X107642569Y-96582893D01*
X107852893Y-96372569D01*
X107939667Y-96242702D01*
X112296903Y-96242702D01*
X112368486Y-96486671D01*
X112623996Y-96607571D01*
X112898184Y-96676300D01*
X113180512Y-96690217D01*
X113460130Y-96648787D01*
X113726292Y-96553603D01*
X113851514Y-96486671D01*
X113923097Y-96242702D01*
X113110000Y-95429605D01*
X112296903Y-96242702D01*
X107939667Y-96242702D01*
X107988245Y-96170000D01*
X110664078Y-96170000D01*
X110701400Y-96173676D01*
X110738722Y-96170000D01*
X110738733Y-96170000D01*
X110850386Y-96159003D01*
X110993647Y-96115546D01*
X111125676Y-96044974D01*
X111241401Y-95950001D01*
X111265204Y-95920997D01*
X111695064Y-95491137D01*
X111711213Y-95600130D01*
X111806397Y-95866292D01*
X111873329Y-95991514D01*
X112117298Y-96063097D01*
X112930395Y-95250000D01*
X113289605Y-95250000D01*
X114102702Y-96063097D01*
X114346671Y-95991514D01*
X114467571Y-95736004D01*
X114536300Y-95461816D01*
X114550217Y-95179488D01*
X114508787Y-94899870D01*
X114413603Y-94633708D01*
X114346671Y-94508486D01*
X114102702Y-94436903D01*
X113289605Y-95250000D01*
X112930395Y-95250000D01*
X112916253Y-95235858D01*
X113095858Y-95056253D01*
X113110000Y-95070395D01*
X113923097Y-94257298D01*
X113851514Y-94013329D01*
X113596004Y-93892429D01*
X113354347Y-93831854D01*
X119723403Y-87462799D01*
X119735241Y-87474637D01*
X119970273Y-87631680D01*
X120231426Y-87739853D01*
X120508665Y-87795000D01*
X120791335Y-87795000D01*
X121068574Y-87739853D01*
X121329727Y-87631680D01*
X121564759Y-87474637D01*
X121764637Y-87274759D01*
X121920000Y-87042241D01*
X122075363Y-87274759D01*
X122275241Y-87474637D01*
X122510273Y-87631680D01*
X122771426Y-87739853D01*
X123048665Y-87795000D01*
X123331335Y-87795000D01*
X123608574Y-87739853D01*
X123869727Y-87631680D01*
X124104759Y-87474637D01*
X124304637Y-87274759D01*
X124460000Y-87042241D01*
X124615363Y-87274759D01*
X124815241Y-87474637D01*
X124841000Y-87491849D01*
X124841001Y-92626330D01*
X124836700Y-92670000D01*
X124853864Y-92844274D01*
X124904698Y-93011852D01*
X124952972Y-93102165D01*
X124987248Y-93166291D01*
X125098342Y-93301659D01*
X125132259Y-93329494D01*
X126832427Y-95029663D01*
X126639549Y-95068029D01*
X126364747Y-95181856D01*
X126117431Y-95347107D01*
X125907107Y-95557431D01*
X125830000Y-95672830D01*
X125752893Y-95557431D01*
X125542569Y-95347107D01*
X125295253Y-95181856D01*
X125020451Y-95068029D01*
X124728722Y-95010000D01*
X124431278Y-95010000D01*
X124139549Y-95068029D01*
X123864747Y-95181856D01*
X123617431Y-95347107D01*
X123407107Y-95557431D01*
X123241856Y-95804747D01*
X123128029Y-96079549D01*
X123070000Y-96371278D01*
X123070000Y-96668722D01*
X123128029Y-96960451D01*
X123241856Y-97235253D01*
X123407107Y-97482569D01*
X123617431Y-97692893D01*
X123864747Y-97858144D01*
X124139549Y-97971971D01*
X124431278Y-98030000D01*
X124728722Y-98030000D01*
X125020451Y-97971971D01*
X125295253Y-97858144D01*
X125542569Y-97692893D01*
X125752893Y-97482569D01*
X125830000Y-97367170D01*
X125907107Y-97482569D01*
X126117431Y-97692893D01*
X126364747Y-97858144D01*
X126639549Y-97971971D01*
X126931278Y-98030000D01*
X127228722Y-98030000D01*
X127520451Y-97971971D01*
X127795253Y-97858144D01*
X128042569Y-97692893D01*
X128252893Y-97482569D01*
X128330000Y-97367170D01*
X128407107Y-97482569D01*
X128617431Y-97692893D01*
X128864747Y-97858144D01*
X129139549Y-97971971D01*
X129431278Y-98030000D01*
X129728722Y-98030000D01*
X130020451Y-97971971D01*
X130295253Y-97858144D01*
X130542569Y-97692893D01*
X130611026Y-97624436D01*
X130615498Y-97639180D01*
X130674463Y-97749494D01*
X130753815Y-97846185D01*
X130850506Y-97925537D01*
X130960820Y-97984502D01*
X131080518Y-98020812D01*
X131205000Y-98033072D01*
X132955000Y-98033072D01*
X133079482Y-98020812D01*
X133199180Y-97984502D01*
X133309494Y-97925537D01*
X133406185Y-97846185D01*
X133485537Y-97749494D01*
X133544502Y-97639180D01*
X133580812Y-97519482D01*
X133593072Y-97395000D01*
X133593072Y-96242702D01*
X137616903Y-96242702D01*
X137688486Y-96486671D01*
X137943996Y-96607571D01*
X138218184Y-96676300D01*
X138500512Y-96690217D01*
X138780130Y-96648787D01*
X139046292Y-96553603D01*
X139171514Y-96486671D01*
X139243097Y-96242702D01*
X138430000Y-95429605D01*
X137616903Y-96242702D01*
X133593072Y-96242702D01*
X133593072Y-95645000D01*
X133580812Y-95520518D01*
X133544502Y-95400820D01*
X133501576Y-95320512D01*
X136989783Y-95320512D01*
X137031213Y-95600130D01*
X137126397Y-95866292D01*
X137193329Y-95991514D01*
X137437298Y-96063097D01*
X138250395Y-95250000D01*
X138609605Y-95250000D01*
X139422702Y-96063097D01*
X139666671Y-95991514D01*
X139787571Y-95736004D01*
X139856300Y-95461816D01*
X139870217Y-95179488D01*
X139828787Y-94899870D01*
X139733603Y-94633708D01*
X139666671Y-94508486D01*
X139422702Y-94436903D01*
X138609605Y-95250000D01*
X138250395Y-95250000D01*
X137437298Y-94436903D01*
X137193329Y-94508486D01*
X137072429Y-94763996D01*
X137003700Y-95038184D01*
X136989783Y-95320512D01*
X133501576Y-95320512D01*
X133485537Y-95290506D01*
X133406185Y-95193815D01*
X133309494Y-95114463D01*
X133199180Y-95055498D01*
X133079482Y-95019188D01*
X132955000Y-95006928D01*
X132914124Y-95006928D01*
X132905303Y-94977849D01*
X132822753Y-94823409D01*
X132773994Y-94763996D01*
X132739495Y-94721959D01*
X132739494Y-94721958D01*
X132711659Y-94688041D01*
X132677742Y-94660206D01*
X132274834Y-94257298D01*
X137616903Y-94257298D01*
X138430000Y-95070395D01*
X139243097Y-94257298D01*
X139171514Y-94013329D01*
X138916004Y-93892429D01*
X138641816Y-93823700D01*
X138359488Y-93809783D01*
X138079870Y-93851213D01*
X137813708Y-93946397D01*
X137688486Y-94013329D01*
X137616903Y-94257298D01*
X132274834Y-94257298D01*
X129159000Y-91141465D01*
X129159000Y-87491849D01*
X129184759Y-87474637D01*
X129384637Y-87274759D01*
X129541680Y-87039727D01*
X129546067Y-87029135D01*
X129657615Y-87215131D01*
X129846586Y-87423519D01*
X130072580Y-87591037D01*
X130326913Y-87711246D01*
X130460961Y-87751904D01*
X130683000Y-87629915D01*
X130683000Y-86487000D01*
X130663000Y-86487000D01*
X130663000Y-86233000D01*
X130683000Y-86233000D01*
X130683000Y-85090085D01*
X130460961Y-84968096D01*
X130326913Y-85008754D01*
X130072580Y-85128963D01*
X129846586Y-85296481D01*
X129657615Y-85504869D01*
X129546067Y-85690865D01*
X129541680Y-85680273D01*
X129384637Y-85445241D01*
X129184759Y-85245363D01*
X128949727Y-85088320D01*
X128688574Y-84980147D01*
X128411335Y-84925000D01*
X128128665Y-84925000D01*
X127851426Y-84980147D01*
X127590273Y-85088320D01*
X127355241Y-85245363D01*
X127155363Y-85445241D01*
X127000000Y-85677759D01*
X126844637Y-85445241D01*
X126644759Y-85245363D01*
X126409727Y-85088320D01*
X126148574Y-84980147D01*
X125871335Y-84925000D01*
X125588665Y-84925000D01*
X125311426Y-84980147D01*
X125050273Y-85088320D01*
X124815241Y-85245363D01*
X124615363Y-85445241D01*
X124460000Y-85677759D01*
X124304637Y-85445241D01*
X124104759Y-85245363D01*
X123869727Y-85088320D01*
X123608574Y-84980147D01*
X123331335Y-84925000D01*
X123048665Y-84925000D01*
X122771426Y-84980147D01*
X122510273Y-85088320D01*
X122275241Y-85245363D01*
X122075363Y-85445241D01*
X121920000Y-85677759D01*
X121764637Y-85445241D01*
X121564759Y-85245363D01*
X121338272Y-85094030D01*
X121683202Y-84749100D01*
X122115478Y-84749100D01*
X122152800Y-84752776D01*
X122190122Y-84749100D01*
X122190133Y-84749100D01*
X122301786Y-84738103D01*
X122445047Y-84694646D01*
X122577076Y-84624074D01*
X122692801Y-84529101D01*
X122716604Y-84500097D01*
X132439332Y-74777370D01*
X132670273Y-74931680D01*
X132931426Y-75039853D01*
X133208665Y-75095000D01*
X133491335Y-75095000D01*
X133768574Y-75039853D01*
X134029727Y-74931680D01*
X134264759Y-74774637D01*
X134464637Y-74574759D01*
X134621680Y-74339727D01*
X134729853Y-74078574D01*
X134785000Y-73801335D01*
X134785000Y-73518665D01*
X134729853Y-73241426D01*
X134621680Y-72980273D01*
X134464637Y-72745241D01*
X134264759Y-72545363D01*
X134029727Y-72388320D01*
X133768574Y-72280147D01*
X133491335Y-72225000D01*
X133319801Y-72225000D01*
X137828303Y-67716499D01*
X137850198Y-67698531D01*
X137883038Y-67716084D01*
X138151162Y-67797419D01*
X138430000Y-67824882D01*
X138708839Y-67797419D01*
X138976963Y-67716084D01*
X139224067Y-67584005D01*
X139440655Y-67406255D01*
X139618405Y-67189667D01*
X139700000Y-67037013D01*
X139781595Y-67189667D01*
X139959346Y-67406255D01*
X140175934Y-67584005D01*
X140423038Y-67716084D01*
X140691162Y-67797419D01*
X140970000Y-67824882D01*
X141248839Y-67797419D01*
X141516963Y-67716084D01*
X141764067Y-67584005D01*
X141980655Y-67406255D01*
X142158405Y-67189667D01*
X142236606Y-67043363D01*
X142321595Y-67202367D01*
X142499346Y-67418955D01*
X142715934Y-67596705D01*
X142963038Y-67728784D01*
X143231162Y-67810119D01*
X143510000Y-67837582D01*
X143788839Y-67810119D01*
X144056963Y-67728784D01*
X144304067Y-67596705D01*
X144520655Y-67418955D01*
X144698405Y-67202367D01*
X144830484Y-66955263D01*
X144911819Y-66687138D01*
X144932400Y-66478174D01*
X144932400Y-65627225D01*
X144931150Y-65614526D01*
X147167600Y-65614526D01*
X147167600Y-66465475D01*
X147188181Y-66674439D01*
X147269516Y-66942563D01*
X147401595Y-67189667D01*
X147579346Y-67406255D01*
X147795934Y-67584005D01*
X148043038Y-67716084D01*
X148311162Y-67797419D01*
X148590000Y-67824882D01*
X148868839Y-67797419D01*
X149136963Y-67716084D01*
X149384067Y-67584005D01*
X149600655Y-67406255D01*
X149778405Y-67189667D01*
X149860000Y-67037013D01*
X149941595Y-67189667D01*
X150119346Y-67406255D01*
X150335934Y-67584005D01*
X150583038Y-67716084D01*
X150851162Y-67797419D01*
X151130000Y-67824882D01*
X151408839Y-67797419D01*
X151676963Y-67716084D01*
X151924067Y-67584005D01*
X152140655Y-67406255D01*
X152318405Y-67189667D01*
X152400000Y-67037013D01*
X152481595Y-67189667D01*
X152659346Y-67406255D01*
X152875934Y-67584005D01*
X153123038Y-67716084D01*
X153391162Y-67797419D01*
X153670000Y-67824882D01*
X153948839Y-67797419D01*
X154216963Y-67716084D01*
X154464067Y-67584005D01*
X154680655Y-67406255D01*
X154858405Y-67189667D01*
X154940000Y-67037013D01*
X155021595Y-67189667D01*
X155199346Y-67406255D01*
X155415934Y-67584005D01*
X155663038Y-67716084D01*
X155931162Y-67797419D01*
X156210000Y-67824882D01*
X156488839Y-67797419D01*
X156756963Y-67716084D01*
X157004067Y-67584005D01*
X157220655Y-67406255D01*
X157398405Y-67189667D01*
X157480000Y-67037013D01*
X157561595Y-67189667D01*
X157739346Y-67406255D01*
X157955934Y-67584005D01*
X158203038Y-67716084D01*
X158471162Y-67797419D01*
X158750000Y-67824882D01*
X159028839Y-67797419D01*
X159296963Y-67716084D01*
X159544067Y-67584005D01*
X159760655Y-67406255D01*
X159938405Y-67189667D01*
X160020000Y-67037013D01*
X160101595Y-67189667D01*
X160279346Y-67406255D01*
X160495934Y-67584005D01*
X160743038Y-67716084D01*
X161011162Y-67797419D01*
X161290000Y-67824882D01*
X161568839Y-67797419D01*
X161836963Y-67716084D01*
X162084067Y-67584005D01*
X162300655Y-67406255D01*
X162478405Y-67189667D01*
X162556606Y-67043363D01*
X162641595Y-67202367D01*
X162819346Y-67418955D01*
X163035934Y-67596705D01*
X163283038Y-67728784D01*
X163551162Y-67810119D01*
X163830000Y-67837582D01*
X164108839Y-67810119D01*
X164376963Y-67728784D01*
X164624067Y-67596705D01*
X164840655Y-67418955D01*
X165018405Y-67202367D01*
X165100000Y-67049713D01*
X165181595Y-67202367D01*
X165359346Y-67418955D01*
X165575934Y-67596705D01*
X165823038Y-67728784D01*
X166091162Y-67810119D01*
X166370000Y-67837582D01*
X166648839Y-67810119D01*
X166916963Y-67728784D01*
X167164067Y-67596705D01*
X167380655Y-67418955D01*
X167558405Y-67202367D01*
X167577832Y-67166021D01*
X167667656Y-67382876D01*
X167977912Y-67847207D01*
X168372793Y-68242088D01*
X168837124Y-68552344D01*
X169353061Y-68766052D01*
X169900777Y-68875000D01*
X170459223Y-68875000D01*
X171006939Y-68766052D01*
X171522876Y-68552344D01*
X171987207Y-68242088D01*
X172382088Y-67847207D01*
X172692344Y-67382876D01*
X172886095Y-66915121D01*
X172904880Y-66943235D01*
X173099465Y-67137820D01*
X173328273Y-67290705D01*
X173405515Y-67322700D01*
X173328273Y-67354695D01*
X173099465Y-67507580D01*
X172904880Y-67702165D01*
X172751995Y-67930973D01*
X172646686Y-68185210D01*
X172593000Y-68455108D01*
X172593000Y-68730292D01*
X172646686Y-69000190D01*
X172751995Y-69254427D01*
X172904880Y-69483235D01*
X173099465Y-69677820D01*
X173328273Y-69830705D01*
X173405515Y-69862700D01*
X173328273Y-69894695D01*
X173099465Y-70047580D01*
X172904880Y-70242165D01*
X172751995Y-70470973D01*
X172646686Y-70725210D01*
X172593000Y-70995108D01*
X172593000Y-71270292D01*
X172646686Y-71540190D01*
X172751995Y-71794427D01*
X172904880Y-72023235D01*
X173099465Y-72217820D01*
X173328273Y-72370705D01*
X173405515Y-72402700D01*
X173328273Y-72434695D01*
X173099465Y-72587580D01*
X172904880Y-72782165D01*
X172751995Y-73010973D01*
X172646686Y-73265210D01*
X172593000Y-73535108D01*
X172593000Y-73810292D01*
X172646686Y-74080190D01*
X172751995Y-74334427D01*
X172904880Y-74563235D01*
X173099465Y-74757820D01*
X173328273Y-74910705D01*
X173405515Y-74942700D01*
X173328273Y-74974695D01*
X173099465Y-75127580D01*
X172904880Y-75322165D01*
X172751995Y-75550973D01*
X172646686Y-75805210D01*
X172593000Y-76075108D01*
X172593000Y-76350292D01*
X172646686Y-76620190D01*
X172751995Y-76874427D01*
X172904880Y-77103235D01*
X173099465Y-77297820D01*
X173328273Y-77450705D01*
X173405515Y-77482700D01*
X173328273Y-77514695D01*
X173099465Y-77667580D01*
X172904880Y-77862165D01*
X172751995Y-78090973D01*
X172646686Y-78345210D01*
X172593000Y-78615108D01*
X172593000Y-78890292D01*
X172646686Y-79160190D01*
X172751995Y-79414427D01*
X172904880Y-79643235D01*
X173099465Y-79837820D01*
X173328273Y-79990705D01*
X173405515Y-80022700D01*
X173328273Y-80054695D01*
X173099465Y-80207580D01*
X172904880Y-80402165D01*
X172751995Y-80630973D01*
X172646686Y-80885210D01*
X172593000Y-81155108D01*
X172593000Y-81430292D01*
X172646686Y-81700190D01*
X172751995Y-81954427D01*
X172904880Y-82183235D01*
X173099465Y-82377820D01*
X173328273Y-82530705D01*
X173405515Y-82562700D01*
X173328273Y-82594695D01*
X173099465Y-82747580D01*
X172904880Y-82942165D01*
X172751995Y-83170973D01*
X172646686Y-83425210D01*
X172593000Y-83695108D01*
X172593000Y-83970292D01*
X172646686Y-84240190D01*
X172751995Y-84494427D01*
X172904880Y-84723235D01*
X173099465Y-84917820D01*
X173328273Y-85070705D01*
X173405515Y-85102700D01*
X173328273Y-85134695D01*
X173099465Y-85287580D01*
X172904880Y-85482165D01*
X172751995Y-85710973D01*
X172646686Y-85965210D01*
X172593000Y-86235108D01*
X172593000Y-86510292D01*
X172646686Y-86780190D01*
X172751995Y-87034427D01*
X172904880Y-87263235D01*
X173099465Y-87457820D01*
X173328273Y-87610705D01*
X173405515Y-87642700D01*
X173328273Y-87674695D01*
X173099465Y-87827580D01*
X172904880Y-88022165D01*
X172751995Y-88250973D01*
X172646686Y-88505210D01*
X172593000Y-88775108D01*
X172593000Y-89050292D01*
X172646686Y-89320190D01*
X172751995Y-89574427D01*
X172904880Y-89803235D01*
X173099465Y-89997820D01*
X173328273Y-90150705D01*
X173405515Y-90182700D01*
X173328273Y-90214695D01*
X173099465Y-90367580D01*
X172904880Y-90562165D01*
X172751995Y-90790973D01*
X172646686Y-91045210D01*
X172593000Y-91315108D01*
X172593000Y-91590292D01*
X172646686Y-91860190D01*
X172751995Y-92114427D01*
X172904880Y-92343235D01*
X173099465Y-92537820D01*
X173328273Y-92690705D01*
X173405515Y-92722700D01*
X173328273Y-92754695D01*
X173099465Y-92907580D01*
X172904880Y-93102165D01*
X172751995Y-93330973D01*
X172646686Y-93585210D01*
X172593000Y-93855108D01*
X172593000Y-94130292D01*
X172646686Y-94400190D01*
X172751995Y-94654427D01*
X172904880Y-94883235D01*
X173099465Y-95077820D01*
X173328273Y-95230705D01*
X173405515Y-95262700D01*
X173328273Y-95294695D01*
X173099465Y-95447580D01*
X172904880Y-95642165D01*
X172751995Y-95870973D01*
X172646686Y-96125210D01*
X172593000Y-96395108D01*
X172593000Y-96670292D01*
X172646686Y-96940190D01*
X172751995Y-97194427D01*
X172904880Y-97423235D01*
X173099465Y-97617820D01*
X173328273Y-97770705D01*
X173405515Y-97802700D01*
X173328273Y-97834695D01*
X173099465Y-97987580D01*
X172904880Y-98182165D01*
X172751995Y-98410973D01*
X172646686Y-98665210D01*
X172593000Y-98935108D01*
X172593000Y-99210292D01*
X172646686Y-99480190D01*
X172751995Y-99734427D01*
X172904880Y-99963235D01*
X173099465Y-100157820D01*
X173328273Y-100310705D01*
X173405515Y-100342700D01*
X173328273Y-100374695D01*
X173099465Y-100527580D01*
X172904880Y-100722165D01*
X172751995Y-100950973D01*
X172646686Y-101205210D01*
X172593000Y-101475108D01*
X172593000Y-101750292D01*
X172646686Y-102020190D01*
X172751995Y-102274427D01*
X172904880Y-102503235D01*
X173099465Y-102697820D01*
X173328273Y-102850705D01*
X173405515Y-102882700D01*
X173328273Y-102914695D01*
X173099465Y-103067580D01*
X172904880Y-103262165D01*
X172751995Y-103490973D01*
X172646686Y-103745210D01*
X172593000Y-104015108D01*
X172593000Y-104290292D01*
X172646686Y-104560190D01*
X172751995Y-104814427D01*
X172904880Y-105043235D01*
X173099465Y-105237820D01*
X173328273Y-105390705D01*
X173405515Y-105422700D01*
X173328273Y-105454695D01*
X173099465Y-105607580D01*
X172904880Y-105802165D01*
X172751995Y-106030973D01*
X172646686Y-106285210D01*
X172593000Y-106555108D01*
X172593000Y-106830292D01*
X172646686Y-107100190D01*
X172751995Y-107354427D01*
X172904880Y-107583235D01*
X173099465Y-107777820D01*
X173328273Y-107930705D01*
X173405515Y-107962700D01*
X173328273Y-107994695D01*
X173099465Y-108147580D01*
X172904880Y-108342165D01*
X172751995Y-108570973D01*
X172646686Y-108825210D01*
X172593000Y-109095108D01*
X172593000Y-109370292D01*
X172646686Y-109640190D01*
X172751995Y-109894427D01*
X172904880Y-110123235D01*
X173099465Y-110317820D01*
X173328273Y-110470705D01*
X173582510Y-110576014D01*
X173852408Y-110629700D01*
X174127592Y-110629700D01*
X174397490Y-110576014D01*
X174651727Y-110470705D01*
X174880535Y-110317820D01*
X175075120Y-110123235D01*
X175228005Y-109894427D01*
X175260000Y-109817185D01*
X175291995Y-109894427D01*
X175444880Y-110123235D01*
X175639465Y-110317820D01*
X175868273Y-110470705D01*
X176122510Y-110576014D01*
X176392408Y-110629700D01*
X176667592Y-110629700D01*
X176937490Y-110576014D01*
X177191727Y-110470705D01*
X177420535Y-110317820D01*
X177615120Y-110123235D01*
X177768005Y-109894427D01*
X177873314Y-109640190D01*
X177927000Y-109370292D01*
X177927000Y-109095108D01*
X177873314Y-108825210D01*
X177768005Y-108570973D01*
X177615120Y-108342165D01*
X177420535Y-108147580D01*
X177191727Y-107994695D01*
X177114485Y-107962700D01*
X177191727Y-107930705D01*
X177420535Y-107777820D01*
X177615120Y-107583235D01*
X177768005Y-107354427D01*
X177873314Y-107100190D01*
X177927000Y-106830292D01*
X177927000Y-106555108D01*
X177873314Y-106285210D01*
X177768005Y-106030973D01*
X177615120Y-105802165D01*
X177420535Y-105607580D01*
X177191727Y-105454695D01*
X177114485Y-105422700D01*
X177191727Y-105390705D01*
X177420535Y-105237820D01*
X177615120Y-105043235D01*
X177768005Y-104814427D01*
X177873314Y-104560190D01*
X177927000Y-104290292D01*
X177927000Y-104015108D01*
X177873314Y-103745210D01*
X177768005Y-103490973D01*
X177615120Y-103262165D01*
X177420535Y-103067580D01*
X177191727Y-102914695D01*
X177114485Y-102882700D01*
X177191727Y-102850705D01*
X177420535Y-102697820D01*
X177615120Y-102503235D01*
X177768005Y-102274427D01*
X177873314Y-102020190D01*
X177927000Y-101750292D01*
X177927000Y-101475108D01*
X177873314Y-101205210D01*
X177768005Y-100950973D01*
X177615120Y-100722165D01*
X177420535Y-100527580D01*
X177191727Y-100374695D01*
X177114485Y-100342700D01*
X177191727Y-100310705D01*
X177420535Y-100157820D01*
X177615120Y-99963235D01*
X177768005Y-99734427D01*
X177873314Y-99480190D01*
X177927000Y-99210292D01*
X177927000Y-98935108D01*
X177873314Y-98665210D01*
X177768005Y-98410973D01*
X177615120Y-98182165D01*
X177420535Y-97987580D01*
X177191727Y-97834695D01*
X177114485Y-97802700D01*
X177191727Y-97770705D01*
X177420535Y-97617820D01*
X177615120Y-97423235D01*
X177768005Y-97194427D01*
X177873314Y-96940190D01*
X177927000Y-96670292D01*
X177927000Y-96395108D01*
X177873314Y-96125210D01*
X177768005Y-95870973D01*
X177615120Y-95642165D01*
X177420535Y-95447580D01*
X177191727Y-95294695D01*
X177114485Y-95262700D01*
X177191727Y-95230705D01*
X177420535Y-95077820D01*
X177615120Y-94883235D01*
X177768005Y-94654427D01*
X177873314Y-94400190D01*
X177927000Y-94130292D01*
X177927000Y-93855108D01*
X177873314Y-93585210D01*
X177768005Y-93330973D01*
X177615120Y-93102165D01*
X177420535Y-92907580D01*
X177191727Y-92754695D01*
X177114485Y-92722700D01*
X177191727Y-92690705D01*
X177420535Y-92537820D01*
X177615120Y-92343235D01*
X177768005Y-92114427D01*
X177873314Y-91860190D01*
X177927000Y-91590292D01*
X177927000Y-91315108D01*
X177873314Y-91045210D01*
X177768005Y-90790973D01*
X177615120Y-90562165D01*
X177420535Y-90367580D01*
X177191727Y-90214695D01*
X177114485Y-90182700D01*
X177191727Y-90150705D01*
X177420535Y-89997820D01*
X177615120Y-89803235D01*
X177768005Y-89574427D01*
X177873314Y-89320190D01*
X177927000Y-89050292D01*
X177927000Y-88775108D01*
X177873314Y-88505210D01*
X177768005Y-88250973D01*
X177615120Y-88022165D01*
X177420535Y-87827580D01*
X177191727Y-87674695D01*
X177114485Y-87642700D01*
X177191727Y-87610705D01*
X177420535Y-87457820D01*
X177615120Y-87263235D01*
X177768005Y-87034427D01*
X177873314Y-86780190D01*
X177927000Y-86510292D01*
X177927000Y-86235108D01*
X177873314Y-85965210D01*
X177768005Y-85710973D01*
X177615120Y-85482165D01*
X177420535Y-85287580D01*
X177191727Y-85134695D01*
X177114485Y-85102700D01*
X177191727Y-85070705D01*
X177420535Y-84917820D01*
X177615120Y-84723235D01*
X177768005Y-84494427D01*
X177873314Y-84240190D01*
X177927000Y-83970292D01*
X177927000Y-83695108D01*
X177873314Y-83425210D01*
X177768005Y-83170973D01*
X177615120Y-82942165D01*
X177420535Y-82747580D01*
X177191727Y-82594695D01*
X177114485Y-82562700D01*
X177191727Y-82530705D01*
X177420535Y-82377820D01*
X177615120Y-82183235D01*
X177768005Y-81954427D01*
X177873314Y-81700190D01*
X177927000Y-81430292D01*
X177927000Y-81155108D01*
X177873314Y-80885210D01*
X177768005Y-80630973D01*
X177615120Y-80402165D01*
X177420535Y-80207580D01*
X177191727Y-80054695D01*
X177114485Y-80022700D01*
X177191727Y-79990705D01*
X177420535Y-79837820D01*
X177615120Y-79643235D01*
X177768005Y-79414427D01*
X177873314Y-79160190D01*
X177927000Y-78890292D01*
X177927000Y-78615108D01*
X177873314Y-78345210D01*
X177768005Y-78090973D01*
X177615120Y-77862165D01*
X177420535Y-77667580D01*
X177191727Y-77514695D01*
X177114485Y-77482700D01*
X177191727Y-77450705D01*
X177420535Y-77297820D01*
X177615120Y-77103235D01*
X177768005Y-76874427D01*
X177873314Y-76620190D01*
X177927000Y-76350292D01*
X177927000Y-76075108D01*
X177873314Y-75805210D01*
X177768005Y-75550973D01*
X177615120Y-75322165D01*
X177420535Y-75127580D01*
X177191727Y-74974695D01*
X177114485Y-74942700D01*
X177191727Y-74910705D01*
X177420535Y-74757820D01*
X177615120Y-74563235D01*
X177768005Y-74334427D01*
X177873314Y-74080190D01*
X177927000Y-73810292D01*
X177927000Y-73535108D01*
X177873314Y-73265210D01*
X177768005Y-73010973D01*
X177615120Y-72782165D01*
X177420535Y-72587580D01*
X177191727Y-72434695D01*
X177114485Y-72402700D01*
X177191727Y-72370705D01*
X177420535Y-72217820D01*
X177615120Y-72023235D01*
X177768005Y-71794427D01*
X177873314Y-71540190D01*
X177927000Y-71270292D01*
X177927000Y-70995108D01*
X177873314Y-70725210D01*
X177768005Y-70470973D01*
X177615120Y-70242165D01*
X177420535Y-70047580D01*
X177191727Y-69894695D01*
X177114485Y-69862700D01*
X177191727Y-69830705D01*
X177420535Y-69677820D01*
X177615120Y-69483235D01*
X177768005Y-69254427D01*
X177873314Y-69000190D01*
X177927000Y-68730292D01*
X177927000Y-68455108D01*
X177873314Y-68185210D01*
X177768005Y-67930973D01*
X177615120Y-67702165D01*
X177420535Y-67507580D01*
X177191727Y-67354695D01*
X177114485Y-67322700D01*
X177191727Y-67290705D01*
X177420535Y-67137820D01*
X177615120Y-66943235D01*
X177768005Y-66714427D01*
X177873314Y-66460190D01*
X177927000Y-66190292D01*
X177927000Y-65915108D01*
X177873314Y-65645210D01*
X177768005Y-65390973D01*
X177615120Y-65162165D01*
X177420535Y-64967580D01*
X177191727Y-64814695D01*
X176937490Y-64709386D01*
X176667592Y-64655700D01*
X176392408Y-64655700D01*
X176122510Y-64709386D01*
X175868273Y-64814695D01*
X175639465Y-64967580D01*
X175444880Y-65162165D01*
X175291995Y-65390973D01*
X175260000Y-65468215D01*
X175228005Y-65390973D01*
X175075120Y-65162165D01*
X174880535Y-64967580D01*
X174651727Y-64814695D01*
X174397490Y-64709386D01*
X174127592Y-64655700D01*
X173852408Y-64655700D01*
X173582510Y-64709386D01*
X173328273Y-64814695D01*
X173099465Y-64967580D01*
X172904880Y-65162165D01*
X172892589Y-65180559D01*
X172692344Y-64697124D01*
X172382088Y-64232793D01*
X171987207Y-63837912D01*
X171522876Y-63527656D01*
X171006939Y-63313948D01*
X170459223Y-63205000D01*
X169900777Y-63205000D01*
X169353061Y-63313948D01*
X168837124Y-63527656D01*
X168372793Y-63837912D01*
X167977912Y-64232793D01*
X167667656Y-64697124D01*
X167571904Y-64928289D01*
X167558405Y-64903033D01*
X167380654Y-64686445D01*
X167164066Y-64508695D01*
X166916962Y-64376616D01*
X166648838Y-64295281D01*
X166370000Y-64267818D01*
X166091161Y-64295281D01*
X165823037Y-64376616D01*
X165575933Y-64508695D01*
X165359345Y-64686446D01*
X165181595Y-64903034D01*
X165100000Y-65055688D01*
X165018405Y-64903033D01*
X164840654Y-64686445D01*
X164624066Y-64508695D01*
X164376962Y-64376616D01*
X164108838Y-64295281D01*
X163830000Y-64267818D01*
X163551161Y-64295281D01*
X163283037Y-64376616D01*
X163035933Y-64508695D01*
X162819345Y-64686446D01*
X162641595Y-64903034D01*
X162563394Y-65049338D01*
X162478405Y-64890333D01*
X162300654Y-64673745D01*
X162084066Y-64495995D01*
X161836962Y-64363916D01*
X161568838Y-64282581D01*
X161290000Y-64255118D01*
X161011161Y-64282581D01*
X160743037Y-64363916D01*
X160495933Y-64495995D01*
X160279345Y-64673746D01*
X160101595Y-64890334D01*
X160020000Y-65042988D01*
X159938405Y-64890333D01*
X159760654Y-64673745D01*
X159544066Y-64495995D01*
X159296962Y-64363916D01*
X159028838Y-64282581D01*
X158750000Y-64255118D01*
X158471161Y-64282581D01*
X158203037Y-64363916D01*
X157955933Y-64495995D01*
X157739345Y-64673746D01*
X157561595Y-64890334D01*
X157480000Y-65042988D01*
X157398405Y-64890333D01*
X157220654Y-64673745D01*
X157004066Y-64495995D01*
X156756962Y-64363916D01*
X156488838Y-64282581D01*
X156210000Y-64255118D01*
X155931161Y-64282581D01*
X155663037Y-64363916D01*
X155415933Y-64495995D01*
X155199345Y-64673746D01*
X155021595Y-64890334D01*
X154940000Y-65042988D01*
X154858405Y-64890333D01*
X154680654Y-64673745D01*
X154464066Y-64495995D01*
X154216962Y-64363916D01*
X153948838Y-64282581D01*
X153670000Y-64255118D01*
X153391161Y-64282581D01*
X153123037Y-64363916D01*
X152875933Y-64495995D01*
X152659345Y-64673746D01*
X152481595Y-64890334D01*
X152400000Y-65042988D01*
X152318405Y-64890333D01*
X152140654Y-64673745D01*
X151924066Y-64495995D01*
X151676962Y-64363916D01*
X151408838Y-64282581D01*
X151130000Y-64255118D01*
X150851161Y-64282581D01*
X150583037Y-64363916D01*
X150335933Y-64495995D01*
X150119345Y-64673746D01*
X149941595Y-64890334D01*
X149860000Y-65042988D01*
X149778405Y-64890333D01*
X149600654Y-64673745D01*
X149384066Y-64495995D01*
X149136962Y-64363916D01*
X148868838Y-64282581D01*
X148590000Y-64255118D01*
X148311161Y-64282581D01*
X148043037Y-64363916D01*
X147795933Y-64495995D01*
X147579345Y-64673746D01*
X147401595Y-64890334D01*
X147269516Y-65137438D01*
X147188181Y-65405562D01*
X147167600Y-65614526D01*
X144931150Y-65614526D01*
X144911819Y-65418261D01*
X144830484Y-65150137D01*
X144698405Y-64903033D01*
X144520654Y-64686445D01*
X144304066Y-64508695D01*
X144056962Y-64376616D01*
X143788838Y-64295281D01*
X143510000Y-64267818D01*
X143231161Y-64295281D01*
X142963037Y-64376616D01*
X142715933Y-64508695D01*
X142499345Y-64686446D01*
X142321595Y-64903034D01*
X142243394Y-65049338D01*
X142158405Y-64890333D01*
X141980654Y-64673745D01*
X141764066Y-64495995D01*
X141516962Y-64363916D01*
X141248838Y-64282581D01*
X140970000Y-64255118D01*
X140691161Y-64282581D01*
X140423037Y-64363916D01*
X140175933Y-64495995D01*
X139959345Y-64673746D01*
X139781595Y-64890334D01*
X139700000Y-65042988D01*
X139618405Y-64890333D01*
X139440654Y-64673745D01*
X139224066Y-64495995D01*
X138976962Y-64363916D01*
X138708838Y-64282581D01*
X138430000Y-64255118D01*
X138151161Y-64282581D01*
X137883037Y-64363916D01*
X137635933Y-64495995D01*
X137419345Y-64673746D01*
X137241595Y-64890334D01*
X137160000Y-65042988D01*
X137078405Y-64890333D01*
X136900654Y-64673745D01*
X136684066Y-64495995D01*
X136436962Y-64363916D01*
X136168838Y-64282581D01*
X135890000Y-64255118D01*
X135611161Y-64282581D01*
X135343037Y-64363916D01*
X135095933Y-64495995D01*
X134879345Y-64673746D01*
X134701595Y-64890334D01*
X134620000Y-65042988D01*
X134538405Y-64890333D01*
X134360654Y-64673745D01*
X134144066Y-64495995D01*
X133896962Y-64363916D01*
X133628838Y-64282581D01*
X133350000Y-64255118D01*
X133071161Y-64282581D01*
X132803037Y-64363916D01*
X132555933Y-64495995D01*
X132339345Y-64673746D01*
X132161595Y-64890334D01*
X132080000Y-65042988D01*
X131998405Y-64890333D01*
X131820654Y-64673745D01*
X131604066Y-64495995D01*
X131356962Y-64363916D01*
X131088838Y-64282581D01*
X130810000Y-64255118D01*
X130531161Y-64282581D01*
X130263037Y-64363916D01*
X130015933Y-64495995D01*
X129799345Y-64673746D01*
X129621595Y-64890334D01*
X129540000Y-65042988D01*
X129458405Y-64890333D01*
X129280654Y-64673745D01*
X129064066Y-64495995D01*
X128816962Y-64363916D01*
X128548838Y-64282581D01*
X128270000Y-64255118D01*
X127991161Y-64282581D01*
X127723037Y-64363916D01*
X127475933Y-64495995D01*
X127259345Y-64673746D01*
X127081595Y-64890334D01*
X127000000Y-65042988D01*
X126918405Y-64890333D01*
X126740654Y-64673745D01*
X126524066Y-64495995D01*
X126276962Y-64363916D01*
X126008838Y-64282581D01*
X125730000Y-64255118D01*
X125451161Y-64282581D01*
X125183037Y-64363916D01*
X124935933Y-64495995D01*
X124719345Y-64673746D01*
X124541595Y-64890334D01*
X124409516Y-65137438D01*
X124328181Y-65405562D01*
X124307600Y-65614526D01*
X124307600Y-66465475D01*
X124310727Y-66497226D01*
X123342504Y-65529003D01*
X123318701Y-65499999D01*
X123202976Y-65405026D01*
X123070947Y-65334454D01*
X123043746Y-65326203D01*
X122986484Y-65137437D01*
X122854405Y-64890333D01*
X122676654Y-64673745D01*
X122460066Y-64495995D01*
X122212962Y-64363916D01*
X121944838Y-64282581D01*
X121666000Y-64255118D01*
X121387161Y-64282581D01*
X121119037Y-64363916D01*
X120871933Y-64495995D01*
X120655345Y-64673746D01*
X120477595Y-64890334D01*
X120396000Y-65042988D01*
X120314405Y-64890333D01*
X120136654Y-64673745D01*
X119920066Y-64495995D01*
X119672962Y-64363916D01*
X119404838Y-64282581D01*
X119126000Y-64255118D01*
X118847161Y-64282581D01*
X118579037Y-64363916D01*
X118331933Y-64495995D01*
X118115345Y-64673746D01*
X117937595Y-64890334D01*
X117856000Y-65042988D01*
X117774405Y-64890333D01*
X117596654Y-64673745D01*
X117380066Y-64495995D01*
X117132962Y-64363916D01*
X116864838Y-64282581D01*
X116586000Y-64255118D01*
X116307161Y-64282581D01*
X116039037Y-64363916D01*
X115791933Y-64495995D01*
X115575345Y-64673746D01*
X115397595Y-64890334D01*
X115316000Y-65042988D01*
X115234405Y-64890333D01*
X115056654Y-64673745D01*
X114840066Y-64495995D01*
X114592962Y-64363916D01*
X114324838Y-64282581D01*
X114046000Y-64255118D01*
X113767161Y-64282581D01*
X113499037Y-64363916D01*
X113251933Y-64495995D01*
X113035345Y-64673746D01*
X112857595Y-64890334D01*
X112776000Y-65042988D01*
X112694405Y-64890333D01*
X112516654Y-64673745D01*
X112300066Y-64495995D01*
X112052962Y-64363916D01*
X111784838Y-64282581D01*
X111506000Y-64255118D01*
X111227161Y-64282581D01*
X110959037Y-64363916D01*
X110711933Y-64495995D01*
X110495345Y-64673746D01*
X110317595Y-64890334D01*
X110236000Y-65042988D01*
X110154405Y-64890333D01*
X109976654Y-64673745D01*
X109760066Y-64495995D01*
X109512962Y-64363916D01*
X109244838Y-64282581D01*
X108966000Y-64255118D01*
X108687161Y-64282581D01*
X108419037Y-64363916D01*
X108171933Y-64495995D01*
X107955345Y-64673746D01*
X107777595Y-64890334D01*
X107695187Y-65044510D01*
X107691526Y-65035438D01*
X107538125Y-64801260D01*
X107341986Y-64601508D01*
X107110646Y-64443859D01*
X106852996Y-64334372D01*
X106773060Y-64317690D01*
X106553000Y-64439848D01*
X106553000Y-65925700D01*
X106573000Y-65925700D01*
X106573000Y-66179700D01*
X106553000Y-66179700D01*
X106553000Y-67665552D01*
X106773060Y-67787710D01*
X106852996Y-67771028D01*
X107110646Y-67661541D01*
X107341986Y-67503892D01*
X107538125Y-67304140D01*
X107691526Y-67069962D01*
X107701027Y-67046418D01*
X107777595Y-67189667D01*
X107955346Y-67406255D01*
X108171934Y-67584005D01*
X108419038Y-67716084D01*
X108687162Y-67797419D01*
X108966000Y-67824882D01*
X109244839Y-67797419D01*
X109512963Y-67716084D01*
X109619590Y-67659091D01*
X114580551Y-72620053D01*
X114455363Y-72745241D01*
X114298320Y-72980273D01*
X114190147Y-73241426D01*
X114135000Y-73518665D01*
X114135000Y-73801335D01*
X114190147Y-74078574D01*
X114298320Y-74339727D01*
X114455363Y-74574759D01*
X114655241Y-74774637D01*
X114890273Y-74931680D01*
X115151426Y-75039853D01*
X115428665Y-75095000D01*
X115711335Y-75095000D01*
X115988574Y-75039853D01*
X116249727Y-74931680D01*
X116484759Y-74774637D01*
X116684637Y-74574759D01*
X116840000Y-74342241D01*
X116995363Y-74574759D01*
X117195241Y-74774637D01*
X117430273Y-74931680D01*
X117691426Y-75039853D01*
X117968665Y-75095000D01*
X118251335Y-75095000D01*
X118528574Y-75039853D01*
X118789727Y-74931680D01*
X119024759Y-74774637D01*
X119224637Y-74574759D01*
X119380000Y-74342241D01*
X119535363Y-74574759D01*
X119735241Y-74774637D01*
X119970273Y-74931680D01*
X120231426Y-75039853D01*
X120508665Y-75095000D01*
X120791335Y-75095000D01*
X121068574Y-75039853D01*
X121329727Y-74931680D01*
X121564759Y-74774637D01*
X121764637Y-74574759D01*
X121882187Y-74398833D01*
X121915714Y-74409003D01*
X121968053Y-74414158D01*
X122075363Y-74574759D01*
X122275241Y-74774637D01*
X122510273Y-74931680D01*
X122771426Y-75039853D01*
X123048665Y-75095000D01*
X123331335Y-75095000D01*
X123608574Y-75039853D01*
X123869727Y-74931680D01*
X124104759Y-74774637D01*
X124304637Y-74574759D01*
X124422187Y-74398833D01*
X124455714Y-74409003D01*
X124508053Y-74414158D01*
X124615363Y-74574759D01*
X124815241Y-74774637D01*
X125050273Y-74931680D01*
X125311426Y-75039853D01*
X125588665Y-75095000D01*
X125871335Y-75095000D01*
X126148574Y-75039853D01*
X126409727Y-74931680D01*
X126644759Y-74774637D01*
X126844637Y-74574759D01*
X126962187Y-74398833D01*
X126995714Y-74409003D01*
X127048053Y-74414158D01*
X127155363Y-74574759D01*
X127355241Y-74774637D01*
X127590273Y-74931680D01*
X127851426Y-75039853D01*
X128128665Y-75095000D01*
X128411335Y-75095000D01*
X128688574Y-75039853D01*
X128949727Y-74931680D01*
X129184759Y-74774637D01*
X129384637Y-74574759D01*
X129502187Y-74398833D01*
X129535714Y-74409003D01*
X129588053Y-74414158D01*
X129695363Y-74574759D01*
X129895241Y-74774637D01*
X130130273Y-74931680D01*
X130133911Y-74933187D01*
X121837999Y-83229100D01*
X121405722Y-83229100D01*
X121368399Y-83225424D01*
X121331076Y-83229100D01*
X121331067Y-83229100D01*
X121219414Y-83240097D01*
X121076153Y-83283554D01*
X120944124Y-83354126D01*
X120828399Y-83449099D01*
X120804601Y-83478097D01*
X119031047Y-85251651D01*
X119024759Y-85245363D01*
X118789727Y-85088320D01*
X118528574Y-84980147D01*
X118251335Y-84925000D01*
X117968665Y-84925000D01*
X117691426Y-84980147D01*
X117430273Y-85088320D01*
X117195241Y-85245363D01*
X116996643Y-85443961D01*
X116995812Y-85435518D01*
X116959502Y-85315820D01*
X116900537Y-85205506D01*
X116821185Y-85108815D01*
X116724494Y-85029463D01*
X116614180Y-84970498D01*
X116494482Y-84934188D01*
X116370000Y-84921928D01*
X115855750Y-84925000D01*
X115697000Y-85083750D01*
X115697000Y-86233000D01*
X115717000Y-86233000D01*
X115717000Y-86487000D01*
X115697000Y-86487000D01*
X115697000Y-87636250D01*
X115855750Y-87795000D01*
X116370000Y-87798072D01*
X116494482Y-87785812D01*
X116614180Y-87749502D01*
X116724494Y-87690537D01*
X116821185Y-87611185D01*
X116900537Y-87514494D01*
X116959502Y-87404180D01*
X116995812Y-87284482D01*
X116996643Y-87276039D01*
X117195241Y-87474637D01*
X117415074Y-87621524D01*
X110386599Y-94650000D01*
X107988245Y-94650000D01*
X107852893Y-94447431D01*
X107642569Y-94237107D01*
X107395253Y-94071856D01*
X107120451Y-93958029D01*
X106828722Y-93900000D01*
X106531278Y-93900000D01*
X106239549Y-93958029D01*
X105964747Y-94071856D01*
X105717431Y-94237107D01*
X105507107Y-94447431D01*
X105341856Y-94694747D01*
X105228029Y-94969549D01*
X105170000Y-95261278D01*
X105170000Y-95558722D01*
X105228029Y-95850451D01*
X105341856Y-96125253D01*
X105507107Y-96372569D01*
X105717431Y-96582893D01*
X105832830Y-96660000D01*
X105717431Y-96737107D01*
X105507107Y-96947431D01*
X105341856Y-97194747D01*
X105228029Y-97469549D01*
X105170000Y-97761278D01*
X105170000Y-98058722D01*
X105228029Y-98350451D01*
X105341856Y-98625253D01*
X105507107Y-98872569D01*
X105717431Y-99082893D01*
X105832830Y-99160000D01*
X105717431Y-99237107D01*
X105507107Y-99447431D01*
X105341856Y-99694747D01*
X105228029Y-99969549D01*
X105170000Y-100261278D01*
X105170000Y-100558722D01*
X105228029Y-100850451D01*
X105341856Y-101125253D01*
X105507107Y-101372569D01*
X105717431Y-101582893D01*
X105832830Y-101660000D01*
X105717431Y-101737107D01*
X105507107Y-101947431D01*
X105341856Y-102194747D01*
X105228029Y-102469549D01*
X105170000Y-102761278D01*
X105170000Y-103058722D01*
X105228029Y-103350451D01*
X105341856Y-103625253D01*
X105507107Y-103872569D01*
X105575564Y-103941026D01*
X105560820Y-103945498D01*
X105450506Y-104004463D01*
X105353815Y-104083815D01*
X105274463Y-104180506D01*
X105215498Y-104290820D01*
X105179188Y-104410518D01*
X105166928Y-104535000D01*
X92100000Y-104535000D01*
X92100000Y-87160000D01*
X114131928Y-87160000D01*
X114144188Y-87284482D01*
X114180498Y-87404180D01*
X114239463Y-87514494D01*
X114318815Y-87611185D01*
X114415506Y-87690537D01*
X114525820Y-87749502D01*
X114645518Y-87785812D01*
X114770000Y-87798072D01*
X115284250Y-87795000D01*
X115443000Y-87636250D01*
X115443000Y-86487000D01*
X114293750Y-86487000D01*
X114135000Y-86645750D01*
X114131928Y-87160000D01*
X92100000Y-87160000D01*
X92100000Y-85560000D01*
X114131928Y-85560000D01*
X114135000Y-86074250D01*
X114293750Y-86233000D01*
X115443000Y-86233000D01*
X115443000Y-85083750D01*
X115284250Y-84925000D01*
X114770000Y-84921928D01*
X114645518Y-84934188D01*
X114525820Y-84970498D01*
X114415506Y-85029463D01*
X114318815Y-85108815D01*
X114239463Y-85205506D01*
X114180498Y-85315820D01*
X114144188Y-85435518D01*
X114131928Y-85560000D01*
X92100000Y-85560000D01*
X92100000Y-65760777D01*
X92415000Y-65760777D01*
X92415000Y-66319223D01*
X92523948Y-66866939D01*
X92737656Y-67382876D01*
X93047912Y-67847207D01*
X93442793Y-68242088D01*
X93907124Y-68552344D01*
X94423061Y-68766052D01*
X94970777Y-68875000D01*
X95529223Y-68875000D01*
X96076939Y-68766052D01*
X96592876Y-68552344D01*
X97057207Y-68242088D01*
X97452088Y-67847207D01*
X97762344Y-67382876D01*
X97763482Y-67380129D01*
X97795346Y-67418955D01*
X98011934Y-67596705D01*
X98259038Y-67728784D01*
X98527162Y-67810119D01*
X98806000Y-67837582D01*
X99084839Y-67810119D01*
X99352963Y-67728784D01*
X99600067Y-67596705D01*
X99816655Y-67418955D01*
X99994405Y-67202367D01*
X100076000Y-67049713D01*
X100157595Y-67202367D01*
X100335346Y-67418955D01*
X100551934Y-67596705D01*
X100799038Y-67728784D01*
X101067162Y-67810119D01*
X101346000Y-67837582D01*
X101624839Y-67810119D01*
X101892963Y-67728784D01*
X102140067Y-67596705D01*
X102356655Y-67418955D01*
X102534405Y-67202367D01*
X102616000Y-67049713D01*
X102697595Y-67202367D01*
X102875346Y-67418955D01*
X103091934Y-67596705D01*
X103339038Y-67728784D01*
X103607162Y-67810119D01*
X103886000Y-67837582D01*
X104164839Y-67810119D01*
X104432963Y-67728784D01*
X104680067Y-67596705D01*
X104896655Y-67418955D01*
X105074405Y-67202367D01*
X105153893Y-67053655D01*
X105160474Y-67069962D01*
X105313875Y-67304140D01*
X105510014Y-67503892D01*
X105741354Y-67661541D01*
X105999004Y-67771028D01*
X106078940Y-67787710D01*
X106299000Y-67665552D01*
X106299000Y-66179700D01*
X106279000Y-66179700D01*
X106279000Y-65925700D01*
X106299000Y-65925700D01*
X106299000Y-64439848D01*
X106078940Y-64317690D01*
X105999004Y-64334372D01*
X105741354Y-64443859D01*
X105510014Y-64601508D01*
X105313875Y-64801260D01*
X105160474Y-65035438D01*
X105153893Y-65051745D01*
X105074405Y-64903033D01*
X104896654Y-64686445D01*
X104680066Y-64508695D01*
X104432962Y-64376616D01*
X104164838Y-64295281D01*
X103886000Y-64267818D01*
X103607161Y-64295281D01*
X103339037Y-64376616D01*
X103091933Y-64508695D01*
X102875345Y-64686446D01*
X102697595Y-64903034D01*
X102616000Y-65055688D01*
X102534405Y-64903033D01*
X102356654Y-64686445D01*
X102140066Y-64508695D01*
X101892962Y-64376616D01*
X101624838Y-64295281D01*
X101346000Y-64267818D01*
X101067161Y-64295281D01*
X100799037Y-64376616D01*
X100551933Y-64508695D01*
X100335345Y-64686446D01*
X100157595Y-64903034D01*
X100076000Y-65055688D01*
X99994405Y-64903033D01*
X99816654Y-64686445D01*
X99600066Y-64508695D01*
X99352962Y-64376616D01*
X99084838Y-64295281D01*
X98806000Y-64267818D01*
X98527161Y-64295281D01*
X98259037Y-64376616D01*
X98011933Y-64508695D01*
X97795345Y-64686446D01*
X97770474Y-64716751D01*
X97762344Y-64697124D01*
X97452088Y-64232793D01*
X97057207Y-63837912D01*
X96592876Y-63527656D01*
X96076939Y-63313948D01*
X95529223Y-63205000D01*
X94970777Y-63205000D01*
X94423061Y-63313948D01*
X93907124Y-63527656D01*
X93442793Y-63837912D01*
X93047912Y-64232793D01*
X92737656Y-64697124D01*
X92523948Y-65213061D01*
X92415000Y-65760777D01*
X92100000Y-65760777D01*
X92100000Y-62890000D01*
X179680000Y-62890000D01*
X179680001Y-74897581D01*
M02*
