G04 #@! TF.GenerationSoftware,KiCad,Pcbnew,5.1.5-52549c5~84~ubuntu16.04.1*
G04 #@! TF.CreationDate,2019-12-28T23:35:38+01:00*
G04 #@! TF.ProjectId,schema,73636865-6d61-42e6-9b69-6361645f7063,rev?*
G04 #@! TF.SameCoordinates,Original*
G04 #@! TF.FileFunction,Soldermask,Top*
G04 #@! TF.FilePolarity,Negative*
%FSLAX46Y46*%
G04 Gerber Fmt 4.6, Leading zero omitted, Abs format (unit mm)*
G04 Created by KiCad (PCBNEW 5.1.5-52549c5~84~ubuntu16.04.1) date 2019-12-28 23:35:38*
%MOMM*%
%LPD*%
G04 APERTURE LIST*
%ADD10C,0.100000*%
G04 APERTURE END LIST*
D10*
G36*
X176805880Y-112059776D02*
G01*
X177186593Y-112135504D01*
X177596249Y-112305189D01*
X177964929Y-112551534D01*
X178278466Y-112865071D01*
X178524811Y-113233751D01*
X178694496Y-113643407D01*
X178781000Y-114078296D01*
X178781000Y-114521704D01*
X178694496Y-114956593D01*
X178524811Y-115366249D01*
X178278466Y-115734929D01*
X177964929Y-116048466D01*
X177596249Y-116294811D01*
X177186593Y-116464496D01*
X176805880Y-116540224D01*
X176751705Y-116551000D01*
X176308295Y-116551000D01*
X176254120Y-116540224D01*
X175873407Y-116464496D01*
X175463751Y-116294811D01*
X175095071Y-116048466D01*
X174781534Y-115734929D01*
X174535189Y-115366249D01*
X174365504Y-114956593D01*
X174279000Y-114521704D01*
X174279000Y-114078296D01*
X174365504Y-113643407D01*
X174535189Y-113233751D01*
X174781534Y-112865071D01*
X175095071Y-112551534D01*
X175463751Y-112305189D01*
X175873407Y-112135504D01*
X176254120Y-112059776D01*
X176308295Y-112049000D01*
X176751705Y-112049000D01*
X176805880Y-112059776D01*
G37*
G36*
X94255880Y-112059776D02*
G01*
X94636593Y-112135504D01*
X95046249Y-112305189D01*
X95414929Y-112551534D01*
X95728466Y-112865071D01*
X95974811Y-113233751D01*
X96144496Y-113643407D01*
X96231000Y-114078296D01*
X96231000Y-114521704D01*
X96144496Y-114956593D01*
X95974811Y-115366249D01*
X95728466Y-115734929D01*
X95414929Y-116048466D01*
X95046249Y-116294811D01*
X94636593Y-116464496D01*
X94255880Y-116540224D01*
X94201705Y-116551000D01*
X93758295Y-116551000D01*
X93704120Y-116540224D01*
X93323407Y-116464496D01*
X92913751Y-116294811D01*
X92545071Y-116048466D01*
X92231534Y-115734929D01*
X91985189Y-115366249D01*
X91815504Y-114956593D01*
X91729000Y-114521704D01*
X91729000Y-114078296D01*
X91815504Y-113643407D01*
X91985189Y-113233751D01*
X92231534Y-112865071D01*
X92545071Y-112551534D01*
X92913751Y-112305189D01*
X93323407Y-112135504D01*
X93704120Y-112059776D01*
X93758295Y-112049000D01*
X94201705Y-112049000D01*
X94255880Y-112059776D01*
G37*
G36*
X110654352Y-113130831D02*
G01*
X110812396Y-113178773D01*
X110958042Y-113256623D01*
X111085707Y-113361393D01*
X111180054Y-113476357D01*
X111190477Y-113489057D01*
X111226715Y-113556854D01*
X111268328Y-113634705D01*
X111316269Y-113792747D01*
X111328400Y-113915916D01*
X111328400Y-114709483D01*
X111316269Y-114832653D01*
X111268328Y-114990695D01*
X111226715Y-115068546D01*
X111197265Y-115123644D01*
X111190476Y-115136344D01*
X111085707Y-115264007D01*
X110973519Y-115356076D01*
X110958043Y-115368777D01*
X110890246Y-115405015D01*
X110812395Y-115446628D01*
X110654353Y-115494569D01*
X110490000Y-115510756D01*
X110325648Y-115494569D01*
X110167606Y-115446628D01*
X110089755Y-115405015D01*
X110021958Y-115368777D01*
X110006482Y-115356076D01*
X109894294Y-115264007D01*
X109789525Y-115136344D01*
X109782737Y-115123644D01*
X109763574Y-115087793D01*
X109711671Y-114990692D01*
X109663731Y-114832656D01*
X109651600Y-114709484D01*
X109651600Y-113915917D01*
X109663731Y-113792748D01*
X109711673Y-113634704D01*
X109789523Y-113489058D01*
X109894293Y-113361393D01*
X110021956Y-113256624D01*
X110021955Y-113256624D01*
X110021957Y-113256623D01*
X110089754Y-113220385D01*
X110167605Y-113178772D01*
X110325647Y-113130831D01*
X110490000Y-113114644D01*
X110654352Y-113130831D01*
G37*
G36*
X108114352Y-113130831D02*
G01*
X108272396Y-113178773D01*
X108418042Y-113256623D01*
X108545707Y-113361393D01*
X108640054Y-113476357D01*
X108650477Y-113489057D01*
X108686715Y-113556854D01*
X108728328Y-113634705D01*
X108776269Y-113792747D01*
X108788400Y-113915916D01*
X108788400Y-114709483D01*
X108776269Y-114832653D01*
X108728328Y-114990695D01*
X108686715Y-115068546D01*
X108657265Y-115123644D01*
X108650476Y-115136344D01*
X108545707Y-115264007D01*
X108433519Y-115356076D01*
X108418043Y-115368777D01*
X108350246Y-115405015D01*
X108272395Y-115446628D01*
X108114353Y-115494569D01*
X107950000Y-115510756D01*
X107785648Y-115494569D01*
X107627606Y-115446628D01*
X107549755Y-115405015D01*
X107481958Y-115368777D01*
X107466482Y-115356076D01*
X107354294Y-115264007D01*
X107249525Y-115136344D01*
X107242737Y-115123644D01*
X107223574Y-115087793D01*
X107171671Y-114990692D01*
X107123731Y-114832656D01*
X107111600Y-114709484D01*
X107111600Y-113915917D01*
X107123731Y-113792748D01*
X107171673Y-113634704D01*
X107249523Y-113489058D01*
X107354293Y-113361393D01*
X107481956Y-113256624D01*
X107481955Y-113256624D01*
X107481957Y-113256623D01*
X107549754Y-113220385D01*
X107627605Y-113178772D01*
X107785647Y-113130831D01*
X107950000Y-113114644D01*
X108114352Y-113130831D01*
G37*
G36*
X130974352Y-113130831D02*
G01*
X131132396Y-113178773D01*
X131278042Y-113256623D01*
X131405707Y-113361393D01*
X131500054Y-113476357D01*
X131510477Y-113489057D01*
X131546715Y-113556854D01*
X131588328Y-113634705D01*
X131636269Y-113792747D01*
X131648400Y-113915916D01*
X131648400Y-114709483D01*
X131636269Y-114832653D01*
X131588328Y-114990695D01*
X131546715Y-115068546D01*
X131517265Y-115123644D01*
X131510476Y-115136344D01*
X131405707Y-115264007D01*
X131293519Y-115356076D01*
X131278043Y-115368777D01*
X131210246Y-115405015D01*
X131132395Y-115446628D01*
X130974353Y-115494569D01*
X130810000Y-115510756D01*
X130645648Y-115494569D01*
X130487606Y-115446628D01*
X130409755Y-115405015D01*
X130341958Y-115368777D01*
X130326482Y-115356076D01*
X130214294Y-115264007D01*
X130109525Y-115136344D01*
X130102737Y-115123644D01*
X130083574Y-115087793D01*
X130031671Y-114990692D01*
X129983731Y-114832656D01*
X129971600Y-114709484D01*
X129971600Y-113915917D01*
X129983731Y-113792748D01*
X130031673Y-113634704D01*
X130109523Y-113489058D01*
X130214293Y-113361393D01*
X130341956Y-113256624D01*
X130341955Y-113256624D01*
X130341957Y-113256623D01*
X130409754Y-113220385D01*
X130487605Y-113178772D01*
X130645647Y-113130831D01*
X130810000Y-113114644D01*
X130974352Y-113130831D01*
G37*
G36*
X125894352Y-113130831D02*
G01*
X126052396Y-113178773D01*
X126198042Y-113256623D01*
X126325707Y-113361393D01*
X126420054Y-113476357D01*
X126430477Y-113489057D01*
X126466715Y-113556854D01*
X126508328Y-113634705D01*
X126556269Y-113792747D01*
X126568400Y-113915916D01*
X126568400Y-114709483D01*
X126556269Y-114832653D01*
X126508328Y-114990695D01*
X126466715Y-115068546D01*
X126437265Y-115123644D01*
X126430476Y-115136344D01*
X126325707Y-115264007D01*
X126213519Y-115356076D01*
X126198043Y-115368777D01*
X126130246Y-115405015D01*
X126052395Y-115446628D01*
X125894353Y-115494569D01*
X125730000Y-115510756D01*
X125565648Y-115494569D01*
X125407606Y-115446628D01*
X125329755Y-115405015D01*
X125261958Y-115368777D01*
X125246482Y-115356076D01*
X125134294Y-115264007D01*
X125029525Y-115136344D01*
X125022737Y-115123644D01*
X125003574Y-115087793D01*
X124951671Y-114990692D01*
X124903731Y-114832656D01*
X124891600Y-114709484D01*
X124891600Y-113915917D01*
X124903731Y-113792748D01*
X124951673Y-113634704D01*
X125029523Y-113489058D01*
X125134293Y-113361393D01*
X125261956Y-113256624D01*
X125261955Y-113256624D01*
X125261957Y-113256623D01*
X125329754Y-113220385D01*
X125407605Y-113178772D01*
X125565647Y-113130831D01*
X125730000Y-113114644D01*
X125894352Y-113130831D01*
G37*
G36*
X123354352Y-113130831D02*
G01*
X123512396Y-113178773D01*
X123658042Y-113256623D01*
X123785707Y-113361393D01*
X123880054Y-113476357D01*
X123890477Y-113489057D01*
X123926715Y-113556854D01*
X123968328Y-113634705D01*
X124016269Y-113792747D01*
X124028400Y-113915916D01*
X124028400Y-114709483D01*
X124016269Y-114832653D01*
X123968328Y-114990695D01*
X123926715Y-115068546D01*
X123897265Y-115123644D01*
X123890476Y-115136344D01*
X123785707Y-115264007D01*
X123673519Y-115356076D01*
X123658043Y-115368777D01*
X123590246Y-115405015D01*
X123512395Y-115446628D01*
X123354353Y-115494569D01*
X123190000Y-115510756D01*
X123025648Y-115494569D01*
X122867606Y-115446628D01*
X122789755Y-115405015D01*
X122721958Y-115368777D01*
X122706482Y-115356076D01*
X122594294Y-115264007D01*
X122489525Y-115136344D01*
X122482737Y-115123644D01*
X122463574Y-115087793D01*
X122411671Y-114990692D01*
X122363731Y-114832656D01*
X122351600Y-114709484D01*
X122351600Y-113915917D01*
X122363731Y-113792748D01*
X122411673Y-113634704D01*
X122489523Y-113489058D01*
X122594293Y-113361393D01*
X122721956Y-113256624D01*
X122721955Y-113256624D01*
X122721957Y-113256623D01*
X122789754Y-113220385D01*
X122867605Y-113178772D01*
X123025647Y-113130831D01*
X123190000Y-113114644D01*
X123354352Y-113130831D01*
G37*
G36*
X118274352Y-113130831D02*
G01*
X118432396Y-113178773D01*
X118578042Y-113256623D01*
X118705707Y-113361393D01*
X118800054Y-113476357D01*
X118810477Y-113489057D01*
X118846715Y-113556854D01*
X118888328Y-113634705D01*
X118936269Y-113792747D01*
X118948400Y-113915916D01*
X118948400Y-114709483D01*
X118936269Y-114832653D01*
X118888328Y-114990695D01*
X118846715Y-115068546D01*
X118817265Y-115123644D01*
X118810476Y-115136344D01*
X118705707Y-115264007D01*
X118593519Y-115356076D01*
X118578043Y-115368777D01*
X118510246Y-115405015D01*
X118432395Y-115446628D01*
X118274353Y-115494569D01*
X118110000Y-115510756D01*
X117945648Y-115494569D01*
X117787606Y-115446628D01*
X117709755Y-115405015D01*
X117641958Y-115368777D01*
X117626482Y-115356076D01*
X117514294Y-115264007D01*
X117409525Y-115136344D01*
X117402737Y-115123644D01*
X117383574Y-115087793D01*
X117331671Y-114990692D01*
X117283731Y-114832656D01*
X117271600Y-114709484D01*
X117271600Y-113915917D01*
X117283731Y-113792748D01*
X117331673Y-113634704D01*
X117409523Y-113489058D01*
X117514293Y-113361393D01*
X117641956Y-113256624D01*
X117641955Y-113256624D01*
X117641957Y-113256623D01*
X117709754Y-113220385D01*
X117787605Y-113178772D01*
X117945647Y-113130831D01*
X118110000Y-113114644D01*
X118274352Y-113130831D01*
G37*
G36*
X115734352Y-113130831D02*
G01*
X115892396Y-113178773D01*
X116038042Y-113256623D01*
X116165707Y-113361393D01*
X116260054Y-113476357D01*
X116270477Y-113489057D01*
X116306715Y-113556854D01*
X116348328Y-113634705D01*
X116396269Y-113792747D01*
X116408400Y-113915916D01*
X116408400Y-114709483D01*
X116396269Y-114832653D01*
X116348328Y-114990695D01*
X116306715Y-115068546D01*
X116277265Y-115123644D01*
X116270476Y-115136344D01*
X116165707Y-115264007D01*
X116053519Y-115356076D01*
X116038043Y-115368777D01*
X115970246Y-115405015D01*
X115892395Y-115446628D01*
X115734353Y-115494569D01*
X115570000Y-115510756D01*
X115405648Y-115494569D01*
X115247606Y-115446628D01*
X115169755Y-115405015D01*
X115101958Y-115368777D01*
X115086482Y-115356076D01*
X114974294Y-115264007D01*
X114869525Y-115136344D01*
X114862737Y-115123644D01*
X114843574Y-115087793D01*
X114791671Y-114990692D01*
X114743731Y-114832656D01*
X114731600Y-114709484D01*
X114731600Y-113915917D01*
X114743731Y-113792748D01*
X114791673Y-113634704D01*
X114869523Y-113489058D01*
X114974293Y-113361393D01*
X115101956Y-113256624D01*
X115101955Y-113256624D01*
X115101957Y-113256623D01*
X115169754Y-113220385D01*
X115247605Y-113178772D01*
X115405647Y-113130831D01*
X115570000Y-113114644D01*
X115734352Y-113130831D01*
G37*
G36*
X113194352Y-113130831D02*
G01*
X113352396Y-113178773D01*
X113498042Y-113256623D01*
X113625707Y-113361393D01*
X113720054Y-113476357D01*
X113730477Y-113489057D01*
X113766715Y-113556854D01*
X113808328Y-113634705D01*
X113856269Y-113792747D01*
X113868400Y-113915916D01*
X113868400Y-114709483D01*
X113856269Y-114832653D01*
X113808328Y-114990695D01*
X113766715Y-115068546D01*
X113737265Y-115123644D01*
X113730476Y-115136344D01*
X113625707Y-115264007D01*
X113513519Y-115356076D01*
X113498043Y-115368777D01*
X113430246Y-115405015D01*
X113352395Y-115446628D01*
X113194353Y-115494569D01*
X113030000Y-115510756D01*
X112865648Y-115494569D01*
X112707606Y-115446628D01*
X112629755Y-115405015D01*
X112561958Y-115368777D01*
X112546482Y-115356076D01*
X112434294Y-115264007D01*
X112329525Y-115136344D01*
X112322737Y-115123644D01*
X112303574Y-115087793D01*
X112251671Y-114990692D01*
X112203731Y-114832656D01*
X112191600Y-114709484D01*
X112191600Y-113915917D01*
X112203731Y-113792748D01*
X112251673Y-113634704D01*
X112329523Y-113489058D01*
X112434293Y-113361393D01*
X112561956Y-113256624D01*
X112561955Y-113256624D01*
X112561957Y-113256623D01*
X112629754Y-113220385D01*
X112707605Y-113178772D01*
X112865647Y-113130831D01*
X113030000Y-113114644D01*
X113194352Y-113130831D01*
G37*
G36*
X120814352Y-113130831D02*
G01*
X120972396Y-113178773D01*
X121118042Y-113256623D01*
X121245707Y-113361393D01*
X121340054Y-113476357D01*
X121350477Y-113489057D01*
X121386715Y-113556854D01*
X121428328Y-113634705D01*
X121476269Y-113792747D01*
X121488400Y-113915916D01*
X121488400Y-114709483D01*
X121476269Y-114832653D01*
X121428328Y-114990695D01*
X121386715Y-115068546D01*
X121357265Y-115123644D01*
X121350476Y-115136344D01*
X121245707Y-115264007D01*
X121133519Y-115356076D01*
X121118043Y-115368777D01*
X121050246Y-115405015D01*
X120972395Y-115446628D01*
X120814353Y-115494569D01*
X120650000Y-115510756D01*
X120485648Y-115494569D01*
X120327606Y-115446628D01*
X120249755Y-115405015D01*
X120181958Y-115368777D01*
X120166482Y-115356076D01*
X120054294Y-115264007D01*
X119949525Y-115136344D01*
X119942737Y-115123644D01*
X119923574Y-115087793D01*
X119871671Y-114990692D01*
X119823731Y-114832656D01*
X119811600Y-114709484D01*
X119811600Y-113915917D01*
X119823731Y-113792748D01*
X119871673Y-113634704D01*
X119949523Y-113489058D01*
X120054293Y-113361393D01*
X120181956Y-113256624D01*
X120181955Y-113256624D01*
X120181957Y-113256623D01*
X120249754Y-113220385D01*
X120327605Y-113178772D01*
X120485647Y-113130831D01*
X120650000Y-113114644D01*
X120814352Y-113130831D01*
G37*
G36*
X146214352Y-113118131D02*
G01*
X146372396Y-113166073D01*
X146518042Y-113243923D01*
X146645707Y-113348693D01*
X146741083Y-113464910D01*
X146750477Y-113476357D01*
X146786715Y-113544154D01*
X146828328Y-113622005D01*
X146876269Y-113780047D01*
X146888400Y-113903216D01*
X146888400Y-114696783D01*
X146876269Y-114819953D01*
X146828328Y-114977995D01*
X146750476Y-115123644D01*
X146645707Y-115251307D01*
X146529490Y-115346683D01*
X146518043Y-115356077D01*
X146450246Y-115392315D01*
X146372395Y-115433928D01*
X146214353Y-115481869D01*
X146050000Y-115498056D01*
X145885648Y-115481869D01*
X145727606Y-115433928D01*
X145649755Y-115392315D01*
X145581958Y-115356077D01*
X145570511Y-115346683D01*
X145454294Y-115251307D01*
X145349525Y-115123644D01*
X145271671Y-114977992D01*
X145223731Y-114819956D01*
X145211600Y-114696784D01*
X145211600Y-113903217D01*
X145223731Y-113780048D01*
X145267820Y-113634705D01*
X145271672Y-113622007D01*
X145271673Y-113622004D01*
X145349523Y-113476358D01*
X145454293Y-113348693D01*
X145581956Y-113243924D01*
X145581955Y-113243924D01*
X145581957Y-113243923D01*
X145649754Y-113207685D01*
X145727605Y-113166072D01*
X145885647Y-113118131D01*
X146050000Y-113101944D01*
X146214352Y-113118131D01*
G37*
G36*
X136054352Y-113118131D02*
G01*
X136212396Y-113166073D01*
X136358042Y-113243923D01*
X136485707Y-113348693D01*
X136581083Y-113464910D01*
X136590477Y-113476357D01*
X136626715Y-113544154D01*
X136668328Y-113622005D01*
X136716269Y-113780047D01*
X136728400Y-113903216D01*
X136728400Y-114696783D01*
X136716269Y-114819953D01*
X136668328Y-114977995D01*
X136590476Y-115123644D01*
X136485707Y-115251307D01*
X136369490Y-115346683D01*
X136358043Y-115356077D01*
X136290246Y-115392315D01*
X136212395Y-115433928D01*
X136054353Y-115481869D01*
X135890000Y-115498056D01*
X135725648Y-115481869D01*
X135567606Y-115433928D01*
X135489755Y-115392315D01*
X135421958Y-115356077D01*
X135410511Y-115346683D01*
X135294294Y-115251307D01*
X135189525Y-115123644D01*
X135111671Y-114977992D01*
X135063731Y-114819956D01*
X135051600Y-114696784D01*
X135051600Y-113903217D01*
X135063731Y-113780048D01*
X135107820Y-113634705D01*
X135111672Y-113622007D01*
X135111673Y-113622004D01*
X135189523Y-113476358D01*
X135294293Y-113348693D01*
X135421956Y-113243924D01*
X135421955Y-113243924D01*
X135421957Y-113243923D01*
X135489754Y-113207685D01*
X135567605Y-113166072D01*
X135725647Y-113118131D01*
X135890000Y-113101944D01*
X136054352Y-113118131D01*
G37*
G36*
X141134352Y-113118131D02*
G01*
X141292396Y-113166073D01*
X141438042Y-113243923D01*
X141565707Y-113348693D01*
X141661083Y-113464910D01*
X141670477Y-113476357D01*
X141706715Y-113544154D01*
X141748328Y-113622005D01*
X141796269Y-113780047D01*
X141808400Y-113903216D01*
X141808400Y-114696783D01*
X141796269Y-114819953D01*
X141748328Y-114977995D01*
X141670476Y-115123644D01*
X141565707Y-115251307D01*
X141449490Y-115346683D01*
X141438043Y-115356077D01*
X141370246Y-115392315D01*
X141292395Y-115433928D01*
X141134353Y-115481869D01*
X140970000Y-115498056D01*
X140805648Y-115481869D01*
X140647606Y-115433928D01*
X140569755Y-115392315D01*
X140501958Y-115356077D01*
X140490511Y-115346683D01*
X140374294Y-115251307D01*
X140269525Y-115123644D01*
X140191671Y-114977992D01*
X140143731Y-114819956D01*
X140131600Y-114696784D01*
X140131600Y-113903217D01*
X140143731Y-113780048D01*
X140187820Y-113634705D01*
X140191672Y-113622007D01*
X140191673Y-113622004D01*
X140269523Y-113476358D01*
X140374293Y-113348693D01*
X140501956Y-113243924D01*
X140501955Y-113243924D01*
X140501957Y-113243923D01*
X140569754Y-113207685D01*
X140647605Y-113166072D01*
X140805647Y-113118131D01*
X140970000Y-113101944D01*
X141134352Y-113118131D01*
G37*
G36*
X143674352Y-113118131D02*
G01*
X143832396Y-113166073D01*
X143978042Y-113243923D01*
X144105707Y-113348693D01*
X144201083Y-113464910D01*
X144210477Y-113476357D01*
X144246715Y-113544154D01*
X144288328Y-113622005D01*
X144336269Y-113780047D01*
X144348400Y-113903216D01*
X144348400Y-114696783D01*
X144336269Y-114819953D01*
X144288328Y-114977995D01*
X144210476Y-115123644D01*
X144105707Y-115251307D01*
X143989490Y-115346683D01*
X143978043Y-115356077D01*
X143910246Y-115392315D01*
X143832395Y-115433928D01*
X143674353Y-115481869D01*
X143510000Y-115498056D01*
X143345648Y-115481869D01*
X143187606Y-115433928D01*
X143109755Y-115392315D01*
X143041958Y-115356077D01*
X143030511Y-115346683D01*
X142914294Y-115251307D01*
X142809525Y-115123644D01*
X142731671Y-114977992D01*
X142683731Y-114819956D01*
X142671600Y-114696784D01*
X142671600Y-113903217D01*
X142683731Y-113780048D01*
X142727820Y-113634705D01*
X142731672Y-113622007D01*
X142731673Y-113622004D01*
X142809523Y-113476358D01*
X142914293Y-113348693D01*
X143041956Y-113243924D01*
X143041955Y-113243924D01*
X143041957Y-113243923D01*
X143109754Y-113207685D01*
X143187605Y-113166072D01*
X143345647Y-113118131D01*
X143510000Y-113101944D01*
X143674352Y-113118131D01*
G37*
G36*
X148754352Y-113118131D02*
G01*
X148912396Y-113166073D01*
X149058042Y-113243923D01*
X149185707Y-113348693D01*
X149281083Y-113464910D01*
X149290477Y-113476357D01*
X149326715Y-113544154D01*
X149368328Y-113622005D01*
X149416269Y-113780047D01*
X149428400Y-113903216D01*
X149428400Y-114696783D01*
X149416269Y-114819953D01*
X149368328Y-114977995D01*
X149290476Y-115123644D01*
X149185707Y-115251307D01*
X149069490Y-115346683D01*
X149058043Y-115356077D01*
X148990246Y-115392315D01*
X148912395Y-115433928D01*
X148754353Y-115481869D01*
X148590000Y-115498056D01*
X148425648Y-115481869D01*
X148267606Y-115433928D01*
X148189755Y-115392315D01*
X148121958Y-115356077D01*
X148110511Y-115346683D01*
X147994294Y-115251307D01*
X147889525Y-115123644D01*
X147811671Y-114977992D01*
X147763731Y-114819956D01*
X147751600Y-114696784D01*
X147751600Y-113903217D01*
X147763731Y-113780048D01*
X147807820Y-113634705D01*
X147811672Y-113622007D01*
X147811673Y-113622004D01*
X147889523Y-113476358D01*
X147994293Y-113348693D01*
X148121956Y-113243924D01*
X148121955Y-113243924D01*
X148121957Y-113243923D01*
X148189754Y-113207685D01*
X148267605Y-113166072D01*
X148425647Y-113118131D01*
X148590000Y-113101944D01*
X148754352Y-113118131D01*
G37*
G36*
X153834352Y-113118131D02*
G01*
X153992396Y-113166073D01*
X154138042Y-113243923D01*
X154265707Y-113348693D01*
X154361083Y-113464910D01*
X154370477Y-113476357D01*
X154406715Y-113544154D01*
X154448328Y-113622005D01*
X154496269Y-113780047D01*
X154508400Y-113903216D01*
X154508400Y-114696783D01*
X154496269Y-114819953D01*
X154448328Y-114977995D01*
X154370476Y-115123644D01*
X154265707Y-115251307D01*
X154149490Y-115346683D01*
X154138043Y-115356077D01*
X154070246Y-115392315D01*
X153992395Y-115433928D01*
X153834353Y-115481869D01*
X153670000Y-115498056D01*
X153505648Y-115481869D01*
X153347606Y-115433928D01*
X153269755Y-115392315D01*
X153201958Y-115356077D01*
X153190511Y-115346683D01*
X153074294Y-115251307D01*
X152969525Y-115123644D01*
X152891671Y-114977992D01*
X152843731Y-114819956D01*
X152831600Y-114696784D01*
X152831600Y-113903217D01*
X152843731Y-113780048D01*
X152887820Y-113634705D01*
X152891672Y-113622007D01*
X152891673Y-113622004D01*
X152969523Y-113476358D01*
X153074293Y-113348693D01*
X153201956Y-113243924D01*
X153201955Y-113243924D01*
X153201957Y-113243923D01*
X153269754Y-113207685D01*
X153347605Y-113166072D01*
X153505647Y-113118131D01*
X153670000Y-113101944D01*
X153834352Y-113118131D01*
G37*
G36*
X156374352Y-113118131D02*
G01*
X156532396Y-113166073D01*
X156678042Y-113243923D01*
X156805707Y-113348693D01*
X156901083Y-113464910D01*
X156910477Y-113476357D01*
X156946715Y-113544154D01*
X156988328Y-113622005D01*
X157036269Y-113780047D01*
X157048400Y-113903216D01*
X157048400Y-114696783D01*
X157036269Y-114819953D01*
X156988328Y-114977995D01*
X156910476Y-115123644D01*
X156805707Y-115251307D01*
X156689490Y-115346683D01*
X156678043Y-115356077D01*
X156610246Y-115392315D01*
X156532395Y-115433928D01*
X156374353Y-115481869D01*
X156210000Y-115498056D01*
X156045648Y-115481869D01*
X155887606Y-115433928D01*
X155809755Y-115392315D01*
X155741958Y-115356077D01*
X155730511Y-115346683D01*
X155614294Y-115251307D01*
X155509525Y-115123644D01*
X155431671Y-114977992D01*
X155383731Y-114819956D01*
X155371600Y-114696784D01*
X155371600Y-113903217D01*
X155383731Y-113780048D01*
X155427820Y-113634705D01*
X155431672Y-113622007D01*
X155431673Y-113622004D01*
X155509523Y-113476358D01*
X155614293Y-113348693D01*
X155741956Y-113243924D01*
X155741955Y-113243924D01*
X155741957Y-113243923D01*
X155809754Y-113207685D01*
X155887605Y-113166072D01*
X156045647Y-113118131D01*
X156210000Y-113101944D01*
X156374352Y-113118131D01*
G37*
G36*
X161454352Y-113118131D02*
G01*
X161612396Y-113166073D01*
X161758042Y-113243923D01*
X161885707Y-113348693D01*
X161981083Y-113464910D01*
X161990477Y-113476357D01*
X162026715Y-113544154D01*
X162068328Y-113622005D01*
X162116269Y-113780047D01*
X162128400Y-113903216D01*
X162128400Y-114696783D01*
X162116269Y-114819953D01*
X162068328Y-114977995D01*
X161990476Y-115123644D01*
X161885707Y-115251307D01*
X161769490Y-115346683D01*
X161758043Y-115356077D01*
X161690246Y-115392315D01*
X161612395Y-115433928D01*
X161454353Y-115481869D01*
X161290000Y-115498056D01*
X161125648Y-115481869D01*
X160967606Y-115433928D01*
X160889755Y-115392315D01*
X160821958Y-115356077D01*
X160810511Y-115346683D01*
X160694294Y-115251307D01*
X160589525Y-115123644D01*
X160511671Y-114977992D01*
X160463731Y-114819956D01*
X160451600Y-114696784D01*
X160451600Y-113903217D01*
X160463731Y-113780048D01*
X160507820Y-113634705D01*
X160511672Y-113622007D01*
X160511673Y-113622004D01*
X160589523Y-113476358D01*
X160694293Y-113348693D01*
X160821956Y-113243924D01*
X160821955Y-113243924D01*
X160821957Y-113243923D01*
X160889754Y-113207685D01*
X160967605Y-113166072D01*
X161125647Y-113118131D01*
X161290000Y-113101944D01*
X161454352Y-113118131D01*
G37*
G36*
X163994352Y-113118131D02*
G01*
X164152396Y-113166073D01*
X164298042Y-113243923D01*
X164425707Y-113348693D01*
X164521083Y-113464910D01*
X164530477Y-113476357D01*
X164566715Y-113544154D01*
X164608328Y-113622005D01*
X164656269Y-113780047D01*
X164668400Y-113903216D01*
X164668400Y-114696783D01*
X164656269Y-114819953D01*
X164608328Y-114977995D01*
X164530476Y-115123644D01*
X164425707Y-115251307D01*
X164309490Y-115346683D01*
X164298043Y-115356077D01*
X164230246Y-115392315D01*
X164152395Y-115433928D01*
X163994353Y-115481869D01*
X163830000Y-115498056D01*
X163665648Y-115481869D01*
X163507606Y-115433928D01*
X163429755Y-115392315D01*
X163361958Y-115356077D01*
X163350511Y-115346683D01*
X163234294Y-115251307D01*
X163129525Y-115123644D01*
X163051671Y-114977992D01*
X163003731Y-114819956D01*
X162991600Y-114696784D01*
X162991600Y-113903217D01*
X163003731Y-113780048D01*
X163047820Y-113634705D01*
X163051672Y-113622007D01*
X163051673Y-113622004D01*
X163129523Y-113476358D01*
X163234293Y-113348693D01*
X163361956Y-113243924D01*
X163361955Y-113243924D01*
X163361957Y-113243923D01*
X163429754Y-113207685D01*
X163507605Y-113166072D01*
X163665647Y-113118131D01*
X163830000Y-113101944D01*
X163994352Y-113118131D01*
G37*
G36*
X166534352Y-113118131D02*
G01*
X166692396Y-113166073D01*
X166838042Y-113243923D01*
X166965707Y-113348693D01*
X167061083Y-113464910D01*
X167070477Y-113476357D01*
X167106715Y-113544154D01*
X167148328Y-113622005D01*
X167196269Y-113780047D01*
X167208400Y-113903216D01*
X167208400Y-114696783D01*
X167196269Y-114819953D01*
X167148328Y-114977995D01*
X167070476Y-115123644D01*
X166965707Y-115251307D01*
X166849490Y-115346683D01*
X166838043Y-115356077D01*
X166770246Y-115392315D01*
X166692395Y-115433928D01*
X166534353Y-115481869D01*
X166370000Y-115498056D01*
X166205648Y-115481869D01*
X166047606Y-115433928D01*
X165969755Y-115392315D01*
X165901958Y-115356077D01*
X165890511Y-115346683D01*
X165774294Y-115251307D01*
X165669525Y-115123644D01*
X165591671Y-114977992D01*
X165543731Y-114819956D01*
X165531600Y-114696784D01*
X165531600Y-113903217D01*
X165543731Y-113780048D01*
X165587820Y-113634705D01*
X165591672Y-113622007D01*
X165591673Y-113622004D01*
X165669523Y-113476358D01*
X165774293Y-113348693D01*
X165901956Y-113243924D01*
X165901955Y-113243924D01*
X165901957Y-113243923D01*
X165969754Y-113207685D01*
X166047605Y-113166072D01*
X166205647Y-113118131D01*
X166370000Y-113101944D01*
X166534352Y-113118131D01*
G37*
G36*
X169074352Y-113118131D02*
G01*
X169232396Y-113166073D01*
X169378042Y-113243923D01*
X169505707Y-113348693D01*
X169601083Y-113464910D01*
X169610477Y-113476357D01*
X169646715Y-113544154D01*
X169688328Y-113622005D01*
X169736269Y-113780047D01*
X169748400Y-113903216D01*
X169748400Y-114696783D01*
X169736269Y-114819953D01*
X169688328Y-114977995D01*
X169610476Y-115123644D01*
X169505707Y-115251307D01*
X169389490Y-115346683D01*
X169378043Y-115356077D01*
X169310246Y-115392315D01*
X169232395Y-115433928D01*
X169074353Y-115481869D01*
X168910000Y-115498056D01*
X168745648Y-115481869D01*
X168587606Y-115433928D01*
X168509755Y-115392315D01*
X168441958Y-115356077D01*
X168430511Y-115346683D01*
X168314294Y-115251307D01*
X168209525Y-115123644D01*
X168131671Y-114977992D01*
X168083731Y-114819956D01*
X168071600Y-114696784D01*
X168071600Y-113903217D01*
X168083731Y-113780048D01*
X168127820Y-113634705D01*
X168131672Y-113622007D01*
X168131673Y-113622004D01*
X168209523Y-113476358D01*
X168314293Y-113348693D01*
X168441956Y-113243924D01*
X168441955Y-113243924D01*
X168441957Y-113243923D01*
X168509754Y-113207685D01*
X168587605Y-113166072D01*
X168745647Y-113118131D01*
X168910000Y-113101944D01*
X169074352Y-113118131D01*
G37*
G36*
X171614352Y-113118131D02*
G01*
X171772396Y-113166073D01*
X171918042Y-113243923D01*
X172045707Y-113348693D01*
X172141083Y-113464910D01*
X172150477Y-113476357D01*
X172186715Y-113544154D01*
X172228328Y-113622005D01*
X172276269Y-113780047D01*
X172288400Y-113903216D01*
X172288400Y-114696783D01*
X172276269Y-114819953D01*
X172228328Y-114977995D01*
X172150476Y-115123644D01*
X172045707Y-115251307D01*
X171929490Y-115346683D01*
X171918043Y-115356077D01*
X171850246Y-115392315D01*
X171772395Y-115433928D01*
X171614353Y-115481869D01*
X171450000Y-115498056D01*
X171285648Y-115481869D01*
X171127606Y-115433928D01*
X171049755Y-115392315D01*
X170981958Y-115356077D01*
X170970511Y-115346683D01*
X170854294Y-115251307D01*
X170749525Y-115123644D01*
X170671671Y-114977992D01*
X170623731Y-114819956D01*
X170611600Y-114696784D01*
X170611600Y-113903217D01*
X170623731Y-113780048D01*
X170667820Y-113634705D01*
X170671672Y-113622007D01*
X170671673Y-113622004D01*
X170749523Y-113476358D01*
X170854293Y-113348693D01*
X170981956Y-113243924D01*
X170981955Y-113243924D01*
X170981957Y-113243923D01*
X171049754Y-113207685D01*
X171127605Y-113166072D01*
X171285647Y-113118131D01*
X171450000Y-113101944D01*
X171614352Y-113118131D01*
G37*
G36*
X138594352Y-113118131D02*
G01*
X138752396Y-113166073D01*
X138898042Y-113243923D01*
X139025707Y-113348693D01*
X139121083Y-113464910D01*
X139130477Y-113476357D01*
X139166715Y-113544154D01*
X139208328Y-113622005D01*
X139256269Y-113780047D01*
X139268400Y-113903216D01*
X139268400Y-114696783D01*
X139256269Y-114819953D01*
X139208328Y-114977995D01*
X139130476Y-115123644D01*
X139025707Y-115251307D01*
X138909490Y-115346683D01*
X138898043Y-115356077D01*
X138830246Y-115392315D01*
X138752395Y-115433928D01*
X138594353Y-115481869D01*
X138430000Y-115498056D01*
X138265648Y-115481869D01*
X138107606Y-115433928D01*
X138029755Y-115392315D01*
X137961958Y-115356077D01*
X137950511Y-115346683D01*
X137834294Y-115251307D01*
X137729525Y-115123644D01*
X137651671Y-114977992D01*
X137603731Y-114819956D01*
X137591600Y-114696784D01*
X137591600Y-113903217D01*
X137603731Y-113780048D01*
X137647820Y-113634705D01*
X137651672Y-113622007D01*
X137651673Y-113622004D01*
X137729523Y-113476358D01*
X137834293Y-113348693D01*
X137961956Y-113243924D01*
X137961955Y-113243924D01*
X137961957Y-113243923D01*
X138029754Y-113207685D01*
X138107605Y-113166072D01*
X138265647Y-113118131D01*
X138430000Y-113101944D01*
X138594352Y-113118131D01*
G37*
G36*
X133514352Y-113118131D02*
G01*
X133672396Y-113166073D01*
X133818042Y-113243923D01*
X133945707Y-113348693D01*
X134041083Y-113464910D01*
X134050477Y-113476357D01*
X134086715Y-113544154D01*
X134128328Y-113622005D01*
X134176269Y-113780047D01*
X134188400Y-113903216D01*
X134188400Y-114696783D01*
X134176269Y-114819953D01*
X134128328Y-114977995D01*
X134050476Y-115123644D01*
X133945707Y-115251307D01*
X133829490Y-115346683D01*
X133818043Y-115356077D01*
X133750246Y-115392315D01*
X133672395Y-115433928D01*
X133514353Y-115481869D01*
X133350000Y-115498056D01*
X133185648Y-115481869D01*
X133027606Y-115433928D01*
X132949755Y-115392315D01*
X132881958Y-115356077D01*
X132870511Y-115346683D01*
X132754294Y-115251307D01*
X132649525Y-115123644D01*
X132571671Y-114977992D01*
X132523731Y-114819956D01*
X132511600Y-114696784D01*
X132511600Y-113903217D01*
X132523731Y-113780048D01*
X132567820Y-113634705D01*
X132571672Y-113622007D01*
X132571673Y-113622004D01*
X132649523Y-113476358D01*
X132754293Y-113348693D01*
X132881956Y-113243924D01*
X132881955Y-113243924D01*
X132881957Y-113243923D01*
X132949754Y-113207685D01*
X133027605Y-113166072D01*
X133185647Y-113118131D01*
X133350000Y-113101944D01*
X133514352Y-113118131D01*
G37*
G36*
X158914352Y-113118131D02*
G01*
X159072396Y-113166073D01*
X159218042Y-113243923D01*
X159345707Y-113348693D01*
X159441083Y-113464910D01*
X159450477Y-113476357D01*
X159486715Y-113544154D01*
X159528328Y-113622005D01*
X159576269Y-113780047D01*
X159588400Y-113903216D01*
X159588400Y-114696783D01*
X159576269Y-114819953D01*
X159528328Y-114977995D01*
X159450476Y-115123644D01*
X159345707Y-115251307D01*
X159229490Y-115346683D01*
X159218043Y-115356077D01*
X159150246Y-115392315D01*
X159072395Y-115433928D01*
X158914353Y-115481869D01*
X158750000Y-115498056D01*
X158585648Y-115481869D01*
X158427606Y-115433928D01*
X158349755Y-115392315D01*
X158281958Y-115356077D01*
X158270511Y-115346683D01*
X158154294Y-115251307D01*
X158049525Y-115123644D01*
X157971671Y-114977992D01*
X157923731Y-114819956D01*
X157911600Y-114696784D01*
X157911600Y-113903217D01*
X157923731Y-113780048D01*
X157967820Y-113634705D01*
X157971672Y-113622007D01*
X157971673Y-113622004D01*
X158049523Y-113476358D01*
X158154293Y-113348693D01*
X158281956Y-113243924D01*
X158281955Y-113243924D01*
X158281957Y-113243923D01*
X158349754Y-113207685D01*
X158427605Y-113166072D01*
X158585647Y-113118131D01*
X158750000Y-113101944D01*
X158914352Y-113118131D01*
G37*
G36*
X174227142Y-108450942D02*
G01*
X174375101Y-108512229D01*
X174508255Y-108601199D01*
X174621501Y-108714445D01*
X174710471Y-108847599D01*
X174771758Y-108995558D01*
X174803000Y-109152625D01*
X174803000Y-109312775D01*
X174771758Y-109469842D01*
X174710471Y-109617801D01*
X174621501Y-109750955D01*
X174508255Y-109864201D01*
X174375101Y-109953171D01*
X174227142Y-110014458D01*
X174070075Y-110045700D01*
X173909925Y-110045700D01*
X173752858Y-110014458D01*
X173604899Y-109953171D01*
X173471745Y-109864201D01*
X173358499Y-109750955D01*
X173269529Y-109617801D01*
X173208242Y-109469842D01*
X173177000Y-109312775D01*
X173177000Y-109152625D01*
X173208242Y-108995558D01*
X173269529Y-108847599D01*
X173358499Y-108714445D01*
X173471745Y-108601199D01*
X173604899Y-108512229D01*
X173752858Y-108450942D01*
X173909925Y-108419700D01*
X174070075Y-108419700D01*
X174227142Y-108450942D01*
G37*
G36*
X176767142Y-108450942D02*
G01*
X176915101Y-108512229D01*
X177048255Y-108601199D01*
X177161501Y-108714445D01*
X177250471Y-108847599D01*
X177311758Y-108995558D01*
X177343000Y-109152625D01*
X177343000Y-109312775D01*
X177311758Y-109469842D01*
X177250471Y-109617801D01*
X177161501Y-109750955D01*
X177048255Y-109864201D01*
X176915101Y-109953171D01*
X176767142Y-110014458D01*
X176610075Y-110045700D01*
X176449925Y-110045700D01*
X176292858Y-110014458D01*
X176144899Y-109953171D01*
X176011745Y-109864201D01*
X175898499Y-109750955D01*
X175809529Y-109617801D01*
X175748242Y-109469842D01*
X175717000Y-109312775D01*
X175717000Y-109152625D01*
X175748242Y-108995558D01*
X175809529Y-108847599D01*
X175898499Y-108714445D01*
X176011745Y-108601199D01*
X176144899Y-108512229D01*
X176292858Y-108450942D01*
X176449925Y-108419700D01*
X176610075Y-108419700D01*
X176767142Y-108450942D01*
G37*
G36*
X150108228Y-105861703D02*
G01*
X150263100Y-105925853D01*
X150402481Y-106018985D01*
X150521015Y-106137519D01*
X150614147Y-106276900D01*
X150678297Y-106431772D01*
X150711000Y-106596184D01*
X150711000Y-106763816D01*
X150678297Y-106928228D01*
X150614147Y-107083100D01*
X150521015Y-107222481D01*
X150402481Y-107341015D01*
X150263100Y-107434147D01*
X150108228Y-107498297D01*
X149943816Y-107531000D01*
X149776184Y-107531000D01*
X149611772Y-107498297D01*
X149456900Y-107434147D01*
X149317519Y-107341015D01*
X149198985Y-107222481D01*
X149105853Y-107083100D01*
X149041703Y-106928228D01*
X149009000Y-106763816D01*
X149009000Y-106596184D01*
X149041703Y-106431772D01*
X149105853Y-106276900D01*
X149198985Y-106137519D01*
X149317519Y-106018985D01*
X149456900Y-105925853D01*
X149611772Y-105861703D01*
X149776184Y-105829000D01*
X149943816Y-105829000D01*
X150108228Y-105861703D01*
G37*
G36*
X167888228Y-105861703D02*
G01*
X168043100Y-105925853D01*
X168182481Y-106018985D01*
X168301015Y-106137519D01*
X168394147Y-106276900D01*
X168458297Y-106431772D01*
X168491000Y-106596184D01*
X168491000Y-106763816D01*
X168458297Y-106928228D01*
X168394147Y-107083100D01*
X168301015Y-107222481D01*
X168182481Y-107341015D01*
X168043100Y-107434147D01*
X167888228Y-107498297D01*
X167723816Y-107531000D01*
X167556184Y-107531000D01*
X167391772Y-107498297D01*
X167236900Y-107434147D01*
X167097519Y-107341015D01*
X166978985Y-107222481D01*
X166885853Y-107083100D01*
X166821703Y-106928228D01*
X166789000Y-106763816D01*
X166789000Y-106596184D01*
X166821703Y-106431772D01*
X166885853Y-106276900D01*
X166978985Y-106137519D01*
X167097519Y-106018985D01*
X167236900Y-105925853D01*
X167391772Y-105861703D01*
X167556184Y-105829000D01*
X167723816Y-105829000D01*
X167888228Y-105861703D01*
G37*
G36*
X152648228Y-105861703D02*
G01*
X152803100Y-105925853D01*
X152942481Y-106018985D01*
X153061015Y-106137519D01*
X153154147Y-106276900D01*
X153218297Y-106431772D01*
X153251000Y-106596184D01*
X153251000Y-106763816D01*
X153218297Y-106928228D01*
X153154147Y-107083100D01*
X153061015Y-107222481D01*
X152942481Y-107341015D01*
X152803100Y-107434147D01*
X152648228Y-107498297D01*
X152483816Y-107531000D01*
X152316184Y-107531000D01*
X152151772Y-107498297D01*
X151996900Y-107434147D01*
X151857519Y-107341015D01*
X151738985Y-107222481D01*
X151645853Y-107083100D01*
X151581703Y-106928228D01*
X151549000Y-106763816D01*
X151549000Y-106596184D01*
X151581703Y-106431772D01*
X151645853Y-106276900D01*
X151738985Y-106137519D01*
X151857519Y-106018985D01*
X151996900Y-105925853D01*
X152151772Y-105861703D01*
X152316184Y-105829000D01*
X152483816Y-105829000D01*
X152648228Y-105861703D01*
G37*
G36*
X155188228Y-105861703D02*
G01*
X155343100Y-105925853D01*
X155482481Y-106018985D01*
X155601015Y-106137519D01*
X155694147Y-106276900D01*
X155758297Y-106431772D01*
X155791000Y-106596184D01*
X155791000Y-106763816D01*
X155758297Y-106928228D01*
X155694147Y-107083100D01*
X155601015Y-107222481D01*
X155482481Y-107341015D01*
X155343100Y-107434147D01*
X155188228Y-107498297D01*
X155023816Y-107531000D01*
X154856184Y-107531000D01*
X154691772Y-107498297D01*
X154536900Y-107434147D01*
X154397519Y-107341015D01*
X154278985Y-107222481D01*
X154185853Y-107083100D01*
X154121703Y-106928228D01*
X154089000Y-106763816D01*
X154089000Y-106596184D01*
X154121703Y-106431772D01*
X154185853Y-106276900D01*
X154278985Y-106137519D01*
X154397519Y-106018985D01*
X154536900Y-105925853D01*
X154691772Y-105861703D01*
X154856184Y-105829000D01*
X155023816Y-105829000D01*
X155188228Y-105861703D01*
G37*
G36*
X157728228Y-105861703D02*
G01*
X157883100Y-105925853D01*
X158022481Y-106018985D01*
X158141015Y-106137519D01*
X158234147Y-106276900D01*
X158298297Y-106431772D01*
X158331000Y-106596184D01*
X158331000Y-106763816D01*
X158298297Y-106928228D01*
X158234147Y-107083100D01*
X158141015Y-107222481D01*
X158022481Y-107341015D01*
X157883100Y-107434147D01*
X157728228Y-107498297D01*
X157563816Y-107531000D01*
X157396184Y-107531000D01*
X157231772Y-107498297D01*
X157076900Y-107434147D01*
X156937519Y-107341015D01*
X156818985Y-107222481D01*
X156725853Y-107083100D01*
X156661703Y-106928228D01*
X156629000Y-106763816D01*
X156629000Y-106596184D01*
X156661703Y-106431772D01*
X156725853Y-106276900D01*
X156818985Y-106137519D01*
X156937519Y-106018985D01*
X157076900Y-105925853D01*
X157231772Y-105861703D01*
X157396184Y-105829000D01*
X157563816Y-105829000D01*
X157728228Y-105861703D01*
G37*
G36*
X165348228Y-105861703D02*
G01*
X165503100Y-105925853D01*
X165642481Y-106018985D01*
X165761015Y-106137519D01*
X165854147Y-106276900D01*
X165918297Y-106431772D01*
X165951000Y-106596184D01*
X165951000Y-106763816D01*
X165918297Y-106928228D01*
X165854147Y-107083100D01*
X165761015Y-107222481D01*
X165642481Y-107341015D01*
X165503100Y-107434147D01*
X165348228Y-107498297D01*
X165183816Y-107531000D01*
X165016184Y-107531000D01*
X164851772Y-107498297D01*
X164696900Y-107434147D01*
X164557519Y-107341015D01*
X164438985Y-107222481D01*
X164345853Y-107083100D01*
X164281703Y-106928228D01*
X164249000Y-106763816D01*
X164249000Y-106596184D01*
X164281703Y-106431772D01*
X164345853Y-106276900D01*
X164438985Y-106137519D01*
X164557519Y-106018985D01*
X164696900Y-105925853D01*
X164851772Y-105861703D01*
X165016184Y-105829000D01*
X165183816Y-105829000D01*
X165348228Y-105861703D01*
G37*
G36*
X162808228Y-105861703D02*
G01*
X162963100Y-105925853D01*
X163102481Y-106018985D01*
X163221015Y-106137519D01*
X163314147Y-106276900D01*
X163378297Y-106431772D01*
X163411000Y-106596184D01*
X163411000Y-106763816D01*
X163378297Y-106928228D01*
X163314147Y-107083100D01*
X163221015Y-107222481D01*
X163102481Y-107341015D01*
X162963100Y-107434147D01*
X162808228Y-107498297D01*
X162643816Y-107531000D01*
X162476184Y-107531000D01*
X162311772Y-107498297D01*
X162156900Y-107434147D01*
X162017519Y-107341015D01*
X161898985Y-107222481D01*
X161805853Y-107083100D01*
X161741703Y-106928228D01*
X161709000Y-106763816D01*
X161709000Y-106596184D01*
X161741703Y-106431772D01*
X161805853Y-106276900D01*
X161898985Y-106137519D01*
X162017519Y-106018985D01*
X162156900Y-105925853D01*
X162311772Y-105861703D01*
X162476184Y-105829000D01*
X162643816Y-105829000D01*
X162808228Y-105861703D01*
G37*
G36*
X160268228Y-105861703D02*
G01*
X160423100Y-105925853D01*
X160562481Y-106018985D01*
X160681015Y-106137519D01*
X160774147Y-106276900D01*
X160838297Y-106431772D01*
X160871000Y-106596184D01*
X160871000Y-106763816D01*
X160838297Y-106928228D01*
X160774147Y-107083100D01*
X160681015Y-107222481D01*
X160562481Y-107341015D01*
X160423100Y-107434147D01*
X160268228Y-107498297D01*
X160103816Y-107531000D01*
X159936184Y-107531000D01*
X159771772Y-107498297D01*
X159616900Y-107434147D01*
X159477519Y-107341015D01*
X159358985Y-107222481D01*
X159265853Y-107083100D01*
X159201703Y-106928228D01*
X159169000Y-106763816D01*
X159169000Y-106596184D01*
X159201703Y-106431772D01*
X159265853Y-106276900D01*
X159358985Y-106137519D01*
X159477519Y-106018985D01*
X159616900Y-105925853D01*
X159771772Y-105861703D01*
X159936184Y-105829000D01*
X160103816Y-105829000D01*
X160268228Y-105861703D01*
G37*
G36*
X174227142Y-105910942D02*
G01*
X174375101Y-105972229D01*
X174508255Y-106061199D01*
X174621501Y-106174445D01*
X174710471Y-106307599D01*
X174771758Y-106455558D01*
X174803000Y-106612625D01*
X174803000Y-106772775D01*
X174771758Y-106929842D01*
X174710471Y-107077801D01*
X174621501Y-107210955D01*
X174508255Y-107324201D01*
X174375101Y-107413171D01*
X174227142Y-107474458D01*
X174070075Y-107505700D01*
X173909925Y-107505700D01*
X173752858Y-107474458D01*
X173604899Y-107413171D01*
X173471745Y-107324201D01*
X173358499Y-107210955D01*
X173269529Y-107077801D01*
X173208242Y-106929842D01*
X173177000Y-106772775D01*
X173177000Y-106612625D01*
X173208242Y-106455558D01*
X173269529Y-106307599D01*
X173358499Y-106174445D01*
X173471745Y-106061199D01*
X173604899Y-105972229D01*
X173752858Y-105910942D01*
X173909925Y-105879700D01*
X174070075Y-105879700D01*
X174227142Y-105910942D01*
G37*
G36*
X176767142Y-105910942D02*
G01*
X176915101Y-105972229D01*
X177048255Y-106061199D01*
X177161501Y-106174445D01*
X177250471Y-106307599D01*
X177311758Y-106455558D01*
X177343000Y-106612625D01*
X177343000Y-106772775D01*
X177311758Y-106929842D01*
X177250471Y-107077801D01*
X177161501Y-107210955D01*
X177048255Y-107324201D01*
X176915101Y-107413171D01*
X176767142Y-107474458D01*
X176610075Y-107505700D01*
X176449925Y-107505700D01*
X176292858Y-107474458D01*
X176144899Y-107413171D01*
X176011745Y-107324201D01*
X175898499Y-107210955D01*
X175809529Y-107077801D01*
X175748242Y-106929842D01*
X175717000Y-106772775D01*
X175717000Y-106612625D01*
X175748242Y-106455558D01*
X175809529Y-106307599D01*
X175898499Y-106174445D01*
X176011745Y-106061199D01*
X176144899Y-105972229D01*
X176292858Y-105910942D01*
X176449925Y-105879700D01*
X176610075Y-105879700D01*
X176767142Y-105910942D01*
G37*
G36*
X107606000Y-106336000D02*
G01*
X105754000Y-106336000D01*
X105754000Y-104484000D01*
X107606000Y-104484000D01*
X107606000Y-106336000D01*
G37*
G36*
X176767142Y-103370942D02*
G01*
X176915101Y-103432229D01*
X177048255Y-103521199D01*
X177161501Y-103634445D01*
X177250471Y-103767599D01*
X177311758Y-103915558D01*
X177343000Y-104072625D01*
X177343000Y-104232775D01*
X177311758Y-104389842D01*
X177250471Y-104537801D01*
X177161501Y-104670955D01*
X177048255Y-104784201D01*
X176915101Y-104873171D01*
X176767142Y-104934458D01*
X176610075Y-104965700D01*
X176449925Y-104965700D01*
X176292858Y-104934458D01*
X176144899Y-104873171D01*
X176011745Y-104784201D01*
X175898499Y-104670955D01*
X175809529Y-104537801D01*
X175748242Y-104389842D01*
X175717000Y-104232775D01*
X175717000Y-104072625D01*
X175748242Y-103915558D01*
X175809529Y-103767599D01*
X175898499Y-103634445D01*
X176011745Y-103521199D01*
X176144899Y-103432229D01*
X176292858Y-103370942D01*
X176449925Y-103339700D01*
X176610075Y-103339700D01*
X176767142Y-103370942D01*
G37*
G36*
X174227142Y-103370942D02*
G01*
X174375101Y-103432229D01*
X174508255Y-103521199D01*
X174621501Y-103634445D01*
X174710471Y-103767599D01*
X174771758Y-103915558D01*
X174803000Y-104072625D01*
X174803000Y-104232775D01*
X174771758Y-104389842D01*
X174710471Y-104537801D01*
X174621501Y-104670955D01*
X174508255Y-104784201D01*
X174375101Y-104873171D01*
X174227142Y-104934458D01*
X174070075Y-104965700D01*
X173909925Y-104965700D01*
X173752858Y-104934458D01*
X173604899Y-104873171D01*
X173471745Y-104784201D01*
X173358499Y-104670955D01*
X173269529Y-104537801D01*
X173208242Y-104389842D01*
X173177000Y-104232775D01*
X173177000Y-104072625D01*
X173208242Y-103915558D01*
X173269529Y-103767599D01*
X173358499Y-103634445D01*
X173471745Y-103521199D01*
X173604899Y-103432229D01*
X173752858Y-103370942D01*
X173909925Y-103339700D01*
X174070075Y-103339700D01*
X174227142Y-103370942D01*
G37*
G36*
X106950104Y-102019585D02*
G01*
X107118626Y-102089389D01*
X107270291Y-102190728D01*
X107399272Y-102319709D01*
X107500611Y-102471374D01*
X107570415Y-102639896D01*
X107606000Y-102818797D01*
X107606000Y-103001203D01*
X107570415Y-103180104D01*
X107500611Y-103348626D01*
X107399272Y-103500291D01*
X107270291Y-103629272D01*
X107118626Y-103730611D01*
X106950104Y-103800415D01*
X106771203Y-103836000D01*
X106588797Y-103836000D01*
X106409896Y-103800415D01*
X106241374Y-103730611D01*
X106089709Y-103629272D01*
X105960728Y-103500291D01*
X105859389Y-103348626D01*
X105789585Y-103180104D01*
X105754000Y-103001203D01*
X105754000Y-102818797D01*
X105789585Y-102639896D01*
X105859389Y-102471374D01*
X105960728Y-102319709D01*
X106089709Y-102190728D01*
X106241374Y-102089389D01*
X106409896Y-102019585D01*
X106588797Y-101984000D01*
X106771203Y-101984000D01*
X106950104Y-102019585D01*
G37*
G36*
X176767142Y-100830942D02*
G01*
X176915101Y-100892229D01*
X177048255Y-100981199D01*
X177161501Y-101094445D01*
X177250471Y-101227599D01*
X177311758Y-101375558D01*
X177343000Y-101532625D01*
X177343000Y-101692775D01*
X177311758Y-101849842D01*
X177250471Y-101997801D01*
X177161501Y-102130955D01*
X177048255Y-102244201D01*
X176915101Y-102333171D01*
X176767142Y-102394458D01*
X176610075Y-102425700D01*
X176449925Y-102425700D01*
X176292858Y-102394458D01*
X176144899Y-102333171D01*
X176011745Y-102244201D01*
X175898499Y-102130955D01*
X175809529Y-101997801D01*
X175748242Y-101849842D01*
X175717000Y-101692775D01*
X175717000Y-101532625D01*
X175748242Y-101375558D01*
X175809529Y-101227599D01*
X175898499Y-101094445D01*
X176011745Y-100981199D01*
X176144899Y-100892229D01*
X176292858Y-100830942D01*
X176449925Y-100799700D01*
X176610075Y-100799700D01*
X176767142Y-100830942D01*
G37*
G36*
X174227142Y-100830942D02*
G01*
X174375101Y-100892229D01*
X174508255Y-100981199D01*
X174621501Y-101094445D01*
X174710471Y-101227599D01*
X174771758Y-101375558D01*
X174803000Y-101532625D01*
X174803000Y-101692775D01*
X174771758Y-101849842D01*
X174710471Y-101997801D01*
X174621501Y-102130955D01*
X174508255Y-102244201D01*
X174375101Y-102333171D01*
X174227142Y-102394458D01*
X174070075Y-102425700D01*
X173909925Y-102425700D01*
X173752858Y-102394458D01*
X173604899Y-102333171D01*
X173471745Y-102244201D01*
X173358499Y-102130955D01*
X173269529Y-101997801D01*
X173208242Y-101849842D01*
X173177000Y-101692775D01*
X173177000Y-101532625D01*
X173208242Y-101375558D01*
X173269529Y-101227599D01*
X173358499Y-101094445D01*
X173471745Y-100981199D01*
X173604899Y-100892229D01*
X173752858Y-100830942D01*
X173909925Y-100799700D01*
X174070075Y-100799700D01*
X174227142Y-100830942D01*
G37*
G36*
X106950104Y-99519585D02*
G01*
X107118626Y-99589389D01*
X107270291Y-99690728D01*
X107399272Y-99819709D01*
X107500611Y-99971374D01*
X107570415Y-100139896D01*
X107606000Y-100318797D01*
X107606000Y-100501203D01*
X107570415Y-100680104D01*
X107500611Y-100848626D01*
X107399272Y-101000291D01*
X107270291Y-101129272D01*
X107118626Y-101230611D01*
X106950104Y-101300415D01*
X106771203Y-101336000D01*
X106588797Y-101336000D01*
X106409896Y-101300415D01*
X106241374Y-101230611D01*
X106089709Y-101129272D01*
X105960728Y-101000291D01*
X105859389Y-100848626D01*
X105789585Y-100680104D01*
X105754000Y-100501203D01*
X105754000Y-100318797D01*
X105789585Y-100139896D01*
X105859389Y-99971374D01*
X105960728Y-99819709D01*
X106089709Y-99690728D01*
X106241374Y-99589389D01*
X106409896Y-99519585D01*
X106588797Y-99484000D01*
X106771203Y-99484000D01*
X106950104Y-99519585D01*
G37*
G36*
X176767142Y-98290942D02*
G01*
X176915101Y-98352229D01*
X177048255Y-98441199D01*
X177161501Y-98554445D01*
X177250471Y-98687599D01*
X177311758Y-98835558D01*
X177343000Y-98992625D01*
X177343000Y-99152775D01*
X177311758Y-99309842D01*
X177250471Y-99457801D01*
X177161501Y-99590955D01*
X177048255Y-99704201D01*
X176915101Y-99793171D01*
X176767142Y-99854458D01*
X176610075Y-99885700D01*
X176449925Y-99885700D01*
X176292858Y-99854458D01*
X176144899Y-99793171D01*
X176011745Y-99704201D01*
X175898499Y-99590955D01*
X175809529Y-99457801D01*
X175748242Y-99309842D01*
X175717000Y-99152775D01*
X175717000Y-98992625D01*
X175748242Y-98835558D01*
X175809529Y-98687599D01*
X175898499Y-98554445D01*
X176011745Y-98441199D01*
X176144899Y-98352229D01*
X176292858Y-98290942D01*
X176449925Y-98259700D01*
X176610075Y-98259700D01*
X176767142Y-98290942D01*
G37*
G36*
X174227142Y-98290942D02*
G01*
X174375101Y-98352229D01*
X174508255Y-98441199D01*
X174621501Y-98554445D01*
X174710471Y-98687599D01*
X174771758Y-98835558D01*
X174803000Y-98992625D01*
X174803000Y-99152775D01*
X174771758Y-99309842D01*
X174710471Y-99457801D01*
X174621501Y-99590955D01*
X174508255Y-99704201D01*
X174375101Y-99793171D01*
X174227142Y-99854458D01*
X174070075Y-99885700D01*
X173909925Y-99885700D01*
X173752858Y-99854458D01*
X173604899Y-99793171D01*
X173471745Y-99704201D01*
X173358499Y-99590955D01*
X173269529Y-99457801D01*
X173208242Y-99309842D01*
X173177000Y-99152775D01*
X173177000Y-98992625D01*
X173208242Y-98835558D01*
X173269529Y-98687599D01*
X173358499Y-98554445D01*
X173471745Y-98441199D01*
X173604899Y-98352229D01*
X173752858Y-98290942D01*
X173909925Y-98259700D01*
X174070075Y-98259700D01*
X174227142Y-98290942D01*
G37*
G36*
X106950104Y-97019585D02*
G01*
X107118626Y-97089389D01*
X107270291Y-97190728D01*
X107399272Y-97319709D01*
X107500611Y-97471374D01*
X107570415Y-97639896D01*
X107606000Y-97818797D01*
X107606000Y-98001203D01*
X107570415Y-98180104D01*
X107500611Y-98348626D01*
X107399272Y-98500291D01*
X107270291Y-98629272D01*
X107118626Y-98730611D01*
X106950104Y-98800415D01*
X106771203Y-98836000D01*
X106588797Y-98836000D01*
X106409896Y-98800415D01*
X106241374Y-98730611D01*
X106089709Y-98629272D01*
X105960728Y-98500291D01*
X105859389Y-98348626D01*
X105789585Y-98180104D01*
X105754000Y-98001203D01*
X105754000Y-97818797D01*
X105789585Y-97639896D01*
X105859389Y-97471374D01*
X105960728Y-97319709D01*
X106089709Y-97190728D01*
X106241374Y-97089389D01*
X106409896Y-97019585D01*
X106588797Y-96984000D01*
X106771203Y-96984000D01*
X106950104Y-97019585D01*
G37*
G36*
X133006000Y-97446000D02*
G01*
X131154000Y-97446000D01*
X131154000Y-95594000D01*
X133006000Y-95594000D01*
X133006000Y-97446000D01*
G37*
G36*
X129850104Y-95629585D02*
G01*
X130018626Y-95699389D01*
X130170291Y-95800728D01*
X130299272Y-95929709D01*
X130400611Y-96081374D01*
X130470415Y-96249896D01*
X130506000Y-96428797D01*
X130506000Y-96611203D01*
X130470415Y-96790104D01*
X130400611Y-96958626D01*
X130299272Y-97110291D01*
X130170291Y-97239272D01*
X130018626Y-97340611D01*
X129850104Y-97410415D01*
X129671203Y-97446000D01*
X129488797Y-97446000D01*
X129309896Y-97410415D01*
X129141374Y-97340611D01*
X128989709Y-97239272D01*
X128860728Y-97110291D01*
X128759389Y-96958626D01*
X128689585Y-96790104D01*
X128654000Y-96611203D01*
X128654000Y-96428797D01*
X128689585Y-96249896D01*
X128759389Y-96081374D01*
X128860728Y-95929709D01*
X128989709Y-95800728D01*
X129141374Y-95699389D01*
X129309896Y-95629585D01*
X129488797Y-95594000D01*
X129671203Y-95594000D01*
X129850104Y-95629585D01*
G37*
G36*
X127350104Y-95629585D02*
G01*
X127518626Y-95699389D01*
X127670291Y-95800728D01*
X127799272Y-95929709D01*
X127900611Y-96081374D01*
X127970415Y-96249896D01*
X128006000Y-96428797D01*
X128006000Y-96611203D01*
X127970415Y-96790104D01*
X127900611Y-96958626D01*
X127799272Y-97110291D01*
X127670291Y-97239272D01*
X127518626Y-97340611D01*
X127350104Y-97410415D01*
X127171203Y-97446000D01*
X126988797Y-97446000D01*
X126809896Y-97410415D01*
X126641374Y-97340611D01*
X126489709Y-97239272D01*
X126360728Y-97110291D01*
X126259389Y-96958626D01*
X126189585Y-96790104D01*
X126154000Y-96611203D01*
X126154000Y-96428797D01*
X126189585Y-96249896D01*
X126259389Y-96081374D01*
X126360728Y-95929709D01*
X126489709Y-95800728D01*
X126641374Y-95699389D01*
X126809896Y-95629585D01*
X126988797Y-95594000D01*
X127171203Y-95594000D01*
X127350104Y-95629585D01*
G37*
G36*
X124850104Y-95629585D02*
G01*
X125018626Y-95699389D01*
X125170291Y-95800728D01*
X125299272Y-95929709D01*
X125400611Y-96081374D01*
X125470415Y-96249896D01*
X125506000Y-96428797D01*
X125506000Y-96611203D01*
X125470415Y-96790104D01*
X125400611Y-96958626D01*
X125299272Y-97110291D01*
X125170291Y-97239272D01*
X125018626Y-97340611D01*
X124850104Y-97410415D01*
X124671203Y-97446000D01*
X124488797Y-97446000D01*
X124309896Y-97410415D01*
X124141374Y-97340611D01*
X123989709Y-97239272D01*
X123860728Y-97110291D01*
X123759389Y-96958626D01*
X123689585Y-96790104D01*
X123654000Y-96611203D01*
X123654000Y-96428797D01*
X123689585Y-96249896D01*
X123759389Y-96081374D01*
X123860728Y-95929709D01*
X123989709Y-95800728D01*
X124141374Y-95699389D01*
X124309896Y-95629585D01*
X124488797Y-95594000D01*
X124671203Y-95594000D01*
X124850104Y-95629585D01*
G37*
G36*
X176767142Y-95750942D02*
G01*
X176915101Y-95812229D01*
X177048255Y-95901199D01*
X177161501Y-96014445D01*
X177250471Y-96147599D01*
X177311758Y-96295558D01*
X177343000Y-96452625D01*
X177343000Y-96612775D01*
X177311758Y-96769842D01*
X177250471Y-96917801D01*
X177161501Y-97050955D01*
X177048255Y-97164201D01*
X176915101Y-97253171D01*
X176767142Y-97314458D01*
X176610075Y-97345700D01*
X176449925Y-97345700D01*
X176292858Y-97314458D01*
X176144899Y-97253171D01*
X176011745Y-97164201D01*
X175898499Y-97050955D01*
X175809529Y-96917801D01*
X175748242Y-96769842D01*
X175717000Y-96612775D01*
X175717000Y-96452625D01*
X175748242Y-96295558D01*
X175809529Y-96147599D01*
X175898499Y-96014445D01*
X176011745Y-95901199D01*
X176144899Y-95812229D01*
X176292858Y-95750942D01*
X176449925Y-95719700D01*
X176610075Y-95719700D01*
X176767142Y-95750942D01*
G37*
G36*
X174227142Y-95750942D02*
G01*
X174375101Y-95812229D01*
X174508255Y-95901199D01*
X174621501Y-96014445D01*
X174710471Y-96147599D01*
X174771758Y-96295558D01*
X174803000Y-96452625D01*
X174803000Y-96612775D01*
X174771758Y-96769842D01*
X174710471Y-96917801D01*
X174621501Y-97050955D01*
X174508255Y-97164201D01*
X174375101Y-97253171D01*
X174227142Y-97314458D01*
X174070075Y-97345700D01*
X173909925Y-97345700D01*
X173752858Y-97314458D01*
X173604899Y-97253171D01*
X173471745Y-97164201D01*
X173358499Y-97050955D01*
X173269529Y-96917801D01*
X173208242Y-96769842D01*
X173177000Y-96612775D01*
X173177000Y-96452625D01*
X173208242Y-96295558D01*
X173269529Y-96147599D01*
X173358499Y-96014445D01*
X173471745Y-95901199D01*
X173604899Y-95812229D01*
X173752858Y-95750942D01*
X173909925Y-95719700D01*
X174070075Y-95719700D01*
X174227142Y-95750942D01*
G37*
G36*
X106950104Y-94519585D02*
G01*
X107118626Y-94589389D01*
X107270291Y-94690728D01*
X107399272Y-94819709D01*
X107500611Y-94971374D01*
X107570415Y-95139896D01*
X107606000Y-95318797D01*
X107606000Y-95501203D01*
X107570415Y-95680104D01*
X107500611Y-95848626D01*
X107399272Y-96000291D01*
X107270291Y-96129272D01*
X107118626Y-96230611D01*
X106950104Y-96300415D01*
X106771203Y-96336000D01*
X106588797Y-96336000D01*
X106409896Y-96300415D01*
X106241374Y-96230611D01*
X106089709Y-96129272D01*
X105960728Y-96000291D01*
X105859389Y-95848626D01*
X105789585Y-95680104D01*
X105754000Y-95501203D01*
X105754000Y-95318797D01*
X105789585Y-95139896D01*
X105859389Y-94971374D01*
X105960728Y-94819709D01*
X106089709Y-94690728D01*
X106241374Y-94589389D01*
X106409896Y-94519585D01*
X106588797Y-94484000D01*
X106771203Y-94484000D01*
X106950104Y-94519585D01*
G37*
G36*
X118358228Y-94431703D02*
G01*
X118513100Y-94495853D01*
X118652481Y-94588985D01*
X118771015Y-94707519D01*
X118864147Y-94846900D01*
X118928297Y-95001772D01*
X118961000Y-95166184D01*
X118961000Y-95333816D01*
X118928297Y-95498228D01*
X118864147Y-95653100D01*
X118771015Y-95792481D01*
X118652481Y-95911015D01*
X118513100Y-96004147D01*
X118358228Y-96068297D01*
X118193816Y-96101000D01*
X118026184Y-96101000D01*
X117861772Y-96068297D01*
X117706900Y-96004147D01*
X117567519Y-95911015D01*
X117448985Y-95792481D01*
X117355853Y-95653100D01*
X117291703Y-95498228D01*
X117259000Y-95333816D01*
X117259000Y-95166184D01*
X117291703Y-95001772D01*
X117355853Y-94846900D01*
X117448985Y-94707519D01*
X117567519Y-94588985D01*
X117706900Y-94495853D01*
X117861772Y-94431703D01*
X118026184Y-94399000D01*
X118193816Y-94399000D01*
X118358228Y-94431703D01*
G37*
G36*
X138678228Y-94431703D02*
G01*
X138833100Y-94495853D01*
X138972481Y-94588985D01*
X139091015Y-94707519D01*
X139184147Y-94846900D01*
X139248297Y-95001772D01*
X139281000Y-95166184D01*
X139281000Y-95333816D01*
X139248297Y-95498228D01*
X139184147Y-95653100D01*
X139091015Y-95792481D01*
X138972481Y-95911015D01*
X138833100Y-96004147D01*
X138678228Y-96068297D01*
X138513816Y-96101000D01*
X138346184Y-96101000D01*
X138181772Y-96068297D01*
X138026900Y-96004147D01*
X137887519Y-95911015D01*
X137768985Y-95792481D01*
X137675853Y-95653100D01*
X137611703Y-95498228D01*
X137579000Y-95333816D01*
X137579000Y-95166184D01*
X137611703Y-95001772D01*
X137675853Y-94846900D01*
X137768985Y-94707519D01*
X137887519Y-94588985D01*
X138026900Y-94495853D01*
X138181772Y-94431703D01*
X138346184Y-94399000D01*
X138513816Y-94399000D01*
X138678228Y-94431703D01*
G37*
G36*
X144281000Y-96101000D02*
G01*
X142579000Y-96101000D01*
X142579000Y-94399000D01*
X144281000Y-94399000D01*
X144281000Y-96101000D01*
G37*
G36*
X113358228Y-94431703D02*
G01*
X113513100Y-94495853D01*
X113652481Y-94588985D01*
X113771015Y-94707519D01*
X113864147Y-94846900D01*
X113928297Y-95001772D01*
X113961000Y-95166184D01*
X113961000Y-95333816D01*
X113928297Y-95498228D01*
X113864147Y-95653100D01*
X113771015Y-95792481D01*
X113652481Y-95911015D01*
X113513100Y-96004147D01*
X113358228Y-96068297D01*
X113193816Y-96101000D01*
X113026184Y-96101000D01*
X112861772Y-96068297D01*
X112706900Y-96004147D01*
X112567519Y-95911015D01*
X112448985Y-95792481D01*
X112355853Y-95653100D01*
X112291703Y-95498228D01*
X112259000Y-95333816D01*
X112259000Y-95166184D01*
X112291703Y-95001772D01*
X112355853Y-94846900D01*
X112448985Y-94707519D01*
X112567519Y-94588985D01*
X112706900Y-94495853D01*
X112861772Y-94431703D01*
X113026184Y-94399000D01*
X113193816Y-94399000D01*
X113358228Y-94431703D01*
G37*
G36*
X157728228Y-93161703D02*
G01*
X157883100Y-93225853D01*
X158022481Y-93318985D01*
X158141015Y-93437519D01*
X158234147Y-93576900D01*
X158298297Y-93731772D01*
X158331000Y-93896184D01*
X158331000Y-94063816D01*
X158298297Y-94228228D01*
X158234147Y-94383100D01*
X158141015Y-94522481D01*
X158022481Y-94641015D01*
X157883100Y-94734147D01*
X157728228Y-94798297D01*
X157563816Y-94831000D01*
X157396184Y-94831000D01*
X157231772Y-94798297D01*
X157076900Y-94734147D01*
X156937519Y-94641015D01*
X156818985Y-94522481D01*
X156725853Y-94383100D01*
X156661703Y-94228228D01*
X156629000Y-94063816D01*
X156629000Y-93896184D01*
X156661703Y-93731772D01*
X156725853Y-93576900D01*
X156818985Y-93437519D01*
X156937519Y-93318985D01*
X157076900Y-93225853D01*
X157231772Y-93161703D01*
X157396184Y-93129000D01*
X157563816Y-93129000D01*
X157728228Y-93161703D01*
G37*
G36*
X150108228Y-93161703D02*
G01*
X150263100Y-93225853D01*
X150402481Y-93318985D01*
X150521015Y-93437519D01*
X150614147Y-93576900D01*
X150678297Y-93731772D01*
X150711000Y-93896184D01*
X150711000Y-94063816D01*
X150678297Y-94228228D01*
X150614147Y-94383100D01*
X150521015Y-94522481D01*
X150402481Y-94641015D01*
X150263100Y-94734147D01*
X150108228Y-94798297D01*
X149943816Y-94831000D01*
X149776184Y-94831000D01*
X149611772Y-94798297D01*
X149456900Y-94734147D01*
X149317519Y-94641015D01*
X149198985Y-94522481D01*
X149105853Y-94383100D01*
X149041703Y-94228228D01*
X149009000Y-94063816D01*
X149009000Y-93896184D01*
X149041703Y-93731772D01*
X149105853Y-93576900D01*
X149198985Y-93437519D01*
X149317519Y-93318985D01*
X149456900Y-93225853D01*
X149611772Y-93161703D01*
X149776184Y-93129000D01*
X149943816Y-93129000D01*
X150108228Y-93161703D01*
G37*
G36*
X152648228Y-93161703D02*
G01*
X152803100Y-93225853D01*
X152942481Y-93318985D01*
X153061015Y-93437519D01*
X153154147Y-93576900D01*
X153218297Y-93731772D01*
X153251000Y-93896184D01*
X153251000Y-94063816D01*
X153218297Y-94228228D01*
X153154147Y-94383100D01*
X153061015Y-94522481D01*
X152942481Y-94641015D01*
X152803100Y-94734147D01*
X152648228Y-94798297D01*
X152483816Y-94831000D01*
X152316184Y-94831000D01*
X152151772Y-94798297D01*
X151996900Y-94734147D01*
X151857519Y-94641015D01*
X151738985Y-94522481D01*
X151645853Y-94383100D01*
X151581703Y-94228228D01*
X151549000Y-94063816D01*
X151549000Y-93896184D01*
X151581703Y-93731772D01*
X151645853Y-93576900D01*
X151738985Y-93437519D01*
X151857519Y-93318985D01*
X151996900Y-93225853D01*
X152151772Y-93161703D01*
X152316184Y-93129000D01*
X152483816Y-93129000D01*
X152648228Y-93161703D01*
G37*
G36*
X155188228Y-93161703D02*
G01*
X155343100Y-93225853D01*
X155482481Y-93318985D01*
X155601015Y-93437519D01*
X155694147Y-93576900D01*
X155758297Y-93731772D01*
X155791000Y-93896184D01*
X155791000Y-94063816D01*
X155758297Y-94228228D01*
X155694147Y-94383100D01*
X155601015Y-94522481D01*
X155482481Y-94641015D01*
X155343100Y-94734147D01*
X155188228Y-94798297D01*
X155023816Y-94831000D01*
X154856184Y-94831000D01*
X154691772Y-94798297D01*
X154536900Y-94734147D01*
X154397519Y-94641015D01*
X154278985Y-94522481D01*
X154185853Y-94383100D01*
X154121703Y-94228228D01*
X154089000Y-94063816D01*
X154089000Y-93896184D01*
X154121703Y-93731772D01*
X154185853Y-93576900D01*
X154278985Y-93437519D01*
X154397519Y-93318985D01*
X154536900Y-93225853D01*
X154691772Y-93161703D01*
X154856184Y-93129000D01*
X155023816Y-93129000D01*
X155188228Y-93161703D01*
G37*
G36*
X160268228Y-93161703D02*
G01*
X160423100Y-93225853D01*
X160562481Y-93318985D01*
X160681015Y-93437519D01*
X160774147Y-93576900D01*
X160838297Y-93731772D01*
X160871000Y-93896184D01*
X160871000Y-94063816D01*
X160838297Y-94228228D01*
X160774147Y-94383100D01*
X160681015Y-94522481D01*
X160562481Y-94641015D01*
X160423100Y-94734147D01*
X160268228Y-94798297D01*
X160103816Y-94831000D01*
X159936184Y-94831000D01*
X159771772Y-94798297D01*
X159616900Y-94734147D01*
X159477519Y-94641015D01*
X159358985Y-94522481D01*
X159265853Y-94383100D01*
X159201703Y-94228228D01*
X159169000Y-94063816D01*
X159169000Y-93896184D01*
X159201703Y-93731772D01*
X159265853Y-93576900D01*
X159358985Y-93437519D01*
X159477519Y-93318985D01*
X159616900Y-93225853D01*
X159771772Y-93161703D01*
X159936184Y-93129000D01*
X160103816Y-93129000D01*
X160268228Y-93161703D01*
G37*
G36*
X162808228Y-93161703D02*
G01*
X162963100Y-93225853D01*
X163102481Y-93318985D01*
X163221015Y-93437519D01*
X163314147Y-93576900D01*
X163378297Y-93731772D01*
X163411000Y-93896184D01*
X163411000Y-94063816D01*
X163378297Y-94228228D01*
X163314147Y-94383100D01*
X163221015Y-94522481D01*
X163102481Y-94641015D01*
X162963100Y-94734147D01*
X162808228Y-94798297D01*
X162643816Y-94831000D01*
X162476184Y-94831000D01*
X162311772Y-94798297D01*
X162156900Y-94734147D01*
X162017519Y-94641015D01*
X161898985Y-94522481D01*
X161805853Y-94383100D01*
X161741703Y-94228228D01*
X161709000Y-94063816D01*
X161709000Y-93896184D01*
X161741703Y-93731772D01*
X161805853Y-93576900D01*
X161898985Y-93437519D01*
X162017519Y-93318985D01*
X162156900Y-93225853D01*
X162311772Y-93161703D01*
X162476184Y-93129000D01*
X162643816Y-93129000D01*
X162808228Y-93161703D01*
G37*
G36*
X168491000Y-94831000D02*
G01*
X166789000Y-94831000D01*
X166789000Y-93129000D01*
X168491000Y-93129000D01*
X168491000Y-94831000D01*
G37*
G36*
X165348228Y-93161703D02*
G01*
X165503100Y-93225853D01*
X165642481Y-93318985D01*
X165761015Y-93437519D01*
X165854147Y-93576900D01*
X165918297Y-93731772D01*
X165951000Y-93896184D01*
X165951000Y-94063816D01*
X165918297Y-94228228D01*
X165854147Y-94383100D01*
X165761015Y-94522481D01*
X165642481Y-94641015D01*
X165503100Y-94734147D01*
X165348228Y-94798297D01*
X165183816Y-94831000D01*
X165016184Y-94831000D01*
X164851772Y-94798297D01*
X164696900Y-94734147D01*
X164557519Y-94641015D01*
X164438985Y-94522481D01*
X164345853Y-94383100D01*
X164281703Y-94228228D01*
X164249000Y-94063816D01*
X164249000Y-93896184D01*
X164281703Y-93731772D01*
X164345853Y-93576900D01*
X164438985Y-93437519D01*
X164557519Y-93318985D01*
X164696900Y-93225853D01*
X164851772Y-93161703D01*
X165016184Y-93129000D01*
X165183816Y-93129000D01*
X165348228Y-93161703D01*
G37*
G36*
X174227142Y-93210942D02*
G01*
X174375101Y-93272229D01*
X174508255Y-93361199D01*
X174621501Y-93474445D01*
X174710471Y-93607599D01*
X174771758Y-93755558D01*
X174803000Y-93912625D01*
X174803000Y-94072775D01*
X174771758Y-94229842D01*
X174710471Y-94377801D01*
X174621501Y-94510955D01*
X174508255Y-94624201D01*
X174375101Y-94713171D01*
X174227142Y-94774458D01*
X174070075Y-94805700D01*
X173909925Y-94805700D01*
X173752858Y-94774458D01*
X173604899Y-94713171D01*
X173471745Y-94624201D01*
X173358499Y-94510955D01*
X173269529Y-94377801D01*
X173208242Y-94229842D01*
X173177000Y-94072775D01*
X173177000Y-93912625D01*
X173208242Y-93755558D01*
X173269529Y-93607599D01*
X173358499Y-93474445D01*
X173471745Y-93361199D01*
X173604899Y-93272229D01*
X173752858Y-93210942D01*
X173909925Y-93179700D01*
X174070075Y-93179700D01*
X174227142Y-93210942D01*
G37*
G36*
X176767142Y-93210942D02*
G01*
X176915101Y-93272229D01*
X177048255Y-93361199D01*
X177161501Y-93474445D01*
X177250471Y-93607599D01*
X177311758Y-93755558D01*
X177343000Y-93912625D01*
X177343000Y-94072775D01*
X177311758Y-94229842D01*
X177250471Y-94377801D01*
X177161501Y-94510955D01*
X177048255Y-94624201D01*
X176915101Y-94713171D01*
X176767142Y-94774458D01*
X176610075Y-94805700D01*
X176449925Y-94805700D01*
X176292858Y-94774458D01*
X176144899Y-94713171D01*
X176011745Y-94624201D01*
X175898499Y-94510955D01*
X175809529Y-94377801D01*
X175748242Y-94229842D01*
X175717000Y-94072775D01*
X175717000Y-93912625D01*
X175748242Y-93755558D01*
X175809529Y-93607599D01*
X175898499Y-93474445D01*
X176011745Y-93361199D01*
X176144899Y-93272229D01*
X176292858Y-93210942D01*
X176449925Y-93179700D01*
X176610075Y-93179700D01*
X176767142Y-93210942D01*
G37*
G36*
X174227142Y-90670942D02*
G01*
X174375101Y-90732229D01*
X174508255Y-90821199D01*
X174621501Y-90934445D01*
X174710471Y-91067599D01*
X174771758Y-91215558D01*
X174803000Y-91372625D01*
X174803000Y-91532775D01*
X174771758Y-91689842D01*
X174710471Y-91837801D01*
X174621501Y-91970955D01*
X174508255Y-92084201D01*
X174375101Y-92173171D01*
X174227142Y-92234458D01*
X174070075Y-92265700D01*
X173909925Y-92265700D01*
X173752858Y-92234458D01*
X173604899Y-92173171D01*
X173471745Y-92084201D01*
X173358499Y-91970955D01*
X173269529Y-91837801D01*
X173208242Y-91689842D01*
X173177000Y-91532775D01*
X173177000Y-91372625D01*
X173208242Y-91215558D01*
X173269529Y-91067599D01*
X173358499Y-90934445D01*
X173471745Y-90821199D01*
X173604899Y-90732229D01*
X173752858Y-90670942D01*
X173909925Y-90639700D01*
X174070075Y-90639700D01*
X174227142Y-90670942D01*
G37*
G36*
X176767142Y-90670942D02*
G01*
X176915101Y-90732229D01*
X177048255Y-90821199D01*
X177161501Y-90934445D01*
X177250471Y-91067599D01*
X177311758Y-91215558D01*
X177343000Y-91372625D01*
X177343000Y-91532775D01*
X177311758Y-91689842D01*
X177250471Y-91837801D01*
X177161501Y-91970955D01*
X177048255Y-92084201D01*
X176915101Y-92173171D01*
X176767142Y-92234458D01*
X176610075Y-92265700D01*
X176449925Y-92265700D01*
X176292858Y-92234458D01*
X176144899Y-92173171D01*
X176011745Y-92084201D01*
X175898499Y-91970955D01*
X175809529Y-91837801D01*
X175748242Y-91689842D01*
X175717000Y-91532775D01*
X175717000Y-91372625D01*
X175748242Y-91215558D01*
X175809529Y-91067599D01*
X175898499Y-90934445D01*
X176011745Y-90821199D01*
X176144899Y-90732229D01*
X176292858Y-90670942D01*
X176449925Y-90639700D01*
X176610075Y-90639700D01*
X176767142Y-90670942D01*
G37*
G36*
X176767142Y-88130942D02*
G01*
X176915101Y-88192229D01*
X177048255Y-88281199D01*
X177161501Y-88394445D01*
X177250471Y-88527599D01*
X177311758Y-88675558D01*
X177343000Y-88832625D01*
X177343000Y-88992775D01*
X177311758Y-89149842D01*
X177250471Y-89297801D01*
X177161501Y-89430955D01*
X177048255Y-89544201D01*
X176915101Y-89633171D01*
X176767142Y-89694458D01*
X176610075Y-89725700D01*
X176449925Y-89725700D01*
X176292858Y-89694458D01*
X176144899Y-89633171D01*
X176011745Y-89544201D01*
X175898499Y-89430955D01*
X175809529Y-89297801D01*
X175748242Y-89149842D01*
X175717000Y-88992775D01*
X175717000Y-88832625D01*
X175748242Y-88675558D01*
X175809529Y-88527599D01*
X175898499Y-88394445D01*
X176011745Y-88281199D01*
X176144899Y-88192229D01*
X176292858Y-88130942D01*
X176449925Y-88099700D01*
X176610075Y-88099700D01*
X176767142Y-88130942D01*
G37*
G36*
X174227142Y-88130942D02*
G01*
X174375101Y-88192229D01*
X174508255Y-88281199D01*
X174621501Y-88394445D01*
X174710471Y-88527599D01*
X174771758Y-88675558D01*
X174803000Y-88832625D01*
X174803000Y-88992775D01*
X174771758Y-89149842D01*
X174710471Y-89297801D01*
X174621501Y-89430955D01*
X174508255Y-89544201D01*
X174375101Y-89633171D01*
X174227142Y-89694458D01*
X174070075Y-89725700D01*
X173909925Y-89725700D01*
X173752858Y-89694458D01*
X173604899Y-89633171D01*
X173471745Y-89544201D01*
X173358499Y-89430955D01*
X173269529Y-89297801D01*
X173208242Y-89149842D01*
X173177000Y-88992775D01*
X173177000Y-88832625D01*
X173208242Y-88675558D01*
X173269529Y-88527599D01*
X173358499Y-88394445D01*
X173471745Y-88281199D01*
X173604899Y-88192229D01*
X173752858Y-88130942D01*
X173909925Y-88099700D01*
X174070075Y-88099700D01*
X174227142Y-88130942D01*
G37*
G36*
X118358228Y-85541703D02*
G01*
X118513100Y-85605853D01*
X118652481Y-85698985D01*
X118771015Y-85817519D01*
X118864147Y-85956900D01*
X118928297Y-86111772D01*
X118961000Y-86276184D01*
X118961000Y-86443816D01*
X118928297Y-86608228D01*
X118864147Y-86763100D01*
X118771015Y-86902481D01*
X118652481Y-87021015D01*
X118513100Y-87114147D01*
X118358228Y-87178297D01*
X118193816Y-87211000D01*
X118026184Y-87211000D01*
X117861772Y-87178297D01*
X117706900Y-87114147D01*
X117567519Y-87021015D01*
X117448985Y-86902481D01*
X117355853Y-86763100D01*
X117291703Y-86608228D01*
X117259000Y-86443816D01*
X117259000Y-86276184D01*
X117291703Y-86111772D01*
X117355853Y-85956900D01*
X117448985Y-85817519D01*
X117567519Y-85698985D01*
X117706900Y-85605853D01*
X117861772Y-85541703D01*
X118026184Y-85509000D01*
X118193816Y-85509000D01*
X118358228Y-85541703D01*
G37*
G36*
X123438228Y-85541703D02*
G01*
X123593100Y-85605853D01*
X123732481Y-85698985D01*
X123851015Y-85817519D01*
X123944147Y-85956900D01*
X124008297Y-86111772D01*
X124041000Y-86276184D01*
X124041000Y-86443816D01*
X124008297Y-86608228D01*
X123944147Y-86763100D01*
X123851015Y-86902481D01*
X123732481Y-87021015D01*
X123593100Y-87114147D01*
X123438228Y-87178297D01*
X123273816Y-87211000D01*
X123106184Y-87211000D01*
X122941772Y-87178297D01*
X122786900Y-87114147D01*
X122647519Y-87021015D01*
X122528985Y-86902481D01*
X122435853Y-86763100D01*
X122371703Y-86608228D01*
X122339000Y-86443816D01*
X122339000Y-86276184D01*
X122371703Y-86111772D01*
X122435853Y-85956900D01*
X122528985Y-85817519D01*
X122647519Y-85698985D01*
X122786900Y-85605853D01*
X122941772Y-85541703D01*
X123106184Y-85509000D01*
X123273816Y-85509000D01*
X123438228Y-85541703D01*
G37*
G36*
X125978228Y-85541703D02*
G01*
X126133100Y-85605853D01*
X126272481Y-85698985D01*
X126391015Y-85817519D01*
X126484147Y-85956900D01*
X126548297Y-86111772D01*
X126581000Y-86276184D01*
X126581000Y-86443816D01*
X126548297Y-86608228D01*
X126484147Y-86763100D01*
X126391015Y-86902481D01*
X126272481Y-87021015D01*
X126133100Y-87114147D01*
X125978228Y-87178297D01*
X125813816Y-87211000D01*
X125646184Y-87211000D01*
X125481772Y-87178297D01*
X125326900Y-87114147D01*
X125187519Y-87021015D01*
X125068985Y-86902481D01*
X124975853Y-86763100D01*
X124911703Y-86608228D01*
X124879000Y-86443816D01*
X124879000Y-86276184D01*
X124911703Y-86111772D01*
X124975853Y-85956900D01*
X125068985Y-85817519D01*
X125187519Y-85698985D01*
X125326900Y-85605853D01*
X125481772Y-85541703D01*
X125646184Y-85509000D01*
X125813816Y-85509000D01*
X125978228Y-85541703D01*
G37*
G36*
X120898228Y-85541703D02*
G01*
X121053100Y-85605853D01*
X121192481Y-85698985D01*
X121311015Y-85817519D01*
X121404147Y-85956900D01*
X121468297Y-86111772D01*
X121501000Y-86276184D01*
X121501000Y-86443816D01*
X121468297Y-86608228D01*
X121404147Y-86763100D01*
X121311015Y-86902481D01*
X121192481Y-87021015D01*
X121053100Y-87114147D01*
X120898228Y-87178297D01*
X120733816Y-87211000D01*
X120566184Y-87211000D01*
X120401772Y-87178297D01*
X120246900Y-87114147D01*
X120107519Y-87021015D01*
X119988985Y-86902481D01*
X119895853Y-86763100D01*
X119831703Y-86608228D01*
X119799000Y-86443816D01*
X119799000Y-86276184D01*
X119831703Y-86111772D01*
X119895853Y-85956900D01*
X119988985Y-85817519D01*
X120107519Y-85698985D01*
X120246900Y-85605853D01*
X120401772Y-85541703D01*
X120566184Y-85509000D01*
X120733816Y-85509000D01*
X120898228Y-85541703D01*
G37*
G36*
X128518228Y-85541703D02*
G01*
X128673100Y-85605853D01*
X128812481Y-85698985D01*
X128931015Y-85817519D01*
X129024147Y-85956900D01*
X129088297Y-86111772D01*
X129121000Y-86276184D01*
X129121000Y-86443816D01*
X129088297Y-86608228D01*
X129024147Y-86763100D01*
X128931015Y-86902481D01*
X128812481Y-87021015D01*
X128673100Y-87114147D01*
X128518228Y-87178297D01*
X128353816Y-87211000D01*
X128186184Y-87211000D01*
X128021772Y-87178297D01*
X127866900Y-87114147D01*
X127727519Y-87021015D01*
X127608985Y-86902481D01*
X127515853Y-86763100D01*
X127451703Y-86608228D01*
X127419000Y-86443816D01*
X127419000Y-86276184D01*
X127451703Y-86111772D01*
X127515853Y-85956900D01*
X127608985Y-85817519D01*
X127727519Y-85698985D01*
X127866900Y-85605853D01*
X128021772Y-85541703D01*
X128186184Y-85509000D01*
X128353816Y-85509000D01*
X128518228Y-85541703D01*
G37*
G36*
X131058228Y-85541703D02*
G01*
X131213100Y-85605853D01*
X131352481Y-85698985D01*
X131471015Y-85817519D01*
X131564147Y-85956900D01*
X131628297Y-86111772D01*
X131661000Y-86276184D01*
X131661000Y-86443816D01*
X131628297Y-86608228D01*
X131564147Y-86763100D01*
X131471015Y-86902481D01*
X131352481Y-87021015D01*
X131213100Y-87114147D01*
X131058228Y-87178297D01*
X130893816Y-87211000D01*
X130726184Y-87211000D01*
X130561772Y-87178297D01*
X130406900Y-87114147D01*
X130267519Y-87021015D01*
X130148985Y-86902481D01*
X130055853Y-86763100D01*
X129991703Y-86608228D01*
X129959000Y-86443816D01*
X129959000Y-86276184D01*
X129991703Y-86111772D01*
X130055853Y-85956900D01*
X130148985Y-85817519D01*
X130267519Y-85698985D01*
X130406900Y-85605853D01*
X130561772Y-85541703D01*
X130726184Y-85509000D01*
X130893816Y-85509000D01*
X131058228Y-85541703D01*
G37*
G36*
X133598228Y-85541703D02*
G01*
X133753100Y-85605853D01*
X133892481Y-85698985D01*
X134011015Y-85817519D01*
X134104147Y-85956900D01*
X134168297Y-86111772D01*
X134201000Y-86276184D01*
X134201000Y-86443816D01*
X134168297Y-86608228D01*
X134104147Y-86763100D01*
X134011015Y-86902481D01*
X133892481Y-87021015D01*
X133753100Y-87114147D01*
X133598228Y-87178297D01*
X133433816Y-87211000D01*
X133266184Y-87211000D01*
X133101772Y-87178297D01*
X132946900Y-87114147D01*
X132807519Y-87021015D01*
X132688985Y-86902481D01*
X132595853Y-86763100D01*
X132531703Y-86608228D01*
X132499000Y-86443816D01*
X132499000Y-86276184D01*
X132531703Y-86111772D01*
X132595853Y-85956900D01*
X132688985Y-85817519D01*
X132807519Y-85698985D01*
X132946900Y-85605853D01*
X133101772Y-85541703D01*
X133266184Y-85509000D01*
X133433816Y-85509000D01*
X133598228Y-85541703D01*
G37*
G36*
X116421000Y-87211000D02*
G01*
X114719000Y-87211000D01*
X114719000Y-85509000D01*
X116421000Y-85509000D01*
X116421000Y-87211000D01*
G37*
G36*
X176767142Y-85590942D02*
G01*
X176915101Y-85652229D01*
X177048255Y-85741199D01*
X177161501Y-85854445D01*
X177250471Y-85987599D01*
X177311758Y-86135558D01*
X177343000Y-86292625D01*
X177343000Y-86452775D01*
X177311758Y-86609842D01*
X177250471Y-86757801D01*
X177161501Y-86890955D01*
X177048255Y-87004201D01*
X176915101Y-87093171D01*
X176767142Y-87154458D01*
X176610075Y-87185700D01*
X176449925Y-87185700D01*
X176292858Y-87154458D01*
X176144899Y-87093171D01*
X176011745Y-87004201D01*
X175898499Y-86890955D01*
X175809529Y-86757801D01*
X175748242Y-86609842D01*
X175717000Y-86452775D01*
X175717000Y-86292625D01*
X175748242Y-86135558D01*
X175809529Y-85987599D01*
X175898499Y-85854445D01*
X176011745Y-85741199D01*
X176144899Y-85652229D01*
X176292858Y-85590942D01*
X176449925Y-85559700D01*
X176610075Y-85559700D01*
X176767142Y-85590942D01*
G37*
G36*
X174227142Y-85590942D02*
G01*
X174375101Y-85652229D01*
X174508255Y-85741199D01*
X174621501Y-85854445D01*
X174710471Y-85987599D01*
X174771758Y-86135558D01*
X174803000Y-86292625D01*
X174803000Y-86452775D01*
X174771758Y-86609842D01*
X174710471Y-86757801D01*
X174621501Y-86890955D01*
X174508255Y-87004201D01*
X174375101Y-87093171D01*
X174227142Y-87154458D01*
X174070075Y-87185700D01*
X173909925Y-87185700D01*
X173752858Y-87154458D01*
X173604899Y-87093171D01*
X173471745Y-87004201D01*
X173358499Y-86890955D01*
X173269529Y-86757801D01*
X173208242Y-86609842D01*
X173177000Y-86452775D01*
X173177000Y-86292625D01*
X173208242Y-86135558D01*
X173269529Y-85987599D01*
X173358499Y-85854445D01*
X173471745Y-85741199D01*
X173604899Y-85652229D01*
X173752858Y-85590942D01*
X173909925Y-85559700D01*
X174070075Y-85559700D01*
X174227142Y-85590942D01*
G37*
G36*
X165348228Y-83001703D02*
G01*
X165503100Y-83065853D01*
X165642481Y-83158985D01*
X165761015Y-83277519D01*
X165854147Y-83416900D01*
X165918297Y-83571772D01*
X165951000Y-83736184D01*
X165951000Y-83903816D01*
X165918297Y-84068228D01*
X165854147Y-84223100D01*
X165761015Y-84362481D01*
X165642481Y-84481015D01*
X165503100Y-84574147D01*
X165348228Y-84638297D01*
X165183816Y-84671000D01*
X165016184Y-84671000D01*
X164851772Y-84638297D01*
X164696900Y-84574147D01*
X164557519Y-84481015D01*
X164438985Y-84362481D01*
X164345853Y-84223100D01*
X164281703Y-84068228D01*
X164249000Y-83903816D01*
X164249000Y-83736184D01*
X164281703Y-83571772D01*
X164345853Y-83416900D01*
X164438985Y-83277519D01*
X164557519Y-83158985D01*
X164696900Y-83065853D01*
X164851772Y-83001703D01*
X165016184Y-82969000D01*
X165183816Y-82969000D01*
X165348228Y-83001703D01*
G37*
G36*
X170348228Y-83001703D02*
G01*
X170503100Y-83065853D01*
X170642481Y-83158985D01*
X170761015Y-83277519D01*
X170854147Y-83416900D01*
X170918297Y-83571772D01*
X170951000Y-83736184D01*
X170951000Y-83903816D01*
X170918297Y-84068228D01*
X170854147Y-84223100D01*
X170761015Y-84362481D01*
X170642481Y-84481015D01*
X170503100Y-84574147D01*
X170348228Y-84638297D01*
X170183816Y-84671000D01*
X170016184Y-84671000D01*
X169851772Y-84638297D01*
X169696900Y-84574147D01*
X169557519Y-84481015D01*
X169438985Y-84362481D01*
X169345853Y-84223100D01*
X169281703Y-84068228D01*
X169249000Y-83903816D01*
X169249000Y-83736184D01*
X169281703Y-83571772D01*
X169345853Y-83416900D01*
X169438985Y-83277519D01*
X169557519Y-83158985D01*
X169696900Y-83065853D01*
X169851772Y-83001703D01*
X170016184Y-82969000D01*
X170183816Y-82969000D01*
X170348228Y-83001703D01*
G37*
G36*
X176767142Y-83050942D02*
G01*
X176915101Y-83112229D01*
X177048255Y-83201199D01*
X177161501Y-83314445D01*
X177250471Y-83447599D01*
X177311758Y-83595558D01*
X177343000Y-83752625D01*
X177343000Y-83912775D01*
X177311758Y-84069842D01*
X177250471Y-84217801D01*
X177161501Y-84350955D01*
X177048255Y-84464201D01*
X176915101Y-84553171D01*
X176767142Y-84614458D01*
X176610075Y-84645700D01*
X176449925Y-84645700D01*
X176292858Y-84614458D01*
X176144899Y-84553171D01*
X176011745Y-84464201D01*
X175898499Y-84350955D01*
X175809529Y-84217801D01*
X175748242Y-84069842D01*
X175717000Y-83912775D01*
X175717000Y-83752625D01*
X175748242Y-83595558D01*
X175809529Y-83447599D01*
X175898499Y-83314445D01*
X176011745Y-83201199D01*
X176144899Y-83112229D01*
X176292858Y-83050942D01*
X176449925Y-83019700D01*
X176610075Y-83019700D01*
X176767142Y-83050942D01*
G37*
G36*
X174227142Y-83050942D02*
G01*
X174375101Y-83112229D01*
X174508255Y-83201199D01*
X174621501Y-83314445D01*
X174710471Y-83447599D01*
X174771758Y-83595558D01*
X174803000Y-83752625D01*
X174803000Y-83912775D01*
X174771758Y-84069842D01*
X174710471Y-84217801D01*
X174621501Y-84350955D01*
X174508255Y-84464201D01*
X174375101Y-84553171D01*
X174227142Y-84614458D01*
X174070075Y-84645700D01*
X173909925Y-84645700D01*
X173752858Y-84614458D01*
X173604899Y-84553171D01*
X173471745Y-84464201D01*
X173358499Y-84350955D01*
X173269529Y-84217801D01*
X173208242Y-84069842D01*
X173177000Y-83912775D01*
X173177000Y-83752625D01*
X173208242Y-83595558D01*
X173269529Y-83447599D01*
X173358499Y-83314445D01*
X173471745Y-83201199D01*
X173604899Y-83112229D01*
X173752858Y-83050942D01*
X173909925Y-83019700D01*
X174070075Y-83019700D01*
X174227142Y-83050942D01*
G37*
G36*
X152056000Y-83476000D02*
G01*
X150204000Y-83476000D01*
X150204000Y-81624000D01*
X152056000Y-81624000D01*
X152056000Y-83476000D01*
G37*
G36*
X153900104Y-81659585D02*
G01*
X154068626Y-81729389D01*
X154220291Y-81830728D01*
X154349272Y-81959709D01*
X154450611Y-82111374D01*
X154520415Y-82279896D01*
X154556000Y-82458797D01*
X154556000Y-82641203D01*
X154520415Y-82820104D01*
X154450611Y-82988626D01*
X154349272Y-83140291D01*
X154220291Y-83269272D01*
X154068626Y-83370611D01*
X153900104Y-83440415D01*
X153721203Y-83476000D01*
X153538797Y-83476000D01*
X153359896Y-83440415D01*
X153191374Y-83370611D01*
X153039709Y-83269272D01*
X152910728Y-83140291D01*
X152809389Y-82988626D01*
X152739585Y-82820104D01*
X152704000Y-82641203D01*
X152704000Y-82458797D01*
X152739585Y-82279896D01*
X152809389Y-82111374D01*
X152910728Y-81959709D01*
X153039709Y-81830728D01*
X153191374Y-81729389D01*
X153359896Y-81659585D01*
X153538797Y-81624000D01*
X153721203Y-81624000D01*
X153900104Y-81659585D01*
G37*
G36*
X156400104Y-81659585D02*
G01*
X156568626Y-81729389D01*
X156720291Y-81830728D01*
X156849272Y-81959709D01*
X156950611Y-82111374D01*
X157020415Y-82279896D01*
X157056000Y-82458797D01*
X157056000Y-82641203D01*
X157020415Y-82820104D01*
X156950611Y-82988626D01*
X156849272Y-83140291D01*
X156720291Y-83269272D01*
X156568626Y-83370611D01*
X156400104Y-83440415D01*
X156221203Y-83476000D01*
X156038797Y-83476000D01*
X155859896Y-83440415D01*
X155691374Y-83370611D01*
X155539709Y-83269272D01*
X155410728Y-83140291D01*
X155309389Y-82988626D01*
X155239585Y-82820104D01*
X155204000Y-82641203D01*
X155204000Y-82458797D01*
X155239585Y-82279896D01*
X155309389Y-82111374D01*
X155410728Y-81959709D01*
X155539709Y-81830728D01*
X155691374Y-81729389D01*
X155859896Y-81659585D01*
X156038797Y-81624000D01*
X156221203Y-81624000D01*
X156400104Y-81659585D01*
G37*
G36*
X158900104Y-81659585D02*
G01*
X159068626Y-81729389D01*
X159220291Y-81830728D01*
X159349272Y-81959709D01*
X159450611Y-82111374D01*
X159520415Y-82279896D01*
X159556000Y-82458797D01*
X159556000Y-82641203D01*
X159520415Y-82820104D01*
X159450611Y-82988626D01*
X159349272Y-83140291D01*
X159220291Y-83269272D01*
X159068626Y-83370611D01*
X158900104Y-83440415D01*
X158721203Y-83476000D01*
X158538797Y-83476000D01*
X158359896Y-83440415D01*
X158191374Y-83370611D01*
X158039709Y-83269272D01*
X157910728Y-83140291D01*
X157809389Y-82988626D01*
X157739585Y-82820104D01*
X157704000Y-82641203D01*
X157704000Y-82458797D01*
X157739585Y-82279896D01*
X157809389Y-82111374D01*
X157910728Y-81959709D01*
X158039709Y-81830728D01*
X158191374Y-81729389D01*
X158359896Y-81659585D01*
X158538797Y-81624000D01*
X158721203Y-81624000D01*
X158900104Y-81659585D01*
G37*
G36*
X144948228Y-80461703D02*
G01*
X145103100Y-80525853D01*
X145242481Y-80618985D01*
X145361015Y-80737519D01*
X145454147Y-80876900D01*
X145518297Y-81031772D01*
X145551000Y-81196184D01*
X145551000Y-81363816D01*
X145518297Y-81528228D01*
X145454147Y-81683100D01*
X145361015Y-81822481D01*
X145242481Y-81941015D01*
X145103100Y-82034147D01*
X144948228Y-82098297D01*
X144783816Y-82131000D01*
X144616184Y-82131000D01*
X144451772Y-82098297D01*
X144296900Y-82034147D01*
X144157519Y-81941015D01*
X144038985Y-81822481D01*
X143945853Y-81683100D01*
X143881703Y-81528228D01*
X143849000Y-81363816D01*
X143849000Y-81196184D01*
X143881703Y-81031772D01*
X143945853Y-80876900D01*
X144038985Y-80737519D01*
X144157519Y-80618985D01*
X144296900Y-80525853D01*
X144451772Y-80461703D01*
X144616184Y-80429000D01*
X144783816Y-80429000D01*
X144948228Y-80461703D01*
G37*
G36*
X140551000Y-82131000D02*
G01*
X138849000Y-82131000D01*
X138849000Y-80429000D01*
X140551000Y-80429000D01*
X140551000Y-82131000D01*
G37*
G36*
X176767142Y-80510942D02*
G01*
X176915101Y-80572229D01*
X177048255Y-80661199D01*
X177161501Y-80774445D01*
X177250471Y-80907599D01*
X177311758Y-81055558D01*
X177343000Y-81212625D01*
X177343000Y-81372775D01*
X177311758Y-81529842D01*
X177250471Y-81677801D01*
X177161501Y-81810955D01*
X177048255Y-81924201D01*
X176915101Y-82013171D01*
X176767142Y-82074458D01*
X176610075Y-82105700D01*
X176449925Y-82105700D01*
X176292858Y-82074458D01*
X176144899Y-82013171D01*
X176011745Y-81924201D01*
X175898499Y-81810955D01*
X175809529Y-81677801D01*
X175748242Y-81529842D01*
X175717000Y-81372775D01*
X175717000Y-81212625D01*
X175748242Y-81055558D01*
X175809529Y-80907599D01*
X175898499Y-80774445D01*
X176011745Y-80661199D01*
X176144899Y-80572229D01*
X176292858Y-80510942D01*
X176449925Y-80479700D01*
X176610075Y-80479700D01*
X176767142Y-80510942D01*
G37*
G36*
X174227142Y-80510942D02*
G01*
X174375101Y-80572229D01*
X174508255Y-80661199D01*
X174621501Y-80774445D01*
X174710471Y-80907599D01*
X174771758Y-81055558D01*
X174803000Y-81212625D01*
X174803000Y-81372775D01*
X174771758Y-81529842D01*
X174710471Y-81677801D01*
X174621501Y-81810955D01*
X174508255Y-81924201D01*
X174375101Y-82013171D01*
X174227142Y-82074458D01*
X174070075Y-82105700D01*
X173909925Y-82105700D01*
X173752858Y-82074458D01*
X173604899Y-82013171D01*
X173471745Y-81924201D01*
X173358499Y-81810955D01*
X173269529Y-81677801D01*
X173208242Y-81529842D01*
X173177000Y-81372775D01*
X173177000Y-81212625D01*
X173208242Y-81055558D01*
X173269529Y-80907599D01*
X173358499Y-80774445D01*
X173471745Y-80661199D01*
X173604899Y-80572229D01*
X173752858Y-80510942D01*
X173909925Y-80479700D01*
X174070075Y-80479700D01*
X174227142Y-80510942D01*
G37*
G36*
X174227142Y-77970942D02*
G01*
X174375101Y-78032229D01*
X174508255Y-78121199D01*
X174621501Y-78234445D01*
X174710471Y-78367599D01*
X174771758Y-78515558D01*
X174803000Y-78672625D01*
X174803000Y-78832775D01*
X174771758Y-78989842D01*
X174710471Y-79137801D01*
X174621501Y-79270955D01*
X174508255Y-79384201D01*
X174375101Y-79473171D01*
X174227142Y-79534458D01*
X174070075Y-79565700D01*
X173909925Y-79565700D01*
X173752858Y-79534458D01*
X173604899Y-79473171D01*
X173471745Y-79384201D01*
X173358499Y-79270955D01*
X173269529Y-79137801D01*
X173208242Y-78989842D01*
X173177000Y-78832775D01*
X173177000Y-78672625D01*
X173208242Y-78515558D01*
X173269529Y-78367599D01*
X173358499Y-78234445D01*
X173471745Y-78121199D01*
X173604899Y-78032229D01*
X173752858Y-77970942D01*
X173909925Y-77939700D01*
X174070075Y-77939700D01*
X174227142Y-77970942D01*
G37*
G36*
X176767142Y-77970942D02*
G01*
X176915101Y-78032229D01*
X177048255Y-78121199D01*
X177161501Y-78234445D01*
X177250471Y-78367599D01*
X177311758Y-78515558D01*
X177343000Y-78672625D01*
X177343000Y-78832775D01*
X177311758Y-78989842D01*
X177250471Y-79137801D01*
X177161501Y-79270955D01*
X177048255Y-79384201D01*
X176915101Y-79473171D01*
X176767142Y-79534458D01*
X176610075Y-79565700D01*
X176449925Y-79565700D01*
X176292858Y-79534458D01*
X176144899Y-79473171D01*
X176011745Y-79384201D01*
X175898499Y-79270955D01*
X175809529Y-79137801D01*
X175748242Y-78989842D01*
X175717000Y-78832775D01*
X175717000Y-78672625D01*
X175748242Y-78515558D01*
X175809529Y-78367599D01*
X175898499Y-78234445D01*
X176011745Y-78121199D01*
X176144899Y-78032229D01*
X176292858Y-77970942D01*
X176449925Y-77939700D01*
X176610075Y-77939700D01*
X176767142Y-77970942D01*
G37*
G36*
X176767142Y-75430942D02*
G01*
X176915101Y-75492229D01*
X177048255Y-75581199D01*
X177161501Y-75694445D01*
X177250471Y-75827599D01*
X177311758Y-75975558D01*
X177343000Y-76132625D01*
X177343000Y-76292775D01*
X177311758Y-76449842D01*
X177250471Y-76597801D01*
X177161501Y-76730955D01*
X177048255Y-76844201D01*
X176915101Y-76933171D01*
X176767142Y-76994458D01*
X176610075Y-77025700D01*
X176449925Y-77025700D01*
X176292858Y-76994458D01*
X176144899Y-76933171D01*
X176011745Y-76844201D01*
X175898499Y-76730955D01*
X175809529Y-76597801D01*
X175748242Y-76449842D01*
X175717000Y-76292775D01*
X175717000Y-76132625D01*
X175748242Y-75975558D01*
X175809529Y-75827599D01*
X175898499Y-75694445D01*
X176011745Y-75581199D01*
X176144899Y-75492229D01*
X176292858Y-75430942D01*
X176449925Y-75399700D01*
X176610075Y-75399700D01*
X176767142Y-75430942D01*
G37*
G36*
X174227142Y-75430942D02*
G01*
X174375101Y-75492229D01*
X174508255Y-75581199D01*
X174621501Y-75694445D01*
X174710471Y-75827599D01*
X174771758Y-75975558D01*
X174803000Y-76132625D01*
X174803000Y-76292775D01*
X174771758Y-76449842D01*
X174710471Y-76597801D01*
X174621501Y-76730955D01*
X174508255Y-76844201D01*
X174375101Y-76933171D01*
X174227142Y-76994458D01*
X174070075Y-77025700D01*
X173909925Y-77025700D01*
X173752858Y-76994458D01*
X173604899Y-76933171D01*
X173471745Y-76844201D01*
X173358499Y-76730955D01*
X173269529Y-76597801D01*
X173208242Y-76449842D01*
X173177000Y-76292775D01*
X173177000Y-76132625D01*
X173208242Y-75975558D01*
X173269529Y-75827599D01*
X173358499Y-75694445D01*
X173471745Y-75581199D01*
X173604899Y-75492229D01*
X173752858Y-75430942D01*
X173909925Y-75399700D01*
X174070075Y-75399700D01*
X174227142Y-75430942D01*
G37*
G36*
X131058228Y-72841703D02*
G01*
X131213100Y-72905853D01*
X131352481Y-72998985D01*
X131471015Y-73117519D01*
X131564147Y-73256900D01*
X131628297Y-73411772D01*
X131661000Y-73576184D01*
X131661000Y-73743816D01*
X131628297Y-73908228D01*
X131564147Y-74063100D01*
X131471015Y-74202481D01*
X131352481Y-74321015D01*
X131213100Y-74414147D01*
X131058228Y-74478297D01*
X130893816Y-74511000D01*
X130726184Y-74511000D01*
X130561772Y-74478297D01*
X130406900Y-74414147D01*
X130267519Y-74321015D01*
X130148985Y-74202481D01*
X130055853Y-74063100D01*
X129991703Y-73908228D01*
X129959000Y-73743816D01*
X129959000Y-73576184D01*
X129991703Y-73411772D01*
X130055853Y-73256900D01*
X130148985Y-73117519D01*
X130267519Y-72998985D01*
X130406900Y-72905853D01*
X130561772Y-72841703D01*
X130726184Y-72809000D01*
X130893816Y-72809000D01*
X131058228Y-72841703D01*
G37*
G36*
X133598228Y-72841703D02*
G01*
X133753100Y-72905853D01*
X133892481Y-72998985D01*
X134011015Y-73117519D01*
X134104147Y-73256900D01*
X134168297Y-73411772D01*
X134201000Y-73576184D01*
X134201000Y-73743816D01*
X134168297Y-73908228D01*
X134104147Y-74063100D01*
X134011015Y-74202481D01*
X133892481Y-74321015D01*
X133753100Y-74414147D01*
X133598228Y-74478297D01*
X133433816Y-74511000D01*
X133266184Y-74511000D01*
X133101772Y-74478297D01*
X132946900Y-74414147D01*
X132807519Y-74321015D01*
X132688985Y-74202481D01*
X132595853Y-74063100D01*
X132531703Y-73908228D01*
X132499000Y-73743816D01*
X132499000Y-73576184D01*
X132531703Y-73411772D01*
X132595853Y-73256900D01*
X132688985Y-73117519D01*
X132807519Y-72998985D01*
X132946900Y-72905853D01*
X133101772Y-72841703D01*
X133266184Y-72809000D01*
X133433816Y-72809000D01*
X133598228Y-72841703D01*
G37*
G36*
X128518228Y-72841703D02*
G01*
X128673100Y-72905853D01*
X128812481Y-72998985D01*
X128931015Y-73117519D01*
X129024147Y-73256900D01*
X129088297Y-73411772D01*
X129121000Y-73576184D01*
X129121000Y-73743816D01*
X129088297Y-73908228D01*
X129024147Y-74063100D01*
X128931015Y-74202481D01*
X128812481Y-74321015D01*
X128673100Y-74414147D01*
X128518228Y-74478297D01*
X128353816Y-74511000D01*
X128186184Y-74511000D01*
X128021772Y-74478297D01*
X127866900Y-74414147D01*
X127727519Y-74321015D01*
X127608985Y-74202481D01*
X127515853Y-74063100D01*
X127451703Y-73908228D01*
X127419000Y-73743816D01*
X127419000Y-73576184D01*
X127451703Y-73411772D01*
X127515853Y-73256900D01*
X127608985Y-73117519D01*
X127727519Y-72998985D01*
X127866900Y-72905853D01*
X128021772Y-72841703D01*
X128186184Y-72809000D01*
X128353816Y-72809000D01*
X128518228Y-72841703D01*
G37*
G36*
X125978228Y-72841703D02*
G01*
X126133100Y-72905853D01*
X126272481Y-72998985D01*
X126391015Y-73117519D01*
X126484147Y-73256900D01*
X126548297Y-73411772D01*
X126581000Y-73576184D01*
X126581000Y-73743816D01*
X126548297Y-73908228D01*
X126484147Y-74063100D01*
X126391015Y-74202481D01*
X126272481Y-74321015D01*
X126133100Y-74414147D01*
X125978228Y-74478297D01*
X125813816Y-74511000D01*
X125646184Y-74511000D01*
X125481772Y-74478297D01*
X125326900Y-74414147D01*
X125187519Y-74321015D01*
X125068985Y-74202481D01*
X124975853Y-74063100D01*
X124911703Y-73908228D01*
X124879000Y-73743816D01*
X124879000Y-73576184D01*
X124911703Y-73411772D01*
X124975853Y-73256900D01*
X125068985Y-73117519D01*
X125187519Y-72998985D01*
X125326900Y-72905853D01*
X125481772Y-72841703D01*
X125646184Y-72809000D01*
X125813816Y-72809000D01*
X125978228Y-72841703D01*
G37*
G36*
X123438228Y-72841703D02*
G01*
X123593100Y-72905853D01*
X123732481Y-72998985D01*
X123851015Y-73117519D01*
X123944147Y-73256900D01*
X124008297Y-73411772D01*
X124041000Y-73576184D01*
X124041000Y-73743816D01*
X124008297Y-73908228D01*
X123944147Y-74063100D01*
X123851015Y-74202481D01*
X123732481Y-74321015D01*
X123593100Y-74414147D01*
X123438228Y-74478297D01*
X123273816Y-74511000D01*
X123106184Y-74511000D01*
X122941772Y-74478297D01*
X122786900Y-74414147D01*
X122647519Y-74321015D01*
X122528985Y-74202481D01*
X122435853Y-74063100D01*
X122371703Y-73908228D01*
X122339000Y-73743816D01*
X122339000Y-73576184D01*
X122371703Y-73411772D01*
X122435853Y-73256900D01*
X122528985Y-73117519D01*
X122647519Y-72998985D01*
X122786900Y-72905853D01*
X122941772Y-72841703D01*
X123106184Y-72809000D01*
X123273816Y-72809000D01*
X123438228Y-72841703D01*
G37*
G36*
X120898228Y-72841703D02*
G01*
X121053100Y-72905853D01*
X121192481Y-72998985D01*
X121311015Y-73117519D01*
X121404147Y-73256900D01*
X121468297Y-73411772D01*
X121501000Y-73576184D01*
X121501000Y-73743816D01*
X121468297Y-73908228D01*
X121404147Y-74063100D01*
X121311015Y-74202481D01*
X121192481Y-74321015D01*
X121053100Y-74414147D01*
X120898228Y-74478297D01*
X120733816Y-74511000D01*
X120566184Y-74511000D01*
X120401772Y-74478297D01*
X120246900Y-74414147D01*
X120107519Y-74321015D01*
X119988985Y-74202481D01*
X119895853Y-74063100D01*
X119831703Y-73908228D01*
X119799000Y-73743816D01*
X119799000Y-73576184D01*
X119831703Y-73411772D01*
X119895853Y-73256900D01*
X119988985Y-73117519D01*
X120107519Y-72998985D01*
X120246900Y-72905853D01*
X120401772Y-72841703D01*
X120566184Y-72809000D01*
X120733816Y-72809000D01*
X120898228Y-72841703D01*
G37*
G36*
X118358228Y-72841703D02*
G01*
X118513100Y-72905853D01*
X118652481Y-72998985D01*
X118771015Y-73117519D01*
X118864147Y-73256900D01*
X118928297Y-73411772D01*
X118961000Y-73576184D01*
X118961000Y-73743816D01*
X118928297Y-73908228D01*
X118864147Y-74063100D01*
X118771015Y-74202481D01*
X118652481Y-74321015D01*
X118513100Y-74414147D01*
X118358228Y-74478297D01*
X118193816Y-74511000D01*
X118026184Y-74511000D01*
X117861772Y-74478297D01*
X117706900Y-74414147D01*
X117567519Y-74321015D01*
X117448985Y-74202481D01*
X117355853Y-74063100D01*
X117291703Y-73908228D01*
X117259000Y-73743816D01*
X117259000Y-73576184D01*
X117291703Y-73411772D01*
X117355853Y-73256900D01*
X117448985Y-73117519D01*
X117567519Y-72998985D01*
X117706900Y-72905853D01*
X117861772Y-72841703D01*
X118026184Y-72809000D01*
X118193816Y-72809000D01*
X118358228Y-72841703D01*
G37*
G36*
X115818228Y-72841703D02*
G01*
X115973100Y-72905853D01*
X116112481Y-72998985D01*
X116231015Y-73117519D01*
X116324147Y-73256900D01*
X116388297Y-73411772D01*
X116421000Y-73576184D01*
X116421000Y-73743816D01*
X116388297Y-73908228D01*
X116324147Y-74063100D01*
X116231015Y-74202481D01*
X116112481Y-74321015D01*
X115973100Y-74414147D01*
X115818228Y-74478297D01*
X115653816Y-74511000D01*
X115486184Y-74511000D01*
X115321772Y-74478297D01*
X115166900Y-74414147D01*
X115027519Y-74321015D01*
X114908985Y-74202481D01*
X114815853Y-74063100D01*
X114751703Y-73908228D01*
X114719000Y-73743816D01*
X114719000Y-73576184D01*
X114751703Y-73411772D01*
X114815853Y-73256900D01*
X114908985Y-73117519D01*
X115027519Y-72998985D01*
X115166900Y-72905853D01*
X115321772Y-72841703D01*
X115486184Y-72809000D01*
X115653816Y-72809000D01*
X115818228Y-72841703D01*
G37*
G36*
X176767142Y-72890942D02*
G01*
X176915101Y-72952229D01*
X177048255Y-73041199D01*
X177161501Y-73154445D01*
X177250471Y-73287599D01*
X177311758Y-73435558D01*
X177343000Y-73592625D01*
X177343000Y-73752775D01*
X177311758Y-73909842D01*
X177250471Y-74057801D01*
X177161501Y-74190955D01*
X177048255Y-74304201D01*
X176915101Y-74393171D01*
X176767142Y-74454458D01*
X176610075Y-74485700D01*
X176449925Y-74485700D01*
X176292858Y-74454458D01*
X176144899Y-74393171D01*
X176011745Y-74304201D01*
X175898499Y-74190955D01*
X175809529Y-74057801D01*
X175748242Y-73909842D01*
X175717000Y-73752775D01*
X175717000Y-73592625D01*
X175748242Y-73435558D01*
X175809529Y-73287599D01*
X175898499Y-73154445D01*
X176011745Y-73041199D01*
X176144899Y-72952229D01*
X176292858Y-72890942D01*
X176449925Y-72859700D01*
X176610075Y-72859700D01*
X176767142Y-72890942D01*
G37*
G36*
X174227142Y-72890942D02*
G01*
X174375101Y-72952229D01*
X174508255Y-73041199D01*
X174621501Y-73154445D01*
X174710471Y-73287599D01*
X174771758Y-73435558D01*
X174803000Y-73592625D01*
X174803000Y-73752775D01*
X174771758Y-73909842D01*
X174710471Y-74057801D01*
X174621501Y-74190955D01*
X174508255Y-74304201D01*
X174375101Y-74393171D01*
X174227142Y-74454458D01*
X174070075Y-74485700D01*
X173909925Y-74485700D01*
X173752858Y-74454458D01*
X173604899Y-74393171D01*
X173471745Y-74304201D01*
X173358499Y-74190955D01*
X173269529Y-74057801D01*
X173208242Y-73909842D01*
X173177000Y-73752775D01*
X173177000Y-73592625D01*
X173208242Y-73435558D01*
X173269529Y-73287599D01*
X173358499Y-73154445D01*
X173471745Y-73041199D01*
X173604899Y-72952229D01*
X173752858Y-72890942D01*
X173909925Y-72859700D01*
X174070075Y-72859700D01*
X174227142Y-72890942D01*
G37*
G36*
X176767142Y-70350942D02*
G01*
X176915101Y-70412229D01*
X177048255Y-70501199D01*
X177161501Y-70614445D01*
X177250471Y-70747599D01*
X177311758Y-70895558D01*
X177343000Y-71052625D01*
X177343000Y-71212775D01*
X177311758Y-71369842D01*
X177250471Y-71517801D01*
X177161501Y-71650955D01*
X177048255Y-71764201D01*
X176915101Y-71853171D01*
X176767142Y-71914458D01*
X176610075Y-71945700D01*
X176449925Y-71945700D01*
X176292858Y-71914458D01*
X176144899Y-71853171D01*
X176011745Y-71764201D01*
X175898499Y-71650955D01*
X175809529Y-71517801D01*
X175748242Y-71369842D01*
X175717000Y-71212775D01*
X175717000Y-71052625D01*
X175748242Y-70895558D01*
X175809529Y-70747599D01*
X175898499Y-70614445D01*
X176011745Y-70501199D01*
X176144899Y-70412229D01*
X176292858Y-70350942D01*
X176449925Y-70319700D01*
X176610075Y-70319700D01*
X176767142Y-70350942D01*
G37*
G36*
X174227142Y-70350942D02*
G01*
X174375101Y-70412229D01*
X174508255Y-70501199D01*
X174621501Y-70614445D01*
X174710471Y-70747599D01*
X174771758Y-70895558D01*
X174803000Y-71052625D01*
X174803000Y-71212775D01*
X174771758Y-71369842D01*
X174710471Y-71517801D01*
X174621501Y-71650955D01*
X174508255Y-71764201D01*
X174375101Y-71853171D01*
X174227142Y-71914458D01*
X174070075Y-71945700D01*
X173909925Y-71945700D01*
X173752858Y-71914458D01*
X173604899Y-71853171D01*
X173471745Y-71764201D01*
X173358499Y-71650955D01*
X173269529Y-71517801D01*
X173208242Y-71369842D01*
X173177000Y-71212775D01*
X173177000Y-71052625D01*
X173208242Y-70895558D01*
X173269529Y-70747599D01*
X173358499Y-70614445D01*
X173471745Y-70501199D01*
X173604899Y-70412229D01*
X173752858Y-70350942D01*
X173909925Y-70319700D01*
X174070075Y-70319700D01*
X174227142Y-70350942D01*
G37*
G36*
X176767142Y-67810942D02*
G01*
X176915101Y-67872229D01*
X177048255Y-67961199D01*
X177161501Y-68074445D01*
X177250471Y-68207599D01*
X177311758Y-68355558D01*
X177343000Y-68512625D01*
X177343000Y-68672775D01*
X177311758Y-68829842D01*
X177250471Y-68977801D01*
X177161501Y-69110955D01*
X177048255Y-69224201D01*
X176915101Y-69313171D01*
X176767142Y-69374458D01*
X176610075Y-69405700D01*
X176449925Y-69405700D01*
X176292858Y-69374458D01*
X176144899Y-69313171D01*
X176011745Y-69224201D01*
X175898499Y-69110955D01*
X175809529Y-68977801D01*
X175748242Y-68829842D01*
X175717000Y-68672775D01*
X175717000Y-68512625D01*
X175748242Y-68355558D01*
X175809529Y-68207599D01*
X175898499Y-68074445D01*
X176011745Y-67961199D01*
X176144899Y-67872229D01*
X176292858Y-67810942D01*
X176449925Y-67779700D01*
X176610075Y-67779700D01*
X176767142Y-67810942D01*
G37*
G36*
X174227142Y-67810942D02*
G01*
X174375101Y-67872229D01*
X174508255Y-67961199D01*
X174621501Y-68074445D01*
X174710471Y-68207599D01*
X174771758Y-68355558D01*
X174803000Y-68512625D01*
X174803000Y-68672775D01*
X174771758Y-68829842D01*
X174710471Y-68977801D01*
X174621501Y-69110955D01*
X174508255Y-69224201D01*
X174375101Y-69313171D01*
X174227142Y-69374458D01*
X174070075Y-69405700D01*
X173909925Y-69405700D01*
X173752858Y-69374458D01*
X173604899Y-69313171D01*
X173471745Y-69224201D01*
X173358499Y-69110955D01*
X173269529Y-68977801D01*
X173208242Y-68829842D01*
X173177000Y-68672775D01*
X173177000Y-68512625D01*
X173208242Y-68355558D01*
X173269529Y-68207599D01*
X173358499Y-68074445D01*
X173471745Y-67961199D01*
X173604899Y-67872229D01*
X173752858Y-67810942D01*
X173909925Y-67779700D01*
X174070075Y-67779700D01*
X174227142Y-67810942D01*
G37*
G36*
X95525880Y-63799776D02*
G01*
X95906593Y-63875504D01*
X96316249Y-64045189D01*
X96684929Y-64291534D01*
X96998466Y-64605071D01*
X97244811Y-64973751D01*
X97414496Y-65383407D01*
X97471025Y-65667600D01*
X97500456Y-65815558D01*
X97501000Y-65818296D01*
X97501000Y-66261704D01*
X97414496Y-66696593D01*
X97244811Y-67106249D01*
X96998466Y-67474929D01*
X96684929Y-67788466D01*
X96316249Y-68034811D01*
X95906593Y-68204496D01*
X95525880Y-68280224D01*
X95471705Y-68291000D01*
X95028295Y-68291000D01*
X94974120Y-68280224D01*
X94593407Y-68204496D01*
X94183751Y-68034811D01*
X93815071Y-67788466D01*
X93501534Y-67474929D01*
X93255189Y-67106249D01*
X93085504Y-66696593D01*
X92999000Y-66261704D01*
X92999000Y-65818296D01*
X92999545Y-65815558D01*
X93028975Y-65667600D01*
X93085504Y-65383407D01*
X93255189Y-64973751D01*
X93501534Y-64605071D01*
X93815071Y-64291534D01*
X94183751Y-64045189D01*
X94593407Y-63875504D01*
X94974120Y-63799776D01*
X95028295Y-63789000D01*
X95471705Y-63789000D01*
X95525880Y-63799776D01*
G37*
G36*
X170455880Y-63799776D02*
G01*
X170836593Y-63875504D01*
X171246249Y-64045189D01*
X171614929Y-64291534D01*
X171928466Y-64605071D01*
X172174811Y-64973751D01*
X172344496Y-65383407D01*
X172401025Y-65667600D01*
X172430456Y-65815558D01*
X172431000Y-65818296D01*
X172431000Y-66261704D01*
X172344496Y-66696593D01*
X172174811Y-67106249D01*
X171928466Y-67474929D01*
X171614929Y-67788466D01*
X171246249Y-68034811D01*
X170836593Y-68204496D01*
X170455880Y-68280224D01*
X170401705Y-68291000D01*
X169958295Y-68291000D01*
X169904120Y-68280224D01*
X169523407Y-68204496D01*
X169113751Y-68034811D01*
X168745071Y-67788466D01*
X168431534Y-67474929D01*
X168185189Y-67106249D01*
X168015504Y-66696593D01*
X167929000Y-66261704D01*
X167929000Y-65818296D01*
X167929545Y-65815558D01*
X167958975Y-65667600D01*
X168015504Y-65383407D01*
X168185189Y-64973751D01*
X168431534Y-64605071D01*
X168745071Y-64291534D01*
X169113751Y-64045189D01*
X169523407Y-63875504D01*
X169904120Y-63799776D01*
X169958295Y-63789000D01*
X170401705Y-63789000D01*
X170455880Y-63799776D01*
G37*
G36*
X104050352Y-64870831D02*
G01*
X104208396Y-64918773D01*
X104354042Y-64996623D01*
X104481707Y-65101393D01*
X104576054Y-65216357D01*
X104586477Y-65229057D01*
X104622715Y-65296854D01*
X104664328Y-65374705D01*
X104712269Y-65532747D01*
X104724400Y-65655916D01*
X104724400Y-66449483D01*
X104712269Y-66572653D01*
X104664328Y-66730695D01*
X104641624Y-66773171D01*
X104592166Y-66865700D01*
X104586476Y-66876344D01*
X104481707Y-67004007D01*
X104369519Y-67096076D01*
X104354043Y-67108777D01*
X104286246Y-67145015D01*
X104208395Y-67186628D01*
X104050353Y-67234569D01*
X103886000Y-67250756D01*
X103721648Y-67234569D01*
X103563606Y-67186628D01*
X103485755Y-67145015D01*
X103417958Y-67108777D01*
X103402482Y-67096076D01*
X103290294Y-67004007D01*
X103185525Y-66876344D01*
X103179836Y-66865700D01*
X103130377Y-66773171D01*
X103107671Y-66730692D01*
X103059731Y-66572656D01*
X103047600Y-66449484D01*
X103047600Y-65655917D01*
X103059731Y-65532748D01*
X103107673Y-65374704D01*
X103185523Y-65229058D01*
X103290293Y-65101393D01*
X103417956Y-64996624D01*
X103417955Y-64996624D01*
X103417957Y-64996623D01*
X103485754Y-64960385D01*
X103563605Y-64918772D01*
X103721647Y-64870831D01*
X103886000Y-64854644D01*
X104050352Y-64870831D01*
G37*
G36*
X106590352Y-64870831D02*
G01*
X106748396Y-64918773D01*
X106894042Y-64996623D01*
X107021707Y-65101393D01*
X107116054Y-65216357D01*
X107126477Y-65229057D01*
X107162715Y-65296854D01*
X107204328Y-65374705D01*
X107252269Y-65532747D01*
X107264400Y-65655916D01*
X107264400Y-66449483D01*
X107252269Y-66572653D01*
X107204328Y-66730695D01*
X107181624Y-66773171D01*
X107132166Y-66865700D01*
X107126476Y-66876344D01*
X107021707Y-67004007D01*
X106909519Y-67096076D01*
X106894043Y-67108777D01*
X106826246Y-67145015D01*
X106748395Y-67186628D01*
X106590353Y-67234569D01*
X106426000Y-67250756D01*
X106261648Y-67234569D01*
X106103606Y-67186628D01*
X106025755Y-67145015D01*
X105957958Y-67108777D01*
X105942482Y-67096076D01*
X105830294Y-67004007D01*
X105725525Y-66876344D01*
X105719836Y-66865700D01*
X105670377Y-66773171D01*
X105647671Y-66730692D01*
X105599731Y-66572656D01*
X105587600Y-66449484D01*
X105587600Y-65655917D01*
X105599731Y-65532748D01*
X105647673Y-65374704D01*
X105725523Y-65229058D01*
X105830293Y-65101393D01*
X105957956Y-64996624D01*
X105957955Y-64996624D01*
X105957957Y-64996623D01*
X106025754Y-64960385D01*
X106103605Y-64918772D01*
X106261647Y-64870831D01*
X106426000Y-64854644D01*
X106590352Y-64870831D01*
G37*
G36*
X143674352Y-64870831D02*
G01*
X143832396Y-64918773D01*
X143978042Y-64996623D01*
X144105707Y-65101393D01*
X144200054Y-65216357D01*
X144210477Y-65229057D01*
X144246715Y-65296854D01*
X144288328Y-65374705D01*
X144336269Y-65532747D01*
X144348400Y-65655916D01*
X144348400Y-66449483D01*
X144336269Y-66572653D01*
X144288328Y-66730695D01*
X144265624Y-66773171D01*
X144216166Y-66865700D01*
X144210476Y-66876344D01*
X144105707Y-67004007D01*
X143993519Y-67096076D01*
X143978043Y-67108777D01*
X143910246Y-67145015D01*
X143832395Y-67186628D01*
X143674353Y-67234569D01*
X143510000Y-67250756D01*
X143345648Y-67234569D01*
X143187606Y-67186628D01*
X143109755Y-67145015D01*
X143041958Y-67108777D01*
X143026482Y-67096076D01*
X142914294Y-67004007D01*
X142809525Y-66876344D01*
X142803836Y-66865700D01*
X142754377Y-66773171D01*
X142731671Y-66730692D01*
X142683731Y-66572656D01*
X142671600Y-66449484D01*
X142671600Y-65655917D01*
X142683731Y-65532748D01*
X142731673Y-65374704D01*
X142809523Y-65229058D01*
X142914293Y-65101393D01*
X143041956Y-64996624D01*
X143041955Y-64996624D01*
X143041957Y-64996623D01*
X143109754Y-64960385D01*
X143187605Y-64918772D01*
X143345647Y-64870831D01*
X143510000Y-64854644D01*
X143674352Y-64870831D01*
G37*
G36*
X163994352Y-64870831D02*
G01*
X164152396Y-64918773D01*
X164298042Y-64996623D01*
X164425707Y-65101393D01*
X164520054Y-65216357D01*
X164530477Y-65229057D01*
X164566715Y-65296854D01*
X164608328Y-65374705D01*
X164656269Y-65532747D01*
X164668400Y-65655916D01*
X164668400Y-66449483D01*
X164656269Y-66572653D01*
X164608328Y-66730695D01*
X164585624Y-66773171D01*
X164536166Y-66865700D01*
X164530476Y-66876344D01*
X164425707Y-67004007D01*
X164313519Y-67096076D01*
X164298043Y-67108777D01*
X164230246Y-67145015D01*
X164152395Y-67186628D01*
X163994353Y-67234569D01*
X163830000Y-67250756D01*
X163665648Y-67234569D01*
X163507606Y-67186628D01*
X163429755Y-67145015D01*
X163361958Y-67108777D01*
X163346482Y-67096076D01*
X163234294Y-67004007D01*
X163129525Y-66876344D01*
X163123836Y-66865700D01*
X163074377Y-66773171D01*
X163051671Y-66730692D01*
X163003731Y-66572656D01*
X162991600Y-66449484D01*
X162991600Y-65655917D01*
X163003731Y-65532748D01*
X163051673Y-65374704D01*
X163129523Y-65229058D01*
X163234293Y-65101393D01*
X163361956Y-64996624D01*
X163361955Y-64996624D01*
X163361957Y-64996623D01*
X163429754Y-64960385D01*
X163507605Y-64918772D01*
X163665647Y-64870831D01*
X163830000Y-64854644D01*
X163994352Y-64870831D01*
G37*
G36*
X166534352Y-64870831D02*
G01*
X166692396Y-64918773D01*
X166838042Y-64996623D01*
X166965707Y-65101393D01*
X167060054Y-65216357D01*
X167070477Y-65229057D01*
X167106715Y-65296854D01*
X167148328Y-65374705D01*
X167196269Y-65532747D01*
X167208400Y-65655916D01*
X167208400Y-66449483D01*
X167196269Y-66572653D01*
X167148328Y-66730695D01*
X167125624Y-66773171D01*
X167076166Y-66865700D01*
X167070476Y-66876344D01*
X166965707Y-67004007D01*
X166853519Y-67096076D01*
X166838043Y-67108777D01*
X166770246Y-67145015D01*
X166692395Y-67186628D01*
X166534353Y-67234569D01*
X166370000Y-67250756D01*
X166205648Y-67234569D01*
X166047606Y-67186628D01*
X165969755Y-67145015D01*
X165901958Y-67108777D01*
X165886482Y-67096076D01*
X165774294Y-67004007D01*
X165669525Y-66876344D01*
X165663836Y-66865700D01*
X165614377Y-66773171D01*
X165591671Y-66730692D01*
X165543731Y-66572656D01*
X165531600Y-66449484D01*
X165531600Y-65655917D01*
X165543731Y-65532748D01*
X165591673Y-65374704D01*
X165669523Y-65229058D01*
X165774293Y-65101393D01*
X165901956Y-64996624D01*
X165901955Y-64996624D01*
X165901957Y-64996623D01*
X165969754Y-64960385D01*
X166047605Y-64918772D01*
X166205647Y-64870831D01*
X166370000Y-64854644D01*
X166534352Y-64870831D01*
G37*
G36*
X101510352Y-64870831D02*
G01*
X101668396Y-64918773D01*
X101814042Y-64996623D01*
X101941707Y-65101393D01*
X102036054Y-65216357D01*
X102046477Y-65229057D01*
X102082715Y-65296854D01*
X102124328Y-65374705D01*
X102172269Y-65532747D01*
X102184400Y-65655916D01*
X102184400Y-66449483D01*
X102172269Y-66572653D01*
X102124328Y-66730695D01*
X102101624Y-66773171D01*
X102052166Y-66865700D01*
X102046476Y-66876344D01*
X101941707Y-67004007D01*
X101829519Y-67096076D01*
X101814043Y-67108777D01*
X101746246Y-67145015D01*
X101668395Y-67186628D01*
X101510353Y-67234569D01*
X101346000Y-67250756D01*
X101181648Y-67234569D01*
X101023606Y-67186628D01*
X100945755Y-67145015D01*
X100877958Y-67108777D01*
X100862482Y-67096076D01*
X100750294Y-67004007D01*
X100645525Y-66876344D01*
X100639836Y-66865700D01*
X100590377Y-66773171D01*
X100567671Y-66730692D01*
X100519731Y-66572656D01*
X100507600Y-66449484D01*
X100507600Y-65655917D01*
X100519731Y-65532748D01*
X100567673Y-65374704D01*
X100645523Y-65229058D01*
X100750293Y-65101393D01*
X100877956Y-64996624D01*
X100877955Y-64996624D01*
X100877957Y-64996623D01*
X100945754Y-64960385D01*
X101023605Y-64918772D01*
X101181647Y-64870831D01*
X101346000Y-64854644D01*
X101510352Y-64870831D01*
G37*
G36*
X98970352Y-64870831D02*
G01*
X99128396Y-64918773D01*
X99274042Y-64996623D01*
X99401707Y-65101393D01*
X99496054Y-65216357D01*
X99506477Y-65229057D01*
X99542715Y-65296854D01*
X99584328Y-65374705D01*
X99632269Y-65532747D01*
X99644400Y-65655916D01*
X99644400Y-66449483D01*
X99632269Y-66572653D01*
X99584328Y-66730695D01*
X99561624Y-66773171D01*
X99512166Y-66865700D01*
X99506476Y-66876344D01*
X99401707Y-67004007D01*
X99289519Y-67096076D01*
X99274043Y-67108777D01*
X99206246Y-67145015D01*
X99128395Y-67186628D01*
X98970353Y-67234569D01*
X98806000Y-67250756D01*
X98641648Y-67234569D01*
X98483606Y-67186628D01*
X98405755Y-67145015D01*
X98337958Y-67108777D01*
X98322482Y-67096076D01*
X98210294Y-67004007D01*
X98105525Y-66876344D01*
X98099836Y-66865700D01*
X98050377Y-66773171D01*
X98027671Y-66730692D01*
X97979731Y-66572656D01*
X97967600Y-66449484D01*
X97967600Y-65655917D01*
X97979731Y-65532748D01*
X98027673Y-65374704D01*
X98105523Y-65229058D01*
X98210293Y-65101393D01*
X98337956Y-64996624D01*
X98337955Y-64996624D01*
X98337957Y-64996623D01*
X98405754Y-64960385D01*
X98483605Y-64918772D01*
X98641647Y-64870831D01*
X98806000Y-64854644D01*
X98970352Y-64870831D01*
G37*
G36*
X151294352Y-64858131D02*
G01*
X151452396Y-64906073D01*
X151598042Y-64983923D01*
X151725707Y-65088693D01*
X151821083Y-65204910D01*
X151830477Y-65216357D01*
X151842954Y-65239700D01*
X151908328Y-65362005D01*
X151956269Y-65520047D01*
X151968400Y-65643216D01*
X151968400Y-66436783D01*
X151956269Y-66559953D01*
X151908328Y-66717995D01*
X151878835Y-66773171D01*
X151846077Y-66834458D01*
X151830476Y-66863644D01*
X151725707Y-66991307D01*
X151609490Y-67086683D01*
X151598043Y-67096077D01*
X151530246Y-67132315D01*
X151452395Y-67173928D01*
X151294353Y-67221869D01*
X151130000Y-67238056D01*
X150965648Y-67221869D01*
X150807606Y-67173928D01*
X150729755Y-67132315D01*
X150661958Y-67096077D01*
X150650511Y-67086683D01*
X150534294Y-66991307D01*
X150429525Y-66863644D01*
X150351671Y-66717992D01*
X150303731Y-66559956D01*
X150291600Y-66436784D01*
X150291600Y-65643217D01*
X150303731Y-65520048D01*
X150347820Y-65374705D01*
X150351672Y-65362007D01*
X150351673Y-65362004D01*
X150429523Y-65216358D01*
X150534293Y-65088693D01*
X150661956Y-64983924D01*
X150661955Y-64983924D01*
X150661957Y-64983923D01*
X150729754Y-64947685D01*
X150807605Y-64906072D01*
X150965647Y-64858131D01*
X151130000Y-64841944D01*
X151294352Y-64858131D01*
G37*
G36*
X141134352Y-64858131D02*
G01*
X141292396Y-64906073D01*
X141438042Y-64983923D01*
X141565707Y-65088693D01*
X141661083Y-65204910D01*
X141670477Y-65216357D01*
X141682954Y-65239700D01*
X141748328Y-65362005D01*
X141796269Y-65520047D01*
X141808400Y-65643216D01*
X141808400Y-66436783D01*
X141796269Y-66559953D01*
X141748328Y-66717995D01*
X141718835Y-66773171D01*
X141686077Y-66834458D01*
X141670476Y-66863644D01*
X141565707Y-66991307D01*
X141449490Y-67086683D01*
X141438043Y-67096077D01*
X141370246Y-67132315D01*
X141292395Y-67173928D01*
X141134353Y-67221869D01*
X140970000Y-67238056D01*
X140805648Y-67221869D01*
X140647606Y-67173928D01*
X140569755Y-67132315D01*
X140501958Y-67096077D01*
X140490511Y-67086683D01*
X140374294Y-66991307D01*
X140269525Y-66863644D01*
X140191671Y-66717992D01*
X140143731Y-66559956D01*
X140131600Y-66436784D01*
X140131600Y-65643217D01*
X140143731Y-65520048D01*
X140187820Y-65374705D01*
X140191672Y-65362007D01*
X140191673Y-65362004D01*
X140269523Y-65216358D01*
X140374293Y-65088693D01*
X140501956Y-64983924D01*
X140501955Y-64983924D01*
X140501957Y-64983923D01*
X140569754Y-64947685D01*
X140647605Y-64906072D01*
X140805647Y-64858131D01*
X140970000Y-64841944D01*
X141134352Y-64858131D01*
G37*
G36*
X148754352Y-64858131D02*
G01*
X148912396Y-64906073D01*
X149058042Y-64983923D01*
X149185707Y-65088693D01*
X149281083Y-65204910D01*
X149290477Y-65216357D01*
X149302954Y-65239700D01*
X149368328Y-65362005D01*
X149416269Y-65520047D01*
X149428400Y-65643216D01*
X149428400Y-66436783D01*
X149416269Y-66559953D01*
X149368328Y-66717995D01*
X149338835Y-66773171D01*
X149306077Y-66834458D01*
X149290476Y-66863644D01*
X149185707Y-66991307D01*
X149069490Y-67086683D01*
X149058043Y-67096077D01*
X148990246Y-67132315D01*
X148912395Y-67173928D01*
X148754353Y-67221869D01*
X148590000Y-67238056D01*
X148425648Y-67221869D01*
X148267606Y-67173928D01*
X148189755Y-67132315D01*
X148121958Y-67096077D01*
X148110511Y-67086683D01*
X147994294Y-66991307D01*
X147889525Y-66863644D01*
X147811671Y-66717992D01*
X147763731Y-66559956D01*
X147751600Y-66436784D01*
X147751600Y-65643217D01*
X147763731Y-65520048D01*
X147807820Y-65374705D01*
X147811672Y-65362007D01*
X147811673Y-65362004D01*
X147889523Y-65216358D01*
X147994293Y-65088693D01*
X148121956Y-64983924D01*
X148121955Y-64983924D01*
X148121957Y-64983923D01*
X148189754Y-64947685D01*
X148267605Y-64906072D01*
X148425647Y-64858131D01*
X148590000Y-64841944D01*
X148754352Y-64858131D01*
G37*
G36*
X119290352Y-64858131D02*
G01*
X119448396Y-64906073D01*
X119594042Y-64983923D01*
X119721707Y-65088693D01*
X119817083Y-65204910D01*
X119826477Y-65216357D01*
X119838954Y-65239700D01*
X119904328Y-65362005D01*
X119952269Y-65520047D01*
X119964400Y-65643216D01*
X119964400Y-66436783D01*
X119952269Y-66559953D01*
X119904328Y-66717995D01*
X119874835Y-66773171D01*
X119842077Y-66834458D01*
X119826476Y-66863644D01*
X119721707Y-66991307D01*
X119605490Y-67086683D01*
X119594043Y-67096077D01*
X119526246Y-67132315D01*
X119448395Y-67173928D01*
X119290353Y-67221869D01*
X119126000Y-67238056D01*
X118961648Y-67221869D01*
X118803606Y-67173928D01*
X118725755Y-67132315D01*
X118657958Y-67096077D01*
X118646511Y-67086683D01*
X118530294Y-66991307D01*
X118425525Y-66863644D01*
X118347671Y-66717992D01*
X118299731Y-66559956D01*
X118287600Y-66436784D01*
X118287600Y-65643217D01*
X118299731Y-65520048D01*
X118343820Y-65374705D01*
X118347672Y-65362007D01*
X118347673Y-65362004D01*
X118425523Y-65216358D01*
X118530293Y-65088693D01*
X118657956Y-64983924D01*
X118657955Y-64983924D01*
X118657957Y-64983923D01*
X118725754Y-64947685D01*
X118803605Y-64906072D01*
X118961647Y-64858131D01*
X119126000Y-64841944D01*
X119290352Y-64858131D01*
G37*
G36*
X109130352Y-64858131D02*
G01*
X109288396Y-64906073D01*
X109434042Y-64983923D01*
X109561707Y-65088693D01*
X109657083Y-65204910D01*
X109666477Y-65216357D01*
X109678954Y-65239700D01*
X109744328Y-65362005D01*
X109792269Y-65520047D01*
X109804400Y-65643216D01*
X109804400Y-66436783D01*
X109792269Y-66559953D01*
X109744328Y-66717995D01*
X109714835Y-66773171D01*
X109682077Y-66834458D01*
X109666476Y-66863644D01*
X109561707Y-66991307D01*
X109445490Y-67086683D01*
X109434043Y-67096077D01*
X109366246Y-67132315D01*
X109288395Y-67173928D01*
X109130353Y-67221869D01*
X108966000Y-67238056D01*
X108801648Y-67221869D01*
X108643606Y-67173928D01*
X108565755Y-67132315D01*
X108497958Y-67096077D01*
X108486511Y-67086683D01*
X108370294Y-66991307D01*
X108265525Y-66863644D01*
X108187671Y-66717992D01*
X108139731Y-66559956D01*
X108127600Y-66436784D01*
X108127600Y-65643217D01*
X108139731Y-65520048D01*
X108183820Y-65374705D01*
X108187672Y-65362007D01*
X108187673Y-65362004D01*
X108265523Y-65216358D01*
X108370293Y-65088693D01*
X108497956Y-64983924D01*
X108497955Y-64983924D01*
X108497957Y-64983923D01*
X108565754Y-64947685D01*
X108643605Y-64906072D01*
X108801647Y-64858131D01*
X108966000Y-64841944D01*
X109130352Y-64858131D01*
G37*
G36*
X111670352Y-64858131D02*
G01*
X111828396Y-64906073D01*
X111974042Y-64983923D01*
X112101707Y-65088693D01*
X112197083Y-65204910D01*
X112206477Y-65216357D01*
X112218954Y-65239700D01*
X112284328Y-65362005D01*
X112332269Y-65520047D01*
X112344400Y-65643216D01*
X112344400Y-66436783D01*
X112332269Y-66559953D01*
X112284328Y-66717995D01*
X112254835Y-66773171D01*
X112222077Y-66834458D01*
X112206476Y-66863644D01*
X112101707Y-66991307D01*
X111985490Y-67086683D01*
X111974043Y-67096077D01*
X111906246Y-67132315D01*
X111828395Y-67173928D01*
X111670353Y-67221869D01*
X111506000Y-67238056D01*
X111341648Y-67221869D01*
X111183606Y-67173928D01*
X111105755Y-67132315D01*
X111037958Y-67096077D01*
X111026511Y-67086683D01*
X110910294Y-66991307D01*
X110805525Y-66863644D01*
X110727671Y-66717992D01*
X110679731Y-66559956D01*
X110667600Y-66436784D01*
X110667600Y-65643217D01*
X110679731Y-65520048D01*
X110723820Y-65374705D01*
X110727672Y-65362007D01*
X110727673Y-65362004D01*
X110805523Y-65216358D01*
X110910293Y-65088693D01*
X111037956Y-64983924D01*
X111037955Y-64983924D01*
X111037957Y-64983923D01*
X111105754Y-64947685D01*
X111183605Y-64906072D01*
X111341647Y-64858131D01*
X111506000Y-64841944D01*
X111670352Y-64858131D01*
G37*
G36*
X114210352Y-64858131D02*
G01*
X114368396Y-64906073D01*
X114514042Y-64983923D01*
X114641707Y-65088693D01*
X114737083Y-65204910D01*
X114746477Y-65216357D01*
X114758954Y-65239700D01*
X114824328Y-65362005D01*
X114872269Y-65520047D01*
X114884400Y-65643216D01*
X114884400Y-66436783D01*
X114872269Y-66559953D01*
X114824328Y-66717995D01*
X114794835Y-66773171D01*
X114762077Y-66834458D01*
X114746476Y-66863644D01*
X114641707Y-66991307D01*
X114525490Y-67086683D01*
X114514043Y-67096077D01*
X114446246Y-67132315D01*
X114368395Y-67173928D01*
X114210353Y-67221869D01*
X114046000Y-67238056D01*
X113881648Y-67221869D01*
X113723606Y-67173928D01*
X113645755Y-67132315D01*
X113577958Y-67096077D01*
X113566511Y-67086683D01*
X113450294Y-66991307D01*
X113345525Y-66863644D01*
X113267671Y-66717992D01*
X113219731Y-66559956D01*
X113207600Y-66436784D01*
X113207600Y-65643217D01*
X113219731Y-65520048D01*
X113263820Y-65374705D01*
X113267672Y-65362007D01*
X113267673Y-65362004D01*
X113345523Y-65216358D01*
X113450293Y-65088693D01*
X113577956Y-64983924D01*
X113577955Y-64983924D01*
X113577957Y-64983923D01*
X113645754Y-64947685D01*
X113723605Y-64906072D01*
X113881647Y-64858131D01*
X114046000Y-64841944D01*
X114210352Y-64858131D01*
G37*
G36*
X116750352Y-64858131D02*
G01*
X116908396Y-64906073D01*
X117054042Y-64983923D01*
X117181707Y-65088693D01*
X117277083Y-65204910D01*
X117286477Y-65216357D01*
X117298954Y-65239700D01*
X117364328Y-65362005D01*
X117412269Y-65520047D01*
X117424400Y-65643216D01*
X117424400Y-66436783D01*
X117412269Y-66559953D01*
X117364328Y-66717995D01*
X117334835Y-66773171D01*
X117302077Y-66834458D01*
X117286476Y-66863644D01*
X117181707Y-66991307D01*
X117065490Y-67086683D01*
X117054043Y-67096077D01*
X116986246Y-67132315D01*
X116908395Y-67173928D01*
X116750353Y-67221869D01*
X116586000Y-67238056D01*
X116421648Y-67221869D01*
X116263606Y-67173928D01*
X116185755Y-67132315D01*
X116117958Y-67096077D01*
X116106511Y-67086683D01*
X115990294Y-66991307D01*
X115885525Y-66863644D01*
X115807671Y-66717992D01*
X115759731Y-66559956D01*
X115747600Y-66436784D01*
X115747600Y-65643217D01*
X115759731Y-65520048D01*
X115803820Y-65374705D01*
X115807672Y-65362007D01*
X115807673Y-65362004D01*
X115885523Y-65216358D01*
X115990293Y-65088693D01*
X116117956Y-64983924D01*
X116117955Y-64983924D01*
X116117957Y-64983923D01*
X116185754Y-64947685D01*
X116263605Y-64906072D01*
X116421647Y-64858131D01*
X116586000Y-64841944D01*
X116750352Y-64858131D01*
G37*
G36*
X125894352Y-64858131D02*
G01*
X126052396Y-64906073D01*
X126198042Y-64983923D01*
X126325707Y-65088693D01*
X126421083Y-65204910D01*
X126430477Y-65216357D01*
X126442954Y-65239700D01*
X126508328Y-65362005D01*
X126556269Y-65520047D01*
X126568400Y-65643216D01*
X126568400Y-66436783D01*
X126556269Y-66559953D01*
X126508328Y-66717995D01*
X126478835Y-66773171D01*
X126446077Y-66834458D01*
X126430476Y-66863644D01*
X126325707Y-66991307D01*
X126209490Y-67086683D01*
X126198043Y-67096077D01*
X126130246Y-67132315D01*
X126052395Y-67173928D01*
X125894353Y-67221869D01*
X125730000Y-67238056D01*
X125565648Y-67221869D01*
X125407606Y-67173928D01*
X125329755Y-67132315D01*
X125261958Y-67096077D01*
X125250511Y-67086683D01*
X125134294Y-66991307D01*
X125029525Y-66863644D01*
X124951671Y-66717992D01*
X124903731Y-66559956D01*
X124891600Y-66436784D01*
X124891600Y-65643217D01*
X124903731Y-65520048D01*
X124947820Y-65374705D01*
X124951672Y-65362007D01*
X124951673Y-65362004D01*
X125029523Y-65216358D01*
X125134293Y-65088693D01*
X125261956Y-64983924D01*
X125261955Y-64983924D01*
X125261957Y-64983923D01*
X125329754Y-64947685D01*
X125407605Y-64906072D01*
X125565647Y-64858131D01*
X125730000Y-64841944D01*
X125894352Y-64858131D01*
G37*
G36*
X128434352Y-64858131D02*
G01*
X128592396Y-64906073D01*
X128738042Y-64983923D01*
X128865707Y-65088693D01*
X128961083Y-65204910D01*
X128970477Y-65216357D01*
X128982954Y-65239700D01*
X129048328Y-65362005D01*
X129096269Y-65520047D01*
X129108400Y-65643216D01*
X129108400Y-66436783D01*
X129096269Y-66559953D01*
X129048328Y-66717995D01*
X129018835Y-66773171D01*
X128986077Y-66834458D01*
X128970476Y-66863644D01*
X128865707Y-66991307D01*
X128749490Y-67086683D01*
X128738043Y-67096077D01*
X128670246Y-67132315D01*
X128592395Y-67173928D01*
X128434353Y-67221869D01*
X128270000Y-67238056D01*
X128105648Y-67221869D01*
X127947606Y-67173928D01*
X127869755Y-67132315D01*
X127801958Y-67096077D01*
X127790511Y-67086683D01*
X127674294Y-66991307D01*
X127569525Y-66863644D01*
X127491671Y-66717992D01*
X127443731Y-66559956D01*
X127431600Y-66436784D01*
X127431600Y-65643217D01*
X127443731Y-65520048D01*
X127487820Y-65374705D01*
X127491672Y-65362007D01*
X127491673Y-65362004D01*
X127569523Y-65216358D01*
X127674293Y-65088693D01*
X127801956Y-64983924D01*
X127801955Y-64983924D01*
X127801957Y-64983923D01*
X127869754Y-64947685D01*
X127947605Y-64906072D01*
X128105647Y-64858131D01*
X128270000Y-64841944D01*
X128434352Y-64858131D01*
G37*
G36*
X121830352Y-64858131D02*
G01*
X121988396Y-64906073D01*
X122134042Y-64983923D01*
X122261707Y-65088693D01*
X122357083Y-65204910D01*
X122366477Y-65216357D01*
X122378954Y-65239700D01*
X122444328Y-65362005D01*
X122492269Y-65520047D01*
X122504400Y-65643216D01*
X122504400Y-66436783D01*
X122492269Y-66559953D01*
X122444328Y-66717995D01*
X122414835Y-66773171D01*
X122382077Y-66834458D01*
X122366476Y-66863644D01*
X122261707Y-66991307D01*
X122145490Y-67086683D01*
X122134043Y-67096077D01*
X122066246Y-67132315D01*
X121988395Y-67173928D01*
X121830353Y-67221869D01*
X121666000Y-67238056D01*
X121501648Y-67221869D01*
X121343606Y-67173928D01*
X121265755Y-67132315D01*
X121197958Y-67096077D01*
X121186511Y-67086683D01*
X121070294Y-66991307D01*
X120965525Y-66863644D01*
X120887671Y-66717992D01*
X120839731Y-66559956D01*
X120827600Y-66436784D01*
X120827600Y-65643217D01*
X120839731Y-65520048D01*
X120883820Y-65374705D01*
X120887672Y-65362007D01*
X120887673Y-65362004D01*
X120965523Y-65216358D01*
X121070293Y-65088693D01*
X121197956Y-64983924D01*
X121197955Y-64983924D01*
X121197957Y-64983923D01*
X121265754Y-64947685D01*
X121343605Y-64906072D01*
X121501647Y-64858131D01*
X121666000Y-64841944D01*
X121830352Y-64858131D01*
G37*
G36*
X153834352Y-64858131D02*
G01*
X153992396Y-64906073D01*
X154138042Y-64983923D01*
X154265707Y-65088693D01*
X154361083Y-65204910D01*
X154370477Y-65216357D01*
X154382954Y-65239700D01*
X154448328Y-65362005D01*
X154496269Y-65520047D01*
X154508400Y-65643216D01*
X154508400Y-66436783D01*
X154496269Y-66559953D01*
X154448328Y-66717995D01*
X154418835Y-66773171D01*
X154386077Y-66834458D01*
X154370476Y-66863644D01*
X154265707Y-66991307D01*
X154149490Y-67086683D01*
X154138043Y-67096077D01*
X154070246Y-67132315D01*
X153992395Y-67173928D01*
X153834353Y-67221869D01*
X153670000Y-67238056D01*
X153505648Y-67221869D01*
X153347606Y-67173928D01*
X153269755Y-67132315D01*
X153201958Y-67096077D01*
X153190511Y-67086683D01*
X153074294Y-66991307D01*
X152969525Y-66863644D01*
X152891671Y-66717992D01*
X152843731Y-66559956D01*
X152831600Y-66436784D01*
X152831600Y-65643217D01*
X152843731Y-65520048D01*
X152887820Y-65374705D01*
X152891672Y-65362007D01*
X152891673Y-65362004D01*
X152969523Y-65216358D01*
X153074293Y-65088693D01*
X153201956Y-64983924D01*
X153201955Y-64983924D01*
X153201957Y-64983923D01*
X153269754Y-64947685D01*
X153347605Y-64906072D01*
X153505647Y-64858131D01*
X153670000Y-64841944D01*
X153834352Y-64858131D01*
G37*
G36*
X156374352Y-64858131D02*
G01*
X156532396Y-64906073D01*
X156678042Y-64983923D01*
X156805707Y-65088693D01*
X156901083Y-65204910D01*
X156910477Y-65216357D01*
X156922954Y-65239700D01*
X156988328Y-65362005D01*
X157036269Y-65520047D01*
X157048400Y-65643216D01*
X157048400Y-66436783D01*
X157036269Y-66559953D01*
X156988328Y-66717995D01*
X156958835Y-66773171D01*
X156926077Y-66834458D01*
X156910476Y-66863644D01*
X156805707Y-66991307D01*
X156689490Y-67086683D01*
X156678043Y-67096077D01*
X156610246Y-67132315D01*
X156532395Y-67173928D01*
X156374353Y-67221869D01*
X156210000Y-67238056D01*
X156045648Y-67221869D01*
X155887606Y-67173928D01*
X155809755Y-67132315D01*
X155741958Y-67096077D01*
X155730511Y-67086683D01*
X155614294Y-66991307D01*
X155509525Y-66863644D01*
X155431671Y-66717992D01*
X155383731Y-66559956D01*
X155371600Y-66436784D01*
X155371600Y-65643217D01*
X155383731Y-65520048D01*
X155427820Y-65374705D01*
X155431672Y-65362007D01*
X155431673Y-65362004D01*
X155509523Y-65216358D01*
X155614293Y-65088693D01*
X155741956Y-64983924D01*
X155741955Y-64983924D01*
X155741957Y-64983923D01*
X155809754Y-64947685D01*
X155887605Y-64906072D01*
X156045647Y-64858131D01*
X156210000Y-64841944D01*
X156374352Y-64858131D01*
G37*
G36*
X158914352Y-64858131D02*
G01*
X159072396Y-64906073D01*
X159218042Y-64983923D01*
X159345707Y-65088693D01*
X159441083Y-65204910D01*
X159450477Y-65216357D01*
X159462954Y-65239700D01*
X159528328Y-65362005D01*
X159576269Y-65520047D01*
X159588400Y-65643216D01*
X159588400Y-66436783D01*
X159576269Y-66559953D01*
X159528328Y-66717995D01*
X159498835Y-66773171D01*
X159466077Y-66834458D01*
X159450476Y-66863644D01*
X159345707Y-66991307D01*
X159229490Y-67086683D01*
X159218043Y-67096077D01*
X159150246Y-67132315D01*
X159072395Y-67173928D01*
X158914353Y-67221869D01*
X158750000Y-67238056D01*
X158585648Y-67221869D01*
X158427606Y-67173928D01*
X158349755Y-67132315D01*
X158281958Y-67096077D01*
X158270511Y-67086683D01*
X158154294Y-66991307D01*
X158049525Y-66863644D01*
X157971671Y-66717992D01*
X157923731Y-66559956D01*
X157911600Y-66436784D01*
X157911600Y-65643217D01*
X157923731Y-65520048D01*
X157967820Y-65374705D01*
X157971672Y-65362007D01*
X157971673Y-65362004D01*
X158049523Y-65216358D01*
X158154293Y-65088693D01*
X158281956Y-64983924D01*
X158281955Y-64983924D01*
X158281957Y-64983923D01*
X158349754Y-64947685D01*
X158427605Y-64906072D01*
X158585647Y-64858131D01*
X158750000Y-64841944D01*
X158914352Y-64858131D01*
G37*
G36*
X161454352Y-64858131D02*
G01*
X161612396Y-64906073D01*
X161758042Y-64983923D01*
X161885707Y-65088693D01*
X161981083Y-65204910D01*
X161990477Y-65216357D01*
X162002954Y-65239700D01*
X162068328Y-65362005D01*
X162116269Y-65520047D01*
X162128400Y-65643216D01*
X162128400Y-66436783D01*
X162116269Y-66559953D01*
X162068328Y-66717995D01*
X162038835Y-66773171D01*
X162006077Y-66834458D01*
X161990476Y-66863644D01*
X161885707Y-66991307D01*
X161769490Y-67086683D01*
X161758043Y-67096077D01*
X161690246Y-67132315D01*
X161612395Y-67173928D01*
X161454353Y-67221869D01*
X161290000Y-67238056D01*
X161125648Y-67221869D01*
X160967606Y-67173928D01*
X160889755Y-67132315D01*
X160821958Y-67096077D01*
X160810511Y-67086683D01*
X160694294Y-66991307D01*
X160589525Y-66863644D01*
X160511671Y-66717992D01*
X160463731Y-66559956D01*
X160451600Y-66436784D01*
X160451600Y-65643217D01*
X160463731Y-65520048D01*
X160507820Y-65374705D01*
X160511672Y-65362007D01*
X160511673Y-65362004D01*
X160589523Y-65216358D01*
X160694293Y-65088693D01*
X160821956Y-64983924D01*
X160821955Y-64983924D01*
X160821957Y-64983923D01*
X160889754Y-64947685D01*
X160967605Y-64906072D01*
X161125647Y-64858131D01*
X161290000Y-64841944D01*
X161454352Y-64858131D01*
G37*
G36*
X138594352Y-64858131D02*
G01*
X138752396Y-64906073D01*
X138898042Y-64983923D01*
X139025707Y-65088693D01*
X139121083Y-65204910D01*
X139130477Y-65216357D01*
X139142954Y-65239700D01*
X139208328Y-65362005D01*
X139256269Y-65520047D01*
X139268400Y-65643216D01*
X139268400Y-66436783D01*
X139256269Y-66559953D01*
X139208328Y-66717995D01*
X139178835Y-66773171D01*
X139146077Y-66834458D01*
X139130476Y-66863644D01*
X139025707Y-66991307D01*
X138909490Y-67086683D01*
X138898043Y-67096077D01*
X138830246Y-67132315D01*
X138752395Y-67173928D01*
X138594353Y-67221869D01*
X138430000Y-67238056D01*
X138265648Y-67221869D01*
X138107606Y-67173928D01*
X138029755Y-67132315D01*
X137961958Y-67096077D01*
X137950511Y-67086683D01*
X137834294Y-66991307D01*
X137729525Y-66863644D01*
X137651671Y-66717992D01*
X137603731Y-66559956D01*
X137591600Y-66436784D01*
X137591600Y-65643217D01*
X137603731Y-65520048D01*
X137647820Y-65374705D01*
X137651672Y-65362007D01*
X137651673Y-65362004D01*
X137729523Y-65216358D01*
X137834293Y-65088693D01*
X137961956Y-64983924D01*
X137961955Y-64983924D01*
X137961957Y-64983923D01*
X138029754Y-64947685D01*
X138107605Y-64906072D01*
X138265647Y-64858131D01*
X138430000Y-64841944D01*
X138594352Y-64858131D01*
G37*
G36*
X136054352Y-64858131D02*
G01*
X136212396Y-64906073D01*
X136358042Y-64983923D01*
X136485707Y-65088693D01*
X136581083Y-65204910D01*
X136590477Y-65216357D01*
X136602954Y-65239700D01*
X136668328Y-65362005D01*
X136716269Y-65520047D01*
X136728400Y-65643216D01*
X136728400Y-66436783D01*
X136716269Y-66559953D01*
X136668328Y-66717995D01*
X136638835Y-66773171D01*
X136606077Y-66834458D01*
X136590476Y-66863644D01*
X136485707Y-66991307D01*
X136369490Y-67086683D01*
X136358043Y-67096077D01*
X136290246Y-67132315D01*
X136212395Y-67173928D01*
X136054353Y-67221869D01*
X135890000Y-67238056D01*
X135725648Y-67221869D01*
X135567606Y-67173928D01*
X135489755Y-67132315D01*
X135421958Y-67096077D01*
X135410511Y-67086683D01*
X135294294Y-66991307D01*
X135189525Y-66863644D01*
X135111671Y-66717992D01*
X135063731Y-66559956D01*
X135051600Y-66436784D01*
X135051600Y-65643217D01*
X135063731Y-65520048D01*
X135107820Y-65374705D01*
X135111672Y-65362007D01*
X135111673Y-65362004D01*
X135189523Y-65216358D01*
X135294293Y-65088693D01*
X135421956Y-64983924D01*
X135421955Y-64983924D01*
X135421957Y-64983923D01*
X135489754Y-64947685D01*
X135567605Y-64906072D01*
X135725647Y-64858131D01*
X135890000Y-64841944D01*
X136054352Y-64858131D01*
G37*
G36*
X133514352Y-64858131D02*
G01*
X133672396Y-64906073D01*
X133818042Y-64983923D01*
X133945707Y-65088693D01*
X134041083Y-65204910D01*
X134050477Y-65216357D01*
X134062954Y-65239700D01*
X134128328Y-65362005D01*
X134176269Y-65520047D01*
X134188400Y-65643216D01*
X134188400Y-66436783D01*
X134176269Y-66559953D01*
X134128328Y-66717995D01*
X134098835Y-66773171D01*
X134066077Y-66834458D01*
X134050476Y-66863644D01*
X133945707Y-66991307D01*
X133829490Y-67086683D01*
X133818043Y-67096077D01*
X133750246Y-67132315D01*
X133672395Y-67173928D01*
X133514353Y-67221869D01*
X133350000Y-67238056D01*
X133185648Y-67221869D01*
X133027606Y-67173928D01*
X132949755Y-67132315D01*
X132881958Y-67096077D01*
X132870511Y-67086683D01*
X132754294Y-66991307D01*
X132649525Y-66863644D01*
X132571671Y-66717992D01*
X132523731Y-66559956D01*
X132511600Y-66436784D01*
X132511600Y-65643217D01*
X132523731Y-65520048D01*
X132567820Y-65374705D01*
X132571672Y-65362007D01*
X132571673Y-65362004D01*
X132649523Y-65216358D01*
X132754293Y-65088693D01*
X132881956Y-64983924D01*
X132881955Y-64983924D01*
X132881957Y-64983923D01*
X132949754Y-64947685D01*
X133027605Y-64906072D01*
X133185647Y-64858131D01*
X133350000Y-64841944D01*
X133514352Y-64858131D01*
G37*
G36*
X130974352Y-64858131D02*
G01*
X131132396Y-64906073D01*
X131278042Y-64983923D01*
X131405707Y-65088693D01*
X131501083Y-65204910D01*
X131510477Y-65216357D01*
X131522954Y-65239700D01*
X131588328Y-65362005D01*
X131636269Y-65520047D01*
X131648400Y-65643216D01*
X131648400Y-66436783D01*
X131636269Y-66559953D01*
X131588328Y-66717995D01*
X131558835Y-66773171D01*
X131526077Y-66834458D01*
X131510476Y-66863644D01*
X131405707Y-66991307D01*
X131289490Y-67086683D01*
X131278043Y-67096077D01*
X131210246Y-67132315D01*
X131132395Y-67173928D01*
X130974353Y-67221869D01*
X130810000Y-67238056D01*
X130645648Y-67221869D01*
X130487606Y-67173928D01*
X130409755Y-67132315D01*
X130341958Y-67096077D01*
X130330511Y-67086683D01*
X130214294Y-66991307D01*
X130109525Y-66863644D01*
X130031671Y-66717992D01*
X129983731Y-66559956D01*
X129971600Y-66436784D01*
X129971600Y-65643217D01*
X129983731Y-65520048D01*
X130027820Y-65374705D01*
X130031672Y-65362007D01*
X130031673Y-65362004D01*
X130109523Y-65216358D01*
X130214293Y-65088693D01*
X130341956Y-64983924D01*
X130341955Y-64983924D01*
X130341957Y-64983923D01*
X130409754Y-64947685D01*
X130487605Y-64906072D01*
X130645647Y-64858131D01*
X130810000Y-64841944D01*
X130974352Y-64858131D01*
G37*
G36*
X174227142Y-65270942D02*
G01*
X174375101Y-65332229D01*
X174508255Y-65421199D01*
X174621501Y-65534445D01*
X174710471Y-65667599D01*
X174771758Y-65815558D01*
X174803000Y-65972625D01*
X174803000Y-66132775D01*
X174771758Y-66289842D01*
X174710471Y-66437801D01*
X174621501Y-66570955D01*
X174508255Y-66684201D01*
X174375101Y-66773171D01*
X174227142Y-66834458D01*
X174070075Y-66865700D01*
X173909925Y-66865700D01*
X173752858Y-66834458D01*
X173604899Y-66773171D01*
X173471745Y-66684201D01*
X173358499Y-66570955D01*
X173269529Y-66437801D01*
X173208242Y-66289842D01*
X173177000Y-66132775D01*
X173177000Y-65972625D01*
X173208242Y-65815558D01*
X173269529Y-65667599D01*
X173358499Y-65534445D01*
X173471745Y-65421199D01*
X173604899Y-65332229D01*
X173752858Y-65270942D01*
X173909925Y-65239700D01*
X174070075Y-65239700D01*
X174227142Y-65270942D01*
G37*
G36*
X176767142Y-65270942D02*
G01*
X176915101Y-65332229D01*
X177048255Y-65421199D01*
X177161501Y-65534445D01*
X177250471Y-65667599D01*
X177311758Y-65815558D01*
X177343000Y-65972625D01*
X177343000Y-66132775D01*
X177311758Y-66289842D01*
X177250471Y-66437801D01*
X177161501Y-66570955D01*
X177048255Y-66684201D01*
X176915101Y-66773171D01*
X176767142Y-66834458D01*
X176610075Y-66865700D01*
X176449925Y-66865700D01*
X176292858Y-66834458D01*
X176144899Y-66773171D01*
X176011745Y-66684201D01*
X175898499Y-66570955D01*
X175809529Y-66437801D01*
X175748242Y-66289842D01*
X175717000Y-66132775D01*
X175717000Y-65972625D01*
X175748242Y-65815558D01*
X175809529Y-65667599D01*
X175898499Y-65534445D01*
X176011745Y-65421199D01*
X176144899Y-65332229D01*
X176292858Y-65270942D01*
X176449925Y-65239700D01*
X176610075Y-65239700D01*
X176767142Y-65270942D01*
G37*
M02*
